<svg width="33" height="33" viewBox="0 0 33 33" fill="none" xmlns="http://www.w3.org/2000/svg">
<path fill-rule="evenodd" clip-rule="evenodd" d="M32.9944 32.9839C32.7261 32.9512 32.4622 32.8918 32.2068 32.8066C31.8742 32.6937 31.5613 32.5334 31.2787 32.3313C31.0997 32.2024 30.9331 32.0586 30.7808 31.9016C30.7218 31.8398 30.6627 31.778 30.6064 31.7136C30.4669 31.859 30.3165 31.9945 30.1564 32.1191C29.8855 32.3287 29.5866 32.503 29.2676 32.6374C28.7966 32.8379 28.287 32.9422 27.7713 32.9436C27.509 32.9429 27.2477 32.914 26.9922 32.8577C26.7381 32.8009 26.4917 32.7162 26.2581 32.6052C25.9785 32.4727 25.7185 32.3057 25.4846 32.1084C25.3569 31.9975 25.2367 31.8791 25.1246 31.7539C25.0599 31.8291 24.9924 31.8989 24.9249 31.966C24.7672 32.1262 24.5949 32.2726 24.4102 32.4038C24.1711 32.5773 23.9079 32.7183 23.6283 32.8227C23.3581 32.9216 23.0734 32.9796 22.7845 32.9946C22.4894 33.0105 22.1935 32.9833 21.9069 32.9141C21.605 32.8422 21.3146 32.732 21.0434 32.5864C20.7696 32.441 20.5115 32.27 20.2728 32.0761C20.1209 31.9526 19.9662 31.8076 19.8143 31.6652C19.6894 31.8135 19.5531 31.9526 19.4065 32.0815C19.1646 32.2951 18.8929 32.4759 18.5993 32.6186C18.3766 32.7245 18.1428 32.8073 17.9017 32.8657C17.4171 32.9812 16.9115 32.9913 16.4223 32.8953C16.1742 32.8461 15.9326 32.7704 15.7022 32.6697C15.3782 32.5319 15.0761 32.351 14.805 32.1325C14.6339 31.9977 14.4749 31.8495 14.3297 31.6894C14.1232 31.9703 13.8739 32.2202 13.5899 32.4306C13.2911 32.6456 12.9494 32.8 12.5858 32.8845C12.2098 32.969 11.8204 32.9845 11.4383 32.9302C11.0651 32.9134 10.6965 32.8446 10.3442 32.7261C10.0115 32.6131 9.69857 32.4528 9.41598 32.2507C9.23637 32.1226 9.0697 31.9787 8.91814 31.821C8.85908 31.7619 8.80001 31.6975 8.74376 31.633C8.60498 31.7791 8.45452 31.9147 8.29373 32.0385C8.02226 32.2495 7.72238 32.4247 7.40213 32.5596C7.1658 32.6576 6.91991 32.7332 6.66803 32.7851C6.41747 32.8363 6.16202 32.8624 5.9058 32.863C5.64355 32.8623 5.38221 32.8335 5.1267 32.7771C4.8726 32.7203 4.62625 32.6356 4.3926 32.5246C4.11265 32.3928 3.8525 32.2257 3.61912 32.0278C3.48736 31.9233 3.36331 31.8102 3.24785 31.6894C3.18316 31.7619 3.11566 31.8317 3.04815 31.8989C2.89079 32.0569 2.71849 32.2008 2.53344 32.3286C2.29086 32.5029 2.02387 32.644 1.74027 32.7475C1.46977 32.8458 1.18532 32.9047 0.896482 32.9221C0.796243 32.9275 0.695767 32.9275 0.595529 32.9221C0.505524 32.9221 0.415519 32.9221 0.314264 32.8953C0.230193 32.8918 0.150775 32.8574 0.0925974 32.7994C0.0344198 32.7413 0.00198247 32.6641 0.00206068 32.5837V31.8022C-0.000686893 31.7799 -0.000686893 31.7574 0.00206068 31.7351C0.0209065 31.654 0.0726143 31.5833 0.145877 31.5385C0.21914 31.4937 0.307997 31.4785 0.393018 31.496C0.46066 31.5104 0.529266 31.5203 0.598341 31.5256C0.664791 31.5309 0.731589 31.5309 0.798039 31.5256C0.944441 31.517 1.08861 31.4871 1.22556 31.437C1.37859 31.3793 1.52248 31.3015 1.65308 31.206C1.83716 31.0718 2.00339 30.9167 2.14811 30.7441C2.3283 30.5358 2.48923 30.3129 2.62907 30.078C2.66025 30.0194 2.70108 29.9659 2.75001 29.9196L2.77252 29.8981C2.85782 29.8216 2.96109 29.7658 3.07365 29.7354C3.18622 29.7049 3.3048 29.7007 3.41943 29.7231C3.53406 29.7454 3.64139 29.7937 3.73242 29.8639C3.82346 29.9341 3.89552 30.0241 3.94257 30.1264C4.0578 30.3832 4.21544 30.6208 4.40947 30.83C4.58307 31.0162 4.79209 31.1693 5.02544 31.2812C5.1578 31.3436 5.29757 31.3905 5.44171 31.4208C5.58928 31.4534 5.74028 31.4697 5.89174 31.4692C6.04485 31.4688 6.19752 31.4535 6.34738 31.4235C6.50295 31.3907 6.65467 31.343 6.80022 31.2812C7.07431 31.1658 7.32477 31.0048 7.53995 30.8058C7.76399 30.5941 7.94937 30.3481 8.08841 30.078C8.12142 30.0073 8.16605 29.942 8.22061 29.8847C8.28019 29.8221 8.35181 29.7711 8.43155 29.7343C8.59996 29.6573 8.79284 29.6447 8.97065 29.6991C9.14846 29.7536 9.29772 29.8709 9.38785 30.027L9.40754 30.0592C9.51871 30.2785 9.65151 30.4871 9.80412 30.6823C9.93907 30.8601 10.1001 31.0183 10.2823 31.1523C10.4483 31.2685 10.6325 31.3591 10.8279 31.4208C11.0412 31.4906 11.2637 31.5313 11.4889 31.5417H11.5508H11.6183C11.8199 31.5785 12.027 31.5785 12.2286 31.5417C12.396 31.5053 12.5539 31.4368 12.6927 31.3403H12.7124C12.8924 31.2059 13.0482 31.0445 13.1737 30.8622C13.3377 30.6162 13.4717 30.3531 13.5731 30.078C13.6067 30.0001 13.6543 29.9283 13.7137 29.8659C13.7649 29.8109 13.8246 29.7637 13.8909 29.7262L13.9275 29.7074C14.0139 29.6658 14.1082 29.641 14.2048 29.6345C14.3013 29.6281 14.3983 29.6401 14.49 29.6698C14.5813 29.6987 14.6656 29.7447 14.7381 29.8051C14.8105 29.8655 14.8696 29.9391 14.9119 30.0216C15.0724 30.3326 15.281 30.6186 15.5307 30.8703C15.7461 31.0869 16.0016 31.2636 16.2845 31.3913C16.4177 31.4491 16.5573 31.4924 16.7007 31.5202C16.8392 31.5494 16.9808 31.5629 17.1226 31.5605C17.4009 31.5532 17.6739 31.4862 17.9214 31.3644C18.1611 31.249 18.3758 31.0913 18.5543 30.8998C18.7489 30.6924 18.9092 30.4579 19.0296 30.2043V30.1855C19.0567 30.1338 19.0897 30.0852 19.128 30.0404C19.162 30.0023 19.1997 29.9672 19.2405 29.9357L19.263 29.9169C19.4186 29.8084 19.6124 29.7622 19.8031 29.788C19.985 29.8146 20.1497 29.9057 20.2643 30.0431L20.284 30.0619C20.5011 30.345 20.7439 30.6092 21.0097 30.8515C21.2185 31.0439 21.4508 31.2117 21.7016 31.351H21.7241C21.8802 31.4346 22.0465 31.4995 22.2191 31.5444C22.3696 31.5817 22.5251 31.5971 22.6804 31.59C22.8277 31.5815 22.9728 31.5516 23.1107 31.5014C23.2626 31.4415 23.4062 31.3639 23.5383 31.2705C23.7223 31.1363 23.8886 30.9812 24.0333 30.8085C24.2113 30.5991 24.3686 30.3743 24.503 30.1371C24.5356 30.0793 24.5763 30.026 24.6239 29.9787L24.6464 29.9599C24.7316 29.8833 24.8346 29.8274 24.9471 29.7967C25.0595 29.7661 25.178 29.7616 25.2926 29.7837C25.4072 29.8058 25.5146 29.8538 25.6057 29.9237C25.6969 29.9936 25.7692 30.0834 25.8165 30.1855C25.9311 30.4435 26.0888 30.682 26.2834 30.8918C26.4571 31.0772 26.6661 31.2294 26.8994 31.3403C27.0316 31.4035 27.1714 31.4513 27.3156 31.4826C27.4632 31.515 27.6142 31.5313 27.7657 31.531C27.919 31.531 28.0718 31.5147 28.2213 31.4826C28.3771 31.452 28.529 31.4052 28.6742 31.343C28.9485 31.2267 29.1989 31.0649 29.4139 30.8649C29.6424 30.6579 29.8326 30.4155 29.9764 30.1479C30.0081 30.0772 30.0528 30.0126 30.1086 29.9572C30.1694 29.8952 30.2407 29.8434 30.3195 29.8041C30.4881 29.7256 30.6819 29.7122 30.8606 29.7668C31.0393 29.8213 31.189 29.9395 31.2787 30.0968L31.2955 30.1264C31.4061 30.3468 31.5389 30.5563 31.6921 30.7521C31.8261 30.9217 31.9842 31.0727 32.1618 31.2006C32.3281 31.3165 32.5122 31.4071 32.7075 31.4692C32.7994 31.5001 32.8934 31.5252 32.9887 31.5444V32.9597L32.9944 32.9839ZM9.66912 26.0496C6.75241 23.8366 4.78356 20.2191 4.80606 15.0708C4.79322 14.9452 4.82704 14.8194 4.90161 14.7153C4.97617 14.6112 5.08672 14.5355 5.21389 14.5014L8.58906 13.5292V10.3602C8.59204 9.21386 9.07104 8.11546 9.92101 7.30589C10.771 6.49633 11.9225 6.04169 13.123 6.04169H15.3732V1.04106C15.3727 0.9042 15.4007 0.768623 15.4558 0.642266C15.5109 0.51591 15.5918 0.401315 15.6938 0.305195C15.7955 0.207613 15.9165 0.130299 16.0498 0.0777413C16.183 0.0251835 16.3259 -0.00157033 16.4701 -0.000966567H20.4078C20.551 -0.00086082 20.6928 0.0262375 20.8251 0.078775C20.9573 0.131313 21.0774 0.208256 21.1785 0.305195L21.2038 0.332051C21.3874 0.526279 21.4878 0.779383 21.485 1.04106V6.04169H25.2146C25.5475 6.04303 25.8769 6.10705 26.1838 6.23009C26.4908 6.35314 26.7693 6.53279 27.0034 6.75875L27.0372 6.79098C27.4948 7.24382 27.7508 7.84831 27.7516 8.47755V13.5507C28.8598 13.8622 29.968 14.155 31.0762 14.4047C31.1964 14.4322 31.3043 14.4958 31.3838 14.5862C31.4633 14.6766 31.5103 14.7891 31.5177 14.9069C31.724 17.266 31.2667 19.6349 30.193 21.7687C29.6176 22.9709 28.8521 24.0814 27.9232 25.0613C27.9985 25.1277 28.0588 25.2081 28.1004 25.2976C28.216 25.5551 28.3736 25.7935 28.5673 26.0039C28.7415 26.1888 28.9504 26.3409 29.1832 26.4524C29.3159 26.5149 29.4555 26.5626 29.5995 26.5948C29.7471 26.627 29.8981 26.6433 30.0495 26.6431C30.2078 26.6413 30.3654 26.6224 30.5192 26.5867C30.6745 26.5541 30.8261 26.5073 30.9721 26.4471C31.246 26.3303 31.4964 26.1685 31.7118 25.969C31.9405 25.7621 32.1307 25.5197 32.2743 25.252C32.3081 25.1824 32.3526 25.1181 32.4065 25.0613C32.4676 25.0003 32.5389 24.9495 32.6175 24.9109C32.7365 24.8566 32.8687 24.8343 33 24.8464V26.909C32.9691 26.8768 32.9381 26.8419 32.91 26.8069C32.7712 26.9539 32.6208 27.0904 32.46 27.2152C32.1887 27.4243 31.8899 27.5986 31.5712 27.7335C31.3341 27.8328 31.0873 27.9093 30.8343 27.9618C30.5846 28.0121 30.33 28.0373 30.0749 28.037C29.8127 28.0374 29.5513 28.0095 29.2957 27.9537C29.0416 27.8969 28.7953 27.8122 28.5616 27.7013C28.2807 27.5711 28.0203 27.4038 27.7882 27.2044C27.6556 27.0978 27.5324 26.981 27.4197 26.8553C27.355 26.9278 27.2875 27.0003 27.22 27.0674C27.0603 27.2256 26.8882 27.3719 26.7053 27.5052C26.462 27.6799 26.1952 27.8226 25.9121 27.9295C25.6419 28.0282 25.3572 28.0862 25.0683 28.1014C24.7732 28.117 24.4774 28.0899 24.1908 28.0208C23.89 27.9485 23.6006 27.8383 23.3301 27.6932C23.0552 27.5484 22.7969 27.3764 22.5595 27.1802C22.3991 27.0521 22.246 26.9159 22.101 26.772C21.9761 26.9203 21.8397 27.0594 21.6932 27.1883C21.4495 27.4011 21.1771 27.5818 20.8831 27.7254C20.6605 27.8313 20.4267 27.9141 20.1856 27.9725C19.7019 28.088 19.1973 28.0981 18.709 28.002C18.4608 27.9529 18.2193 27.8772 17.9889 27.7765C17.664 27.6387 17.361 27.4579 17.0889 27.2393C16.9276 27.1074 16.7762 26.9647 16.636 26.8123C16.5749 26.8979 16.5092 26.9804 16.4392 27.0594C16.2781 27.243 16.0961 27.4088 15.8963 27.5535C15.5988 27.7689 15.2579 27.9234 14.895 28.0074C14.519 28.0919 14.1295 28.1074 13.7475 28.0531C13.3754 28.0347 13.008 27.966 12.6561 27.849C12.3223 27.7366 12.0084 27.5763 11.7252 27.3736C11.5474 27.2433 11.3809 27.0996 11.2273 26.9439C11.1683 26.8821 11.112 26.8204 11.0558 26.7559C10.9163 26.9014 10.7659 27.0369 10.6057 27.1614C10.3253 27.367 10.0168 27.5351 9.68881 27.661C9.21758 27.8608 8.70807 27.965 8.19248 27.9671C7.93021 27.9667 7.66884 27.9379 7.41338 27.8812C7.15914 27.8249 6.91274 27.7401 6.67928 27.6287C6.39942 27.4949 6.14012 27.325 5.90861 27.1238C5.77953 27.0144 5.65918 26.8959 5.54859 26.7693C5.48109 26.8445 5.4164 26.9144 5.3489 26.9815C5.18988 27.1404 5.01775 27.2867 4.83418 27.4193C4.59124 27.5931 4.32433 27.7341 4.04102 27.8382C3.77051 27.9365 3.48606 27.9953 3.19722 28.0128C2.89734 28.0276 2.59681 27.9996 2.30562 27.9295C2.0039 27.8572 1.71354 27.747 1.44213 27.6019C1.19892 27.4723 0.96831 27.3222 0.753037 27.1534C0.522745 26.9794 0.30563 26.79 0.103316 26.5867C0.0699119 26.5564 0.0436172 26.5197 0.0261643 26.4789C0.00871144 26.4382 0.000496479 26.3944 0.00206068 26.3504V25.1795C0.00166801 25.1232 0.0171046 25.0679 0.046758 25.0192C0.0764115 24.9706 0.119194 24.9305 0.170637 24.903C0.22208 24.8756 0.280296 24.8619 0.339204 24.8632C0.398113 24.8646 0.455552 24.8811 0.505524 24.9109C0.543626 24.9336 0.57941 24.9597 0.612404 24.9888C0.639603 25.0102 0.664139 25.0345 0.685533 25.0613L0.705222 25.0828C0.923316 25.3708 1.16705 25.6404 1.4337 25.8885C1.64172 26.0798 1.87308 26.2466 2.12279 26.3853H2.1453C2.30174 26.4721 2.469 26.5398 2.64313 26.5867C2.93666 26.6629 3.24797 26.6479 3.53193 26.5438C3.68412 26.4867 3.82785 26.4108 3.95945 26.3182C4.14352 26.184 4.30976 26.0289 4.45448 25.8562C4.63249 25.6468 4.78974 25.422 4.92419 25.1848C4.95716 25.1274 4.99886 25.0749 5.04794 25.0291L5.06763 25.0076C5.12877 24.9529 5.19913 24.9084 5.27577 24.876C5.36364 24.839 5.45829 24.819 5.55428 24.8171C5.65027 24.8152 5.74571 24.8315 5.8351 24.8649C5.92449 24.8984 6.00608 24.9484 6.07517 25.012C6.14427 25.0757 6.1995 25.1517 6.23769 25.2359C6.35405 25.4922 6.51158 25.7296 6.70459 25.9395C6.87741 26.1207 7.08448 26.2693 7.31493 26.3772C7.44704 26.4408 7.58685 26.4886 7.73121 26.5196C7.87883 26.5518 8.02979 26.5681 8.18123 26.5679C8.33527 26.5675 8.48887 26.5522 8.63969 26.5223C8.79502 26.4887 8.94666 26.441 9.09253 26.3799C9.29406 26.2921 9.48309 26.1802 9.65506 26.0469L9.66912 26.0496ZM20.6891 2.68466H16.1888V6.04169H20.6891V2.66854V2.68466ZM16.7654 11.1927L17.8905 10.8731C17.9892 10.8488 18.0927 10.8488 18.1914 10.8731L18.2646 10.8892L18.3405 10.9027L26.6209 12.8363V8.47755C26.6204 8.13609 26.4836 7.80765 26.2384 7.55907L26.2103 7.5349C25.9488 7.28584 25.5952 7.14499 25.2259 7.1428H13.1315C12.2363 7.1428 11.3778 7.48234 10.7449 8.08672C10.1119 8.6911 9.75631 9.51082 9.75631 10.3655V12.8283L16.7654 11.1927ZM18.1717 11.9984L17.1001 12.2482L5.95362 15.4387C5.9631 16.6048 6.10551 17.7665 6.37832 18.9031L17.9242 16.5855C18.004 16.5693 18.0864 16.5693 18.1661 16.5855L30.0467 18.9649C30.3382 17.7912 30.4584 16.5847 30.4039 15.3796C28.376 14.9043 26.3537 14.3054 24.3314 13.6957C22.3091 13.0861 20.225 12.4684 18.1802 11.9957L18.1717 11.9984Z" fill="#4F4F4F"/>
</svg>
