<svg width="18" height="18" viewBox="0 0 18 18" fill="none" xmlns="http://www.w3.org/2000/svg">
<path fill-rule="evenodd" clip-rule="evenodd" d="M1.3125 1.5C1.26277 1.5 1.21508 1.52634 1.17992 1.57322C1.14475 1.62011 1.125 1.6837 1.125 1.75V16.25C1.125 16.388 1.209 16.5 1.3125 16.5H16.6875C16.7372 16.5 16.7849 16.4737 16.8201 16.4268C16.8552 16.3799 16.875 16.3163 16.875 16.25V1.75C16.875 1.6837 16.8552 1.62011 16.8201 1.57322C16.7849 1.52634 16.7372 1.5 16.6875 1.5H9H1.3125ZM0 1.75C0 0.784 0.588 0 1.3125 0H16.6875C17.412 0 18 0.784 18 1.75V16.25C18 16.7141 17.8617 17.1592 17.6156 17.4874C17.3694 17.8156 17.0356 18 16.6875 18H1.3125C0.964403 18 0.630564 17.8156 0.384422 17.4874C0.138281 17.1592 0 16.7141 0 16.25L0 1.75Z" fill="black"/>
<path d="M6 12.5842V5.41616C6.00015 5.32648 6.02442 5.23848 6.07026 5.1614C6.11611 5.08432 6.18184 5.02099 6.26057 4.97804C6.33931 4.9351 6.42814 4.91412 6.51777 4.91731C6.6074 4.9205 6.69452 4.94773 6.77 4.99616L12.346 8.57916C12.4166 8.6244 12.4747 8.68666 12.5149 8.76023C12.5552 8.8338 12.5763 8.91631 12.5763 9.00016C12.5763 9.08401 12.5552 9.16652 12.5149 9.24009C12.4747 9.31366 12.4166 9.37592 12.346 9.42116L6.77 13.0052C6.69452 13.0536 6.6074 13.0808 6.51777 13.084C6.42814 13.0872 6.33931 13.0662 6.26057 13.0233C6.18184 12.9803 6.11611 12.917 6.07026 12.8399C6.02442 12.7628 6.00015 12.6748 6 12.5852V12.5842Z" fill="black"/>
</svg>
