<svg width="16" height="16" viewBox="0 0 16 16" fill="none" xmlns="http://www.w3.org/2000/svg">
    <path fill-rule="evenodd" clip-rule="evenodd" d="M8 13C10.7614 13 13 10.7614 13 8C13 5.23858 10.7614 3 8 3C5.23858 3 3 5.23858 3 8C3 10.7614 5.23858 13 8 13ZM8 14C11.3137 14 14 11.3137 14 8C14 4.68629 11.3137 2 8 2C4.68629 2 2 4.68629 2 8C2 11.3137 4.68629 14 8 14Z" fill="#2C3E50"/>
    <path d="M8.42312 9.36631C8.39595 9.55805 8.29366 9.73577 8.12262 9.82659C7.97471 9.90513 7.79763 9.90583 7.64911 9.82846L7.63525 9.82124C7.4681 9.73417 7.36119 9.56033 7.37533 9.3724C7.38743 9.2116 7.40806 9.06928 7.43721 8.94544C7.48372 8.74472 7.56124 8.56282 7.66977 8.39974C7.7814 8.23666 7.92868 8.06417 8.11163 7.88227C8.25426 7.74427 8.38295 7.61412 8.49767 7.49181C8.6124 7.36636 8.70388 7.23464 8.77209 7.09665C8.84031 6.95552 8.87442 6.794 8.87442 6.61211C8.87442 6.41452 8.84186 6.24674 8.77674 6.10875C8.71163 5.97075 8.6155 5.86569 8.48837 5.79356C8.36434 5.72142 8.2093 5.68536 8.02326 5.68536C7.86822 5.68536 7.72248 5.71672 7.58605 5.77944C7.44961 5.83903 7.33954 5.93312 7.25581 6.0617C7.21237 6.1268 7.17936 6.20288 7.15679 6.28993C7.11359 6.45655 7.03833 6.61884 6.89785 6.71831L6.8576 6.74681C6.64797 6.89523 6.36385 6.88028 6.17095 6.71067C6.06249 6.6153 5.99815 6.47676 6.01388 6.33319C6.04641 6.03611 6.13481 5.7794 6.27907 5.56305C6.45891 5.29333 6.70078 5.09105 7.00465 4.95619C7.30853 4.82133 7.64806 4.75391 8.02326 4.75391C8.43876 4.75391 8.7938 4.82604 9.08837 4.9703C9.38295 5.11143 9.60775 5.31842 9.76279 5.59127C9.92093 5.86099 10 6.18715 10 6.56977C10 6.84575 9.94574 7.09665 9.83721 7.32245C9.72868 7.54512 9.5876 7.75368 9.41395 7.94813C9.24031 8.13943 9.05271 8.33074 8.85116 8.52205C8.67752 8.682 8.55969 8.85606 8.49767 9.04423C8.46428 9.14386 8.43943 9.25122 8.42312 9.36631ZM7.26977 11.1471C7.26977 10.9777 7.32713 10.835 7.44186 10.719C7.55659 10.5998 7.71318 10.5402 7.91163 10.5402C8.11008 10.5402 8.26667 10.5998 8.3814 10.719C8.49612 10.835 8.55349 10.9777 8.55349 11.1471C8.55349 11.3164 8.49612 11.4607 8.3814 11.5798C8.26667 11.6959 8.11008 11.7539 7.91163 11.7539C7.71318 11.7539 7.55659 11.6959 7.44186 11.5798C7.32713 11.4607 7.26977 11.3164 7.26977 11.1471Z" fill="#2C3E50"/>
</svg>
