<svg width="125" height="39" viewBox="0 0 125 39" fill="none" xmlns="http://www.w3.org/2000/svg">
<path d="M101.161 20.1862H98.1608V12.5299C98.1608 8.34457 101.565 4.94025 105.75 4.94025C107.27 4.94025 108.738 5.3888 109.995 6.23772L108.316 8.72393C107.557 8.21112 106.671 7.9405 105.75 7.9405C103.22 7.9405 101.161 9.99916 101.161 12.5299V20.1862Z" fill="#ED3726"/>
<path d="M7.58961 20.1109C3.40433 20.1109 0 16.7065 0 12.5213C0 8.33597 3.40433 4.93164 7.58961 4.93164C10.3489 4.93164 12.8944 6.43424 14.2327 8.85249L11.6081 10.3044C10.7987 8.84136 9.25903 7.9319 7.59085 7.9319C5.06015 7.9319 3.00149 9.99056 3.00149 12.5213C3.00149 15.0519 5.06015 17.1106 7.59085 17.1106C9.21825 17.1106 10.6912 16.2703 11.5302 14.8641L14.1066 16.4013C12.7412 18.6898 10.2451 20.1109 7.59085 20.1109H7.58961Z" fill="#ED3726"/>
<path d="M22.5068 20.1109C18.3216 20.1109 14.9172 16.7065 14.9172 12.5213C14.9172 8.33597 18.3216 4.93164 22.5068 4.93164C26.6921 4.93164 30.0965 8.33597 30.0965 12.5213C30.0965 16.7065 26.6921 20.1109 22.5068 20.1109ZM22.5068 7.9319C19.9762 7.9319 17.9175 9.99056 17.9175 12.5213C17.9175 15.0519 19.9762 17.1106 22.5068 17.1106C25.0375 17.1106 27.0962 15.0519 27.0962 12.5213C27.0962 9.99056 25.0375 7.9319 22.5068 7.9319Z" fill="#ED3726"/>
<path d="M55.6654 20.1109C51.4801 20.1109 48.0758 16.7065 48.0758 12.5213C48.0758 8.33597 51.4801 4.93164 55.6654 4.93164C59.8507 4.93164 63.255 8.33597 63.255 12.5213C63.255 16.7065 59.8507 20.1109 55.6654 20.1109ZM55.6654 7.9319C53.1347 7.9319 51.0761 9.99056 51.0761 12.5213C51.0761 15.0519 53.1347 17.1106 55.6654 17.1106C58.1961 17.1106 60.2548 15.0519 60.2548 12.5213C60.2548 9.99056 58.1961 7.9319 55.6654 7.9319Z" fill="#ED3726"/>
<path d="M88.7065 20.1109C84.5212 20.1109 81.1169 16.7065 81.1169 12.5213C81.1169 8.33597 84.5212 4.93164 88.7065 4.93164C92.8918 4.93164 96.2961 8.33597 96.2961 12.5213C96.2961 16.7065 92.8918 20.1109 88.7065 20.1109ZM88.7065 7.9319C86.1758 7.9319 84.1171 9.99056 84.1171 12.5213C84.1171 15.0519 86.1758 17.1106 88.7065 17.1106C91.2372 17.1106 93.2958 15.0519 93.2958 12.5213C93.2958 9.99056 91.2372 7.9319 88.7065 7.9319Z" fill="#ED3726"/>
<path d="M72.1655 4.93164C67.9803 4.93164 64.5759 8.33597 64.5759 12.5213V23.6968H67.5762V18.5601C68.8514 19.5313 70.4417 20.1109 72.1655 20.1109C76.3508 20.1109 79.7551 16.7065 79.7551 12.5213C79.7551 8.33597 76.3508 4.93164 72.1655 4.93164ZM72.1655 17.1106C69.6348 17.1106 67.5762 15.0519 67.5762 12.5213C67.5762 9.99056 69.6348 7.9319 72.1655 7.9319C74.6962 7.9319 76.7549 9.99056 76.7549 12.5213C76.7549 15.0519 74.6962 17.1106 72.1655 17.1106Z" fill="#ED3726"/>
<path d="M120.297 6.05731H114.446V2.35394H111.446V20.1862H114.446V9.05756H120.297V6.05731Z" fill="#ED3726"/>
<path d="M47.2578 5.1627C46.6189 4.52384 45.6106 4.81423 45.0582 5.36535C44.7555 5.66809 44.454 6.26246 44.1957 6.88154C42.7537 5.57418 40.8149 4.81423 38.7216 4.91556C34.5302 5.11697 31.284 8.69059 31.4842 12.8821C31.6856 17.0735 35.2592 20.3197 39.4507 20.1183C43.6421 19.9168 46.8883 16.3432 46.6869 12.1518C46.6177 10.7171 46.1531 9.3937 45.4055 8.28034C46.0703 8.01096 46.7289 7.68721 47.0539 7.36222C47.605 6.81111 47.8954 5.80155 47.2565 5.1627H47.2578ZM39.3073 17.1131C36.7729 17.2342 34.6117 15.2719 34.4894 12.7362C34.3683 10.2018 36.3306 8.04062 38.8662 7.91829C41.4006 7.79719 43.5618 9.75946 43.6842 12.2951C43.8053 14.8295 41.843 16.9907 39.3073 17.1131Z" fill="#ED3726"/>
<path d="M46.043 20.5174C45.744 20.1566 45.2719 20.3493 44.9593 20.5915C44.5441 20.9141 44.1252 21.2292 43.6767 21.5072C42.7857 22.0608 41.8083 22.4883 40.7703 22.665C39.7793 22.8331 38.3916 22.8331 37.3994 22.665C36.3614 22.4883 35.3839 22.0608 34.493 21.5072C34.0457 21.2292 33.6268 20.9153 33.2104 20.5915C32.8977 20.3493 32.4269 20.1566 32.1267 20.5174C31.5545 21.2082 31.9141 22.2931 32.3392 22.9616C32.8854 23.8192 33.8443 24.3975 34.7278 24.8522C34.7451 24.8609 34.7624 24.8695 34.7797 24.8782C36.1031 25.5392 37.4414 25.7876 39.0836 25.7876C40.7258 25.7876 42.0641 25.5392 43.3875 24.8782C43.4048 24.8695 43.4221 24.8609 43.4394 24.8522C44.3229 24.3975 45.2806 23.8192 45.828 22.9616C46.2531 22.2943 46.6127 21.2082 46.0405 20.5174H46.043Z" fill="#ED3726"/>
<path d="M121.83 0.965054C121.83 0.965054 122.566 0.957641 122.928 0.96629C123.374 0.977412 123.736 1.3753 123.712 1.81892C123.694 2.16367 123.517 2.41576 123.181 2.5628C123.342 2.93227 123.665 3.67245 123.665 3.67245H123.148L122.697 2.6147H122.3V3.67122H121.83V0.965054ZM122.299 2.14761C122.299 2.14761 122.904 2.14761 122.919 2.14637C123.096 2.12907 123.237 1.98203 123.242 1.8078C123.248 1.59649 123.091 1.43709 122.873 1.43585H122.298V2.14761H122.299Z" fill="#ED3726"/>
<path d="M125 2.3404C125 3.63293 123.952 4.6808 122.66 4.6808C121.367 4.6808 120.319 3.63293 120.319 2.3404C120.319 1.04787 121.367 0 122.66 0C123.952 0 125 1.04787 125 2.3404ZM122.66 0.491804C121.639 0.491804 120.811 1.31972 120.811 2.3404C120.811 3.36108 121.639 4.18899 122.66 4.18899C123.68 4.18899 124.508 3.36108 124.508 2.3404C124.508 1.31972 123.68 0.491804 122.66 0.491804Z" fill="#ED3726"/>
<path d="M7.37157 34.3802V37.7577C6.46819 38.3827 5.39949 38.7253 4.30109 38.742C3.79528 38.7732 3.28845 38.7005 2.81181 38.5283C2.33516 38.3562 1.89881 38.0883 1.52961 37.7412C1.16042 37.394 0.866181 36.9749 0.665069 36.5098C0.463956 36.0446 0.360229 35.5432 0.360229 35.0364C0.360229 34.5297 0.463956 34.0282 0.665069 33.5631C0.866181 33.0979 1.16042 32.6789 1.52961 32.3317C1.89881 31.9846 2.33516 31.7167 2.81181 31.5445C3.28845 31.3724 3.79528 31.2997 4.30109 31.3308C5.3192 31.3139 6.31049 31.6576 7.09962 32.3011L6.4113 33.434C5.83168 32.9459 5.09379 32.6861 4.33622 32.7035C4.02717 32.7028 3.7211 32.7637 3.43579 32.8824C3.15047 33.0012 2.89162 33.1756 2.67435 33.3954C2.45707 33.6151 2.2857 33.8759 2.17019 34.1626C2.05468 34.4492 1.99736 34.756 2.00155 35.065C2.00575 35.374 2.07135 35.6792 2.19459 35.9626C2.31784 36.246 2.49626 36.502 2.71942 36.7158C2.94258 36.9296 3.20603 37.0969 3.49446 37.2079C3.78289 37.3189 4.09053 37.3714 4.39945 37.3623C4.92202 37.3688 5.43703 37.2373 5.89251 36.981V35.6575H3.99708V34.3762L7.37157 34.3802Z" fill="#231F20"/>
<path d="M10.0327 31.118V36.8886C10.0327 37.2699 10.1812 37.4907 10.4882 37.4907C10.6965 37.4818 10.8997 37.4237 11.0812 37.3211L11.1555 38.4961C10.7577 38.6541 10.3341 38.7367 9.90622 38.7399C9.08041 38.7399 8.55164 38.3386 8.55164 37.2469V31.117L10.0327 31.118Z" fill="#231F20"/>
<path d="M14.5699 32.9501C15.1441 32.9594 15.7027 33.1379 16.1757 33.4633C16.6488 33.7887 17.0154 34.2465 17.2294 34.7793C17.4435 35.3121 17.4955 35.8963 17.3789 36.4586C17.2624 37.0208 16.9825 37.5362 16.5744 37.94C16.1662 38.3439 15.648 38.6183 15.0845 38.7289C14.5211 38.8395 13.9375 38.7813 13.4069 38.5617C12.8764 38.342 12.4225 37.9707 12.1021 37.4942C11.7817 37.0177 11.6091 36.4572 11.6058 35.8831C11.5967 35.4928 11.6674 35.1047 11.8136 34.7427C11.9597 34.3806 12.1782 34.0523 12.4558 33.7777C12.7333 33.5031 13.0639 33.2881 13.4274 33.1457C13.791 33.0034 14.1798 32.9369 14.5699 32.9501ZM14.5699 37.4283C14.8807 37.4337 15.186 37.3462 15.4468 37.1772C15.7076 37.0081 15.9121 36.765 16.034 36.4791C16.156 36.1932 16.1898 35.8774 16.1313 35.5722C16.0728 35.2669 15.9246 34.986 15.7056 34.7654C15.4866 34.5449 15.2068 34.3946 14.9019 34.334C14.5971 34.2733 14.2811 34.3049 13.9943 34.4248C13.7075 34.5447 13.4631 34.7474 13.2922 35.007C13.1212 35.2666 13.0315 35.5712 13.0347 35.882C13.0282 36.0859 13.0634 36.289 13.1381 36.4788C13.2128 36.6686 13.3255 36.8411 13.4692 36.9859C13.6129 37.1306 13.7847 37.2445 13.9739 37.3206C14.1632 37.3967 14.366 37.4333 14.5699 37.4283Z" fill="#231F20"/>
<path d="M21.7888 38.7408C21.4853 38.758 21.1816 38.7136 20.8958 38.6101C20.61 38.5066 20.3482 38.3463 20.1261 38.1388V38.6405H18.6441V31.1239H20.1261V33.5692C20.5931 33.1853 21.1846 32.9857 21.7888 33.0083C22.5016 33.0777 23.1632 33.4099 23.6445 33.9403C24.1258 34.4707 24.3925 35.1613 24.3925 35.8776C24.3925 36.5938 24.1258 37.2844 23.6445 37.8148C23.1632 38.3453 22.5016 38.6775 21.7888 38.7468V38.7408ZM21.3754 34.2937C20.9079 34.3004 20.4609 34.4861 20.1261 34.8124V36.9407C20.4644 37.2602 20.9101 37.4414 21.3754 37.4484C21.78 37.428 22.1612 37.2529 22.4403 36.9593C22.7195 36.6658 22.8752 36.2762 22.8752 35.8711C22.8752 35.466 22.7195 35.0763 22.4403 34.7828C22.1612 34.4892 21.78 34.3141 21.3754 34.2937Z" fill="#231F20"/>
<path d="M30.8834 36.9322C30.8834 37.2503 30.9677 37.4931 31.2647 37.4931C31.4631 37.4856 31.6562 37.4272 31.8256 37.3235L31.8888 38.4985C31.5079 38.6599 31.0984 38.7429 30.6847 38.7424C30.4247 38.7744 30.162 38.7105 29.9457 38.5628C29.7294 38.415 29.5744 38.1934 29.5097 37.9396C29.2916 38.1911 29.0216 38.3922 28.7183 38.5293C28.415 38.6663 28.0855 38.7359 27.7527 38.7333C27.0421 38.6629 26.3831 38.3307 25.9038 37.8015C25.4244 37.2722 25.1589 36.5836 25.1589 35.8696C25.1589 35.1555 25.4244 34.4669 25.9038 33.9377C26.3831 33.4084 27.0421 33.0763 27.7527 33.0058C28.0522 32.9869 28.3524 33.0278 28.636 33.126C28.9195 33.2241 29.1807 33.3777 29.4043 33.5778V33.0941H30.8834V36.9322ZM29.4013 34.7939C29.0669 34.4756 28.6239 34.2962 28.1621 34.2922C27.7576 34.3126 27.3762 34.4877 27.0971 34.7813C26.818 35.0749 26.6623 35.4645 26.6623 35.8696C26.6623 36.2747 26.818 36.6643 27.0971 36.9578C27.3762 37.2514 27.7576 37.4265 28.1621 37.4469C28.6228 37.4374 29.0638 37.2589 29.4013 36.9452V34.7939Z" fill="#231F20"/>
<path d="M34.2161 31.118V36.8886C34.2161 37.2699 34.3646 37.4907 34.6716 37.4907C34.8799 37.4818 35.0831 37.4236 35.2647 37.3211L35.3389 38.4961C34.9412 38.6541 34.5176 38.7367 34.0896 38.7399C33.2638 38.7399 32.7341 38.3386 32.7341 37.2469V31.117L34.2161 31.118Z" fill="#231F20"/>
<path d="M41.8476 32.9186V38.6331H40.3656V32.9136H37.9946V31.4316H44.1355V32.9136L41.8476 32.9186Z" fill="#231F20"/>
<path d="M45.0435 34.8134C45.0435 34.4853 44.9693 34.2525 44.6622 34.2525C44.4655 34.2611 44.2734 34.3154 44.1013 34.4111L44.0381 33.2461C44.4154 33.0734 44.8274 32.99 45.2422 33.0023C45.5105 32.9702 45.7813 33.0376 46.0033 33.1919C46.2252 33.3461 46.3829 33.5764 46.4463 33.8391C46.5636 33.5742 46.7596 33.3518 47.0077 33.202C47.2558 33.0523 47.544 32.9826 47.833 33.0023C48.1939 32.9723 48.5518 33.0866 48.8284 33.3203L48.6166 34.6549C48.321 34.445 47.9619 34.344 47.6002 34.3689C46.8908 34.3689 46.6159 34.983 46.5205 35.6292V38.6394H45.0385L45.0435 34.8134Z" fill="#231F20"/>
<path d="M54.9634 36.9322C54.9634 37.2503 55.0477 37.4931 55.3447 37.4931C55.5431 37.4855 55.7362 37.4271 55.9056 37.3236L55.9688 38.4985C55.588 38.66 55.1784 38.743 54.7647 38.7424C54.5047 38.7744 54.242 38.7105 54.0257 38.5628C53.8094 38.415 53.6544 38.1935 53.5897 37.9396C53.3715 38.1912 53.1014 38.3925 52.7979 38.5295C52.4944 38.6665 52.1648 38.7361 51.8318 38.7333C51.1212 38.6629 50.4621 38.3307 49.9828 37.8015C49.5034 37.2722 49.2379 36.5837 49.2379 35.8696C49.2379 35.1555 49.5034 34.467 49.9828 33.9377C50.4621 33.4085 51.1212 33.0763 51.8318 33.0059C52.1312 32.9869 52.4315 33.0277 52.715 33.1259C52.9986 33.2241 53.2598 33.3777 53.4834 33.5778V33.0942H54.9654L54.9634 36.9322ZM53.4814 34.794C53.1471 34.4758 52.7045 34.2965 52.2431 34.2922C51.8386 34.3127 51.4573 34.4877 51.1782 34.7813C50.899 35.0749 50.7433 35.4645 50.7433 35.8696C50.7433 36.2747 50.899 36.6643 51.1782 36.9579C51.4573 37.2514 51.8386 37.4265 52.2431 37.447C52.7034 37.4373 53.1441 37.2587 53.4814 36.9453V34.794Z" fill="#231F20"/>
<path d="M62.2474 31.118V36.9308C62.2474 37.2589 62.3217 37.4917 62.6287 37.4917C62.8223 37.475 63.0102 37.4172 63.1796 37.3221L63.2538 38.4971C62.8681 38.6588 62.454 38.7417 62.0357 38.7409C61.79 38.7719 61.5411 38.7186 61.3297 38.5897C61.1183 38.4608 60.9568 38.264 60.8718 38.0315C60.6497 38.2755 60.3752 38.466 60.0691 38.5889C59.7629 38.7117 59.4329 38.7637 59.1037 38.7409C58.3926 38.6692 57.7334 38.3359 57.2541 37.8058C56.7747 37.2757 56.5093 36.5864 56.5093 35.8716C56.5093 35.1569 56.7747 34.4676 57.2541 33.9375C57.7334 33.4073 58.3926 33.0741 59.1037 33.0024C59.7076 32.9816 60.2985 33.181 60.7664 33.5633V31.118H62.2474ZM59.5262 37.4495C59.9866 37.4403 60.4275 37.2617 60.7644 36.9478V34.7985C60.4316 34.4773 59.9887 34.2953 59.5262 34.2898C59.1216 34.3102 58.7403 34.4853 58.4612 34.7788C58.182 35.0724 58.0264 35.462 58.0264 35.8671C58.0264 36.2722 58.182 36.6618 58.4612 36.9554C58.7403 37.249 59.1216 37.4241 59.5262 37.4445V37.4495Z" fill="#231F20"/>
<path d="M69.1275 38.0328C68.4596 38.5422 67.6374 38.8074 66.7977 38.7843C66.4002 38.831 65.9973 38.7891 65.618 38.6615C65.2387 38.534 64.8923 38.324 64.6038 38.0466C64.3153 37.7692 64.0918 37.4314 63.9495 37.0574C63.8071 36.6834 63.7493 36.2825 63.7804 35.8835C63.763 35.4946 63.8265 35.1063 63.967 34.7433C64.1076 34.3803 64.322 34.0505 64.5968 33.7747C64.8715 33.499 65.2005 33.2833 65.5629 33.1414C65.9254 32.9995 66.3134 32.9345 66.7023 32.9505C67.0224 32.9122 67.347 32.9441 67.6534 33.0441C67.9599 33.1441 68.2408 33.3097 68.4767 33.5294C68.7125 33.7492 68.8976 34.0177 69.019 34.3163C69.1405 34.6149 69.1953 34.9363 69.1797 35.2583C69.1796 35.6213 69.1406 35.9833 69.0634 36.338H65.3056C65.3272 36.5179 65.3841 36.6918 65.473 36.8497C65.5618 37.0076 65.681 37.1465 65.8236 37.2583C65.9662 37.3701 66.1294 37.4528 66.3039 37.5014C66.4785 37.5501 66.6609 37.5639 66.8408 37.5421C67.4612 37.5336 68.0639 37.3338 68.5667 36.9701L69.1275 38.0328ZM67.7609 35.0045C67.7609 34.5599 67.4218 34.1786 66.6702 34.1786C66.363 34.1544 66.0577 34.2449 65.8132 34.4327C65.5688 34.6204 65.4026 34.892 65.3467 35.1951H67.7549C67.762 35.1318 67.764 35.0681 67.7609 35.0045Z" fill="#231F20"/>
<path d="M72.8736 31.4365H76.3123C76.6634 31.4101 77.0161 31.4599 77.3461 31.5827C77.6761 31.7055 77.9756 31.8982 78.2241 32.1477C78.4725 32.3972 78.6641 32.6975 78.7854 33.0281C78.9068 33.3586 78.9551 33.7115 78.9272 34.0625C78.9378 34.4073 78.8772 34.7506 78.7492 35.071C78.6211 35.3914 78.4285 35.6819 78.183 35.9244C77.9376 36.1669 77.6448 36.3561 77.3229 36.4804C77.0011 36.6046 76.657 36.661 76.3123 36.6462H74.3536V38.633H72.8716L72.8736 31.4365ZM74.3556 32.7279V35.3538H76.0815C76.4298 35.3538 76.7637 35.2155 77.0099 34.9693C77.2562 34.7231 77.3945 34.3891 77.3945 34.0409C77.3945 33.6926 77.2562 33.3587 77.0099 33.1125C76.7637 32.8663 76.4298 32.7279 76.0815 32.7279H74.3556Z" fill="#231F20"/>
<path d="M81.3108 31.118V36.8886C81.3108 37.2699 81.4583 37.4907 81.7654 37.4907C81.9737 37.4817 82.1768 37.4236 82.3583 37.3211L82.4327 38.4961C82.035 38.654 81.6114 38.7367 81.1834 38.7399C80.3576 38.7399 79.8278 38.3386 79.8278 37.2469V31.117L81.3108 31.118Z" fill="#231F20"/>
<path d="M88.6468 36.9322C88.6468 37.2502 88.7311 37.4931 89.0281 37.4931C89.2265 37.4856 89.4197 37.4272 89.5891 37.3235L89.6523 38.4985C89.2714 38.66 88.8618 38.743 88.4481 38.7423C88.1881 38.7746 87.9253 38.7108 87.7089 38.563C87.4926 38.4152 87.3376 38.1935 87.2731 37.9396C87.0547 38.1909 86.7846 38.3919 86.4811 38.5289C86.1777 38.6659 85.8481 38.7356 85.5152 38.7333C84.8046 38.6628 84.1456 38.3307 83.6662 37.8014C83.1869 37.2722 82.9214 36.5836 82.9214 35.8696C82.9214 35.1555 83.1869 34.4669 83.6662 33.9377C84.1456 33.4084 84.8046 33.0763 85.5152 33.0058C85.8146 32.987 86.1149 33.0278 86.3984 33.126C86.682 33.2242 86.9431 33.3778 87.1668 33.5778V33.0941H88.6489L88.6468 36.9322ZM87.1648 34.7939C86.8302 34.4757 86.3873 34.2964 85.9256 34.2922C85.521 34.3126 85.1397 34.4877 84.8606 34.7813C84.5815 35.0748 84.4258 35.4645 84.4258 35.8696C84.4258 36.2746 84.5815 36.6642 84.8606 36.9578C85.1397 37.2514 85.521 37.4265 85.9256 37.4469C86.3862 37.4372 86.8272 37.2587 87.1648 36.9452V34.7939Z" fill="#231F20"/>
<path d="M92.3729 31.6902V33.095H94.3958V34.2489H92.3729V36.5036C92.3729 37.1709 92.6378 37.4458 93.1245 37.4458C93.5299 37.4244 93.92 37.2848 94.2472 37.0445L94.7128 38.1883C94.0927 38.5595 93.3814 38.7502 92.6588 38.7392C91.5681 38.7392 90.8908 38.0719 90.8908 36.8016V34.2499H89.9065V33.096H90.8908L91.0704 31.6912L92.3729 31.6902Z" fill="#231F20"/>
<path d="M95.0989 33.3628H96.1154V32.9815C96.0882 32.7216 96.1182 32.4589 96.2035 32.2119C96.2887 31.9649 96.4271 31.7395 96.6089 31.5518C96.7906 31.364 97.0114 31.2183 97.2555 31.125C97.4996 31.0318 97.7612 30.9931 98.0219 31.0119C98.5158 31.014 99.0034 31.1225 99.4517 31.3299L99.1237 32.6113C98.8469 32.4272 98.5246 32.323 98.1924 32.3103C97.769 32.3103 97.5994 32.5641 97.5994 32.9876V33.3578H99.2621V34.5117H97.5994V38.6257H96.1174V34.5117H95.0989V33.3628Z" fill="#231F20"/>
<path d="M102.694 32.9501C103.268 32.9594 103.827 33.1379 104.3 33.4633C104.773 33.7887 105.139 34.2465 105.353 34.7793C105.567 35.3121 105.619 35.8963 105.503 36.4586C105.386 37.0208 105.107 37.5362 104.698 37.94C104.29 38.3439 103.772 38.6183 103.208 38.7289C102.645 38.8395 102.061 38.7813 101.531 38.5617C101 38.342 100.546 37.9707 100.226 37.4942C99.9056 37.0177 99.733 36.4572 99.7298 35.8831C99.7207 35.4928 99.7914 35.1047 99.9375 34.7427C100.084 34.3806 100.302 34.0523 100.58 33.7777C100.857 33.5031 101.188 33.2881 101.551 33.1457C101.915 33.0034 102.304 32.9369 102.694 32.9501ZM102.694 37.4283C103.005 37.4337 103.31 37.3462 103.571 37.1772C103.832 37.0081 104.036 36.765 104.158 36.4791C104.28 36.1932 104.314 35.8774 104.255 35.5722C104.197 35.2669 104.049 34.986 103.83 34.7654C103.611 34.5449 103.331 34.3946 103.026 34.334C102.721 34.2733 102.405 34.3049 102.118 34.4248C101.832 34.5447 101.587 34.7474 101.416 35.007C101.245 35.2666 101.155 35.5712 101.159 35.882C101.152 36.0859 101.187 36.289 101.262 36.4788C101.337 36.6686 101.449 36.8411 101.593 36.9859C101.737 37.1306 101.909 37.2445 102.098 37.3206C102.287 37.3967 102.49 37.4333 102.694 37.4283Z" fill="#231F20"/>
<path d="M107.192 34.8134C107.192 34.4853 107.118 34.2525 106.811 34.2525C106.614 34.261 106.421 34.3153 106.249 34.4111L106.186 33.2461C106.563 33.0737 106.975 32.9903 107.39 33.0023C107.658 32.9702 107.929 33.0376 108.151 33.1919C108.373 33.3461 108.53 33.5764 108.594 33.8391C108.711 33.5741 108.907 33.3516 109.155 33.2019C109.403 33.0521 109.691 32.9825 109.98 33.0023C110.341 32.9721 110.699 33.0865 110.976 33.3203L110.764 34.6549C110.468 34.4451 110.109 34.3441 109.748 34.3689C109.038 34.3689 108.763 34.983 108.668 35.6292V38.6394H107.186L107.192 34.8134Z" fill="#231F20"/>
<path d="M113.257 33.0978V33.7118C113.479 33.4734 113.751 33.2858 114.052 33.1616C114.354 33.0375 114.678 32.9798 115.004 32.9924C115.368 32.9362 115.74 33.0023 116.062 33.1805C116.384 33.3587 116.637 33.6387 116.783 33.9767C116.997 33.6614 117.289 33.4062 117.63 33.2356C117.971 33.0651 118.35 32.9848 118.731 33.0024C120.16 33.0024 120.752 34.0821 120.752 35.4478V36.9298C120.752 37.2479 120.827 37.4907 121.123 37.4907C121.32 37.4757 121.511 37.4178 121.684 37.3211L121.758 38.4961C121.372 38.6567 120.959 38.7395 120.541 38.74C119.725 38.74 119.27 38.3165 119.27 37.279V35.6906C119.27 34.8758 118.9 34.3671 118.167 34.3671C117.91 34.3696 117.66 34.4527 117.453 34.6047C117.246 34.7566 117.092 34.9697 117.013 35.214V38.6336H115.533V35.6796C115.533 34.8768 115.184 34.3671 114.442 34.3671C114.178 34.3698 113.922 34.455 113.71 34.6106C113.497 34.7663 113.338 34.9846 113.256 35.235V38.6336H111.774V33.0968L113.257 33.0978Z" fill="#231F20"/>
</svg>
