<svg width="111" height="49" viewBox="0 0 111 49" fill="none" xmlns="http://www.w3.org/2000/svg">
<g opacity="0.85" filter="url(#filter0_d_1080_19199)">
<path d="M97 35V14H15.6841C14.9251 14 14.4428 14.8123 14.8061 15.4786L19.4632 24.0213C19.6259 24.3197 19.6259 24.6803 19.4632 24.9787L14.8061 33.5213C14.4428 34.1877 14.9251 35 15.6841 35H97Z" fill="#FF6161"/>
</g>
<path d="M30.5469 24.7393H31.4844C31.4355 25.1885 31.307 25.5905 31.0986 25.9453C30.8903 26.3001 30.5957 26.5817 30.2148 26.79C29.834 26.9951 29.3587 27.0977 28.7891 27.0977C28.3724 27.0977 27.9932 27.0195 27.6514 26.8633C27.3128 26.707 27.0215 26.4857 26.7773 26.1992C26.5332 25.9095 26.3444 25.5628 26.2109 25.1592C26.0807 24.7523 26.0156 24.2998 26.0156 23.8018V23.0938C26.0156 22.5957 26.0807 22.1449 26.2109 21.7412C26.3444 21.3343 26.5348 20.986 26.7822 20.6963C27.0329 20.4066 27.334 20.1836 27.6855 20.0273C28.0371 19.8711 28.4326 19.793 28.8721 19.793C29.4092 19.793 29.8633 19.8939 30.2344 20.0957C30.6055 20.2975 30.8936 20.5775 31.0986 20.9355C31.307 21.2904 31.4355 21.7021 31.4844 22.1709H30.5469C30.5013 21.8389 30.4167 21.554 30.293 21.3164C30.1693 21.0755 29.9935 20.89 29.7656 20.7598C29.5378 20.6296 29.2399 20.5645 28.8721 20.5645C28.5563 20.5645 28.278 20.6247 28.0371 20.7451C27.7995 20.8656 27.5993 21.0365 27.4365 21.2578C27.277 21.4792 27.1566 21.7445 27.0752 22.0537C26.9938 22.363 26.9531 22.7064 26.9531 23.084V23.8018C26.9531 24.1501 26.9889 24.4772 27.0605 24.7832C27.1354 25.0892 27.2477 25.3577 27.3975 25.5889C27.5472 25.82 27.7376 26.0023 27.9688 26.1357C28.1999 26.266 28.4733 26.3311 28.7891 26.3311C29.1895 26.3311 29.5085 26.2676 29.7461 26.1406C29.9837 26.0137 30.1628 25.8314 30.2832 25.5938C30.4069 25.3561 30.4948 25.0713 30.5469 24.7393ZM32.3926 24.417V24.3047C32.3926 23.9238 32.4479 23.5706 32.5586 23.2451C32.6693 22.9163 32.8288 22.6315 33.0371 22.3906C33.2454 22.1465 33.4977 21.9577 33.7939 21.8242C34.0902 21.6875 34.4222 21.6191 34.79 21.6191C35.1611 21.6191 35.4948 21.6875 35.791 21.8242C36.0905 21.9577 36.3444 22.1465 36.5527 22.3906C36.7643 22.6315 36.9255 22.9163 37.0361 23.2451C37.1468 23.5706 37.2021 23.9238 37.2021 24.3047V24.417C37.2021 24.7979 37.1468 25.151 37.0361 25.4766C36.9255 25.8021 36.7643 26.0869 36.5527 26.3311C36.3444 26.5719 36.0921 26.7607 35.7959 26.8975C35.5029 27.0309 35.1709 27.0977 34.7998 27.0977C34.4287 27.0977 34.0951 27.0309 33.7988 26.8975C33.5026 26.7607 33.2487 26.5719 33.0371 26.3311C32.8288 26.0869 32.6693 25.8021 32.5586 25.4766C32.4479 25.151 32.3926 24.7979 32.3926 24.417ZM33.2959 24.3047V24.417C33.2959 24.6807 33.3268 24.9297 33.3887 25.1641C33.4505 25.3952 33.5433 25.6003 33.667 25.7793C33.7939 25.9583 33.9518 26.0999 34.1406 26.2041C34.3294 26.305 34.5492 26.3555 34.7998 26.3555C35.0472 26.3555 35.2637 26.305 35.4492 26.2041C35.638 26.0999 35.7943 25.9583 35.918 25.7793C36.0417 25.6003 36.1344 25.3952 36.1963 25.1641C36.2614 24.9297 36.2939 24.6807 36.2939 24.417V24.3047C36.2939 24.0443 36.2614 23.7985 36.1963 23.5674C36.1344 23.333 36.04 23.1263 35.9131 22.9473C35.7894 22.765 35.6331 22.6217 35.4443 22.5176C35.2588 22.4134 35.0407 22.3613 34.79 22.3613C34.5426 22.3613 34.3245 22.4134 34.1357 22.5176C33.9502 22.6217 33.7939 22.765 33.667 22.9473C33.5433 23.1263 33.4505 23.333 33.3887 23.5674C33.3268 23.7985 33.2959 24.0443 33.2959 24.3047ZM39.2334 22.7666V27H38.3252V21.7168H39.1846L39.2334 22.7666ZM39.0479 24.1582L38.6279 24.1436C38.6312 23.7822 38.6784 23.4486 38.7695 23.1426C38.8607 22.8333 38.9958 22.5648 39.1748 22.3369C39.3538 22.109 39.5768 21.9333 39.8438 21.8096C40.1107 21.6826 40.4199 21.6191 40.7715 21.6191C41.0189 21.6191 41.2467 21.6549 41.4551 21.7266C41.6634 21.7949 41.8441 21.904 41.9971 22.0537C42.1501 22.2035 42.2689 22.3955 42.3535 22.6299C42.4382 22.8643 42.4805 23.1475 42.4805 23.4795V27H41.5771V23.5234C41.5771 23.2467 41.5299 23.0254 41.4355 22.8594C41.3444 22.6934 41.2142 22.5729 41.0449 22.498C40.8757 22.4199 40.6771 22.3809 40.4492 22.3809C40.1823 22.3809 39.9593 22.4281 39.7803 22.5225C39.6012 22.6169 39.458 22.7471 39.3506 22.9131C39.2432 23.0791 39.165 23.2695 39.1162 23.4844C39.0706 23.696 39.0479 23.9206 39.0479 24.1582ZM42.4707 23.6602L41.8652 23.8457C41.8685 23.556 41.9157 23.2777 42.0068 23.0107C42.1012 22.7438 42.2363 22.5062 42.4121 22.2979C42.5911 22.0895 42.8109 21.9251 43.0713 21.8047C43.3317 21.681 43.6296 21.6191 43.9648 21.6191C44.248 21.6191 44.4987 21.6566 44.7168 21.7314C44.9382 21.8063 45.1237 21.9219 45.2734 22.0781C45.4264 22.2311 45.542 22.4281 45.6201 22.6689C45.6982 22.9098 45.7373 23.1963 45.7373 23.5283V27H44.8291V23.5186C44.8291 23.2223 44.7819 22.9928 44.6875 22.8301C44.5964 22.6641 44.4661 22.5485 44.2969 22.4834C44.1309 22.415 43.9323 22.3809 43.7012 22.3809C43.5026 22.3809 43.3268 22.415 43.1738 22.4834C43.0208 22.5518 42.8923 22.6462 42.7881 22.7666C42.6839 22.8838 42.6042 23.0189 42.5488 23.1719C42.4967 23.3249 42.4707 23.4876 42.4707 23.6602ZM48.0859 21.7168V27H47.1777V21.7168H48.0859ZM47.1094 20.3154C47.1094 20.1689 47.1533 20.0452 47.2412 19.9443C47.3324 19.8434 47.4658 19.793 47.6416 19.793C47.8141 19.793 47.946 19.8434 48.0371 19.9443C48.1315 20.0452 48.1787 20.1689 48.1787 20.3154C48.1787 20.4554 48.1315 20.5758 48.0371 20.6768C47.946 20.7744 47.8141 20.8232 47.6416 20.8232C47.4658 20.8232 47.3324 20.7744 47.2412 20.6768C47.1533 20.5758 47.1094 20.4554 47.1094 20.3154ZM50.4395 22.8447V27H49.5361V21.7168H50.3906L50.4395 22.8447ZM50.2246 24.1582L49.8486 24.1436C49.8519 23.7822 49.9056 23.4486 50.0098 23.1426C50.1139 22.8333 50.2604 22.5648 50.4492 22.3369C50.638 22.109 50.8626 21.9333 51.123 21.8096C51.3867 21.6826 51.6781 21.6191 51.9971 21.6191C52.2575 21.6191 52.4919 21.6549 52.7002 21.7266C52.9085 21.7949 53.0859 21.9056 53.2324 22.0586C53.3822 22.2116 53.4961 22.4102 53.5742 22.6543C53.6523 22.8952 53.6914 23.1898 53.6914 23.5381V27H52.7832V23.5283C52.7832 23.2516 52.7425 23.0303 52.6611 22.8643C52.5798 22.695 52.4609 22.5729 52.3047 22.498C52.1484 22.4199 51.9564 22.3809 51.7285 22.3809C51.5039 22.3809 51.2988 22.4281 51.1133 22.5225C50.931 22.6169 50.7731 22.7471 50.6396 22.9131C50.5094 23.0791 50.4069 23.2695 50.332 23.4844C50.2604 23.696 50.2246 23.9206 50.2246 24.1582ZM58.4863 21.7168H59.3066V26.8877C59.3066 27.3532 59.2122 27.7503 59.0234 28.0791C58.8346 28.4079 58.571 28.6569 58.2324 28.8262C57.8971 28.9987 57.5098 29.085 57.0703 29.085C56.888 29.085 56.6732 29.0557 56.4258 28.9971C56.1816 28.9417 55.9408 28.8457 55.7031 28.709C55.4688 28.5755 55.2718 28.3949 55.1123 28.167L55.5859 27.6299C55.8073 27.8968 56.0384 28.0824 56.2793 28.1865C56.5234 28.2907 56.7643 28.3428 57.002 28.3428C57.2884 28.3428 57.5358 28.2891 57.7441 28.1816C57.9525 28.0742 58.1136 27.9147 58.2275 27.7031C58.3447 27.4948 58.4033 27.2376 58.4033 26.9316V22.8789L58.4863 21.7168ZM54.8486 24.417V24.3145C54.8486 23.9108 54.8958 23.5446 54.9902 23.2158C55.0879 22.8838 55.2262 22.599 55.4053 22.3613C55.5876 22.1237 55.8073 21.9414 56.0645 21.8145C56.3216 21.6842 56.6113 21.6191 56.9336 21.6191C57.2656 21.6191 57.5553 21.6777 57.8027 21.7949C58.0534 21.9089 58.265 22.0765 58.4375 22.2979C58.6133 22.516 58.7516 22.7796 58.8525 23.0889C58.9535 23.3981 59.0234 23.748 59.0625 24.1387V24.5879C59.0267 24.9753 58.9567 25.3236 58.8525 25.6328C58.7516 25.9421 58.6133 26.2057 58.4375 26.4238C58.265 26.6419 58.0534 26.8096 57.8027 26.9268C57.5521 27.0407 57.2591 27.0977 56.9238 27.0977C56.6081 27.0977 56.3216 27.0309 56.0645 26.8975C55.8105 26.764 55.5924 26.5768 55.4102 26.3359C55.2279 26.0951 55.0879 25.8118 54.9902 25.4863C54.8958 25.1576 54.8486 24.8011 54.8486 24.417ZM55.752 24.3145V24.417C55.752 24.6807 55.778 24.9281 55.8301 25.1592C55.8854 25.3903 55.9684 25.5938 56.0791 25.7695C56.193 25.9453 56.3379 26.0837 56.5137 26.1846C56.6895 26.2822 56.8994 26.3311 57.1436 26.3311C57.443 26.3311 57.6904 26.2676 57.8857 26.1406C58.0811 26.0137 58.2357 25.846 58.3496 25.6377C58.4668 25.4294 58.5579 25.2031 58.623 24.959V23.7822C58.5872 23.6032 58.5319 23.4307 58.457 23.2646C58.3854 23.0954 58.291 22.9456 58.1738 22.8154C58.0599 22.682 57.9183 22.5762 57.749 22.498C57.5798 22.4199 57.3812 22.3809 57.1533 22.3809C56.9059 22.3809 56.6927 22.4329 56.5137 22.5371C56.3379 22.638 56.193 22.778 56.0791 22.957C55.9684 23.1328 55.8854 23.3379 55.8301 23.5723C55.778 23.8034 55.752 24.0508 55.752 24.3145ZM66.2354 25.5986C66.2354 25.4684 66.2061 25.348 66.1475 25.2373C66.0921 25.1234 65.9766 25.0208 65.8008 24.9297C65.6283 24.8353 65.3678 24.7539 65.0195 24.6855C64.7266 24.6237 64.4613 24.5505 64.2236 24.4658C63.9893 24.3812 63.7891 24.2786 63.623 24.1582C63.4603 24.0378 63.335 23.8962 63.2471 23.7334C63.1592 23.5706 63.1152 23.3802 63.1152 23.1621C63.1152 22.9538 63.1608 22.7568 63.252 22.5713C63.3464 22.3857 63.4782 22.2214 63.6475 22.0781C63.82 21.9349 64.0267 21.8226 64.2676 21.7412C64.5085 21.6598 64.777 21.6191 65.0732 21.6191C65.4964 21.6191 65.8577 21.694 66.1572 21.8438C66.4567 21.9935 66.6862 22.1937 66.8457 22.4443C67.0052 22.6917 67.085 22.9668 67.085 23.2695H66.1816C66.1816 23.123 66.1377 22.9814 66.0498 22.8447C65.9652 22.7048 65.8398 22.5892 65.6738 22.498C65.5111 22.4069 65.3109 22.3613 65.0732 22.3613C64.8226 22.3613 64.6191 22.4004 64.4629 22.4785C64.3099 22.5534 64.1976 22.6494 64.126 22.7666C64.0576 22.8838 64.0234 23.0075 64.0234 23.1377C64.0234 23.2354 64.0397 23.3232 64.0723 23.4014C64.1081 23.4762 64.1699 23.5462 64.2578 23.6113C64.3457 23.6732 64.4694 23.7318 64.6289 23.7871C64.7884 23.8424 64.9919 23.8978 65.2393 23.9531C65.6722 24.0508 66.0286 24.168 66.3086 24.3047C66.5885 24.4414 66.7969 24.609 66.9336 24.8076C67.0703 25.0062 67.1387 25.2471 67.1387 25.5303C67.1387 25.7614 67.0898 25.973 66.9922 26.165C66.8978 26.3571 66.7594 26.5231 66.5771 26.6631C66.3981 26.7998 66.1833 26.9072 65.9326 26.9854C65.6852 27.0602 65.4069 27.0977 65.0977 27.0977C64.6322 27.0977 64.2383 27.0146 63.916 26.8486C63.5938 26.6826 63.3496 26.4678 63.1836 26.2041C63.0176 25.9404 62.9346 25.6621 62.9346 25.3691H63.8428C63.8558 25.6165 63.9274 25.8135 64.0576 25.96C64.1878 26.1032 64.3473 26.2057 64.5361 26.2676C64.7249 26.3262 64.9121 26.3555 65.0977 26.3555C65.3451 26.3555 65.5518 26.3229 65.7178 26.2578C65.887 26.1927 66.0156 26.1032 66.1035 25.9893C66.1914 25.8753 66.2354 25.7451 66.2354 25.5986ZM68.0859 24.417V24.3047C68.0859 23.9238 68.1413 23.5706 68.252 23.2451C68.3626 22.9163 68.5221 22.6315 68.7305 22.3906C68.9388 22.1465 69.1911 21.9577 69.4873 21.8242C69.7835 21.6875 70.1156 21.6191 70.4834 21.6191C70.8545 21.6191 71.1882 21.6875 71.4844 21.8242C71.7839 21.9577 72.0378 22.1465 72.2461 22.3906C72.4577 22.6315 72.6188 22.9163 72.7295 23.2451C72.8402 23.5706 72.8955 23.9238 72.8955 24.3047V24.417C72.8955 24.7979 72.8402 25.151 72.7295 25.4766C72.6188 25.8021 72.4577 26.0869 72.2461 26.3311C72.0378 26.5719 71.7855 26.7607 71.4893 26.8975C71.1963 27.0309 70.8643 27.0977 70.4932 27.0977C70.1221 27.0977 69.7884 27.0309 69.4922 26.8975C69.196 26.7607 68.9421 26.5719 68.7305 26.3311C68.5221 26.0869 68.3626 25.8021 68.252 25.4766C68.1413 25.151 68.0859 24.7979 68.0859 24.417ZM68.9893 24.3047V24.417C68.9893 24.6807 69.0202 24.9297 69.082 25.1641C69.1439 25.3952 69.2367 25.6003 69.3604 25.7793C69.4873 25.9583 69.6452 26.0999 69.834 26.2041C70.0228 26.305 70.2425 26.3555 70.4932 26.3555C70.7406 26.3555 70.957 26.305 71.1426 26.2041C71.3314 26.0999 71.4876 25.9583 71.6113 25.7793C71.735 25.6003 71.8278 25.3952 71.8896 25.1641C71.9548 24.9297 71.9873 24.6807 71.9873 24.417V24.3047C71.9873 24.0443 71.9548 23.7985 71.8896 23.5674C71.8278 23.333 71.7334 23.1263 71.6064 22.9473C71.4827 22.765 71.3265 22.6217 71.1377 22.5176C70.9521 22.4134 70.734 22.3613 70.4834 22.3613C70.236 22.3613 70.0179 22.4134 69.8291 22.5176C69.6436 22.6217 69.4873 22.765 69.3604 22.9473C69.2367 23.1263 69.1439 23.333 69.082 23.5674C69.0202 23.7985 68.9893 24.0443 68.9893 24.3047ZM73.7891 24.417V24.3047C73.7891 23.9238 73.8444 23.5706 73.9551 23.2451C74.0658 22.9163 74.2253 22.6315 74.4336 22.3906C74.6419 22.1465 74.8942 21.9577 75.1904 21.8242C75.4867 21.6875 75.8187 21.6191 76.1865 21.6191C76.5576 21.6191 76.8913 21.6875 77.1875 21.8242C77.487 21.9577 77.7409 22.1465 77.9492 22.3906C78.1608 22.6315 78.3219 22.9163 78.4326 23.2451C78.5433 23.5706 78.5986 23.9238 78.5986 24.3047V24.417C78.5986 24.7979 78.5433 25.151 78.4326 25.4766C78.3219 25.8021 78.1608 26.0869 77.9492 26.3311C77.7409 26.5719 77.4886 26.7607 77.1924 26.8975C76.8994 27.0309 76.5674 27.0977 76.1963 27.0977C75.8252 27.0977 75.4915 27.0309 75.1953 26.8975C74.8991 26.7607 74.6452 26.5719 74.4336 26.3311C74.2253 26.0869 74.0658 25.8021 73.9551 25.4766C73.8444 25.151 73.7891 24.7979 73.7891 24.417ZM74.6924 24.3047V24.417C74.6924 24.6807 74.7233 24.9297 74.7852 25.1641C74.847 25.3952 74.9398 25.6003 75.0635 25.7793C75.1904 25.9583 75.3483 26.0999 75.5371 26.2041C75.7259 26.305 75.9456 26.3555 76.1963 26.3555C76.4437 26.3555 76.6602 26.305 76.8457 26.2041C77.0345 26.0999 77.1908 25.9583 77.3145 25.7793C77.4382 25.6003 77.5309 25.3952 77.5928 25.1641C77.6579 24.9297 77.6904 24.6807 77.6904 24.417V24.3047C77.6904 24.0443 77.6579 23.7985 77.5928 23.5674C77.5309 23.333 77.4365 23.1263 77.3096 22.9473C77.1859 22.765 77.0296 22.6217 76.8408 22.5176C76.6553 22.4134 76.4372 22.3613 76.1865 22.3613C75.9391 22.3613 75.721 22.4134 75.5322 22.5176C75.3467 22.6217 75.1904 22.765 75.0635 22.9473C74.9398 23.1263 74.847 23.333 74.7852 23.5674C74.7233 23.7985 74.6924 24.0443 74.6924 24.3047ZM80.6348 22.8447V27H79.7314V21.7168H80.5859L80.6348 22.8447ZM80.4199 24.1582L80.0439 24.1436C80.0472 23.7822 80.1009 23.4486 80.2051 23.1426C80.3092 22.8333 80.4557 22.5648 80.6445 22.3369C80.8333 22.109 81.0579 21.9333 81.3184 21.8096C81.582 21.6826 81.8734 21.6191 82.1924 21.6191C82.4528 21.6191 82.6872 21.6549 82.8955 21.7266C83.1038 21.7949 83.2812 21.9056 83.4277 22.0586C83.5775 22.2116 83.6914 22.4102 83.7695 22.6543C83.8477 22.8952 83.8867 23.1898 83.8867 23.5381V27H82.9785V23.5283C82.9785 23.2516 82.9378 23.0303 82.8564 22.8643C82.7751 22.695 82.6562 22.5729 82.5 22.498C82.3438 22.4199 82.1517 22.3809 81.9238 22.3809C81.6992 22.3809 81.4941 22.4281 81.3086 22.5225C81.1263 22.6169 80.9684 22.7471 80.835 22.9131C80.7048 23.0791 80.6022 23.2695 80.5273 23.4844C80.4557 23.696 80.4199 23.9206 80.4199 24.1582Z" fill="white"/>
<defs>
<filter id="filter0_d_1080_19199" x="0.683594" y="0" width="110.316" height="49" filterUnits="userSpaceOnUse" color-interpolation-filters="sRGB">
<feFlood flood-opacity="0" result="BackgroundImageFix"/>
<feColorMatrix in="SourceAlpha" type="matrix" values="0 0 0 0 0 0 0 0 0 0 0 0 0 0 0 0 0 0 127 0" result="hardAlpha"/>
<feOffset/>
<feGaussianBlur stdDeviation="7"/>
<feColorMatrix type="matrix" values="0 0 0 0 0 0 0 0 0 0 0 0 0 0 0 0 0 0 0.14 0"/>
<feBlend mode="normal" in2="BackgroundImageFix" result="effect1_dropShadow_1080_19199"/>
<feBlend mode="normal" in="SourceGraphic" in2="effect1_dropShadow_1080_19199" result="shape"/>
</filter>
</defs>
</svg>
