<svg width="15" height="8" viewBox="0 0 15 8" fill="none" xmlns="http://www.w3.org/2000/svg">
<path fill-rule="evenodd" clip-rule="evenodd" d="M10.2737 0.766284C10.0944 0.597002 10.0874 0.315679 10.2582 0.137932C10.429 -0.039815 10.7129 -0.0466765 10.8922 0.122606L15 4L10.8922 7.87739C10.7129 8.04668 10.429 8.03981 10.2582 7.86207C10.0874 7.68432 10.0944 7.403 10.2737 7.23372L13.2287 4.44444H7.03387C6.05811 4.44444 5.26838 5.23555 4.56562 5.91248C4.08104 6.37924 3.41968 6.66667 2.69058 6.66667C1.20461 6.66667 0 5.47276 0 4C0 2.52724 1.20461 1.33333 2.69058 1.33333C3.41968 1.33333 4.08105 1.62076 4.56562 2.08752C5.26838 2.76445 6.05811 3.55556 7.03387 3.55556H13.2287L10.2737 0.766284ZM3.58744 4C3.58744 4.49092 3.18591 4.88889 2.69058 4.88889C2.19526 4.88889 1.79372 4.49092 1.79372 4C1.79372 3.50908 2.19526 3.11111 2.69058 3.11111C3.18591 3.11111 3.58744 3.50908 3.58744 4Z" fill="black"/>
</svg>
