<svg width="16" height="20" viewBox="0 0 16 20" fill="none" xmlns="http://www.w3.org/2000/svg">
<path d="M6.10815 1.20728H9.45075V1.76971H10.6579V1.12854C10.658 0.506287 10.152 0 9.53009 0H6.02881C5.40686 0 4.90088 0.506287 4.90088 1.12854V1.76971H6.10815V1.20728Z" fill="#EF9B9B"/>
<path d="M13.4456 6.55273H2.11324C1.80273 6.55273 1.55828 6.81763 1.58331 7.12723L2.53072 18.8423C2.58352 19.4963 3.12902 20 3.78439 20H11.7743C12.4297 20 12.9752 19.4963 13.028 18.8422L13.9754 7.12723C14.0006 6.81763 13.7562 6.55273 13.4456 6.55273ZM4.85723 18.7505C4.84457 18.7512 4.8319 18.7517 4.81939 18.7517C4.50292 18.7517 4.23727 18.5052 4.21758 18.1851L3.62386 8.56766C3.60342 8.23486 3.85656 7.94846 4.1892 7.92801C4.52078 7.90787 4.8084 8.1604 4.82885 8.49335L5.42242 18.1108C5.44302 18.4436 5.18987 18.7299 4.85723 18.7505ZM8.38979 18.148C8.38979 18.4813 8.11956 18.7515 7.78616 18.7515C7.45275 18.7515 7.18252 18.4813 7.18252 18.148V8.53043C7.18252 8.19702 7.45275 7.92679 7.78616 7.92679C8.11941 7.92679 8.38979 8.19702 8.38979 8.53043V18.148ZM11.935 8.56598L11.3682 18.1834C11.3494 18.5042 11.0833 18.7515 10.7662 18.7515C10.7543 18.7515 10.7422 18.7512 10.7302 18.7506C10.3974 18.7309 10.1435 18.4453 10.1632 18.1125L10.7299 8.49487C10.7494 8.16208 11.0341 7.90817 11.3679 7.92786C11.7006 7.94739 11.9546 8.23318 11.935 8.56598Z" fill="#EF9B9B"/>
<path d="M15.5331 4.69L15.1367 3.50165C15.0322 3.18839 14.7389 2.97705 14.4085 2.97705H1.15034C0.820139 2.97705 0.526713 3.18839 0.422343 3.50165L0.0259194 4.69C-0.0505271 4.91919 0.0489602 5.15295 0.23466 5.26953C0.310343 5.31699 0.399912 5.34552 0.498331 5.34552H15.0607C15.1591 5.34552 15.2489 5.31699 15.3244 5.26938C15.5101 5.1528 15.6096 4.91904 15.5331 4.69Z" fill="#EF9B9B"/>
</svg>
