<svg width="37" height="36" viewBox="0 0 37 36" fill="none" xmlns="http://www.w3.org/2000/svg">
<path d="M32.432 26.1347C31.7392 26.794 31.0912 27.4068 30.4509 28.0277C30.3837 28.0931 30.3354 28.2019 30.3285 28.2935C30.2389 29.537 29.6866 30.1227 28.3897 30.3362C28.3552 30.342 28.3233 30.3608 28.2932 30.3722C28.1062 31.9298 27.3798 32.59 25.8959 32.5295C25.8451 33.1945 25.5866 33.7647 24.9704 34.1386C24.3672 34.5043 23.727 34.5173 23.0462 34.2752C23.023 34.3365 22.9971 34.3848 22.9859 34.4355C22.6904 35.769 21.2961 36.3915 20.0346 35.7395C19.3262 35.373 18.6291 34.9885 17.9389 34.5926C17.7252 34.4699 17.5856 34.474 17.4098 34.6441C17.1918 34.856 16.9479 35.0458 16.7066 35.2356C15.5373 36.1559 13.9207 35.7191 13.4356 34.3554C13.4175 34.3038 13.3968 34.2523 13.3684 34.1746C12.7014 34.4813 12.037 34.5329 11.3847 34.1967C10.7462 33.8686 10.4101 33.3352 10.3041 32.6383C9.61909 32.7577 9.00124 32.6383 8.47905 32.2031C7.97236 31.7809 7.73195 31.2361 7.73367 30.6046C5.81809 30.4663 5.12958 28.8057 5.96372 27.5205C5.70434 27.3299 5.44152 27.1376 5.16319 26.9331C5.05203 27.0992 4.96069 27.2456 4.85987 27.3847C4.66082 27.6587 4.42471 27.7258 4.11277 27.563C3.16403 27.0665 2.22218 26.5593 1.27775 26.0553C0.985627 25.8991 0.963222 25.6643 1.03302 25.3764C1.8999 21.8039 2.75902 18.2298 3.62073 14.6565C3.73103 14.2 3.83874 13.7427 3.9568 13.2887C4.07916 12.8183 4.44194 12.6923 4.84953 12.9901C6.81509 14.4275 8.77375 15.8738 10.7402 17.3111C11.0133 17.5107 11.0573 17.7504 10.9229 18.0883C11.8957 18.0285 12.8298 17.995 13.7587 17.9083C14.9324 17.7987 16.0991 17.6113 17.2745 17.5279C17.7114 17.4968 18.1629 17.676 18.6102 17.739C18.773 17.7619 18.9816 17.7848 19.1074 17.7111C19.9975 17.1884 20.9023 17.1442 21.8709 17.5034C22.5533 17.7561 23.2677 17.9296 23.9614 18.1562C25.0342 18.5071 26.045 18.3484 27.0523 17.8535C26.88 17.4862 27.0833 17.2686 27.3772 17.0534C29.2686 15.6742 31.1506 14.2835 33.036 12.8969C33.5772 12.4985 33.915 12.6007 34.0649 13.2216C35.0361 17.2285 36.002 21.2362 36.9749 25.2422C37.0516 25.5571 36.9534 25.769 36.6569 25.9253C35.7513 26.4014 34.8525 26.8881 33.9469 27.3642C33.5513 27.572 33.3428 27.5172 33.1007 27.1573C32.8818 26.8317 32.6715 26.5012 32.4311 26.1322L32.432 26.1347ZM18.4068 33.7606C19.1349 34.1574 19.8329 34.5632 20.5593 34.9174C20.7722 35.0213 21.0772 35.0335 21.3185 34.9861C21.7192 34.9084 21.9484 34.6147 22.0087 34.2335C22.0699 33.8449 21.889 33.5463 21.5546 33.3262C20.3792 32.5499 19.2004 31.7785 18.0294 30.9956C17.6821 30.7633 17.6166 30.5211 17.7855 30.2749C17.957 30.0237 18.2508 29.9951 18.605 30.2201C19.2745 30.6463 19.9372 31.0815 20.5998 31.5175C21.49 32.1033 22.3715 32.7004 23.2668 33.2804C23.8847 33.6805 24.6223 33.4629 24.8283 32.837C24.9696 32.41 24.8119 32.0452 24.3397 31.7261C22.8093 30.6937 21.2771 29.6646 19.7468 28.6314C19.4159 28.4081 19.3314 28.1209 19.5115 27.8772C19.6899 27.6366 20.0079 27.6195 20.3396 27.8412C21.0867 28.341 21.833 28.8433 22.5775 29.3472C23.5581 30.0098 24.5327 30.6798 25.5168 31.3367C26.1941 31.7883 27.023 31.5208 27.2135 30.8017C27.3238 30.3861 27.1471 30.0098 26.6861 29.6941C25.5538 28.9185 24.4189 28.1463 23.2875 27.3708C22.5559 26.8693 21.8269 26.3637 21.0953 25.8606C20.8911 25.7199 20.7489 25.5261 20.8739 25.3076C20.9575 25.1604 21.1488 25.0205 21.3185 24.982C21.4469 24.9526 21.6348 25.0655 21.7657 25.1547C23.6942 26.4627 25.6133 27.7839 27.5487 29.0838C27.7796 29.2384 28.089 29.3472 28.3682 29.3628C28.7938 29.3857 29.1454 29.0813 29.2729 28.6977C29.4125 28.278 29.2807 27.9082 28.8593 27.5818C26.4138 25.688 23.9605 23.804 21.527 21.8963C21.191 21.6329 20.9264 21.5429 20.5602 21.7924C20.4266 21.8832 20.256 21.9291 20.0992 21.9847C18.3973 22.5892 16.7187 22.6489 15.0806 21.7843C14.6472 21.5552 14.3714 21.228 14.3809 20.7453C14.3904 20.2635 14.6756 19.9477 15.1194 19.7309C15.8467 19.3759 16.5662 19.0053 17.2874 18.6388C17.3641 18.6004 17.4322 18.5472 17.5873 18.4474C17.4244 18.458 17.3667 18.458 17.3098 18.467C15.0694 18.7951 12.8152 18.9799 10.5489 19.0315C10.3231 19.0364 10.2094 19.1207 10.0991 19.2924C8.97022 21.048 7.83363 22.7995 6.69962 24.5517C6.367 25.0663 6.03266 25.58 5.68453 26.1175C5.96372 26.3212 6.23774 26.5053 6.49195 26.7106C6.65739 26.8448 6.77028 26.8227 6.92108 26.6893C7.25628 26.394 7.59838 26.1044 7.95513 25.832C9.07104 24.978 10.6531 25.4001 11.1512 26.6779C11.1831 26.7597 11.215 26.8407 11.2529 26.9364C11.9853 26.5732 12.7031 26.5298 13.4003 26.9413C14.0836 27.3446 14.4076 27.9581 14.4257 28.7058C15.8156 28.8547 16.2922 29.3088 16.6196 30.7633C18.318 30.8443 19.1961 32.3405 18.4059 33.7623L18.4068 33.7606ZM27.6176 18.6944C27.4858 18.7419 27.3729 18.7754 27.2669 18.8229C25.9666 19.4021 24.6533 19.434 23.3073 18.9579C22.5869 18.7034 21.8545 18.4695 21.1091 18.2944C20.7808 18.2175 20.3551 18.2085 20.0656 18.3451C18.5481 19.0618 17.0599 19.8348 15.5614 20.5874C15.3124 20.7126 15.3383 20.859 15.5683 20.9441C16.0681 21.1298 16.5688 21.354 17.091 21.4382C18.3982 21.6501 19.5882 21.2476 20.7145 20.6562C21.0453 20.4819 21.303 20.5007 21.5977 20.7298C24.3621 22.8788 27.1342 25.0197 29.8572 27.1262C30.5147 26.502 31.1756 25.8754 31.8538 25.2324C30.4595 23.0809 29.0429 20.8934 27.6176 18.6928V18.6944ZM4.78835 14.1428C4.7444 14.2982 4.71079 14.4054 4.68408 14.515C4.40403 15.6717 4.12397 16.8285 3.84564 17.9852C3.27174 20.3657 2.69698 22.7463 2.12998 25.1285C2.10671 25.2275 2.12825 25.4058 2.19374 25.4426C2.86071 25.8189 3.54146 26.174 4.23255 26.5429C6.11538 23.6347 7.97839 20.7584 9.85175 17.8649C8.16194 16.6223 6.49884 15.4001 4.78749 14.1419L4.78835 14.1428ZM33.7693 26.3736C34.4173 26.0275 35.0309 25.6888 35.6556 25.3731C35.8702 25.2643 35.9331 25.1661 35.8728 24.9223C35.3161 22.6669 34.7801 20.4075 34.2355 18.1496C33.9029 16.772 33.5668 15.3952 33.2196 13.9685C31.5108 15.2242 29.8339 16.4571 28.1458 17.6972C30.0287 20.6022 31.8856 23.4686 33.7685 26.3736H33.7693ZM9.94309 31.7368C10.0603 31.6803 10.324 31.6067 10.5153 31.4521C11.3666 30.7633 12.2025 30.0573 13.0332 29.3464C13.5063 28.9415 13.5321 28.386 13.1245 27.95C12.7273 27.5246 12.1155 27.4779 11.6441 27.8657C10.7807 28.5758 9.92672 29.2965 9.07707 30.0221C8.73842 30.3117 8.65828 30.7019 8.82373 31.0823C8.98659 31.4562 9.40108 31.7327 9.94481 31.7368H9.94309ZM11.2546 32.4517C11.3227 32.8919 11.5114 33.1962 11.8897 33.3721C12.2835 33.5545 12.6695 33.5046 13.0004 33.2322C13.7544 32.6113 14.5067 31.9871 15.2452 31.349C15.6743 30.9784 15.6838 30.3968 15.3003 29.9992C14.9298 29.6147 14.3292 29.5681 13.9044 29.9166C13.1392 30.5432 12.3774 31.1748 11.6389 31.8292C11.4614 31.9863 11.3804 32.2423 11.2546 32.4526V32.4517ZM6.54796 28.597C6.61776 29.0429 6.82543 29.3382 7.19855 29.5141C7.59235 29.6998 7.97236 29.6425 8.30584 29.3677C8.82373 28.9406 9.33817 28.5087 9.85261 28.0784C10.3326 27.6767 10.3989 27.1082 10.0181 26.6836C9.61995 26.2402 9.01762 26.2108 8.51352 26.6231C7.98443 27.055 7.44844 27.4829 6.94951 27.9451C6.76597 28.1144 6.67894 28.3778 6.54796 28.5987V28.597ZM14.2964 33.777C14.3637 34.186 14.5403 34.4707 14.8833 34.6499C15.2417 34.8372 15.6209 34.8323 15.9354 34.591C16.4585 34.1901 16.9677 33.7688 17.4503 33.3246C17.8165 32.9884 17.7855 32.4076 17.4356 32.0509C17.0806 31.6885 16.4964 31.6271 16.0983 31.9421C15.6002 32.3364 15.1082 32.7413 14.6463 33.1733C14.4809 33.3279 14.4093 33.5733 14.2956 33.7778L14.2964 33.777Z" fill="black"/>
<path d="M18.4061 33.7607C19.1963 32.3389 18.3182 30.8426 16.6198 30.7616C16.2923 29.3071 15.8158 28.8531 14.4259 28.7042C14.4069 27.9565 14.0829 27.343 13.4004 26.9397C12.7042 26.5282 11.9855 26.5715 11.2531 26.9348C11.2151 26.8391 11.1833 26.7581 11.1514 26.6763C10.6533 25.3985 9.07207 24.9763 7.9553 25.8304C7.59941 26.1028 7.25645 26.3924 6.92124 26.6877C6.76958 26.8211 6.65756 26.8423 6.49211 26.709C6.23791 26.5037 5.96389 26.3196 5.68469 26.1159C6.03368 25.5784 6.36717 25.0647 6.69979 24.5501C7.83466 22.7978 8.97039 21.0464 10.0992 19.2908C10.2095 19.1199 10.3233 19.0348 10.549 19.0299C12.8153 18.9783 15.0696 18.7934 17.31 18.4654C17.3669 18.4572 17.4255 18.4572 17.5875 18.4458C17.4324 18.5456 17.3643 18.5987 17.2876 18.6372C16.5664 19.0037 15.8468 19.3743 15.1195 19.7293C14.6766 19.9461 14.3905 20.261 14.3811 20.7437C14.3716 21.2264 14.6473 21.5536 15.0808 21.7826C16.7197 22.6465 18.3975 22.5876 20.0994 21.9831C20.2571 21.9274 20.4268 21.8816 20.5604 21.7908C20.9266 21.5405 21.1911 21.6313 21.5272 21.8947C23.9598 23.8024 26.414 25.6864 28.8595 27.5802C29.2809 27.9066 29.4127 28.2764 29.2731 28.696C29.1456 29.0797 28.794 29.384 28.3683 29.3611C28.0883 29.3464 27.7789 29.2376 27.5488 29.0822C25.6134 27.7831 23.6944 26.4619 21.7659 25.153C21.6341 25.0639 21.4471 24.951 21.3187 24.9804C21.1489 25.0189 20.9576 25.1596 20.874 25.306C20.75 25.5253 20.8913 25.7191 21.0955 25.859C21.8262 26.3613 22.5552 26.8677 23.2877 27.3692C24.42 28.1447 25.5548 28.9169 26.6863 29.6924C27.1473 30.0082 27.3231 30.3845 27.2136 30.8001C27.0232 31.5192 26.1942 31.7867 25.5169 31.3351C24.5329 30.6782 23.5574 30.0082 22.5776 29.3456C21.8331 28.8417 21.0869 28.3402 20.3398 27.8395C20.008 27.6178 19.6892 27.635 19.5117 27.8755C19.3316 28.1193 19.4152 28.4065 19.7469 28.6298C21.2765 29.663 22.8094 30.6921 24.3398 31.7245C24.812 32.0427 24.9697 32.4076 24.8284 32.8354C24.6225 33.4604 23.8848 33.6788 23.267 33.2788C22.3725 32.6996 21.4902 32.1024 20.6 31.5159C19.9374 31.0799 19.2747 30.6447 18.6052 30.2185C18.251 29.9935 17.9572 30.0221 17.7857 30.2733C17.6168 30.5195 17.6823 30.7616 18.0295 30.994C19.1997 31.7769 20.3794 32.5483 21.5548 33.3246C21.8883 33.5447 22.0692 33.8433 22.0089 34.2319C21.9494 34.6131 21.7194 34.9067 21.3187 34.9845C21.0774 35.0311 20.7724 35.0188 20.5595 34.9157C19.8331 34.5623 19.1342 34.1574 18.4061 33.7607Z" fill="#FFDB01"/>
<path d="M27.6168 18.6953C29.042 20.8958 30.4587 23.0825 31.8529 25.2348C31.1748 25.8786 30.5138 26.5053 29.8563 27.1286C27.1333 25.0213 24.3612 22.8813 21.5969 20.7322C21.3013 20.5023 21.0445 20.4843 20.7136 20.6586C19.5874 21.2501 18.3973 21.6525 17.0901 21.4407C16.5679 21.3556 16.0673 21.1323 15.5675 20.9466C15.3374 20.8615 15.3116 20.715 15.5606 20.5899C17.0591 19.8373 18.5473 19.0642 20.0647 18.3476C20.3543 18.211 20.78 18.22 21.1083 18.2969C21.8536 18.4719 22.5861 18.7051 23.3065 18.9603C24.6525 19.4364 25.9657 19.4045 27.266 18.8253C27.372 18.7779 27.4849 18.7427 27.6168 18.6953Z" fill="#FFDB01"/>
<path d="M4.78841 14.1428C6.49977 15.4009 8.16286 16.6231 9.85268 17.8657C7.97932 20.7592 6.11631 23.6355 4.23347 26.5437C3.54238 26.1748 2.86163 25.8197 2.19467 25.4434C2.12918 25.4066 2.10764 25.2283 2.1309 25.1293C2.69704 22.7471 3.27267 20.3666 3.84656 17.986C4.12576 16.8293 4.40495 15.6725 4.68501 14.5158C4.71172 14.4062 4.74533 14.299 4.78927 14.1436L4.78841 14.1428Z" fill="#FFDB01"/>
<path d="M33.7685 26.3736C31.8857 23.4678 30.0287 20.6021 28.1459 17.6972C29.834 16.457 31.5108 15.2242 33.2196 13.9685C33.566 15.3944 33.903 16.7712 34.2356 18.1496C34.7802 20.4074 35.3162 22.6677 35.8728 24.9223C35.9331 25.1661 35.8702 25.2643 35.6557 25.3731C35.0309 25.6897 34.4174 26.0275 33.7694 26.3736H33.7685Z" fill="#FFDB01"/>
<path d="M9.94305 31.7368C9.39931 31.7319 8.98483 31.4554 8.82196 31.0823C8.65565 30.7011 8.73579 30.3109 9.07531 30.0221C9.92495 29.2973 10.7789 28.5758 11.6423 27.8657C12.1146 27.478 12.7255 27.5246 13.1228 27.95C13.5303 28.386 13.5054 28.9415 13.0314 29.3464C12.2007 30.0573 11.3649 30.7641 10.5135 31.4521C10.3231 31.6067 10.0594 31.6803 9.94132 31.7368H9.94305Z" fill="#FFDB01"/>
<path d="M11.2548 32.4517C11.3806 32.2415 11.4616 31.9863 11.6391 31.8284C12.3776 31.1739 13.1393 30.5432 13.9045 29.9158C14.3293 29.5673 14.9308 29.6139 15.3005 29.9984C15.6839 30.396 15.6745 30.9768 15.2453 31.3482C14.5069 31.9863 13.7546 32.6104 13.0006 33.2313C12.6697 33.5038 12.2836 33.5537 11.8898 33.3712C11.5115 33.1962 11.3228 32.8919 11.2548 32.4509V32.4517Z" fill="#FFDB01"/>
<path d="M6.54797 28.597C6.67895 28.3762 6.76599 28.1136 6.94953 27.9434C7.44846 27.4812 7.98444 27.0542 8.51353 26.6214C9.01849 26.2091 9.62083 26.2386 10.0181 26.682C10.399 27.1074 10.3326 27.6759 9.85263 28.0768C9.33819 28.5071 8.82375 28.939 8.30586 29.366C7.97238 29.6409 7.59236 29.6981 7.19856 29.5124C6.82544 29.3366 6.61863 29.0421 6.54797 28.5954V28.597Z" fill="#FFDB01"/>
<path d="M14.2955 33.777C14.4101 33.5733 14.4808 33.3271 14.6462 33.1724C15.1081 32.7405 15.5993 32.3356 16.0982 31.9413C16.4972 31.6263 17.0806 31.6877 17.4356 32.0501C17.7855 32.4076 17.8165 32.9876 17.4502 33.3238C16.9668 33.7672 16.4584 34.1885 15.9354 34.5901C15.62 34.8323 15.2408 34.8364 14.8832 34.649C14.5403 34.4699 14.3636 34.186 14.2964 33.7762L14.2955 33.777Z" fill="#FFDB01"/>
<path d="M25.9045 5.09003H34.2139V8.33166H35.8077L33.5877 10.6771L31.4249 8.44009L32.848 8.38587V6.49461H25.9045V5.09003Z" fill="white"/>
<path d="M33.5896 10.9616L30.9827 8.26533L32.6463 8.20218V6.68662H25.7029V4.89868H34.4154V8.14031H36.2598L33.5896 10.9616ZM31.8676 8.61488L33.5863 10.3926L35.3554 8.52367H34.0123V5.2814H26.106V6.30326H33.0494V8.56959L31.8676 8.61424V8.61488Z" fill="black"/>
<path d="M11.0581 5.09003H2.74871V8.33166H1.15497L3.37493 10.6771L5.53777 8.44009L4.11469 8.38587V6.49461H11.0581V5.09003Z" fill="white"/>
<path d="M3.373 10.9616L5.97997 8.26533L4.31635 8.20218V6.68662H11.2598V4.89868H2.54723V8.14031H0.702869L3.373 10.9616ZM5.09508 8.61488L3.37636 10.3926L1.60725 8.52367H2.95037V5.2814H10.8566V6.30326H3.91321V8.56959L5.09508 8.61424V8.61488Z" fill="black"/>
<path d="M23.0457 0.772001C22.8731 0.640119 22.6533 0.577214 22.4327 0.596581C22.2121 0.615949 22.0082 0.716084 21.864 0.875775C21.6643 1.10668 21.5075 1.3682 21.4004 1.6491C21.0037 1.30669 20.5399 1.04188 20.0353 0.86978C19.5307 0.697681 18.9953 0.621684 18.4598 0.646125C17.3771 0.696654 16.3597 1.1528 15.6308 1.91451C14.902 2.67622 14.5212 3.68131 14.5719 4.70926C14.6251 5.7371 15.1056 6.70292 15.908 7.39487C16.7103 8.08682 17.769 8.44839 18.8518 8.40025C19.9345 8.34972 20.9519 7.89356 21.6808 7.13185C22.4096 6.37013 22.7904 5.36507 22.7397 4.33712C22.7046 3.63159 22.4661 2.94874 22.0504 2.36296C22.3719 2.256 22.6716 2.09736 22.9365 1.89397C23.1047 1.7571 23.2101 1.56344 23.2305 1.35401C23.2509 1.14458 23.1846 0.935836 23.0457 0.772001ZM18.7744 6.86741C18.1199 6.896 17.4801 6.67725 16.995 6.25903C16.51 5.84082 16.2192 5.25719 16.1864 4.63592C16.1563 4.01453 16.3868 3.40714 16.8273 2.94666C17.2678 2.48618 17.8825 2.21015 18.537 2.17897C19.1915 2.15038 19.8313 2.36913 20.3164 2.78735C20.8014 3.20556 21.0922 3.78917 21.125 4.41043C21.1528 5.0302 20.9216 5.63527 20.4816 6.09389C20.0417 6.55252 19.4286 6.82756 18.776 6.85911L18.7744 6.86741Z" fill="#FBDC00"/>
<path d="M22.5634 0.583833C22.6526 0.582442 22.741 0.598147 22.8237 0.629999C22.9063 0.661852 22.9813 0.709203 23.0442 0.769217C23.1832 0.933052 23.2495 1.1418 23.2291 1.35123C23.2087 1.56065 23.1032 1.75432 22.935 1.89119C22.6702 2.0946 22.3704 2.25322 22.049 2.36015C22.4648 2.94588 22.7033 3.62876 22.7383 4.33431C22.789 5.36227 22.408 6.36735 21.6791 7.12906C20.9503 7.89078 19.9329 8.34692 18.8502 8.39745C18.7832 8.39745 18.7176 8.39745 18.652 8.39745C17.6026 8.39546 16.5942 8.01093 15.8348 7.32327C15.0755 6.63561 14.6234 5.69737 14.5718 4.70232C14.5211 3.67436 14.9019 2.66928 15.6308 1.90757C16.3597 1.14585 17.3771 0.689711 18.4597 0.639182C18.5268 0.639182 18.5923 0.639182 18.6579 0.639182C19.6722 0.639629 20.6498 0.998674 21.4004 1.64632C21.5077 1.36552 21.6646 1.10403 21.864 0.87297C22.0498 0.695523 22.3 0.592107 22.5634 0.583833ZM18.6536 6.866H18.7744C19.4288 6.83482 20.0437 6.55879 20.4843 6.09831C20.9248 5.63783 21.1551 5.03041 21.125 4.40902C21.0933 3.80731 20.8196 3.24011 20.3603 2.82439C19.901 2.40868 19.2911 2.17616 18.6565 2.17479H18.5369C17.8823 2.20562 17.2672 2.4815 16.8264 2.94202C16.3855 3.40253 16.1548 4.01013 16.1849 4.63175C16.2166 5.23346 16.4905 5.80068 16.9498 6.21639C17.4092 6.63211 18.019 6.86462 18.6536 6.866ZM22.5634 2.88248e-05C22.1371 0.00800948 21.7306 0.172658 21.4296 0.459329C21.3368 0.549726 21.2548 0.649458 21.1848 0.756762C20.4307 0.297783 19.5537 0.0538757 18.6579 0.0539847C18.5821 0.0539847 18.5122 0.0539847 18.4306 0.0539847C17.1856 0.112041 16.0159 0.636508 15.1777 1.51233C14.3396 2.38816 13.9015 3.54383 13.9597 4.72583C14.016 5.87144 14.5351 6.9524 15.4093 7.74392C16.2835 8.53544 17.4456 8.97663 18.6536 8.97574C18.7294 8.97574 18.7994 8.97574 18.881 8.97574C20.1259 8.91769 21.2957 8.39322 22.1338 7.51739C22.972 6.64157 23.41 5.48588 23.3518 4.30387C23.3243 3.71992 23.1756 3.14687 22.9146 2.61748C23.0825 2.53226 23.2375 2.42567 23.3751 2.30067C23.6219 2.06469 23.7849 1.76144 23.8413 1.43326C23.8775 1.23961 23.864 1.04055 23.8019 0.852937C23.7397 0.665328 23.6307 0.49472 23.4843 0.355576C23.3641 0.241826 23.2214 0.151827 23.0643 0.0907996C22.9073 0.0297718 22.7388 -0.00107928 22.5691 2.88248e-05H22.5634ZM18.6536 6.28219C18.1762 6.28268 17.7168 6.10838 17.3712 5.79556C17.0257 5.48274 16.8206 5.05548 16.7985 4.6027C16.7862 4.37135 16.8225 4.13999 16.905 3.922C16.9875 3.70402 17.1147 3.50373 17.2793 3.33271C17.4429 3.16053 17.641 3.02088 17.8619 2.92186C18.0827 2.82283 18.3221 2.7664 18.5661 2.75583H18.6565C19.1338 2.75568 19.5929 2.9301 19.9383 3.24285C20.2838 3.5556 20.489 3.98263 20.5115 4.4353C20.5345 4.9026 20.3613 5.35948 20.0299 5.70571C19.6986 6.05194 19.236 6.25926 18.7438 6.28219H18.6536Z" fill="#231F20"/>
<path d="M22.3941 9.30777C22.2338 9.12377 21.9802 9.22199 21.8112 9.3465C21.5907 9.51325 21.3612 9.66888 21.1235 9.81273C20.6479 10.1037 20.1174 10.3043 19.5613 10.4034C18.9609 10.4893 18.3503 10.4893 17.7499 10.4034C17.1943 10.3042 16.6644 10.1036 16.1893 9.81273C15.951 9.66894 15.7209 9.51331 15.4999 9.3465C15.3324 9.22338 15.0788 9.12377 14.917 9.30777C14.8041 9.50279 14.7549 9.72525 14.7754 9.94692C14.7959 10.1686 14.8852 10.3795 15.0321 10.5528C15.3644 10.9753 15.8062 11.3089 16.3145 11.5213L16.3422 11.5351C17.0621 11.8654 17.8559 12.0245 18.6549 11.9985C19.4535 12.0243 20.2467 11.8653 20.9661 11.5351L20.9938 11.5213C21.5022 11.309 21.944 10.9754 22.2762 10.5528C22.4236 10.3798 22.5135 10.169 22.5345 9.94734C22.5555 9.72567 22.5066 9.50306 22.3941 9.30777Z" fill="#FBDC00"/>
<path d="M22.167 9.20537C22.2104 9.20483 22.2534 9.21377 22.2926 9.23153C22.3318 9.24928 22.3661 9.27537 22.3929 9.30775C22.5058 9.50278 22.555 9.72522 22.5345 9.94688C22.514 10.1686 22.4248 10.3795 22.2778 10.5528C21.9456 10.9753 21.5038 11.309 20.9954 11.5212L20.9677 11.5351C20.2478 11.8654 19.4541 12.0245 18.655 11.9985C17.8559 12.0245 17.0623 11.8655 16.3425 11.5351L16.3147 11.5212C15.8063 11.309 15.3645 10.9753 15.0323 10.5528C14.8854 10.3795 14.796 10.1686 14.7755 9.94688C14.755 9.72522 14.8044 9.50278 14.9172 9.30775C14.9438 9.27548 14.9779 9.24945 15.0168 9.23169C15.0558 9.21394 15.0984 9.20494 15.1415 9.20537C15.2729 9.21471 15.3978 9.26313 15.4986 9.34372C15.7196 9.51046 15.9497 9.66607 16.1879 9.80993C16.663 10.1008 17.1931 10.3014 17.7487 10.4007C18.048 10.4454 18.3506 10.4672 18.6536 10.4657C18.9566 10.4672 19.2592 10.4454 19.5585 10.4007C20.1141 10.3014 20.6441 10.1008 21.1193 9.80993C21.357 9.66611 21.5867 9.5105 21.8071 9.34372C21.9079 9.26321 22.0328 9.2148 22.1642 9.20537M22.1642 8.62294C21.8975 8.63254 21.6416 8.72488 21.4355 8.88579C21.2318 9.04005 21.0197 9.18412 20.8001 9.31742C20.3921 9.56812 19.9368 9.74148 19.4594 9.82791C19.1938 9.86723 18.9252 9.88619 18.6564 9.88463C18.3876 9.88615 18.1192 9.86718 17.8536 9.82791C17.3767 9.74134 16.9218 9.56799 16.5143 9.31742C16.2948 9.18412 16.0826 9.04005 15.8789 8.88579C15.6728 8.72488 15.4169 8.63254 15.1503 8.62294C15.0169 8.6223 14.8852 8.65006 14.7646 8.70417C14.6441 8.75828 14.5379 8.83736 14.4538 8.93559C14.2514 9.22501 14.1491 9.56721 14.1614 9.91442C14.1737 10.2616 14.2999 10.5965 14.5223 10.8724C14.9113 11.3827 15.4357 11.7861 16.0422 12.0414L16.0641 12.0525C16.8718 12.4275 17.7636 12.6099 18.6623 12.5837C19.5566 12.6103 20.4444 12.4298 21.2489 12.058L21.2854 12.04C21.8913 11.785 22.4152 11.3821 22.8038 10.8724C23.0265 10.5967 23.1528 10.2618 23.1653 9.91463C23.1778 9.56742 23.076 9.22515 22.8738 8.93559C22.7894 8.83725 22.6829 8.75813 22.5621 8.70402C22.4413 8.64991 22.3093 8.6222 22.1757 8.62294H22.1642Z" fill="#231F20"/>
</svg>
