<svg width="100" height="113" viewBox="0 0 100 113" fill="none" xmlns="http://www.w3.org/2000/svg">
<g clip-path="url(#clip0_7899_101846)">
<path d="M56.6907 87.0684C80.6098 87.0684 100 67.5775 100 43.5342C100 19.4909 80.6098 0 56.6907 0C32.7716 0 13.3813 19.4909 13.3813 43.5342C13.3813 67.5775 32.7716 87.0684 56.6907 87.0684Z" fill="#F2F2F2"/>
<path d="M84.9928 19.4689H5.65602C5.4859 19.4652 5.35093 19.3236 5.35456 19.1526C5.35809 18.9868 5.49102 18.8532 5.65602 18.8496H84.9928C85.1629 18.8533 85.2979 18.9949 85.2942 19.1659C85.2907 19.3317 85.1578 19.4653 84.9928 19.4689Z" fill="#CACACA"/>
<path d="M57.9548 29.9033H36.023C34.3757 29.9033 33.0403 31.2457 33.0403 32.9016V32.9016C33.0403 34.5574 34.3757 35.8998 36.023 35.8998H57.9548C59.6021 35.8998 60.9375 34.5574 60.9375 32.9016C60.9375 31.2457 59.6021 29.9033 57.9548 29.9033Z" fill="white"/>
<path d="M21.8551 41.8965H72.123C73.7703 41.8965 75.1057 43.2388 75.1057 44.8947C75.1057 46.5506 73.7703 47.893 72.123 47.893H21.8551C20.2077 47.893 18.8723 46.5506 18.8723 44.8947C18.8723 43.2388 20.2077 41.8965 21.8551 41.8965Z" fill="white"/>
<path d="M21.8551 53.8896H72.123C73.7703 53.8896 75.1057 55.232 75.1057 56.8879C75.1057 58.5438 73.7703 59.8861 72.123 59.8861H21.8551C20.2077 59.8861 18.8723 58.5438 18.8723 56.8879C18.8723 55.232 20.2077 53.8896 21.8551 53.8896Z" fill="white"/>
<path d="M15.6256 112.736L15.5073 112.725C11.4934 112.308 7.86481 110.139 5.58559 106.791C4.96129 105.859 4.45631 104.851 4.08255 103.791L4.04663 103.69L4.15299 103.682C5.42277 103.579 6.72722 103.362 7.3067 103.259L3.57003 101.987L3.54693 101.875C3.32539 100.829 3.75941 99.7525 4.64305 99.1565C5.52908 98.5319 6.70405 98.5119 7.6106 99.106C8.01743 99.3672 8.44296 99.6259 8.85445 99.8762C10.2685 100.736 11.7307 101.625 12.827 102.842C14.4894 104.723 15.2181 107.258 14.81 109.741L15.6256 112.736Z" fill="#F2F2F2"/>
<path d="M29.2083 110.868L31.0498 110.868L31.926 103.728L29.2078 103.728L29.2083 110.868Z" fill="#A0616A"/>
<path d="M29.1434 112.799L34.8068 112.799V112.727C34.8067 111.504 33.8198 110.512 32.6024 110.512L31.5678 109.723L29.6377 110.512L29.1433 110.512L29.1434 112.799Z" fill="#2F2E41"/>
<path d="M14.4492 105.741L15.9222 106.852L20.8863 101.669L18.7119 100.029L14.4492 105.741Z" fill="#A0616A"/>
<path d="M13.2441 107.247L17.7744 110.663L17.8174 110.606C18.5479 109.627 18.3507 108.238 17.377 107.504L17.0204 106.248L15.0054 105.715L14.61 105.417L13.2441 107.247Z" fill="#2F2E41"/>
<path d="M20.5711 77.3594C20.5711 77.3594 20.6728 80.147 20.801 82.3825C20.822 82.7492 19.9675 83.1474 19.9897 83.5463C20.0043 83.8109 20.165 84.0682 20.1799 84.3441C20.1956 84.6353 19.9739 84.893 19.9897 85.1942C20.0051 85.4884 20.2581 85.8258 20.2733 86.127C20.4376 89.3679 21.0329 93.2478 20.4368 94.3324C20.143 94.8669 16.3982 102.272 16.3982 102.272C16.3982 102.272 18.4847 105.418 19.0808 104.369C19.8682 102.984 25.9363 96.5046 25.9363 95.2672C25.9363 94.0313 27.3402 84.7687 27.3402 84.7687L28.3191 90.2502L28.7679 91.3362L28.6269 91.9738L28.917 92.8343L28.9326 93.6859L29.215 95.2672C29.215 95.2672 28.3656 107.587 28.8439 107.93C29.3238 108.275 31.6473 108.894 31.9215 108.275C32.1942 107.656 33.9694 95.417 33.9694 95.417C33.9694 95.417 34.2556 89.8082 34.5656 84.5949C34.5834 84.2923 34.7951 83.9268 34.8115 83.6287C34.8308 83.2826 34.6967 82.8332 34.7146 82.4976C34.734 82.1126 34.9039 81.8415 34.9203 81.473C35.0469 78.6251 34.3358 75.1572 34.1093 74.8157C33.4252 73.785 32.8097 72.961 32.8097 72.961C32.8097 72.961 23.5961 69.9181 21.1341 73.0101L20.5711 77.3594Z" fill="#2F2E41"/>
<path d="M29.7604 48.6942L26.1079 47.96L24.4035 50.2852C21.223 53.4287 21.1751 56.203 21.7429 60.6501V66.8915L21.3319 71.0756C21.3319 71.0756 19.8772 74.1341 21.3776 74.8462C22.878 75.5584 32.7333 75.4977 33.6742 75.2134C34.6152 74.9291 33.7996 74.5801 33.5525 73.2553C33.0883 70.7668 33.3988 71.9672 33.4307 71.1748C33.8887 59.809 32.822 55.1429 32.7137 53.9165L30.8562 50.53L29.7604 48.6942Z" fill="#3F3D56"/>
<path d="M49.0111 57.8577C48.6304 58.5827 47.7372 58.8602 47.0159 58.4776C46.939 58.4368 46.8658 58.3893 46.7973 58.3355L38.9094 63.3699L38.9322 60.6289L46.5946 56.1592C47.1404 55.5441 48.0789 55.4902 48.6908 56.0388C49.2029 56.4979 49.3353 57.2498 49.0111 57.8577Z" fill="#A0616A"/>
<path d="M26.8765 51.8682L25.9785 51.7725C25.1488 51.686 24.3347 52.0432 23.8336 52.7137C23.6417 52.9679 23.5039 53.2591 23.4287 53.5692L23.4281 53.5717C23.2029 54.505 23.5562 55.4831 24.3247 56.0537L27.4263 58.3522C29.6029 61.3086 33.6936 63.27 38.492 64.8635L45.9506 60.2073L43.3125 56.9956L38.1966 59.7516L30.5922 53.8344L30.5878 53.8309L27.6936 51.9565L26.8765 51.8682Z" fill="#3F3D56"/>
<path d="M28.5261 46.8909C30.8785 46.8909 32.7854 44.9741 32.7854 42.6095C32.7854 40.245 30.8785 38.3281 28.5261 38.3281C26.1738 38.3281 24.2668 40.245 24.2668 42.6095C24.2668 44.9741 26.1738 46.8909 28.5261 46.8909Z" fill="#A0616A"/>
<path d="M28.6244 46.8916C28.5901 46.8927 28.5557 46.8935 28.5213 46.8944C28.5066 46.9328 28.4907 46.9709 28.4724 47.0082L28.6244 46.8916Z" fill="#2F2E41"/>
<path d="M29.7935 42.7285C29.8001 42.7707 29.8104 42.8122 29.824 42.8527C29.8184 42.8103 29.8081 42.7687 29.7935 42.7285Z" fill="#2F2E41"/>
<path d="M32.8398 38.5114C32.6645 39.0586 32.5081 38.3645 31.9313 38.4893C31.2376 38.6395 30.4302 38.5879 29.8621 38.1605C29.0155 37.5361 27.9185 37.3681 26.9253 37.7105C25.9532 38.0563 24.3245 38.3 24.0712 39.3048C23.9831 39.6541 23.9481 40.0331 23.7347 40.3226C23.5481 40.5757 23.2536 40.72 23.0073 40.9148C22.1757 41.5725 22.8113 43.4411 23.2049 44.4284C23.5985 45.4158 24.5014 46.135 25.494 46.5035C26.4545 46.8599 27.4969 46.9228 28.5215 46.8948C28.6997 46.4302 28.6227 45.8936 28.4756 45.412C28.3165 44.8906 28.0808 44.3874 28.0143 43.8461C27.9477 43.3049 28.0938 42.69 28.5453 42.3876C28.9603 42.1096 29.6356 42.279 29.7935 42.7284C29.7014 42.1665 30.2677 41.6228 30.8516 41.5271C31.4784 41.4245 32.1053 41.652 32.7304 41.7652C33.3554 41.8784 33.1336 39.2332 32.8398 38.5114Z" fill="#2F2E41"/>
<path d="M56.661 49.692C57.0581 44.8695 53.4908 40.6366 48.6932 40.2375C43.8957 39.8384 39.6846 43.4242 39.2875 48.2467C38.8905 53.0691 42.4578 57.3021 47.2553 57.7012C52.0529 58.1003 56.264 54.5145 56.661 49.692Z" fill="#6C63FF"/>
<path d="M50.2639 45.3185L47.9743 47.62L45.6846 45.3185C45.314 44.9459 44.7131 44.9459 44.3424 45.3185C43.9718 45.6911 43.9718 46.2951 44.3424 46.6677L46.6321 48.9692L44.3424 51.2707C43.9721 51.6436 43.9727 52.2477 44.3437 52.6199C44.7142 52.9916 45.3141 52.9916 45.6846 52.6199L47.9743 50.3184L50.2639 52.6199C50.6349 52.9921 51.2358 52.9916 51.6061 52.6186C51.9759 52.2462 51.9759 51.6432 51.6061 51.2707L49.3165 48.9692L51.6061 46.6677C51.9768 46.2951 51.9768 45.6911 51.6061 45.3185C51.2355 44.9459 50.6346 44.9459 50.2639 45.3185Z" fill="white"/>
<path d="M44.5393 41.6047C44.7963 42.3827 44.3771 43.2228 43.6031 43.4811C43.5205 43.5086 43.4358 43.5288 43.3497 43.5413L41.503 52.7481L39.551 50.834L41.647 42.1816C41.5833 41.3599 42.1944 40.6418 43.0119 40.5778C43.6959 40.5242 44.3274 40.9487 44.5393 41.6047Z" fill="#A0616A"/>
<path d="M24.9158 53.5137L24.2254 54.0989C23.5889 54.6409 23.2817 55.4787 23.4161 56.3063C23.4658 56.6215 23.5794 56.9231 23.7499 57.1923L23.7513 57.1944C24.2654 58.0039 25.2121 58.4248 26.1538 58.2624L29.9511 57.6039C33.5804 58.0718 37.8204 56.4625 42.2863 54.0851L44.1073 45.4515L39.9753 45.1416L38.4121 50.7604L28.8997 52.1798L28.8941 52.1805L25.5448 52.9822L24.9158 53.5137Z" fill="#3F3D56"/>
<path d="M46.5382 112.947L0.202367 113C0.0902414 113 -0.000362097 112.908 1.08806e-06 112.795C0.000360863 112.683 0.0907512 112.592 0.202367 112.592L46.5382 112.539C46.6504 112.539 46.741 112.631 46.7406 112.744C46.7403 112.856 46.6499 112.947 46.5382 112.947Z" fill="#CACACA"/>
<path d="M9.68094 15.5464C10.4773 15.5464 11.1229 14.8831 11.1229 14.0647C11.1229 13.2464 10.4773 12.583 9.68094 12.583C8.88459 12.583 8.23901 13.2464 8.23901 14.0647C8.23901 14.8831 8.88459 15.5464 9.68094 15.5464Z" fill="#3F3D56"/>
<path d="M14.6621 15.5464C15.4585 15.5464 16.1041 14.8831 16.1041 14.0647C16.1041 13.2464 15.4585 12.583 14.6621 12.583C13.8658 12.583 13.2202 13.2464 13.2202 14.0647C13.2202 14.8831 13.8658 15.5464 14.6621 15.5464Z" fill="#3F3D56"/>
<path d="M19.6433 15.5464C20.4397 15.5464 21.0853 14.8831 21.0853 14.0647C21.0853 13.2464 20.4397 12.583 19.6433 12.583C18.847 12.583 18.2014 13.2464 18.2014 14.0647C18.2014 14.8831 18.847 15.5464 19.6433 15.5464Z" fill="#3F3D56"/>
<path d="M25.3234 15.2357C25.2791 15.2357 25.2349 15.2184 25.2015 15.1841L24.2286 14.1844C24.1637 14.1178 24.1637 14.0113 24.2286 13.9447L25.2015 12.945C25.2675 12.8774 25.3756 12.8763 25.4426 12.9423C25.51 13.0085 25.5111 13.1171 25.4453 13.1847L24.589 14.0645L25.4453 14.9444C25.5111 15.0121 25.51 15.1206 25.4426 15.1868C25.4095 15.2194 25.3664 15.2357 25.3234 15.2357Z" fill="#3F3D56"/>
<path d="M26.9581 15.2358C26.9151 15.2358 26.872 15.2196 26.8389 15.1869C26.7715 15.1207 26.7704 15.0123 26.8362 14.9446L27.6924 14.0647L26.8362 13.1848C26.7704 13.1172 26.7715 13.0087 26.8389 12.9425C26.9061 12.8762 27.0141 12.8774 27.08 12.9451L28.0529 13.9448C28.1177 14.0114 28.1177 14.1179 28.0529 14.1845L27.08 15.1842C27.0466 15.2186 27.0024 15.2358 26.9581 15.2358Z" fill="#3F3D56"/>
<path d="M77.8568 12.7549H76.0477C75.8414 12.7549 75.6743 12.9228 75.6743 13.1302V14.9504C75.6743 15.1578 75.8414 15.3258 76.0477 15.3258H77.8568C78.0632 15.3258 78.232 15.1578 78.232 14.9504V13.1302C78.232 12.9228 78.0632 12.7549 77.8568 12.7549Z" fill="#3F3D56"/>
<path d="M73.4237 12.7549H71.6146C71.4083 12.7549 71.2412 12.9228 71.2412 13.1302V14.9504C71.2412 15.1578 71.4083 15.3258 71.6146 15.3258H73.4237C73.63 15.3258 73.7988 15.1578 73.7988 14.9504V13.1302C73.7988 12.9228 73.63 12.7549 73.4237 12.7549Z" fill="#3F3D56"/>
<path d="M82.0343 12.8398H80.2252C80.0189 12.8398 79.8518 13.0078 79.8518 13.2152V15.0354C79.8518 15.2428 80.0189 15.4108 80.2252 15.4108H82.0343C82.2406 15.4108 82.4094 15.2428 82.4094 15.0354V13.2152C82.4094 13.0078 82.2406 12.8398 82.0343 12.8398Z" fill="#3F3D56"/>
<path d="M54.7663 13.5322H40.3054C40.053 13.5322 39.8501 13.7379 39.8501 13.9899C39.8501 14.2418 40.053 14.4475 40.3054 14.4475H54.7663C55.0169 14.4475 55.2215 14.2418 55.2215 13.9899C55.2215 13.7379 55.0169 13.5322 54.7663 13.5322Z" fill="#3F3D56"/>
</g>
<defs>
<clipPath id="clip0_7899_101846">
<rect width="100" height="113" fill="white"/>
</clipPath>
</defs>
</svg>
