<svg width="179" height="96" viewBox="0 0 179 96" fill="none" xmlns="http://www.w3.org/2000/svg">
<path d="M17.1051 90.2957C12.1425 87.0616 8.5343 81.2483 9.27277 75.3712C13.7413 80.0108 19.7068 82.9202 26.1139 83.5847C28.5858 83.8321 31.3608 83.8498 33.1163 85.6076C34.2085 86.7014 34.6726 88.3 34.6965 89.8455C34.7203 91.3911 34.349 92.9123 33.98 94.4134L34.0707 94.7885C28.1514 94.5697 22.0677 93.5297 17.1051 90.2957Z" fill="#CED1ED"/>
<path d="M9.3976 75.37C11.254 79.9078 14.493 83.7454 18.6545 86.3376C19.5405 86.9115 20.5114 87.3422 21.5315 87.6138C22.5338 87.8463 23.58 87.8061 24.5615 87.4975C25.4824 87.2281 26.3932 86.8459 27.3636 86.8051C27.8606 86.7916 28.3548 86.8833 28.8139 87.0742C29.273 87.2651 29.6866 87.5509 30.0275 87.9128C30.9004 88.7925 31.4051 89.9334 31.8599 91.0663C32.3649 92.3242 32.8694 93.6387 33.8979 94.5703C34.0225 94.6832 33.84 94.8699 33.7156 94.7572C31.9263 93.1363 31.7294 90.5358 30.3229 88.6554C29.6666 87.7779 28.7419 87.0929 27.6115 87.064C26.623 87.0386 25.6834 87.432 24.7533 87.7128C23.8002 88.0279 22.7845 88.1048 21.7949 87.9369C20.7642 87.7181 19.7783 87.3255 18.8794 86.776C16.8359 85.571 14.9946 84.0522 13.4229 82.2753C11.6178 80.2572 10.1713 77.9452 9.14588 75.4394C9.08248 75.2843 9.33461 75.2159 9.3976 75.37Z" fill="white"/>
<path d="M17.2652 85.5818C16.7356 86.2209 15.9959 86.651 15.1784 86.7952C14.3609 86.9394 13.5187 86.7882 12.8023 86.3688C12.6577 86.2834 12.7835 86.0546 12.9284 86.1401C13.5947 86.5319 14.3792 86.6726 15.1402 86.5368C15.9012 86.401 16.5886 85.9976 17.0783 85.3995C17.1849 85.2697 17.3712 85.4527 17.2652 85.5818Z" fill="white"/>
<path d="M24.1119 87.6955C23.9688 86.0046 23.1936 84.4298 21.9409 83.285C21.8167 83.1717 21.9991 82.9849 22.1232 83.0981C23.4245 84.2918 24.2279 85.9323 24.373 87.6923C24.3867 87.86 24.1256 87.8624 24.1119 87.6955Z" fill="white"/>
<path d="M11.946 80.148C12.2025 79.9433 12.4041 79.6782 12.5328 79.3764C12.6615 79.0747 12.7133 78.7456 12.6834 78.4189C12.6676 78.2514 12.9287 78.2492 12.9444 78.4156C12.9758 78.7767 12.9182 79.14 12.7767 79.4738C12.6353 79.8075 12.4142 80.1016 12.1329 80.3302C12.1082 80.354 12.0754 80.3674 12.0411 80.3679C12.0068 80.3683 11.9736 80.3557 11.9483 80.3325C11.9237 80.3083 11.9096 80.2753 11.9092 80.2407C11.9088 80.2062 11.922 80.1728 11.946 80.148Z" fill="white"/>
<path d="M26.2006 64.6163C26.2135 64.7206 26.2264 64.8249 26.2412 64.9303C26.4213 66.3318 26.715 67.7163 27.1194 69.0702C27.149 69.1754 27.1806 69.2815 27.2131 69.3856C28.2221 72.6371 29.826 75.6729 31.9433 78.3389C32.7868 79.399 33.7097 80.3934 34.704 81.3134C36.0773 82.584 37.6674 83.8523 38.5158 85.4551C38.6062 85.6214 38.6862 85.793 38.7553 85.9692L34.5215 94.6488C34.5019 94.6637 34.4843 94.6796 34.4648 94.6946L34.3116 95.0489C34.257 95.0051 34.2013 94.9584 34.1467 94.9145C34.1149 94.8892 34.0841 94.8619 34.0523 94.8366C34.0314 94.8191 34.0106 94.8016 33.9907 94.787C33.9838 94.7812 33.9768 94.7753 33.9718 94.7704C33.952 94.7558 33.9351 94.7402 33.9172 94.7266C33.6053 94.4665 33.2946 94.2039 32.9852 93.9386C32.9832 93.9376 32.9832 93.9376 32.9822 93.9347C30.6298 91.9071 28.4261 89.6653 26.6327 87.1602C26.5788 87.0848 26.5228 87.0086 26.4708 86.9292C25.6687 85.7956 24.9606 84.5983 24.3535 83.3493C24.0233 82.6643 23.728 81.9631 23.4687 81.2482C22.8023 79.3999 22.4308 77.4582 22.3677 75.4944C22.2426 71.5796 23.3709 67.6683 25.9978 64.8311C26.0651 64.7586 26.1314 64.6879 26.2006 64.6163Z" fill="#CED1ED"/>
<path d="M26.3019 64.6896C25.052 69.4304 25.3277 74.4446 27.0898 79.0199C27.4517 80.0115 27.9676 80.94 28.6185 81.771C29.2788 82.5601 30.1384 83.1579 31.1078 83.5024C32.0053 83.8418 32.9626 84.085 33.762 84.6366C34.167 84.9251 34.5064 85.2959 34.758 85.7247C35.0097 86.1535 35.1678 86.6307 35.2221 87.1249C35.3894 88.3529 35.1055 89.5677 34.7865 90.7461C34.4324 92.0544 34.0439 93.4077 34.3041 94.7708C34.3356 94.9359 34.0775 94.9752 34.046 94.8103C33.5933 92.4388 35.0017 90.2439 35.0109 87.8957C35.0152 86.8 34.6893 85.6963 33.8041 84.9926C33.03 84.3772 32.043 84.1255 31.1314 83.7898C30.1807 83.4676 29.3234 82.9175 28.6343 82.1875C27.9431 81.3923 27.3923 80.4853 27.0054 79.5053C26.0993 77.3129 25.5435 74.9916 25.3584 72.6265C25.1322 69.9285 25.3692 67.2116 26.0591 64.5934C26.1019 64.4314 26.3444 64.5286 26.3019 64.6896Z" fill="white"/>
<path d="M26.4348 77.58C25.6271 77.7714 24.7776 77.6695 24.038 77.2924C23.2985 76.9153 22.717 76.2876 22.3976 75.5214C22.3335 75.3662 22.5717 75.2593 22.6359 75.4147C22.9321 76.1288 23.4737 76.7134 24.1631 77.0632C24.8525 77.4129 25.6442 77.5047 26.3953 77.322C26.5586 77.2824 26.5972 77.5407 26.4348 77.58Z" fill="white"/>
<path d="M30.6292 83.3903C31.533 81.954 31.8622 80.2298 31.5512 78.5616C31.5203 78.3964 31.7784 78.357 31.8093 78.5221C32.1296 80.2587 31.7834 82.0522 30.8396 83.5448C30.7496 83.687 30.5396 83.5317 30.6292 83.3903Z" fill="white"/>
<path d="M25.4593 70.039C25.7873 70.03 26.1079 69.9398 26.3924 69.7763C26.6769 69.6128 26.9163 69.3812 27.0891 69.1024C27.1773 68.9591 27.3872 69.1146 27.2995 69.2569C27.1071 69.5641 26.8424 69.8195 26.5285 70.0009C26.2146 70.1822 25.8611 70.2839 25.4988 70.297C25.4648 70.3011 25.4305 70.2921 25.4028 70.2718C25.3752 70.2515 25.3563 70.2215 25.35 70.1878C25.345 70.1536 25.3536 70.1188 25.3741 70.0909C25.3945 70.063 25.4252 70.0444 25.4593 70.039Z" fill="white"/>
<path d="M168.55 90.2957C173.513 87.0616 177.121 81.2483 176.383 75.3712C171.914 80.0108 165.949 82.9202 159.542 83.5847C157.07 83.8321 154.295 83.8498 152.539 85.6076C151.447 86.7014 150.983 88.3 150.959 89.8455C150.935 91.3911 151.307 92.9123 151.676 94.4134L151.585 94.7885C157.504 94.5697 163.588 93.5297 168.55 90.2957Z" fill="#CED1ED"/>
<path d="M176.259 75.37C174.402 79.9078 171.163 83.7454 167.002 86.3376C166.116 86.9115 165.145 87.3422 164.125 87.6138C163.123 87.8463 162.076 87.8061 161.095 87.4975C160.174 87.2281 159.263 86.8459 158.293 86.8051C157.796 86.7916 157.302 86.8833 156.842 87.0742C156.383 87.2651 155.97 87.5509 155.629 87.9128C154.756 88.7925 154.251 89.9334 153.796 91.0663C153.292 92.3242 152.787 93.6387 151.759 94.5703C151.634 94.6832 151.816 94.8699 151.941 94.7572C153.73 93.1363 153.927 90.5358 155.333 88.6554C155.99 87.7779 156.914 87.0929 158.045 87.064C159.033 87.0386 159.973 87.432 160.903 87.7128C161.856 88.0279 162.872 88.1048 163.862 87.9369C164.892 87.7181 165.878 87.3255 166.777 86.776C168.82 85.571 170.662 84.0522 172.234 82.2753C174.039 80.2572 175.485 77.9452 176.51 75.4394C176.574 75.2843 176.322 75.2159 176.259 75.37Z" fill="white"/>
<path d="M168.391 85.5818C168.921 86.2209 169.66 86.651 170.478 86.7952C171.295 86.9394 172.137 86.7882 172.854 86.3688C172.998 86.2834 172.873 86.0546 172.728 86.1401C172.061 86.5319 171.277 86.6726 170.516 86.5368C169.755 86.401 169.068 85.9976 168.578 85.3995C168.471 85.2697 168.285 85.4527 168.391 85.5818Z" fill="white"/>
<path d="M161.544 87.6955C161.687 86.0046 162.462 84.4298 163.715 83.285C163.839 83.1717 163.657 82.9849 163.533 83.0981C162.231 84.2918 161.428 85.9323 161.283 87.6923C161.269 87.86 161.53 87.8624 161.544 87.6955Z" fill="white"/>
<path d="M173.71 80.148C173.453 79.9433 173.252 79.6782 173.123 79.3764C172.994 79.0747 172.943 78.7456 172.972 78.4189C172.988 78.2514 172.727 78.2492 172.711 78.4156C172.68 78.7767 172.738 79.14 172.879 79.4738C173.021 79.8075 173.242 80.1016 173.523 80.3302C173.548 80.354 173.581 80.3674 173.615 80.3679C173.649 80.3683 173.682 80.3557 173.708 80.3325C173.732 80.3083 173.746 80.2753 173.747 80.2407C173.747 80.2062 173.734 80.1728 173.71 80.148Z" fill="white"/>
<path d="M159.455 64.6163C159.442 64.7206 159.429 64.8249 159.415 64.9303C159.234 66.3318 158.941 67.7163 158.536 69.0702C158.507 69.1754 158.475 69.2815 158.443 69.3856C157.434 72.6371 155.83 75.6729 153.712 78.3389C152.869 79.399 151.946 80.3933 150.952 81.3134C149.578 82.584 147.988 83.8523 147.14 85.4551C147.05 85.6214 146.97 85.793 146.9 85.9692L151.134 94.6488C151.154 94.6637 151.171 94.6796 151.191 94.6946L151.344 95.0489C151.399 95.005 151.454 94.9584 151.509 94.9145C151.541 94.8892 151.572 94.8619 151.603 94.8366C151.624 94.8191 151.645 94.8015 151.665 94.7869C151.672 94.7812 151.679 94.7753 151.684 94.7704C151.704 94.7558 151.721 94.7402 151.739 94.7266C152.05 94.4665 152.361 94.2039 152.671 93.9385C152.673 93.9376 152.673 93.9376 152.674 93.9347C155.026 91.907 157.23 89.6652 159.023 87.1602C159.077 87.0848 159.133 87.0086 159.185 86.9292C159.987 85.7956 160.695 84.5983 161.302 83.3493C161.632 82.6643 161.928 81.963 162.187 81.2482C162.853 79.3999 163.225 77.4582 163.288 75.4944C163.413 71.5796 162.285 67.6683 159.658 64.8311C159.591 64.7586 159.524 64.6879 159.455 64.6163Z" fill="#CED1ED"/>
<path d="M159.355 64.6896C160.604 69.4304 160.329 74.4446 158.567 79.0199C158.205 80.0115 157.689 80.94 157.038 81.771C156.378 82.5601 155.518 83.1579 154.549 83.5024C153.651 83.8418 152.694 84.085 151.894 84.6366C151.489 84.9251 151.15 85.2959 150.898 85.7247C150.647 86.1535 150.489 86.6307 150.434 87.1249C150.267 88.3529 150.551 89.5677 150.87 90.7461C151.224 92.0544 151.613 93.4077 151.352 94.7708C151.321 94.9359 151.579 94.9752 151.61 94.8103C152.063 92.4388 150.655 90.2439 150.646 87.8957C150.641 86.8 150.967 85.6963 151.852 84.9926C152.626 84.3772 153.613 84.1255 154.525 83.7898C155.476 83.4676 156.333 82.9175 157.022 82.1875C157.713 81.3923 158.264 80.4853 158.651 79.5053C159.557 77.3129 160.113 74.9916 160.298 72.6265C160.524 69.9285 160.287 67.2116 159.597 64.5934C159.555 64.4314 159.312 64.5286 159.355 64.6896Z" fill="white"/>
<path d="M159.221 77.58C160.029 77.7714 160.879 77.6695 161.618 77.2924C162.358 76.9153 162.939 76.2876 163.259 75.5214C163.323 75.3662 163.084 75.2593 163.02 75.4147C162.724 76.1288 162.182 76.7134 161.493 77.0632C160.804 77.4129 160.012 77.5047 159.261 77.322C159.098 77.2824 159.059 77.5407 159.221 77.58Z" fill="white"/>
<path d="M155.027 83.3903C154.123 81.954 153.794 80.2298 154.105 78.5616C154.136 78.3964 153.878 78.357 153.847 78.5221C153.527 80.2587 153.873 82.0522 154.817 83.5448C154.907 83.687 155.117 83.5317 155.027 83.3903Z" fill="white"/>
<path d="M160.196 70.039C159.868 70.03 159.548 69.9398 159.263 69.7763C158.979 69.6128 158.739 69.3812 158.566 69.1024C158.478 68.9591 158.268 69.1146 158.356 69.2569C158.548 69.5641 158.813 69.8195 159.127 70.0009C159.441 70.1822 159.794 70.2839 160.157 70.297C160.191 70.3011 160.225 70.2921 160.253 70.2718C160.28 70.2515 160.299 70.2215 160.305 70.1878C160.31 70.1536 160.302 70.1188 160.281 70.0909C160.261 70.063 160.23 70.0444 160.196 70.039Z" fill="white"/>
<path d="M26.8802 61.7759C26.6924 61.6629 26.5317 61.5101 26.4094 61.3283C26.2871 61.1465 26.2061 60.9401 26.1722 60.7236C26.1383 60.5071 26.1523 60.2858 26.2131 60.0752C26.274 59.8647 26.3803 59.6701 26.5245 59.5051L23.8848 54.8783L26.6471 55.0568L28.7304 59.4231C28.9915 59.6838 29.148 60.0312 29.1701 60.3995C29.1922 60.7677 29.0784 61.1313 28.8503 61.4214C28.6223 61.7114 28.2957 61.9077 27.9326 61.973C27.5695 62.0384 27.195 61.9682 26.8802 61.7759Z" fill="#FFB6B6"/>
<path d="M6.55882 93.3173H8.38648L9.25591 86.2682L6.55859 86.2684L6.55882 93.3173Z" fill="#FFB6B6"/>
<path d="M6.09277 92.7207L9.69183 92.7206C10.3001 92.7206 10.8836 92.9623 11.3138 93.3924C11.7439 93.8225 11.9855 94.4059 11.9856 95.0142V95.0887L6.09287 95.0889L6.09277 92.7207Z" fill="#2F2E41"/>
<path d="M19.0805 93.3173H20.908L21.7774 86.2682L19.0801 86.2684L19.0805 93.3173Z" fill="#FFB6B6"/>
<path d="M18.6143 92.7207L22.2133 92.7206C22.8216 92.7206 23.4051 92.9623 23.8352 93.3924C24.2654 93.8225 24.507 94.4059 24.5071 95.0142V95.0887L18.6144 95.0889L18.6143 92.7207Z" fill="#2F2E41"/>
<path d="M23.7792 55.0772C23.7792 55.0772 24.2819 62.2355 23.2918 65.8407C22.3018 69.4458 22.125 91.2477 22.125 91.2477H18.8066L15.9303 61.5707L9.29954 91.3523L6.13867 91.135L7.87214 56.0414L23.7792 55.0772Z" fill="#7278AD"/>
<path d="M9.24339 30.9466L11.7803 29.0954L16.0312 30.021L17.182 32.7552L19.1648 33.7383C19.8167 34.0615 20.3805 34.5383 20.8075 35.1275C21.2345 35.7167 21.5121 36.4008 21.6164 37.121L24.4491 56.6822L7.87208 56.0414L5.86521 33.0042C5.84425 32.7636 5.87177 32.5212 5.94616 32.2914C6.02054 32.0615 6.14026 31.849 6.29825 31.6663C6.45624 31.4835 6.64929 31.3344 6.86595 31.2276C7.08262 31.1208 7.3185 31.0585 7.55965 31.0445L9.24339 30.9466Z" fill="#888FD1"/>
<path d="M20.2139 35.2663L21.745 37.3302L28.4136 57.6696L25.2877 58.9211L20.2824 49.4435L20.2139 35.2663Z" fill="#7278AD"/>
<path d="M14.6644 28.1289C16.7093 28.1289 18.3669 26.4712 18.3669 24.4264C18.3669 22.3815 16.7093 20.7239 14.6644 20.7239C12.6196 20.7239 10.9619 22.3815 10.9619 24.4264C10.9619 26.4712 12.6196 28.1289 14.6644 28.1289Z" fill="#FFB9B9"/>
<path opacity="0.1" d="M6.59277 39.6593L12.6348 48.0628L19.3884 52.4669L6.59277 39.6593Z" fill="black"/>
<path d="M12.7015 27.103C12.4439 26.5888 12.179 26.0291 12.2774 25.4625C12.3759 24.8959 13.0261 24.4022 13.5279 24.6831C13.7361 23.9307 14.6578 23.6014 15.4336 23.6882C16.2095 23.7751 16.9239 24.1493 17.6879 24.31C18.4519 24.4707 19.3797 24.3432 19.7926 23.6806L18.8046 23.6635L19.8335 22.4702L18.6409 22.381C19.0539 21.9352 18.9442 21.1777 18.5443 20.7201C18.1444 20.2624 17.5375 20.0458 16.9454 19.9089C15.7633 19.6364 14.538 19.6082 13.3446 19.8261C12.7819 19.9129 12.2398 20.1015 11.7448 20.3828C11.2787 20.6671 10.8936 21.0665 10.6264 21.5426C10.3382 22.0798 10.1824 22.678 10.172 23.2876C10.1544 24.104 10.342 24.9118 10.7176 25.6369C11.0932 26.362 11.6448 26.9813 12.3219 27.4379" fill="#2F2E41"/>
<path d="M150.557 95.184H35.6555C34.4723 95.1826 33.3378 94.712 32.5011 93.8753C31.6644 93.0386 31.1937 91.9042 31.1924 90.7209V4.46304C31.1937 3.27977 31.6644 2.14534 32.5011 1.30865C33.3378 0.471961 34.4723 0.00132842 35.6555 0H150.557C151.74 0.00134943 152.874 0.471993 153.711 1.30868C154.548 2.14537 155.018 3.27978 155.02 4.46304V90.7209C155.018 91.9042 154.548 93.0386 153.711 93.8753C152.874 94.712 151.74 95.1826 150.557 95.184Z" fill="#E4E4E4"/>
<path d="M121.639 39.6048H103.902C103.025 39.6048 102.184 39.2566 101.565 38.6368C100.945 38.017 100.597 37.1764 100.597 36.2998C100.597 35.4233 100.945 34.5827 101.565 33.9629C102.184 33.3431 103.025 32.9948 103.902 32.9948H121.639C122.515 32.9948 123.356 33.3431 123.976 33.9629C124.595 34.5827 124.944 35.4233 124.944 36.2998C124.944 37.1764 124.595 38.017 123.976 38.6368C123.356 39.2566 122.515 39.6048 121.639 39.6048Z" fill="white"/>
<path d="M106.105 48.6385H101.919C101.597 48.6385 101.289 48.5108 101.062 48.2836C100.835 48.0563 100.707 47.7481 100.707 47.4267C100.707 47.1053 100.835 46.7971 101.062 46.5698C101.289 46.3425 101.597 46.2149 101.919 46.2149H106.105C106.427 46.2149 106.735 46.3425 106.962 46.5698C107.189 46.7971 107.317 47.1053 107.317 47.4267C107.317 47.7481 107.189 48.0563 106.962 48.2836C106.735 48.5108 106.427 48.6385 106.105 48.6385Z" fill="white"/>
<path d="M123.511 48.6385H119.325C119.004 48.6385 118.695 48.5108 118.468 48.2836C118.241 48.0563 118.113 47.7481 118.113 47.4267C118.113 47.1053 118.241 46.7971 118.468 46.5698C118.695 46.3425 119.004 46.2149 119.325 46.2149H123.511C123.833 46.2149 124.141 46.3425 124.368 46.5698C124.596 46.7971 124.723 47.1053 124.723 47.4267C124.723 47.7481 124.596 48.0563 124.368 48.2836C124.141 48.5108 123.833 48.6385 123.511 48.6385Z" fill="white"/>
<path d="M114.698 48.6385H110.512C110.19 48.6385 109.882 48.5108 109.655 48.2836C109.427 48.0563 109.3 47.7481 109.3 47.4267C109.3 47.1053 109.427 46.7971 109.655 46.5698C109.882 46.3425 110.19 46.2149 110.512 46.2149H114.698C115.019 46.2149 115.328 46.3425 115.555 46.5698C115.782 46.7971 115.91 47.1053 115.91 47.4267C115.91 47.7481 115.782 48.0563 115.555 48.2836C115.328 48.5108 115.019 48.6385 114.698 48.6385Z" fill="white"/>
<path d="M106.105 53.2655H101.919C101.597 53.2655 101.289 53.1379 101.062 52.9106C100.835 52.6833 100.707 52.3751 100.707 52.0537C100.707 51.7323 100.835 51.4241 101.062 51.1968C101.289 50.9695 101.597 50.8419 101.919 50.8419H106.105C106.427 50.8419 106.735 50.9695 106.962 51.1968C107.189 51.4241 107.317 51.7323 107.317 52.0537C107.317 52.3751 107.189 52.6833 106.962 52.9106C106.735 53.1379 106.427 53.2655 106.105 53.2655Z" fill="white"/>
<path d="M123.511 53.2655H119.325C119.004 53.2655 118.695 53.1379 118.468 52.9106C118.241 52.6833 118.113 52.3751 118.113 52.0537C118.113 51.7323 118.241 51.4241 118.468 51.1968C118.695 50.9695 119.004 50.8419 119.325 50.8419H123.511C123.833 50.8419 124.141 50.9695 124.368 51.1968C124.596 51.4241 124.723 51.7323 124.723 52.0537C124.723 52.3751 124.596 52.6833 124.368 52.9106C124.141 53.1379 123.833 53.2655 123.511 53.2655Z" fill="white"/>
<path d="M114.698 53.2655H110.512C110.19 53.2655 109.882 53.1379 109.655 52.9106C109.427 52.6833 109.3 52.3751 109.3 52.0537C109.3 51.7323 109.427 51.4241 109.655 51.1968C109.882 50.9695 110.19 50.8419 110.512 50.8419H114.698C115.019 50.8419 115.328 50.9695 115.555 51.1968C115.782 51.4241 115.91 51.7323 115.91 52.0537C115.91 52.3751 115.782 52.6833 115.555 52.9106C115.328 53.1379 115.019 53.2655 114.698 53.2655Z" fill="white"/>
<path d="M106.105 57.8925H101.919C101.597 57.8925 101.289 57.7649 101.062 57.5376C100.835 57.3103 100.707 57.0021 100.707 56.6807C100.707 56.3593 100.835 56.0511 101.062 55.8238C101.289 55.5965 101.597 55.4689 101.919 55.4689H106.105C106.427 55.4689 106.735 55.5965 106.962 55.8238C107.189 56.0511 107.317 56.3593 107.317 56.6807C107.317 57.0021 107.189 57.3103 106.962 57.5376C106.735 57.7649 106.427 57.8925 106.105 57.8925Z" fill="white"/>
<path d="M123.511 57.8925H119.325C119.004 57.8925 118.695 57.7649 118.468 57.5376C118.241 57.3103 118.113 57.0021 118.113 56.6807C118.113 56.3593 118.241 56.0511 118.468 55.8238C118.695 55.5965 119.004 55.4689 119.325 55.4689H123.511C123.833 55.4689 124.141 55.5965 124.368 55.8238C124.596 56.0511 124.723 56.3593 124.723 56.6807C124.723 57.0021 124.596 57.3103 124.368 57.5376C124.141 57.7649 123.833 57.8925 123.511 57.8925Z" fill="white"/>
<path d="M114.698 57.8925H110.512C110.19 57.8925 109.882 57.7649 109.655 57.5376C109.427 57.3103 109.3 57.0021 109.3 56.6807C109.3 56.3593 109.427 56.0511 109.655 55.8238C109.882 55.5965 110.19 55.4689 110.512 55.4689H114.698C115.019 55.4689 115.328 55.5965 115.555 55.8238C115.782 56.0511 115.91 56.3593 115.91 56.6807C115.91 57.0021 115.782 57.3103 115.555 57.5376C115.328 57.7649 115.019 57.8925 114.698 57.8925Z" fill="white"/>
<path d="M106.105 62.5195H101.919C101.597 62.5195 101.289 62.3919 101.062 62.1646C100.835 61.9373 100.707 61.6291 100.707 61.3077C100.707 60.9863 100.835 60.6781 101.062 60.4508C101.289 60.2235 101.597 60.0959 101.919 60.0959H106.105C106.427 60.0959 106.735 60.2235 106.962 60.4508C107.189 60.6781 107.317 60.9863 107.317 61.3077C107.317 61.6291 107.189 61.9373 106.962 62.1646C106.735 62.3919 106.427 62.5195 106.105 62.5195Z" fill="white"/>
<path d="M123.511 62.5195H119.325C119.004 62.5195 118.695 62.3919 118.468 62.1646C118.241 61.9373 118.113 61.6291 118.113 61.3077C118.113 60.9863 118.241 60.6781 118.468 60.4508C118.695 60.2235 119.004 60.0959 119.325 60.0959H123.511C123.833 60.0959 124.141 60.2235 124.368 60.4508C124.596 60.6781 124.723 60.9863 124.723 61.3077C124.723 61.6291 124.596 61.9373 124.368 62.1646C124.141 62.3919 123.833 62.5195 123.511 62.5195Z" fill="white"/>
<path d="M114.698 62.5195H110.512C110.19 62.5195 109.882 62.3919 109.655 62.1646C109.427 61.9373 109.3 61.6291 109.3 61.3077C109.3 60.9863 109.427 60.6781 109.655 60.4508C109.882 60.2235 110.19 60.0959 110.512 60.0959H114.698C115.019 60.0959 115.328 60.2235 115.555 60.4508C115.782 60.6781 115.91 60.9863 115.91 61.3077C115.91 61.6291 115.782 61.9373 115.555 62.1646C115.328 62.3919 115.019 62.5195 114.698 62.5195Z" fill="white"/>
<path d="M77.7927 57.6722C83.9987 57.6722 89.0297 52.6412 89.0297 46.4352C89.0297 40.2292 83.9987 35.1982 77.7927 35.1982C71.5866 35.1982 66.5557 40.2292 66.5557 46.4352C66.5557 52.6412 71.5866 57.6722 77.7927 57.6722Z" fill="#CACACA"/>
<path d="M77.7923 60.206C76.9161 60.205 76.076 59.8565 75.4564 59.2369C74.8368 58.6173 74.4883 57.7773 74.4873 56.901V35.9694C74.487 35.5351 74.5722 35.1051 74.7381 34.7038C74.904 34.3025 75.1474 33.9378 75.4544 33.6306C75.7613 33.3235 76.1258 33.0798 76.5269 32.9135C76.9281 32.7473 77.358 32.6617 77.7923 32.6617C78.2265 32.6617 78.6565 32.7473 79.0577 32.9135C79.4588 33.0798 79.8233 33.3235 80.1302 33.6306C80.4372 33.9378 80.6805 34.3025 80.8465 34.7038C81.0124 35.1051 81.0976 35.5351 81.0973 35.9694V56.901C81.0963 57.7773 80.7478 58.6173 80.1282 59.2369C79.5086 59.8565 78.6685 60.205 77.7923 60.206Z" fill="white"/>
<path d="M107.148 38.1857H104.064C103.947 38.1857 103.835 38.1393 103.752 38.0566C103.669 37.974 103.623 37.8619 103.623 37.745C103.623 37.6282 103.669 37.5161 103.752 37.4334C103.835 37.3508 103.947 37.3044 104.064 37.3044H107.148C107.265 37.3044 107.377 37.3508 107.46 37.4334C107.543 37.5161 107.589 37.6282 107.589 37.745C107.589 37.8619 107.543 37.974 107.46 38.0566C107.377 38.1393 107.265 38.1857 107.148 38.1857Z" fill="#E4E4E4"/>
<path d="M111.996 38.2959H108.911C108.794 38.2959 108.682 38.2494 108.6 38.1668C108.517 38.0842 108.471 37.9721 108.471 37.8552C108.471 37.7383 108.517 37.6262 108.6 37.5436C108.682 37.461 108.794 37.4145 108.911 37.4145H111.996C112.113 37.4145 112.225 37.461 112.308 37.5436C112.39 37.6262 112.437 37.7383 112.437 37.8552C112.437 37.9721 112.39 38.0842 112.308 38.1668C112.225 38.2494 112.113 38.2959 111.996 38.2959Z" fill="#E4E4E4"/>
<path d="M116.844 38.406H113.759C113.642 38.406 113.53 38.3596 113.447 38.277C113.365 38.1943 113.318 38.0822 113.318 37.9654C113.318 37.8485 113.365 37.7364 113.447 37.6538C113.53 37.5711 113.642 37.5247 113.759 37.5247H116.844C116.961 37.5247 117.073 37.5711 117.155 37.6538C117.238 37.7364 117.284 37.8485 117.284 37.9654C117.284 38.0822 117.238 38.1943 117.155 38.277C117.073 38.3596 116.961 38.406 116.844 38.406Z" fill="#E4E4E4"/>
<path d="M121.69 38.5162H118.606C118.489 38.5162 118.377 38.4698 118.294 38.3871C118.211 38.3045 118.165 38.1924 118.165 38.0755C118.165 37.9587 118.211 37.8466 118.294 37.7639C118.377 37.6813 118.489 37.6349 118.606 37.6349H121.69C121.807 37.6349 121.919 37.6813 122.002 37.7639C122.085 37.8466 122.131 37.9587 122.131 38.0755C122.131 38.1924 122.085 38.3045 122.002 38.3871C121.919 38.4698 121.807 38.5162 121.69 38.5162Z" fill="#E4E4E4"/>
<path d="M45.8434 81.5781C45.8432 82.1237 45.9514 82.664 46.1617 83.1674C46.372 83.6708 46.6802 84.1275 47.0685 84.5108H45.2484C44.7114 84.5108 44.1796 84.405 43.6835 84.1995C43.1874 83.994 42.7366 83.6928 42.3569 83.3131C41.9772 82.9334 41.6759 82.4826 41.4704 81.9865C41.2649 81.4903 41.1592 80.9586 41.1592 80.4216V14.1273C41.1592 13.5903 41.2649 13.0586 41.4704 12.5624C41.6759 12.0663 41.9772 11.6155 42.3569 11.2358C42.7366 10.8561 43.1874 10.5549 43.6835 10.3494C44.1796 10.1439 44.7114 10.0381 45.2484 10.0381H47.897C47.2723 10.4014 46.7539 10.9223 46.3936 11.5486C46.0332 12.175 45.8435 12.8849 45.8434 13.6075L45.8434 81.5781Z" fill="#CACACA"/>
<path d="M178.773 95.6237H0.225919C0.165942 95.6235 0.108481 95.5986 0.0661321 95.5545C0.0237828 95.5103 0 95.4505 0 95.3882C0 95.3258 0.0237828 95.266 0.0661321 95.2219C0.108481 95.1777 0.165942 95.1528 0.225919 95.1526H178.773C178.834 95.1526 178.891 95.1774 178.934 95.2216C178.976 95.2658 179 95.3257 179 95.3882C179 95.4506 178.976 95.5105 178.934 95.5547C178.891 95.5989 178.834 95.6237 178.773 95.6237Z" fill="#CACACA"/>
<path d="M45.4039 29.4098C44.0115 29.0198 42.6138 28.6585 41.211 28.3258C36.414 27.1807 31.5508 26.333 26.6492 25.7875C25.8184 25.5688 24.9348 25.687 24.1908 26.1166C23.4467 26.5462 22.9025 27.2523 22.6766 28.0812L20.2287 37.1149C20.004 37.9476 20.1188 38.8354 20.548 39.5835C20.9772 40.3316 21.6857 40.8789 22.518 41.1051L22.551 41.1117C25.79 41.4797 29.0597 41.9909 32.3117 42.643C32.6027 42.7003 32.8913 42.7598 33.1821 42.8215C34.2243 43.0374 35.2635 43.2681 36.2998 43.5134C36.7537 43.6191 37.2053 43.7293 37.6592 43.8417C38.8799 44.1457 40.1013 44.4696 41.3235 44.8133C42.6829 45.1967 44.0431 45.6058 45.4039 46.0406C45.5516 46.0846 45.6993 46.1309 45.8446 46.1794V29.5354C45.6993 29.4913 45.5517 29.4495 45.4039 29.4098Z" fill="white"/>
<path d="M45.4039 29.4098C44.0115 29.0198 42.6138 28.6585 41.211 28.3258C36.414 27.1807 31.5508 26.333 26.6492 25.7875C25.8184 25.5688 24.9348 25.687 24.1908 26.1166C23.4467 26.5462 22.9025 27.2523 22.6766 28.0812L20.2287 37.1149C20.004 37.9476 20.1188 38.8354 20.548 39.5835C20.9772 40.3316 21.6857 40.8789 22.518 41.1051L22.551 41.1117C25.79 41.4797 29.0597 41.9909 32.3117 42.643C32.6027 42.7003 32.8913 42.7598 33.1821 42.8215C34.2243 43.0374 35.2635 43.2681 36.2998 43.5134C36.7537 43.6191 37.2053 43.7293 37.6592 43.8417C38.8799 44.1457 40.1013 44.4696 41.3235 44.8133C42.6829 45.1967 44.0431 45.6058 45.4039 46.0406C45.5516 46.0846 45.6993 46.1309 45.8446 46.1794V45.7145C45.697 45.6682 45.5494 45.6219 45.4039 45.5757C44.1525 45.1769 42.9025 44.8016 41.654 44.4498C41.1868 44.3154 40.7197 44.1854 40.2526 44.0598C39.4109 43.8328 38.5715 43.6154 37.7342 43.4076C37.2892 43.2952 36.8448 43.1872 36.4011 43.0837C36.3681 43.0749 36.3328 43.0683 36.2998 43.0595C35.544 42.881 34.7868 42.7106 34.0281 42.5483C33.7373 42.4866 33.4465 42.4249 33.1556 42.3654C29.6479 41.6383 26.1138 41.0721 22.6171 40.6755C21.9019 40.4763 21.2943 40.0026 20.9266 39.3576C20.5589 38.7126 20.461 37.9485 20.654 37.2316L23.1018 28.1958C23.2976 27.4768 23.7707 26.8649 24.4172 26.4944C25.0636 26.1238 25.8307 26.0249 26.55 26.2194L26.5831 26.2238C31.4224 26.7611 36.2244 27.5941 40.9621 28.718C41.0105 28.7312 41.059 28.7422 41.1074 28.7532C42.5441 29.0969 43.9763 29.4686 45.4039 29.8681C45.5494 29.9078 45.697 29.9496 45.8446 29.9937V29.5354C45.6992 29.4913 45.5517 29.4495 45.4039 29.4098Z" fill="#ABB0DE"/>
<path d="M45.844 29.7646V45.9458C45.6964 45.8974 45.551 45.8511 45.4033 45.8048C44.1012 45.3884 42.7947 44.9962 41.4837 44.6283C40.2255 44.2713 38.963 43.9357 37.6962 43.6213C37.2467 43.5112 36.7993 43.4032 36.3498 43.2974C36.3322 43.2181 36.3146 43.1388 36.2992 43.0595C36.2176 42.6805 36.1538 42.2971 36.1053 41.9116C36.0832 41.7639 36.0679 41.6163 36.0524 41.4665C35.8205 39.1059 36.1437 36.7239 36.996 34.5104C37.8483 32.297 39.2063 30.3134 40.9615 28.718C41.0254 28.6563 41.0914 28.5968 41.1576 28.5395C42.5809 28.8788 43.9962 29.2461 45.4033 29.6412C45.551 29.6786 45.6986 29.7205 45.844 29.7646Z" fill="#7278AD"/>
<path d="M31.2115 36.39L25.0841 35.6673C24.8685 35.6418 24.65 35.6591 24.4411 35.718C24.2322 35.777 24.037 35.8766 23.8666 36.011C23.6962 36.1454 23.5539 36.3121 23.4479 36.5015C23.3418 36.6909 23.2742 36.8993 23.2487 37.1149C23.2233 37.3305 23.2405 37.5489 23.2995 37.7578C23.3584 37.9667 23.458 38.162 23.5924 38.3324C23.7268 38.5028 23.8935 38.6451 24.0829 38.7511C24.2723 38.8571 24.4808 38.9248 24.6963 38.9502L30.8237 39.6729C31.2585 39.7232 31.6955 39.599 32.0388 39.3276C32.3821 39.0561 32.6038 38.6596 32.6551 38.2249C32.7065 37.7902 32.5833 37.353 32.3127 37.009C32.0421 36.665 31.6461 36.4424 31.2115 36.39ZM32.2207 38.1747C32.1823 38.4936 32.019 38.7842 31.7666 38.9829C31.5142 39.1816 31.1934 39.272 30.8744 39.2345L24.7469 38.5118C24.4287 38.4731 24.1388 38.3098 23.9408 38.0578C23.7427 37.8057 23.6526 37.4855 23.6902 37.1672C23.7278 36.8488 23.8901 36.5584 24.1414 36.3594C24.3927 36.1605 24.7127 36.0693 25.0311 36.1057L31.1586 36.8284C31.4776 36.8671 31.7683 37.0303 31.9673 37.2825C32.1663 37.5348 32.2574 37.8555 32.2207 38.1747Z" fill="#ABB0DE"/>
<path d="M45.8442 33.5543V41.2285C45.7026 41.3135 45.5554 41.3886 45.4035 41.4533C44.6127 41.8063 43.7359 41.9206 42.881 41.782C42.0261 41.6435 41.2303 41.2581 40.5915 40.6733C40.5298 40.6182 40.4681 40.5587 40.4086 40.497C40.3491 40.4375 40.2919 40.3736 40.2368 40.3097C39.5716 39.5458 39.1872 38.5776 39.1471 37.5655C39.1069 36.5533 39.4134 35.5578 40.016 34.7435C40.6185 33.9293 41.4809 33.3451 42.4606 33.0876C43.4403 32.83 44.4785 32.9146 45.4035 33.3274C45.5544 33.395 45.7015 33.4708 45.8442 33.5543Z" fill="white"/>
<path d="M45.4032 39.1089C43.6693 39.4703 41.947 39.8705 40.2365 40.3097C39.5975 40.4728 38.9608 40.6417 38.3262 40.8165C37.5683 41.0258 36.8103 41.2425 36.0523 41.4665C35.0851 41.7529 34.1193 42.0526 33.1549 42.3654C32.8751 42.458 32.5931 42.5505 32.311 42.6431C29.6296 43.5376 26.9658 44.5291 24.346 45.611C23.5123 45.8193 22.7947 46.3486 22.3494 47.0836C21.9042 47.8185 21.7673 48.6997 21.9686 49.5351L24.1786 58.6304C24.3831 59.4682 24.9116 60.1906 25.6481 60.6391C26.3845 61.0877 27.2689 61.2259 28.1071 61.0233L28.1379 61.0122C32.4461 59.2451 36.8554 57.7354 41.3426 56.491C42.6822 56.1187 44.0358 55.7676 45.4032 55.4378C45.5509 55.4026 45.6963 55.3673 45.8439 55.3343V39.0186C45.6963 39.045 45.5509 39.0759 45.4032 39.1089Z" fill="white"/>
<path d="M45.4032 39.1089C43.6693 39.4703 41.947 39.8705 40.2365 40.3097C39.5975 40.4728 38.9608 40.6417 38.3262 40.8165C37.5683 41.0258 36.8103 41.2425 36.0523 41.4665C35.0851 41.7529 34.1193 42.0526 33.1549 42.3654C32.8751 42.458 32.5931 42.5505 32.311 42.6431C29.6296 43.5376 26.9658 44.5291 24.346 45.611C23.5123 45.8193 22.7947 46.3486 22.3494 47.0836C21.9042 47.8185 21.7673 48.6997 21.9686 49.5351L24.1786 58.6304C24.3831 59.4682 24.9116 60.1906 25.6481 60.6391C26.3845 61.0877 27.2689 61.2259 28.1071 61.0233L28.1379 61.0122C32.4461 59.2451 36.8554 57.7354 41.3426 56.491C42.6822 56.1187 44.0358 55.7676 45.4032 55.4378C45.5509 55.4026 45.6963 55.3673 45.8439 55.3343V54.8804C45.6963 54.9156 45.5509 54.9509 45.4032 54.9861C45.2931 55.0126 45.1807 55.039 45.0706 55.0655C43.775 55.3805 42.4934 55.714 41.2257 56.0658C41.1927 56.0746 41.1575 56.0856 41.1244 56.0944C36.6599 57.336 32.2727 58.8406 27.9859 60.6002C27.263 60.7697 26.5025 60.647 25.8696 60.2587C25.2366 59.8705 24.7826 59.2481 24.606 58.5269L22.3983 49.4315C22.2231 48.7073 22.3423 47.9431 22.7297 47.3066C23.1171 46.6701 23.7412 46.2132 24.465 46.0362L24.498 46.0252C27.3514 44.8442 30.2553 43.7734 33.1814 42.8215C33.4634 42.729 33.7455 42.6387 34.0274 42.5483C34.7193 42.3302 35.4119 42.1179 36.1052 41.9116C36.8367 41.6934 37.5674 41.4834 38.2975 41.2814C38.346 41.2682 38.3945 41.255 38.4429 41.2418C39.1569 41.0457 39.8729 40.8562 40.5912 40.6733C42.1842 40.2679 43.7882 39.8955 45.4032 39.5562C45.5487 39.5254 45.6963 39.4945 45.8439 39.4659V39.0186C45.6963 39.045 45.5509 39.0759 45.4032 39.1089Z" fill="#ABB0DE"/>
<path d="M45.8441 39.2411V55.1073C45.6987 55.1403 45.5511 55.1734 45.4034 55.2086C44.0242 55.5436 42.6508 55.9005 41.2832 56.2795C41.2281 56.2178 41.1752 56.1561 41.1245 56.0944C39.6969 54.4231 38.6479 52.4627 38.0496 50.3476C37.4513 48.2326 37.318 46.0131 37.6587 43.8417C37.6698 43.769 37.683 43.694 37.6962 43.6213C37.7072 43.5508 37.7205 43.4781 37.7337 43.4076C37.8697 42.6861 38.0582 41.9755 38.2976 41.2814C38.3264 41.1977 38.355 41.1139 38.3859 41.0302C39.0578 40.8451 39.732 40.6674 40.4085 40.497C42.0632 40.0695 43.7282 39.681 45.4034 39.3314C45.5488 39.2984 45.6965 39.2697 45.8441 39.2411Z" fill="#7278AD"/>
<path d="M35.6053 53.6135C35.4401 53.2077 35.1207 52.884 34.7171 52.7134C34.3135 52.5428 33.8588 52.5392 33.4526 52.7035L27.7349 55.0214C27.3295 55.1866 27.0061 55.506 26.836 55.9095C26.6658 56.3129 26.6627 56.7674 26.8273 57.1731C26.9919 57.5788 27.3109 57.9026 27.714 58.0734C28.1172 58.2442 28.5717 58.248 28.9776 58.084L34.6953 55.7661C35.1008 55.6005 35.4242 55.2811 35.5947 54.8776C35.7652 54.4742 35.769 54.0197 35.6053 53.6135ZM34.5301 55.3563L28.8124 57.6764C28.5145 57.7968 28.1809 57.7941 27.885 57.6688C27.5891 57.5435 27.355 57.3059 27.2341 57.0082C27.1133 56.7104 27.1155 56.3769 27.2404 56.0808C27.3653 55.7847 27.6026 55.5503 27.9002 55.429L33.6179 53.1111C33.9156 52.9901 34.2492 52.9924 34.5452 53.1174C34.8413 53.2424 35.0756 53.4799 35.1966 53.7776C35.3175 54.0753 35.3153 54.4089 35.1903 54.705C35.0653 55.001 34.8278 55.2353 34.5301 55.3563Z" fill="#ABB0DE"/>
<path d="M45.8435 43.293V51.9323C45.6983 51.9693 45.5512 51.9987 45.4028 52.0204C44.5183 52.1444 43.6168 51.9994 42.8157 51.6043C42.0146 51.2092 41.3509 50.5823 40.9108 49.805C40.4708 49.0277 40.2747 48.136 40.3481 47.2458C40.4215 46.3556 40.7609 45.5081 41.3224 44.8133C41.3731 44.7494 41.4259 44.6877 41.4832 44.6283C41.536 44.5666 41.5934 44.5071 41.6529 44.4498C42.1401 43.9679 42.732 43.6051 43.3824 43.3895C44.0329 43.174 44.7243 43.1115 45.4028 43.2071C45.5513 43.227 45.6985 43.2557 45.8435 43.293Z" fill="white"/>
<path d="M45.4033 28.2619V50.2534C45.551 50.2049 45.6986 50.1586 45.844 50.1145V28.4624C45.6964 28.3941 45.551 28.328 45.4033 28.2619ZM45.4033 28.2619V50.2534C45.551 50.2049 45.6986 50.1586 45.844 50.1145V28.4624C45.6964 28.3941 45.551 28.328 45.4033 28.2619ZM45.4033 28.2619V50.2534C45.551 50.2049 45.6986 50.1586 45.844 50.1145V28.4624C45.6964 28.3941 45.551 28.328 45.4033 28.2619ZM45.4033 29.8681V55.2087C45.551 55.1734 45.6986 55.1404 45.844 55.1073V29.9937C45.6964 29.9496 45.5488 29.9078 45.4033 29.8681ZM45.4033 29.8681V55.2087C45.551 55.1734 45.6986 55.1404 45.844 55.1073V29.9937C45.6964 29.9496 45.5488 29.9078 45.4033 29.8681ZM45.4033 29.8681V55.2087C45.551 55.1734 45.6986 55.1404 45.844 55.1073V29.9937C45.6964 29.9496 45.5488 29.9078 45.4033 29.8681ZM45.4033 29.8681V55.2087C45.551 55.1734 45.6986 55.1404 45.844 55.1073V29.9937C45.6964 29.9496 45.5488 29.9078 45.4033 29.8681ZM45.4033 29.8681V55.4378C45.551 55.4025 45.6964 55.3673 45.844 55.3342V29.9937C45.6964 29.9496 45.5488 29.9078 45.4033 29.8681ZM141.524 9.03341H49.9775C48.765 9.03542 47.6027 9.51798 46.7453 10.3754C45.8879 11.2327 45.4053 12.395 45.4033 13.6075V81.5781C45.4054 82.7904 45.888 83.9525 46.7455 84.8095C47.6029 85.6665 48.7652 86.1486 49.9775 86.1501H141.524C142.736 86.1486 143.898 85.6664 144.755 84.8093C145.612 83.9523 146.094 82.7902 146.096 81.5781V13.6075C146.095 12.3951 145.613 11.2326 144.756 10.375C143.898 9.5175 142.736 9.03501 141.524 9.03341ZM145.655 81.5781C145.654 82.6735 145.218 83.7236 144.444 84.4981C143.669 85.2726 142.619 85.7083 141.524 85.7094H49.9775C48.8819 85.7084 47.8315 85.2729 47.0566 84.4984C46.2817 83.7239 45.8456 82.6737 45.844 81.5781V13.6075C45.8456 12.5118 46.2817 11.4614 47.0565 10.6865C47.8313 9.91173 48.8817 9.47572 49.9775 9.47408H141.524C142.619 9.47534 143.67 9.9113 144.444 10.6863C145.219 11.4612 145.654 12.5119 145.655 13.6075V81.5781ZM45.4033 29.8681V54.9861C45.551 54.9509 45.6964 54.9156 45.844 54.8804V29.9937C45.6964 29.9496 45.5488 29.9078 45.4033 29.8681ZM45.4033 29.8681V55.2087C45.551 55.1734 45.6986 55.1404 45.844 55.1073V29.9937C45.6964 29.9496 45.5488 29.9078 45.4033 29.8681ZM45.4033 29.8681V55.2087C45.551 55.1734 45.6986 55.1404 45.844 55.1073V29.9937C45.6964 29.9496 45.5488 29.9078 45.4033 29.8681ZM45.4033 29.8681V55.2087C45.551 55.1734 45.6986 55.1404 45.844 55.1073V29.9937C45.6964 29.9496 45.5488 29.9078 45.4033 29.8681ZM45.4033 28.2619V50.2534C45.551 50.2049 45.6986 50.1586 45.844 50.1145V28.4624C45.6964 28.3941 45.551 28.328 45.4033 28.2619ZM45.4033 28.2619V50.2534C45.551 50.2049 45.6986 50.1586 45.844 50.1145V28.4624C45.6964 28.3941 45.551 28.328 45.4033 28.2619Z" fill="#2F2E41"/>
<path d="M25.7771 51.5302C25.6907 51.3288 25.5612 51.1488 25.3978 51.0028C25.2343 50.8569 25.0408 50.7485 24.831 50.6854C24.6211 50.6224 24.4 50.6061 24.1831 50.6377C23.9663 50.6693 23.759 50.7481 23.5759 50.8685L19.3519 47.6229L19.1523 50.3838L23.1941 53.0426C23.4167 53.3368 23.7396 53.5391 24.1014 53.6112C24.4633 53.6833 24.839 53.6201 25.1574 53.4337C25.4757 53.2473 25.7147 52.9505 25.8289 52.5997C25.9431 52.2489 25.9247 51.8683 25.7771 51.5302Z" fill="#FFB6B6"/>
<path d="M8.75636 31.9431L7.36643 31.2862C7.36643 31.2862 5.12728 31.9161 6.21513 34.877L12.7985 47.1416L20.836 51.8473L23.3417 49.6269L15.2984 43.2628L8.75636 31.9431Z" fill="#7278AD"/>
</svg>
