<svg width="30" height="30" viewBox="0 0 30 30" fill="none" xmlns="http://www.w3.org/2000/svg">
<path d="M29.984 28.7158C29.8403 28.802 29.7029 28.9362 29.5496 28.9617C29.2877 29.0065 29.1088 28.7892 29.1056 28.4698C29.1024 27.9172 29.1056 27.3614 29.1056 26.7929H25.7134C25.7134 27.3007 25.7134 27.8054 25.7134 28.3069C25.7134 28.7701 25.5888 28.9649 25.2853 28.9713C24.9755 28.9777 24.835 28.7637 24.835 28.2942C24.835 27.799 24.835 27.3039 24.835 26.7897H23.5253C23.6371 27.2433 23.7425 27.6841 23.8511 28.1249C23.8735 28.2111 23.8959 28.2941 23.915 28.3804C23.9789 28.6711 23.8607 28.8947 23.6148 28.9554C23.3592 29.0192 23.1452 28.8915 23.0718 28.604C22.8897 27.9077 22.7172 27.2049 22.5447 26.5054C21.9953 24.311 21.4459 22.1197 20.8965 19.9253C20.8741 19.8327 20.8358 19.7465 20.7879 19.6027C20.4653 20.101 20.2928 20.5993 20.2641 21.1327C20.2289 21.7748 20.2385 22.42 20.2353 23.0652C20.2353 24.7933 20.2353 26.5214 20.2353 28.2494C20.2353 28.358 20.2385 28.4666 20.2257 28.572C20.1906 28.8308 20.0117 28.9873 19.769 28.9681C19.5198 28.9458 19.3697 28.802 19.3665 28.5497C19.3569 28.0226 19.3601 27.4956 19.3601 26.9686C19.3601 26.6108 19.3601 26.2499 19.3601 25.8729H15.4504C15.444 25.9815 15.4312 26.0838 15.4312 26.186C15.4312 26.8791 15.4312 27.5723 15.4312 28.2654C15.4312 28.3325 15.4312 28.4028 15.4312 28.4698C15.4152 28.7924 15.2491 28.9745 14.9808 28.9681C14.7253 28.9617 14.5592 28.7861 14.556 28.4762C14.5496 27.7352 14.556 26.9941 14.5528 26.2499C14.5528 26.1349 14.5528 26.0167 14.5528 25.8793H10.6431C10.6367 25.972 10.6239 26.0742 10.6239 26.1764C10.6239 26.8983 10.6239 27.6202 10.6239 28.3421C10.6239 28.4379 10.6239 28.5401 10.6048 28.6327C10.5633 28.8404 10.4227 28.9554 10.2151 28.9681C9.99467 28.9809 9.83177 28.8819 9.77427 28.6615C9.74233 28.5401 9.74553 28.4091 9.74553 28.2846C9.74553 26.087 9.74234 23.8925 9.74553 21.6949C9.74553 20.9698 9.61136 20.2831 9.19292 19.5867C9.14181 19.7528 9.10349 19.8646 9.07474 19.9764C8.36882 22.7937 7.6629 25.611 6.95698 28.4283C6.9442 28.4858 6.92824 28.5401 6.90907 28.5976C6.82283 28.8851 6.62479 29.016 6.36606 28.9554C6.11691 28.8947 5.99233 28.6711 6.0626 28.3836C6.17759 27.9108 6.29897 27.4381 6.41715 26.9654C6.42993 26.9174 6.43633 26.8727 6.44911 26.7961H5.14586C5.14586 27.3455 5.16185 27.8885 5.13629 28.4315C5.12671 28.5944 5.03727 28.802 4.91589 28.8979C4.64438 29.1087 4.28024 28.8819 4.27385 28.5114C4.26427 27.946 4.27385 27.3806 4.27385 26.7929H0.881605C0.881605 27.3327 0.881605 27.8661 0.881605 28.4028C0.881605 28.7701 0.721893 28.9713 0.440802 28.9681C0.159712 28.9681 0.00639466 28.7669 0.00639466 28.3964C0.00639466 26.1413 0.00958262 23.8861 0 21.631C0 21.3084 0.130968 21.1359 0.424835 21.0177C1.19464 20.7143 1.95167 20.3757 2.72147 20.0723C2.96423 19.9764 3.09518 19.8614 3.04727 19.5867C3.02491 19.4654 3.04407 19.3376 3.04407 19.2066C2.90991 19.1715 2.79812 19.1459 2.68952 19.1108C1.86541 18.8585 1.30323 18.1174 1.29045 17.255C1.28087 16.5043 1.28407 15.7537 1.27768 14.9999C1.27768 14.9903 1.2713 14.9807 1.30324 15.051C1.01576 14.9008 0.75702 14.8178 0.571756 14.6549C0.236364 14.3546 0.25554 13.0546 0.562184 12.7224C0.587738 12.6936 0.616472 12.6553 0.648414 12.6457C0.919922 12.5563 1.01256 12.3519 1.07645 12.0931C1.12755 11.8823 1.31601 11.7929 1.53641 11.8216C1.76001 11.8504 1.87819 11.9973 1.91013 12.2113C1.91971 12.2848 1.90375 12.3646 1.89416 12.4764H3.50723V10.8218C3.32516 10.8889 3.15907 10.9432 2.99617 11.0135C2.67994 11.1508 2.43399 11.0933 2.319 10.8442C2.20401 10.5982 2.3126 10.3714 2.62563 10.2149C2.72146 10.167 2.8173 10.1159 2.91951 10.0904C3.25171 10.0041 3.54877 9.92426 3.67334 9.50901C3.72125 9.3493 4.04706 9.21835 4.26746 9.17363C4.54855 9.11613 4.85199 9.14807 5.14267 9.16085C5.53556 9.17682 5.75595 9.37805 5.87733 9.75496C5.90608 9.8444 6.02747 9.93704 6.12649 9.96578C7.31793 10.3012 8.08134 11.0486 8.39757 12.256C8.42632 12.3646 8.52854 12.4828 8.62756 12.5435C8.90546 12.7064 9.05558 12.9396 9.06517 13.2558C9.07475 13.5497 9.07794 13.8404 9.06517 14.1342C9.04281 14.6102 8.76171 14.8593 8.13884 14.9615C8.13884 15.6866 8.13884 16.4149 8.13884 17.1464C8.13884 17.7628 7.9408 18.3123 7.4489 18.6956C7.15183 18.9287 6.78131 19.0725 6.41398 19.2002C6.40439 19.2162 6.39161 19.2354 6.39161 19.2513C6.36393 19.6943 6.55558 19.9999 6.96657 20.1681C7.30835 20.3086 7.64694 20.4524 8.01108 20.6025C8.09732 20.2703 8.17397 19.9605 8.26022 19.6506C8.50937 18.7243 9.07474 18.0663 9.95954 17.6926C10.8379 17.322 11.7196 16.9515 12.6044 16.597C12.7768 16.5267 12.8407 16.4436 12.8343 16.2584C12.8184 15.907 12.8311 15.5588 12.8311 15.1979C11.0903 14.8913 10.2853 13.8372 10.3397 12.1091C8.42313 11.5948 8.00787 9.43555 9.25361 8.22175C8.88947 7.67554 9.03002 7.05906 9.05557 6.46813C9.07474 6.06566 9.33348 5.87081 9.88288 5.68235C10.263 3.65722 11.464 2.46259 13.5019 2.0697C13.5083 1.99623 13.5179 1.90999 13.5275 1.82375C13.569 1.38614 13.8501 1.07311 14.2941 1.04436C14.7413 1.01561 15.1917 1.01562 15.6389 1.03478C16.1595 1.05714 16.4438 1.37018 16.4821 1.89722C16.4853 1.95472 16.4917 2.01221 16.5013 2.08568C17.287 2.19428 17.993 2.47536 18.6031 2.97685C19.3761 3.6157 19.8712 4.42064 20.0532 5.41085C20.0852 5.59611 20.1331 5.7111 20.3503 5.7654C20.7017 5.85165 20.9221 6.12954 20.9508 6.4841C20.9859 6.89935 20.9732 7.32417 20.9476 7.73942C20.938 7.90552 20.8294 8.06204 20.7624 8.22813C22.0273 9.48665 21.529 11.6044 19.6635 12.1027C19.7178 13.8244 18.9193 14.8817 17.1721 15.1979C17.1721 15.5844 17.1657 15.9741 17.1784 16.3638C17.1784 16.4341 17.2647 16.5267 17.335 16.5618C17.5426 16.6672 17.7694 16.7375 17.9802 16.8365C18.2389 16.9579 18.3348 17.1815 18.2421 17.4083C18.1463 17.6479 17.9099 17.7437 17.6384 17.6415C17.3956 17.5488 17.1529 17.4466 16.9005 17.3412C16.4278 18.0631 15.9614 18.769 15.5015 19.4813C15.4632 19.542 15.444 19.6283 15.444 19.7017C15.4408 20.4939 15.444 21.2829 15.444 22.075C15.444 22.1102 15.4568 22.1485 15.4664 22.1996H19.3761C19.3026 20.989 19.4943 19.8423 20.2673 18.7978C19.9798 18.6572 19.721 18.5295 19.4655 18.4049C19.1653 18.258 19.063 17.9801 19.2323 17.7373C19.3697 17.5424 19.5645 17.5073 19.7785 17.584C20.7879 17.9513 21.4842 18.6157 21.7557 19.6826C21.8324 19.9828 21.9123 20.2799 21.9953 20.6057C22.516 20.3885 23.0111 20.1873 23.4998 19.9732C23.5573 19.9477 23.6116 19.8455 23.618 19.772C23.6339 19.5899 23.6244 19.4015 23.6244 19.2418C23.5924 19.2066 23.5828 19.1843 23.5669 19.1811C22.4297 18.9064 21.8708 18.1973 21.8676 17.025C21.8676 16.3414 21.8676 15.6611 21.8676 14.9551C21.7813 14.9424 21.7078 14.936 21.6376 14.9232C21.2287 14.8529 20.9732 14.591 20.9476 14.1726C20.9285 13.8627 20.9348 13.5465 20.9476 13.2367C20.9604 12.9204 21.1233 12.6936 21.4044 12.5371C21.497 12.486 21.5865 12.3678 21.612 12.2656C21.925 11.0486 22.6949 10.2948 23.9023 9.9626C23.9949 9.93704 24.1035 9.83163 24.1386 9.739C24.2632 9.39402 24.506 9.18002 24.8701 9.16404C25.1512 9.15127 25.4355 9.15446 25.7198 9.16404C26.0839 9.17682 26.3522 9.37166 26.4448 9.72942C26.4896 9.9051 26.579 9.94342 26.7355 9.98495C27.895 10.298 28.6488 11.0295 28.9619 12.1953C29.0098 12.3678 29.0545 12.4988 29.2494 12.5818C29.5209 12.6968 29.6423 12.9492 29.6486 13.2462C29.655 13.4603 29.6486 13.6743 29.6486 13.8915C29.6486 14.6293 29.4698 14.8433 28.7159 14.9615C28.7159 15.6195 28.684 16.2839 28.7223 16.9419C28.783 17.996 28.2208 18.9447 26.9591 19.2066C26.9591 19.4015 26.9368 19.6059 26.9687 19.8008C26.9815 19.8838 27.0965 19.9796 27.1891 20.018C27.9781 20.3565 28.7734 20.676 29.5592 21.0145C29.7189 21.0848 29.8531 21.219 30 21.3244V28.703L29.984 28.7158ZM11.2468 8.53478C11.234 8.58589 11.2181 8.62422 11.2181 8.65935C11.2181 9.98814 11.1957 11.3137 11.2308 12.6425C11.2532 13.5944 12.0102 14.2971 12.9685 14.3035C14.3164 14.3131 15.6612 14.3131 17.0092 14.3035C17.9674 14.2971 18.7245 13.5976 18.75 12.6457C18.7819 11.3201 18.7628 9.99134 18.7628 8.66255C18.7628 8.62422 18.7468 8.58909 18.7372 8.53478H11.2468ZM13.0835 17.3444C11.9559 17.8235 10.8507 18.2931 9.70401 18.7786C10.493 19.8519 10.6878 20.9954 10.6143 22.206H14.5496C14.5496 21.3468 14.5496 20.5067 14.5464 19.6698C14.5464 19.5963 14.5081 19.5197 14.4666 19.4558C14.0162 18.7626 13.5594 18.0695 13.0835 17.3412V17.3444ZM22.7332 14.9551C22.7332 15.7537 22.714 16.5139 22.7396 17.2741C22.7587 17.8715 23.2187 18.3186 23.8224 18.3282C24.7966 18.3474 25.7741 18.3474 26.7515 18.3282C27.3808 18.3154 27.812 17.8363 27.8215 17.2007C27.8279 16.7311 27.8215 16.2648 27.8215 15.7952C27.8215 15.5173 27.8215 15.2362 27.8215 14.9583H25.7581C25.7357 14.9839 25.7229 14.9903 25.7229 14.9999C25.7198 15.166 25.7166 15.3321 25.7102 15.4982C25.6974 15.7952 25.5281 15.9773 25.2694 15.9741C25.0266 15.9709 24.8509 15.792 24.835 15.5141C24.8254 15.3321 24.835 15.15 24.835 14.9583H22.73L22.7332 14.9551ZM5.14267 14.9551C5.14267 15.1532 5.14906 15.3289 5.14267 15.5045C5.1267 15.7952 4.94143 15.9773 4.6859 15.9709C4.43675 15.9613 4.27704 15.7888 4.26746 15.5045C4.26107 15.3225 4.26746 15.1404 4.26746 14.9583H2.15929C2.15929 15.7154 2.15609 16.4532 2.15929 17.1943C2.16568 17.8427 2.60647 18.3186 3.2517 18.3282C4.21635 18.3474 5.1842 18.3442 6.15205 18.3282C6.72701 18.3186 7.19336 17.9289 7.2253 17.3668C7.27002 16.5714 7.23807 15.7729 7.23807 14.9583H5.14586L5.14267 14.9551ZM29.0929 24.822C28.8629 24.822 28.6584 24.8348 28.454 24.822C28.1793 24.8029 28.0004 24.6112 28.0068 24.3749C28.0132 24.1353 28.1985 23.9628 28.4764 23.9532C28.6776 23.9468 28.8788 23.9532 29.1024 23.9532C29.1024 23.2505 29.1056 22.5893 29.096 21.9281C29.096 21.8642 29.0258 21.7652 28.9651 21.7396C28.224 21.4202 27.4798 21.1136 26.7132 20.7941C26.4512 21.3148 26.2276 21.8355 25.9338 22.3146C25.6176 22.8352 25.7325 23.3783 25.7134 23.9532C25.9402 23.9532 26.1318 23.95 26.3267 23.9532C26.6461 23.9596 26.8154 24.1034 26.825 24.3653C26.8345 24.6368 26.6589 24.8125 26.3363 24.8252C26.135 24.8348 25.9338 24.8252 25.7293 24.8252V25.8729H29.0865V24.822H29.0929ZM9.91801 6.59909V7.61485H20.066V6.59909H9.91801ZM0.872013 23.9181H4.23552C4.23552 23.5028 4.33774 23.078 4.21316 22.7362C3.96721 22.0654 3.59348 21.4458 3.26447 20.7878C2.49786 21.1072 1.75361 21.4138 1.01256 21.7301C0.951869 21.7556 0.881605 21.8514 0.881605 21.9153C0.872022 22.5765 0.87521 23.2377 0.87521 23.9149L0.872013 23.9181ZM19.3377 24.9594V23.1163H15.4536V24.9594H19.3377ZM10.6335 24.9434H14.5209V23.1227H10.6335V24.9434ZM6.13608 20.7846C5.8518 21.3499 5.60264 21.8993 5.30558 22.4232C5.02768 22.9151 5.19697 23.4198 5.13947 23.9436C5.67929 23.9436 6.16482 23.9436 6.65034 23.9436C7.16781 23.9436 7.171 23.9436 7.29238 23.4517C7.45848 22.7937 7.61819 22.1357 7.78428 21.4713C7.22849 21.2381 6.69826 21.0177 6.13608 20.7846ZM22.1902 21.4713C22.3754 22.2156 22.5639 22.9375 22.73 23.6657C22.7811 23.8925 22.8865 23.9564 23.1101 23.9468C23.5094 23.9277 23.9086 23.9404 24.3079 23.9404C24.4772 23.9404 24.6465 23.9404 24.8158 23.9404C24.8158 23.4996 24.9212 23.0716 24.7934 22.7298C24.5475 22.0622 24.1706 21.4394 23.8416 20.7814C23.2794 21.0146 22.7428 21.2381 22.1934 21.4681L22.1902 21.4713ZM28.7351 14.0384V13.3676H21.8228V14.0384H28.7351ZM1.22976 14.032H8.1612V13.374H1.22976V14.032ZM16.4853 5.68235H19.2675C19.0567 5.17128 18.8618 4.70492 18.6542 4.20663C18.3954 4.37592 18.2134 4.50689 18.0249 4.62188C17.8013 4.75284 17.5681 4.69534 17.4308 4.4973C17.2966 4.30245 17.335 4.0597 17.5362 3.89999C17.664 3.79777 17.8045 3.71152 17.9419 3.6157C17.5745 3.27072 16.891 2.99283 16.4853 3.02158V5.68235ZM11.3139 4.20343C11.1031 4.71131 10.9146 5.17128 10.707 5.67916H13.4891V2.98963C12.9365 3.05671 12.4638 3.26115 12.0134 3.60293C12.1699 3.71153 12.3041 3.79458 12.4255 3.8904C12.6299 4.05011 12.6746 4.28648 12.55 4.48452C12.4159 4.69534 12.1699 4.75284 11.9336 4.6123C11.7515 4.50369 11.5758 4.37592 11.3139 4.20343ZM15.575 1.92597H14.4027V5.67277H15.575V1.92597ZM0.891177 24.838V25.8634H4.2451V24.838H0.891177ZM13.7031 16.3318H16.2553V15.1915H13.7031V16.3318ZM24.0779 10.857C23.2986 10.9464 22.484 11.7769 22.4968 12.4573H24.0779V10.857ZM7.48403 12.4637C7.43611 11.7162 6.58645 10.8761 5.89969 10.8666V12.4637H7.48403ZM26.4704 12.4637H28.0739C27.9972 11.7098 27.2242 10.9304 26.4704 10.8602V12.4637ZM19.6572 8.62102V11.1221C20.1523 11.0167 20.5356 10.5152 20.5611 9.9594C20.5899 9.33653 20.2385 8.80629 19.6572 8.62102ZM10.3141 8.62741C9.75191 8.79031 9.39417 9.31736 9.41014 9.92745C9.42612 10.496 9.80302 11.0039 10.3141 11.1285V8.62741ZM5.15226 25.8921C5.63139 25.8921 6.07857 25.8953 6.52257 25.8889C6.58326 25.8889 6.68227 25.8346 6.69825 25.7867C6.78449 25.4832 6.85478 25.1734 6.93463 24.8476H5.15226V25.8921ZM23.0366 24.8412C23.1165 25.1734 23.1899 25.4832 23.273 25.7867C23.2858 25.8282 23.3529 25.8825 23.3944 25.8857C23.8671 25.8921 24.3431 25.8889 24.8126 25.8889V24.8412H23.0398H23.0366ZM25.5601 12.4637V10.0648H25.0043V12.4637H25.5601ZM4.99575 12.4637C4.99575 12.3423 4.99575 12.2401 4.99575 12.1347C4.99575 11.598 4.99575 11.0614 4.99575 10.5248C4.99575 10.1755 4.81687 10.019 4.45912 10.0552C4.44315 10.0552 4.42718 10.0744 4.4144 10.084V12.4637H4.99575ZM14.984 18.6413C15.3003 18.1589 15.5877 17.7213 15.888 17.2614H14.0769C14.3867 17.7309 14.671 18.1653 14.9808 18.6413H14.984ZM3.9193 19.7688H5.47168V19.229H3.9193V19.7688ZM24.4932 19.7688H26.036V19.229H24.4932V19.7688ZM4.1908 20.6792C4.36648 21.0305 4.523 21.3372 4.69549 21.6853C4.87437 21.3276 5.02769 21.0177 5.19698 20.6792H4.1876H4.1908ZM24.7711 20.6792C24.9404 21.0177 25.0969 21.3276 25.2758 21.6853C25.4515 21.3308 25.608 21.0177 25.7773 20.6792H24.7711Z" fill="black"/>
<path d="M11.2468 8.53165H18.7372C18.75 8.58595 18.7628 8.62108 18.7628 8.65941C18.7628 9.9882 18.7851 11.3138 18.75 12.6426C18.7276 13.5945 17.9706 14.294 17.0091 14.3004C15.6612 14.31 14.3164 14.31 12.9685 14.3004C12.0102 14.294 11.2532 13.5913 11.2308 12.6394C11.1989 11.3138 11.2212 9.98501 11.218 8.65622C11.218 8.61789 11.234 8.58275 11.2468 8.53165ZM14.9553 13.2942C15.5238 13.3006 16.0668 12.9812 16.3256 12.4988C16.4661 12.2369 16.4182 11.991 16.201 11.8568C15.9806 11.7195 15.7506 11.7897 15.5781 12.0389C15.2364 12.5404 14.7476 12.5372 14.4059 12.0389C14.2334 11.7897 14.0002 11.7227 13.783 11.86C13.5658 11.9974 13.5179 12.2433 13.6648 12.502C13.9555 13.0099 14.4059 13.2591 14.9585 13.2942H14.9553ZM15.428 10.1479C15.428 9.91474 15.4408 9.67836 15.428 9.44519C15.412 9.17368 15.2459 9.02036 15.0064 9.01398C14.754 9.00759 14.572 9.17048 14.5656 9.45477C14.5528 9.92112 14.5528 10.3907 14.5656 10.8602C14.572 11.119 14.7572 11.2914 14.9872 11.2978C15.2268 11.3042 15.4152 11.1222 15.4312 10.8506C15.444 10.6175 15.4312 10.3843 15.4312 10.1479H15.428Z" fill="white"/>
<path d="M13.0835 17.3412C13.5594 18.0694 14.0162 18.7594 14.4665 19.4557C14.5081 19.5196 14.5464 19.5963 14.5464 19.6697C14.5528 20.5066 14.5496 21.3467 14.5496 22.2059H10.6143C10.6878 20.9953 10.4898 19.8486 9.70398 18.7785C10.8539 18.2898 11.9591 17.8203 13.0835 17.3444V17.3412Z" fill="#FDDE01"/>
<path d="M22.733 14.9551H24.838C24.838 15.1468 24.8316 15.332 24.838 15.5109C24.854 15.7856 25.0297 15.9677 25.2724 15.9709C25.5312 15.9741 25.7037 15.792 25.7132 15.4949C25.7196 15.3288 25.7196 15.1627 25.726 14.9966C25.726 14.9903 25.7388 14.9807 25.7611 14.9551H27.8246C27.8246 15.233 27.8246 15.5109 27.8246 15.792C27.8246 16.2616 27.8278 16.7279 27.8246 17.1975C27.815 17.8299 27.3838 18.309 26.7546 18.325C25.7803 18.3474 24.8029 18.3442 23.8255 18.325C23.2186 18.3154 22.7618 17.8682 22.7426 17.2709C22.7203 16.5107 22.7362 15.7505 22.7362 14.9519L22.733 14.9551ZM25.266 17.7021C25.7452 17.6766 26.1125 17.4722 26.3425 17.0537C26.4703 16.8237 26.416 16.5906 26.2179 16.4596C26.0135 16.3191 25.7739 16.3702 25.6014 16.5874C25.3459 16.9068 25.2054 16.9068 24.9466 16.581C24.7837 16.3765 24.5537 16.3254 24.3525 16.4468C24.1481 16.5714 24.0874 16.8237 24.2184 17.0633C24.4451 17.4754 24.8061 17.6702 25.2628 17.7053L25.266 17.7021Z" fill="white"/>
<path d="M5.14274 14.9583H7.23494C7.23494 15.7729 7.27008 16.5714 7.22217 17.3668C7.19023 17.929 6.72068 18.3186 6.14892 18.3282C5.18427 18.3442 4.21642 18.3442 3.24857 18.3282C2.60334 18.3154 2.16255 17.8395 2.15616 17.1943C2.14977 16.4564 2.15616 15.7154 2.15616 14.9583H4.26433C4.26433 15.1404 4.25794 15.3225 4.26433 15.5045C4.27391 15.7888 4.43362 15.9613 4.68277 15.9709C4.93831 15.9805 5.12357 15.7952 5.13954 15.5045C5.14912 15.3321 5.13954 15.1564 5.13954 14.9551L5.14274 14.9583ZM4.6668 17.7022C5.14593 17.6862 5.52604 17.485 5.76241 17.0537C5.88699 16.8269 5.82949 16.5874 5.63784 16.4596C5.43341 16.3191 5.19704 16.3702 5.02455 16.5874C4.77221 16.9068 4.63486 16.9036 4.36974 16.5778C4.20364 16.3734 3.98006 16.3223 3.77563 16.4468C3.56481 16.5746 3.50731 16.8206 3.63828 17.0633C3.85868 17.4626 4.21003 17.6606 4.6668 17.7054V17.7022Z" fill="white"/>
<path d="M29.0929 24.8253V25.8762H25.7358V24.8285C25.9402 24.8285 26.1414 24.8349 26.3427 24.8285C26.6653 24.8125 26.841 24.6401 26.8314 24.3685C26.8218 24.1066 26.6525 23.9629 26.3331 23.9565C26.1414 23.9533 25.9466 23.9565 25.7198 23.9565C25.7358 23.3815 25.6208 22.8385 25.9402 22.3179C26.2341 21.8387 26.4577 21.3181 26.7196 20.7974C27.483 21.1168 28.2305 21.4235 28.9715 21.7429C29.0322 21.7685 29.0993 21.8675 29.1025 21.9314C29.1121 22.5926 29.1089 23.2538 29.1089 23.9565C28.8853 23.9565 28.684 23.9501 28.4828 23.9565C28.2049 23.9661 28.0196 24.1386 28.0133 24.3781C28.0069 24.6145 28.1857 24.8062 28.4604 24.8253C28.6617 24.8413 28.8693 24.8253 29.0993 24.8253H29.0929Z" fill="#FDDE01"/>
<path d="M9.91821 6.60233H20.0662V7.61808H9.91821V6.60233Z" fill="white"/>
<path d="M0.875268 23.9214C0.875268 23.2442 0.87208 22.583 0.881662 21.9218C0.881662 21.8579 0.951926 21.7621 1.01262 21.7365C1.75367 21.4203 2.49792 21.1136 3.26453 20.7942C3.59353 21.4522 3.96727 22.0719 4.21322 22.7427C4.33779 23.0845 4.23558 23.5093 4.23558 23.9245H0.87207L0.875268 23.9214Z" fill="#FDDE01"/>
<path d="M19.3376 24.9658H15.4535V23.1227H19.3376V24.9658Z" fill="#FDDE01"/>
<path d="M10.6366 24.9498V23.1291H14.5239V24.9498H10.6366Z" fill="#FDDE01"/>
<path d="M6.13626 20.791C6.69844 21.0274 7.22867 21.2478 7.78446 21.4778C7.61836 22.1422 7.45866 22.8002 7.29256 23.4582C7.16799 23.9501 7.16798 23.9501 6.65052 23.9501C6.165 23.9501 5.67947 23.9501 5.13965 23.9501C5.19714 23.4262 5.02786 22.9247 5.30575 22.4296C5.60281 21.9058 5.85197 21.3564 6.13626 20.791Z" fill="#FDDE01"/>
<path d="M22.1931 21.481C22.7457 21.251 23.2792 21.0274 23.8414 20.7942C24.1704 21.4522 24.5473 22.0719 24.7932 22.7427C24.9178 23.0845 24.8156 23.5125 24.8156 23.9533C24.6495 23.9533 24.4802 23.9533 24.3077 23.9533C23.9084 23.9533 23.5092 23.9405 23.1099 23.9597C22.8863 23.9693 22.7841 23.9054 22.7298 23.6786C22.5637 22.9503 22.3752 22.2252 22.1899 21.4842L22.1931 21.481Z" fill="#FDDE01"/>
<path d="M28.7384 14.048H21.8262V13.3772H28.7384V14.048Z" fill="white"/>
<path d="M1.23291 14.0416V13.3836H8.16435V14.0416H1.23291Z" fill="white"/>
<path d="M16.4886 5.69184V3.03107C16.8943 3.00232 17.5779 3.28021 17.9452 3.62519C17.8079 3.72101 17.6673 3.80726 17.5395 3.90948C17.3383 4.06919 17.3032 4.31194 17.4341 4.50679C17.5683 4.70483 17.8047 4.75914 18.0283 4.63137C18.2199 4.51957 18.3988 4.3886 18.6575 4.21612C18.8651 4.71441 19.0568 5.18077 19.2708 5.69184H16.4886Z" fill="#FDDE01"/>
<path d="M11.3174 4.21307C11.5793 4.38556 11.7518 4.51333 11.937 4.62193C12.1702 4.76248 12.4194 4.70497 12.5535 4.49415C12.6781 4.29611 12.6334 4.05975 12.4289 3.90004C12.3076 3.80421 12.1734 3.72116 12.0169 3.61256C12.4673 3.27078 12.94 3.06635 13.4926 2.99927V5.6888H10.7104C10.9181 5.18411 11.1097 4.72415 11.3174 4.21307Z" fill="#FDDE01"/>
<path d="M15.5784 1.93558V5.68238H14.4061V1.93558H15.5784Z" fill="#FDDE01"/>
<path d="M0.894043 24.8476H4.24796V25.8729H0.894043V24.8476Z" fill="#FDDE01"/>
<path d="M13.7061 16.3414V15.2011H16.2582V16.3414H13.7061Z" fill="white"/>
<path d="M24.0813 10.8665V12.4668H22.5001C22.4874 11.7865 23.3019 10.956 24.0813 10.8665Z" fill="#FDDE01"/>
<path d="M7.48717 12.4733H5.90283V10.8762C6.59278 10.8857 7.43925 11.7226 7.48717 12.4733Z" fill="#FDDE01"/>
<path d="M26.4734 12.47V10.8665C27.2272 10.94 28.0002 11.7162 28.0769 12.47H26.4734Z" fill="#FDDE01"/>
<path d="M19.6606 8.62747C20.242 8.81274 20.5934 9.34617 20.5646 9.96585C20.5391 10.5216 20.1557 11.0231 19.6606 11.1285V8.62747Z" fill="white"/>
<path d="M10.3173 8.63373V11.1348C9.80625 11.0102 9.42933 10.5023 9.41336 9.93376C9.39738 9.32367 9.75514 8.79663 10.3173 8.63373Z" fill="white"/>
<path d="M5.15576 25.8953V24.8508H6.93812C6.85826 25.1734 6.79119 25.4832 6.70175 25.7899C6.68897 25.8378 6.58676 25.8921 6.52607 25.8921C6.07888 25.9017 5.6317 25.8953 5.15576 25.8953Z" fill="#FDDE01"/>
<path d="M23.0397 24.8444H24.8125V25.8921C24.3429 25.8921 23.8702 25.8921 23.3942 25.8889C23.3527 25.8889 23.2856 25.8346 23.2729 25.7898C23.1898 25.4832 23.1195 25.1734 23.0365 24.8444H23.0397Z" fill="#FDDE01"/>
<path d="M25.5631 12.4669H25.0073V10.0681H25.5631V12.4669Z" fill="#FDDE01"/>
<path d="M4.99905 12.4669H4.41772V10.0872C4.41772 10.0872 4.44646 10.0584 4.46243 10.0584C4.82018 10.0244 4.99905 10.1809 4.99905 10.528C4.99905 11.0646 4.99905 11.6012 4.99905 12.1379C4.99905 12.2433 4.99905 12.3455 4.99905 12.4669Z" fill="#FDDE01"/>
<path d="M14.9903 18.6445C14.6772 18.1685 14.3929 17.7341 14.0863 17.2646H15.8974C15.5972 17.7245 15.3065 18.1621 14.9935 18.6445H14.9903Z" fill="white"/>
<path d="M3.92578 19.772V19.2322H5.47816V19.772H3.92578Z" fill="white"/>
<path d="M24.4965 19.7752V19.2354H26.0393V19.7752H24.4965Z" fill="white"/>
<path d="M4.19385 20.6856H5.20321C5.03392 21.0242 4.88059 21.334 4.70172 21.6918C4.52603 21.3436 4.37273 21.0369 4.19704 20.6856H4.19385Z" fill="white"/>
<path d="M24.7772 20.6888H25.7834C25.6141 21.0242 25.4576 21.3404 25.2819 21.695C25.103 21.3372 24.9497 21.0274 24.7772 20.6888Z" fill="white"/>
<path d="M14.9521 13.2942C14.3995 13.259 13.9492 13.0099 13.6585 12.502C13.5115 12.2433 13.5627 11.9941 13.7767 11.8599C13.9939 11.7226 14.2302 11.7897 14.3995 12.0388C14.7445 12.5403 15.23 12.5435 15.5718 12.0388C15.7443 11.7865 15.9743 11.7194 16.1947 11.8568C16.4119 11.9909 16.4598 12.2369 16.3192 12.4988C16.0605 12.9811 15.5175 13.3005 14.9489 13.2942H14.9521Z" fill="black"/>
<path d="M15.4248 10.1478C15.4248 10.381 15.4343 10.6173 15.4248 10.8505C15.4088 11.1252 15.2203 11.3041 14.9808 11.2977C14.7508 11.2913 14.5655 11.1188 14.5591 10.8601C14.5464 10.3938 14.5464 9.92419 14.5591 9.45465C14.5655 9.17036 14.7476 9.00746 14.9999 9.01385C15.2427 9.01705 15.4056 9.17356 15.4216 9.44506C15.4343 9.67824 15.4216 9.91142 15.4216 10.1478H15.4248Z" fill="black"/>
<path d="M25.2659 17.7022C24.8091 17.6671 24.4482 17.4722 24.2214 17.0602C24.0904 16.8238 24.1511 16.5715 24.3555 16.4437C24.5568 16.3223 24.7868 16.3734 24.9497 16.5779C25.2084 16.9005 25.3489 16.9037 25.6045 16.5843C25.777 16.367 26.0133 16.3191 26.2209 16.4565C26.4158 16.5906 26.4701 16.8206 26.3455 17.0506C26.1155 17.4722 25.7482 17.6767 25.2691 17.699L25.2659 17.7022Z" fill="black"/>
<path d="M4.66664 17.6989C4.21306 17.6542 3.86171 17.4562 3.63812 17.0569C3.50396 16.8173 3.56465 16.5714 3.77546 16.4404C3.97989 16.3158 4.20348 16.3669 4.36958 16.5714C4.63151 16.8972 4.77205 16.9004 5.02439 16.581C5.19688 16.3606 5.43324 16.3126 5.63767 16.4532C5.82933 16.5842 5.88683 16.8205 5.76225 17.0473C5.52588 17.4785 5.14577 17.683 4.66664 17.6957V17.6989Z" fill="black"/>
<path d="M2.98659 11.0199C2.76299 11.1157 2.64481 10.9656 2.47232 11.0391C2.38289 11.0774 2.37331 11.1157 2.14333 11.384C1.83669 11.7418 1.74405 11.8057 1.76002 11.9271C1.77599 12.0357 1.87501 12.0548 1.89737 12.2177C1.90695 12.2912 1.89099 12.371 1.8814 12.4828H3.49448V10.8282C3.31241 10.8953 3.14629 10.9496 2.98339 11.0199H2.98659Z" fill="#FDDE01"/>
<path d="M20.2608 18.8042C19.9733 18.6636 19.7178 18.5359 19.459 18.4113C19.2259 18.2995 19.1109 18.1046 19.1524 17.9098C19.1748 17.8363 19.2035 17.7788 19.2354 17.7309C19.245 17.7149 19.2578 17.7022 19.2706 17.6894C19.277 17.683 19.2802 17.6766 19.2866 17.6734C19.2993 17.6606 19.3089 17.6511 19.3217 17.6415C19.3377 17.6287 19.3536 17.6191 19.3696 17.6095C19.4431 17.568 19.5166 17.5584 19.5677 17.5552C19.5868 17.5552 19.6028 17.5552 19.622 17.5552C19.6379 17.5552 19.6475 17.5552 19.6475 17.5552L18.0504 16.8813C18.0504 16.8813 18.0504 16.8813 18.0536 16.8813C18.2516 17.0218 18.2804 17.1847 18.2644 17.3061C18.2644 17.3221 18.258 17.3412 18.2548 17.3572C18.2548 17.3604 18.2548 17.3636 18.2548 17.3668C18.2484 17.3891 18.2421 17.4115 18.2325 17.4275C18.2261 17.4371 18.2229 17.4498 18.2165 17.4594C18.1079 17.6606 17.8875 17.7341 17.6383 17.6415C17.3956 17.5488 17.1528 17.4466 16.9005 17.3412C16.4277 18.0631 15.9614 18.769 15.5014 19.4813C15.4631 19.542 15.4439 19.6283 15.4439 19.7017C15.4407 20.4939 15.4439 21.2829 15.4439 22.075C15.4439 22.1102 15.4567 22.1485 15.4663 22.1996H19.376C19.3025 20.989 19.4942 19.8423 20.2672 18.7978L20.2608 18.8042Z" fill="#FDDE01"/>
</svg>
