<svg width="15" height="15" viewBox="0 0 15 15" fill="none" xmlns="http://www.w3.org/2000/svg">
<path d="M1.75789 9.66683L0.966222 13.0835C0.938913 13.2084 0.939849 13.3378 0.968963 13.4623C0.998076 13.5868 1.05463 13.7032 1.1345 13.803C1.21437 13.9029 1.31552 13.9836 1.43059 14.0393C1.54565 14.0951 1.67171 14.1244 1.79956 14.1252C1.85913 14.1312 1.91915 14.1312 1.97872 14.1252L5.41622 13.3335L12.0162 6.7585L8.33289 3.0835L1.75789 9.66683Z" fill="#2c3e50"/>
<path d="M14.092 3.46722L11.6336 1.00889C11.472 0.848084 11.2533 0.757812 11.0253 0.757812C10.7973 0.757813 10.5786 0.848084 10.417 1.00889L9.05029 2.37556L12.7295 6.05472L14.0961 4.68806C14.1761 4.60767 14.2394 4.51231 14.2825 4.40742C14.3256 4.30253 14.3476 4.19017 14.3472 4.07678C14.3468 3.96338 14.3241 3.85118 14.2803 3.74658C14.2365 3.64199 14.1725 3.54706 14.092 3.46722Z" fill="#2c3e50"/>
</svg>
