<svg width="18" height="10" viewBox="0 0 18 10" fill="none" xmlns="http://www.w3.org/2000/svg">
<g clip-path="url(#clip0_35743_107541)">
<path d="M0.652157 4.61998C1.0908 4.11212 1.56651 3.63436 2.07574 3.19026C4.06378 1.46669 6.32159 0.546921 8.66241 0.499483C11.0032 0.452046 13.3662 1.28089 15.6198 3.04531C16.2365 3.53243 16.8158 4.06086 17.3533 4.62657C17.4413 4.71888 17.4928 4.83744 17.4991 4.96195C17.5054 5.08646 17.4661 5.2092 17.3879 5.30915C16.7894 6.12081 16.0741 6.84828 15.2629 7.4702C15.0655 7.62042 14.864 7.76229 14.6583 7.89582L13.8656 7.10519C14.1022 6.95893 14.3346 6.79817 14.5573 6.62555C15.1711 6.15712 15.723 5.61952 16.2009 5.02452C15.7913 4.61695 15.3575 4.23199 14.9018 3.87152C12.8737 2.2784 10.7376 1.53126 8.67901 1.5721C6.62042 1.61295 4.61855 2.43784 2.83388 3.98484C2.46972 4.30154 2.12425 4.63719 1.79905 4.99026C2.39049 5.64595 3.06367 6.2305 3.80369 6.73096C5.39513 7.82709 7.30721 8.42064 9.27114 8.42818C9.40948 8.42818 9.55751 8.42818 9.70001 8.41632L10.6933 9.39275C10.224 9.46122 9.75007 9.4969 9.27529 9.49948C7.07856 9.49577 4.93823 8.83682 3.15484 7.61515C2.20079 6.9679 1.34792 6.19505 0.621721 5.31969C0.537921 5.21894 0.494897 5.09287 0.500483 4.96445C0.506069 4.83603 0.559894 4.71378 0.652157 4.61998ZM9.18813 2.06888C9.66017 2.07097 10.1252 2.17762 10.5465 2.38038C10.9679 2.58314 11.3339 2.87646 11.6157 3.23716C11.8975 3.59786 12.0874 4.01604 12.1703 4.45867C12.2532 4.90129 12.2269 5.35621 12.0934 5.78748C12.0204 6.01869 11.9167 6.2401 11.7849 6.44634L13.5502 8.23052C13.5639 8.24342 13.5747 8.25891 13.5818 8.276C13.5889 8.2931 13.5922 8.31142 13.5914 8.32978C13.5906 8.34815 13.5858 8.36616 13.5773 8.38265C13.5687 8.39914 13.5567 8.41375 13.5419 8.42554L12.6745 9.17664C12.6608 9.18967 12.6445 9.19983 12.6265 9.20648C12.6085 9.21313 12.5892 9.21611 12.5699 9.21524C12.5506 9.21438 12.5318 9.20967 12.5145 9.20144C12.4972 9.1932 12.482 9.18161 12.4697 9.16742L10.7653 7.4333C10.3574 7.6689 9.89715 7.8099 9.42157 7.84492C8.94599 7.87994 8.46843 7.80801 8.0274 7.63492C7.65897 7.48893 7.32428 7.27536 7.04238 7.00636V6.99978C6.6926 6.6622 6.43512 6.24805 6.29252 5.79363C6.14992 5.3392 6.12656 4.8584 6.22447 4.39337C6.32239 3.92835 6.5386 3.49331 6.85415 3.1264C7.16969 2.7595 7.57493 2.47194 8.03432 2.28894C8.40214 2.14319 8.79666 2.0684 9.19504 2.06888H9.18813ZM10.9022 3.32862C10.6767 3.11437 10.4092 2.94426 10.115 2.82789C9.52312 2.59771 8.86005 2.59771 8.26812 2.82789C7.97472 2.94495 7.70788 3.11499 7.48232 3.32862C7.25689 3.5436 7.07824 3.79884 6.9566 4.07972C6.83787 4.35757 6.77679 4.6547 6.77675 4.95468C6.77662 5.25789 6.83923 5.55814 6.96101 5.83828C7.08279 6.11842 7.26134 6.37296 7.48647 6.58733C7.71143 6.80173 7.97854 6.9718 8.27254 7.08784C8.56653 7.20387 8.88165 7.2636 9.19989 7.2636C9.51812 7.2636 9.83324 7.20387 10.1272 7.08784C10.4212 6.9718 10.6883 6.80173 10.9133 6.58733C11.1384 6.37296 11.317 6.11842 11.4388 5.83828C11.5605 5.55814 11.6232 5.25789 11.623 4.95468C11.6199 4.65369 11.5541 4.35628 11.4293 4.07972C11.3077 3.79884 11.129 3.5436 10.9036 3.32862H10.9022ZM8.70668 3.4907C8.90928 3.49044 9.10741 3.54744 9.27597 3.65449C9.44454 3.76153 9.57598 3.91381 9.65363 4.09204C9.73129 4.27027 9.75168 4.46644 9.71222 4.65572C9.67277 4.845 9.57523 5.01886 9.43197 5.15531C9.28872 5.29177 9.10617 5.38466 8.90745 5.42225C8.70873 5.45983 8.50277 5.44041 8.31565 5.36644C8.12852 5.29247 7.96865 5.16729 7.85626 5.00673C7.74387 4.84617 7.68403 4.65746 7.6843 4.46449C7.6843 4.20623 7.79202 3.95854 7.98375 3.77592C8.17548 3.59329 8.43553 3.4907 8.70668 3.4907Z" fill="black"/>
</g>
<defs>
<clipPath id="clip0_35743_107541">
<rect width="17" height="9" fill="white" transform="translate(0.5 0.5)"/>
</clipPath>
</defs>
</svg>
