<svg width="18" height="18" viewBox="0 0 18 18" fill="none" xmlns="http://www.w3.org/2000/svg">
<circle cx="9" cy="9" r="9" fill="#EF9B9B"/>
<path fill-rule="evenodd" clip-rule="evenodd" d="M6 5C5.44772 5 5 5.44772 5 6V12.0001C5 12.5524 5.44772 13.0001 6 13.0001H12.0001C12.5524 13.0001 13.0001 12.5524 13.0001 12.0001V6C13.0001 5.44772 12.5524 5 12.0001 5H6ZM9.94206 9.03743L11.0241 8.7475C11.3658 8.65595 11.8853 8.77237 11.9332 8.95125C11.9811 9.13013 11.5895 9.49071 11.2478 9.58227L8.91286 10.2079C8.22947 10.391 6.75086 10.3399 6.75086 10.3399L6.06464 9.37341L6.40633 9.28185L7.20852 9.76988L8.40444 9.44943L6.80008 8.47337L7.36957 8.32078L9.94206 9.03743Z" fill="white"/>
<path d="M8.19995 4.99988H9.79998V7.39991L8.99996 6.5999L8.19995 7.39991V4.99988Z" fill="#EF9B9B"/>
</svg>
