<svg width="18" height="18" viewBox="0 0 18 18" fill="none" xmlns="http://www.w3.org/2000/svg">
<circle cx="9" cy="9" r="9" fill="#356EFD"/>
<path d="M8.85948 2.58762C8.64662 2.58762 8.46651 2.74322 8.43906 2.95083L8.26039 3.32608H7.75473C7.55247 3.3256 7.37766 3.46654 7.33817 3.66138L7.15951 4.53677H6.57487C6.36875 4.53677 6.19249 4.68243 6.15735 4.88202L5.8501 6.60484L8.53879 5.3336H8.53928C8.80896 5.20591 9.12343 5.20591 9.3936 5.3336L12.1501 6.63752L11.8419 4.88202C11.8067 4.68197 11.6305 4.53583 11.4239 4.53583H10.8397L10.6611 3.66044H10.6606C10.6211 3.46511 10.4468 3.32466 10.244 3.32513H9.73981L9.56115 2.95073C9.5337 2.74312 9.35359 2.58752 9.14073 2.58752L8.85948 2.58762Z" fill="#F9F9F9"/>
<path d="M4.55234 9.02034L5.5835 11.338C5.99802 11.0397 6.49002 10.8841 6.99134 10.893C7.52302 10.8866 8.04304 11.0609 8.47434 11.3914C8.67507 11.5292 8.75769 11.5875 8.99295 11.5875H8.99995C9.23895 11.5875 9.32158 11.5292 9.51997 11.3929C9.95083 11.0619 10.4713 10.8875 11.0039 10.8945C11.5048 10.8856 11.9964 11.0412 12.4105 11.3395L13.4477 9.0203C13.5751 8.73676 13.4617 8.3974 13.1947 8.26156L9.21052 6.23826C9.07748 6.17058 8.9225 6.17058 8.78947 6.23826L4.80532 8.26156C4.53831 8.3974 4.4249 8.7368 4.55234 9.02034Z" fill="#F9F9F9"/>
<path d="M5.3999 12.0375L5.9999 12.4875C6.35546 12.7541 6.84435 12.7541 7.1999 12.4875V12.4875C7.55546 12.2208 8.04435 12.2208 8.3999 12.4875V12.4875C8.75546 12.7541 9.24435 12.7541 9.5999 12.4875V12.4875C9.95546 12.2208 10.4443 12.2208 10.7999 12.4875V12.4875C11.1555 12.7541 11.6443 12.7541 11.9999 12.4875L12.5999 12.0375" stroke="#F9F9F9" stroke-width="0.8"/>
<path d="M5.3999 13.3876L5.9999 13.8376C6.35546 14.1042 6.84435 14.1042 7.1999 13.8376V13.8376C7.55546 13.5709 8.04435 13.5709 8.3999 13.8376V13.8376C8.75546 14.1042 9.24435 14.1042 9.5999 13.8376V13.8376C9.95546 13.5709 10.4443 13.5709 10.7999 13.8376V13.8376C11.1555 14.1042 11.6443 14.1042 11.9999 13.8376L12.5999 13.3876" stroke="#F9F9F9" stroke-width="0.8"/>
</svg>
