<svg width="18" height="18" viewBox="0 0 18 18" fill="none" xmlns="http://www.w3.org/2000/svg">
<circle cx="9" cy="9" r="9" fill="#81C0AF"/>
<path d="M13.3885 7.01997L9.41222 5.03182C9.32745 4.98939 9.22761 4.98939 9.14281 5.03182L5.16652 7.01997C5.06447 7.07101 5 7.17528 5 7.28941V12.7568C5 12.9232 5.13486 13.0581 5.30124 13.0581H6.29533C6.46168 13.0581 6.59657 12.9232 6.59657 12.7568V8.08768H11.9585V12.7568C11.9585 12.9232 12.0934 13.0581 12.2598 13.0581H13.2539C13.4202 13.0581 13.5551 12.9232 13.5551 12.7568V7.28941C13.5551 7.17528 13.4906 7.07101 13.3885 7.01997Z" fill="white"/>
<path d="M11.2643 8.57007H9.27614C9.15969 8.57007 9.06529 8.66446 9.06529 8.78092V10.5582H7.288C7.17154 10.5582 7.07715 10.6526 7.07715 10.7691V12.7572C7.07715 12.8737 7.17154 12.9681 7.288 12.9681H11.2643C11.3807 12.9681 11.4751 12.8737 11.4751 12.7572V8.78095C11.4752 8.66446 11.3807 8.57007 11.2643 8.57007ZM9.487 11.2782L9.97199 11.7632L9.487 12.2482V11.2782ZM9.06529 12.2481L8.5803 11.7632L9.06529 11.2782V12.2481ZM9.78524 10.9799H10.7552L10.2702 11.4649L9.78524 10.9799ZM9.78524 10.5582L10.2702 10.0732L10.7552 10.5582H9.78524ZM11.0534 10.26L10.5685 9.77501L11.0534 9.29002V10.26V10.26ZM10.2702 9.47679L9.78524 8.9918H10.7552L10.2702 9.47679ZM9.97199 9.77501L9.487 10.26V9.29005L9.97199 9.77501ZM8.28206 11.4649L7.79707 10.9799H8.76702L8.28206 11.4649ZM7.98384 11.7632L7.49885 12.2481V11.2782L7.98384 11.7632ZM8.28206 12.0614L8.76705 12.5464H7.7971L8.28206 12.0614ZM10.2702 12.0614L10.7552 12.5464H9.78524L10.2702 12.0614ZM10.5684 11.7632L11.0534 11.2782V12.2481L10.5684 11.7632Z" fill="white"/>
</svg>
