<svg width="18" height="18" viewBox="0 0 18 18" fill="none" xmlns="http://www.w3.org/2000/svg">
<circle cx="9" cy="9" r="9" fill="#81C0AF"/>
<path d="M8.24246 5.98972H8.83204C8.83204 6.02137 8.82135 6.06331 8.82135 6.10566C8.82135 7.03197 9.56881 7.77896 10.4946 7.77896C11.421 7.77896 12.1679 7.0315 12.1679 6.10566C12.1679 5.84253 12.1046 5.59009 11.9994 5.3689H11.9574H8.98943V5.37959L8.20004 5.80059C8.09479 5.84253 8.13713 5.98972 8.24239 5.98972L8.24246 5.98972Z" fill="white"/>
<path d="M8.88394 4.98983C8.9049 5.03177 8.95753 5.06343 9.01015 5.06343H11.9465C12.0308 5.06343 12.0937 5.00011 12.0937 4.91624L12.0941 4.42164C12.0941 4.34805 12.0308 4.28473 11.9572 4.27446L8.58909 4.00063C8.47315 3.98994 8.38928 4.11658 8.45218 4.22183L8.88394 4.98983Z" fill="white"/>
<path d="M8.695 12.0207L11.7683 8.13708H9.1999C8.67364 8.13708 8.17904 8.36856 7.83162 8.7579L6.88435 9.84211C6.7684 9.97902 6.57929 10.021 6.41071 9.96833L5.22126 9.53662C4.85288 9.39971 4.44256 9.59994 4.30565 9.96833C4.16874 10.3367 4.35828 10.747 4.73735 10.8839L5.92681 11.3156C6.65288 11.5788 7.45296 11.3683 7.95828 10.7894L8.69505 9.94736L8.695 12.0207Z" fill="white"/>
<path d="M12.4099 8.29492L9.13678 12.4524H11.5785V13.0629H8.69482V13.5682C8.69482 13.8104 8.88436 13.9999 9.12653 13.9999H12.5682C12.8103 13.9999 12.9999 13.8104 12.9999 13.5682L12.9995 9.31583C12.9995 8.88412 12.768 8.50547 12.4099 8.29496L12.4099 8.29492Z" fill="white"/>
</svg>
