<svg width="18" height="18" viewBox="0 0 18 18" fill="none" xmlns="http://www.w3.org/2000/svg">
<circle cx="9" cy="9" r="9" fill="#81C0AF"/>
<path d="M4.4 10.567C4.4 10.3461 4.57909 10.167 4.8 10.167H10.5667C10.7876 10.167 10.9667 10.3461 10.9667 10.567V11.5337H4.8C4.57909 11.5337 4.4 11.3546 4.4 11.1336V10.567Z" fill="#81C0AF" stroke="white" stroke-width="0.8"/>
<path d="M10.9333 11.9335H13.6C14.0419 11.9335 14.4 11.5753 14.4 11.1335V9.66481C14.4 9.45264 14.3158 9.24916 14.1657 9.09913L12.901 7.83441C12.751 7.68438 12.5475 7.6001 12.3353 7.6001H11.7333C11.2915 7.6001 10.9333 7.95827 10.9333 8.4001V11.9335Z" fill="white"/>
<rect x="4" y="5.86694" width="6.68576" height="3.90003" rx="0.514286" fill="white"/>
<line x1="5.3714" y1="6.95954" x2="5.3714" y2="8.67384" stroke="#81C0AF" stroke-width="0.514286" stroke-linecap="round"/>
<line x1="6.4859" y1="6.9599" x2="6.4859" y2="8.6742" stroke="#81C0AF" stroke-width="0.514286" stroke-linecap="round"/>
<line x1="7.59992" y1="6.9599" x2="7.59992" y2="8.6742" stroke="#81C0AF" stroke-width="0.514286" stroke-linecap="round"/>
<line x1="8.71417" y1="6.95966" x2="8.71417" y2="8.67396" stroke="#81C0AF" stroke-width="0.514286" stroke-linecap="round"/>
<line x1="9.82843" y1="6.9599" x2="9.82843" y2="8.6742" stroke="#81C0AF" stroke-width="0.514286" stroke-linecap="round"/>
<path d="M5.9167 11.9338C5.9167 12.2744 5.6406 12.5505 5.30002 12.5505C4.95944 12.5505 4.68335 12.2744 4.68335 11.9338C4.68335 11.5932 4.95944 11.3171 5.30002 11.3171C5.6406 11.3171 5.9167 11.5932 5.9167 11.9338Z" fill="#81C0AF" stroke="white" stroke-width="0.5"/>
<circle cx="7.46677" cy="11.9338" r="0.616673" fill="#81C0AF" stroke="white" stroke-width="0.5"/>
<circle cx="12.6667" cy="11.9338" r="0.616673" fill="#81C0AF" stroke="white" stroke-width="0.5"/>
</svg>
