<svg width="18" height="18" viewBox="0 0 18 18" fill="none" xmlns="http://www.w3.org/2000/svg">
<circle cx="9" cy="9" r="9" fill="#81C0AF"/>
<path d="M11.1875 4H6.8105C6.6985 4 6.111 4.0325 5.559 4.6755C5.0155 5.308 5 5.931 5 6V11.5C5 11.7652 5.10536 12.0196 5.29289 12.2071C5.48043 12.3946 5.73478 12.5 6 12.5H6.5L5.5 14H6.6765L7.01 13.5H11.01L11.3485 14H12.5L11.5 12.5H12C12.2652 12.5 12.5196 12.3946 12.7071 12.2071C12.8946 12.0196 13 11.7652 13 11.5V6C13.0005 5.906 12.984 5.283 12.4355 4.6675C11.8575 4.0185 11.2545 4 11.1875 4ZM8 5H9.99999V6H8V5ZM6.75 11.5C6.55102 11.4999 6.36022 11.4208 6.21956 11.2801C6.07891 11.1393 5.99993 10.9485 6 10.7495C6.00007 10.5505 6.07917 10.3597 6.21992 10.2191C6.36066 10.0784 6.55152 9.99943 6.7505 9.9995C6.94948 9.99957 7.14028 10.0787 7.28093 10.2194C7.42158 10.3602 7.50056 10.551 7.5005 10.75C7.50043 10.949 7.42132 11.1398 7.28058 11.2804C7.13983 11.4211 6.94898 11.5001 6.75 11.5ZM11.25 11.5C11.051 11.4999 10.8602 11.4208 10.7196 11.2801C10.5789 11.1393 10.4999 10.9485 10.5 10.7495C10.5001 10.5505 10.5792 10.3597 10.7199 10.2191C10.8607 10.0784 11.0515 9.99943 11.2505 9.9995C11.4495 9.99957 11.6403 10.0787 11.7809 10.2194C11.9216 10.3602 12.0006 10.551 12.0005 10.75C12.0004 10.949 11.9213 11.1398 11.7806 11.2804C11.6398 11.4211 11.449 11.5001 11.25 11.5ZM12 9H6V7H12V9Z" fill="white"/>
</svg>
