<svg width="18" height="18" viewBox="0 0 18 18" fill="none" xmlns="http://www.w3.org/2000/svg">
<path d="M7.46737 17.1199C7.46735 17.1199 7.46732 17.12 7.4673 17.1201L7.45819 17.1535L7.45545 17.1764C7.45438 17.1806 7.45232 17.1879 7.44887 17.1974C7.43927 17.2241 7.42086 17.2632 7.38741 17.303C7.33542 17.3649 7.18972 17.4996 6.78034 17.4996H4.9205C4.60773 17.4996 4.36559 17.3735 4.19242 17.1638C4.01278 16.9462 3.89062 16.615 3.89062 16.1997V13.32C3.89062 13.32 3.89063 13.3199 3.89064 13.3199C3.89082 13.3184 3.89326 13.2994 3.91666 13.276C3.94007 13.2526 3.95905 13.2502 3.9605 13.25C3.96057 13.25 3.9606 13.25 3.96058 13.25H6.21039C6.21037 13.25 6.21039 13.25 6.21047 13.25C6.21192 13.2502 6.2309 13.2526 6.2543 13.276C6.27771 13.2994 6.28014 13.3184 6.28033 13.3199C6.28034 13.3199 6.28034 13.32 6.28034 13.32V14.3999C6.28034 14.4038 6.28034 14.4079 6.28034 14.4119C6.2803 14.6045 6.28024 14.9385 6.36164 15.2777C6.44427 15.622 6.62358 16.0261 7.0215 16.3012L7.46508 16.6616C7.47163 16.6722 7.50178 16.7271 7.49908 16.8729C7.49781 16.9412 7.48939 17.0063 7.48078 17.0551C7.47659 17.079 7.47261 17.0975 7.47001 17.1088L7.46737 17.1199Z" stroke="black"/>
<path d="M15.6986 6.0312V6.5312H16.1986C16.6315 6.5312 16.9484 6.6805 17.1571 6.89423C17.3682 7.11044 17.4985 7.42333 17.4985 7.80105C17.4985 8.20349 17.3695 8.52307 17.1642 8.73841C16.9624 8.94999 16.6493 9.1009 16.1986 9.1009H15.6986V9.6009V14.6705V14.6707V14.6708V14.671V14.6712V14.6714V14.6715V14.6717V14.6719V14.672V14.6722V14.6724V14.6725V14.6727V14.6729V14.673V14.6732V14.6734V14.6735V14.6737V14.6739V14.674V14.6742V14.6743V14.6745V14.6747V14.6748V14.675V14.6751V14.6753V14.6755V14.6756V14.6758V14.6759V14.6761V14.6762V14.6764V14.6765V14.6767V14.6768V14.677V14.6771V14.6773V14.6774V14.6776V14.6777V14.6779V14.678V14.6782V14.6783V14.6784V14.6786V14.6787V14.6789V14.679V14.6791V14.6793V14.6794V14.6796V14.6797V14.6798V14.68V14.6801V14.6802V14.6804V14.6805V14.6807V14.6808V14.6809V14.681V14.6812V14.6813V14.6814V14.6816V14.6817V14.6818V14.682V14.6821V14.6822V14.6823V14.6825V14.6826V14.6827V14.6828V14.683V14.6831V14.6832V14.6833V14.6834V14.6836V14.6837V14.6838V14.6839V14.684V14.6842V14.6843V14.6844V14.6845V14.6846V14.6847V14.6848V14.685V14.6851V14.6852V14.6853V14.6854V14.6855V14.6856V14.6857V14.6859V14.686V14.6861V14.6862V14.6863V14.6864V14.6865V14.6866V14.6867V14.6868V14.6869V14.687V14.6871V14.6872V14.6873V14.6874V14.6875V14.6876V14.6877V14.6878V14.6879V14.688V14.6881V14.6882V14.6883V14.6884V14.6885V14.6886V14.6887V14.6888V14.6889V14.689V14.6891V14.6892V14.6892V14.6893V14.6894V14.6895V14.6896V14.6897V14.6898V14.6899V14.69V14.6901V14.6901V14.6902V14.6903V14.6904V14.6905V14.6906V14.6906V14.6907V14.6908V14.6909V14.691V14.6911V14.6911V14.6912V14.6913V14.6914V14.6915V14.6915V14.6916V14.6917V14.6918V14.6918V14.6919V14.692V14.6921V14.6922V14.6922V14.6923V14.6924V14.6924V14.6925V14.6926V14.6927V14.6927V14.6928V14.6929V14.6929V14.693V14.6931V14.6932V14.6932V14.6933V14.6934V14.6934V14.6935V14.6936V14.6936V14.6937V14.6938V14.6938V14.6939V14.6939V14.694V14.6941V14.6941V14.6942V14.6943V14.6943V14.6944V14.6944V14.6945V14.6946V14.6946V14.6947V14.6947V14.6948V14.6949V14.6949V14.695V14.695V14.6951V14.6951V14.6952V14.6952V14.6953V14.6954V14.6954V14.6955V14.6955V14.6956V14.6956V14.6957V14.6957V14.6958V14.6958V14.6959V14.6959V14.696V14.696V14.6961V14.6961V14.6962V14.6962V14.6963V14.6963V14.6964V14.6964V14.6965V14.6965V14.6966V14.6966V14.6966V14.6967V14.6967V14.6968V14.6968V14.6969V14.6969V14.6969V14.697V14.697V14.6971V14.6971V14.6972V14.6972V14.6972V14.6973V14.6973V14.6973V14.6974V14.6974V14.6975V14.6975V14.6975V14.6976V14.6976V14.6977V14.6977V14.6977V14.6978V14.6978V14.6978V14.6979V14.6979V14.6979V14.698V14.698V14.698V14.6981V14.6981V14.6981V14.6982V14.6982V14.6982V14.6983V14.6983V14.6983V14.6983V14.6984V14.6984V14.6984V14.6985V14.6985V14.6985V14.6986V14.6986V14.6986V14.6986V14.6987V14.6987V14.6987V14.6987V14.6988V14.6988V14.6988V14.6988V14.6989V14.6989V14.6989V14.6989V14.699V14.699V14.699V14.699V14.6991V14.6991V14.6991V14.6991V14.6992V14.6992V14.6992V14.6992V14.6992V14.6993V14.6993V14.6993V14.6993V14.6993V14.6994V14.6994V14.6994V14.6994V14.6994V14.6995V14.6995V14.6995V14.6995V14.6995V14.6995V14.6996V14.6996V14.6996V14.6996V14.6996V14.6996V14.6997V14.6997V14.6997V14.6997V14.6997V14.6997V14.6998V14.6998V14.6998V14.6998V14.6998V14.6998V14.6998V14.6999V14.6999V14.6999V14.6999V14.6999V14.6999V14.6999V14.6999V14.7V14.7V14.7V14.7V14.7V14.7V14.7V14.7V14.7V14.7001V14.7001V14.7001V14.7001V14.7001V14.7001V14.7001V14.7001V14.7001V14.7001V14.7001V14.7002V14.7002V14.7002V14.7002V14.7002V14.7002V14.7002V14.7002V14.7002V14.7002V14.7002V14.7003V14.7003V14.7003V14.7003V14.7003V14.7003V14.7003V14.7003V14.7003V14.7004V14.7004V14.7004V14.7004V14.7004V14.7004V14.7004V14.7004V14.7004V14.7004V14.7004V14.7005V14.7005V14.7005V14.7005C15.6986 14.8662 15.6105 14.9752 15.4277 15.0228C15.2258 15.0754 14.9773 15.0218 14.8123 14.8569L14.8124 14.8568L14.8074 14.852L11.5077 11.6423L11.4939 11.6289L11.4792 11.6166C10.8718 11.1105 10.1024 10.7508 9.23923 10.7508H3.50971C1.79167 10.7508 0.5 9.49061 0.5 7.83105V7.77106C0.5 6.07546 1.82842 4.63893 3.51365 4.61136H9.20923C9.98638 4.61136 10.7689 4.40744 11.4192 3.86553L11.4304 3.85617L11.441 3.84618L14.8008 0.696447L14.8066 0.690932L14.8123 0.685231C14.9726 0.52497 15.2141 0.475982 15.4137 0.534201C15.5939 0.586745 15.6986 0.706951 15.6986 0.90163V0.901806V0.90198V0.902155V0.902328V0.902501V0.902673V0.902844V0.903015V0.903185V0.903354V0.903522V0.90369V0.903858V0.904024V0.90419V0.904356V0.90452V0.904684V0.904848V0.90501V0.905172V0.905333V0.905494V0.905654V0.905813V0.905972V0.90613V0.906288V0.906444V0.9066V0.906756V0.906911V0.907065V0.907218V0.907371V0.907523V0.907675V0.907826V0.907976V0.908126V0.908275V0.908423V0.908571V0.908718V0.908865V0.909011V0.909156V0.909301V0.909445V0.909588V0.909731V0.909873V0.910015V0.910156V0.910296V0.910436V0.910575V0.910714V0.910851V0.910989V0.911125V0.911261V0.911397V0.911532V0.911666V0.9118V0.911933V0.912065V0.912197V0.912328V0.912459V0.912589V0.912719V0.912848V0.912976V0.913104V0.913231V0.913358V0.913484V0.913609V0.913734V0.913858V0.913982V0.914105V0.914227V0.914349V0.914471V0.914592V0.914712V0.914832V0.914951V0.915069V0.915187V0.915305V0.915422V0.915538V0.915654V0.915769V0.915883V0.915998V0.916111V0.916224V0.916336V0.916448V0.91656V0.916671V0.916781V0.916891V0.917V0.917108V0.917216V0.917324V0.917431V0.917537V0.917643V0.917749V0.917854V0.917958V0.918062V0.918165V0.918268V0.91837V0.918472V0.918573V0.918674V0.918774V0.918873V0.918973V0.919071V0.919169V0.919267V0.919364V0.919461V0.919557V0.919652V0.919747V0.919842V0.919936V0.920029V0.920122V0.920215V0.920307V0.920398V0.92049V0.92058V0.92067V0.92076V0.920849V0.920937V0.921026V0.921113V0.9212V0.921287V0.921373V0.921459V0.921544V0.921629V0.921713V0.921797V0.92188V0.921963V0.922045V0.922127V0.922209V0.92229V0.92237V0.92245V0.92253V0.922609V0.922688V0.922766V0.922843V0.922921V0.922998V0.923074V0.92315V0.923225V0.9233V0.923375V0.923449V0.923523V0.923596V0.923669V0.923741V0.923813V0.923885V0.923956V0.924026V0.924096V0.924166V0.924235V0.924304V0.924373V0.924441V0.924508V0.924575V0.924642V0.924709V0.924774V0.92484V0.924905V0.92497V0.925034V0.925098V0.925161V0.925224V0.925287V0.925349V0.925411V0.925472V0.925533V0.925593V0.925654V0.925713V0.925773V0.925832V0.92589V0.925948V0.926006V0.926063V0.92612V0.926177V0.926233V0.926289V0.926344V0.926399V0.926454V0.926508V0.926562V0.926616V0.926669V0.926722V0.926774V0.926826V0.926878V0.926929V0.92698V0.92703V0.92708V0.92713V0.92718V0.927229V0.927277V0.927326V0.927374V0.927421V0.927469V0.927516V0.927562V0.927608V0.927654V0.9277V0.927745V0.92779V0.927834V0.927878V0.927922V0.927965V0.928008V0.928051V0.928094V0.928136V0.928177V0.928219V0.92826V0.928301V0.928341V0.928381V0.928421V0.92846V0.928499V0.928538V0.928577V0.928615V0.928653V0.92869V0.928727V0.928764V0.928801V0.928837V0.928873V0.928909V0.928944V0.928979V0.929014V0.929048V0.929082V0.929116V0.929149V0.929183V0.929215V0.929248V0.92928V0.929312V0.929344V0.929376V0.929407V0.929438V0.929468V0.929498V0.929528V0.929558V0.929587V0.929617V0.929645V0.929674V0.929702V0.92973V0.929758V0.929786V0.929813V0.92984V0.929867V0.929893V0.929919V0.929945V0.929971V0.929996V0.930021V0.930046V0.930071V0.930095V0.930119V0.930143V0.930166V0.93019V0.930213V0.930236V0.930258V0.930281V0.930303V0.930324V0.930346V0.930367V0.930389V0.930409V0.93043V0.93045V0.930471V0.930491V0.93051V0.93053V0.930549V0.930568V0.930587V0.930606V0.930624V0.930642V0.93066V0.930678V0.930695V0.930712V0.93073V0.930746V0.930763V0.930779V0.930796V0.930812V0.930827V0.930843V0.930858V0.930874V0.930889V0.930903V0.930918V0.930932V0.930947V0.930961V0.930974V0.930988V0.931001V0.931015V0.931028V0.931041V0.931053V0.931066V0.931078V0.93109V0.931102V0.931114V0.931125V0.931137V0.931148V0.931159V0.93117V0.931181V0.931191V0.931202V0.931212V0.931222V0.931232V0.931242V0.931251V0.931261V0.93127V0.931279V0.931288V0.931297V0.931305V0.931314V0.931322V0.93133V0.931338V0.931346V0.931354V0.931362V0.931369V0.931377V0.931391V0.931404V0.931418V0.93143V0.931442V0.931454V0.931465V0.931476V0.931486V0.931495V0.931505V0.931513V0.931522V0.93153V0.931537V0.931548V0.931558V0.931567V0.931575V0.931582V0.931591V0.931598V0.931606V0.931614V0.931628V6.0312Z" stroke="black"/>
</svg>
