<svg xmlns="http://www.w3.org/2000/svg" fill="none" viewBox="1.98 1.06 177.76 95.56"><g opacity="0.6"><mask id="mask0_9626_402392" style="mask-type:alpha" maskUnits="userSpaceOnUse" x="1" y="1" width="173" height="96"><path d="M21.5428 80.6331C24.7959 79.5853 27.2962 78.565 31.3779 78.5485C41.9119 78.5053 46.9961 83.6484 57.6458 86.3584C63.1923 87.7689 66.8438 87.4532 71.7152 86.6383C75.2312 86.049 78.7177 85.9033 82.7474 86.6114C91.0767 88.074 98.3182 92.0792 105.785 95.2087C113.177 98.3058 118.959 95.5156 125.021 94.4841C132.753 93.1678 141.058 92.7246 149.08 91.8551C154.233 91.2967 159.598 91.0362 163.81 89.3466C169.79 86.9459 175.277 83.6889 173.368 78.1652C172.413 75.4023 170.944 72.5953 168.74 69.9358C165.846 66.4413 161.255 63.6519 156.993 60.702C150.358 56.1097 143.271 51.7571 137.104 46.9107C132.27 43.1114 128.52 37.8987 120.545 37.0942C112.491 36.2814 104.216 36.3454 96.1978 33.6559C92.3187 32.3552 89.3231 30.5631 86.5157 28.3677C82.6248 25.3272 79.5654 23.3069 74.018 21.8996C63.3659 19.1991 56.4437 21.2926 47.2071 16.2278C43.6281 14.2655 41.9177 12.1757 39.5589 9.70242C36.2025 6.18204 29.0209 3.96444 23.7963 1.97765C22.99 1.67108 22.1828 1.36771 21.3733 1.06372L1.97642 77.4306L17.0957 81.2709C18.7281 81.236 20.2436 81.0511 21.5428 80.6331Z" fill="url(#paint0_linear_9626_402392)"></path></mask><g mask="url(#mask0_9626_402392)"><path d="M21.5428 80.6331C24.7959 79.5853 27.2962 78.565 31.3779 78.5485C41.9119 78.5053 46.9961 83.6484 57.6458 86.3584C63.1923 87.7689 66.8438 87.4532 71.7152 86.6383C75.2312 86.049 78.7177 85.9033 82.7474 86.6114C91.0767 88.074 98.3182 92.0792 105.785 95.2087C113.177 98.3058 118.959 95.5156 125.021 94.4841C132.753 93.1678 141.058 92.7246 149.08 91.8551C154.233 91.2967 159.598 91.0362 163.81 89.3466C169.79 86.9459 175.277 83.6889 173.368 78.1652C172.413 75.4023 170.944 72.5953 168.74 69.9358C165.846 66.4413 161.255 63.6519 156.993 60.702C150.358 56.1097 143.271 51.7571 137.104 46.9107C132.27 43.1114 128.52 37.8987 120.545 37.0942C112.491 36.2814 104.216 36.3454 96.1978 33.6559C92.3187 32.3552 89.3231 30.5631 86.5157 28.3677C82.6248 25.3272 79.5654 23.3069 74.018 21.8996C63.3659 19.1991 56.4437 21.2926 47.2071 16.2278C43.6281 14.2655 41.9177 12.1757 39.5589 9.70242C36.2025 6.18204 29.0209 3.96444 23.7963 1.97765C22.99 1.67108 22.1828 1.36771 21.3733 1.06372L1.97642 77.4306L17.0957 81.2709C18.7281 81.236 20.2436 81.0511 21.5428 80.6331Z" fill="url(#paint1_linear_9626_402392)"></path></g><mask id="mask1_9626_402392" style="mask-type:alpha" maskUnits="userSpaceOnUse" x="3" y="7" width="177" height="86"><path d="M23.7462 74.9446C27.0305 74.2133 29.5435 73.471 33.7255 73.6547C44.519 74.1286 49.9792 78.7295 61.0254 81.5385C66.7777 83.0013 70.5055 82.9101 75.4584 82.4552C79.0325 82.1265 82.6002 82.1711 86.7641 82.9658C95.3721 84.6078 102.987 88.3483 110.791 91.3599C118.518 94.3403 124.309 92.2562 130.472 91.6759C138.332 90.9349 146.822 90.9612 155.003 90.6136C160.257 90.3896 165.743 90.4295 169.978 89.202C175.992 87.4577 181.457 84.9653 179.233 80.1943C178.121 77.8086 176.479 75.3596 174.092 73.0014C170.957 69.9018 166.116 67.3187 161.606 64.6147C154.584 60.4058 147.111 56.3756 140.555 51.9749C135.417 48.5242 131.323 43.9293 123.11 42.8609C114.815 41.7818 106.337 41.4366 97.9892 38.7718C93.9495 37.4828 90.7942 35.8198 87.8102 33.8254C83.6747 31.062 80.4423 29.203 74.6891 27.7434C63.6414 24.9407 56.6486 26.3786 46.936 21.644C43.172 19.8094 41.3194 17.9566 38.7818 15.7483C35.171 12.6043 27.704 10.3803 22.2536 8.44474C21.4132 8.14646 20.5699 7.84917 19.7262 7.55347L3.08928 73.0543C3.97181 73.197 4.85474 73.3382 5.73566 73.4771C11.4494 74.3755 19.0727 75.9844 23.7462 74.9446Z" fill="url(#paint2_linear_9626_402392)"></path></mask><g mask="url(#mask1_9626_402392)"><path d="M23.7462 74.9446C27.0305 74.2133 29.5435 73.471 33.7255 73.6547C44.519 74.1286 49.9792 78.7295 61.0254 81.5385C66.7777 83.0013 70.5055 82.9101 75.4584 82.4552C79.0325 82.1265 82.6002 82.1711 86.7641 82.9658C95.3721 84.6078 102.987 88.3483 110.791 91.3599C118.518 94.3403 124.309 92.2562 130.472 91.6759C138.332 90.9349 146.822 90.9612 155.003 90.6136C160.257 90.3896 165.743 90.4295 169.978 89.202C175.992 87.4577 181.457 84.9653 179.233 80.1943C178.121 77.8086 176.479 75.3596 174.092 73.0014C170.957 69.9018 166.116 67.3187 161.606 64.6147C154.584 60.4058 147.111 56.3756 140.555 51.9749C135.417 48.5242 131.323 43.9293 123.11 42.8609C114.815 41.7818 106.337 41.4366 97.9892 38.7718C93.9495 37.4828 90.7942 35.8198 87.8102 33.8254C83.6747 31.062 80.4423 29.203 74.6891 27.7434C63.6414 24.9407 56.6486 26.3786 46.936 21.644C43.172 19.8094 41.3194 17.9566 38.7818 15.7483C35.171 12.6043 27.704 10.3803 22.2536 8.44474C21.4132 8.14646 20.5699 7.84917 19.7262 7.55347L3.08928 73.0543C3.97181 73.197 4.85474 73.3382 5.73566 73.4771C11.4494 74.3755 19.0727 75.9844 23.7462 74.9446Z" fill="url(#paint3_linear_9626_402392)"></path></g><mask id="mask2_9626_402392" style="mask-type:alpha" maskUnits="userSpaceOnUse" x="5" y="16" width="169" height="71"><path d="M24.9785 67.1073C28.0612 66.7302 30.411 66.3026 34.3968 66.6637C44.6832 67.5956 50.1181 71.3573 60.7682 74.0658C66.3148 75.4763 69.8534 75.6051 74.5378 75.5262C77.9186 75.4691 81.3117 75.6915 85.3126 76.5127C93.5825 78.2095 101.021 81.4388 108.6 84.1253C116.104 86.7859 121.498 85.5205 127.326 85.4114C134.759 85.2709 142.831 85.7423 150.589 85.9132C155.573 86.024 160.79 86.3451 164.751 85.6432C170.374 84.6463 175.438 83.0558 173.071 79.3373C171.886 77.4777 170.196 75.5422 167.801 73.6348C164.656 71.1281 159.917 68.9219 155.484 66.6411C148.585 63.0908 141.266 59.6528 134.801 55.9806C129.732 53.1022 125.595 49.4174 117.731 48.1748C109.788 46.9206 101.711 46.2071 93.6337 43.7519C89.7259 42.5643 86.6363 41.1418 83.6941 39.477C79.6168 37.171 76.444 35.5968 70.8967 34.1895C60.2449 31.4874 53.6736 32.1996 44.1893 28.1098C40.5144 26.5251 38.6534 25.028 36.1242 23.2255C32.5251 20.6611 25.3078 18.5837 20.0229 16.8343C19.2073 16.5644 18.3913 16.296 17.5729 16.0271L5.24094 64.5787C6.08691 64.7343 6.93368 64.8866 7.77925 65.0386C13.2596 66.0235 20.5918 67.6433 24.9785 67.1073Z" fill="url(#paint4_linear_9626_402392)"></path></mask><g mask="url(#mask2_9626_402392)"><path d="M24.9785 67.1073C28.0612 66.7302 30.411 66.3026 34.3968 66.6637C44.6832 67.5956 50.1181 71.3573 60.7682 74.0658C66.3148 75.4763 69.8534 75.6051 74.5378 75.5262C77.9186 75.4691 81.3117 75.6915 85.3126 76.5127C93.5825 78.2095 101.021 81.4388 108.6 84.1253C116.104 86.7859 121.498 85.5205 127.326 85.4114C134.759 85.2709 142.831 85.7423 150.589 85.9132C155.573 86.024 160.79 86.3451 164.751 85.6432C170.374 84.6463 175.438 83.0558 173.071 79.3373C171.886 77.4777 170.196 75.5422 167.801 73.6348C164.656 71.1281 159.917 68.9219 155.484 66.6411C148.585 63.0908 141.266 59.6528 134.801 55.9806C129.732 53.1022 125.595 49.4174 117.731 48.1748C109.788 46.9206 101.711 46.2071 93.6337 43.7519C89.7259 42.5643 86.6363 41.1418 83.6941 39.477C79.6168 37.171 76.444 35.5968 70.8967 34.1895C60.2449 31.4874 53.6736 32.1996 44.1893 28.1098C40.5144 26.5251 38.6534 25.028 36.1242 23.2255C32.5251 20.6611 25.3078 18.5837 20.0229 16.8343C19.2073 16.5644 18.3913 16.296 17.5729 16.0271L5.24094 64.5787C6.08691 64.7343 6.93368 64.8866 7.77925 65.0386C13.2596 66.0235 20.5918 67.6433 24.9785 67.1073Z" fill="url(#paint5_linear_9626_402392)"></path></g><mask id="mask3_9626_402392" style="mask-type:alpha" maskUnits="userSpaceOnUse" x="18" y="13" width="82" height="35"><path d="M99.8387 47.2577C99.8387 47.2577 59.8707 24.5263 18.304 13.1545C18.304 13.1545 65.4301 23.1416 99.8387 47.2577Z" fill="url(#paint6_linear_9626_402392)"></path></mask><g mask="url(#mask3_9626_402392)"><path opacity="0.36" d="M99.8387 47.2577C99.8387 47.2577 59.8707 24.5263 18.304 13.1545C18.304 13.1545 65.4301 23.1416 99.8387 47.2577Z" fill="url(#paint7_linear_9626_402392)"></path></g><mask id="mask4_9626_402392" style="mask-type:alpha" maskUnits="userSpaceOnUse" x="17" y="18" width="70" height="24"><path d="M86.915 41.2141C86.915 41.2141 49.3261 25.1996 17.0353 18.1478C17.0349 18.1494 53.2641 24.7599 86.915 41.2141Z" fill="url(#paint8_linear_9626_402392)"></path></mask><g mask="url(#mask4_9626_402392)"><path d="M86.915 41.2141C86.915 41.2141 49.3261 25.1996 17.0353 18.1478C17.0349 18.1494 53.2641 24.7599 86.915 41.2141Z" fill="url(#paint9_linear_9626_402392)"></path></g><mask id="mask5_9626_402392" style="mask-type:alpha" maskUnits="userSpaceOnUse" x="4" y="67" width="89" height="11"><path d="M92.4291 76.4279C92.4291 76.4279 46.4581 77.3311 4.50285 67.4888C4.50326 67.4872 50.6828 81.201 92.4291 76.4279Z" fill="url(#paint10_linear_9626_402392)"></path></mask><g mask="url(#mask5_9626_402392)"><path opacity="0.36" d="M92.4291 76.4279C92.4291 76.4279 46.4581 77.3311 4.50285 67.4888C4.50326 67.4872 50.6828 81.201 92.4291 76.4279Z" fill="url(#paint11_linear_9626_402392)"></path></g><mask id="mask6_9626_402392" style="mask-type:alpha" maskUnits="userSpaceOnUse" x="5" y="62" width="74" height="14"><path d="M78.1884 75.5734C78.1884 75.5734 37.5134 71.7091 5.77127 62.4968C5.77167 62.4953 40.7642 73.9748 78.1884 75.5734Z" fill="url(#paint12_linear_9626_402392)"></path></mask><g mask="url(#mask6_9626_402392)"><path d="M78.1884 75.5734C78.1884 75.5734 37.5134 71.7091 5.77127 62.4968C5.77167 62.4953 40.7642 73.9748 78.1884 75.5734Z" fill="url(#paint13_linear_9626_402392)"></path></g></g><path opacity="0.39" d="M167.807 73.848C166.83 72.8457 165.754 71.9803 164.636 71.2005C162.802 69.9198 161.052 68.8335 158.925 68.3364C157.992 68.1184 157.059 67.9004 156.126 67.6824C153.065 66.9673 150.006 66.2524 146.945 65.5373C142.737 64.5539 138.529 63.5706 134.32 62.5871C129.496 61.4598 124.671 60.3325 119.847 59.2052C114.939 58.0583 110.03 56.9114 105.122 55.7646C100.663 54.7226 96.2027 53.6804 91.7434 52.6384C88.2645 51.8254 84.7855 51.0125 81.3066 50.1996C79.3406 49.7402 77.3754 49.281 75.4094 48.8216C75.3732 48.8132 74.6603 48.6466 74.6603 48.6466C74.66 48.6477 74.5688 49.0381 74.4225 49.664L74.153 48.4142L73.8478 47.5506L71.83 47.0791L70.5739 52.455L70.1165 52.3792L70.2855 52.2324L69.771 51.6062L69.6584 51.4027L66.925 53.8495L67.0377 54.0529L67.949 54.2659L68.8286 53.5008L68.3557 55.5247L65.3187 54.815L64.7731 57.1497L64.7696 57.165L64.224 59.4996L67.2611 60.2093L66.7882 62.2332L66.3387 61.1575L65.4273 60.9446L65.2362 61.077L66.6023 64.4817L66.7934 64.3492L67.5321 64.0158L67.4456 63.8093L67.8893 63.944L66.6331 69.32L68.6517 69.7917L69.308 69.1527L70.1035 68.1518C69.9957 68.613 69.931 68.89 69.9307 68.8911C69.9307 68.8911 70.6436 69.0577 70.6798 69.0661C72.6459 69.5255 74.611 69.9847 76.577 70.4441C80.056 71.257 83.5349 72.0699 87.0138 72.8828C91.4732 73.9248 95.9334 74.9671 100.393 76.0091C105.301 77.1559 110.209 78.3028 115.117 79.4497C119.942 80.577 124.766 81.7043 129.59 82.8316C133.799 83.8149 138.007 84.7982 142.216 85.7817C145.276 86.4968 148.336 87.2117 151.396 87.9269C152.329 88.1449 153.262 88.3629 154.195 88.5809C156.322 89.078 158.373 88.8797 160.585 88.5444C161.931 88.3404 163.28 88.0414 164.6 87.576C166.56 86.884 169.971 85.3223 170.62 82.5451C170.738 82.0402 170.856 81.5353 170.974 81.0304C171.624 78.2474 169.259 75.3361 167.807 73.848ZM74.0382 48.9095L74.2502 49.9032L73.829 49.8047L74.0382 48.9095ZM72.6555 52.8011L72.5398 52.7821L72.5429 52.7691L72.6272 52.7784L72.6555 52.8011ZM69.7943 64.5318L69.7974 64.5187L69.9095 64.553L69.8738 64.5619L69.7943 64.5318ZM69.6339 67.758L70.0551 67.8564L69.4247 68.6533L69.6339 67.758Z" fill="#582840"></path><path d="M172.053 78.7397C172.703 75.9613 170.337 73.05 168.886 71.5608C167.909 70.5585 166.833 69.6931 165.716 68.9133C163.881 67.6326 162.131 66.5462 160.004 66.0491C159.071 65.8311 158.138 65.6131 157.205 65.3951C154.144 64.68 151.085 63.9651 148.025 63.25C143.816 62.2667 139.608 61.2834 135.399 60.2999C130.575 59.1726 125.75 58.0453 120.926 56.9179C116.018 55.7711 111.11 54.6242 106.201 53.4773C101.742 52.4353 97.2818 51.3931 92.8225 50.3511C89.3435 49.5382 85.8646 48.7253 82.3856 47.9124C80.4196 47.453 78.4545 46.9938 76.4885 46.5344C76.4522 46.526 75.7393 46.3594 75.7393 46.3594C75.7386 46.3626 73.655 55.2793 73.3885 56.4199C73.3702 56.4984 73.3605 56.5399 73.3605 56.5399C73.0937 57.6816 71.0104 66.5971 71.0097 66.6004C71.0097 66.6004 71.7226 66.767 71.7588 66.7754C73.7248 67.2348 75.69 67.694 77.656 68.1534C81.1349 68.9663 84.6139 69.7792 88.0928 70.5922C92.5522 71.6342 97.0124 72.6764 101.472 73.7184C106.38 74.8652 111.288 76.0121 116.196 77.159C121.021 78.2863 125.845 79.4136 130.669 80.5409C134.878 81.5242 139.086 82.5075 143.295 83.4911C146.355 84.2062 149.415 84.9211 152.475 85.6362C153.408 85.8542 154.341 86.0722 155.274 86.2902C157.401 86.7873 159.452 86.5891 161.664 86.2537C163.01 86.0497 164.359 85.7507 165.679 85.2853C167.639 84.5933 171.05 83.0316 171.699 80.2544C171.817 79.7495 171.935 79.2446 172.053 78.7397Z" fill="#002D40"></path><path d="M165.483 70.368L161.752 68.093L157.302 67.0532L155.289 75.6667L155.274 75.7322L153.303 84.1679L157.753 85.2077L162.1 84.8492C162.1 84.8492 169.913 82.6754 170.502 79.9862L170.656 79.3264L170.671 79.261L170.829 78.586C171.505 75.8587 165.483 70.368 165.483 70.368Z" fill="#12556D"></path><path d="M142.946 62.5117L136.645 61.0393L136.287 62.5736L142.588 64.0459L142.946 62.5117Z" fill="#EE3425"></path><path d="M142.568 64.1298L136.267 62.6575L135.909 64.1917L142.21 65.6641L142.568 64.1298Z" fill="#0672BA"></path><path d="M142.19 65.7477L135.889 64.2754L135.53 65.8097L141.832 67.282L142.19 65.7477Z" fill="#FCDC00"></path><path d="M141.812 67.3657L135.511 65.8933L135.152 67.4276L141.454 68.8999L141.812 67.3657Z" fill="#F4801F"></path><path d="M141.434 68.9838L135.133 67.5115L134.774 69.0457L141.075 70.5181L141.434 68.9838Z" fill="#ABCD62"></path><path d="M141.056 70.6017L134.755 69.1294L134.396 70.6637L140.697 72.136L141.056 70.6017Z" fill="#FCDC00"></path><path d="M140.678 72.2197L134.377 70.7473L134.018 72.2816L140.319 73.7539L140.678 72.2197Z" fill="#EE3425"></path><path d="M140.299 73.8378L133.998 72.3655L133.64 73.8997L139.941 75.3721L140.299 73.8378Z" fill="#0672BA"></path><path d="M139.921 75.4558L133.62 73.9834L133.262 75.5177L139.563 76.99L139.921 75.4558Z" fill="#EE3425"></path><path d="M139.543 77.0737L133.242 75.6013L132.884 77.1356L139.185 78.6079L139.543 77.0737Z" fill="#FCDC00"></path><path d="M139.165 78.6918L132.864 77.2195L132.505 78.7538L138.807 80.2261L139.165 78.6918Z" fill="#E7E7E9"></path><path d="M138.787 80.3098L132.486 78.8374L132.127 80.3717L138.429 81.844L138.787 80.3098Z" fill="#F4801F"></path><path opacity="0.13" d="M136.898 61.0984L136.645 61.0393L136.287 62.5736L136.54 62.6327L136.898 61.0984Z" fill="#221F20"></path><path opacity="0.13" d="M136.52 62.7166L136.267 62.6575L135.909 64.1917L136.161 64.2508L136.52 62.7166Z" fill="#221F20"></path><path opacity="0.13" d="M136.142 64.3345L135.889 64.2754L135.53 65.8097L135.783 65.8687L136.142 64.3345Z" fill="#221F20"></path><path opacity="0.13" d="M135.764 65.9524L135.511 65.8933L135.152 67.4276L135.405 67.4867L135.764 65.9524Z" fill="#221F20"></path><path opacity="0.13" d="M135.386 67.5706L135.133 67.5115L134.774 69.0457L135.027 69.1048L135.386 67.5706Z" fill="#221F20"></path><path opacity="0.13" d="M135.008 69.1885L134.755 69.1294L134.396 70.6637L134.649 70.7228L135.008 69.1885Z" fill="#221F20"></path><path opacity="0.13" d="M134.629 70.8064L134.377 70.7473L134.018 72.2816L134.271 72.3407L134.629 70.8064Z" fill="#221F20"></path><path opacity="0.13" d="M134.251 72.4246L133.998 72.3655L133.64 73.8997L133.893 73.9588L134.251 72.4246Z" fill="#221F20"></path><path opacity="0.13" d="M133.873 74.0425L133.62 73.9834L133.262 75.5177L133.515 75.5768L133.873 74.0425Z" fill="#221F20"></path><path opacity="0.13" d="M133.495 75.6604L133.242 75.6013L132.884 77.1356L133.137 77.1947L133.495 75.6604Z" fill="#221F20"></path><path opacity="0.13" d="M133.117 77.2786L132.864 77.2195L132.505 78.7538L132.758 78.8128L133.117 77.2786Z" fill="#221F20"></path><path opacity="0.13" d="M132.739 78.8965L132.486 78.8374L132.127 80.3717L132.38 80.4308L132.739 78.8965Z" fill="#221F20"></path><path d="M135.937 60.8718L129.635 59.3994L129.277 60.9337L135.578 62.406L135.937 60.8718Z" fill="#ABCD62"></path><path d="M135.559 62.4899L129.258 61.0176L128.899 62.5518L135.2 64.0242L135.559 62.4899Z" fill="#0672BA"></path><path d="M135.18 64.1079L128.879 62.6355L128.521 64.1698L134.822 65.6421L135.18 64.1079Z" fill="#EE3425"></path><path d="M134.802 65.726L128.501 64.2537L128.143 65.7879L134.444 67.2603L134.802 65.726Z" fill="#0672BA"></path><path d="M134.424 67.3439L128.123 65.8716L127.765 67.4058L134.066 68.8782L134.424 67.3439Z" fill="#E7E7E9"></path><path d="M134.046 68.9619L127.745 67.4895L127.387 69.0238L133.688 70.4961L134.046 68.9619Z" fill="#ABCD62"></path><path d="M133.668 70.5839L127.367 69.1116L127.008 70.6458L133.309 72.1182L133.668 70.5839Z" fill="#FCDC00"></path><path d="M133.29 72.2018L126.989 70.7295L126.63 72.2638L132.931 73.7361L133.29 72.2018Z" fill="#F4801F"></path><path d="M132.912 73.8198L126.611 72.3474L126.252 73.8817L132.553 75.354L132.912 73.8198Z" fill="#ABCD62"></path><path d="M132.534 75.4379L126.232 73.9656L125.874 75.4998L132.175 76.9722L132.534 75.4379Z" fill="#0672BA"></path><path d="M132.155 77.0559L125.854 75.5835L125.496 77.1178L131.797 78.5901L132.155 77.0559Z" fill="#EE3425"></path><path d="M131.777 78.6738L125.476 77.2014L125.118 78.7357L131.419 80.208L131.777 78.6738Z" fill="#FCDC00"></path><path opacity="0.13" d="M129.888 59.4585L129.635 59.3994L129.277 60.9337L129.53 60.9928L129.888 59.4585Z" fill="#221F20"></path><path opacity="0.13" d="M129.51 61.0767L129.258 61.0176L128.899 62.5518L129.152 62.6109L129.51 61.0767Z" fill="#221F20"></path><path opacity="0.13" d="M129.132 62.6946L128.879 62.6355L128.521 64.1698L128.774 64.2289L129.132 62.6946Z" fill="#221F20"></path><path opacity="0.13" d="M128.754 64.3127L128.501 64.2537L128.143 65.7879L128.396 65.847L128.754 64.3127Z" fill="#221F20"></path><path opacity="0.13" d="M128.376 65.9307L128.123 65.8716L127.765 67.4058L128.017 67.4649L128.376 65.9307Z" fill="#221F20"></path><path opacity="0.13" d="M127.998 67.5486L127.745 67.4895L127.387 69.0238L127.64 69.0829L127.998 67.5486Z" fill="#221F20"></path><path opacity="0.13" d="M127.62 69.1707L127.367 69.1116L127.008 70.6458L127.261 70.7049L127.62 69.1707Z" fill="#221F20"></path><path opacity="0.13" d="M127.242 70.7886L126.989 70.7295L126.63 72.2638L126.883 72.3229L127.242 70.7886Z" fill="#221F20"></path><path opacity="0.13" d="M126.863 72.4065L126.611 72.3474L126.252 73.8817L126.505 73.9408L126.863 72.4065Z" fill="#221F20"></path><path opacity="0.13" d="M126.485 74.0247L126.232 73.9656L125.874 75.4998L126.127 75.5589L126.485 74.0247Z" fill="#221F20"></path><path opacity="0.13" d="M126.107 75.6426L125.854 75.5835L125.496 77.1178L125.749 77.1769L126.107 75.6426Z" fill="#221F20"></path><path opacity="0.13" d="M125.729 77.2605L125.476 77.2014L125.118 78.7357L125.371 78.7948L125.729 77.2605Z" fill="#221F20"></path><path d="M147.248 63.5187L143.656 62.6792L143.297 64.2135L146.89 65.053L147.248 63.5187Z" fill="#ABCD62"></path><path d="M146.871 65.133L143.278 64.2935L142.919 65.8277L146.512 66.6673L146.871 65.133Z" fill="#0672BA"></path><path d="M146.492 66.7509L142.9 65.9114L142.541 67.4456L146.134 68.2852L146.492 66.7509Z" fill="#F4801F"></path><path d="M146.114 68.3688L142.522 67.5293L142.163 69.0636L145.756 69.9031L146.114 68.3688Z" fill="#0672BA"></path><path d="M145.736 69.987L142.143 69.1475L141.785 70.6817L145.378 71.5213L145.736 69.987Z" fill="#E7E7E9"></path><path d="M145.358 71.6088L141.765 70.7693L141.407 72.3036L145 73.1431L145.358 71.6088Z" fill="#0672BA"></path><path d="M144.98 73.2267L141.387 72.3872L141.029 73.9215L144.621 74.761L144.98 73.2267Z" fill="#EE3425"></path><path d="M144.602 74.8449L141.009 74.0054L140.65 75.5396L144.243 76.3792L144.602 74.8449Z" fill="#FCDC00"></path><path d="M144.224 76.4628L140.631 75.6233L140.272 77.1576L143.865 77.9971L144.224 76.4628Z" fill="#E7E7E9"></path><path d="M143.845 78.0807L140.253 77.2412L139.894 78.7755L143.487 79.615L143.845 78.0807Z" fill="#0672BA"></path><path d="M143.467 79.6989L139.875 78.8594L139.516 80.3936L143.109 81.2332L143.467 79.6989Z" fill="#EE3425"></path><path d="M143.089 81.3168L139.497 80.4773L139.138 82.0116L142.731 82.8511L143.089 81.3168Z" fill="#F4801F"></path><path d="M146.958 65.0659L150.222 65.8286L150.58 64.2943L147.316 63.5316L146.958 65.0659Z" fill="#EE3425"></path><path d="M146.58 66.6841L149.844 67.4468L150.202 65.9125L146.938 65.1498L146.58 66.6841Z" fill="#FCDC00"></path><path d="M146.202 68.302L149.466 69.0647L149.824 67.5304L146.56 66.7677L146.202 68.302Z" fill="#EE3425"></path><path d="M145.823 69.9199L149.087 70.6826L149.446 69.1483L146.182 68.3856L145.823 69.9199Z" fill="#FCDC00"></path><path d="M145.445 71.5381L148.709 72.3008L149.068 70.7665L145.804 70.0038L145.445 71.5381Z" fill="#EE3425"></path><path d="M145.067 73.1599L148.331 73.9226L148.69 72.3883L145.425 71.6256L145.067 73.1599Z" fill="#0672BA"></path><path d="M144.689 74.7778L147.953 75.5405L148.311 74.0063L145.047 73.2436L144.689 74.7778Z" fill="#E7E7E9"></path><path d="M144.311 76.396L147.575 77.1587L147.933 75.6244L144.669 74.8617L144.311 76.396Z" fill="#ABCD62"></path><path d="M143.933 78.0139L147.197 78.7766L147.555 77.2423L144.291 76.4796L143.933 78.0139Z" fill="#EE3425"></path><path d="M143.555 79.6321L146.819 80.3948L147.177 78.8605L143.913 78.0978L143.555 79.6321Z" fill="#F4801F"></path><path d="M143.176 81.25L146.44 82.0127L146.799 80.4784L143.535 79.7157L143.176 81.25Z" fill="#E7E7E9"></path><path d="M142.798 82.8679L146.062 83.6306L146.421 82.0963L143.157 81.3336L142.798 82.8679Z" fill="#0672BA"></path><path opacity="0.13" d="M143.908 62.7383L143.656 62.6792L143.297 64.2135L143.55 64.2726L143.908 62.7383Z" fill="#221F20"></path><path opacity="0.13" d="M143.531 64.3525L143.278 64.2935L142.919 65.8277L143.172 65.8868L143.531 64.3525Z" fill="#221F20"></path><path opacity="0.13" d="M143.152 65.9705L142.9 65.9114L142.541 67.4456L142.794 67.5047L143.152 65.9705Z" fill="#221F20"></path><path opacity="0.13" d="M142.774 67.5884L142.522 67.5293L142.163 69.0636L142.416 69.1227L142.774 67.5884Z" fill="#221F20"></path><path opacity="0.13" d="M142.396 69.2065L142.143 69.1475L141.785 70.6817L142.038 70.7408L142.396 69.2065Z" fill="#221F20"></path><path opacity="0.13" d="M142.018 70.8284L141.765 70.7693L141.407 72.3036L141.66 72.3626L142.018 70.8284Z" fill="#221F20"></path><path opacity="0.13" d="M141.64 72.4463L141.387 72.3872L141.029 73.9215L141.281 73.9806L141.64 72.4463Z" fill="#221F20"></path><path opacity="0.13" d="M141.262 74.0645L141.009 74.0054L140.65 75.5396L140.903 75.5987L141.262 74.0645Z" fill="#221F20"></path><path opacity="0.13" d="M140.884 75.6824L140.631 75.6233L140.272 77.1576L140.525 77.2166L140.884 75.6824Z" fill="#221F20"></path><path opacity="0.13" d="M140.505 77.3003L140.253 77.2412L139.894 78.7755L140.147 78.8346L140.505 77.3003Z" fill="#221F20"></path><path opacity="0.13" d="M140.127 78.9185L139.875 78.8594L139.516 80.3936L139.769 80.4527L140.127 78.9185Z" fill="#221F20"></path><path opacity="0.13" d="M139.749 80.5364L139.497 80.4773L139.138 82.0116L139.391 82.0707L139.749 80.5364Z" fill="#221F20"></path><path d="M125.544 58.488L121.951 57.6484L121.592 59.1827L125.185 60.0222L125.544 58.488Z" fill="#EE3425"></path><path d="M125.165 60.1059L121.573 59.2664L121.214 60.8006L124.807 61.6402L125.165 60.1059Z" fill="#0672BA"></path><path d="M124.787 61.7241L121.194 60.8845L120.836 62.4188L124.429 63.2583L124.787 61.7241Z" fill="#F4801F"></path><path d="M124.409 63.342L120.816 62.5024L120.458 64.0367L124.051 64.8762L124.409 63.342Z" fill="#FCDC00"></path><path d="M124.031 64.9599L120.438 64.1204L120.08 65.6546L123.673 66.4942L124.031 64.9599Z" fill="#ABCD62"></path><path d="M123.653 66.582L120.06 65.7424L119.701 67.2767L123.294 68.1162L123.653 66.582Z" fill="#0672BA"></path><path d="M123.275 68.1999L119.682 67.3604L119.323 68.8946L122.916 69.7342L123.275 68.1999Z" fill="#EE3425"></path><path d="M122.896 69.8178L119.304 68.9783L118.945 70.5125L122.538 71.3521L122.896 69.8178Z" fill="#FCDC00"></path><path d="M122.519 71.4321L118.926 70.5925L118.567 72.1268L122.16 72.9663L122.519 71.4321Z" fill="#E7E7E9"></path><path d="M122.141 73.05L118.548 72.2104L118.189 73.7447L121.782 74.5843L122.141 73.05Z" fill="#0672BA"></path><path d="M121.762 74.6721L118.17 73.8325L117.811 75.3668L121.404 76.2063L121.762 74.6721Z" fill="#EE3425"></path><path d="M121.384 76.29L117.791 75.4504L117.433 76.9847L121.026 77.8242L121.384 76.29Z" fill="#0672BA"></path><path d="M125.252 60.0391L128.516 60.8018L128.874 59.2675L125.61 58.5048L125.252 60.0391Z" fill="#EE3425"></path><path d="M124.874 61.657L128.138 62.4197L128.496 60.8854L125.232 60.1227L124.874 61.657Z" fill="#ABCD62"></path><path d="M124.496 63.2751L127.76 64.0378L128.118 62.5036L124.854 61.7409L124.496 63.2751Z" fill="#EE3425"></path><path d="M124.118 64.8931L127.382 65.6558L127.74 64.1215L124.476 63.3588L124.118 64.8931Z" fill="#ABCD62"></path><path d="M123.74 66.511L127.004 67.2737L127.362 65.7394L124.098 64.9767L123.74 66.511Z" fill="#E7E7E9"></path><path d="M123.361 68.1291L126.625 68.8918L126.984 67.3576L123.72 66.5949L123.361 68.1291Z" fill="#FCDC00"></path><path d="M122.983 69.7471L126.247 70.5098L126.606 68.9755L123.342 68.2128L122.983 69.7471Z" fill="#E7E7E9"></path><path d="M122.605 71.365L125.869 72.1277L126.228 70.5934L122.964 69.8307L122.605 71.365Z" fill="#0672BA"></path><path d="M122.227 72.9871L125.491 73.7498L125.849 72.2155L122.585 71.4528L122.227 72.9871Z" fill="#ABCD62"></path><path d="M121.849 74.605L125.113 75.3677L125.471 73.8334L122.207 73.0707L121.849 74.605Z" fill="#0672BA"></path><path d="M121.471 76.2231L124.735 76.9858L125.093 75.4516L121.829 74.6889L121.471 76.2231Z" fill="#E7E7E9"></path><path d="M121.092 77.8411L124.356 78.6038L124.715 77.0695L121.451 76.3068L121.092 77.8411Z" fill="#F4801F"></path><path opacity="0.13" d="M122.204 57.7075L121.951 57.6484L121.592 59.1827L121.845 59.2418L122.204 57.7075Z" fill="#221F20"></path><path opacity="0.13" d="M121.825 59.3254L121.573 59.2664L121.214 60.8006L121.467 60.8597L121.825 59.3254Z" fill="#221F20"></path><path opacity="0.13" d="M121.447 60.9436L121.194 60.8845L120.836 62.4188L121.089 62.4779L121.447 60.9436Z" fill="#221F20"></path><path opacity="0.13" d="M121.069 62.5615L120.816 62.5024L120.458 64.0367L120.711 64.0958L121.069 62.5615Z" fill="#221F20"></path><path opacity="0.13" d="M120.691 64.1794L120.438 64.1204L120.08 65.6546L120.333 65.7137L120.691 64.1794Z" fill="#221F20"></path><path opacity="0.13" d="M120.313 65.8015L120.06 65.7424L119.701 67.2767L119.954 67.3358L120.313 65.8015Z" fill="#221F20"></path><path opacity="0.13" d="M119.935 67.4194L119.682 67.3604L119.323 68.8946L119.576 68.9537L119.935 67.4194Z" fill="#221F20"></path><path opacity="0.13" d="M119.556 69.0374L119.304 68.9783L118.945 70.5125L119.198 70.5716L119.556 69.0374Z" fill="#221F20"></path><path opacity="0.13" d="M119.179 70.6516L118.926 70.5925L118.567 72.1268L118.82 72.1859L119.179 70.6516Z" fill="#221F20"></path><path opacity="0.13" d="M118.801 72.2695L118.548 72.2104L118.189 73.7447L118.442 73.8038L118.801 72.2695Z" fill="#221F20"></path><path opacity="0.13" d="M118.422 73.8916L118.17 73.8325L117.811 75.3668L118.064 75.4259L118.422 73.8916Z" fill="#221F20"></path><path opacity="0.13" d="M118.044 75.5095L117.791 75.4504L117.433 76.9847L117.686 77.0438L118.044 75.5095Z" fill="#221F20"></path><path d="M121.256 57.5285L114.955 56.0562L114.596 57.5904L120.897 59.0628L121.256 57.5285Z" fill="#EE3425"></path><path d="M120.877 59.1464L114.576 57.6741L114.218 59.2083L120.519 60.6807L120.877 59.1464Z" fill="#F4801F"></path><path d="M120.499 60.7646L114.198 59.2922L113.84 60.8265L120.141 62.2989L120.499 60.7646Z" fill="#E7E7E9"></path><path d="M120.122 62.3825L113.82 60.9102L113.462 62.4444L119.763 63.9168L120.122 62.3825Z" fill="#FCDC00"></path><path d="M119.743 64.0004L113.442 62.5281L113.084 64.0623L119.385 65.5347L119.743 64.0004Z" fill="#ABCD62"></path><path d="M119.365 65.6225L113.064 64.1501L112.705 65.6844L119.006 67.1568L119.365 65.6225Z" fill="#0672BA"></path><path d="M118.987 67.2404L112.686 65.7681L112.327 67.3023L118.628 68.7747L118.987 67.2404Z" fill="#E7E7E9"></path><path d="M118.609 68.8583L112.308 67.386L111.949 68.9203L118.25 70.3926L118.609 68.8583Z" fill="#0672BA"></path><path d="M118.231 70.4765L111.929 69.0042L111.571 70.5384L117.872 72.0108L118.231 70.4765Z" fill="#F4801F"></path><path d="M117.853 72.0944L111.552 70.6221L111.193 72.1563L117.494 73.6287L117.853 72.0944Z" fill="#FCDC00"></path><path d="M117.474 73.7123L111.173 72.24L110.815 73.7743L117.116 75.2466L117.474 73.7123Z" fill="#EE3425"></path><path d="M117.096 75.3305L110.795 73.8582L110.437 75.3924L116.738 76.8648L117.096 75.3305Z" fill="#ABCD62"></path><path opacity="0.13" d="M115.208 56.1152L114.955 56.0562L114.596 57.5904L114.849 57.6495L115.208 56.1152Z" fill="#221F20"></path><path opacity="0.13" d="M114.829 57.7332L114.576 57.6741L114.218 59.2083L114.471 59.2674L114.829 57.7332Z" fill="#221F20"></path><path opacity="0.13" d="M114.451 59.3513L114.198 59.2922L113.84 60.8265L114.093 60.8856L114.451 59.3513Z" fill="#221F20"></path><path opacity="0.13" d="M114.073 60.9692L113.82 60.9102L113.462 62.4444L113.715 62.5035L114.073 60.9692Z" fill="#221F20"></path><path opacity="0.13" d="M113.695 62.5872L113.442 62.5281L113.084 64.0623L113.337 64.1214L113.695 62.5872Z" fill="#221F20"></path><path opacity="0.13" d="M113.317 64.2092L113.064 64.1501L112.705 65.6844L112.958 65.7435L113.317 64.2092Z" fill="#221F20"></path><path opacity="0.13" d="M112.939 65.8272L112.686 65.7681L112.327 67.3023L112.58 67.3614L112.939 65.8272Z" fill="#221F20"></path><path opacity="0.13" d="M112.56 67.4451L112.308 67.386L111.949 68.9203L112.202 68.9793L112.56 67.4451Z" fill="#221F20"></path><path opacity="0.13" d="M112.182 69.0632L111.929 69.0042L111.571 70.5384L111.824 70.5975L112.182 69.0632Z" fill="#221F20"></path><path opacity="0.13" d="M111.804 70.6812L111.552 70.6221L111.193 72.1563L111.446 72.2154L111.804 70.6812Z" fill="#221F20"></path><path opacity="0.13" d="M111.426 72.2991L111.173 72.24L110.815 73.7743L111.068 73.8333L111.426 72.2991Z" fill="#221F20"></path><path opacity="0.13" d="M111.048 73.9172L110.795 73.8582L110.437 75.3924L110.69 75.4515L111.048 73.9172Z" fill="#221F20"></path><path d="M106.586 54.1464L100.285 52.6741L99.9267 54.2083L106.228 55.6807L106.586 54.1464Z" fill="#E7E7E9"></path><path d="M106.208 55.7643L99.9071 54.292L99.5486 55.8263L105.85 57.2986L106.208 55.7643Z" fill="#0672BA"></path><path d="M105.83 57.3825L99.5289 55.9102L99.1704 57.4444L105.472 58.9168L105.83 57.3825Z" fill="#E7E7E9"></path><path d="M105.452 59.0004L99.1508 57.5281L98.7923 59.0623L105.093 60.5347L105.452 59.0004Z" fill="#ABCD62"></path><path d="M105.074 60.6184L98.7728 59.146L98.4143 60.6803L104.715 62.1526L105.074 60.6184Z" fill="#EE3425"></path><path d="M104.696 62.2365L98.3945 60.7642L98.036 62.2984L104.337 63.7708L104.696 62.2365Z" fill="#E7E7E9"></path><path d="M104.318 63.8544L98.0165 62.3821L97.658 63.9164L103.959 65.3887L104.318 63.8544Z" fill="#FCDC00"></path><path d="M103.94 65.4726L97.6385 64.0002L97.28 65.5345L103.581 67.0069L103.94 65.4726Z" fill="#0672BA"></path><path d="M103.561 67.0905L97.2602 65.6182L96.9017 67.1524L103.203 68.6248L103.561 67.0905Z" fill="#F4801F"></path><path d="M103.183 68.7084L96.8821 67.2361L96.5236 68.7704L102.825 70.2427L103.183 68.7084Z" fill="#0672BA"></path><path d="M102.805 70.3266L96.5039 68.8542L96.1454 70.3885L102.447 71.8609L102.805 70.3266Z" fill="#EE3425"></path><path d="M102.427 71.9445L96.126 70.4722L95.7675 72.0064L102.069 73.4788L102.427 71.9445Z" fill="#FCDC00"></path><path opacity="0.13" d="M100.538 52.7332L100.285 52.6741L99.9267 54.2083L100.18 54.2674L100.538 52.7332Z" fill="#221F20"></path><path opacity="0.13" d="M100.16 54.3511L99.9071 54.292L99.5486 55.8263L99.8015 55.8854L100.16 54.3511Z" fill="#221F20"></path><path opacity="0.13" d="M99.7818 55.9692L99.5289 55.9102L99.1704 57.4444L99.4233 57.5035L99.7818 55.9692Z" fill="#221F20"></path><path opacity="0.13" d="M99.4037 57.5872L99.1508 57.5281L98.7923 59.0623L99.0452 59.1214L99.4037 57.5872Z" fill="#221F20"></path><path opacity="0.13" d="M99.0256 59.2051L98.7728 59.146L98.4143 60.6803L98.6671 60.7394L99.0256 59.2051Z" fill="#221F20"></path><path opacity="0.13" d="M98.6474 60.8232L98.3945 60.7642L98.036 62.2984L98.2889 62.3575L98.6474 60.8232Z" fill="#221F20"></path><path opacity="0.13" d="M98.2694 62.4412L98.0165 62.3821L97.658 63.9164L97.9109 63.9754L98.2694 62.4412Z" fill="#221F20"></path><path opacity="0.13" d="M97.8913 64.0593L97.6385 64.0002L97.28 65.5345L97.5328 65.5936L97.8913 64.0593Z" fill="#221F20"></path><path opacity="0.13" d="M97.5131 65.6773L97.2602 65.6182L96.9017 67.1524L97.1546 67.2115L97.5131 65.6773Z" fill="#221F20"></path><path opacity="0.13" d="M97.135 67.2952L96.8821 67.2361L96.5236 68.7704L96.7765 68.8294L97.135 67.2952Z" fill="#221F20"></path><path opacity="0.13" d="M96.7568 68.9133L96.5039 68.8542L96.1454 70.3885L96.3983 70.4476L96.7568 68.9133Z" fill="#221F20"></path><path opacity="0.13" d="M96.3789 70.5313L96.126 70.4722L95.7675 72.0064L96.0204 72.0655L96.3789 70.5313Z" fill="#221F20"></path><path d="M110.88 55.1491L107.287 54.3096L106.929 55.8438L110.521 56.6834L110.88 55.1491Z" fill="#ABCD62"></path><path d="M110.502 56.7673L106.909 55.9277L106.55 57.462L110.143 58.3015L110.502 56.7673Z" fill="#0672BA"></path><path d="M110.124 58.3852L106.531 57.5457L106.172 59.0799L109.765 59.9195L110.124 58.3852Z" fill="#EE3425"></path><path d="M109.746 60.0033L106.153 59.1638L105.794 60.6981L109.387 61.5376L109.746 60.0033Z" fill="#ABCD62"></path><path d="M109.368 61.6213L105.775 60.7817L105.416 62.316L109.009 63.1555L109.368 61.6213Z" fill="#EE3425"></path><path d="M108.989 63.2392L105.397 62.3997L105.038 63.9339L108.631 64.7735L108.989 63.2392Z" fill="#0672BA"></path><path d="M108.611 64.8574L105.018 64.0178L104.66 65.5521L108.253 66.3916L108.611 64.8574Z" fill="#F4801F"></path><path d="M108.233 66.4753L104.64 65.6357L104.282 67.17L107.875 68.0095L108.233 66.4753Z" fill="#E7E7E9"></path><path d="M107.855 68.0932L104.262 67.2537L103.904 68.7879L107.496 69.6275L107.855 68.0932Z" fill="#FCDC00"></path><path d="M107.477 69.7114L103.884 68.8718L103.525 70.4061L107.118 71.2456L107.477 69.7114Z" fill="#0672BA"></path><path d="M107.099 71.3293L103.506 70.4897L103.147 72.024L106.74 72.8635L107.099 71.3293Z" fill="#ABCD62"></path><path d="M106.721 72.9472L103.128 72.1077L102.769 73.6419L106.362 74.4815L106.721 72.9472Z" fill="#0672BA"></path><path d="M110.589 56.7004L113.853 57.4631L114.211 55.9289L110.947 55.1662L110.589 56.7004Z" fill="#EE3425"></path><path d="M110.211 58.3184L113.475 59.0811L113.833 57.5468L110.569 56.7841L110.211 58.3184Z" fill="#0672BA"></path><path d="M109.832 59.9363L113.096 60.699L113.455 59.1647L110.191 58.402L109.832 59.9363Z" fill="#F4801F"></path><path d="M109.454 61.5544L112.718 62.3171L113.077 60.7829L109.813 60.0202L109.454 61.5544Z" fill="#0672BA"></path><path d="M109.076 63.1724L112.34 63.9351L112.699 62.4008L109.435 61.6381L109.076 63.1724Z" fill="#E7E7E9"></path><path d="M108.698 64.7903L111.962 65.553L112.321 64.0187L109.057 63.256L108.698 64.7903Z" fill="#FCDC00"></path><path d="M108.32 66.4084L111.584 67.1711L111.943 65.6369L108.679 64.8742L108.32 66.4084Z" fill="#EE3425"></path><path d="M107.942 68.0264L111.206 68.7891L111.564 67.2548L108.3 66.4921L107.942 68.0264Z" fill="#0672BA"></path><path d="M107.564 69.6443L110.828 70.407L111.186 68.8727L107.922 68.11L107.564 69.6443Z" fill="#ABCD62"></path><path d="M107.186 71.2624L110.45 72.0251L110.808 70.4909L107.544 69.7282L107.186 71.2624Z" fill="#F4801F"></path><path d="M106.808 72.8804L110.072 73.6431L110.43 72.1088L107.166 71.3461L106.808 72.8804Z" fill="#FCDC00"></path><path d="M106.429 74.4985L109.693 75.2612L110.052 73.727L106.788 72.9643L106.429 74.4985Z" fill="#0672BA"></path><path opacity="0.13" d="M107.54 54.3687L107.287 54.3096L106.929 55.8438L107.181 55.9029L107.54 54.3687Z" fill="#221F20"></path><path opacity="0.13" d="M107.162 55.9868L106.909 55.9277L106.55 57.462L106.803 57.5211L107.162 55.9868Z" fill="#221F20"></path><path opacity="0.13" d="M106.784 57.6047L106.531 57.5457L106.172 59.0799L106.425 59.139L106.784 57.6047Z" fill="#221F20"></path><path opacity="0.13" d="M106.406 59.2229L106.153 59.1638L105.794 60.6981L106.047 60.7572L106.406 59.2229Z" fill="#221F20"></path><path opacity="0.13" d="M106.028 60.8408L105.775 60.7817L105.416 62.316L105.669 62.3751L106.028 60.8408Z" fill="#221F20"></path><path opacity="0.13" d="M105.65 62.4587L105.397 62.3997L105.038 63.9339L105.291 63.993L105.65 62.4587Z" fill="#221F20"></path><path opacity="0.13" d="M105.271 64.0769L105.018 64.0178L104.66 65.5521L104.913 65.6112L105.271 64.0769Z" fill="#221F20"></path><path opacity="0.13" d="M104.893 65.6948L104.64 65.6357L104.282 67.17L104.535 67.2291L104.893 65.6948Z" fill="#221F20"></path><path opacity="0.13" d="M104.515 67.3127L104.262 67.2537L103.904 68.7879L104.157 68.847L104.515 67.3127Z" fill="#221F20"></path><path opacity="0.13" d="M104.137 68.9309L103.884 68.8718L103.525 70.4061L103.778 70.4652L104.137 68.9309Z" fill="#221F20"></path><path opacity="0.13" d="M103.759 70.5488L103.506 70.4897L103.147 72.024L103.4 72.0831L103.759 70.5488Z" fill="#221F20"></path><path opacity="0.13" d="M103.381 72.1668L103.128 72.1077L102.769 73.6419L103.022 73.701L103.381 72.1668Z" fill="#221F20"></path><path d="M99.5124 52.539L93.2113 51.0667L92.8528 52.6009L99.1539 54.0733L99.5124 52.539Z" fill="#FCDC00"></path><path d="M99.1345 54.1569L92.8334 52.6846L92.4749 54.2188L98.776 55.6912L99.1345 54.1569Z" fill="#F4801F"></path><path d="M98.7564 55.7748L92.4553 54.3025L92.0968 55.8368L98.3979 57.3091L98.7564 55.7748Z" fill="#FCDC00"></path><path d="M98.378 57.3969L92.0769 55.9246L91.7184 57.4588L98.0195 58.9312L98.378 57.3969Z" fill="#0672BA"></path><path d="M98.0003 59.0109L91.6992 57.5386L91.3407 59.0728L97.6418 60.5452L98.0003 59.0109Z" fill="#EE3425"></path><path d="M97.622 60.6289L91.3209 59.1565L90.9624 60.6908L97.2635 62.1631L97.622 60.6289Z" fill="#FCDC00"></path><path d="M97.2441 62.247L90.9431 60.7747L90.5845 62.3089L96.8856 63.7813L97.2441 62.247Z" fill="#ABCD62"></path><path d="M96.8659 63.8649L90.5648 62.3926L90.2063 63.9268L96.5074 65.3992L96.8659 63.8649Z" fill="#F4801F"></path><path d="M96.4879 65.4829L90.1868 64.0105L89.8283 65.5448L96.1294 67.0171L96.4879 65.4829Z" fill="#EE3425"></path><path d="M96.1094 67.1049L89.8083 65.6326L89.4498 67.1668L95.7509 68.6392L96.1094 67.1049Z" fill="#E7E7E9"></path><path d="M95.7314 68.7228L89.4303 67.2505L89.0718 68.7848L95.3729 70.2571L95.7314 68.7228Z" fill="#EE3425"></path><path d="M95.3532 70.341L89.0521 68.8687L88.6936 70.4029L94.9947 71.8753L95.3532 70.341Z" fill="#FCDC00"></path><path opacity="0.13" d="M93.4642 51.1257L93.2113 51.0667L92.8528 52.6009L93.1057 52.66L93.4642 51.1257Z" fill="#221F20"></path><path opacity="0.13" d="M93.0863 52.7437L92.8334 52.6846L92.4749 54.2188L92.7278 54.2779L93.0863 52.7437Z" fill="#221F20"></path><path opacity="0.13" d="M92.7082 54.3616L92.4553 54.3025L92.0968 55.8368L92.3497 55.8958L92.7082 54.3616Z" fill="#221F20"></path><path opacity="0.13" d="M92.3298 55.9836L92.0769 55.9246L91.7184 57.4588L91.9713 57.5179L92.3298 55.9836Z" fill="#221F20"></path><path opacity="0.13" d="M91.9521 57.5977L91.6992 57.5386L91.3407 59.0728L91.5936 59.1319L91.9521 57.5977Z" fill="#221F20"></path><path opacity="0.13" d="M91.5738 59.2156L91.3209 59.1565L90.9624 60.6908L91.2153 60.7498L91.5738 59.2156Z" fill="#221F20"></path><path opacity="0.13" d="M91.1959 60.8337L90.9431 60.7747L90.5845 62.3089L90.8374 62.368L91.1959 60.8337Z" fill="#221F20"></path><path opacity="0.13" d="M90.8177 62.4517L90.5648 62.3926L90.2063 63.9268L90.4592 63.9859L90.8177 62.4517Z" fill="#221F20"></path><path opacity="0.13" d="M90.4397 64.0696L90.1868 64.0105L89.8283 65.5448L90.0812 65.6039L90.4397 64.0696Z" fill="#221F20"></path><path opacity="0.13" d="M90.0612 65.6917L89.8083 65.6326L89.4498 67.1668L89.7027 67.2259L90.0612 65.6917Z" fill="#221F20"></path><path opacity="0.13" d="M89.6832 67.3096L89.4303 67.2505L89.0718 68.7848L89.3247 68.8438L89.6832 67.3096Z" fill="#221F20"></path><path opacity="0.13" d="M89.305 68.9277L89.0521 68.8687L88.6936 70.4029L88.9465 70.462L89.305 68.9277Z" fill="#221F20"></path><path d="M84.8421 49.1569L78.541 47.6846L78.1825 49.2188L84.4836 50.6912L84.8421 49.1569Z" fill="#EE3425"></path><path d="M84.4639 50.7748L78.1628 49.3025L77.8043 50.8368L84.1054 52.3091L84.4639 50.7748Z" fill="#FCDC00"></path><path d="M84.0858 52.3928L77.7847 50.9204L77.4262 52.4547L83.7273 53.927L84.0858 52.3928Z" fill="#E7E7E9"></path><path d="M83.7079 54.0109L77.4068 52.5386L77.0483 54.0728L83.3494 55.5452L83.7079 54.0109Z" fill="#0672BA"></path><path d="M83.3297 55.6289L77.0286 54.1565L76.6701 55.6908L82.9712 57.1631L83.3297 55.6289Z" fill="#EE3425"></path><path d="M82.9517 57.2468L76.6506 55.7744L76.2921 57.3087L82.5931 58.781L82.9517 57.2468Z" fill="#F4801F"></path><path d="M82.5734 58.8649L76.2723 57.3926L75.9138 58.9268L82.2149 60.3992L82.5734 58.8649Z" fill="#E7E7E9"></path><path d="M82.1953 60.4829L75.8942 59.0105L75.5357 60.5448L81.8368 62.0171L82.1953 60.4829Z" fill="#ABCD62"></path><path d="M81.8171 62.1008L75.5161 60.6284L75.1575 62.1627L81.4586 63.635L81.8171 62.1008Z" fill="#EE3425"></path><path d="M81.4391 63.7189L75.138 62.2466L74.7795 63.7808L81.0806 65.2532L81.4391 63.7189Z" fill="#0672BA"></path><path d="M81.061 65.3369L74.7599 63.8645L74.4014 65.3988L80.7025 66.8711L81.061 65.3369Z" fill="#ABCD62"></path><path d="M80.6829 66.955L74.3818 65.4827L74.0233 67.0169L80.3244 68.4893L80.6829 66.955Z" fill="#0672BA"></path><path opacity="0.13" d="M78.7939 47.7437L78.541 47.6846L78.1825 49.2188L78.4354 49.2779L78.7939 47.7437Z" fill="#221F20"></path><path opacity="0.13" d="M78.4157 49.3616L78.1628 49.3025L77.8043 50.8368L78.0571 50.8958L78.4157 49.3616Z" fill="#221F20"></path><path opacity="0.13" d="M78.0376 50.9795L77.7847 50.9204L77.4262 52.4547L77.6791 52.5138L78.0376 50.9795Z" fill="#221F20"></path><path opacity="0.13" d="M77.6597 52.5977L77.4068 52.5386L77.0483 54.0728L77.3012 54.1319L77.6597 52.5977Z" fill="#221F20"></path><path opacity="0.13" d="M77.2815 54.2156L77.0286 54.1565L76.6701 55.6908L76.9229 55.7499L77.2815 54.2156Z" fill="#221F20"></path><path opacity="0.13" d="M76.9034 55.8335L76.6506 55.7744L76.2921 57.3087L76.5449 57.3678L76.9034 55.8335Z" fill="#221F20"></path><path opacity="0.13" d="M76.5252 57.4517L76.2723 57.3926L75.9138 58.9268L76.1667 58.9859L76.5252 57.4517Z" fill="#221F20"></path><path opacity="0.13" d="M76.1471 59.0696L75.8942 59.0105L75.5357 60.5448L75.7886 60.6039L76.1471 59.0696Z" fill="#221F20"></path><path opacity="0.13" d="M75.7689 60.6875L75.5161 60.6284L75.1575 62.1627L75.4104 62.2218L75.7689 60.6875Z" fill="#221F20"></path><path opacity="0.13" d="M75.3908 62.3057L75.138 62.2466L74.7795 63.7808L75.0323 63.8399L75.3908 62.3057Z" fill="#221F20"></path><path opacity="0.13" d="M75.0128 63.9236L74.7599 63.8645L74.4014 65.3988L74.6543 65.4579L75.0128 63.9236Z" fill="#221F20"></path><path opacity="0.13" d="M74.6347 65.5418L74.3818 65.4827L74.0233 67.0169L74.2762 67.076L74.6347 65.5418Z" fill="#221F20"></path><path d="M89.1367 50.1596L85.5439 49.3201L85.1854 50.8543L88.7782 51.6939L89.1367 50.1596Z" fill="#EE3425"></path><path d="M88.7585 51.7775L85.1656 50.938L84.8071 52.4723L88.4 53.3118L88.7585 51.7775Z" fill="#0672BA"></path><path d="M88.3803 53.3957L84.7874 52.5562L84.4289 54.0904L88.0218 54.93L88.3803 53.3957Z" fill="#ABCD62"></path><path d="M88.0024 55.0136L84.4095 54.1741L84.051 55.7083L87.6439 56.5479L88.0024 55.0136Z" fill="#FCDC00"></path><path d="M87.6244 56.6318L84.0315 55.7922L83.673 57.3265L87.2658 58.166L87.6244 56.6318Z" fill="#EE3425"></path><path d="M87.2461 58.2497L83.6532 57.4102L83.2947 58.9444L86.8876 59.784L87.2461 58.2497Z" fill="#E7E7E9"></path><path d="M86.868 59.8676L83.2752 59.0281L82.9167 60.5623L86.5095 61.4019L86.868 59.8676Z" fill="#EE3425"></path><path d="M86.4898 61.4858L82.897 60.6462L82.5385 62.1805L86.1313 63.02L86.4898 61.4858Z" fill="#0672BA"></path><path d="M86.1116 63.1037L82.5187 62.2642L82.1602 63.7984L85.7531 64.638L86.1116 63.1037Z" fill="#F4801F"></path><path d="M85.7336 64.7216L82.1407 63.8821L81.7822 65.4163L85.3751 66.2559L85.7336 64.7216Z" fill="#0672BA"></path><path d="M85.3554 66.3437L81.7626 65.5042L81.4041 67.0384L84.9969 67.878L85.3554 66.3437Z" fill="#EE3425"></path><path d="M84.9776 67.9577L81.3848 67.1182L81.0262 68.6524L84.6191 69.492L84.9776 67.9577Z" fill="#0672BA"></path><path d="M88.8448 51.7107L92.1089 52.4734L92.4674 50.9391L89.2033 50.1764L88.8448 51.7107Z" fill="#E7E7E9"></path><path d="M88.4668 53.3286L91.7309 54.0913L92.0894 52.557L88.8253 51.7943L88.4668 53.3286Z" fill="#0672BA"></path><path d="M88.0886 54.9468L91.3526 55.7095L91.7111 54.1752L88.4471 53.4125L88.0886 54.9468Z" fill="#EE3425"></path><path d="M87.7107 56.5647L90.9747 57.3274L91.3332 55.7931L88.0692 55.0304L87.7107 56.5647Z" fill="#0672BA"></path><path d="M87.3326 58.1829L90.5966 58.9456L90.9552 57.4113L87.6911 56.6486L87.3326 58.1829Z" fill="#E7E7E9"></path><path d="M86.9543 59.8008L90.2184 60.5635L90.5769 59.0292L87.3129 58.2665L86.9543 59.8008Z" fill="#0672BA"></path><path d="M86.5763 61.4187L89.8403 62.1814L90.1988 60.6471L86.9348 59.8844L86.5763 61.4187Z" fill="#F4801F"></path><path d="M86.1981 63.0369L89.4621 63.7996L89.8206 62.2653L86.5566 61.5026L86.1981 63.0369Z" fill="#FCDC00"></path><path d="M85.82 64.6548L89.084 65.4175L89.4426 63.8832L86.1785 63.1205L85.82 64.6548Z" fill="#EE3425"></path><path d="M85.442 66.2727L88.706 67.0354L89.0645 65.5011L85.8005 64.7384L85.442 66.2727Z" fill="#ABCD62"></path><path d="M85.0641 67.8909L88.3281 68.6536L88.6866 67.1193L85.4226 66.3566L85.0641 67.8909Z" fill="#EE3425"></path><path d="M84.6857 69.5088L87.9497 70.2715L88.3082 68.7372L85.0442 67.9745L84.6857 69.5088Z" fill="#E7E7E9"></path><path opacity="0.13" d="M85.7968 49.3792L85.5439 49.3201L85.1854 50.8543L85.4383 50.9134L85.7968 49.3792Z" fill="#221F20"></path><path opacity="0.13" d="M85.4185 50.9971L85.1656 50.938L84.8071 52.4723L85.06 52.5313L85.4185 50.9971Z" fill="#221F20"></path><path opacity="0.13" d="M85.0403 52.6152L84.7874 52.5562L84.4289 54.0904L84.6818 54.1495L85.0403 52.6152Z" fill="#221F20"></path><path opacity="0.13" d="M84.6624 54.2332L84.4095 54.1741L84.051 55.7083L84.3039 55.7674L84.6624 54.2332Z" fill="#221F20"></path><path opacity="0.13" d="M84.2844 55.8513L84.0315 55.7922L83.673 57.3265L83.9259 57.3856L84.2844 55.8513Z" fill="#221F20"></path><path opacity="0.13" d="M83.9061 57.4692L83.6532 57.4102L83.2947 58.9444L83.5476 59.0035L83.9061 57.4692Z" fill="#221F20"></path><path opacity="0.13" d="M83.5281 59.0872L83.2752 59.0281L82.9167 60.5623L83.1695 60.6214L83.5281 59.0872Z" fill="#221F20"></path><path opacity="0.13" d="M83.1498 60.7053L82.897 60.6462L82.5385 62.1805L82.7913 62.2396L83.1498 60.7053Z" fill="#221F20"></path><path opacity="0.13" d="M82.7716 62.3232L82.5187 62.2642L82.1602 63.7984L82.4131 63.8575L82.7716 62.3232Z" fill="#221F20"></path><path opacity="0.13" d="M82.3936 63.9412L82.1407 63.8821L81.7822 65.4163L82.0351 65.4754L82.3936 63.9412Z" fill="#221F20"></path><path opacity="0.13" d="M82.0155 65.5632L81.7626 65.5042L81.4041 67.0384L81.657 67.0975L82.0155 65.5632Z" fill="#221F20"></path><path opacity="0.13" d="M81.6376 67.1773L81.3848 67.1182L81.0262 68.6524L81.2791 68.7115L81.6376 67.1773Z" fill="#221F20"></path><path d="M157.555 65.9694L151.254 64.4971L150.895 66.0313L157.196 67.5037L157.555 65.9694Z" fill="#ABCD62"></path><path d="M157.177 67.5873L150.876 66.115L150.517 67.6493L156.818 69.1216L157.177 67.5873Z" fill="#FCDC00"></path><path d="M156.799 69.2053L150.497 67.7329L150.139 69.2672L156.44 70.7395L156.799 69.2053Z" fill="#E7E7E9"></path><path d="M156.42 70.8234L150.119 69.3511L149.761 70.8853L156.062 72.3577L156.42 70.8234Z" fill="#F4801F"></path><path d="M156.042 72.4414L149.741 70.969L149.383 72.5033L155.684 73.9756L156.042 72.4414Z" fill="#EE3425"></path><path d="M155.664 74.0593L149.363 72.5869L149.004 74.1212L155.306 75.5935L155.664 74.0593Z" fill="#0672BA"></path><path d="M155.286 75.6774L148.985 74.2051L148.626 75.7393L154.927 77.2117L155.286 75.6774Z" fill="#ABCD62"></path><path d="M154.908 77.2954L148.607 75.823L148.248 77.3573L154.549 78.8296L154.908 77.2954Z" fill="#E7E7E9"></path><path d="M154.53 78.9133L148.229 77.4409L147.87 78.9752L154.171 80.4475L154.53 78.9133Z" fill="#F4801F"></path><path d="M154.152 80.5314L147.851 79.0591L147.492 80.5934L153.793 82.0657L154.152 80.5314Z" fill="#FCDC00"></path><path d="M153.774 82.1494L147.473 80.677L147.114 82.2113L153.415 83.6836L153.774 82.1494Z" fill="#EE3425"></path><path d="M153.396 83.7675L147.094 82.2952L146.736 83.8294L153.037 85.3018L153.396 83.7675Z" fill="#0672BA"></path><path opacity="0.13" d="M151.506 64.5562L151.254 64.4971L150.895 66.0313L151.148 66.0904L151.506 64.5562Z" fill="#221F20"></path><path opacity="0.13" d="M151.128 66.1741L150.876 66.115L150.517 67.6493L150.77 67.7083L151.128 66.1741Z" fill="#221F20"></path><path opacity="0.13" d="M150.75 67.792L150.497 67.7329L150.139 69.2672L150.392 69.3263L150.75 67.792Z" fill="#221F20"></path><path opacity="0.13" d="M150.372 69.4102L150.119 69.3511L149.761 70.8853L150.014 70.9444L150.372 69.4102Z" fill="#221F20"></path><path opacity="0.13" d="M149.994 71.0281L149.741 70.969L149.383 72.5033L149.636 72.5624L149.994 71.0281Z" fill="#221F20"></path><path opacity="0.13" d="M149.616 72.646L149.363 72.5869L149.004 74.1212L149.257 74.1803L149.616 72.646Z" fill="#221F20"></path><path opacity="0.13" d="M149.238 74.2642L148.985 74.2051L148.626 75.7393L148.879 75.7984L149.238 74.2642Z" fill="#221F20"></path><path opacity="0.13" d="M148.86 75.8821L148.607 75.823L148.248 77.3573L148.501 77.4164L148.86 75.8821Z" fill="#221F20"></path><path opacity="0.13" d="M148.482 77.5L148.229 77.4409L147.87 78.9752L148.123 79.0343L148.482 77.5Z" fill="#221F20"></path><path opacity="0.13" d="M148.104 79.1182L147.851 79.0591L147.492 80.5934L147.745 80.6524L148.104 79.1182Z" fill="#221F20"></path><path opacity="0.13" d="M147.726 80.7361L147.473 80.677L147.114 82.2113L147.367 82.2704L147.726 80.7361Z" fill="#221F20"></path><path opacity="0.13" d="M147.347 82.3543L147.094 82.2952L146.736 83.8294L146.989 83.8885L147.347 82.3543Z" fill="#221F20"></path><path d="M158.443 67.8572L156.806 74.8655L164.037 76.5553L164.992 72.4683L161.632 68.6023L158.443 67.8572Z" fill="#002D40"></path><path d="M167.457 72.6047L165.43 70.5947L165.498 70.7648L167.322 72.5733C167.424 72.6742 167.464 72.8446 167.425 73.0125L166.229 78.1333L166.363 78.1647L167.56 73.044C167.599 72.876 167.559 72.7056 167.457 72.6047Z" fill="#399FB7"></path><path d="M167.322 72.5743L165.498 70.7659L166.116 72.2948C166.164 72.414 166.173 72.5554 166.141 72.6928L164.94 77.8321L166.229 78.1332L167.425 73.0124C167.464 72.8454 167.424 72.6752 167.322 72.5743Z" fill="#12556D"></path><path d="M157.887 75.116L156.806 74.8633L156.576 75.8458L157.658 76.0985L157.887 75.116Z" fill="#308399"></path><path d="M159.037 75.3845L157.955 75.1318L157.726 76.1143L158.807 76.367L159.037 75.3845Z" fill="#308399"></path><path d="M160.185 75.6531L159.104 75.4004L158.874 76.3829L159.956 76.6356L160.185 75.6531Z" fill="#308399"></path><path d="M161.335 75.9216L160.254 75.6689L160.024 76.6514L161.105 76.9041L161.335 75.9216Z" fill="#308399"></path><path d="M162.485 76.1904L161.403 75.9377L161.174 76.9202L162.255 77.1729L162.485 76.1904Z" fill="#308399"></path><path d="M163.633 76.459L162.552 76.2063L162.322 77.1888L163.404 77.4415L163.633 76.459Z" fill="#308399"></path><path d="M164.783 76.7275L163.702 76.4749L163.472 77.4574L164.553 77.71L164.783 76.7275Z" fill="#308399"></path><path d="M157.887 75.116L156.806 74.8633L156.781 74.9701L157.862 75.2228L157.887 75.116Z" fill="#12556D"></path><path d="M159.037 75.3845L157.955 75.1318L157.93 75.2387L159.012 75.4914L159.037 75.3845Z" fill="#12556D"></path><path d="M160.185 75.6531L159.104 75.4004L159.079 75.5073L160.16 75.7599L160.185 75.6531Z" fill="#12556D"></path><path d="M161.335 75.9216L160.254 75.6689L160.229 75.7758L161.31 76.0285L161.335 75.9216Z" fill="#12556D"></path><path d="M162.485 76.1904L161.403 75.9377L161.378 76.0446L162.46 76.2973L162.485 76.1904Z" fill="#12556D"></path><path d="M163.633 76.459L162.552 76.2063L162.527 76.3132L163.608 76.5658L163.633 76.459Z" fill="#12556D"></path><path d="M164.783 76.7275L163.702 76.4749L163.677 76.5817L164.758 76.8344L164.783 76.7275Z" fill="#12556D"></path><path d="M166.97 72.4918L165.498 70.7656L165.963 72.2588C166 72.3754 166.002 72.5151 165.969 72.6524L164.769 77.7918L165.844 78.043L167.041 72.9223C167.079 72.7554 167.052 72.588 166.97 72.4918Z" fill="#002D40"></path><path d="M164.38 83.5767L162.296 84.472L163.374 83.3394C163.458 83.251 163.522 83.1267 163.554 82.9893L164.755 77.85L165.83 78.1013L164.634 83.2221C164.595 83.3889 164.496 83.5269 164.38 83.5767Z" fill="#002D40"></path><path d="M154.683 83.9492L156.32 76.9419L163.552 78.6316L162.597 82.7187L157.872 84.6943L154.683 83.9492Z" fill="#002D40"></path><path d="M166.97 72.4918L165.498 70.7656L165.963 72.2588C166 72.3754 166.002 72.5151 165.969 72.6524L164.769 77.7918L165.844 78.043L167.041 72.9223C167.079 72.7554 167.052 72.588 166.97 72.4918Z" fill="#002D40"></path><path d="M164.867 83.6916L162.159 84.5953L162.296 84.4732L164.732 83.6602C164.868 83.6149 164.98 83.48 165.019 83.3121L166.215 78.1913L166.35 78.2228L165.154 83.3435C165.114 83.5115 165.003 83.6464 164.867 83.6916Z" fill="#399FB7"></path><path d="M164.732 83.659L162.296 84.472L163.527 83.3751C163.623 83.2893 163.694 83.1669 163.726 83.0295L164.927 77.8901L166.215 78.1912L165.019 83.312C164.979 83.4787 164.868 83.6138 164.732 83.659Z" fill="#12556D"></path><path d="M167.322 72.5741L165.498 70.7656L166.116 72.2945C166.164 72.4138 166.173 72.5552 166.141 72.6926L164.94 77.8319L166.229 78.133L167.426 73.0122C167.464 72.8452 167.424 72.675 167.322 72.5741Z" fill="#308399"></path><path d="M164.732 83.659L162.296 84.472L163.527 83.3751C163.623 83.2893 163.694 83.1669 163.726 83.0295L164.927 77.8901L166.215 78.1912L165.019 83.312C164.979 83.4787 164.868 83.6138 164.732 83.659Z" fill="#308399"></path><path d="M157.628 76.2271L156.547 75.9744L156.32 76.9438L157.402 77.1965L157.628 76.2271Z" fill="#308399"></path><path d="M158.781 76.48L157.7 76.2273L157.47 77.2098L158.551 77.4625L158.781 76.48Z" fill="#308399"></path><path d="M159.93 76.7485L158.848 76.4958L158.619 77.4784L159.7 77.731L159.93 76.7485Z" fill="#308399"></path><path d="M161.079 77.0171L159.998 76.7644L159.768 77.7469L160.85 77.9996L161.079 77.0171Z" fill="#308399"></path><path d="M162.229 77.2856L161.147 77.033L160.918 78.0155L161.999 78.2681L162.229 77.2856Z" fill="#308399"></path><path d="M163.377 77.5542L162.296 77.3015L162.067 78.284L163.148 78.5367L163.377 77.5542Z" fill="#308399"></path><path d="M164.527 77.823L163.446 77.5703L163.216 78.5528L164.297 78.8055L164.527 77.823Z" fill="#308399"></path><path d="M164.783 76.7286L164.701 76.7095L164.471 77.692L164.553 77.7111L164.783 76.7286Z" fill="#399FB7"></path><path d="M164.527 77.8241L164.445 77.8049L164.216 78.7874L164.298 78.8066L164.527 77.8241Z" fill="#399FB7"></path><path d="M163.631 76.4718L163.549 76.4526L163.32 77.4351L163.402 77.4543L163.631 76.4718Z" fill="#399FB7"></path><path d="M163.375 77.5673L163.293 77.5481L163.064 78.5306L163.146 78.5498L163.375 77.5673Z" fill="#399FB7"></path><path d="M162.486 76.1837L162.404 76.1646L162.175 77.1471L162.257 77.1662L162.486 76.1837Z" fill="#399FB7"></path><path d="M162.23 77.2792L162.148 77.26L161.919 78.2425L162.001 78.2617L162.23 77.2792Z" fill="#399FB7"></path><path d="M161.334 75.9308L161.252 75.9116L161.023 76.8941L161.105 76.9133L161.334 75.9308Z" fill="#399FB7"></path><path d="M161.078 77.0262L160.996 77.0071L160.767 77.9896L160.849 78.0087L161.078 77.0262Z" fill="#399FB7"></path><path d="M160.188 75.6466L160.106 75.6274L159.876 76.6099L159.958 76.6291L160.188 75.6466Z" fill="#399FB7"></path><path d="M159.932 76.7421L159.85 76.7229L159.621 77.7054L159.703 77.7246L159.932 76.7421Z" fill="#399FB7"></path><path d="M159.036 75.3937L158.954 75.3745L158.724 76.357L158.806 76.3762L159.036 75.3937Z" fill="#399FB7"></path><path d="M158.78 76.4891L158.698 76.47L158.469 77.4525L158.551 77.4716L158.78 76.4891Z" fill="#399FB7"></path><path d="M157.885 75.1288L157.803 75.1096L157.574 76.0921L157.656 76.1113L157.885 75.1288Z" fill="#399FB7"></path><path d="M157.629 76.2242L157.547 76.2051L157.318 77.1876L157.4 77.2067L157.629 76.2242Z" fill="#399FB7"></path><path d="M160.301 75.6719L160.351 75.6836L160.48 75.1319L164.169 75.9938L164.183 75.9305L160.495 75.0686L160.858 73.5136L164.613 74.3911L164.628 74.3278L160.873 73.4504L161.236 71.8954L164.994 72.7734L165.009 72.7102L161.251 71.8321L161.614 70.2772L163.879 70.8063L163.894 70.7431L161.629 70.2139L161.946 68.8574L161.896 68.8457L161.579 70.2022L158.086 69.3861L158.072 69.4493L161.564 70.2655L161.201 71.8205L157.644 70.9894L157.63 71.0526L161.186 71.8837L160.823 73.4387L157.264 72.607L157.249 72.6703L160.808 73.5019L160.445 75.0569L156.818 74.2095L156.803 74.2728L160.43 75.1202L160.301 75.6719Z" fill="#12556D"></path><path d="M167.432 72.9824L166.759 72.8251C166.777 72.6604 166.743 72.5637 166.739 72.5536L165.383 70.5591L165.342 70.6035L166.694 72.5915C166.695 72.5928 166.722 72.6729 166.709 72.8124L165.962 72.6377L165.947 72.7021L166.7 72.8781C166.697 72.8936 166.695 72.908 166.691 72.9232L166.498 73.7509L165.743 73.5744L165.728 73.6388L166.483 73.8152L166.279 74.6887L165.524 74.5122L165.509 74.5765L166.264 74.753L166.06 75.6265L165.304 75.45L165.289 75.5143L166.045 75.6908L165.84 76.5643L165.085 76.3878L165.07 76.4521L165.825 76.6286L165.621 77.502L164.866 77.3256L164.851 77.3899L165.606 77.5664L165.512 77.9709L165.563 77.9828L165.657 77.5783L166.324 77.734L166.339 77.6696L165.672 77.5139L165.876 76.6405L166.543 76.7962L166.558 76.7318L165.891 76.5762L166.096 75.7027L166.762 75.8584L166.777 75.794L166.111 75.6384L166.315 74.7649L166.981 74.9206L166.996 74.8563L166.33 74.7006L166.534 73.8271L167.2 73.9828L167.215 73.9185L166.549 73.7628L166.742 72.9351C166.746 72.9188 166.748 72.9044 166.751 72.89L167.419 73.0461L167.434 72.9829L167.432 72.9824Z" fill="#12556D"></path><path d="M158.96 81.6362L162.718 82.5143L162.733 82.4499L158.975 81.5719L159.339 80.018L163.094 80.8954L163.109 80.8311L159.354 79.9537L159.717 78.3998L163.405 79.2617L163.42 79.1973L159.732 78.3354L159.861 77.7837L159.811 77.772L159.682 78.3237L156.055 77.4763L156.04 77.5407L159.667 78.3881L159.304 79.942L155.744 79.1103L155.729 79.1746L159.289 80.0063L158.925 81.5602L155.369 80.7291L155.354 80.7935L158.91 81.6245L158.547 83.1784L155.055 82.3623L155.04 82.4266L158.532 83.2428L158.216 84.5982L158.266 84.6099L158.582 83.2545L160.847 83.7836L160.862 83.7193L158.597 83.1901L158.96 81.6362Z" fill="#12556D"></path><path d="M165.548 78.0359L165.497 78.024L165.403 78.4286L164.648 78.2521L164.633 78.3165L165.388 78.4929L165.184 79.3664L164.428 79.1899L164.413 79.2543L165.169 79.4307L164.965 80.3042L164.209 80.1277L164.194 80.1921L164.949 80.3685L164.745 81.242L163.99 81.0655L163.975 81.1299L164.73 81.3063L164.526 82.1798L163.771 82.0033L163.756 82.0676L164.511 82.2441L164.318 83.0718C164.314 83.0881 164.31 83.1021 164.306 83.1161L163.552 82.94L163.537 83.0043L164.285 83.179C164.236 83.3069 164.178 83.3668 164.179 83.367L162.08 84.5545L162.097 84.6126L164.202 83.4207C164.205 83.4169 164.279 83.3467 164.335 83.1907L165.008 83.348L165.023 83.2836L164.355 83.1276C164.359 83.1125 164.363 83.0985 164.367 83.0833L164.56 82.2556L165.227 82.4113L165.242 82.3469L164.575 82.1913L164.78 81.3178L165.446 81.4735L165.461 81.4092L164.795 81.2535L164.999 80.38L165.665 80.5357L165.68 80.4714L165.014 80.3157L165.218 79.4422L165.884 79.5979L165.899 79.5336L165.233 79.3779L165.437 78.5044L166.103 78.6601L166.118 78.5958L165.452 78.4401L165.547 78.0355L165.548 78.0359Z" fill="#12556D"></path><path d="M170.228 77.0272L167.934 73.5139L166.832 78.2312L166.809 78.3283L165.707 83.0456L169.32 80.9125C169.658 80.7131 169.926 80.3124 170.036 79.8424L170.204 79.1227L170.227 79.0257L170.395 78.306C170.505 77.8338 170.442 77.3567 170.228 77.0272Z" fill="#002D40"></path><path d="M166.749 72.8879L167.364 73.2719L167.417 73.044L166.749 72.8879Z" fill="#002D40"></path><path d="M166.129 72.7439L166.655 73.0739L166.698 72.877L166.129 72.7439Z" fill="#002D40"></path><path d="M166.532 73.8171L167.146 74.2011L167.2 73.9732L166.532 73.8171Z" fill="#002D40"></path><path d="M165.911 73.6729L166.437 74.0028L166.481 73.806L165.911 73.6729Z" fill="#002D40"></path><path d="M166.313 74.7539L166.928 75.139L166.981 74.91L166.313 74.7539Z" fill="#002D40"></path><path d="M165.693 74.6096L166.219 74.9407L166.262 74.7427L165.693 74.6096Z" fill="#002D40"></path><path d="M166.096 75.6829L166.71 76.0679L166.764 75.8389L166.096 75.6829Z" fill="#002D40"></path><path d="M165.475 75.5386L166.001 75.8697L166.045 75.6717L165.475 75.5386Z" fill="#002D40"></path><path d="M165.873 76.635L166.488 77.0201L166.541 76.7911L165.873 76.635Z" fill="#002D40"></path><path d="M165.252 76.491L165.778 76.822L165.822 76.6241L165.252 76.491Z" fill="#002D40"></path><path d="M165.655 77.5679L166.27 77.953L166.323 77.724L165.655 77.5679Z" fill="#002D40"></path><path d="M165.035 77.4238L165.561 77.7549L165.605 77.5569L165.035 77.4238Z" fill="#002D40"></path><path d="M165.437 78.5007L166.052 78.8858L166.105 78.6568L165.437 78.5007Z" fill="#002D40"></path><path d="M164.817 78.3567L165.343 78.6867L165.386 78.4898L164.817 78.3567Z" fill="#002D40"></path><path d="M165.22 79.4336L165.834 79.8187L165.888 79.5897L165.22 79.4336Z" fill="#002D40"></path><path d="M164.599 79.2856L165.126 79.6156L165.169 79.4187L164.599 79.2856Z" fill="#002D40"></path><path d="M164.999 80.3782L165.614 80.7622L165.667 80.5343L164.999 80.3782Z" fill="#002D40"></path><path d="M164.379 80.2302L164.905 80.5602L164.948 80.3633L164.379 80.2302Z" fill="#002D40"></path><path d="M164.782 81.3071L165.396 81.6911L165.45 81.4632L164.782 81.3071Z" fill="#002D40"></path><path d="M164.161 81.1631L164.687 81.4931L164.731 81.2962L164.161 81.1631Z" fill="#002D40"></path><path d="M164.562 82.2478L165.176 82.6329L165.23 82.4039L164.562 82.2478Z" fill="#002D40"></path><path d="M163.941 82.1035L164.467 82.4346L164.511 82.2366L163.941 82.1035Z" fill="#002D40"></path><path d="M157.629 76.2231L156.548 75.9705L156.523 76.0773L157.604 76.33L157.629 76.2231Z" fill="#12556D"></path><path d="M158.781 76.48L157.7 76.2273L157.675 76.3342L158.756 76.5868L158.781 76.48Z" fill="#12556D"></path><path d="M159.93 76.7485L158.848 76.4958L158.823 76.6027L159.905 76.8554L159.93 76.7485Z" fill="#12556D"></path><path d="M161.079 77.0171L159.998 76.7644L159.973 76.8713L161.054 77.124L161.079 77.0171Z" fill="#12556D"></path><path d="M162.229 77.2856L161.147 77.033L161.122 77.1398L162.204 77.3925L162.229 77.2856Z" fill="#12556D"></path><path d="M163.377 77.5542L162.296 77.3015L162.271 77.4084L163.353 77.6611L163.377 77.5542Z" fill="#12556D"></path><path d="M164.527 77.823L163.446 77.5703L163.421 77.6772L164.502 77.9299L164.527 77.823Z" fill="#12556D"></path><path d="M76.8309 47.9652L74.908 47.5159L74.5307 49.1308L76.4535 49.5801L76.8309 47.9652Z" fill="#308399"></path><path d="M77.2845 48.6267L76.8317 47.9666L76.4543 49.5815L77.03 49.716L77.2845 48.6267Z" fill="#12556D"></path><path d="M75.8604 49.0395L74.4812 48.7173L73.751 51.8425L75.1301 52.1648L75.8604 49.0395Z" fill="#12556D"></path><path d="M74.9276 45.2646L75.2327 46.1283L74.131 50.8434L73.7061 50.4923L74.9276 45.2646Z" fill="#002D40"></path><path d="M70.8511 49.3186L68.1177 51.7653L69.0291 51.9782L71.3656 49.9448L70.8511 49.3186Z" fill="#002D40"></path><path d="M71.6326 50.257L72.91 44.7905L74.9278 45.262L73.7062 50.4897L71.6326 50.257Z" fill="#12556D"></path><path d="M68.1176 51.7644L68.0058 51.5612L70.7392 49.1145L70.851 49.3177L68.1176 51.7644Z" fill="#12556D"></path><path d="M72.971 61.4031L71.5918 61.0808L70.8616 64.2061L72.2407 64.5283L72.971 61.4031Z" fill="#12556D"></path><path d="M74.7867 45.4954L74.4259 45.4111L73.2436 50.4708L73.6044 50.5551L74.7867 45.4954Z" fill="#110711"></path><path d="M73.985 50.554L70.2094 49.9236L68.8906 55.5678L68.887 55.5831L67.5681 61.2273L71.2318 62.3364L72.9711 61.4019L74.0489 56.7892L74.0524 56.774L75.1303 52.1613L73.985 50.554Z" fill="#002D40"></path><path d="M74.4091 52.1355L73.3629 56.6129L73.3593 56.6282L72.3131 61.1056L72.7734 60.9935L73.771 56.7244L73.7746 56.7091L74.7721 52.44L74.4091 52.1355Z" fill="#308399"></path><path d="M75.2329 46.1262L75.8605 49.0375L75.6206 48.9814L75.1172 46.6213L75.2329 46.1262Z" fill="#002D40"></path><path d="M74.6204 46.2076L74.2597 46.1233L74.2373 46.2193L74.598 46.3035L74.6204 46.2076Z" fill="#12556D"></path><path d="M74.4215 47.0594L74.0607 46.9751L74.0383 47.0711L74.399 47.1554L74.4215 47.0594Z" fill="#12556D"></path><path d="M74.2224 47.911L73.8617 47.8267L73.8393 47.9226L74.2 48.0069L74.2224 47.911Z" fill="#12556D"></path><path d="M74.0236 48.7625L73.6629 48.6782L73.6405 48.7742L74.0012 48.8585L74.0236 48.7625Z" fill="#12556D"></path><path d="M73.8245 49.6141L73.4637 49.5298L73.4413 49.6257L73.8021 49.71L73.8245 49.6141Z" fill="#12556D"></path><path d="M74.5769 53.2728L74.1661 53.1768L74.1401 53.288L74.5509 53.384L74.5769 53.2728Z" fill="#002D40"></path><path d="M74.2783 54.5501L73.8675 54.4541L73.8415 54.5653L74.2523 54.6613L74.2783 54.5501Z" fill="#002D40"></path><path d="M73.9799 55.8274L73.5691 55.7314L73.5431 55.8427L73.9539 55.9387L73.9799 55.8274Z" fill="#002D40"></path><path d="M73.0132 64.304L71.0903 63.8547L70.713 65.4697L72.6358 65.919L73.0132 64.304Z" fill="#308399"></path><path d="M73.3463 65.4813L72.6366 65.9204L73.014 64.3054L73.5896 64.4399L73.3463 65.4813Z" fill="#12556D"></path><path d="M69.7315 67.5007L70.3878 66.8617L71.4898 62.1455L70.953 62.2731L69.7315 67.5007Z" fill="#002D40"></path><path d="M67.8739 62.0596L66.5076 58.656L67.419 58.869L68.6124 61.7273L67.8739 62.0596Z" fill="#002D40"></path><path d="M68.9911 61.5627L67.7135 67.0303L69.7313 67.5018L70.9528 62.2741L68.9911 61.5627Z" fill="#12556D"></path><path d="M66.5077 58.6537L66.3174 58.7863L67.6837 62.1899L67.874 62.0573L66.5077 58.6537Z" fill="#12556D"></path><path d="M70.891 62.1671L70.5302 62.0828L69.3479 67.1425L69.7087 67.2268L70.891 62.1671Z" fill="#110711"></path><path d="M73.5493 50.7052L70.2094 49.9248L68.8905 55.569L68.8869 55.5843L67.5681 61.2285L70.908 62.0089L72.0393 61.1094L73.1003 56.5688L73.1039 56.5535L74.1649 52.0129L73.5493 50.7052Z" fill="#12556D"></path><path d="M76.0125 49.0728L74.2045 56.8106L74.2009 56.8259L72.3928 64.5638L72.5447 64.5992L74.3528 56.8614L74.3564 56.8461L76.1644 49.1082L76.0125 49.0728Z" fill="#308399"></path><path d="M76.1643 49.1106L74.3562 56.8485L74.3526 56.8637L72.5445 64.6016L74.3138 64.5435L76.0174 57.2527L76.021 57.2375L77.7246 49.9467L76.1643 49.1106Z" fill="#12556D"></path><path d="M66.399 52.5247L65.8535 54.8593L65.8499 54.8746L65.3044 57.2093L68.3414 57.9189L68.887 55.5842L68.8905 55.569L69.4361 53.2343L66.399 52.5247Z" fill="#12556D"></path><path d="M66.5538 52.8638L66.0751 54.9127L66.072 54.9258L65.593 56.9759L68.4082 57.6337L68.8873 55.5836L68.8903 55.5706L69.3691 53.5216L66.5538 52.8638Z" fill="#002D40"></path><path d="M69.8973 66.4212L69.5366 66.3369L69.5142 66.4329L69.8749 66.5172L69.8973 66.4212Z" fill="#12556D"></path><path d="M70.0965 65.5696L69.7357 65.4854L69.7133 65.5813L70.0741 65.6656L70.0965 65.5696Z" fill="#12556D"></path><path d="M70.2953 64.7181L69.9345 64.6338L69.9121 64.7297L70.2728 64.814L70.2953 64.7181Z" fill="#12556D"></path><path d="M70.4944 63.8665L70.1337 63.7822L70.1112 63.8782L70.472 63.9625L70.4944 63.8665Z" fill="#12556D"></path><path d="M70.6935 63.015L70.3327 62.9307L70.3103 63.0266L70.671 63.1109L70.6935 63.015Z" fill="#12556D"></path><path d="M70.3879 66.8606L72.2409 64.5278L72.0009 64.4718L70.5038 66.3644L70.3879 66.8606Z" fill="#002D40"></path><path d="M72.9929 60.0506L72.5821 59.9546L72.5561 60.0658L72.9669 60.1618L72.9929 60.0506Z" fill="#002D40"></path><path d="M73.2914 58.7732L72.8806 58.6772L72.8546 58.7885L73.2654 58.8845L73.2914 58.7732Z" fill="#002D40"></path><path d="M73.59 57.4959L73.1792 57.3999L73.1532 57.5111L73.564 57.6071L73.59 57.4959Z" fill="#002D40"></path><path d="M75.754 53.0652L75.5883 53.046L75.7076 52.5356L75.8646 52.5919L75.754 53.0652Z" fill="#308399"></path><path d="M76.3183 53.7776L76.1526 53.7584L76.2718 53.248L76.4289 53.3043L76.3183 53.7776Z" fill="#308399"></path><path d="M75.5475 55.2154L75.3817 55.1962L75.5013 54.6848L75.6581 54.7422L75.5475 55.2154Z" fill="#308399"></path><path d="M75.1017 58.9839L74.936 58.9647L75.0552 58.4543L75.2123 58.5106L75.1017 58.9839Z" fill="#308399"></path><path d="M74.014 62.9836L73.8483 62.9644L73.9675 62.4541L74.1246 62.5104L74.014 62.9836Z" fill="#308399"></path><path d="M77.0141 51.7991L76.8484 51.78L76.9679 51.2686L77.1247 51.3259L77.0141 51.7991Z" fill="#308399"></path><path d="M74.7547 61.0998L74.589 61.0806L74.7082 60.5703L74.8653 60.6266L74.7547 61.0998Z" fill="#308399"></path><defs><linearGradient id="paint0_linear_9626_402392" x1="178.01" y1="81.4928" x2="38.8799" y2="46.1542" gradientUnits="userSpaceOnUse"><stop stop-color="white"></stop><stop offset="0.9919"></stop></linearGradient><linearGradient id="paint1_linear_9626_402392" x1="178.01" y1="81.4928" x2="38.8799" y2="46.1542" gradientUnits="userSpaceOnUse"><stop stop-color="#E3E3E3"></stop><stop offset="0.9919" stop-color="white"></stop></linearGradient><linearGradient id="paint2_linear_9626_402392" x1="181.34" y1="83.4636" x2="15.4758" y2="41.3348" gradientUnits="userSpaceOnUse"><stop stop-color="white"></stop><stop offset="0.9919"></stop></linearGradient><linearGradient id="paint3_linear_9626_402392" x1="181.34" y1="83.4636" x2="15.4758" y2="41.3348" gradientUnits="userSpaceOnUse"><stop stop-color="#B9B9B9"></stop><stop offset="0.9919" stop-color="white"></stop></linearGradient><linearGradient id="paint4_linear_9626_402392" x1="161.842" y1="78.5139" x2="5.52071" y2="38.8089" gradientUnits="userSpaceOnUse"><stop stop-color="white"></stop><stop offset="0.9919"></stop></linearGradient><linearGradient id="paint5_linear_9626_402392" x1="161.842" y1="78.5139" x2="5.52071" y2="38.8089" gradientUnits="userSpaceOnUse"><stop stop-color="#8C8C8C"></stop><stop offset="0.9919" stop-color="white"></stop></linearGradient><linearGradient id="paint6_linear_9626_402392" x1="101.447" y1="40.9281" x2="-4.33798" y2="14.0592" gradientUnits="userSpaceOnUse"><stop offset="0.00141332" stop-color="white"></stop><stop offset="0.9919"></stop></linearGradient><linearGradient id="paint7_linear_9626_402392" x1="101.447" y1="40.9281" x2="-4.33798" y2="14.0592" gradientUnits="userSpaceOnUse"><stop offset="0.00141332" stop-color="#CCCCCC"></stop><stop offset="0.9919" stop-color="#D6D6D6"></stop></linearGradient><linearGradient id="paint8_linear_9626_402392" x1="113.336" y1="45.0642" x2="7.5508" y2="18.1952" gradientUnits="userSpaceOnUse"><stop offset="0.00141332" stop-color="white"></stop><stop offset="0.9919"></stop></linearGradient><linearGradient id="paint9_linear_9626_402392" x1="113.336" y1="45.0642" x2="7.5508" y2="18.1952" gradientUnits="userSpaceOnUse"><stop offset="0.00141332" stop-color="#9E9E9E"></stop><stop offset="0.9919" stop-color="white"></stop></linearGradient><linearGradient id="paint10_linear_9626_402392" x1="90.4608" y1="82.6659" x2="-15.3239" y2="55.797" gradientUnits="userSpaceOnUse"><stop stop-color="white"></stop><stop offset="0.9919"></stop></linearGradient><linearGradient id="paint11_linear_9626_402392" x1="90.4608" y1="82.6659" x2="-15.3239" y2="55.797" gradientUnits="userSpaceOnUse"><stop stop-color="#949494"></stop><stop offset="0.9919" stop-color="white"></stop></linearGradient><linearGradient id="paint12_linear_9626_402392" x1="102.808" y1="84.6874" x2="-2.97658" y2="57.8184" gradientUnits="userSpaceOnUse"><stop stop-color="white"></stop><stop offset="0.9919"></stop></linearGradient><linearGradient id="paint13_linear_9626_402392" x1="102.808" y1="84.6874" x2="-2.97658" y2="57.8184" gradientUnits="userSpaceOnUse"><stop stop-color="#F0F0F0"></stop><stop offset="0.9919" stop-color="#D7D7D7"></stop></linearGradient></defs></svg>