<svg width="221" height="221" viewBox="0 0 221 221" fill="none" xmlns="http://www.w3.org/2000/svg">
<path d="M165.031 165.03C195.391 134.669 195.391 85.4457 165.031 55.0855C134.67 24.7252 85.4467 24.7252 55.0864 55.0855C24.7261 85.4457 24.7261 134.669 55.0864 165.03C85.4467 195.39 134.67 195.39 165.031 165.03Z" stroke="#033248" stroke-opacity="0.3" stroke-miterlimit="10"/>
<path d="M156.098 156.097C181.525 130.67 181.525 89.4449 156.098 64.0178C130.671 38.5907 89.4456 38.5907 64.0186 64.0178C38.5915 89.4449 38.5915 130.67 64.0186 156.097C89.4456 181.525 130.671 181.525 156.098 156.097Z" stroke="#033248" stroke-opacity="0.3" stroke-miterlimit="10"/>
<path d="M147.154 147.153C167.641 126.666 167.641 93.4497 147.154 72.9627C126.667 52.4757 93.4508 52.4757 72.9638 72.9627C52.4769 93.4496 52.4769 126.666 72.9638 147.153C93.4508 167.64 126.667 167.64 147.154 147.153Z" stroke="#033248" stroke-opacity="0.3" stroke-miterlimit="10"/>
<path d="M138.209 138.208C153.756 122.661 153.756 97.4544 138.209 81.9076C122.662 66.3607 97.4554 66.3607 81.9086 81.9076C66.3618 97.4544 66.3618 122.661 81.9086 138.208C97.4554 153.755 122.662 153.755 138.209 138.208Z" stroke="#033248" stroke-opacity="0.3" stroke-miterlimit="10"/>
<path d="M129.276 129.275C139.89 118.662 139.89 101.454 129.276 90.8399C118.663 80.2263 101.454 80.2263 90.8408 90.8399C80.2271 101.454 80.2271 118.662 90.8408 129.275C101.454 139.889 118.663 139.889 129.276 129.275Z" stroke="#033248" stroke-opacity="0.3" stroke-miterlimit="10"/>
</svg>
