<svg width="16" height="17" viewBox="0 0 16 17" fill="none" xmlns="http://www.w3.org/2000/svg">
<circle cx="8" cy="8.99805" r="7.5" transform="rotate(180 8 8.99805)" fill="#F2F6FF" stroke="#356EFD"/>
<path d="M7.26172 7.61719L8.66797 7.61719L8.8368 12.6275C8.85341 13.1205 8.4582 13.5293 7.96484 13.5293C7.47149 13.5293 7.07627 13.1205 7.09289 12.6275L7.26172 7.61719ZM7.96484 6.69141C7.67969 6.69141 7.45117 6.60742 7.2793 6.43945C7.10351 6.27148 7.01562 6.05664 7.01562 5.79492C7.01562 5.53711 7.10351 5.32422 7.2793 5.15625C7.45117 4.98828 7.67969 4.9043 7.96484 4.9043C8.24609 4.9043 8.47461 4.98828 8.65039 5.15625C8.82226 5.32422 8.9082 5.53711 8.9082 5.79492C8.9082 6.05273 8.82226 6.26563 8.65039 6.43359C8.47461 6.60547 8.24609 6.69141 7.96484 6.69141Z" fill="#034AFD"/>
</svg>
