<svg width="158" height="146" viewBox="0 0 158 146" fill="none" xmlns="http://www.w3.org/2000/svg">
<rect opacity="0.5" x="14.4922" y="0.765137" width="51.5427" height="51.5427" rx="10" fill="#FF9C96" fill-opacity="0.3"/>
<rect opacity="0.5" x="128.443" y="33.6353" width="29.3594" height="29.3594" rx="10" fill="#FF9696" fill-opacity="0.3"/>
<rect opacity="0.5" x="0.443359" y="75.6353" width="31.5329" height="31.5329" rx="8" fill="#FFDBDB" fill-opacity="0.5"/>
<rect opacity="0.5" x="114.73" y="107.586" width="36.5935" height="36.5935" rx="8" fill="#FFDBDB"/>
<circle cx="79" cy="83" r="62.5" fill="#FBE6E6" stroke="#CB6464"/>
<path d="M84.8118 93.8743H73.7375L72.2035 48.3501C72.1845 47.7849 72.6375 47.3164 73.203 47.3164H85.3464C85.9118 47.3164 86.3648 47.7849 86.3458 48.3501L84.8118 93.8743ZM79.2747 101.165C81.5203 101.165 83.3198 101.826 84.6733 103.149C86.0576 104.472 86.7498 106.164 86.7498 108.225C86.7498 110.255 86.0576 111.931 84.6733 113.254C83.3198 114.577 81.5203 115.238 79.2747 115.238C77.0598 115.238 75.2603 114.577 73.876 113.254C72.5225 111.931 71.8457 110.255 71.8457 108.225C71.8457 106.194 72.5225 104.518 73.876 103.195C75.2603 101.842 77.0598 101.165 79.2747 101.165Z" fill="#CB6464"/>
</svg>
