<svg width="13" height="14" viewBox="0 0 13 14" fill="none" xmlns="http://www.w3.org/2000/svg">
<circle cx="6.5" cy="7" r="6" fill="#FEF6DF" stroke="#DA9A3B"/>
<path d="M7.09949 8.12195H5.95691L5.81973 4.0511C5.80624 3.65047 6.12735 3.31836 6.5282 3.31836C6.92905 3.31836 7.25016 3.65047 7.23666 4.0511L7.09949 8.12195ZM6.5282 8.87415C6.75989 8.87415 6.94556 8.94238 7.08521 9.07886C7.22803 9.21533 7.29944 9.38989 7.29944 9.60254C7.29944 9.81201 7.22803 9.98499 7.08521 10.1215C6.94556 10.2579 6.75989 10.3262 6.5282 10.3262C6.29968 10.3262 6.11401 10.2579 5.97119 10.1215C5.83154 9.98499 5.76172 9.81201 5.76172 9.60254C5.76172 9.39307 5.83154 9.22009 5.97119 9.08362C6.11401 8.94397 6.29968 8.87415 6.5282 8.87415Z" fill="#DA9A3B"/>
</svg>
