<svg width="13" height="14" viewBox="0 0 13 14" fill="none" xmlns="http://www.w3.org/2000/svg">
<circle cx="6.5" cy="7" r="6" fill="#FBE6E6" stroke="#CB6464"/>
<path d="M8.66616 5.17651C8.68926 5.15341 8.70675 5.12661 8.71867 5.0979C8.73105 5.06796 8.73726 5.03629 8.73726 5.00483C8.73729 4.94273 8.71356 4.88055 8.6662 4.83319C8.64299 4.80998 8.61615 4.79245 8.58741 4.78057C8.58681 4.78032 8.58621 4.78015 8.5855 4.77986C8.55616 4.76801 8.5252 4.76209 8.49444 4.76209C8.43234 4.76205 8.37016 4.78579 8.32276 4.83319C8.3217 4.83425 8.32072 4.83538 8.31984 4.83654L6.49933 6.65704L4.67888 4.83659C4.67796 4.83546 4.67694 4.83423 4.67591 4.8332C4.65278 4.81007 4.62594 4.79254 4.5972 4.78066C4.59653 4.78034 4.59593 4.78016 4.59529 4.77995C4.56595 4.7681 4.53499 4.76218 4.50423 4.76218C4.44213 4.76214 4.37988 4.78581 4.33252 4.83317C4.30945 4.85624 4.29196 4.88311 4.28004 4.91182C4.26762 4.94172 4.26142 4.97339 4.26149 5.00492C4.26149 5.03631 4.26762 5.06791 4.28 5.09785L4.27997 5.09789C4.29189 5.12659 4.30942 5.15343 4.33255 5.17657C4.33357 5.17759 4.33477 5.17865 4.33594 5.17953L6.15636 7.00002L4.33589 8.82049C4.33472 8.82137 4.33356 8.82239 4.3325 8.82345C4.30937 8.84659 4.29184 8.8735 4.27995 8.90217C4.27967 8.90287 4.27949 8.90347 4.27928 8.90411C4.26743 8.93345 4.26147 8.96438 4.26144 8.9951C4.26147 9.05734 4.28517 9.11948 4.33253 9.16685C4.3556 9.18991 4.38244 9.20744 4.41118 9.21933C4.44109 9.23174 4.47276 9.23795 4.50425 9.23791C4.5356 9.23795 4.56724 9.23177 4.59718 9.2194L4.59722 9.21943C4.62592 9.20758 4.6528 9.19002 4.67593 9.16688C4.67699 9.16582 4.67801 9.16466 4.67889 9.1635L6.49936 7.34303L8.31982 9.16348C8.3207 9.16465 8.32169 9.16577 8.32278 9.16687C8.34584 9.18993 8.37268 9.20746 8.40143 9.21934C8.43133 9.23176 8.463 9.23797 8.4945 9.23793C8.52588 9.23793 8.55748 9.23179 8.58743 9.21941C8.61617 9.20753 8.64301 9.19 8.66618 9.16683C8.68928 9.14373 8.70677 9.11693 8.71866 9.08818C8.73103 9.05824 8.73724 9.02657 8.73724 8.99511C8.73724 8.93297 8.71354 8.87083 8.66614 8.82343C8.66505 8.82234 8.66392 8.82135 8.66276 8.82047L6.84227 6.99998L8.66277 5.17948C8.66397 5.17856 8.6651 5.17757 8.66616 5.17651Z" fill="#CB6464" stroke="#CB6464" stroke-width="0.5"/>
</svg>
