<svg width="251" height="251" viewBox="0 0 251 251" fill="none" xmlns="http://www.w3.org/2000/svg">
<g clip-path="url(#clip0_2496_13335)">
<path d="M125.153 250.289C194.189 250.289 250.153 194.325 250.153 125.289C250.153 56.2535 194.189 0.289062 125.153 0.289062C56.1177 0.289062 0.15332 56.2535 0.15332 125.289C0.15332 194.325 56.1177 250.289 125.153 250.289Z" fill="#F7F7F7"/>
<path d="M86.1615 31.0645H44.0684V100.746H86.1615V31.0645Z" fill="#B7B7B7"/>
<path d="M84.7581 31.0645H42.665V100.746H84.7581V31.0645Z" fill="#EBEBEB"/>
<path d="M82.97 32.4766H44.458V99.3281H82.97V32.4766Z" fill="#FAFAFA"/>
<path d="M75.4699 41.166H51.791V90.6448H75.4699V41.166Z" fill="#EBEBEB"/>
<path d="M51.7909 73.1345C51.7338 68.5119 55.8903 63.9987 60.4701 63.3567C62.653 63.0476 64.9738 63.4803 67.0093 62.6481C70.6474 61.1548 71.8078 56.3182 75.4697 54.8867L75.6362 90.6499H51.7861V73.1393L51.7909 73.1345Z" fill="#B7B7B7"/>
<path d="M241.165 33.6738H200.794V75.7574H241.165V33.6738Z" fill="#B7B7B7"/>
<path d="M238.431 33.6738H198.06V75.7574H238.431V33.6738Z" fill="#EBEBEB"/>
<path d="M238.445 75.7723H198.05V33.6602H238.445V75.7675V75.7723ZM198.074 75.7485H238.421V33.6887H198.074V75.7485Z" fill="#EBEBEB"/>
<path d="M233.004 39.334H203.485V70.1037H233.004V39.334Z" fill="#FAFAFA"/>
<path d="M203.486 70.307C203.509 70.3355 203.229 70.6541 202.758 71.1535C202.287 71.6529 201.626 72.3234 200.879 73.0558C200.137 73.7882 199.453 74.4397 198.953 74.901C198.449 75.3623 198.126 75.6382 198.102 75.6096C198.078 75.5859 198.354 75.2625 198.825 74.7679C199.296 74.2685 199.962 73.5932 200.703 72.8608C201.45 72.1284 202.13 71.4721 202.634 71.0108C203.138 70.5495 203.462 70.2784 203.486 70.3022V70.307Z" fill="#B7B7B7"/>
<path d="M233.004 70.2319C233.033 70.2081 233.351 70.4887 233.851 70.9595C234.35 71.4303 235.021 72.0914 235.753 72.838C236.485 73.5799 237.137 74.2647 237.598 74.7641C238.06 75.2682 238.335 75.5916 238.307 75.6154C238.283 75.6391 237.96 75.3633 237.465 74.8925C236.966 74.4217 236.29 73.7559 235.558 73.014C234.826 72.2673 234.169 71.5873 233.708 71.0831C233.247 70.579 232.976 70.2556 232.999 70.2319H233.004Z" fill="#B7B7B7"/>
<path d="M232.924 39.414C232.9 39.3855 233.181 39.0669 233.652 38.5675C234.123 38.0682 234.784 37.3976 235.53 36.6652C236.272 35.9328 236.957 35.2813 237.456 34.82C237.961 34.3587 238.284 34.0829 238.308 34.1114C238.332 34.1352 238.056 34.4586 237.585 34.9532C237.114 35.4525 236.448 36.1231 235.706 36.8602C234.96 37.5926 234.28 38.2489 233.776 38.7102C233.271 39.1715 232.948 39.4426 232.924 39.4188V39.414Z" fill="#B7B7B7"/>
<path d="M203.405 39.4904C203.377 39.5142 203.058 39.2336 202.559 38.7628C202.059 38.2919 201.389 37.6309 200.656 36.8842C199.924 36.1423 199.273 35.4575 198.811 34.9582C198.35 34.4541 198.074 34.1307 198.103 34.1069C198.126 34.0831 198.45 34.3589 198.944 34.8298C199.444 35.3006 200.119 35.9664 200.851 36.7083C201.584 37.4549 202.24 38.135 202.701 38.6391C203.163 39.1432 203.434 39.4666 203.41 39.4904H203.405Z" fill="#B7B7B7"/>
<path d="M232.924 70.1032C232.924 70.1032 232.924 70.0508 232.919 69.9557C232.919 69.8511 232.919 69.7084 232.914 69.5277C232.914 69.1425 232.905 68.5861 232.9 67.868C232.895 66.4127 232.881 64.2916 232.871 61.5951C232.857 56.2069 232.838 48.5311 232.814 39.3382L232.929 39.4524C224.335 39.4571 214.243 39.4619 203.495 39.4714L203.624 39.343C203.619 50.6379 203.609 61.2004 203.605 70.1127L203.49 69.9985C212.312 70.0223 219.655 70.0413 224.806 70.0556C227.379 70.0699 229.4 70.0794 230.793 70.0841C231.478 70.0889 232.011 70.0936 232.377 70.0984C232.553 70.0984 232.686 70.1032 232.786 70.1032C232.876 70.1032 232.929 70.1032 232.929 70.1079C232.929 70.1079 232.886 70.1079 232.8 70.1127C232.705 70.1127 232.572 70.1127 232.401 70.1174C232.039 70.1174 231.516 70.1269 230.836 70.1317C229.452 70.1364 227.436 70.1507 224.872 70.1602C219.708 70.1745 212.336 70.1935 203.486 70.2173H203.372V70.1032C203.367 61.1909 203.362 50.6284 203.353 39.3335V39.2051H203.486C214.234 39.2098 224.325 39.2146 232.919 39.2241H233.033V39.3382C233.009 48.5596 232.99 56.2639 232.976 61.6712C232.962 64.3535 232.952 66.465 232.948 67.9155C232.943 68.6241 232.938 69.1758 232.933 69.5562C232.933 69.7322 232.929 69.8701 232.929 69.9747C232.929 70.0699 232.929 70.1127 232.924 70.1127V70.1032Z" fill="#B7B7B7"/>
<path d="M223.169 49.791H213.32V59.6402H223.169V49.791Z" fill="#EBEBEB"/>
<path d="M180.196 230.885C179.359 230.167 177.485 227.884 178.931 225.235C179.458 224.265 180.586 223.78 181.599 223.352C182.616 222.924 183.686 222.553 184.528 221.835C186.116 220.484 186.554 218.239 187.605 216.437C188.813 214.368 191.072 212.818 193.459 212.927C196.189 213.051 198.472 215.281 199.504 217.826C200.536 220.37 200.574 223.195 200.593 225.944C200.602 227.461 200.536 229.178 199.423 230.2C198.396 231.147 196.845 231.156 195.452 231.113C190.477 230.961 185.498 230.809 180.524 230.657" fill="#F5F5F5"/>
<path d="M208.75 189.829H169.486L176.558 232.003C176.867 233.843 178.199 235.265 179.911 235.755C179.954 235.769 180.001 235.779 180.049 235.793C180.168 235.822 180.277 235.865 180.396 235.884C180.653 235.936 180.924 235.964 181.195 235.974V236.012L181.395 235.983H198.896C199.224 235.983 199.547 235.95 199.857 235.888C201.925 235.57 203.576 233.91 203.828 231.765L207.237 202.708L207.39 201.552H207.371L208.721 190.043L208.745 189.824L208.75 189.829ZM201.345 216.732H197.317L197.721 204.491H202.391L201.345 216.732ZM202.781 204.491H206.638L205.202 216.732H201.735L202.781 204.491ZM191.268 230.3L191.025 219.667H196.827L196.475 230.3H191.272H191.268ZM184.995 219.667H190.635L190.878 230.3H185.822L184.995 219.667ZM185.432 230.3H180.705C180.258 227.428 179.673 223.699 179.041 219.667H184.61L185.437 230.3H185.432ZM184.767 216.732L183.815 204.491H190.283L190.564 216.732H184.767ZM190.954 216.732L190.673 204.491H197.331L196.927 216.732H190.959H190.954ZM190.607 201.557L190.345 190.224H197.802L197.426 201.557H190.607ZM190.217 201.557H183.587L182.707 190.224H189.955L190.217 201.557ZM183.197 201.557H176.182C175.935 199.992 175.697 198.508 175.488 197.177C174.756 192.592 174.48 190.87 174.328 190.224H182.317L183.197 201.557ZM183.425 204.491L184.377 216.732H178.575C178.38 215.491 178.18 214.235 177.985 212.975C177.528 210.084 177.076 207.197 176.648 204.491H183.425ZM178.185 216.732H174.394L172.34 204.491H176.254C176.853 208.272 177.514 212.485 178.18 216.732H178.185ZM178.646 219.667C179.221 223.347 179.792 226.976 180.31 230.3H176.672L174.889 219.667H178.646ZM196.865 230.3L197.217 219.667H201.093L200.185 230.3H196.865ZM197.821 201.557L198.197 190.224H203.609L202.639 201.557H197.816H197.821ZM173.961 190.224C174.118 191.042 174.832 195.503 175.792 201.557H171.85L169.948 190.224H173.957H173.961ZM203.614 230.3H200.579L201.488 219.667H204.86L203.614 230.3ZM206.985 201.557H203.033L204.004 190.224H208.317L206.985 201.557Z" fill="#B7B7B7"/>
<path d="M231.097 236.43C231.097 236.497 185.475 236.554 129.21 236.554C72.9448 236.554 27.3135 236.497 27.3135 236.43C27.3135 236.364 72.9258 236.307 129.21 236.307C185.494 236.307 231.097 236.364 231.097 236.43Z" fill="#263238"/>
<path d="M176.539 184.912L122.561 184.879C116.069 184.879 110.81 179.61 110.81 173.118L110.838 37.7933C110.838 31.297 116.107 26.0324 122.604 26.0371L176.582 26.0704C183.073 26.0704 188.333 31.3398 188.333 37.8314L188.304 173.161C188.304 179.657 183.035 184.922 176.539 184.917V184.912Z" fill="#455A64"/>
<path d="M176.519 30.8544H166.052C164.649 30.8497 163.512 32.0386 163.512 33.5034V35.4009C163.512 36.8705 162.376 38.0594 160.968 38.0547L140.566 38.0404C139.163 38.0404 138.026 36.8514 138.026 35.3819V33.4844C138.026 32.0149 136.89 30.8259 135.487 30.8259H131.806L122.646 30.8164C118.095 30.8164 114.409 34.5021 114.405 39.0486L114.381 171.139C114.381 175.686 118.062 179.372 122.613 179.376L176.486 179.41C181.033 179.41 184.723 175.724 184.728 171.177L184.752 39.0866C184.752 34.5402 181.071 30.8545 176.519 30.8497V30.8544Z" fill="#FAFAFA"/>
<path d="M167.161 35.1387H166.562V35.9757H167.161V35.1387Z" fill="#263238"/>
<path d="M168.135 34.7617H167.536V35.9744H168.135V34.7617Z" fill="#263238"/>
<path d="M169.11 34.4824H168.511V35.9757H169.11V34.4824Z" fill="#263238"/>
<path d="M170.081 33.9395H169.481V35.9749H170.081V33.9395Z" fill="#263238"/>
<path d="M178.912 36.019H175.911C175.792 36.019 175.697 35.9239 175.697 35.805V34.3117C175.697 34.1928 175.792 34.0977 175.911 34.0977H178.917C178.917 34.0977 178.945 34.1024 178.955 34.1119C178.964 34.1214 178.969 34.1357 178.969 34.15V34.6398H179.293C179.321 34.6398 179.35 34.6636 179.35 34.6969V35.415C179.35 35.4435 179.326 35.4721 179.293 35.4721H178.969V35.9619C178.969 35.9904 178.945 36.019 178.912 36.019ZM178.855 34.207H175.907C175.849 34.207 175.802 34.2546 175.802 34.3117V35.805C175.802 35.862 175.849 35.9096 175.907 35.9096H178.855V35.4198C178.855 35.3912 178.879 35.3627 178.912 35.3627H179.236V34.754H178.912C178.884 34.754 178.855 34.7302 178.855 34.6969V34.207Z" fill="#263238"/>
<path d="M176.05 35.6619V34.4492H178.613V34.9961V35.115V35.6619H176.05Z" fill="#263238"/>
<path d="M172.943 35.9043C172.943 35.7854 172.844 35.6855 172.725 35.6855C172.606 35.6855 172.506 35.7854 172.506 35.9043C172.506 36.0232 172.606 36.1231 172.725 36.1231C172.844 36.1231 172.943 36.0232 172.943 35.9043Z" fill="#263238"/>
<path d="M171.978 35.3716L172.258 35.6522C172.377 35.5333 172.543 35.4572 172.724 35.4572C172.905 35.4572 173.071 35.5333 173.19 35.6522L173.471 35.3716C173.281 35.1814 173.014 35.0625 172.724 35.0625C172.434 35.0625 172.168 35.1814 171.978 35.3716Z" fill="#263238"/>
<path d="M172.725 34.4395C172.259 34.4395 171.841 34.6297 171.536 34.9341L171.817 35.2146C172.05 34.9816 172.373 34.8389 172.725 34.8389C173.077 34.8389 173.4 34.9816 173.633 35.2146L173.914 34.9341C173.61 34.6297 173.186 34.4395 172.725 34.4395Z" fill="#263238"/>
<path d="M171.079 34.4778L171.36 34.7584C171.712 34.4065 172.192 34.1925 172.725 34.1925C173.257 34.1925 173.738 34.4112 174.089 34.7584L174.37 34.4778C173.947 34.0545 173.367 33.793 172.725 33.793C172.083 33.793 171.502 34.0545 171.079 34.4778Z" fill="#263238"/>
<path d="M114.947 130.601C114.938 122.083 119.903 113.742 127.398 109.69C132.648 106.851 138.726 106.095 144.542 104.763C150.358 103.427 156.389 101.22 159.984 96.4594C164.844 90.0249 163.917 80.8796 167.422 73.6176C170.594 67.0547 177.576 62.5082 184.861 62.2656V172.837C184.861 176.551 181.851 179.561 178.137 179.561H121.667C117.953 179.561 114.942 176.551 114.942 172.837V130.601H114.947Z" fill="#EBEBEB"/>
<path d="M77.2064 128.641C76.5358 128.161 75.7083 127.966 74.9617 127.614C74.215 127.262 73.4921 126.648 73.4208 125.826C73.3209 124.613 74.662 123.695 74.7429 122.478C74.8523 120.765 72.5362 119.829 72.1938 118.145C71.9132 116.747 73.0974 115.43 73.0499 114.003C72.9975 112.581 71.7658 111.516 71.2046 110.208C69.8968 107.174 72.3127 103.26 70.4818 100.506C69.9919 99.7641 69.25 99.2314 68.6223 98.6037C67.9945 97.9759 67.4523 97.1532 67.5237 96.2686L64.09 94.7087C62.9391 92.9491 60.333 92.8825 58.3689 93.6339C56.4047 94.3853 54.6832 95.736 52.643 96.2353C51.6538 96.4779 51.7964 95.0131 50.7977 95.2176C49.4851 95.4839 47.8682 97.02 47.4972 98.2946C47.0978 99.6595 46.8172 101.172 46.3321 102.513C45.7947 103.992 44.2063 105.029 44.0588 106.593C43.8876 108.424 45.7757 109.913 45.7804 111.749C45.7804 113.727 43.6023 115.491 44.2966 117.341C44.6961 118.397 45.9136 118.963 46.3368 120.014C46.9218 121.46 45.7566 123.043 45.866 124.603C45.9706 126.139 47.2642 127.295 48.4864 128.232C53.1708 131.813 58.3451 134.795 63.9188 136.711C66.33 137.539 68.8696 138.171 71.4091 137.943C73.9487 137.715 76.5025 136.497 77.8341 134.324C78.9279 132.536 78.9137 129.873 77.2111 128.65L77.2064 128.641Z" fill="#263238"/>
<path d="M67.3908 95.4128C66.7678 92.9303 64.7323 90.8568 62.2641 90.1815C59.7958 89.5062 56.9899 90.2623 55.1923 92.0838C54.4599 92.8257 53.8797 93.734 53.0141 94.319C52.0345 94.9753 51.8918 94.785 50.798 95.2131C49.7041 95.6458 47.6925 98.699 47.7305 99.8737L47.1836 105.038C47.2264 106.246 48.7815 106.926 49.9277 106.536C51.0738 106.142 51.83 105.072 52.4387 104.025C53.0427 102.979 53.6134 101.843 54.6026 101.148C56.2433 99.9926 58.469 100.392 60.4331 100.792C62.3972 101.196 64.6752 101.481 66.2066 100.188C67.5287 99.0747 67.814 97.0916 67.3955 95.4128H67.3908Z" fill="#263238"/>
<path d="M68.4704 102.78C68.2516 99.4179 66.0164 95.2995 62.6684 95.6609L52.2152 98.3289C51.1975 98.4383 50.4318 99.3086 50.4556 100.331L51.6303 125.546C51.6065 125.551 51.5827 125.556 51.5589 125.56C51.5589 125.56 55.8106 134.572 62.7207 132.399C64.0903 131.966 62.8491 128.571 63.1202 127.025L63.1915 127.035C63.1915 126.849 63.1963 126.683 63.201 126.507C63.4293 124.728 63.2438 123.044 63.2438 123.044C63.2628 121.009 63.2628 120.172 63.2628 120.191C63.2628 120.191 67.5573 119.468 68.4323 113.866C68.8699 111.079 68.7177 106.509 68.4751 102.775L68.4704 102.78Z" fill="#FFBE9D"/>
<path d="M67.6048 107.099C67.6191 107.48 67.3099 107.803 66.9152 107.827C66.5205 107.851 66.1876 107.561 66.1733 107.18C66.1591 106.8 66.4682 106.476 66.8629 106.453C67.2576 106.429 67.5905 106.719 67.6048 107.099Z" fill="#263238"/>
<path d="M67.4864 105.164C67.396 105.259 66.8539 104.854 66.0787 104.859C65.3082 104.85 64.7376 105.249 64.6567 105.154C64.6139 105.111 64.7043 104.945 64.9516 104.764C65.1941 104.583 65.6079 104.407 66.0882 104.412C66.5685 104.412 66.9775 104.588 67.2105 104.769C67.4483 104.95 67.5292 105.121 67.4864 105.164Z" fill="#263238"/>
<path d="M60.2962 107.342C60.3105 107.722 60.0014 108.045 59.6066 108.069C59.2119 108.093 58.879 107.803 58.8647 107.422C58.8505 107.042 59.1596 106.719 59.5543 106.695C59.949 106.671 60.2819 106.961 60.2962 107.342Z" fill="#263238"/>
<path d="M59.8868 105.326C59.7964 105.421 59.2495 105.017 58.4791 105.021C57.7086 105.012 57.1379 105.411 57.0571 105.316C57.0143 105.273 57.1047 105.107 57.352 104.926C57.5945 104.746 58.0082 104.57 58.4886 104.574C58.9689 104.574 59.3779 104.75 59.6109 104.936C59.8487 105.116 59.9296 105.288 59.8868 105.33V105.326Z" fill="#263238"/>
<path d="M62.7015 111.051C62.7015 111.008 63.1771 110.923 63.9571 110.823C64.1568 110.804 64.3423 110.761 64.3756 110.628C64.4231 110.485 64.3375 110.271 64.2424 110.043C64.0569 109.567 63.8619 109.063 63.6574 108.54C62.8442 106.4 62.2497 104.64 62.3353 104.612C62.421 104.579 63.1533 106.286 63.9666 108.426C64.1616 108.954 64.3518 109.458 64.5277 109.938C64.6038 110.162 64.7322 110.419 64.6324 110.713C64.5801 110.861 64.4326 110.97 64.309 111.004C64.1806 111.042 64.0712 111.046 63.9761 111.051C63.1914 111.094 62.7063 111.099 62.7015 111.051Z" fill="#263238"/>
<path d="M63.2583 120.202C63.2583 120.202 59.4918 120.454 55.749 118.219C55.749 118.219 57.58 122.061 63.1823 121.529L63.2536 120.207L63.2583 120.202Z" fill="#EB996E"/>
<path d="M62.378 112.916C62.0974 112.55 61.6123 112.35 61.1272 112.403C60.7896 112.441 60.4519 112.603 60.2522 112.874C60.0477 113.149 60.0049 113.535 60.1951 113.796C60.4043 114.091 60.8419 114.158 61.2081 114.048C61.579 113.944 61.8929 113.701 62.1973 113.459C62.2781 113.392 62.3637 113.321 62.416 113.23C62.4683 113.14 62.4778 113.016 62.416 112.94" fill="#EB996E"/>
<path d="M60.4286 111.588C60.5523 111.578 60.5571 112.42 61.2752 113.015C61.9933 113.609 62.8874 113.514 62.8969 113.633C62.9064 113.685 62.6971 113.795 62.3214 113.809C61.9505 113.823 61.4083 113.704 60.9708 113.343C60.5333 112.977 60.343 112.492 60.3145 112.149C60.2812 111.797 60.3763 111.588 60.4334 111.593L60.4286 111.588Z" fill="#263238"/>
<path d="M60.2283 103.968C60.1522 104.178 59.3818 104.083 58.4735 104.192C57.5651 104.287 56.8327 104.553 56.7138 104.363C56.6615 104.273 56.7852 104.073 57.08 103.869C57.3749 103.664 57.8409 103.469 58.3831 103.407C58.9253 103.345 59.4246 103.431 59.7575 103.564C60.0904 103.697 60.2569 103.864 60.2283 103.964V103.968Z" fill="#263238"/>
<path d="M67.1962 102.923C67.0583 103.099 66.5256 102.918 65.8884 102.909C65.2463 102.88 64.7042 103.028 64.5805 102.847C64.5235 102.757 64.6091 102.581 64.8468 102.414C65.0799 102.248 65.4698 102.11 65.9121 102.124C66.3544 102.138 66.7349 102.295 66.9584 102.476C67.1867 102.657 67.258 102.837 67.2009 102.923H67.1962Z" fill="#263238"/>
<path d="M62.4822 94.2279L62.0066 93.6191C58.7727 93.9901 55.5958 94.7986 52.5807 96.0255C51.3775 96.5154 50.1553 97.1003 49.3325 98.1086C48.1959 99.4925 48.0152 101.404 47.8868 103.188C47.3969 109.988 46.988 116.989 49.128 123.461C49.6417 122.634 50.6499 122.263 51.6058 122.078C52.5617 121.892 53.5651 121.83 54.4354 121.388C55.3866 120.903 56.0809 119.971 56.3473 118.934C56.6136 117.897 56.4662 116.775 56.0001 115.814C55.4817 114.735 54.5543 113.698 54.7779 112.523C55.0156 111.291 56.4281 110.588 56.761 109.38C57.3317 107.292 54.4022 105.418 54.9966 103.335C55.2154 102.565 55.886 102.004 56.6041 101.652C57.3174 101.295 58.1021 101.095 58.8298 100.758C61.2457 99.6352 62.7913 96.8721 62.4822 94.2279Z" fill="#263238"/>
<path d="M90.7634 136.945L84.21 147.142C84.21 147.142 84.9376 148.35 86.5165 148.283C88.0907 148.216 90.2593 144.279 90.5208 143.48C90.7776 142.681 90.4257 141.915 90.6635 141.387C90.9013 140.859 90.8062 139.399 90.8062 139.399C90.7729 139.485 92.2234 137.54 90.7681 136.945H90.7634Z" fill="#FFBE9D"/>
<path d="M82.4033 147.136L85.8179 133.635C85.9226 133.23 86.1841 132.883 86.5456 132.679L91.5058 129.849C91.8054 129.678 92.1906 129.759 92.3951 130.039C92.514 130.201 92.5521 130.41 92.5045 130.605L88.8902 144.815L82.4081 147.132L82.4033 147.136Z" fill="#263238"/>
<path d="M80.6768 157.599L88.6094 142.961L85.6228 139.09L74.4658 147.56L77.3858 155.607L80.6768 157.599Z" fill="#263238"/>
<path d="M88.7048 146.132C88.7048 146.132 88.8094 145.928 88.8569 145.528C88.9093 145.133 88.8807 144.534 88.6905 143.835L88.681 143.802L88.7 143.769C88.8236 143.555 88.8855 143.279 88.7904 143.017C88.7048 142.756 88.4907 142.508 88.2387 142.328L88.1531 142.266L88.2102 142.175C88.4907 141.757 88.7904 141.305 89.109 140.834C89.1851 140.715 89.285 140.592 89.3182 140.487C89.3563 140.378 89.342 140.254 89.2897 140.135C89.1851 139.897 88.9663 139.674 88.7333 139.507L88.6239 139.427L88.7143 139.322C88.9568 139.046 89.2279 138.77 89.499 138.49C89.9698 137.986 90.4263 137.491 90.8068 136.982C90.9875 136.725 91.173 136.468 91.2919 136.207C91.3585 136.078 91.3965 135.941 91.4108 135.822C91.4203 135.698 91.3632 135.627 91.2919 135.612H91.2633C91.1492 135.574 90.9685 135.617 90.8163 135.674C90.6594 135.731 90.5072 135.807 90.3598 135.879C90.0697 136.031 89.7986 136.197 89.5513 136.354C89.0519 136.678 88.6287 136.982 88.2767 137.234C87.9533 137.472 87.687 137.667 87.4683 137.829C87.278 137.966 87.1782 138.038 87.1686 138.028C87.1591 138.019 87.2495 137.928 87.4255 137.776C87.6014 137.619 87.863 137.401 88.2006 137.134C88.5383 136.868 88.9568 136.545 89.4514 136.207C89.6987 136.04 89.9698 135.864 90.2646 135.703C90.4121 135.622 90.569 135.541 90.7402 135.479C90.9114 135.422 91.0921 135.341 91.3347 135.398H91.3061C91.5344 135.408 91.6628 135.66 91.639 135.831C91.6248 136.002 91.5725 136.159 91.5059 136.307C91.3775 136.602 91.192 136.863 91.0018 137.129C90.6166 137.657 90.1553 138.157 89.6797 138.666C89.4038 138.946 89.1328 139.222 88.895 139.493L88.8712 139.308C89.1375 139.507 89.3753 139.731 89.5132 140.045C89.5798 140.202 89.6036 140.392 89.5418 140.563C89.4752 140.739 89.3848 140.834 89.304 140.963C88.9806 141.433 88.6715 141.88 88.3814 142.299L88.3528 142.152C88.6477 142.366 88.8712 142.637 88.9711 142.96C89.0757 143.283 88.9901 143.621 88.8427 143.854L88.8522 143.788C89.0281 144.52 89.0281 145.129 88.9473 145.538C88.9093 145.742 88.8474 145.894 88.7999 145.989C88.7428 146.085 88.7143 146.132 88.7048 146.127V146.132Z" fill="#EB996E"/>
<path d="M92.3902 130.045C92.3902 130.045 92.2522 130.164 91.9812 130.335C91.7101 130.506 91.3154 130.749 90.8208 131.039C90.3071 131.338 89.7222 131.681 89.0849 132.056C88.7568 132.247 88.4096 132.446 88.0529 132.651C87.6962 132.851 87.311 133.046 87.0162 133.331C86.7165 133.607 86.5977 134.011 86.493 134.401C86.3884 134.801 86.2885 135.181 86.1934 135.552C86.0032 136.27 85.8272 136.922 85.675 137.497C85.5229 138.049 85.3945 138.496 85.3041 138.805C85.209 139.114 85.1519 139.28 85.1329 139.276C85.1186 139.276 85.1424 139.095 85.209 138.781C85.2756 138.467 85.3754 138.015 85.5038 137.454C85.6418 136.879 85.7987 136.218 85.9747 135.495C86.065 135.124 86.1601 134.739 86.26 134.339C86.3599 133.944 86.493 133.483 86.845 133.15C87.1874 132.827 87.5773 132.637 87.9388 132.437C88.2955 132.237 88.6426 132.042 88.9755 131.857C89.6223 131.5 90.2168 131.172 90.7352 130.887C91.2393 130.611 91.6483 130.397 91.9336 130.249C92.2189 130.102 92.3806 130.03 92.3902 130.045Z" fill="#455A64"/>
<path d="M89.1042 134.663C88.9805 134.957 88.9662 135.229 89.0709 135.276C89.1755 135.319 89.361 135.119 89.4846 134.824C89.6083 134.529 89.6225 134.258 89.5179 134.211C89.4133 134.168 89.2278 134.368 89.1042 134.663Z" fill="white"/>
<path d="M64.4131 126.471C67.8562 127.712 70.6621 130.271 72.222 133.585L82.8654 156.227L92.0345 159.946L83.9592 162.272L76.7685 156.998L64.4131 126.471Z" fill="#263238"/>
<path d="M83.9636 162.273L80.102 165.25L60.8317 145.428L49.8174 125.53L51.0919 121.83L59.6095 125.378L62.6579 129.886L63.338 124.165L63.8849 124.94L64.7742 127.351C64.7742 127.351 73.1396 134.309 74.942 139.826C76.4496 144.429 75.9787 153.946 76.8918 156.528L83.9636 162.273Z" fill="#FAFAFA"/>
<path d="M47.7536 125.274C47.6252 125.659 39.5167 128.917 39.1315 131.756C38.7462 134.595 44.9573 156.548 44.9573 156.548L54.8064 165.251H80.1022L72.0793 150.227C70.3482 146.989 68.1653 144.016 65.5877 141.401C63.2146 138.994 60.3373 136.017 58.8583 134.239C57.2556 132.313 50.4596 123.324 50.4596 123.324L47.7584 125.274H47.7536Z" fill="#263238"/>
<path d="M52.8277 126.173C52.8419 126.144 53.3888 126.391 54.2591 126.815C55.1294 127.238 56.3231 127.842 57.6405 128.522C58.1636 128.793 58.663 129.055 59.129 129.302L58.9578 129.416C58.8912 128.337 58.9959 127.409 59.1195 126.767C59.2432 126.125 59.3763 125.759 59.3953 125.764C59.4239 125.773 59.343 126.149 59.2622 126.791C59.1813 127.433 59.11 128.346 59.1908 129.402L59.2051 129.611L59.0196 129.516C58.5536 129.278 58.0495 129.017 57.5263 128.75C56.2137 128.07 55.0296 127.443 54.1783 126.976C53.327 126.51 52.8086 126.206 52.8277 126.177V126.173Z" fill="#263238"/>
<path d="M72.3261 146.193C72.3261 146.193 72.1692 145.97 71.9219 145.551C71.6556 145.09 71.3084 144.486 70.8899 143.758C70.0243 142.246 68.8164 140.153 67.4562 137.866C66.0913 135.578 64.8263 133.524 63.9084 132.04C63.4662 131.327 63.1 130.732 62.8241 130.28C62.5721 129.862 62.4389 129.629 62.4532 129.619C62.4675 129.61 62.6291 129.829 62.905 130.228C63.1856 130.628 63.5803 131.217 64.0559 131.945C65.0118 133.405 66.3053 135.445 67.6702 137.737C69.0351 140.025 70.2146 142.132 71.0468 143.668C71.4606 144.438 71.7887 145.061 72.0122 145.499C72.231 145.936 72.3451 146.179 72.3309 146.188L72.3261 146.193Z" fill="#263238"/>
<g opacity="0.3">
<path d="M68.4268 161.498C69.8963 161.745 71.4039 161.998 72.8687 161.717C74.3334 161.436 75.7697 160.514 76.2262 159.097C76.3689 158.654 76.4307 158.145 76.7731 157.831C77.3391 157.308 78.2379 157.632 79.0083 157.56C79.8644 157.484 80.5967 156.871 81.0438 156.134C81.4908 155.397 81.6953 154.545 81.8951 153.713C81.9949 153.299 82.0948 152.876 82.0472 152.453C81.9997 152.029 81.7762 151.601 81.391 151.43C80.8108 151.169 80.1592 151.549 79.6408 151.92C75.47 154.926 71.6702 158.402 67.8799 161.874" fill="black"/>
</g>
<path d="M77.8765 144.738C77.8765 144.738 79.327 141.409 80.1022 140.948C80.8774 140.486 84.72 138.242 84.72 138.242L84.2254 140.073L87.9825 137.462C88.4438 137.153 91.1308 134.713 91.6064 135.664C91.9488 136.349 89.7564 138.156 89.4615 138.556C88.7291 139.559 88.9717 139.469 88.9717 139.469C88.9717 139.469 89.7659 139.949 89.3664 140.658C88.9669 141.366 88.2916 142.237 88.2916 142.237C88.2916 142.237 89.3379 142.607 88.7291 143.968C88.7291 143.968 89.005 144.7 88.8338 145.713C88.6626 146.726 86.8268 148.657 86.8268 148.657L77.6768 153.013L73.9863 146.75L77.8718 144.729L77.8765 144.738Z" fill="#FFBE9D"/>
<path d="M56.5706 138.484L62.4392 151.011L75.451 145.356C75.451 145.356 80.8535 148.505 80.1021 151.948L68.3792 161.578C66.1582 163.4 63.2905 164.237 60.4371 163.885C57.3744 163.509 54.6351 161.806 52.9373 159.229L44.453 146.317L39.7068 138.56C38.1897 136.078 38.1897 132.882 39.9065 130.533C40.3773 129.891 40.9338 129.353 41.5805 128.959C43.6968 127.67 49.9935 127.109 56.5659 138.475L56.5706 138.484Z" fill="#263238"/>
<path d="M85.4288 139.208C85.4621 139.26 84.6061 139.85 83.517 140.525C82.4279 141.195 81.5196 141.7 81.4863 141.642C81.453 141.59 82.309 141 83.3981 140.325C84.4872 139.655 85.3955 139.15 85.4288 139.208Z" fill="#EB996E"/>
<path d="M89.095 139.094C89.1378 139.141 88.3721 139.964 87.3877 140.939C86.3985 141.909 85.5615 142.661 85.5187 142.618C85.4711 142.575 86.2368 141.748 87.226 140.773C88.2152 139.798 89.0522 139.046 89.095 139.094Z" fill="#EB996E"/>
<path d="M88.605 141.913C88.6525 141.956 88.2958 142.455 87.806 143.031C87.3162 143.606 86.8786 144.044 86.8263 144.001C86.774 143.958 87.1354 143.459 87.6253 142.883C88.1151 142.308 88.5527 141.87 88.605 141.913Z" fill="#EB996E"/>
<path d="M88.7716 143.816C88.8192 143.859 88.6194 144.168 88.3626 144.539C88.1058 144.905 87.8823 145.205 87.8252 145.172C87.7682 145.143 87.9061 144.787 88.1724 144.406C88.4387 144.026 88.7241 143.778 88.7716 143.816Z" fill="#EB996E"/>
<path d="M66.3775 162.819C66.3775 162.819 66.3965 162.796 66.4393 162.762C66.4869 162.72 66.5487 162.672 66.6248 162.605C66.8008 162.463 67.0481 162.263 67.3619 162.011C68.023 161.488 68.9741 160.736 70.1726 159.785C72.6123 157.873 76.0745 155.158 80.2024 151.919L80.1596 152C80.1596 151.363 80.0455 150.707 79.7887 150.084C79.5176 149.465 79.1514 148.876 78.7091 148.319C77.8055 147.23 76.6594 146.255 75.3801 145.461H75.4895C73.3352 146.403 71.0762 147.387 68.7506 148.4C66.601 149.332 64.499 150.245 62.4778 151.125L62.3732 151.173L62.3208 151.073C60.5945 147.677 59.0013 144.477 57.3844 141.699C56.5807 140.306 55.7865 139.017 55.035 137.814C54.2836 136.615 53.5988 135.498 52.8997 134.537C51.5348 132.587 49.9987 131.393 48.8478 130.78C48.5672 130.614 48.3057 130.485 48.0774 130.376C47.8539 130.262 47.6589 130.176 47.5019 130.109C47.3545 130.043 47.2356 129.99 47.1453 129.952C47.0644 129.914 47.0264 129.895 47.0264 129.891C47.0264 129.891 47.7207 130.09 48.8859 130.704C49.4661 131.013 50.1556 131.441 50.8738 132.059C51.5966 132.668 52.3195 133.481 53.0281 134.442C53.7415 135.403 54.4358 136.52 55.192 137.714C55.9481 138.908 56.7566 140.201 57.5651 141.59C59.2011 144.367 60.8038 147.563 62.5349 150.959L62.3779 150.902C64.3991 150.022 66.5011 149.109 68.6507 148.172C70.9715 147.163 73.2353 146.184 75.3896 145.247L75.4467 145.223L75.499 145.256C76.8116 146.074 77.9625 147.059 78.8851 148.176C79.3369 148.747 79.7174 149.356 79.9932 149.998C80.2595 150.649 80.3784 151.339 80.3689 152.01V152.057L80.3261 152.09C76.1743 155.301 72.6931 157.988 70.2392 159.885C69.0217 160.817 68.061 161.554 67.3905 162.063C67.0671 162.306 66.815 162.496 66.6343 162.634L66.4393 162.777C66.3965 162.81 66.3727 162.824 66.368 162.819H66.3775Z" fill="#263238"/>
<path d="M61.6449 154.949C61.5783 154.921 61.935 154.027 62.1395 152.866C62.3535 151.71 62.3297 150.745 62.4058 150.74C62.4676 150.731 62.6055 151.715 62.3868 152.909C62.1728 154.103 61.7019 154.978 61.6449 154.944V154.949Z" fill="#263238"/>
<path d="M133.238 191.744L140.053 200.281C140.053 200.281 151.02 196.219 152.432 197.675L136.353 211.48L125.191 198.616L133.238 191.744Z" fill="#263238"/>
<g opacity="0.6">
<path d="M134.479 203.853C134.242 204.205 134.327 204.738 134.67 204.994C135.012 205.246 135.554 205.166 135.801 204.818C136.044 204.471 135.963 203.825 135.592 203.615C135.226 203.401 134.589 203.534 134.437 203.929" fill="white"/>
</g>
<g opacity="0.6">
<path d="M136.353 211.48L135.278 210.139L151.096 197.403C151.096 197.403 152.08 197.098 152.432 197.674L136.353 211.48Z" fill="white"/>
</g>
<path d="M140.244 199.977C140.31 200.058 139.949 200.428 139.778 201.013C139.592 201.594 139.687 202.102 139.587 202.136C139.502 202.183 139.217 201.613 139.435 200.909C139.645 200.205 140.201 199.891 140.249 199.977H140.244Z" fill="#263238"/>
<path d="M142.525 199.225C142.611 199.287 142.383 199.71 142.402 200.272C142.402 200.833 142.644 201.251 142.564 201.313C142.502 201.389 142.05 200.975 142.04 200.276C142.026 199.577 142.459 199.149 142.525 199.221V199.225Z" fill="#263238"/>
<path d="M145.218 200.419C145.161 200.495 144.714 200.2 144.547 199.596C144.376 198.992 144.599 198.507 144.69 198.545C144.79 198.574 144.747 199.006 144.894 199.501C145.027 199.996 145.289 200.347 145.218 200.424V200.419Z" fill="#263238"/>
<path d="M138.475 198.202C138.503 198.302 138.051 198.502 137.633 198.916C137.205 199.32 136.991 199.762 136.891 199.734C136.796 199.715 136.886 199.134 137.386 198.659C137.88 198.178 138.465 198.112 138.479 198.207L138.475 198.202Z" fill="#263238"/>
<g opacity="0.3">
<path d="M134.584 193.438L135.801 194.955L127.835 201.67L126.685 200.348L134.584 193.438Z" fill="black"/>
</g>
<path d="M137.066 196.505C137.095 196.538 136.829 196.852 136.258 197.194C135.973 197.366 135.616 197.532 135.193 197.661C134.983 197.722 134.755 197.775 134.517 197.813C134.403 197.827 134.275 197.856 134.113 197.832C133.956 197.822 133.728 197.661 133.718 197.447C133.695 197.252 133.794 197.076 133.909 196.971C134.023 196.866 134.142 196.804 134.246 196.752C134.46 196.643 134.684 196.557 134.893 196.495C135.321 196.372 135.721 196.334 136.053 196.343C136.724 196.367 137.104 196.552 137.09 196.59C137.076 196.648 136.686 196.557 136.058 196.6C135.749 196.619 135.378 196.681 134.993 196.814C134.798 196.881 134.603 196.966 134.408 197.066C134.199 197.166 134.051 197.29 134.075 197.404C134.085 197.447 134.094 197.461 134.17 197.48C134.246 197.494 134.356 197.48 134.47 197.466C134.693 197.437 134.903 197.394 135.102 197.342C135.502 197.242 135.854 197.104 136.139 196.971C136.71 196.705 137.033 196.467 137.066 196.51V196.505Z" fill="#263238"/>
<path d="M137.062 196.704C137.043 196.742 136.648 196.594 136.182 196.109C135.954 195.867 135.716 195.539 135.536 195.134C135.445 194.93 135.374 194.706 135.322 194.469C135.279 194.231 135.212 193.917 135.488 193.622C135.64 193.479 135.883 193.489 136.016 193.56C136.163 193.622 136.254 193.708 136.354 193.784C136.544 193.946 136.701 194.136 136.82 194.326C137.062 194.711 137.167 195.115 137.191 195.453C137.233 196.138 136.986 196.514 136.958 196.495C136.896 196.476 137.043 196.09 136.939 195.486C136.886 195.187 136.767 194.835 136.544 194.511C136.43 194.35 136.292 194.193 136.13 194.06C135.959 193.912 135.773 193.827 135.726 193.898C135.645 193.965 135.621 194.212 135.669 194.402C135.712 194.616 135.769 194.821 135.845 195.011C135.992 195.387 136.187 195.705 136.377 195.948C136.763 196.438 137.096 196.661 137.062 196.709V196.704Z" fill="#263238"/>
<path d="M125.829 218.058L125.406 229.225C125.406 229.225 136.615 233.405 136.739 235.478L115.052 235.436L115 218.006L125.829 218.058Z" fill="#263238"/>
<g opacity="0.6">
<path d="M118.705 228.273C118.286 228.387 117.996 228.858 118.091 229.281C118.186 229.704 118.667 230.004 119.085 229.899C119.509 229.795 119.875 229.238 119.732 228.829C119.589 228.42 119.009 228.097 118.624 228.301" fill="white"/>
</g>
<g opacity="0.6">
<path d="M115.058 235.437L115.119 233.682L135.888 234.381C135.888 234.381 136.853 234.804 136.744 235.484L115.058 235.441V235.437Z" fill="white"/>
</g>
<path d="M125.757 229.116C125.757 229.221 125.225 229.268 124.701 229.611C124.169 229.939 123.903 230.395 123.803 230.353C123.703 230.334 123.864 229.701 124.502 229.302C125.139 228.897 125.776 229.026 125.753 229.121L125.757 229.116Z" fill="#263238"/>
<path d="M128.031 230.062C128.055 230.167 127.598 230.343 127.237 230.79C126.861 231.227 126.771 231.712 126.666 231.708C126.566 231.722 126.495 231.104 126.951 230.557C127.403 230.005 128.026 229.962 128.031 230.062Z" fill="#263238"/>
<path d="M129.319 232.787C129.224 232.811 129.076 232.279 129.347 231.703C129.618 231.123 130.118 230.895 130.161 230.98C130.222 231.066 129.899 231.38 129.68 231.855C129.452 232.331 129.419 232.773 129.314 232.787H129.319Z" fill="#263238"/>
<path d="M125.572 226.561C125.53 226.656 125.045 226.509 124.445 226.552C123.846 226.58 123.38 226.78 123.323 226.689C123.261 226.613 123.718 226.223 124.422 226.185C125.125 226.143 125.625 226.48 125.572 226.566V226.561Z" fill="#263238"/>
<g opacity="0.3">
<path d="M125.743 220.27L125.672 222.262L115.014 222.143L115.005 220.35L125.743 220.27Z" fill="black"/>
</g>
<path d="M125.614 224.308C125.614 224.351 125.196 224.417 124.53 224.299C124.197 224.241 123.807 224.132 123.393 223.947C123.189 223.856 122.979 223.747 122.77 223.614C122.67 223.547 122.551 223.485 122.442 223.357C122.323 223.248 122.257 222.967 122.394 222.796C122.504 222.629 122.704 222.558 122.861 222.553C123.022 222.548 123.151 222.582 123.27 222.61C123.512 222.667 123.736 222.748 123.945 222.843C124.359 223.034 124.696 223.271 124.944 223.504C125.448 223.97 125.619 224.365 125.581 224.389C125.533 224.422 125.291 224.094 124.777 223.704C124.52 223.514 124.197 223.314 123.812 223.157C123.617 223.081 123.407 223.015 123.189 222.962C122.96 222.9 122.765 222.9 122.704 223C122.68 223.038 122.68 223.053 122.727 223.124C122.775 223.186 122.87 223.248 122.97 223.309C123.16 223.433 123.355 223.542 123.541 223.638C123.916 223.828 124.278 223.956 124.592 224.042C125.215 224.218 125.619 224.246 125.619 224.303L125.614 224.308Z" fill="#263238"/>
<path d="M125.476 224.46C125.438 224.474 125.229 224.099 125.191 223.409C125.172 223.067 125.21 222.658 125.343 222.22C125.41 222.001 125.5 221.778 125.619 221.559C125.748 221.345 125.904 221.06 126.313 221.012C126.527 221.003 126.703 221.174 126.765 221.316C126.837 221.464 126.851 221.588 126.875 221.716C126.913 221.968 126.908 222.215 126.875 222.448C126.803 222.91 126.618 223.295 126.409 223.571C125.985 224.132 125.543 224.256 125.534 224.222C125.5 224.17 125.866 223.965 126.195 223.428C126.356 223.162 126.499 222.81 126.542 222.41C126.566 222.211 126.561 221.997 126.523 221.783C126.489 221.554 126.404 221.364 126.318 221.388C126.209 221.388 126.028 221.559 125.938 221.744C125.828 221.939 125.738 222.139 125.667 222.334C125.529 222.724 125.472 223.1 125.453 223.419C125.424 224.056 125.534 224.451 125.476 224.47V224.46Z" fill="#263238"/>
<path d="M114.833 165.25L136.291 193.77L126.256 202.392L115.922 188.877L114.833 165.25Z" fill="#263238"/>
<path d="M69.4014 166.614C69.4014 166.614 103.923 156.099 107.086 156.228C110.248 156.361 116.25 167.779 116.25 167.779L106.558 167.428C104.071 173.529 99.4767 179.807 94.3024 186.137L74.4853 185.214L69.4014 166.61V166.614Z" fill="#263238"/>
<path d="M97.6217 158.305C97.6407 158.372 94.0929 159.485 89.6986 160.788C85.2995 162.096 81.7232 163.099 81.7042 163.037C81.6852 162.971 85.2329 161.858 89.632 160.555C94.0263 159.247 97.6074 158.244 97.6264 158.305H97.6217Z" fill="#263238"/>
<path d="M105.645 167.246H115.337C120.174 167.246 124.483 170.299 126.09 174.86C126.846 177.009 127.179 179.283 127.07 181.556L126.314 220.986H113.264L113.031 208.383L111.381 184.424L100.086 184.899L93.6846 184.5L105.645 167.236V167.246Z" fill="#263238"/>
<path d="M105.93 167.047C105.93 167.047 105.883 167.347 105.75 167.879C105.631 168.417 105.388 169.173 105.065 170.105C104.708 171.023 104.271 172.112 103.624 173.244C102.991 174.38 102.202 175.583 101.265 176.753C99.3722 179.093 97.3938 180.957 95.9956 182.327C95.3108 182.983 94.7448 183.53 94.3216 183.935C93.9221 184.31 93.6986 184.515 93.6843 184.505C93.67 184.491 93.8745 184.267 94.2502 183.868C94.6259 183.469 95.1824 182.903 95.8672 182.203C97.2368 180.801 99.1914 178.922 101.07 176.601C102.944 174.276 104.194 171.86 104.898 170.043C105.241 169.13 105.507 168.383 105.655 167.855C105.816 167.332 105.911 167.042 105.93 167.047Z" fill="#455A64"/>
<path d="M117.786 167.514C117.786 167.552 117.11 167.49 116.026 167.428C114.942 167.367 113.439 167.324 111.784 167.357C110.124 167.39 108.626 167.486 107.542 167.562C106.458 167.638 105.782 167.69 105.782 167.652C105.782 167.633 105.944 167.6 106.248 167.552C106.548 167.505 106.985 167.447 107.528 167.386C108.612 167.267 110.115 167.138 111.784 167.11C113.448 167.077 114.961 167.148 116.045 167.252C116.587 167.305 117.025 167.362 117.329 167.409C117.629 167.457 117.795 167.495 117.795 167.509L117.786 167.514Z" fill="#455A64"/>
<path d="M113.207 213.781C113.207 213.781 113.188 213.667 113.174 213.453C113.16 213.211 113.145 212.902 113.122 212.512C113.083 211.665 113.031 210.486 112.965 209.04C112.836 206.11 112.66 202.063 112.38 197.598C112.099 193.132 111.766 189.094 111.524 186.169C111.405 184.728 111.31 183.554 111.243 182.707C111.214 182.317 111.195 182.003 111.176 181.766C111.162 181.552 111.162 181.438 111.172 181.438C111.181 181.438 111.2 181.547 111.229 181.761C111.257 181.999 111.295 182.313 111.343 182.698C111.433 183.544 111.552 184.714 111.704 186.155C111.99 189.075 112.346 193.113 112.632 197.583C112.912 202.054 113.06 206.101 113.145 209.035C113.179 210.481 113.202 211.66 113.221 212.507C113.221 212.897 113.221 213.211 113.226 213.453C113.226 213.667 113.221 213.781 113.212 213.781H113.207Z" fill="#263238"/>
<path d="M127.088 180.035C127.155 180.035 127.112 189.071 126.984 200.214C126.86 211.361 126.703 220.392 126.632 220.392C126.565 220.392 126.608 211.357 126.736 200.214C126.86 189.071 127.017 180.035 127.088 180.04V180.035Z" fill="#455A64"/>
<path d="M116.441 178.56C116.465 178.637 115.104 178.979 113.659 179.873C112.203 180.758 111.281 181.813 111.228 181.761C111.205 181.742 111.404 181.452 111.799 181.043C112.194 180.634 112.793 180.12 113.53 179.664C114.272 179.212 115.005 178.908 115.547 178.746C116.089 178.58 116.436 178.532 116.446 178.56H116.441Z" fill="#263238"/>
<g opacity="0.3">
<path d="M93.6846 184.51C96.3145 184.995 99.206 184.192 101.46 182.784C103.714 181.376 105.384 179.108 106.026 176.582C106.316 175.446 106.401 174.271 106.687 173.135C106.972 171.998 107.495 170.861 108.451 170.153C109.554 169.33 112.275 168.807 113.083 167.708C113.083 167.542 109.864 167.917 108.779 167.975C107.6 168.041 105.626 168.336 105.669 168.198C105.669 168.198 104.88 170.961 104.532 171.56C102.178 175.598 97.0183 181.528 93.6846 184.515" fill="black"/>
</g>
<path d="M39.8828 212.428L43.5495 236.43H47.1876L45.3947 212.518L39.8828 212.428Z" fill="#263238"/>
<path d="M104.456 212.518V236.43H108.299L109.73 212.428L104.456 212.518Z" fill="#263238"/>
<path d="M39.2315 138.247C39.2315 138.247 34.0905 138.451 32.5163 140.606C29.7437 144.406 31.2989 147.701 31.1467 148.824C30.9945 149.946 39.883 212.422 39.883 212.422H43.5449L109.735 213.031L112.912 205.308L111.386 184.425L93.6895 184.506C93.6895 184.506 86.4417 163.704 80.1071 162.311C75.8174 161.369 65.74 161.702 59.6764 162.016C56.6517 162.173 53.7698 160.704 52.1243 158.164L39.2362 138.242L39.2315 138.247Z" fill="#455A64"/>
<path d="M97.8929 209.973C97.8929 209.973 97.5267 210.02 96.8229 210.053C96.119 210.073 95.0823 210.106 93.7412 210.12C91.0589 210.158 87.1592 210.168 82.3084 210.163C72.6019 210.153 59.0766 210.077 43.7773 209.944H43.6774L43.6584 209.849C43.3826 208.541 43.102 207.195 42.8119 205.826C42.5361 204.456 42.2602 203.063 41.9796 201.66C38.6554 184.72 36.7103 169.197 35.664 157.94C35.1361 152.309 34.8223 147.748 34.6225 144.591C34.5369 143.017 34.4703 141.794 34.4228 140.957C34.4037 140.548 34.3895 140.234 34.38 140.011C34.3705 139.797 34.3752 139.688 34.3752 139.688C34.3752 139.688 34.3895 139.797 34.4085 140.011C34.4228 140.23 34.4465 140.544 34.4798 140.957C34.5369 141.794 34.6178 143.017 34.7271 144.591C34.9554 147.744 35.2978 152.304 35.8447 157.931C36.9386 169.178 38.9122 184.686 42.2317 201.617C42.5123 203.02 42.7929 204.413 43.064 205.778C43.3493 207.143 43.6299 208.489 43.9057 209.797L43.7868 209.702C59.0766 209.82 72.6019 209.925 82.3131 210.001C87.1592 210.015 91.0542 210.025 93.7459 210.03C95.0823 210.02 96.119 210.015 96.8277 210.006C97.1796 210.006 97.4459 209.982 97.6219 209.977C97.8026 209.968 97.8929 209.973 97.8929 209.973Z" fill="#263238"/>
<path d="M97.1946 212.921C97.1946 212.921 97.1946 212.816 97.2231 212.621C97.2564 212.403 97.2992 212.122 97.3468 211.78C97.4086 211.413 97.4799 210.966 97.537 210.443C97.5988 209.92 97.6892 209.33 97.7367 208.669C97.7986 208.013 97.8651 207.29 97.8937 206.515C97.946 205.74 97.946 204.908 97.9603 204.037C97.9507 202.292 97.8556 200.371 97.6274 198.368C97.3848 196.366 97.0329 194.478 96.6477 192.776C96.2482 191.073 95.8154 189.561 95.4064 188.305C95.2162 187.673 95.0022 187.112 94.8357 186.617C94.6693 186.118 94.5076 185.694 94.3744 185.352L94.0796 184.553C94.013 184.367 93.9845 184.272 93.994 184.268C94.0035 184.268 94.0463 184.358 94.1271 184.534C94.2127 184.738 94.3269 184.995 94.4648 185.319C94.6122 185.661 94.7882 186.08 94.9689 186.574C95.1496 187.069 95.3779 187.625 95.5776 188.258C96.0104 189.513 96.4622 191.026 96.876 192.733C97.2754 194.44 97.6369 196.338 97.8794 198.349C98.1077 200.361 98.1933 202.292 98.1933 204.047C98.1743 204.922 98.1648 205.759 98.1029 206.534C98.0649 207.314 97.9888 208.037 97.9175 208.698C97.8604 209.359 97.7558 209.949 97.6797 210.472C97.6083 210.995 97.5227 211.437 97.4514 211.803C97.3801 212.146 97.323 212.422 97.2802 212.64C97.2374 212.831 97.2136 212.93 97.2041 212.93L97.1946 212.921Z" fill="#263238"/>
<path d="M48.6904 168.16C48.6904 168.16 48.776 168.074 48.9568 167.936C49.1565 167.784 49.4228 167.58 49.7557 167.327C49.9317 167.194 50.1267 167.047 50.3359 166.89C50.5594 166.743 50.8067 166.6 51.0731 166.438C51.6105 166.124 52.1954 165.73 52.9135 165.411C53.2655 165.24 53.6317 165.059 54.0169 164.874C54.3973 164.683 54.8206 164.545 55.2486 164.369C55.6766 164.208 56.1141 164.013 56.5802 163.865C57.0463 163.718 57.5266 163.566 58.0212 163.409C60.0043 162.833 62.2253 162.324 64.5936 162.044C66.9572 161.744 69.2305 161.606 71.2945 161.64C72.3265 161.621 73.3062 161.706 74.224 161.739C75.1371 161.825 75.9932 161.882 76.7636 161.992C78.314 162.191 79.5505 162.448 80.397 162.657C80.7965 162.767 81.1199 162.857 81.3672 162.924C81.5859 162.986 81.7001 163.024 81.7001 163.033C81.7001 163.043 81.5764 163.019 81.3529 162.971C81.1056 162.914 80.7822 162.843 80.378 162.748C79.5267 162.567 78.2902 162.339 76.7446 162.163C75.9741 162.063 75.1229 162.015 74.2098 161.939C73.2967 161.915 72.3217 161.839 71.2945 161.863C69.24 161.844 66.9763 161.992 64.6269 162.286C62.2728 162.567 60.0614 163.066 58.0878 163.628C57.5979 163.78 57.1176 163.927 56.6563 164.07C56.1902 164.212 55.7575 164.403 55.3294 164.56C54.9062 164.731 54.4829 164.864 54.1025 165.05C53.7173 165.23 53.3511 165.401 52.9991 165.568C52.281 165.872 51.6913 166.257 51.1539 166.557C50.8876 166.714 50.6355 166.852 50.4073 166.99C50.1932 167.142 49.9983 167.28 49.8175 167.408C49.4751 167.646 49.204 167.836 48.9948 167.979C48.8046 168.107 48.6999 168.174 48.6952 168.165L48.6904 168.16Z" fill="#263238"/>
<path d="M88.0303 171.541C88.0303 171.541 88.0207 171.593 87.9827 171.698C87.9494 171.798 87.9019 171.955 87.821 172.15C87.6498 172.53 87.3692 173.096 86.8461 173.71C86.3277 174.318 85.562 174.965 84.5586 175.507C84.0497 175.769 83.4885 176.007 82.875 176.206C82.2568 176.392 81.5862 176.539 80.8729 176.615C79.4414 176.768 77.8625 176.653 76.2075 176.354C74.5525 176.059 72.8214 175.579 70.9952 175.141C69.169 174.713 67.2191 174.328 65.1837 174.371C64.1659 174.39 63.1387 174.532 62.14 174.837C61.1413 175.136 60.1901 175.636 59.3198 176.268C57.5745 177.538 56.2714 179.255 55.1871 180.972C54.098 182.703 53.2372 184.481 52.3194 186.132C51.411 187.782 50.4504 189.318 49.3423 190.593C48.2485 191.872 46.9929 192.88 45.6803 193.484C44.3725 194.083 43.0742 194.354 41.9328 194.369C40.7914 194.383 39.8118 194.155 39.0794 193.836C38.7037 193.689 38.4088 193.489 38.1425 193.332C37.8999 193.146 37.6907 192.985 37.5338 192.842C37.3958 192.695 37.2865 192.58 37.2056 192.495C37.1343 192.414 37.0962 192.376 37.101 192.371C37.101 192.371 37.1485 192.404 37.2246 192.476C37.3102 192.557 37.4244 192.666 37.567 192.804C37.724 192.937 37.938 193.089 38.1805 193.27C38.4469 193.417 38.7417 193.612 39.1127 193.75C39.8403 194.05 40.8057 194.264 41.9281 194.235C43.0504 194.212 44.325 193.926 45.6043 193.332C46.8836 192.733 48.1058 191.734 49.1853 190.464C50.2696 189.199 51.216 187.677 52.1149 186.027C53.0232 184.382 53.884 182.593 54.9731 180.848C56.0621 179.112 57.3747 177.372 59.1629 176.073C60.0522 175.431 61.0271 174.918 62.0591 174.608C63.0864 174.295 64.1374 174.152 65.1741 174.133C67.2477 174.09 69.2118 174.485 71.0475 174.922C72.8785 175.369 74.6048 175.854 76.2455 176.154C77.8863 176.463 79.4461 176.587 80.8538 176.444C81.5577 176.373 82.2187 176.235 82.8275 176.059C83.4362 175.869 83.9926 175.64 84.4967 175.388C85.4907 174.865 86.2516 174.242 86.7747 173.653C87.821 172.445 87.9827 171.522 88.0303 171.551V171.541Z" fill="white"/>
<path d="M112.218 201.965C112.218 201.965 112.147 201.984 112.009 202.017C111.861 202.046 111.657 202.088 111.395 202.141C111.124 202.183 110.81 202.326 110.425 202.44C110.23 202.493 110.045 202.607 109.831 202.697C109.621 202.797 109.393 202.887 109.174 203.03C108.256 203.529 107.243 204.319 106.145 205.322C105.042 206.316 103.862 207.543 102.416 208.746C101.689 209.341 100.895 209.94 99.9719 210.406C99.5249 210.668 99.0207 210.839 98.5214 211.034C98.2598 211.105 97.9983 211.172 97.7367 211.243C97.4751 211.324 97.1945 211.334 96.9187 211.386C95.8154 211.529 94.6455 211.467 93.4898 211.21C92.3294 210.963 91.188 210.501 90.0799 209.94C87.859 208.803 85.7665 207.206 83.7643 205.389C81.7717 203.577 79.7267 201.66 77.3488 200.096C76.1599 199.316 74.9091 198.655 73.5965 198.227C72.2887 197.789 70.9238 197.594 69.5922 197.67C68.2606 197.746 66.9765 198.094 65.7876 198.583C64.5939 199.073 63.4906 199.691 62.4348 200.338C60.3328 201.637 58.4209 203.025 56.4759 204.086C54.526 205.132 52.5761 205.86 50.7499 206.297C47.0833 207.201 43.9873 207.082 41.9138 206.83C39.8307 206.554 38.7227 206.183 38.7227 206.183C38.7227 206.183 38.794 206.193 38.9319 206.221L39.5454 206.354C40.0828 206.468 40.8865 206.616 41.9233 206.735C43.992 206.958 47.0737 207.044 50.7071 206.126C52.5191 205.679 54.4451 204.951 56.376 203.905C58.3021 202.845 60.2044 201.456 62.3159 200.143C63.3717 199.492 64.4893 198.864 65.6972 198.365C66.9052 197.865 68.213 197.509 69.5779 197.428C70.9428 197.347 72.341 197.547 73.6726 197.989C75.009 198.426 76.2788 199.097 77.482 199.886C79.8884 201.47 81.9333 203.396 83.926 205.208C85.9139 207.015 87.9874 208.609 90.1798 209.736C91.2736 210.292 92.396 210.749 93.5326 210.996C94.6692 211.248 95.8059 211.315 96.8854 211.181C97.1517 211.134 97.4276 211.124 97.6844 211.048C97.9412 210.982 98.198 210.91 98.4548 210.844C98.9446 210.653 99.4345 210.492 99.8768 210.235C100.785 209.778 101.575 209.193 102.297 208.609C103.738 207.424 104.927 206.207 106.045 205.218C107.153 204.224 108.185 203.439 109.122 202.944C109.345 202.802 109.578 202.716 109.793 202.616C110.007 202.526 110.197 202.417 110.396 202.364C110.786 202.255 111.105 202.117 111.381 202.084C111.647 202.041 111.852 202.008 112.004 201.984C112.142 201.965 112.218 201.96 112.218 201.96V201.965Z" fill="white"/>
<path d="M46.0323 150.018C46.0323 150.018 46.0132 150.237 45.9039 150.617C45.7992 150.998 45.5995 151.54 45.2666 152.172C44.6246 153.428 43.3358 155.035 41.3907 156.053C39.4408 157.071 37.3863 157.209 35.9881 157.018C35.2843 156.928 34.7231 156.781 34.3522 156.652C33.9764 156.524 33.7815 156.429 33.7862 156.414C33.8005 156.362 34.6185 156.709 36.0119 156.842C37.3911 156.985 39.3885 156.819 41.2813 155.829C43.1741 154.84 44.4486 153.295 45.1192 152.087C45.8087 150.869 45.9895 149.999 46.037 150.018H46.0323Z" fill="white"/>
<path d="M194.862 87.5273H104.95C103.127 87.5273 101.649 89.005 101.649 90.8278V115.168C101.649 116.991 103.127 118.468 104.95 118.468H194.862C196.685 118.468 198.162 116.991 198.162 115.168V90.8278C198.162 89.005 196.685 87.5273 194.862 87.5273Z" fill="white"/>
<path d="M194.863 118.469C194.863 118.469 195.081 118.474 195.5 118.393C195.909 118.307 196.537 118.103 197.136 117.522C197.431 117.237 197.711 116.857 197.897 116.386C198.092 115.91 198.154 115.359 198.13 114.75C198.13 113.537 198.125 112.134 198.12 110.56C198.116 107.407 198.106 103.55 198.101 99.0701C198.101 96.8302 198.097 94.438 198.092 91.8985C198.073 91.266 198.154 90.6097 197.978 89.9962C197.816 89.3779 197.455 88.812 196.96 88.384C196.465 87.956 195.828 87.6849 195.158 87.6278C194.487 87.5993 193.778 87.6231 193.074 87.6136C170.518 87.6231 139.368 87.6373 104.965 87.6516C104.446 87.6516 103.933 87.7848 103.476 88.0225C103.02 88.2651 102.63 88.6218 102.335 89.0403C102.045 89.4683 101.864 89.9629 101.807 90.4718C101.764 90.9759 101.793 91.5275 101.783 92.0507C101.783 94.1765 101.783 96.2833 101.783 98.3806C101.783 102.57 101.783 106.698 101.783 110.755C101.783 111.768 101.783 112.781 101.783 113.784C101.783 114.284 101.778 114.793 101.788 115.282C101.807 115.763 101.935 116.238 102.159 116.662C102.611 117.508 103.457 118.131 104.394 118.293C104.855 118.374 105.355 118.336 105.845 118.345H107.314C111.219 118.345 115.037 118.345 118.766 118.345C133.675 118.355 147.101 118.364 158.377 118.374C169.648 118.388 178.774 118.402 185.08 118.412C188.228 118.421 190.678 118.431 192.342 118.436C193.17 118.44 193.802 118.445 194.23 118.45C194.653 118.45 194.872 118.464 194.872 118.464C194.872 118.464 194.653 118.474 194.23 118.478C193.802 118.478 193.17 118.483 192.342 118.493C190.678 118.497 188.233 118.507 185.08 118.516C178.769 118.526 169.648 118.54 158.377 118.554C147.101 118.564 133.675 118.569 118.766 118.583C115.037 118.583 111.219 118.583 107.314 118.583H105.845C105.355 118.573 104.865 118.616 104.351 118.526C103.338 118.355 102.435 117.684 101.945 116.776C101.702 116.319 101.564 115.81 101.545 115.292C101.531 114.783 101.545 114.289 101.541 113.784C101.541 112.781 101.541 111.768 101.541 110.755C101.541 106.698 101.541 102.57 101.541 98.3806C101.541 96.2833 101.541 94.1765 101.541 92.0507C101.55 91.5133 101.517 90.9996 101.564 90.4432C101.631 89.8963 101.826 89.3589 102.135 88.9024C102.454 88.4506 102.872 88.0654 103.367 87.8038C103.861 87.547 104.418 87.4091 104.974 87.4043C139.377 87.4186 170.527 87.4328 193.084 87.4423C193.793 87.4519 194.477 87.4281 195.181 87.4614C195.885 87.5232 196.556 87.8133 197.074 88.2603C197.592 88.7074 197.973 89.3066 198.139 89.9534C198.234 90.272 198.253 90.6144 198.258 90.9378C198.258 91.2612 198.258 91.5798 198.258 91.8985C198.258 94.438 198.253 96.8349 198.249 99.0701C198.239 103.55 198.234 107.407 198.23 110.56C198.23 112.134 198.22 113.537 198.22 114.75C198.239 115.354 198.173 115.934 197.973 116.41C197.783 116.89 197.488 117.27 197.188 117.56C196.575 118.141 195.933 118.34 195.524 118.417C195.314 118.45 195.153 118.469 195.043 118.464C194.934 118.464 194.882 118.464 194.882 118.464L194.863 118.469Z" fill="#263238"/>
<path d="M191.215 93.8818C191.182 93.8818 191.153 93.8675 191.13 93.8437C191.082 93.7962 191.087 93.7201 191.13 93.6773L193.507 91.3993C193.555 91.3565 193.631 91.3565 193.674 91.3993C193.721 91.4468 193.717 91.5229 193.674 91.5657L191.296 93.8437C191.296 93.8437 191.244 93.877 191.215 93.877V93.8818Z" fill="#263238"/>
<path d="M193.579 93.8918C193.55 93.8918 193.517 93.8823 193.498 93.8585L191.144 91.5615C191.097 91.5139 191.097 91.4426 191.144 91.395C191.192 91.3475 191.263 91.3475 191.311 91.395L193.665 93.6921C193.712 93.7396 193.712 93.811 193.665 93.8585C193.641 93.8823 193.612 93.8966 193.579 93.8966V93.8918Z" fill="#263238"/>
<path d="M172.71 97.9811C172.71 98.0476 158.067 98.1047 140.005 98.1047C121.943 98.1047 107.295 98.0476 107.295 97.9811C107.295 97.9145 121.938 97.8574 140.005 97.8574C158.072 97.8574 172.71 97.9145 172.71 97.9811Z" fill="#263238"/>
<path d="M188.123 103.827C188.123 103.893 170.028 103.95 147.709 103.95C125.39 103.95 107.29 103.893 107.29 103.827C107.29 103.76 125.381 103.703 147.709 103.703C170.037 103.703 188.123 103.76 188.123 103.827Z" fill="#B7B7B7"/>
<path d="M188.123 107.327C188.123 107.393 170.028 107.45 147.709 107.45C125.39 107.45 107.29 107.393 107.29 107.327C107.29 107.26 125.381 107.203 147.709 107.203C170.037 107.203 188.123 107.26 188.123 107.327Z" fill="#B7B7B7"/>
<path d="M179.42 123.301H119.712C117.889 123.301 116.411 124.778 116.411 126.601V141.258C116.411 143.081 117.889 144.559 119.712 144.559H179.42C181.243 144.559 182.72 143.081 182.72 141.258V126.601C182.72 124.778 181.243 123.301 179.42 123.301Z" fill="#FAFAFA"/>
<path d="M179.421 144.56C179.421 144.56 179.568 144.555 179.853 144.517C180.134 144.479 180.567 144.384 181.052 144.098C181.528 143.818 182.079 143.333 182.407 142.581C182.569 142.21 182.674 141.773 182.678 141.302C182.678 140.826 182.678 140.322 182.678 139.785C182.674 137.64 182.664 135.015 182.659 131.971C182.659 130.449 182.655 128.818 182.65 127.092C182.65 126.659 182.659 126.226 182.545 125.808C182.441 125.389 182.246 124.985 181.97 124.633C181.432 123.924 180.562 123.444 179.625 123.396C164.288 123.401 143.111 123.411 119.722 123.42C119.018 123.43 118.314 123.653 117.767 124.091C117.216 124.519 116.807 125.132 116.64 125.808C116.55 126.15 116.531 126.483 116.535 126.849V127.929C116.535 128.647 116.535 129.36 116.535 130.074C116.535 132.922 116.535 135.728 116.535 138.486C116.535 139.176 116.535 139.861 116.535 140.546C116.535 140.883 116.526 141.235 116.55 141.559C116.583 141.887 116.664 142.205 116.792 142.505C117.054 143.1 117.491 143.623 118.043 143.956C118.59 144.303 119.237 144.455 119.888 144.436C122.542 144.436 125.139 144.436 127.673 144.436C137.813 144.445 146.939 144.455 154.61 144.464C162.271 144.479 168.473 144.493 172.767 144.502C174.908 144.512 176.567 144.522 177.704 144.526C178.265 144.531 178.693 144.536 178.988 144.541C179.278 144.541 179.425 144.555 179.425 144.555C179.425 144.555 179.278 144.564 178.988 144.569C178.693 144.569 178.265 144.574 177.704 144.583C176.567 144.588 174.908 144.598 172.767 144.607C168.473 144.617 162.271 144.631 154.61 144.645C146.944 144.655 137.813 144.659 127.673 144.674C125.139 144.674 122.542 144.674 119.888 144.674C119.218 144.697 118.504 144.531 117.919 144.16C117.325 143.799 116.854 143.242 116.574 142.6C116.44 142.277 116.35 141.934 116.312 141.582C116.283 141.226 116.298 140.893 116.293 140.55C116.293 139.866 116.293 139.181 116.293 138.491C116.293 135.733 116.293 132.927 116.293 130.078C116.293 129.365 116.293 128.652 116.293 127.933V126.854C116.283 126.502 116.307 126.107 116.402 125.751C116.583 125.023 117.021 124.362 117.615 123.901C118.205 123.425 118.966 123.182 119.722 123.178C143.115 123.197 164.297 123.211 179.639 123.225C180.624 123.278 181.537 123.791 182.103 124.538C182.388 124.909 182.593 125.332 182.702 125.774C182.821 126.217 182.812 126.673 182.807 127.096C182.807 128.823 182.802 130.449 182.797 131.976C182.788 135.02 182.783 137.645 182.778 139.79C182.778 140.327 182.774 140.831 182.769 141.307C182.759 141.787 182.65 142.234 182.479 142.614C182.136 143.385 181.57 143.865 181.085 144.146C180.591 144.431 180.153 144.517 179.868 144.545C179.578 144.574 179.43 144.564 179.43 144.564L179.421 144.56Z" fill="#263238"/>
<path d="M177.947 127.702C177.913 127.702 177.885 127.687 177.861 127.664C177.813 127.616 177.818 127.54 177.861 127.497L179.497 125.932C179.545 125.89 179.621 125.89 179.663 125.932C179.711 125.98 179.706 126.056 179.663 126.099L178.027 127.664C178.027 127.664 177.975 127.697 177.947 127.697V127.702Z" fill="#263238"/>
<path d="M179.573 127.711C179.545 127.711 179.511 127.701 179.492 127.678L177.876 126.099C177.828 126.051 177.828 125.98 177.876 125.932C177.923 125.885 177.994 125.885 178.042 125.932L179.659 127.511C179.706 127.559 179.706 127.63 179.659 127.678C179.635 127.701 179.607 127.716 179.573 127.716V127.711Z" fill="#263238"/>
<path d="M165.311 130.483C165.311 130.55 155.319 130.607 142.997 130.607C130.674 130.607 120.683 130.55 120.683 130.483C120.683 130.416 130.67 130.359 142.997 130.359C155.323 130.359 165.311 130.416 165.311 130.483Z" fill="#263238"/>
<path d="M175.825 134.501C175.825 134.567 163.48 134.624 148.256 134.624C133.033 134.624 120.683 134.567 120.683 134.501C120.683 134.434 133.024 134.377 148.256 134.377C163.489 134.377 175.825 134.434 175.825 134.501Z" fill="#B7B7B7"/>
<path d="M175.825 136.903C175.825 136.97 163.48 137.027 148.256 137.027C133.033 137.027 120.683 136.97 120.683 136.903C120.683 136.836 133.024 136.779 148.256 136.779C163.489 136.779 175.825 136.836 175.825 136.903Z" fill="#B7B7B7"/>
<path d="M179.422 61.7949H119.714C117.891 61.7949 116.413 63.2726 116.413 65.0954V79.7526C116.413 81.5754 117.891 83.0531 119.714 83.0531H179.422C181.245 83.0531 182.722 81.5754 182.722 79.7526V65.0954C182.722 63.2726 181.245 61.7949 179.422 61.7949Z" fill="#FAFAFA"/>
<path d="M179.422 83.0537C179.422 83.0537 179.569 83.0489 179.854 83.0109C180.135 82.9729 180.568 82.8777 181.053 82.5924C181.528 82.3118 182.08 81.8267 182.408 81.0753C182.57 80.7044 182.675 80.2668 182.679 79.796C182.679 79.3204 182.679 78.8163 182.679 78.2789C182.675 76.1341 182.665 73.5089 182.66 70.4652C182.66 68.9434 182.656 67.3122 182.651 65.5859C182.651 65.1531 182.66 64.7203 182.546 64.3018C182.442 63.8833 182.247 63.4791 181.971 63.1271C181.433 62.4185 180.563 61.9382 179.626 61.8906C164.289 61.8954 143.112 61.9049 119.723 61.9144C119.019 61.9239 118.315 62.1474 117.768 62.585C117.217 63.013 116.808 63.6265 116.641 64.3018C116.551 64.6442 116.532 64.9771 116.536 65.3433V66.4229C116.536 67.141 116.536 67.8543 116.536 68.5677C116.536 71.4164 116.536 74.2223 116.536 76.9806C116.536 77.6702 116.536 78.355 116.536 79.0399C116.536 79.3775 116.527 79.7294 116.551 80.0528C116.584 80.381 116.665 80.6996 116.793 80.9992C117.055 81.5937 117.492 82.1168 118.044 82.4497C118.591 82.7969 119.238 82.9491 119.889 82.9301C122.543 82.9301 125.14 82.9301 127.674 82.9301C137.814 82.9396 146.94 82.9491 154.611 82.9586C162.272 82.9729 168.474 82.9871 172.768 82.9966C174.908 83.0061 176.568 83.0157 177.705 83.0204C178.266 83.0252 178.694 83.0299 178.989 83.0347C179.279 83.0347 179.426 83.0489 179.426 83.0489C179.426 83.0489 179.279 83.0585 178.989 83.0632C178.694 83.0632 178.266 83.068 177.705 83.0775C176.568 83.0822 174.908 83.0917 172.768 83.1013C168.474 83.1108 162.272 83.125 154.611 83.1393C146.945 83.1488 137.814 83.1536 127.674 83.1678C125.14 83.1678 122.543 83.1678 119.889 83.1678C119.219 83.1916 118.505 83.0252 117.92 82.6542C117.326 82.2928 116.855 81.7364 116.575 81.0943C116.441 80.7709 116.351 80.4285 116.313 80.0766C116.284 79.7199 116.299 79.387 116.294 79.0446C116.294 78.3598 116.294 77.675 116.294 76.9854C116.294 74.227 116.294 71.4211 116.294 68.5725C116.294 67.8591 116.294 67.1457 116.294 66.4276V65.3481C116.284 64.9961 116.308 64.6014 116.403 64.2447C116.584 63.5171 117.022 62.8561 117.616 62.3947C118.206 61.9192 118.967 61.6766 119.723 61.6719C143.116 61.6909 164.298 61.7052 179.64 61.7194C180.625 61.7717 181.538 62.2854 182.104 63.032C182.389 63.403 182.594 63.8262 182.703 64.2685C182.822 64.7108 182.813 65.1673 182.808 65.5906C182.808 67.3169 182.803 68.9434 182.798 70.47C182.789 73.5137 182.784 76.1388 182.779 78.2837C182.779 78.8211 182.774 79.3252 182.77 79.8008C182.76 80.2811 182.651 80.7281 182.48 81.1086C182.137 81.879 181.571 82.3594 181.086 82.64C180.592 82.9253 180.154 83.0109 179.869 83.0394C179.579 83.068 179.431 83.0585 179.431 83.0585L179.422 83.0537Z" fill="#263238"/>
<path d="M177.948 66.1938C177.914 66.1938 177.886 66.1795 177.862 66.1558C177.814 66.1082 177.819 66.0321 177.862 65.9893L179.498 64.4247C179.546 64.3819 179.622 64.3819 179.664 64.4247C179.712 64.4722 179.707 64.5483 179.664 64.5911L178.028 66.1558C178.028 66.1558 177.976 66.1891 177.948 66.1891V66.1938Z" fill="#263238"/>
<path d="M179.574 66.1991C179.546 66.1991 179.512 66.1896 179.493 66.1658L177.876 64.5869C177.829 64.5393 177.829 64.468 177.876 64.4204C177.924 64.3729 177.995 64.3729 178.043 64.4204L179.66 65.9993C179.707 66.0469 179.707 66.1182 179.66 66.1658C179.636 66.1896 179.608 66.2038 179.574 66.2038V66.1991Z" fill="#263238"/>
<path d="M165.312 68.9772C165.312 69.0437 155.32 69.1008 142.998 69.1008C130.675 69.1008 120.684 69.0437 120.684 68.9772C120.684 68.9106 130.671 68.8535 142.998 68.8535C155.324 68.8535 165.312 68.9106 165.312 68.9772Z" fill="#263238"/>
<path d="M175.826 72.9908C175.826 73.0574 163.481 73.1145 148.257 73.1145C133.034 73.1145 120.684 73.0574 120.684 72.9908C120.684 72.9243 133.025 72.8672 148.257 72.8672C163.49 72.8672 175.826 72.9243 175.826 72.9908Z" fill="#B7B7B7"/>
<path d="M175.826 75.3971C175.826 75.4637 163.481 75.5207 148.257 75.5207C133.034 75.5207 120.684 75.4637 120.684 75.3971C120.684 75.3305 133.025 75.2734 148.257 75.2734C163.49 75.2734 175.826 75.3305 175.826 75.3971Z" fill="#B7B7B7"/>
<path d="M179.169 147.869H119.96C118.137 147.869 116.659 149.347 116.659 151.17V165.665C116.659 167.488 118.137 168.966 119.96 168.966H179.169C180.992 168.966 182.469 167.488 182.469 165.665V151.17C182.469 149.347 180.992 147.869 179.169 147.869Z" fill="#FAFAFA"/>
<path d="M179.169 168.966C179.169 168.966 179.317 168.962 179.602 168.924C179.883 168.886 180.311 168.791 180.791 168.51C181.267 168.234 181.814 167.759 182.142 167.012C182.308 166.641 182.418 166.213 182.427 165.747C182.427 165.276 182.427 164.772 182.427 164.244C182.422 162.113 182.413 159.512 182.408 156.492C182.408 154.98 182.403 153.368 182.399 151.651C182.399 151.218 182.408 150.795 182.294 150.376C182.189 149.963 181.994 149.558 181.728 149.211C181.195 148.507 180.339 148.022 179.412 147.965C164.194 147.97 143.183 147.979 119.975 147.989C118.567 147.97 117.235 148.992 116.902 150.348C116.807 150.685 116.788 151.018 116.793 151.38V152.45C116.793 153.163 116.793 153.872 116.793 154.576C116.793 157.401 116.793 160.187 116.793 162.927C116.793 163.612 116.793 164.292 116.793 164.972C116.793 165.309 116.783 165.656 116.807 165.975C116.845 166.299 116.921 166.617 117.045 166.917C117.302 167.511 117.735 168.025 118.282 168.362C118.824 168.71 119.461 168.871 120.108 168.852C122.742 168.852 125.32 168.852 127.831 168.852C137.889 168.862 146.944 168.871 154.554 168.881C162.158 168.895 168.312 168.909 172.568 168.919C174.689 168.928 176.34 168.938 177.467 168.943C178.023 168.947 178.446 168.952 178.741 168.957C179.027 168.957 179.174 168.971 179.174 168.971C179.174 168.971 179.027 168.981 178.741 168.985C178.446 168.985 178.023 168.99 177.467 169C176.34 169.005 174.689 169.014 172.568 169.024C168.307 169.033 162.153 169.047 154.554 169.062C146.944 169.071 137.889 169.076 127.831 169.09C125.315 169.09 122.738 169.09 120.108 169.09C119.437 169.109 118.733 168.938 118.158 168.567C117.573 168.206 117.107 167.654 116.826 167.012C116.693 166.688 116.608 166.351 116.569 166.004C116.546 165.647 116.555 165.319 116.55 164.976C116.55 164.296 116.55 163.616 116.55 162.931C116.55 160.197 116.55 157.41 116.55 154.58V151.384C116.546 151.033 116.565 150.643 116.669 150.291C117.026 148.831 118.462 147.727 119.979 147.746C143.192 147.765 164.208 147.784 179.431 147.794C180.411 147.856 181.309 148.369 181.866 149.111C182.146 149.477 182.351 149.901 182.46 150.338C182.579 150.776 182.57 151.228 182.565 151.651C182.565 153.363 182.56 154.98 182.555 156.492C182.546 159.512 182.541 162.113 182.536 164.244C182.536 164.777 182.532 165.276 182.527 165.752C182.513 166.227 182.399 166.669 182.227 167.045C181.88 167.806 181.319 168.282 180.834 168.557C180.339 168.833 179.907 168.924 179.621 168.952C179.336 168.981 179.188 168.971 179.188 168.971L179.169 168.966Z" fill="#263238"/>
<path d="M177.734 152.235C177.7 152.235 177.672 152.221 177.648 152.197C177.601 152.149 177.605 152.073 177.648 152.031L179.27 150.475C179.317 150.433 179.394 150.433 179.436 150.475C179.484 150.523 179.479 150.599 179.436 150.642L177.815 152.197C177.815 152.197 177.762 152.23 177.734 152.23V152.235Z" fill="#263238"/>
<path d="M179.346 152.245C179.318 152.245 179.284 152.236 179.265 152.212L177.663 150.647C177.615 150.6 177.615 150.529 177.663 150.481C177.71 150.433 177.782 150.433 177.829 150.481L179.432 152.046C179.479 152.093 179.479 152.165 179.432 152.212C179.408 152.236 179.379 152.25 179.346 152.25V152.245Z" fill="#263238"/>
<path d="M165.178 154.999C165.178 155.065 155.248 155.122 143.002 155.122C130.756 155.122 120.826 155.065 120.826 154.999C120.826 154.932 130.751 154.875 143.002 154.875C155.253 154.875 165.178 154.932 165.178 154.999Z" fill="#263238"/>
<path d="M175.626 158.979C175.626 159.046 163.357 159.103 148.224 159.103C133.091 159.103 120.821 159.046 120.821 158.979C120.821 158.913 133.086 158.855 148.224 158.855C163.361 158.855 175.626 158.913 175.626 158.979Z" fill="#B7B7B7"/>
<path d="M175.626 161.366C175.626 161.432 163.357 161.489 148.224 161.489C133.091 161.489 120.821 161.432 120.821 161.366C120.821 161.299 133.086 161.242 148.224 161.242C163.361 161.242 175.626 161.299 175.626 161.366Z" fill="#B7B7B7"/>
<path d="M227.873 141.943C222.951 144.492 219.174 148.887 216.459 153.719C213.743 158.555 211.993 163.858 210.262 169.127L208.745 196.292C214.476 186.548 219.07 175.091 220.316 163.853C219.046 163.739 217.776 163.625 216.502 163.515C219.056 163.125 221.205 161.275 222.57 159.078C223.935 156.881 224.639 154.351 225.324 151.859C223.773 152.087 222.223 152.32 220.673 152.549C224.315 150.118 226.955 146.233 227.873 141.948V141.943Z" fill="#455A64"/>
<path d="M227.873 141.943C222.951 144.492 219.174 148.887 216.459 153.719C213.743 158.555 211.993 163.858 210.262 169.127L208.745 196.292C214.476 186.548 219.07 175.091 220.316 163.853C219.046 163.739 217.776 163.625 216.502 163.515C219.056 163.125 221.205 161.275 222.57 159.078C223.935 156.881 224.639 154.351 225.324 151.859C223.773 152.087 222.223 152.32 220.673 152.549C224.315 150.118 226.955 146.233 227.873 141.948V141.943Z" fill="#263238"/>
<path d="M227.873 141.943C222.951 144.492 219.174 148.887 216.459 153.719C213.743 158.555 211.993 163.858 210.262 169.127L208.745 196.292C214.476 186.548 219.07 175.091 220.316 163.853C219.046 163.739 217.776 163.625 216.502 163.515C219.056 163.125 221.205 161.275 222.57 159.078C223.935 156.881 224.639 154.351 225.324 151.859C223.773 152.087 222.223 152.32 220.673 152.549C224.315 150.118 226.955 146.233 227.873 141.948V141.943Z" fill="#033248"/>
<path d="M207.898 202.651C207.898 202.651 195.462 187.77 195.609 173.56H200.631C200.631 173.56 195.177 169.974 195.609 167.962C196.042 165.955 196.185 158.346 196.185 158.346L200.779 159.492C200.779 159.492 197.336 157.771 196.903 155.046C196.47 152.321 197.906 139.689 197.906 139.689C197.906 139.689 203.504 145.572 205.226 151.603C206.947 157.628 211.47 164.662 210.143 183.033C208.816 201.405 207.903 202.651 207.903 202.651H207.898Z" fill="#033248"/>
<path d="M214.204 204.059C214.204 204.059 227.677 195.085 230.669 183.633L226.631 182.535C226.631 182.535 231.8 180.841 231.896 179.134C231.986 177.422 233.536 171.278 233.536 171.278L229.594 171.197C229.594 171.197 232.737 170.564 233.684 168.467C234.625 166.37 236.238 155.902 236.238 155.902C236.238 155.902 230.45 159.407 227.749 163.878C225.047 168.348 219.873 173.014 216.92 188.07C213.966 203.127 214.209 204.064 214.209 204.064L214.204 204.059Z" fill="#033248"/>
<path d="M201.303 152.668C201.303 152.668 201.322 152.72 201.35 152.82C201.379 152.939 201.417 153.086 201.46 153.277C201.555 153.7 201.688 154.29 201.859 155.041C202.03 155.807 202.235 156.748 202.454 157.842C202.677 158.936 202.934 160.182 203.186 161.561C203.719 164.32 204.285 167.62 204.86 171.291C205.421 174.963 205.982 179.01 206.482 183.271C206.972 187.532 207.347 191.603 207.637 195.308C207.908 199.013 208.113 202.356 208.227 205.162C208.298 206.565 208.327 207.835 208.36 208.952C208.398 210.07 208.417 211.03 208.422 211.815C208.427 212.586 208.436 213.194 208.436 213.622C208.436 213.817 208.436 213.974 208.436 214.093C208.436 214.198 208.432 214.255 208.427 214.255C208.427 214.255 208.417 214.203 208.408 214.093C208.403 213.974 208.394 213.817 208.384 213.622C208.37 213.19 208.346 212.586 208.317 211.815C208.294 211.03 208.26 210.07 208.213 208.957C208.165 207.844 208.122 206.574 208.037 205.171C207.904 202.366 207.68 199.027 207.395 195.327C207.09 191.627 206.705 187.561 206.22 183.304C205.721 179.048 205.169 175.006 204.622 171.33C204.056 167.658 203.514 164.358 203.005 161.599C202.763 160.215 202.52 158.969 202.311 157.876C202.106 156.777 201.921 155.835 201.764 155.065C201.617 154.309 201.498 153.714 201.417 153.291C201.384 153.101 201.355 152.949 201.331 152.83C201.312 152.725 201.307 152.673 201.312 152.668H201.303Z" fill="#263238"/>
<path d="M206.177 211.767C206.177 211.767 194.797 198.856 191.263 191.051L193.931 189.91C191.995 190.229 190.017 189.396 188.519 188.136C187.021 186.876 185.918 185.216 184.838 183.58L188.353 182.986C185.157 182.087 182.341 179.909 180.677 177.041C184.824 177.721 188.576 179.999 191.667 182.848C194.169 185.154 196.29 187.827 198.325 190.562C199.319 191.893 200.19 193.315 200.912 194.813C202.824 198.765 206.187 207.026 206.182 211.767H206.177Z" fill="#033248"/>
<path d="M230.845 163.411C230.845 163.411 230.831 163.458 230.793 163.544L230.621 163.919C230.455 164.267 230.227 164.747 229.932 165.356C229.323 166.597 228.462 168.399 227.416 170.639C225.323 175.114 222.57 181.359 219.85 188.388C217.134 195.421 214.97 201.894 213.505 206.612C212.773 208.971 212.198 210.882 211.812 212.209C211.617 212.856 211.47 213.365 211.361 213.736C211.308 213.898 211.27 214.026 211.237 214.131C211.208 214.221 211.189 214.264 211.185 214.264C211.185 214.264 211.185 214.216 211.208 214.126C211.232 214.021 211.265 213.888 211.308 213.726C211.408 213.355 211.541 212.842 211.712 212.185C212.064 210.849 212.616 208.928 213.325 206.559C214.742 201.823 216.882 195.331 219.597 188.293C222.323 181.259 225.105 175.019 227.245 170.558C228.31 168.328 229.199 166.535 229.837 165.308C230.15 164.709 230.393 164.238 230.569 163.896L230.764 163.529C230.812 163.449 230.835 163.406 230.84 163.411H230.845Z" fill="#263238"/>
<path d="M207.142 217.299C207.142 217.299 207.113 217.218 207.085 217.062C207.052 216.876 207.018 216.648 206.971 216.377C206.88 215.782 206.733 214.921 206.524 213.866C206.319 212.81 206.024 211.564 205.649 210.189C205.264 208.82 204.793 207.331 204.217 205.795C203.632 204.259 203.005 202.832 202.386 201.548C201.759 200.274 201.155 199.142 200.612 198.215C200.07 197.282 199.618 196.541 199.29 196.036C199.143 195.803 199.024 195.608 198.924 195.447C198.843 195.309 198.805 195.237 198.81 195.233C198.819 195.228 198.872 195.29 198.967 195.418C199.076 195.57 199.214 195.756 199.376 195.979C199.733 196.469 200.213 197.197 200.774 198.119C201.34 199.037 201.963 200.164 202.605 201.444C203.238 202.728 203.875 204.164 204.465 205.705C205.045 207.25 205.511 208.753 205.887 210.132C206.248 211.516 206.524 212.772 206.709 213.837C206.895 214.902 207.018 215.768 207.075 216.367C207.099 216.643 207.123 216.871 207.142 217.062C207.152 217.218 207.156 217.304 207.142 217.304V217.299Z" fill="#263238"/>
<path d="M222.157 214.26H197.251V219.339H222.157V214.26Z" fill="#455A64"/>
<path d="M199.624 219.344L202.316 236.431H217.368L219.879 219.344H199.624Z" fill="#455A64"/>
<path d="M220.625 219.344C220.625 219.415 215.912 219.477 210.106 219.477C204.299 219.477 199.581 219.415 199.581 219.344C199.581 219.273 204.289 219.211 210.106 219.211C215.922 219.211 220.625 219.273 220.625 219.344Z" fill="#263238"/>
</g>
<defs>
<clipPath id="clip0_2496_13335">
<rect width="250" height="250" fill="white" transform="translate(0.15332 0.289062)"/>
</clipPath>
</defs>
</svg>
