<svg width="401" height="401" viewBox="0 0 401 401" fill="none" xmlns="http://www.w3.org/2000/svg">
<g clip-path="url(#clip0_2532_18763)">
<path d="M200.003 400.621C310.46 400.621 400.003 311.078 400.003 200.621C400.003 90.1642 310.46 0.621094 200.003 0.621094C89.546 0.621094 0.00292969 90.1642 0.00292969 200.621C0.00292969 311.078 89.546 400.621 200.003 400.621Z" fill="#F7F7F7"/>
<path d="M325.796 188.093C325.796 192.242 322.427 195.611 318.278 195.611C314.128 195.611 310.759 192.242 310.759 188.093C310.759 183.943 314.128 180.574 318.278 180.574C322.427 180.574 325.796 183.943 325.796 188.093Z" fill="#EBEBEB"/>
<path d="M301.62 193.755C304.749 190.625 304.749 185.552 301.62 182.423C298.491 179.294 293.418 179.294 290.289 182.423C287.16 185.552 287.16 190.625 290.289 193.755C293.418 196.884 298.491 196.884 301.62 193.755Z" fill="#EBEBEB"/>
<path d="M278.797 182.421C283.491 182.421 287.295 178.617 287.295 173.923C287.295 169.23 283.491 165.425 278.797 165.425C274.104 165.425 270.299 169.23 270.299 173.923C270.299 178.617 274.104 182.421 278.797 182.421Z" fill="#EBEBEB"/>
<path d="M284.073 153.729C284.939 148.902 281.729 144.286 276.901 143.419C272.074 142.552 267.458 145.763 266.591 150.59C265.724 155.418 268.935 160.034 273.762 160.901C278.59 161.767 283.206 158.557 284.073 153.729Z" fill="#EBEBEB"/>
<path d="M286.188 142.248C291.256 142.248 295.363 138.14 295.363 133.073C295.363 128.005 291.256 123.897 286.188 123.897C281.121 123.897 277.013 128.005 277.013 133.073C277.013 138.14 281.121 142.248 286.188 142.248Z" fill="#EBEBEB"/>
<path d="M310.945 134.782C316.043 132.651 318.448 126.792 316.318 121.694C314.188 116.597 308.328 114.191 303.231 116.321C298.133 118.452 295.728 124.311 297.858 129.409C299.988 134.506 305.848 136.912 310.945 134.782Z" fill="#EBEBEB"/>
<path d="M341.933 175.416C342.852 171.511 340.43 167.601 336.525 166.683C332.62 165.764 328.71 168.186 327.792 172.091C326.873 175.996 329.295 179.906 333.2 180.824C337.105 181.743 341.015 179.321 341.933 175.416Z" fill="#EBEBEB"/>
<path d="M341.166 158.159C344.641 156.828 346.379 152.932 345.048 149.457C343.717 145.982 339.821 144.244 336.345 145.575C332.87 146.906 331.132 150.802 332.464 154.278C333.795 157.753 337.691 159.491 341.166 158.159Z" fill="#EBEBEB"/>
<path d="M333.647 133.816C334.19 130.46 331.91 127.298 328.554 126.754C325.197 126.211 322.036 128.491 321.492 131.847C320.948 135.204 323.229 138.366 326.585 138.909C329.942 139.453 333.103 137.172 333.647 133.816Z" fill="#EBEBEB"/>
<path fill-rule="evenodd" clip-rule="evenodd" d="M109.995 96.6507C111.85 98.6339 113.404 100.832 114.638 103.174L122.061 103.142L124.817 115.113L118.127 118.338C118.039 120.991 117.609 123.643 116.804 126.239L122.077 131.472L115.562 141.89L108.553 139.445C106.57 141.3 104.372 142.854 102.03 144.088L102.062 151.519L90.0911 154.283L86.8654 147.592C84.2132 147.505 81.5609 147.067 78.9645 146.27L73.7317 151.543L63.314 145.028L65.7591 138.019C63.9033 136.036 62.3502 133.838 61.1157 131.496L53.6847 131.528L50.929 119.557L57.6192 116.331C57.7069 113.679 58.1449 111.027 58.9414 108.43L53.6688 103.198L60.1839 92.7798L67.1927 95.225C69.1759 93.3692 71.3742 91.8161 73.7158 90.5736L73.6839 83.1426L85.6548 80.3789L88.8804 87.0692C91.5327 87.1568 94.1849 87.5949 96.7814 88.3913L102.006 83.1187L112.424 89.6338L109.979 96.6427L109.995 96.6507ZM95.3398 106.455C89.1672 102.592 81.0353 104.472 77.1724 110.645C73.3096 116.817 75.1892 124.949 81.3618 128.812C87.5344 132.675 95.6663 130.795 99.5292 124.622C103.392 118.45 101.512 110.318 95.3398 106.455Z" fill="#E0E0E0"/>
<path fill-rule="evenodd" clip-rule="evenodd" d="M117.227 46.2901C118.254 47.3892 119.114 48.6078 119.799 49.906L123.909 49.8901L125.438 56.5167L121.735 58.3007C121.687 59.7662 121.448 61.2397 121.002 62.6733L123.917 65.5725L120.309 71.3389L116.43 69.9849C115.331 71.0123 114.112 71.8725 112.814 72.5574L112.83 76.6672L106.204 78.1964L104.419 74.4929C102.954 74.4451 101.48 74.2061 100.047 73.7601L97.1557 76.6752L91.3893 73.0672L92.7433 69.1884C91.7158 68.0893 90.8557 66.8707 90.1707 65.5725L86.061 65.5884L84.5317 58.9618L88.2353 57.1777C88.2831 55.7122 88.522 54.2388 88.968 52.8051L86.053 49.914L89.661 44.1476L93.5397 45.5016C94.6389 44.4741 95.8575 43.614 97.1557 42.929L97.1398 38.8192L103.766 37.29L105.55 40.9936C107.016 41.0414 108.489 41.2803 109.923 41.7263L112.814 38.8113L118.581 42.4193L117.227 46.298V46.2901ZM109.111 51.714C105.694 49.5795 101.194 50.6149 99.0513 54.0317C96.9168 57.4485 97.9522 61.9486 101.369 64.091C104.786 66.2256 109.286 65.1902 111.428 61.7733C113.563 58.3565 112.527 53.8565 109.111 51.714Z" fill="#E0E0E0"/>
<path d="M59.5468 58.54C59.5468 58.54 59.6663 58.5958 59.8813 58.7232C60.0964 58.8506 60.3911 59.0736 60.7256 59.4081C61.3946 60.0612 62.2468 61.2719 62.4221 63.0002C62.5017 63.8524 62.4221 64.8161 62.0557 65.7639C61.6814 66.7038 61.0681 67.6436 60.1521 68.3445C59.7061 68.7029 59.1964 68.9976 58.6389 69.2206C58.0813 69.4436 57.484 69.5949 56.8627 69.6347C55.6203 69.7462 54.3061 69.4277 53.1751 68.7347C52.0601 68.0259 51.1919 66.9825 50.7539 65.8117C50.5149 65.2383 50.3875 64.6329 50.3477 64.0356C50.2999 63.4383 50.3397 62.8489 50.4671 62.2913C50.6981 61.1683 51.2716 60.1966 51.9486 59.4559C52.6335 58.7073 53.4698 58.2135 54.2742 57.9188C55.907 57.3294 57.3645 57.5603 58.2406 57.8789C58.6867 58.0382 59.0212 58.2055 59.2282 58.3409C59.4433 58.4763 59.5468 58.548 59.5389 58.5559C59.515 58.5958 59.0849 58.2931 58.1928 58.0143C57.3167 57.7435 55.907 57.5683 54.3619 58.1657C53.5972 58.4683 52.8167 58.9462 52.1716 59.671C51.5344 60.3878 51.0008 61.3117 50.7937 62.371C50.6742 62.8967 50.6424 63.4542 50.6902 64.0197C50.73 64.5852 50.8574 65.1506 51.0804 65.6922C51.5025 66.7834 52.3149 67.763 53.3663 68.4321C54.4256 69.0772 55.6601 69.3799 56.8229 69.2843C57.4043 69.2445 57.9778 69.117 58.4955 68.902C59.0212 68.7029 59.507 68.4241 59.9291 68.0896C60.7973 67.4365 61.3867 66.5524 61.753 65.6683C62.1194 64.7763 62.207 63.8604 62.1433 63.04C61.9999 61.3834 61.2274 60.1966 60.5982 59.5276C59.961 58.8506 59.499 58.5878 59.5229 58.5559L59.5468 58.54Z" fill="#E0E0E0"/>
<path d="M66.1255 54.1431C66.1255 54.1431 66.1414 54.0794 66.1813 53.944C66.229 53.7926 66.2928 53.5935 66.3724 53.3466C66.5556 52.797 66.8184 52.0085 67.1609 50.9811L67.1848 51.0528C65.9821 50.3121 64.4051 49.3404 62.4936 48.1616L62.6131 48.1457C61.9042 48.8625 61.1157 49.6669 60.2795 50.5192L60.2317 50.5669L60.168 50.551C59.1007 50.2245 57.914 50.0094 56.6555 49.9776H56.5839L56.552 49.9059C56.098 48.974 55.6042 47.9625 55.0945 46.9112L55.2458 46.9829C53.5573 47.3811 51.7653 47.7953 49.8776 48.2333L49.9891 48.0899C49.9891 49.1253 50.0051 50.2563 50.0051 51.4192V51.5147L49.9254 51.5625C48.9458 52.0802 47.9422 52.7732 47.0343 53.6254L46.9626 53.6891L46.867 53.6572C45.8953 53.3147 44.8201 52.9484 43.721 52.5661L43.9201 52.4944C43.0042 53.9599 42.0165 55.5448 41.005 57.1696L40.9811 56.9546C41.7219 57.6873 42.5263 58.4838 43.3466 59.2962L43.4263 59.3758L43.3944 59.4794C43.0679 60.5387 42.8528 61.7493 42.813 62.9759V63.0874L42.7095 63.1351C41.7696 63.5891 40.7422 64.0829 39.7068 64.5847L39.8024 64.3776C40.1926 66.0821 40.6148 67.898 41.0449 69.7458L40.8617 69.6024C41.913 69.6024 43.0519 69.5945 44.1909 69.5865H44.3024L44.3581 69.69C44.8838 70.6856 45.5767 71.6892 46.413 72.5732C46.429 72.6609 46.3732 72.3821 46.4528 72.7644V72.7883L46.4369 72.8122L46.421 72.86L46.3891 72.9555L46.3175 73.1547L46.1821 73.5529L45.9033 74.3414C45.7201 74.8671 45.5369 75.3848 45.3537 75.9104L45.2741 75.6874C46.8511 76.675 48.4121 77.6467 49.9493 78.6104L49.7183 78.6343C50.5068 77.8379 51.2874 77.0494 52.0679 76.2688L52.1476 76.1892L52.2511 76.221C53.398 76.5795 54.5768 76.7706 55.7476 76.8104H55.8591L55.9069 76.914C56.3927 77.9255 56.8786 78.929 57.3485 79.9166L57.1494 79.8211C58.9812 79.3989 60.7733 78.9927 62.5175 78.5865L62.3821 78.7538C62.3821 77.6228 62.3821 76.5157 62.3821 75.4246V75.321L62.4697 75.2733C63.545 74.7078 64.5166 74.0148 65.3609 73.2184L65.4326 73.1547L65.5282 73.1865C66.6034 73.5688 67.6467 73.9352 68.6662 74.2936L68.483 74.3573C69.5184 72.7166 70.4901 71.1635 71.414 69.69L71.4379 69.8653C70.6096 69.0369 69.8291 68.2644 69.0804 67.5157L69.0246 67.4599L69.0485 67.3803C69.4229 66.1697 69.6061 64.9909 69.6459 63.8679V63.7962L69.7176 63.7644C70.8087 63.2387 71.7963 62.7688 72.7202 62.3307L72.6565 62.4582C72.1866 60.3794 71.7884 58.6033 71.4459 57.082L71.5255 57.1457C70.1954 57.1457 69.1043 57.1457 68.1963 57.1378H68.1565L68.1406 57.1059C67.583 56.0307 67.0414 55.3059 66.6751 54.844C66.4919 54.621 66.3565 54.4537 66.2529 54.3263C66.1574 54.2068 66.1096 54.151 66.1175 54.151C66.1175 54.151 66.1813 54.1988 66.2768 54.3024C66.3804 54.4059 66.5317 54.5732 66.7228 54.8041C67.1052 55.2581 67.6706 55.9749 68.2521 57.0502L68.1963 57.0183C69.1043 57.0103 70.1954 56.9944 71.5255 56.9785H71.5892L71.6052 57.0422C71.9636 58.5555 72.3777 60.3316 72.8715 62.4104L72.8954 62.498L72.8158 62.5378C71.8919 62.9918 70.9123 63.4697 69.8211 63.9953L69.8928 63.8918C69.8609 65.0307 69.6857 66.2334 69.3034 67.4759L69.2715 67.3405C70.0282 68.0891 70.8087 68.8538 71.645 69.6821L71.7246 69.7617L71.6609 69.8573C70.737 71.3387 69.7733 72.8918 68.7459 74.5405L68.6822 74.6441L68.5627 74.6042C67.5432 74.2458 66.4919 73.8874 65.4166 73.5131L65.5839 73.4812C64.7158 74.2936 63.7202 75.0104 62.6211 75.5918L62.7087 75.4405C62.7087 76.5317 62.7166 77.6388 62.7246 78.7697V78.9051L62.5892 78.937C60.8449 79.3432 59.0529 79.7573 57.221 80.1795L57.0856 80.2113L57.0219 80.0839C56.544 79.0963 56.0662 78.1007 55.5724 77.0812L55.7317 77.1848C54.529 77.1449 53.3184 76.9458 52.1396 76.5874L52.3228 76.5396C51.5502 77.3202 50.7697 78.1087 49.9812 78.9051L49.8776 79.0087L49.7502 78.929C48.213 77.9653 46.652 76.9936 45.075 76.006L44.9475 75.9264L44.9953 75.783C45.1785 75.2653 45.3617 74.7396 45.5449 74.214L45.8236 73.4255L45.959 73.0272L46.0307 72.8281L46.0626 72.7325L46.0785 72.6847V72.6609L46.0944 72.6449C46.1741 73.0113 46.1183 72.7405 46.1343 72.8281C45.2741 71.9122 44.5652 70.8847 44.0236 69.8573L44.1909 69.9608C43.044 69.9608 41.913 69.9688 40.8617 69.9688H40.7103L40.6785 69.8254C40.2564 67.9776 39.8342 66.1537 39.444 64.4573L39.4121 64.3139L39.5475 64.2502C40.5829 63.7484 41.6103 63.2546 42.5502 62.8086L42.4466 62.9679C42.4865 61.7015 42.7095 60.467 43.0519 59.3758L43.0997 59.5511C42.2794 58.7387 41.475 57.9342 40.7422 57.2015L40.6466 57.1059L40.7183 56.9864C41.7378 55.3617 42.7254 53.7847 43.6493 52.3192L43.721 52.2077L43.8484 52.2555C44.9396 52.6378 46.0148 53.0201 46.9865 53.3625L46.8192 53.3944C47.7511 52.5263 48.7865 51.8174 49.7821 51.2917L49.7024 51.4271C49.7024 50.2643 49.7024 49.1254 49.7024 48.0979V47.9784L49.8139 47.9545C51.7015 47.5245 53.4936 47.1183 55.1901 46.728L55.2936 46.7041L55.3414 46.7997C55.8432 47.851 56.329 48.8705 56.783 49.8023L56.6794 49.7307C57.9618 49.7785 59.1644 50.0015 60.2556 50.3439L60.1441 50.3678C60.9963 49.5236 61.7848 48.7271 62.5016 48.0183L62.5573 47.9625L62.6211 48.0023C64.5166 49.205 66.0857 50.2006 67.2724 50.9572L67.3122 50.9811L67.2963 51.0289C66.9299 52.0324 66.6512 52.805 66.4521 53.3466C66.3565 53.6015 66.2848 53.8006 66.229 53.944C66.1733 54.0794 66.1494 54.151 66.1414 54.151L66.1255 54.1431Z" fill="#E0E0E0"/>
<path d="M256.783 24.2835L233.367 24.172C230.229 24.156 227.672 26.8083 227.656 30.0897L227.64 34.3348C227.624 37.6163 225.068 40.2685 221.93 40.2526L176.284 40.0455C173.146 40.0296 170.613 37.3614 170.621 34.072L170.637 29.8269C170.653 26.5454 168.113 23.8693 164.974 23.8534L156.739 23.8136L136.246 23.718C126.067 23.6702 117.776 31.8897 117.736 42.0685L116.486 337.62C116.446 347.791 124.649 356.074 134.828 356.122L255.365 356.68C265.544 356.727 273.835 348.508 273.875 338.329L275.125 42.7774C275.165 32.6065 266.962 24.3233 256.783 24.2755V24.2835Z" fill="white"/>
<path d="M256.783 24.2836C256.783 24.2836 256.998 24.2836 257.412 24.3075C257.826 24.3473 258.463 24.3075 259.276 24.4588C260.909 24.6579 263.386 25.1995 266.173 26.88C267.583 27.6845 269.009 28.8314 270.363 30.3048C271.709 31.7783 272.959 33.6181 273.843 35.8164C274.743 38.0066 275.229 40.5713 275.189 43.2952C275.181 46.0191 275.173 48.9102 275.165 51.9846C275.078 76.5396 274.95 112.054 274.791 155.947C274.616 199.84 274.409 252.104 274.186 310.134C274.154 317.39 274.13 324.734 274.098 332.165C274.098 334.02 274.082 335.884 274.074 337.756C274.042 339.627 273.915 341.547 273.349 343.363C272.816 345.179 272.051 346.947 270.984 348.532C269.917 350.117 268.618 351.543 267.137 352.761C264.142 355.151 260.391 356.664 256.512 356.839C255.54 356.903 254.585 356.887 253.621 356.887L250.73 356.871C248.802 356.863 246.867 356.855 244.931 356.847C237.182 356.815 229.361 356.775 221.468 356.743C205.682 356.672 189.609 356.6 173.305 356.52C165.15 356.481 156.938 356.449 148.671 356.409C144.537 356.393 140.388 356.369 136.23 356.353C132.057 356.552 127.748 355.429 124.275 353C120.787 350.587 118.222 346.947 117.035 342.909C116.398 340.894 116.287 338.759 116.295 336.689C116.303 334.618 116.311 332.547 116.318 330.476C116.35 322.209 116.39 313.989 116.422 305.833C116.494 289.522 116.557 273.449 116.629 257.663C116.764 226.084 116.9 195.619 117.027 166.596C117.155 137.573 117.282 109.999 117.394 84.1856C117.449 71.2829 117.505 58.8182 117.561 46.8394C117.561 45.3421 117.577 43.8527 117.585 42.3713C117.601 41.6305 117.657 40.8819 117.696 40.1412C117.832 39.4084 117.888 38.6677 118.079 37.9509C118.764 35.0757 120.11 32.3836 121.973 30.1774C123.861 27.9792 126.219 26.2429 128.815 25.1039C131.411 23.9491 134.255 23.5429 136.995 23.5906C142.482 23.6145 147.835 23.6464 153.059 23.6703C155.672 23.6862 158.244 23.6942 160.785 23.7101C162.059 23.7101 163.318 23.726 164.568 23.726C165.835 23.6703 167.141 24.0207 168.168 24.7455C169.204 25.4703 169.992 26.5216 170.398 27.7004C170.86 28.8792 170.749 30.1455 170.757 31.3323C170.757 31.9296 170.757 32.527 170.749 33.1243C170.749 33.7217 170.725 34.311 170.797 34.8845C170.94 36.0314 171.418 37.1305 172.167 37.9907C172.899 38.8589 173.911 39.4881 174.994 39.7589C175.544 39.8943 176.093 39.942 176.659 39.9261C177.224 39.9261 177.79 39.9261 178.355 39.9341C180.609 39.942 182.823 39.958 185.006 39.9659C193.719 40.0137 201.835 40.0536 209.306 40.0934C213.041 40.1173 216.609 40.1332 220.018 40.1491C220.862 40.1412 221.722 40.1969 222.527 40.1252C223.339 40.0376 224.12 39.7589 224.797 39.3367C226.159 38.5004 227.083 37.0987 227.401 35.6172C227.576 34.8765 227.545 34.1199 227.553 33.3792C227.553 32.6305 227.561 31.8978 227.569 31.173C227.584 30.4562 227.537 29.7314 227.672 29.0305C227.792 28.3296 228.038 27.6606 228.373 27.0632C229.042 25.8526 230.117 24.9446 231.312 24.4827C232.523 23.965 233.805 24.1243 234.968 24.1083C239.691 24.1402 243.689 24.1641 246.923 24.18C250.148 24.2039 252.617 24.2199 254.274 24.2358C255.931 24.2517 256.775 24.2676 256.775 24.2676C256.775 24.2676 255.923 24.2756 254.274 24.2756C252.617 24.2756 250.148 24.2756 246.923 24.2597C243.689 24.2517 239.691 24.2358 234.968 24.2278C233.797 24.2517 232.531 24.0924 231.36 24.6022C230.189 25.0561 229.138 25.9482 228.492 27.1269C228.166 27.7163 227.935 28.3615 227.815 29.0464C227.688 29.7314 227.728 30.4402 227.72 31.165C227.72 31.8898 227.72 32.6225 227.72 33.3712C227.72 34.1119 227.744 34.8845 227.569 35.6491C227.242 37.1704 226.294 38.604 224.892 39.4721C224.199 39.9102 223.395 40.1969 222.551 40.2925C221.707 40.3642 220.87 40.3084 220.018 40.3164C216.609 40.3005 213.041 40.2925 209.306 40.2766C201.835 40.2447 193.727 40.2128 185.006 40.181C182.823 40.173 180.609 40.1651 178.355 40.1571C177.79 40.1571 177.224 40.1571 176.659 40.1571C176.093 40.1651 175.496 40.1252 174.93 39.9819C173.799 39.6951 172.74 39.042 171.975 38.1341C171.195 37.242 170.693 36.0951 170.542 34.9004C170.462 34.2951 170.486 33.6978 170.486 33.1084C170.486 32.511 170.486 31.9137 170.486 31.3163C170.478 30.1137 170.59 28.8951 170.136 27.7721C169.745 26.6411 168.989 25.6455 168.001 24.9526C167.005 24.2597 165.787 23.9252 164.544 23.9809C163.294 23.9809 162.028 23.9729 160.761 23.965C158.22 23.957 155.648 23.9411 153.035 23.9331C147.819 23.9092 142.458 23.8853 136.971 23.8694C134.247 23.8296 131.467 24.2278 128.911 25.3668C126.362 26.4818 124.036 28.1942 122.188 30.3606C120.349 32.5349 119.034 35.1792 118.357 38.0066C118.166 38.7075 118.111 39.4403 117.983 40.1571C117.943 40.8898 117.888 41.6146 117.872 42.3553C117.872 43.8368 117.864 45.3261 117.856 46.8235C117.808 58.8023 117.76 71.267 117.712 84.1697C117.609 109.975 117.497 137.557 117.386 166.58C117.266 195.603 117.139 226.068 117.011 257.647C116.948 273.441 116.876 289.514 116.812 305.818C116.78 313.973 116.741 322.185 116.709 330.46C116.701 332.531 116.693 334.602 116.685 336.673C116.685 338.735 116.788 340.798 117.41 342.773C118.572 346.716 121.081 350.276 124.49 352.642C127.899 355.015 132.065 356.114 136.214 355.923C140.372 355.939 144.521 355.963 148.655 355.979C156.922 356.019 165.134 356.059 173.29 356.09C189.593 356.17 205.666 356.242 221.452 356.313C229.345 356.353 237.166 356.385 244.916 356.425C246.851 356.433 248.786 356.441 250.714 356.449L253.605 356.465C254.569 356.465 255.532 356.481 256.472 356.425C260.271 356.258 263.935 354.776 266.874 352.443C268.324 351.248 269.59 349.846 270.641 348.301C271.693 346.748 272.433 345.02 272.959 343.243C273.517 341.459 273.644 339.604 273.676 337.748C273.684 335.876 273.692 334.02 273.7 332.157C273.732 324.726 273.763 317.382 273.795 310.126C274.058 252.096 274.297 199.832 274.488 155.939C274.703 112.046 274.871 76.5316 274.99 51.9766C275.006 48.9102 275.022 46.0111 275.038 43.2872C275.078 40.5713 274.608 38.0385 273.724 35.8562C272.848 33.6659 271.613 31.834 270.283 30.3685C268.945 28.9031 267.527 27.7482 266.133 26.9438C263.37 25.2632 260.901 24.7057 259.276 24.4986C258.463 24.3314 257.826 24.3712 257.412 24.3234C256.998 24.2995 256.783 24.2756 256.783 24.2756V24.2836Z" fill="#263238"/>
<path d="M235.143 117.343L233.335 115.192L238.719 112.309L213.702 103.843L222.168 128.087L225.251 124.049C225.251 124.049 241.435 152.531 225.251 169.846C209.178 187.041 190.23 183.314 190.23 183.314L193.886 195.245C193.886 195.245 223.714 197.364 239.683 170.419C255.652 143.483 235.143 117.343 235.143 117.343Z" fill="#455A64"/>
<path d="M160.124 177.101L161.932 179.252L156.548 182.135L181.565 190.601L173.098 166.357L170.016 170.395C170.016 170.395 153.832 141.914 170.016 124.599C186.089 107.403 205.037 111.13 205.037 111.13L201.381 99.1993C201.381 99.1993 171.553 97.0807 155.584 124.025C139.615 150.961 160.124 177.101 160.124 177.101Z" fill="#455A64"/>
<path d="M235.143 117.343L233.335 115.192L238.719 112.309L213.702 103.843L222.168 128.087L225.251 124.049C225.251 124.049 241.435 152.531 225.251 169.846C209.178 187.041 190.23 183.314 190.23 183.314L193.886 195.245C193.886 195.245 223.714 197.364 239.683 170.419C255.652 143.483 235.143 117.343 235.143 117.343Z" fill="#455A64"/>
<path d="M160.124 177.101L161.932 179.252L156.548 182.135L181.565 190.601L173.098 166.357L170.016 170.395C170.016 170.395 153.832 141.914 170.016 124.599C186.089 107.403 205.037 111.13 205.037 111.13L201.381 99.1993C201.381 99.1993 171.553 97.0807 155.584 124.025C139.615 150.961 160.124 177.101 160.124 177.101Z" fill="#455A64"/>
<g opacity="0.8">
<path d="M235.143 117.343L233.335 115.192L238.719 112.309L213.702 103.843L222.168 128.087L225.251 124.049C225.251 124.049 241.435 152.531 225.251 169.846C209.178 187.041 190.23 183.314 190.23 183.314L193.886 195.245C193.886 195.245 223.714 197.364 239.683 170.419C255.652 143.483 235.143 117.343 235.143 117.343Z" fill="white"/>
</g>
<g opacity="0.8">
<path d="M160.124 177.101L161.932 179.252L156.548 182.135L181.565 190.601L173.098 166.357L170.016 170.395C170.016 170.395 153.832 141.914 170.016 124.599C186.089 107.403 205.037 111.13 205.037 111.13L201.381 99.1993C201.381 99.1993 171.553 97.0807 155.584 124.025C139.615 150.961 160.124 177.101 160.124 177.101Z" fill="white"/>
</g>
<path fill-rule="evenodd" clip-rule="evenodd" d="M211.894 133.081C213.097 134.363 214.1 135.789 214.905 137.302L219.715 137.286L221.5 145.036L217.167 147.123C217.111 148.835 216.832 150.556 216.315 152.236L219.723 155.621L215.502 162.367L210.962 160.782C209.68 161.985 208.254 162.988 206.741 163.793L206.757 168.603L199.007 170.388L196.921 166.055C195.208 165.999 193.488 165.72 191.807 165.195L188.422 168.603L181.676 164.39L183.261 159.85C182.059 158.568 181.055 157.142 180.251 155.629L175.44 155.645L173.656 147.895L177.989 145.809C178.045 144.096 178.323 142.376 178.841 140.695L175.432 137.31L179.645 130.564L184.185 132.149C185.468 130.947 186.893 129.943 188.407 129.139L188.391 124.328L196.14 122.544L198.227 126.877C199.939 126.932 201.66 127.211 203.34 127.729L206.725 124.32L213.471 128.533L211.886 133.073L211.894 133.081ZM202.408 139.429C198.41 136.928 193.145 138.147 190.653 142.137C188.152 146.135 189.37 151.4 193.361 153.893C197.359 156.394 202.623 155.175 205.116 151.185C207.617 147.187 206.399 141.922 202.408 139.429Z" fill="#455A64"/>
<g opacity="0.6">
<path fill-rule="evenodd" clip-rule="evenodd" d="M202.408 139.421C198.41 136.92 193.145 138.138 190.652 142.129C188.152 146.127 189.37 151.392 193.36 153.885C197.359 156.385 202.623 155.167 205.116 151.177C207.617 147.178 206.399 141.914 202.408 139.421Z" fill="white"/>
</g>
<path d="M171.657 225.885V220.779H172.597V225.845C172.597 227.955 173.592 228.927 175.32 228.927C177.049 228.927 178.06 227.963 178.06 225.845V220.779H178.976V225.885C178.976 228.441 177.598 229.771 175.32 229.771C173.043 229.771 171.657 228.449 171.657 225.885Z" fill="#263238"/>
<path d="M188.797 223.83C188.797 225.725 187.419 226.872 185.157 226.872H182.759V229.684H181.82V220.771H185.157C187.427 220.771 188.797 221.918 188.797 223.83ZM187.857 223.83C187.857 222.404 186.917 221.592 185.133 221.592H182.767V226.052H185.133C186.917 226.052 187.857 225.24 187.857 223.838V223.83Z" fill="#263238"/>
<path d="M190.828 220.771H194.46C197.311 220.771 199.238 222.603 199.238 225.232C199.238 227.86 197.319 229.692 194.46 229.692H190.828V220.779V220.771ZM194.404 228.872C196.769 228.872 198.298 227.366 198.298 225.232C198.298 223.097 196.769 221.592 194.404 221.592H191.767V228.879H194.404V228.872Z" fill="#263238"/>
<path d="M206.805 227.31H201.835L200.768 229.692H199.788L203.866 220.779H204.798L208.875 229.692H207.88L206.813 227.31H206.805ZM206.462 226.546L204.32 221.759L202.177 226.546H206.454H206.462Z" fill="#263238"/>
<path d="M211.623 221.592H208.493V220.779H215.701V221.592H212.571V229.692H211.631V221.592H211.623Z" fill="#263238"/>
<path d="M223.498 228.872V229.684H217.198V220.771H223.307V221.584H218.138V224.754H222.75V225.558H218.138V228.872H223.498Z" fill="#263238"/>
<path d="M263.768 52.9561C263.768 53.0437 260.542 53.1313 256.56 53.1711C252.577 53.203 249.352 53.1632 249.344 53.0756C249.344 52.9879 252.569 52.9003 256.552 52.8605C260.534 52.8286 263.76 52.8685 263.76 52.9561H263.768Z" fill="#263238"/>
<path d="M263.799 56.6436C263.799 56.7312 260.574 56.8188 256.591 56.8586C252.609 56.8905 249.383 56.8507 249.375 56.763C249.375 56.6754 252.601 56.5878 256.583 56.548C260.566 56.5161 263.791 56.556 263.791 56.6436H263.799Z" fill="#263238"/>
<path d="M263.831 60.3389C263.831 60.4265 260.606 60.5141 256.623 60.5539C252.641 60.5858 249.415 60.546 249.407 60.4584C249.407 60.3708 252.633 60.2831 256.615 60.2433C260.598 60.2115 263.823 60.2513 263.823 60.3389H263.831Z" fill="#263238"/>
<path d="M132.598 64.5445C132.598 64.5445 132.71 64.5285 132.901 64.5285C133.14 64.5206 133.411 64.5126 133.737 64.5046C134.526 64.4887 135.553 64.4648 136.819 64.433L136.732 64.5206C136.724 63.8356 136.708 63.0949 136.692 62.2905C136.692 61.8763 136.66 61.486 136.692 61.0082C136.772 60.5303 137.202 60.1082 137.727 60.0604C138.221 60.0524 138.659 60.0285 139.201 60.0604C139.758 60.1321 140.228 60.6657 140.212 61.2471C140.22 62.2905 140.236 63.3737 140.252 64.5046L140.109 64.3613C141.359 64.3454 142.658 64.3374 143.996 64.3215L143.844 64.4728C143.828 62.9117 143.812 61.2869 143.804 59.6303C143.804 59.2161 143.804 58.802 143.796 58.3958C143.796 58.0135 143.566 57.7586 143.247 57.4798C142.673 56.9143 142.108 56.3568 141.55 55.8073C140.993 55.2577 140.451 54.7161 139.91 54.1904C139.639 53.9276 139.376 53.6648 139.113 53.4099C138.842 53.1471 138.627 52.8763 138.309 52.8126C138.006 52.7329 137.664 52.7966 137.417 52.9798C137.178 53.1789 136.931 53.4577 136.692 53.6887C136.214 54.1745 135.752 54.6365 135.298 55.0984C134.422 56.0064 133.506 56.8427 132.845 57.6312C132.566 58.0692 132.67 58.5949 132.646 59.0807C132.646 59.5586 132.646 60.0206 132.646 60.4506C132.646 61.2869 132.638 62.0276 132.63 62.6569C132.63 63.2223 132.622 63.6843 132.614 64.0666C132.614 64.3931 132.606 64.5684 132.598 64.5763C132.598 64.5763 132.582 64.425 132.574 64.1064C132.566 63.7321 132.55 63.2701 132.534 62.7206C132.519 62.0834 132.503 61.3427 132.487 60.4984C132.479 60.0604 132.471 59.5905 132.463 59.1046C132.463 58.8577 132.463 58.6029 132.455 58.34C132.455 58.0613 132.527 57.7825 132.67 57.5276C133.387 56.6435 134.247 55.871 135.131 54.9312C135.577 54.4772 136.039 53.9993 136.517 53.5135C136.764 53.2665 136.971 53.0276 137.265 52.7727C137.576 52.5338 138.006 52.4462 138.388 52.5497C138.803 52.6373 139.073 52.9798 139.32 53.2188C139.583 53.4736 139.846 53.7365 140.117 53.9993C140.65 54.525 141.2 55.0666 141.758 55.6081C142.315 56.1577 142.881 56.7152 143.462 57.2807C143.597 57.4241 143.765 57.5515 143.892 57.7506C144.019 57.9418 144.091 58.1728 144.099 58.4037C144.099 58.8179 144.099 59.2241 144.107 59.6462C144.123 61.3029 144.131 62.9197 144.147 64.4887V64.64H143.996C142.658 64.648 141.359 64.656 140.109 64.6639H139.965V64.5206C139.965 63.3896 139.95 62.3064 139.95 61.263C139.965 60.7931 139.599 60.379 139.161 60.3232C138.715 60.2993 138.189 60.3152 137.751 60.3232C137.337 60.3551 136.987 60.6896 136.915 61.0799C136.875 61.4701 136.907 61.9241 136.899 62.3223C136.899 63.1268 136.899 63.8754 136.899 64.5524V64.64H136.811C135.529 64.6321 134.478 64.6241 133.681 64.6162C133.363 64.6162 133.1 64.6082 132.869 64.6002C132.686 64.6002 132.598 64.5923 132.598 64.5843V64.5445Z" fill="#263238"/>
<path d="M228.054 61.3985C228.054 61.51 215.916 61.6056 200.951 61.6056C185.985 61.6056 173.847 61.51 173.847 61.3985C173.847 61.287 185.977 61.1914 200.951 61.1914C215.924 61.1914 228.054 61.287 228.054 61.3985Z" fill="#263238"/>
<path d="M226.653 313.121H169.737C162.466 313.121 156.58 307.227 156.58 299.963C156.58 292.692 162.474 286.806 169.737 286.806H226.653C233.924 286.806 239.81 292.699 239.81 299.963C239.81 307.235 233.916 313.121 226.653 313.121Z" fill="#455A64"/>
<path d="M187.331 301.89L187.809 300.839C188.319 301.213 189.076 301.468 189.808 301.468C190.637 301.468 190.971 301.189 190.971 300.823C190.971 299.692 187.459 300.465 187.459 298.219C187.459 297.191 188.287 296.331 190.007 296.331C190.764 296.331 191.545 296.514 192.11 296.865L191.68 297.924C191.115 297.605 190.541 297.446 190.007 297.446C189.179 297.446 188.861 297.757 188.861 298.139C188.861 299.254 192.381 298.481 192.381 300.704C192.381 301.715 191.545 302.575 189.816 302.575C188.861 302.575 187.889 302.289 187.355 301.874L187.331 301.89Z" fill="white"/>
<path d="M196.22 302.256C195.941 302.456 195.535 302.551 195.121 302.551C194.021 302.551 193.384 301.986 193.384 300.886V298.975H192.667V297.94H193.384V296.809H194.73V297.94H195.885V298.975H194.73V300.871C194.73 301.269 194.945 301.484 195.312 301.484C195.511 301.484 195.71 301.42 195.853 301.309L196.22 302.256Z" fill="white"/>
<path d="M201.094 299.828V302.48H199.836V301.898C199.589 302.321 199.103 302.544 198.418 302.544C197.327 302.544 196.682 301.938 196.682 301.134C196.682 300.329 197.263 299.74 198.681 299.74H199.756C199.756 299.159 199.414 298.824 198.681 298.824C198.187 298.824 197.677 298.991 197.343 299.254L196.857 298.314C197.367 297.956 198.116 297.757 198.864 297.757C200.282 297.757 201.102 298.418 201.102 299.82L201.094 299.828ZM199.748 301.014V300.536H198.824C198.195 300.536 197.996 300.767 197.996 301.078C197.996 301.413 198.283 301.644 198.753 301.644C199.199 301.644 199.589 301.436 199.748 301.014Z" fill="white"/>
<path d="M205.196 297.765V299.007C205.084 298.999 204.997 298.991 204.893 298.991C204.153 298.991 203.659 299.397 203.659 300.289V302.488H202.313V297.836H203.603V298.45C203.93 298.004 204.487 297.765 205.204 297.765H205.196Z" fill="white"/>
<path d="M209.162 302.256C208.884 302.456 208.477 302.551 208.063 302.551C206.964 302.551 206.327 301.986 206.327 300.886V298.975H205.61V297.94H206.327V296.809H207.673V297.94H208.828V298.975H207.673V300.871C207.673 301.269 207.888 301.484 208.254 301.484C208.453 301.484 208.653 301.42 208.796 301.309L209.162 302.256Z" fill="white"/>
<path d="M252.283 250.679C252.283 250.79 227.815 250.886 197.637 250.886C167.459 250.886 142.984 250.79 142.984 250.679C142.984 250.567 167.451 250.472 197.637 250.472C227.823 250.472 252.283 250.567 252.283 250.679Z" fill="#263238"/>
<path d="M230.508 257.377C230.508 257.489 215.789 257.584 197.638 257.584C179.486 257.584 164.76 257.489 164.76 257.377C164.76 257.266 179.478 257.17 197.638 257.17C215.797 257.17 230.508 257.266 230.508 257.377Z" fill="#263238"/>
<path d="M79.275 356.066L74.4404 373.955L90.1626 375.389L93.4679 358.36L79.275 356.066Z" fill="#455A64"/>
<path d="M90.6166 373.931C90.6166 373.987 89.7326 373.971 88.3149 373.852C86.8971 373.74 84.9458 373.525 82.7954 373.247C80.7246 372.968 78.8529 372.721 77.2998 372.506C75.898 372.307 75.0219 372.171 75.0298 372.116C75.0298 372.06 75.9139 372.084 77.3316 372.203C78.7493 372.323 80.7007 372.538 82.8511 372.816C84.9219 373.095 86.7936 373.342 88.3467 373.549C89.7485 373.74 90.6246 373.876 90.6166 373.931Z" fill="#263238"/>
<g opacity="0.6">
<path d="M74.4404 373.955L90.1626 375.389L90.4175 374.075L74.8944 372.107L74.4564 373.78" fill="white"/>
</g>
<path d="M82.2537 373.159C82.1581 373.135 82.8272 370.069 83.7511 366.301C84.675 362.542 85.5033 359.507 85.6068 359.531C85.7024 359.555 85.0334 362.622 84.1095 366.389C83.1856 370.148 82.3573 373.183 82.2537 373.159Z" fill="#263238"/>
<path d="M89.7484 373.812C89.6529 373.812 90.2502 372.53 89.7883 370.483C89.5493 369.487 89.0236 368.332 88.0679 367.369C87.1201 366.405 85.7104 365.728 84.1573 365.569C82.6041 365.417 81.0829 365.792 79.944 366.524C78.7891 367.249 78.0006 368.229 77.4988 369.129C76.4953 370.961 76.5988 372.338 76.5032 372.323C76.4873 372.323 76.4793 372.243 76.4793 372.084C76.4714 371.924 76.4793 371.701 76.5192 371.399C76.5829 370.809 76.782 369.957 77.2678 369.001C77.7616 368.061 78.5661 367.01 79.7608 366.238C80.9475 365.449 82.5564 365.043 84.1891 365.202C85.8219 365.369 87.3192 366.094 88.3068 367.13C89.3104 368.157 89.8201 369.384 90.0431 370.427C90.2502 371.478 90.1785 372.362 90.0431 372.936C89.9794 373.223 89.9157 373.446 89.852 373.589C89.7962 373.732 89.7644 373.812 89.7484 373.804V373.812Z" fill="#263238"/>
<path d="M144.211 351.264L143.159 367.161C143.159 367.161 158.977 372.41 159.073 375.365L128.162 375.588L128.783 350.754L144.211 351.264Z" fill="#455A64"/>
<g opacity="0.6">
<path d="M133.641 365.528C133.036 365.672 132.606 366.333 132.726 366.938C132.845 367.543 133.514 367.989 134.119 367.862C134.725 367.727 135.266 366.954 135.083 366.357C134.892 365.767 134.088 365.282 133.53 365.56" fill="white"/>
</g>
<g opacity="0.6">
<path d="M128.154 375.588L128.218 373.087L158.069 373.907C158.069 373.907 159.065 374.337 159.216 375.588H128.146H128.154Z" fill="white"/>
</g>
<path d="M143.661 367.018C143.653 367.169 142.897 367.217 142.14 367.679C141.367 368.125 140.969 368.762 140.834 368.698C140.698 368.666 140.945 367.766 141.877 367.225C142.801 366.675 143.701 366.882 143.669 367.018H143.661Z" fill="#263238"/>
<path d="M146.863 368.451C146.895 368.595 146.234 368.834 145.7 369.455C145.151 370.06 144.999 370.745 144.848 370.737C144.705 370.753 144.625 369.869 145.302 369.112C145.971 368.348 146.863 368.308 146.855 368.451H146.863Z" fill="#263238"/>
<path d="M148.583 372.386C148.448 372.418 148.257 371.653 148.671 370.841C149.077 370.021 149.802 369.718 149.858 369.845C149.937 369.973 149.467 370.403 149.141 371.072C148.798 371.741 148.735 372.37 148.583 372.386Z" fill="#263238"/>
<path d="M143.502 363.37C143.438 363.506 142.745 363.275 141.893 363.306C141.041 363.322 140.364 363.585 140.292 363.458C140.205 363.346 140.874 362.805 141.877 362.781C142.881 362.749 143.574 363.251 143.502 363.37Z" fill="#263238"/>
<path d="M143.653 360.152C143.653 360.216 143.056 360.288 142.108 360.097C141.638 360.001 141.081 359.826 140.507 359.547C140.22 359.412 139.926 359.244 139.631 359.045C139.488 358.95 139.328 358.854 139.177 358.671C139.018 358.512 138.93 358.106 139.129 357.867C139.297 357.636 139.575 357.54 139.798 357.54C140.029 357.54 140.212 357.588 140.38 357.636C140.722 357.731 141.041 357.851 141.336 357.994C141.917 358.281 142.387 358.631 142.737 358.974C143.43 359.659 143.661 360.232 143.605 360.256C143.534 360.304 143.199 359.818 142.49 359.252C142.132 358.966 141.678 358.671 141.136 358.432C140.866 358.313 140.571 358.209 140.26 358.129C139.934 358.034 139.655 358.026 139.567 358.169C139.535 358.225 139.528 358.249 139.599 358.344C139.671 358.432 139.798 358.528 139.934 358.623C140.205 358.806 140.475 358.974 140.738 359.117C141.272 359.404 141.782 359.595 142.22 359.738C143.096 360.009 143.677 360.073 143.677 360.152H143.653Z" fill="#263238"/>
<path d="M143.454 360.367C143.398 360.391 143.119 359.842 143.088 358.862C143.08 358.376 143.143 357.795 143.35 357.174C143.454 356.863 143.597 356.552 143.773 356.25C143.964 355.947 144.195 355.549 144.784 355.501C145.087 355.501 145.334 355.748 145.413 355.955C145.509 356.17 145.525 356.345 145.557 356.528C145.604 356.895 145.588 357.245 145.525 357.572C145.405 358.225 145.119 358.766 144.816 359.149C144.187 359.929 143.55 360.089 143.542 360.041C143.494 359.961 144.027 359.69 144.513 358.934C144.752 358.559 144.967 358.066 145.047 357.492C145.087 357.205 145.087 356.903 145.047 356.6C145.007 356.274 144.896 356.003 144.768 356.035C144.617 356.035 144.346 356.266 144.211 356.528C144.043 356.799 143.908 357.078 143.804 357.357C143.597 357.906 143.494 358.44 143.462 358.894C143.39 359.802 143.534 360.367 143.454 360.391V360.367Z" fill="#263238"/>
<path d="M144.211 213.165L97.1157 212.814L74.3528 362.295L93.898 364.772L118.947 241.869L126.449 365.21L126.465 365.576L147.604 365.21L144.211 213.165Z" fill="#263238"/>
<path d="M122.786 225.279C122.786 225.279 123.112 225.247 123.758 225.215C124.466 225.192 125.414 225.152 126.593 225.112C129.118 225.04 132.614 224.945 136.772 224.825H136.963V225.016C136.963 227.971 136.979 231.277 136.987 234.781V234.877L136.915 234.94C136.35 235.458 135.752 236.016 135.139 236.573C133.323 238.238 131.571 239.847 129.914 241.36L129.779 241.487L129.635 241.36C127.047 239.05 124.681 236.947 122.666 235.147L122.611 235.1V235.028C122.65 232.057 122.674 229.62 122.698 227.868C122.714 227.071 122.73 226.426 122.738 225.94C122.754 225.502 122.762 225.279 122.778 225.287C122.794 225.295 122.802 225.542 122.818 226.004C122.826 226.506 122.842 227.159 122.857 227.971C122.881 229.7 122.905 232.105 122.945 235.036L122.889 234.908C124.92 236.685 127.302 238.771 129.906 241.057H129.627C131.284 239.536 133.036 237.927 134.844 236.262C135.45 235.705 136.055 235.155 136.62 234.638L136.549 234.797C136.557 231.292 136.565 227.987 136.573 225.032L136.764 225.223C132.662 225.263 129.197 225.295 126.704 225.319C125.51 225.319 124.546 225.319 123.829 225.319C123.519 225.319 123.272 225.319 123.057 225.311C122.881 225.311 122.786 225.303 122.778 225.295L122.786 225.279Z" fill="#455A64"/>
<path d="M100.62 224.634C100.62 224.634 100.907 224.634 101.488 224.682C102.125 224.738 102.97 224.801 104.021 224.889C106.291 225.096 109.437 225.383 113.18 225.717L113.372 225.733L113.348 225.924C113.005 228.816 112.607 232.105 112.193 235.617V235.705L112.113 235.761C111.468 236.278 110.775 236.828 110.082 237.386C108.346 238.763 106.673 240.101 105.072 241.368L104.905 241.495L104.778 241.328C102.755 238.771 100.899 236.422 99.298 234.407L99.2502 234.351V234.279C99.6564 231.348 99.983 228.935 100.214 227.183C100.325 226.394 100.421 225.757 100.493 225.271C100.556 224.841 100.596 224.618 100.612 224.626C100.62 224.642 100.612 224.889 100.564 225.343C100.517 225.845 100.453 226.498 100.365 227.302C100.174 229.031 99.9113 231.412 99.6007 234.311L99.5609 234.184C101.178 236.191 103.049 238.517 105.096 241.057L104.802 241.025C106.395 239.751 108.075 238.413 109.803 237.027C110.496 236.47 111.189 235.928 111.834 235.41L111.755 235.554C112.193 232.041 112.607 228.752 112.965 225.869L113.133 226.076C109.445 225.662 106.347 225.319 104.109 225.072C103.041 224.945 102.189 224.841 101.544 224.762C100.947 224.69 100.62 224.642 100.604 224.626L100.62 224.634Z" fill="#455A64"/>
<path d="M129.436 247.325C129.404 247.381 128.6 246.967 127.302 246.29C126.003 245.613 124.211 244.673 122.22 243.677C120.221 242.682 118.397 241.814 117.075 241.184C115.753 240.555 114.94 240.157 114.964 240.101C114.988 240.046 115.848 240.348 117.202 240.906C118.556 241.463 120.412 242.292 122.411 243.287C124.41 244.291 126.187 245.27 127.453 246.019C128.711 246.768 129.468 247.269 129.436 247.325Z" fill="#455A64"/>
<path d="M128.831 250.949C128.815 250.997 128.178 250.822 127.222 250.344C126.274 249.874 125.024 249.054 123.861 247.915C122.698 246.768 121.87 245.533 121.376 244.593C120.882 243.646 120.699 243.016 120.747 243.001C120.874 242.929 121.87 245.39 124.156 247.612C126.418 249.866 128.887 250.83 128.815 250.957L128.831 250.949Z" fill="#455A64"/>
<path d="M142.124 294.149C142.124 294.149 142.084 294.436 141.909 294.93C141.734 295.424 141.423 296.117 140.929 296.905C139.958 298.49 138.102 300.465 135.434 301.596C132.765 302.719 130.05 302.672 128.234 302.265C127.318 302.066 126.609 301.803 126.131 301.588C125.653 301.373 125.414 301.222 125.422 301.198C125.454 301.118 126.489 301.652 128.289 301.971C130.073 302.297 132.694 302.289 135.258 301.206C137.823 300.123 139.655 298.251 140.666 296.746C141.702 295.233 142.036 294.126 142.116 294.157L142.124 294.149Z" fill="#455A64"/>
<path d="M139.033 292.875C139.057 292.923 138.396 293.297 137.233 293.671C136.079 294.054 134.406 294.38 132.55 294.444C130.695 294.523 129.014 294.348 127.819 294.165C126.625 293.974 125.9 293.775 125.908 293.719C125.932 293.576 128.879 294.141 132.534 294.006C134.358 293.942 135.991 293.671 137.154 293.369C138.317 293.074 139.01 292.803 139.033 292.867V292.875Z" fill="#455A64"/>
<path d="M104.013 293.759C104.013 293.759 103.471 294.42 102.372 295.24C101.281 296.069 99.6405 297.056 97.6812 297.789C95.7139 298.522 93.8263 298.84 92.4643 298.936C91.0944 299.023 90.2501 298.936 90.2581 298.888C90.2581 298.816 91.1024 298.8 92.4404 298.633C93.7785 298.466 95.6103 298.1 97.5378 297.391C99.4573 296.674 101.09 295.75 102.205 295.001C103.328 294.253 103.973 293.711 104.021 293.767L104.013 293.759Z" fill="#455A64"/>
<path d="M99.8873 293.576C99.9112 293.679 97.9838 294.133 95.5705 293.934C93.1572 293.751 91.3174 293.002 91.3652 292.899C91.405 292.771 93.2528 293.321 95.6103 293.504C97.9599 293.703 99.8794 293.448 99.8953 293.576H99.8873Z" fill="#455A64"/>
<path d="M118.668 242.897C118.692 242.945 117.895 243.359 116.549 243.853C115.203 244.355 113.284 244.912 111.118 245.262C108.943 245.605 106.952 245.677 105.51 245.621C104.077 245.565 103.193 245.422 103.201 245.374C103.201 245.31 104.093 245.342 105.518 245.318C106.944 245.294 108.911 245.183 111.054 244.84C113.196 244.498 115.1 243.988 116.462 243.566C117.824 243.144 118.652 242.833 118.676 242.897H118.668Z" fill="#455A64"/>
<path d="M117.386 238.07C117.505 238.07 117.609 238.437 117.609 238.899C117.609 239.353 117.521 239.727 117.402 239.727C117.282 239.727 117.179 239.361 117.179 238.899C117.179 238.445 117.266 238.07 117.386 238.07Z" fill="#455A64"/>
<path d="M117.386 234.757C117.505 234.757 117.601 235.131 117.593 235.585C117.593 236.039 117.489 236.413 117.37 236.413C117.25 236.413 117.155 236.039 117.163 235.585C117.163 235.131 117.266 234.757 117.386 234.757Z" fill="#455A64"/>
<path d="M117.458 231.451C117.577 231.451 117.665 231.826 117.649 232.288C117.641 232.742 117.529 233.116 117.41 233.108C117.29 233.108 117.203 232.734 117.219 232.272C117.227 231.818 117.338 231.443 117.458 231.451Z" fill="#455A64"/>
<path d="M117.593 228.138C117.712 228.138 117.792 228.52 117.768 228.974C117.744 229.428 117.633 229.794 117.513 229.794C117.394 229.794 117.314 229.412 117.338 228.958C117.362 228.504 117.473 228.138 117.593 228.138Z" fill="#455A64"/>
<path d="M117.784 224.833C117.903 224.841 117.975 225.215 117.943 225.669C117.911 226.123 117.792 226.49 117.672 226.482C117.553 226.482 117.481 226.1 117.513 225.646C117.545 225.192 117.665 224.825 117.784 224.833Z" fill="#455A64"/>
<path d="M118.047 221.536C118.166 221.544 118.23 221.926 118.19 222.38C118.15 222.834 118.023 223.192 117.904 223.184C117.784 223.176 117.72 222.794 117.76 222.34C117.8 221.886 117.927 221.52 118.047 221.536Z" fill="#455A64"/>
<path d="M118.31 218.827C118.429 218.843 118.501 219.082 118.469 219.377C118.437 219.672 118.318 219.895 118.198 219.887C118.079 219.879 118.007 219.632 118.039 219.337C118.071 219.042 118.19 218.819 118.31 218.827Z" fill="#455A64"/>
<path d="M91.6838 361.498C91.8033 361.522 91.8192 361.904 91.7316 362.35C91.644 362.796 91.4768 363.147 91.3573 363.123C91.2378 363.099 91.2219 362.717 91.3095 362.271C91.3971 361.825 91.5644 361.474 91.6838 361.498Z" fill="#455A64"/>
<path d="M92.3289 358.249C92.4483 358.273 92.4643 358.655 92.3767 359.101C92.289 359.547 92.1218 359.898 92.0023 359.874C91.8828 359.85 91.8669 359.468 91.9545 359.022C92.0421 358.576 92.2094 358.225 92.3289 358.249Z" fill="#455A64"/>
<path d="M92.9822 354.999C93.1017 355.023 93.1176 355.405 93.03 355.851C92.9424 356.297 92.7751 356.648 92.6556 356.624C92.5362 356.6 92.5202 356.218 92.6078 355.772C92.6955 355.326 92.8627 354.975 92.9822 354.999Z" fill="#455A64"/>
<path d="M93.6272 351.758C93.7467 351.782 93.7626 352.164 93.675 352.61C93.5874 353.056 93.4201 353.407 93.3007 353.383C93.1812 353.359 93.1653 352.977 93.2529 352.531C93.3405 352.085 93.5077 351.734 93.6272 351.758Z" fill="#455A64"/>
<path d="M94.2803 348.508C94.3998 348.532 94.4157 348.914 94.3281 349.36C94.2405 349.806 94.0732 350.157 93.9537 350.133C93.8343 350.109 93.8183 349.727 93.9059 349.281C93.9936 348.835 94.1608 348.484 94.2803 348.508Z" fill="#455A64"/>
<path d="M94.9255 345.259C95.045 345.283 95.0609 345.665 94.9733 346.111C94.8857 346.557 94.7185 346.908 94.599 346.884C94.4795 346.86 94.4636 346.478 94.5512 346.032C94.6388 345.586 94.8061 345.235 94.9255 345.259Z" fill="#455A64"/>
<path d="M95.5786 342.017C95.6981 342.041 95.714 342.423 95.6264 342.869C95.5388 343.315 95.3715 343.665 95.2521 343.642C95.1326 343.618 95.1167 343.235 95.2043 342.789C95.2919 342.343 95.4592 341.993 95.5786 342.017Z" fill="#455A64"/>
<path d="M96.2317 338.768C96.3512 338.792 96.3671 339.174 96.2795 339.62C96.1919 340.066 96.0246 340.416 95.9051 340.393C95.7857 340.369 95.7697 339.986 95.8574 339.54C95.945 339.094 96.1122 338.744 96.2317 338.768Z" fill="#455A64"/>
<path d="M96.8767 335.518C96.9962 335.542 97.0121 335.924 96.9245 336.37C96.8369 336.816 96.6696 337.166 96.5502 337.143C96.4307 337.119 96.4148 336.736 96.5024 336.29C96.59 335.844 96.7572 335.494 96.8767 335.518Z" fill="#455A64"/>
<path d="M97.5298 332.277C97.6493 332.3 97.6652 332.683 97.5776 333.129C97.49 333.575 97.3227 333.925 97.2032 333.901C97.0838 333.877 97.0678 333.495 97.1555 333.049C97.2431 332.603 97.4103 332.253 97.5298 332.277Z" fill="#455A64"/>
<path d="M98.1751 329.027C98.2945 329.05 98.3105 329.433 98.2228 329.879C98.1352 330.325 97.968 330.675 97.8485 330.651C97.729 330.627 97.7131 330.245 97.8007 329.799C97.8883 329.353 98.0556 329.003 98.1751 329.027Z" fill="#455A64"/>
<path d="M98.8281 325.785C98.9476 325.809 98.9635 326.192 98.8759 326.638C98.7883 327.084 98.621 327.434 98.5016 327.41C98.3821 327.386 98.3662 327.004 98.4538 326.558C98.5414 326.112 98.7087 325.761 98.8281 325.785Z" fill="#455A64"/>
<path d="M99.4731 322.535C99.5926 322.559 99.6085 322.942 99.5209 323.388C99.4333 323.834 99.2661 324.184 99.1466 324.16C99.0271 324.136 99.0112 323.754 99.0988 323.308C99.1864 322.862 99.3537 322.511 99.4731 322.535Z" fill="#455A64"/>
<path d="M100.126 319.286C100.246 319.31 100.262 319.693 100.174 320.139C100.087 320.585 99.9194 320.935 99.7999 320.911C99.6805 320.887 99.6645 320.505 99.7521 320.059C99.8397 319.613 100.007 319.262 100.126 319.286Z" fill="#455A64"/>
<path d="M100.771 316.044C100.891 316.068 100.907 316.45 100.819 316.896C100.732 317.342 100.564 317.693 100.445 317.669C100.325 317.645 100.31 317.263 100.397 316.817C100.485 316.371 100.652 316.02 100.771 316.044Z" fill="#455A64"/>
<path d="M101.425 312.795C101.544 312.819 101.56 313.201 101.472 313.647C101.385 314.093 101.217 314.444 101.098 314.42C100.979 314.396 100.963 314.014 101.05 313.568C101.138 313.122 101.305 312.771 101.425 312.795Z" fill="#455A64"/>
<path d="M102.078 309.545C102.197 309.569 102.213 309.951 102.125 310.397C102.038 310.843 101.871 311.194 101.751 311.17C101.632 311.146 101.616 310.764 101.703 310.318C101.791 309.872 101.958 309.521 102.078 309.545Z" fill="#455A64"/>
<path d="M102.723 306.304C102.842 306.328 102.858 306.71 102.771 307.156C102.683 307.602 102.516 307.953 102.396 307.929C102.277 307.905 102.261 307.522 102.349 307.076C102.436 306.63 102.603 306.28 102.723 306.304Z" fill="#455A64"/>
<path d="M103.376 303.054C103.495 303.078 103.511 303.46 103.424 303.906C103.336 304.352 103.169 304.703 103.049 304.679C102.93 304.655 102.914 304.272 103.002 303.826C103.089 303.38 103.257 303.03 103.376 303.054Z" fill="#455A64"/>
<path d="M104.021 299.805C104.14 299.829 104.156 300.211 104.069 300.657C103.981 301.103 103.814 301.454 103.694 301.43C103.575 301.406 103.559 301.023 103.647 300.577C103.734 300.131 103.902 299.781 104.021 299.805Z" fill="#455A64"/>
<path d="M104.674 296.563C104.794 296.587 104.809 296.969 104.722 297.415C104.634 297.861 104.467 298.211 104.348 298.187C104.228 298.164 104.212 297.781 104.3 297.335C104.387 296.889 104.555 296.539 104.674 296.563Z" fill="#455A64"/>
<path d="M105.319 293.314C105.439 293.338 105.455 293.72 105.367 294.166C105.28 294.612 105.112 294.962 104.993 294.938C104.873 294.915 104.857 294.532 104.945 294.086C105.033 293.64 105.2 293.29 105.319 293.314Z" fill="#455A64"/>
<path d="M105.972 290.064C106.092 290.088 106.108 290.47 106.02 290.916C105.933 291.362 105.765 291.712 105.646 291.688C105.526 291.665 105.51 291.282 105.598 290.836C105.686 290.39 105.853 290.04 105.972 290.064Z" fill="#455A64"/>
<path d="M106.617 286.822C106.737 286.846 106.753 287.229 106.665 287.675C106.578 288.121 106.41 288.471 106.291 288.447C106.171 288.423 106.155 288.041 106.243 287.595C106.331 287.149 106.498 286.799 106.617 286.822Z" fill="#455A64"/>
<path d="M107.271 283.572C107.39 283.596 107.406 283.979 107.319 284.425C107.231 284.871 107.064 285.221 106.944 285.197C106.825 285.173 106.809 284.791 106.896 284.345C106.984 283.899 107.151 283.549 107.271 283.572Z" fill="#455A64"/>
<path d="M107.916 280.323C108.035 280.347 108.051 280.73 107.964 281.176C107.876 281.622 107.709 281.972 107.589 281.948C107.47 281.924 107.454 281.542 107.541 281.096C107.629 280.65 107.796 280.3 107.916 280.323Z" fill="#455A64"/>
<path d="M108.569 277.081C108.688 277.105 108.704 277.487 108.617 277.933C108.529 278.379 108.362 278.73 108.242 278.706C108.123 278.682 108.107 278.3 108.195 277.854C108.282 277.408 108.449 277.057 108.569 277.081Z" fill="#455A64"/>
<path d="M109.222 273.832C109.341 273.856 109.357 274.238 109.27 274.684C109.182 275.13 109.015 275.481 108.895 275.457C108.776 275.433 108.76 275.051 108.848 274.605C108.935 274.159 109.102 273.808 109.222 273.832Z" fill="#455A64"/>
<path d="M109.867 270.582C109.987 270.606 110.003 270.988 109.915 271.434C109.827 271.88 109.66 272.231 109.541 272.207C109.421 272.183 109.405 271.801 109.493 271.355C109.58 270.909 109.748 270.558 109.867 270.582Z" fill="#455A64"/>
<path d="M110.52 267.341C110.64 267.365 110.656 267.747 110.568 268.193C110.48 268.639 110.313 268.99 110.194 268.966C110.074 268.942 110.058 268.56 110.146 268.114C110.234 267.668 110.401 267.317 110.52 267.341Z" fill="#455A64"/>
<path d="M111.165 264.091C111.285 264.115 111.301 264.497 111.213 264.943C111.125 265.389 110.958 265.74 110.839 265.716C110.719 265.692 110.703 265.31 110.791 264.864C110.879 264.418 111.046 264.067 111.165 264.091Z" fill="#455A64"/>
<path d="M111.818 260.841C111.938 260.865 111.954 261.247 111.866 261.693C111.779 262.139 111.611 262.49 111.492 262.466C111.372 262.442 111.356 262.06 111.444 261.614C111.532 261.168 111.699 260.817 111.818 260.841Z" fill="#455A64"/>
<path d="M112.464 257.6C112.583 257.624 112.599 258.006 112.511 258.452C112.424 258.898 112.257 259.248 112.137 259.225C112.018 259.201 112.002 258.818 112.089 258.372C112.177 257.926 112.344 257.576 112.464 257.6Z" fill="#455A64"/>
<path d="M113.117 254.351C113.236 254.375 113.252 254.757 113.164 255.203C113.077 255.649 112.91 255.999 112.79 255.976C112.671 255.952 112.655 255.569 112.742 255.123C112.83 254.677 112.997 254.327 113.117 254.351Z" fill="#455A64"/>
<path d="M113.762 251.109C113.881 251.132 113.897 251.515 113.81 251.961C113.722 252.407 113.555 252.757 113.435 252.733C113.316 252.709 113.3 252.327 113.387 251.881C113.475 251.435 113.642 251.085 113.762 251.109Z" fill="#455A64"/>
<path d="M114.415 247.86C114.534 247.883 114.55 248.266 114.463 248.712C114.375 249.158 114.208 249.508 114.088 249.484C113.969 249.46 113.953 249.078 114.04 248.632C114.128 248.186 114.295 247.836 114.415 247.86Z" fill="#455A64"/>
<path d="M115.06 244.61C115.18 244.633 115.195 245.016 115.108 245.462C115.02 245.908 114.853 246.258 114.734 246.234C114.614 246.21 114.598 245.828 114.686 245.382C114.773 244.936 114.941 244.586 115.06 244.61Z" fill="#455A64"/>
<path d="M179.988 144.486C179.988 144.486 185.499 136.227 185.643 136.155C185.643 136.155 190.62 127.776 192.269 127.776C193.934 127.776 193.328 129.473 191.616 132.476C190.119 135.104 189.967 136.753 189.967 136.753L194.053 139.222C194.053 139.222 196.785 138.162 196.897 140.711C196.936 141.563 196.713 142.614 196.427 144.168C196.259 145.076 195.853 146.039 194.993 145.697C194.603 145.538 194.284 145.243 194.26 144.677C194.205 143.172 194.491 142.622 194.3 142.622C194.053 142.622 191.361 150.515 191.361 150.515L179.98 144.502L179.988 144.486Z" fill="#FFBE9D"/>
<path d="M191.114 137.995C191.536 137.708 191.959 137.413 192.428 137.214C192.898 137.015 193.416 136.896 193.918 136.983C194.236 137.039 194.547 137.174 194.746 137.421C195.025 137.764 195.041 138.258 194.905 138.68C194.77 139.094 194.499 139.452 194.236 139.803" fill="#FFBE9D"/>
<path d="M189.25 136.33C189.649 136.06 190.047 135.789 190.493 135.598C190.939 135.406 191.425 135.303 191.903 135.383C192.197 135.43 192.5 135.566 192.691 135.797C192.954 136.115 192.97 136.585 192.843 136.975C192.715 137.366 191.823 138.282 191.576 138.608" fill="#FFBE9D"/>
<path d="M181.907 139.819L173.943 156.847L182.72 165.815L187.291 153.12C187.291 153.12 189.744 153.605 190.74 151.981C191.855 150.165 193.321 144.916 193.321 144.916L181.899 139.803L181.907 139.819Z" fill="#FFBE9D"/>
<path d="M187.594 139.349C187.506 139.325 187.705 138.178 188.534 136.991C188.956 136.402 189.49 136.004 189.896 135.781C190.302 135.558 190.581 135.486 190.613 135.534C190.692 135.661 189.657 136.171 188.884 137.246C188.12 138.329 187.729 139.404 187.594 139.349Z" fill="#EB996E"/>
<path d="M196.435 139.421C196.395 139.477 196.124 139.325 195.662 139.246C195.208 139.166 194.531 139.174 193.926 139.508C193.321 139.843 192.922 140.4 192.636 140.791C192.349 141.189 192.166 141.444 192.11 141.412C192.062 141.388 192.15 141.085 192.381 140.631C192.612 140.193 192.994 139.54 193.727 139.126C194.46 138.72 195.264 138.768 195.75 138.943C196.252 139.118 196.475 139.373 196.443 139.413L196.435 139.421Z" fill="#EB996E"/>
<path d="M193.464 137.024C193.488 137.151 192.484 137.326 191.592 138.123C190.7 138.911 190.262 139.835 190.143 139.772C190.047 139.748 190.318 138.68 191.306 137.796C191.799 137.366 192.357 137.119 192.771 137.032C193.185 136.944 193.456 136.968 193.456 137.032L193.464 137.024Z" fill="#EB996E"/>
<path d="M195.423 140.695C195.535 140.656 195.742 141.309 195.328 141.97C194.914 142.631 194.229 142.734 194.221 142.615C194.181 142.495 194.651 142.264 194.961 141.739C195.296 141.229 195.304 140.711 195.423 140.688V140.695Z" fill="#EB996E"/>
<path d="M180.004 144.152C180.004 144.152 179.725 139.07 180.952 137.916C182.178 136.769 185.698 137.963 185.698 137.963" fill="#FFBE9D"/>
<path d="M186.2 135.542C186.296 135.614 185.475 136.912 184.376 138.441C183.277 139.971 182.306 141.149 182.202 141.086C182.106 141.022 182.919 139.724 184.026 138.186C185.133 136.649 186.105 135.47 186.2 135.542Z" fill="#EB996E"/>
<path d="M115.705 97.0091L115.586 136.673L132.598 137.485L133.092 127.84C133.092 127.84 139.137 129.043 140.698 123.428C141.694 119.844 141.447 92.1348 141.447 92.1348L115.713 97.0171L115.705 97.0091Z" fill="#FFBE9D"/>
<path d="M143.677 94.9224C141.001 95.687 140.411 100.068 140.411 100.068L136.206 109.354C134.064 107.674 131.188 107.777 130.647 111.537C130.257 114.253 133.634 114.802 133.634 114.802C131.666 118.155 130.328 120.863 127.461 124.049C124.363 127.498 122.618 127.848 119.257 127.904H115.546C115.546 127.904 113.73 122.01 110.369 107.268C106.641 90.9162 125.972 93.0189 129.556 88.8454C135.394 82.0516 152.112 92.5012 143.661 94.9145L143.677 94.9224Z" fill="#263238"/>
<path d="M110.727 108.813C107.589 106.71 107.31 100.816 109.142 97.2798C110.974 93.7435 114.821 91.3541 118.795 91.2745C119.329 91.2665 119.879 91.2904 120.372 91.0992C121.105 90.8125 121.583 90.1196 122.069 89.4904C124.872 85.8506 127.62 82.2665 132.845 82.2744C133.689 82.2744 134.629 82.2744 136.126 83.0868C136.875 83.493 137.919 84.8629 138.102 85.6992C139.081 85.2373 140.085 84.7594 141.152 84.6001C142.227 84.4408 143.406 84.624 144.219 85.3488C145.031 86.0736 145.334 87.3957 144.696 88.2877C146.457 88.1762 148.121 89.6338 148.4 91.378C148.679 93.1223 146.186 94.3409 145.923 94.4763C145.923 94.4763 147.293 97.3435 144.027 99.0639C142.713 99.7568 141.001 98.9205 140.81 98.8249" fill="#263238"/>
<path d="M123.152 112.62C123.264 112.612 123.431 113.982 123.057 115.631C122.69 117.279 121.95 118.45 121.854 118.395C121.742 118.339 122.284 117.12 122.634 115.535C123.001 113.95 123.025 112.62 123.152 112.62Z" fill="#455A64"/>
<path d="M125.215 110.677C125.326 110.677 125.358 111.991 125.056 113.576C124.761 115.161 124.267 116.372 124.156 116.34C124.036 116.3 124.347 115.049 124.634 113.496C124.928 111.943 125.095 110.669 125.215 110.677Z" fill="#455A64"/>
<path d="M131.109 104.129C131.149 104.185 130.671 104.536 130.057 105.252C129.444 105.961 128.735 107.068 128.226 108.414C127.708 109.76 127.429 111.051 127.206 111.982C126.991 112.914 126.848 113.496 126.784 113.48C126.728 113.472 126.768 112.875 126.903 111.927C127.047 110.979 127.286 109.657 127.819 108.263C128.353 106.869 129.133 105.73 129.834 105.045C130.535 104.352 131.085 104.082 131.109 104.129Z" fill="#455A64"/>
<path d="M133.49 99.6772C133.538 99.6613 133.713 100.06 133.817 100.752C133.928 101.437 133.928 102.425 133.665 103.46C133.402 104.496 132.94 105.364 132.518 105.921C132.096 106.479 131.762 106.75 131.722 106.71C131.618 106.63 132.765 105.348 133.251 103.357C133.769 101.374 133.355 99.7011 133.49 99.6772Z" fill="#455A64"/>
<path d="M113.18 109.577C113.125 109.681 112.599 109.497 112.018 109.171C111.436 108.844 111.006 108.494 111.062 108.39C111.118 108.287 111.643 108.47 112.225 108.796C112.806 109.123 113.236 109.473 113.18 109.577Z" fill="#455A64"/>
<path d="M121.4 105.348C121.511 105.364 121.44 106.208 120.914 107.077C120.388 107.953 119.68 108.399 119.616 108.311C119.536 108.215 120.07 107.658 120.548 106.854C121.034 106.057 121.28 105.324 121.4 105.348Z" fill="#455A64"/>
<path d="M123.933 103.986C124.044 104.01 123.861 105.013 123.176 106.048C122.491 107.084 121.639 107.641 121.567 107.546C121.487 107.45 122.172 106.781 122.81 105.81C123.455 104.846 123.805 103.946 123.925 103.986H123.933Z" fill="#455A64"/>
<path d="M136.493 87.3802C136.493 87.3802 136.174 87.1413 135.561 86.7908C134.948 86.4563 133.968 86.082 132.71 86.0501C131.467 86.0103 129.938 86.305 128.528 87.1731C127.119 88.0413 125.868 89.451 124.968 91.1395C124.307 92.374 123.853 93.6564 123.519 94.859L123.447 95.1059L123.216 94.9865C121.95 94.3254 120.611 94.0307 119.417 94.0148C118.214 93.9829 117.163 94.1979 116.326 94.4847C114.646 95.0581 113.849 95.8148 113.802 95.7431C113.786 95.7272 113.977 95.536 114.367 95.2413C114.765 94.9466 115.387 94.5643 116.231 94.2378C117.075 93.9192 118.166 93.6564 119.409 93.6643C120.651 93.6564 122.053 93.9351 123.391 94.6201L123.096 94.7475C123.423 93.513 123.885 92.1988 124.562 90.9324C125.494 89.1882 126.8 87.7227 128.297 86.8307C129.795 85.9386 131.404 85.6599 132.702 85.7395C134.016 85.8112 135.019 86.2413 135.625 86.6395C135.927 86.8466 136.15 87.0138 136.278 87.1572C136.413 87.2926 136.485 87.3643 136.469 87.3723L136.493 87.3802Z" fill="#455A64"/>
<path d="M145.437 89.5378C145.437 89.5378 145.907 89.4104 146.417 89.9838C146.648 90.2546 146.855 90.6927 146.807 91.2263C146.759 91.7599 146.385 92.3095 145.819 92.636C145.262 92.9785 144.489 93.09 143.749 92.9228C143 92.7635 142.283 92.3653 141.614 91.8874C140.937 91.4175 140.292 90.8679 139.527 90.4617C138.771 90.0475 137.918 89.7529 137.01 89.5776C135.203 89.2431 133.403 89.4422 131.881 89.9281C130.352 90.4219 129.086 91.1546 128.09 91.8555C126.107 93.2812 125.127 94.4759 125.064 94.4201C125.048 94.4042 125.271 94.0936 125.733 93.5838C126.202 93.0741 126.911 92.3653 127.907 91.6166C128.895 90.8679 130.185 90.0874 131.754 89.5617C133.323 89.036 135.195 88.813 137.09 89.1635C138.03 89.3467 138.93 89.6652 139.726 90.1033C140.531 90.5414 141.192 91.1148 141.837 91.5768C142.482 92.0467 143.143 92.421 143.82 92.5883C144.489 92.7555 145.15 92.6759 145.652 92.3891C146.162 92.1184 146.488 91.6484 146.552 91.2104C146.616 90.7644 146.457 90.3582 146.265 90.1033C145.859 89.5617 145.397 89.6015 145.421 89.5537L145.437 89.5378Z" fill="#455A64"/>
<path d="M97.5854 140.822L82.3889 166.341C80.6924 169.32 79.1154 172.49 77.6101 175.779C76.3995 178.933 77.1004 183.043 79.211 185.663L78.7809 185.042C80.4694 187.129 83.0022 188.339 85.6863 188.339H86.0765C89.6128 188.339 92.8067 186.245 94.2164 183.003L99.0987 175.596L97.5775 140.822H97.5854Z" fill="#455A64"/>
<path d="M143.438 135.948C139.36 133.861 135.33 133.391 130.933 133.264C125.812 133.112 118.604 132.395 113.085 132.985C113.085 132.985 97.3705 134.148 96.2793 144.916L98.4218 195.491L94.8218 216.916L145.174 218.437L144.816 193.158C145.437 180 144.107 161.379 144.107 161.379C144.88 154.306 148.75 151.12 149.3 146.525C149.786 142.463 147.07 137.803 143.422 135.94L143.438 135.948Z" fill="#455A64"/>
<path d="M129.245 196.216C129.245 196.216 129.006 196.495 128.504 196.917C128.002 197.339 127.23 197.904 126.21 198.494C124.187 199.672 121.033 200.859 117.409 200.923C113.786 200.987 110.592 199.911 108.529 198.804C107.486 198.255 106.697 197.713 106.179 197.315C105.662 196.909 105.399 196.662 105.415 196.638C105.463 196.566 106.578 197.514 108.664 198.534C110.735 199.553 113.865 200.557 117.402 200.493C120.938 200.429 124.036 199.322 126.067 198.231C128.114 197.14 129.197 196.152 129.253 196.224L129.245 196.216Z" fill="#263238"/>
<path d="M96.2076 145.497C96.2076 145.497 96.2394 145.664 96.2633 145.991C96.2872 146.357 96.3111 146.827 96.3509 147.401C96.4147 148.683 96.4943 150.451 96.5899 152.602C96.7731 157.046 97.0279 163.083 97.3067 169.757C97.6094 176.432 97.8802 182.469 98.0872 186.913C98.1987 189.064 98.2864 190.824 98.3501 192.114C98.374 192.688 98.3979 193.157 98.4138 193.532C98.4217 193.858 98.4138 194.026 98.4058 194.026C98.3899 194.026 98.366 193.858 98.3262 193.54C98.2864 193.173 98.2465 192.703 98.1828 192.13C98.0633 190.903 97.9359 189.135 97.7846 186.937C97.4899 182.549 97.1633 176.487 96.8846 169.781C96.5978 163.083 96.4067 157.014 96.2952 152.617C96.2554 150.459 96.2155 148.699 96.1917 147.409C96.1917 146.835 96.1917 146.365 96.1917 145.991C96.1917 145.664 96.2076 145.497 96.2235 145.497H96.2076Z" fill="#263238"/>
<path d="M93.0616 148.174C93.0616 148.174 93.0138 148.317 92.8864 148.564C92.7351 148.858 92.5439 149.217 92.313 149.655C91.8032 150.595 91.0466 151.941 90.0829 153.582C88.1713 156.887 85.2961 161.307 82.389 166.341C80.9395 168.85 79.7049 171.343 78.6377 173.613C77.5784 175.882 77.0368 178.113 77.1722 179.992C77.2757 181.88 77.8412 183.337 78.335 184.261C78.8368 185.193 79.243 185.631 79.2111 185.655C79.2032 185.663 79.0996 185.56 78.9085 185.352C78.7253 185.137 78.4704 184.811 78.1916 184.341C77.6341 183.425 77.0209 181.944 76.8695 180.008C76.6863 178.073 77.22 175.747 78.2713 173.445C79.3306 171.144 80.5492 168.651 82.0067 166.118C84.9218 161.068 87.8368 156.68 89.8121 153.414C90.7758 151.829 91.5722 150.523 92.1616 149.559C92.4165 149.137 92.6315 148.795 92.7988 148.508C92.9501 148.269 93.0377 148.15 93.0457 148.158L93.0616 148.174Z" fill="#263238"/>
<path d="M185.682 162.055L174.03 154.433L166.679 167.177C166.679 167.177 156.484 153.008 151.849 144.7C147.587 137.062 142.068 134.999 139.408 134.45C138.619 134.283 137.91 134.944 137.998 135.74L142.02 163.298C142.53 164.731 150.941 176.925 155.64 183.058C163.485 193.301 175.042 186.746 178.212 179.578C180.728 173.891 184.655 165.249 185.682 162.063V162.055Z" fill="#455A64"/>
<path d="M170.024 178.67C169.96 178.67 169.888 177.977 169.801 176.854C169.705 175.731 169.586 174.178 169.235 172.513C168.885 170.849 168.303 169.407 167.746 168.443C167.196 167.472 166.734 166.946 166.782 166.898C166.814 166.866 167.372 167.32 168.001 168.284C168.638 169.232 169.291 170.713 169.649 172.418C170.008 174.13 170.072 175.699 170.096 176.83C170.111 177.961 170.072 178.662 170.016 178.662L170.024 178.67Z" fill="#263238"/>
<path d="M173.441 172.975C173.369 172.975 173.313 172.386 173.027 171.486C172.74 170.594 172.158 169.391 171.163 168.364C170.183 167.32 168.988 166.683 168.065 166.667C167.133 166.619 166.615 166.994 166.591 166.93C166.551 166.906 167.037 166.396 168.073 166.365C169.108 166.301 170.454 166.97 171.481 168.069C172.541 169.16 173.106 170.458 173.329 171.406C173.552 172.37 173.496 172.983 173.449 172.983L173.441 172.975Z" fill="#263238"/>
<path d="M138.651 137.851C138.651 137.851 138.563 137.97 138.372 138.177C138.269 138.289 138.149 138.408 138.014 138.544C137.879 138.703 137.727 138.886 137.568 139.085C136.923 139.905 136.071 141.196 135.553 143.004C134.995 144.788 134.78 147.058 135.107 149.511C135.274 150.737 135.577 152.004 136.11 153.238C136.628 154.481 137.305 155.715 137.99 156.982C140.841 161.991 143.78 166.324 145.907 169.454C146.958 170.968 147.826 172.21 148.464 173.134C149.069 174.002 149.419 174.472 149.387 174.496C149.379 174.504 149.276 174.4 149.093 174.185C148.91 173.97 148.647 173.652 148.328 173.237C147.675 172.401 146.759 171.175 145.652 169.637C143.462 166.547 140.483 162.238 137.616 157.205C136.923 155.93 136.238 154.688 135.72 153.413C135.179 152.139 134.876 150.833 134.717 149.575C134.398 147.066 134.653 144.74 135.258 142.924C135.832 141.092 136.74 139.786 137.44 138.99C137.616 138.798 137.775 138.631 137.926 138.472C138.07 138.344 138.197 138.233 138.317 138.129C138.532 137.946 138.643 137.859 138.659 137.867L138.651 137.851Z" fill="#263238"/>
<path d="M138.683 211.062C138.683 211.062 138.564 211.125 138.325 211.213C138.038 211.309 137.695 211.428 137.281 211.571C136.827 211.731 136.27 211.906 135.609 212.081C134.948 212.264 134.207 212.487 133.363 212.671C131.69 213.085 129.675 213.459 127.413 213.762C125.151 214.04 122.65 214.232 120.022 214.248C117.394 214.248 114.885 214.064 112.623 213.802C110.361 213.507 108.346 213.148 106.665 212.742C105.821 212.567 105.072 212.344 104.419 212.169C103.758 211.994 103.193 211.818 102.739 211.667C102.324 211.524 101.974 211.412 101.687 211.309C101.448 211.221 101.329 211.173 101.329 211.157C101.329 211.141 101.464 211.165 101.711 211.229C102.006 211.309 102.356 211.396 102.778 211.508C103.24 211.635 103.806 211.787 104.467 211.938C105.128 212.089 105.877 212.296 106.721 212.448C108.393 212.806 110.409 213.14 112.655 213.411C114.909 213.65 117.394 213.817 120.006 213.817C122.618 213.802 125.103 213.618 127.349 213.363C129.595 213.085 131.61 212.742 133.275 212.368C134.119 212.209 134.868 212.002 135.529 211.842C136.19 211.691 136.756 211.532 137.218 211.404C137.64 211.293 137.99 211.197 138.285 211.117C138.532 211.054 138.659 211.03 138.667 211.046L138.683 211.062Z" fill="#263238"/>
<g opacity="0.3">
<path d="M95.2998 181.37L97.5777 177.841L96.391 150.053L95.2998 181.37Z" fill="black"/>
</g>
<g opacity="0.3">
<path d="M134.573 148.174C134.573 148.174 134.645 158.305 136.987 162.311C139.328 166.325 144.808 174.991 144.784 174.473C144.768 173.955 144.473 167.329 144.473 167.329C144.473 167.329 134.621 153.845 134.573 148.174Z" fill="black"/>
</g>
<path d="M93.2926 182.214C93.2926 182.214 93.0537 182.358 92.5678 182.421C92.082 182.493 91.3492 182.461 90.5209 182.159C89.6926 181.856 88.7846 181.29 87.9722 180.454C87.1598 179.618 86.4908 178.527 85.8457 177.38C85.2085 176.233 84.6271 175.134 83.966 174.226C83.3129 173.326 82.5802 172.617 81.8873 172.139C80.4855 171.167 79.3465 171.231 79.3625 171.144C79.3625 171.128 79.6333 171.08 80.1191 171.144C80.605 171.207 81.2979 171.422 82.0466 171.884C82.7952 172.346 83.5758 173.063 84.2687 173.987C84.9696 174.911 85.5669 176.026 86.2041 177.165C86.8413 178.304 87.4864 179.363 88.243 180.175C88.9997 180.988 89.8439 181.553 90.6165 181.872C92.1935 182.533 93.2926 182.111 93.2847 182.198L93.2926 182.214Z" fill="white"/>
<path d="M96.367 164.763C96.2953 164.779 96.1201 164.158 95.6342 163.266C95.1564 162.374 94.2962 161.227 93.0617 160.287C91.8192 159.355 90.4891 158.838 89.4935 158.623C88.4979 158.4 87.8528 158.4 87.8528 158.328C87.8528 158.288 88.4979 158.177 89.5492 158.328C90.5926 158.479 92.0103 158.973 93.3086 159.945C94.5988 160.924 95.467 162.159 95.8971 163.123C96.3351 164.086 96.4068 164.747 96.367 164.755V164.763Z" fill="white"/>
<path d="M134.764 149.846C134.757 149.885 134.215 149.742 133.227 149.662C132.24 149.583 130.79 149.615 129.062 150.045C127.333 150.459 125.358 151.239 123.287 152.354C121.201 153.446 118.995 154.831 116.494 155.978C114.001 157.149 111.388 157.738 109.015 157.882C106.625 158.017 104.475 157.739 102.731 157.3C100.979 156.87 99.6325 156.289 98.7404 155.835C98.2865 155.62 97.9599 155.413 97.7289 155.277C97.5059 155.142 97.3865 155.062 97.3944 155.054C97.4103 155.023 97.8962 155.285 98.8121 155.692C99.7201 156.098 101.066 156.631 102.802 157.022C104.531 157.42 106.649 157.659 108.991 157.508C111.325 157.34 113.865 156.759 116.326 155.604C118.795 154.481 121.002 153.103 123.12 152.02C125.223 150.913 127.246 150.14 129.006 149.766C130.766 149.368 132.256 149.384 133.251 149.511C133.753 149.575 134.135 149.654 134.39 149.726C134.645 149.798 134.78 149.838 134.772 149.854L134.764 149.846Z" fill="white"/>
<path d="M144.553 177.403C144.553 177.403 144.402 177.467 144.091 177.555C143.78 177.626 143.342 177.794 142.745 177.889C141.566 178.152 139.814 178.343 137.656 178.295C135.489 178.256 132.933 177.873 130.153 177.244C127.373 176.607 124.371 175.699 121.225 174.767C118.079 173.851 115.036 173.134 112.232 172.768C109.429 172.417 106.856 172.394 104.746 172.712C102.635 173.023 100.97 173.556 99.8793 174.05C98.7882 174.536 98.2068 174.871 98.1829 174.831C98.1829 174.815 98.3183 174.727 98.5891 174.568C98.8678 174.417 99.2501 174.138 99.8076 173.907C100.883 173.365 102.555 172.776 104.698 172.425C106.84 172.067 109.437 172.059 112.28 172.394C115.124 172.744 118.19 173.453 121.344 174.377C124.498 175.301 127.485 176.225 130.241 176.878C132.996 177.531 135.529 177.929 137.672 178.009C139.806 178.096 141.542 177.945 142.729 177.738C143.908 177.539 144.553 177.371 144.569 177.411L144.553 177.403Z" fill="white"/>
<path d="M144.832 193.157C144.792 193.293 142.474 191.787 138.205 191.373C136.087 191.142 133.546 191.27 130.75 191.628C127.955 192.01 124.912 192.648 121.702 193.253C118.493 193.85 115.418 194.384 112.583 194.631C109.756 194.886 107.183 194.87 105.048 194.583C102.914 194.304 101.225 193.834 100.102 193.396C99.5289 193.205 99.1227 192.974 98.828 192.855C98.5413 192.719 98.3979 192.648 98.3979 192.632C98.4139 192.592 99.0192 192.863 100.15 193.245C101.273 193.635 102.962 194.057 105.072 194.288C107.191 194.535 109.732 194.519 112.543 194.248C115.355 193.986 118.413 193.444 121.623 192.847C124.825 192.241 127.883 191.612 130.695 191.254C133.514 190.911 136.087 190.816 138.229 191.086C140.372 191.341 142.06 191.843 143.159 192.329C143.725 192.536 144.123 192.791 144.41 192.918C144.688 193.062 144.832 193.149 144.824 193.157H144.832Z" fill="white"/>
<path d="M118.939 213.468C118.939 213.468 118.636 213.309 118.142 212.966C117.648 212.616 116.932 212.13 116.032 211.532C114.239 210.346 111.691 208.801 108.744 207.367C105.789 205.933 103.009 204.882 100.97 204.205C99.9509 203.862 99.1147 203.6 98.5412 203.432C97.9677 203.257 97.6492 203.146 97.6571 203.114C97.6571 203.09 97.9916 203.146 98.581 203.273C99.1704 203.401 100.023 203.616 101.058 203.926C103.129 204.531 105.956 205.551 108.927 206.993C111.898 208.442 114.439 210.035 116.199 211.293C117.083 211.923 117.776 212.448 118.238 212.839C118.708 213.221 118.955 213.444 118.939 213.468Z" fill="white"/>
<path d="M143.462 213.197C143.462 213.197 142.88 213.635 141.789 214.033C140.698 214.439 139.105 214.782 137.321 214.726C135.537 214.67 133.96 214.224 132.901 213.754C131.833 213.284 131.26 212.846 131.284 212.814C131.316 212.751 131.945 213.093 133.012 213.483C134.08 213.874 135.609 214.256 137.337 214.312C139.065 214.359 140.618 214.073 141.702 213.754C142.793 213.436 143.438 213.133 143.462 213.197Z" fill="white"/>
<path d="M160.888 160.622C160.888 160.622 160.92 160.885 160.793 161.331C160.673 161.777 160.387 162.398 159.861 163.043C159.335 163.68 158.571 164.326 157.623 164.867C156.675 165.409 155.568 165.831 154.429 166.301C153.298 166.763 152.231 167.257 151.403 167.886C150.574 168.515 149.961 169.256 149.603 169.957C148.854 171.382 149.18 172.442 149.093 172.434C149.077 172.434 148.973 172.203 148.941 171.733C148.91 171.271 148.989 170.578 149.34 169.821C149.69 169.065 150.303 168.26 151.172 167.583C152.04 166.898 153.131 166.388 154.278 165.919C155.425 165.449 156.524 165.042 157.44 164.541C158.364 164.039 159.112 163.45 159.646 162.86C160.729 161.673 160.809 160.606 160.888 160.638V160.622Z" fill="white"/>
<path d="M151.108 143.713C151.108 143.713 151.084 143.976 150.972 144.438C150.917 144.669 150.845 144.947 150.725 145.266C150.614 145.585 150.502 145.951 150.319 146.333C149.993 147.114 149.507 148.006 148.886 148.946C148.248 149.87 147.46 150.825 146.52 151.717C145.572 152.601 144.561 153.326 143.605 153.916C142.633 154.481 141.717 154.911 140.913 155.19C140.523 155.349 140.148 155.437 139.822 155.532C139.503 155.628 139.217 155.692 138.986 155.732C138.524 155.819 138.261 155.851 138.253 155.819C138.237 155.739 139.264 155.54 140.81 154.919C141.582 154.609 142.466 154.162 143.406 153.597C144.33 153.008 145.31 152.291 146.233 151.423C147.149 150.547 147.93 149.623 148.575 148.731C149.204 147.831 149.706 146.97 150.056 146.214C150.773 144.708 151.036 143.697 151.116 143.721L151.108 143.713Z" fill="white"/>
<path d="M135.776 133.264C135.776 133.264 135.378 133.471 134.621 133.781C133.872 134.1 132.757 134.498 131.363 134.936C129.97 135.374 128.289 135.812 126.394 136.195C124.498 136.561 122.395 136.872 120.173 137.039C117.951 137.198 115.817 137.198 113.889 137.111C111.962 137.007 110.225 136.824 108.784 136.593C107.342 136.37 106.179 136.131 105.391 135.932C104.602 135.733 104.164 135.613 104.172 135.589C104.172 135.565 104.626 135.629 105.423 135.78C106.219 135.932 107.382 136.123 108.824 136.314C110.265 136.513 111.986 136.657 113.897 136.744C115.817 136.808 117.927 136.792 120.133 136.641C122.34 136.473 124.426 136.179 126.314 135.836C128.194 135.47 129.882 135.072 131.276 134.673C132.67 134.275 133.793 133.925 134.557 133.654C135.33 133.391 135.76 133.256 135.768 133.288L135.776 133.264Z" fill="white"/>
<path d="M167.069 167.934C167.069 167.934 167.212 168.205 167.348 168.738C167.491 169.272 167.642 170.06 167.69 171.04C167.826 173.015 167.451 175.731 166.91 178.654C166.647 180.128 166.32 181.529 165.827 182.748C165.341 183.967 164.672 184.978 163.979 185.687C163.294 186.412 162.585 186.834 162.083 187.065C161.573 187.288 161.271 187.344 161.263 187.32C161.215 187.24 162.465 186.937 163.756 185.488C164.393 184.771 165.014 183.791 165.468 182.605C165.93 181.418 166.233 180.04 166.496 178.574C167.037 175.644 167.451 172.983 167.396 171.048C167.364 169.105 166.981 167.942 167.069 167.926V167.934Z" fill="white"/>
<path d="M183.038 169.973C182.966 170.005 182.592 169.161 181.756 167.95C180.927 166.739 179.565 165.194 177.726 163.904C175.886 162.622 173.966 161.873 172.541 161.514C171.115 161.148 170.191 161.084 170.199 161.013C170.199 160.981 170.43 160.981 170.852 160.997C171.274 161.005 171.872 161.084 172.612 161.228C173.353 161.371 174.205 161.634 175.129 162.008C176.045 162.399 177.017 162.908 177.965 163.561C178.904 164.222 179.717 164.963 180.402 165.688C181.071 166.429 181.612 167.145 182.003 167.783C182.393 168.42 182.68 168.961 182.831 169.352C182.99 169.742 183.062 169.957 183.038 169.965V169.973Z" fill="white"/>
<g opacity="0.3">
<path d="M136.23 211.692C137.058 211.317 137.305 210.179 136.788 209.525C136.262 208.872 135.33 208.721 134.494 208.737C130.376 208.817 126.792 211.572 122.738 212.313C119.656 212.879 116.486 212.241 113.491 211.333C110.496 210.425 107.573 209.239 104.499 208.657C103.854 208.538 103.185 208.442 102.556 208.609C101.926 208.777 101.337 209.278 101.257 209.932C101.178 210.585 101.329 211.063 102.301 211.389C102.301 211.389 112.487 214.217 119.863 214.113C127.684 213.994 136.23 211.692 136.23 211.692Z" fill="black"/>
</g>
<path d="M348.48 328.604H292.918V336.243H348.48V328.604Z" fill="#263238"/>
<path d="M348.575 336.338H292.823V328.517H348.575V336.338ZM293.014 336.147H348.384V328.7H293.014V336.147Z" fill="#263238"/>
<path d="M298.072 333.702L306.068 373.159H335.657L343.39 336.243L298.072 333.702Z" fill="#263238"/>
<path d="M298.072 369.424L302.333 375.286H338.301L343.39 369.424H298.072Z" fill="#455A64"/>
<path d="M318.613 334.856C318.501 334.856 318.366 316.578 318.302 294.038C318.238 271.49 318.278 253.211 318.382 253.211C318.493 253.211 318.628 271.482 318.692 294.038C318.756 316.578 318.716 334.856 318.613 334.856Z" fill="#263238"/>
<path d="M330.989 289.108C330.989 289.108 330.95 289.259 330.838 289.53C330.711 289.841 330.543 290.231 330.344 290.717C330.233 290.98 330.113 291.258 329.986 291.569C329.874 291.888 329.747 292.238 329.62 292.604C329.484 292.979 329.341 293.377 329.189 293.791C329.038 294.213 328.927 294.675 328.775 295.145C328.17 297.041 327.684 299.366 327.222 301.947C326.816 304.543 326.513 307.419 326.362 310.453C326.091 316.522 326.434 322.026 326.8 325.992C326.975 327.975 327.158 329.576 327.294 330.683C327.35 331.201 327.397 331.623 327.437 331.958C327.461 332.252 327.469 332.404 327.461 332.404C327.445 332.404 327.413 332.252 327.358 331.966C327.302 331.631 327.23 331.217 327.143 330.699C326.967 329.6 326.744 327.999 326.529 326.016C326.091 322.05 325.701 316.53 325.972 310.429C326.123 307.387 326.442 304.488 326.872 301.883C327.358 299.287 327.875 296.953 328.52 295.057C328.672 294.58 328.799 294.126 328.958 293.704C329.118 293.281 329.277 292.891 329.42 292.517C329.564 292.15 329.699 291.808 329.827 291.489C329.962 291.179 330.105 290.9 330.225 290.645C330.456 290.175 330.639 289.793 330.79 289.49C330.926 289.227 330.997 289.092 331.013 289.1L330.989 289.108Z" fill="#263238"/>
<path d="M329.564 274.326C329.564 274.326 329.516 274.541 329.389 274.931C329.245 275.353 329.054 275.918 328.807 276.627C328.68 277.002 328.536 277.408 328.385 277.854C328.25 278.308 328.098 278.802 327.939 279.327C327.613 280.387 327.238 281.589 326.904 282.935C326.729 283.612 326.537 284.313 326.346 285.046C326.179 285.787 326.004 286.559 325.829 287.356C325.438 288.949 325.159 290.677 324.801 292.477C324.188 296.109 323.646 300.123 323.28 304.352C322.929 308.589 322.778 312.635 322.722 316.323C322.714 320.003 322.754 323.324 322.906 326.104C322.953 327.497 323.041 328.756 323.113 329.855C323.176 330.962 323.248 331.91 323.32 332.69C323.375 333.439 323.423 334.036 323.455 334.482C323.479 334.889 323.487 335.112 323.479 335.112C323.463 335.112 323.431 334.897 323.375 334.49C323.32 334.044 323.256 333.455 323.168 332.706C323.073 331.934 322.985 330.978 322.898 329.879C322.802 328.772 322.698 327.513 322.627 326.12C322.436 323.332 322.364 320.011 322.356 316.315C322.388 312.627 322.531 308.566 322.882 304.312C323.256 300.067 323.806 296.045 324.443 292.405C324.809 290.597 325.104 288.869 325.51 287.276C325.701 286.48 325.876 285.707 326.052 284.966C326.251 284.234 326.45 283.525 326.633 282.856C326.983 281.502 327.382 280.307 327.732 279.248C327.899 278.722 328.067 278.236 328.21 277.782C328.377 277.344 328.529 276.938 328.672 276.564C328.943 275.863 329.158 275.305 329.317 274.891C329.468 274.509 329.556 274.31 329.572 274.318L329.564 274.326Z" fill="#263238"/>
<path d="M315.1 338.091C315.1 338.091 315.084 338.019 315.068 337.876C315.052 337.708 315.036 337.501 315.012 337.247C314.973 336.665 314.917 335.853 314.845 334.825C314.71 332.691 314.519 329.656 314.288 325.921C313.802 318.402 313.109 308.024 311.842 296.603C311.197 290.892 310.449 285.468 309.668 280.554C309.254 278.101 308.88 275.767 308.45 273.593C308.059 271.411 307.637 269.396 307.247 267.556C306.88 265.708 306.474 264.052 306.148 262.594C305.829 261.136 305.511 259.886 305.256 258.867C305.009 257.863 304.818 257.074 304.682 256.509C304.626 256.254 304.579 256.055 304.539 255.896C304.507 255.76 304.499 255.681 304.507 255.681C304.507 255.681 304.539 255.744 304.579 255.88C304.626 256.039 304.682 256.238 304.754 256.485C304.913 257.051 305.128 257.831 305.407 258.827C305.694 259.838 306.02 261.089 306.363 262.546C306.713 264.004 307.135 265.652 307.518 267.5C307.924 269.34 308.362 271.355 308.768 273.537C309.206 275.712 309.596 278.045 310.019 280.498C310.815 285.421 311.58 290.845 312.225 296.563C313.491 307.992 314.144 318.386 314.558 325.913C314.765 329.672 314.901 332.723 314.988 334.825C315.028 335.853 315.06 336.665 315.076 337.247C315.076 337.501 315.084 337.716 315.092 337.876C315.092 338.019 315.092 338.091 315.084 338.091H315.1Z" fill="#263238"/>
<path d="M318.158 261.997C317.919 259.408 315.299 257.457 312.703 257.425C310.098 257.401 307.677 258.954 306.084 261.017C304.491 263.072 303.615 265.589 302.898 268.09C301.146 274.191 300.19 280.602 300.939 286.902C301.688 293.202 304.244 299.407 308.768 303.867C309.501 304.592 310.457 305.316 311.468 305.101C312.018 304.982 312.472 304.6 312.894 304.225C321.782 296.197 326.912 284.178 326.561 272.207C326.489 269.81 326.179 267.317 324.849 265.318C323.519 263.319 320.428 261.2 318.166 262.005" fill="#455A64"/>
<path d="M298.741 241.248C297.522 243.463 296.296 245.669 295.077 247.883C294.989 248.034 294.878 248.21 294.703 248.225C294.512 248.241 294.368 248.058 294.265 247.899C291.039 242.945 287.805 237.991 284.58 233.037L286.81 231.771L298.741 241.248Z" fill="#455A64"/>
<g opacity="0.2">
<path d="M298.741 241.248C297.522 243.463 296.296 245.669 295.077 247.883C294.989 248.034 294.878 248.21 294.703 248.225C294.512 248.241 294.368 248.058 294.265 247.899C291.039 242.945 287.805 237.991 284.58 233.037L286.81 231.771L298.741 241.248Z" fill="black"/>
</g>
<path d="M318.382 253.203C307.366 246.704 296.359 240.205 285.344 233.714C285.01 233.515 284.643 233.284 284.54 232.902C284.404 232.416 284.779 231.938 285.129 231.579C289.669 226.896 296.272 224.172 302.779 224.642C309.286 225.112 315.554 228.871 318.74 234.566C321.926 240.261 322.029 247.795 318.374 253.203" fill="#455A64"/>
<path d="M290.107 227.494C290.107 227.494 290.259 227.462 290.537 227.438C290.824 227.422 291.246 227.374 291.788 227.374C292.871 227.35 294.448 227.422 296.367 227.741C298.287 228.059 300.541 228.673 302.898 229.724C305.248 230.767 307.685 232.281 309.907 234.272C312.106 236.279 313.858 238.557 315.132 240.795C316.414 243.033 317.251 245.215 317.752 247.095C318.262 248.974 318.493 250.536 318.573 251.619C318.637 252.16 318.621 252.582 318.637 252.869C318.637 253.156 318.637 253.307 318.629 253.307C318.597 253.307 318.549 252.71 318.421 251.643C318.294 250.575 318.023 249.03 317.49 247.182C316.446 243.503 314.017 238.541 309.644 234.582C305.264 230.624 300.095 228.704 296.328 228.035C294.432 227.685 292.871 227.573 291.796 227.55C290.72 227.526 290.115 227.55 290.115 227.51L290.107 227.494Z" fill="#263238"/>
<path d="M313.913 239.751C313.929 239.799 313.3 240.094 312.241 240.508C311.19 240.922 309.716 241.456 308.075 241.973C306.427 242.499 304.921 242.913 303.822 243.176C302.723 243.447 302.03 243.574 302.022 243.519C302.006 243.463 302.675 243.24 303.751 242.905C304.969 242.523 306.387 242.085 307.956 241.591C309.517 241.089 310.935 240.627 312.153 240.237C313.228 239.895 313.898 239.688 313.913 239.743V239.751Z" fill="#263238"/>
<path d="M308.713 225.781C308.816 225.773 309.055 227.422 309.103 229.469C309.159 231.516 309.007 233.172 308.896 233.172C308.784 233.172 308.76 231.516 308.705 229.485C308.657 227.454 308.601 225.797 308.705 225.789L308.713 225.781Z" fill="#263238"/>
<path d="M285.058 233.34C285.042 233.292 285.958 232.958 287.455 232.496C288.952 232.034 291.047 231.444 293.373 230.887C295.706 230.329 297.833 229.899 299.378 229.62C300.923 229.35 301.887 229.23 301.895 229.278C301.903 229.334 300.955 229.549 299.426 229.891C297.897 230.234 295.786 230.704 293.46 231.261C291.135 231.819 289.04 232.36 287.527 232.758C286.005 233.149 285.065 233.388 285.05 233.332L285.058 233.34Z" fill="#263238"/>
<path d="M303.153 255.864C300.31 253.705 297.307 253.283 293.747 253.427C290.187 253.57 286.714 254.653 283.449 256.087C277.881 258.524 272.641 262.124 269.311 267.213C265.982 272.303 264.827 279.041 267.32 284.584C267.567 285.134 267.894 285.715 268.451 285.954C269.041 286.209 269.71 286.01 270.315 285.811C276.647 283.748 283.026 281.661 288.857 278.42C294.679 275.186 299.983 270.686 303.113 264.8C303.862 263.39 304.491 261.877 304.611 260.284C304.73 258.691 304.292 256.995 303.161 255.872" fill="#455A64"/>
<path d="M303.209 255.195C303.209 255.195 303.057 255.274 302.755 255.378C302.412 255.497 301.974 255.649 301.425 255.832C301.13 255.927 300.811 256.039 300.461 256.15C300.111 256.278 299.744 256.429 299.338 256.589C298.534 256.915 297.61 257.234 296.63 257.712C296.136 257.935 295.618 258.173 295.077 258.42C294.535 258.667 294.002 258.978 293.428 259.265C292.281 259.83 291.118 260.547 289.884 261.28C287.455 262.817 284.882 264.665 282.381 266.839C279.904 269.045 277.738 271.355 275.906 273.569C275.022 274.7 274.162 275.767 273.453 276.835C273.094 277.36 272.72 277.854 272.402 278.356C272.091 278.858 271.788 279.343 271.502 279.805C270.904 280.713 270.466 281.597 270.044 282.354C269.837 282.736 269.638 283.079 269.471 283.413C269.311 283.74 269.168 284.051 269.033 284.329C268.778 284.847 268.571 285.261 268.411 285.588C268.268 285.874 268.18 286.018 268.172 286.018C268.156 286.018 268.22 285.851 268.34 285.556C268.483 285.221 268.666 284.791 268.897 284.266C269.025 283.979 269.16 283.668 269.311 283.334C269.471 282.999 269.662 282.641 269.861 282.259C270.267 281.494 270.689 280.594 271.279 279.67C271.557 279.2 271.852 278.706 272.163 278.197C272.473 277.687 272.84 277.185 273.198 276.651C273.899 275.568 274.751 274.493 275.635 273.346C277.467 271.108 279.633 268.766 282.134 266.544C284.651 264.346 287.248 262.498 289.709 260.969C290.959 260.244 292.138 259.527 293.293 258.97C293.866 258.683 294.416 258.381 294.957 258.142C295.507 257.903 296.025 257.672 296.526 257.457C297.522 256.995 298.462 256.684 299.274 256.381C299.68 256.238 300.063 256.087 300.413 255.975C300.764 255.872 301.09 255.776 301.385 255.689C301.942 255.529 302.388 255.402 302.739 255.298C303.049 255.211 303.217 255.179 303.217 255.187L303.209 255.195Z" fill="#263238"/>
<path d="M281.011 267.214C281.043 267.317 277.945 268.313 274.098 269.444C270.251 270.567 267.105 271.395 267.073 271.292C267.041 271.188 270.14 270.193 273.987 269.062C277.833 267.939 280.979 267.11 281.011 267.214Z" fill="#263238"/>
<path d="M280.725 282.466C280.669 282.466 280.605 281.646 280.573 280.316C280.533 278.986 280.533 277.146 280.589 275.115C280.645 273.084 280.756 271.244 280.868 269.922C280.98 268.592 281.083 267.779 281.139 267.779C281.195 267.779 281.187 268.608 281.139 269.938C281.091 271.395 281.035 273.171 280.979 275.131C280.932 277.09 280.884 278.866 280.852 280.324C280.82 281.654 280.78 282.474 280.725 282.474V282.466Z" fill="#263238"/>
<path d="M293.787 275.807C293.675 275.807 293.333 272.072 293.014 267.452C292.696 262.833 292.52 259.081 292.632 259.073C292.743 259.073 293.086 262.801 293.404 267.428C293.723 272.048 293.898 275.799 293.787 275.807Z" fill="#263238"/>
<path d="M277.531 258.715C277.531 258.659 278.383 258.635 279.745 258.651C281.115 258.659 282.994 258.699 285.081 258.771C287.16 258.842 289.048 258.922 290.41 259.002C291.772 259.081 292.616 259.161 292.616 259.217C292.616 259.273 291.772 259.296 290.402 259.281C289.04 259.273 287.152 259.233 285.065 259.161C282.979 259.089 281.099 259.01 279.737 258.93C278.375 258.85 277.531 258.771 277.531 258.715Z" fill="#263238"/>
<path d="M310.186 305.635C310.186 305.635 310.154 305.484 310.138 305.181C310.122 304.838 310.106 304.408 310.082 303.883C310.035 302.752 310.019 301.119 310.066 299.104C310.106 297.089 310.234 294.684 310.473 292.023C310.728 289.363 311.102 286.456 311.635 283.422C312.185 280.387 312.838 277.528 313.515 274.947C314.208 272.367 314.917 270.073 315.578 268.161C316.231 266.25 316.813 264.721 317.243 263.685C317.45 263.199 317.617 262.801 317.744 262.491C317.864 262.22 317.936 262.076 317.943 262.084C317.959 262.084 317.912 262.236 317.816 262.522C317.705 262.841 317.561 263.247 317.386 263.749C316.996 264.808 316.462 266.345 315.841 268.257C315.212 270.168 314.543 272.47 313.866 275.043C313.212 277.623 312.567 280.475 312.026 283.501C311.492 286.528 311.11 289.427 310.839 292.071C310.584 294.715 310.417 297.113 310.345 299.12C310.266 301.127 310.234 302.76 310.242 303.891C310.242 304.416 310.234 304.846 310.226 305.189C310.218 305.484 310.21 305.643 310.194 305.643L310.186 305.635Z" fill="#263238"/>
<path d="M311.93 283.095C311.93 283.095 311.468 283.692 310.616 284.544C309.764 285.397 308.545 286.543 307.167 287.754C305.782 288.965 304.491 290.024 303.535 290.757C302.58 291.489 301.966 291.912 301.927 291.872C301.895 291.824 302.444 291.33 303.352 290.542C304.364 289.658 305.574 288.614 306.905 287.459C308.227 286.289 309.421 285.237 310.425 284.345C311.325 283.549 311.898 283.063 311.93 283.103V283.095Z" fill="#263238"/>
<path d="M322.38 291.521C322.332 291.553 321.806 290.796 320.978 289.578C320.078 288.263 318.955 286.623 317.712 284.815C316.446 283.023 315.299 281.406 314.383 280.1C313.523 278.897 313.005 278.14 313.045 278.108C313.085 278.077 313.69 278.77 314.606 279.932C315.522 281.095 316.749 282.736 318.039 284.592C319.329 286.447 320.444 288.168 321.217 289.426C321.989 290.693 322.427 291.497 322.388 291.521H322.38Z" fill="#263238"/>
<path d="M316.908 265.031C316.964 265.126 313.491 267.46 309.15 270.256C304.81 273.051 301.242 275.234 301.178 275.146C301.122 275.05 304.595 272.717 308.935 269.921C313.276 267.126 316.844 264.943 316.908 265.031Z" fill="#263238"/>
<path d="M326.697 275.6C326.617 275.68 324.267 273.505 321.44 270.75C318.612 267.986 316.382 265.692 316.462 265.612C316.542 265.533 318.891 267.707 321.719 270.471C324.546 273.227 326.768 275.528 326.697 275.608V275.6Z" fill="#263238"/>
<path d="M329.166 275.393L332.144 275.146C334.263 274.971 336.318 274.341 338.166 273.306C339.082 272.788 339.998 272.287 340.969 271.896C344.657 270.415 348.767 270.678 352.733 270.479C359.208 270.152 365.612 268.519 371.45 265.692C371.784 265.533 372.087 265.278 372.262 264.951C372.876 263.836 371.737 262.841 370.757 262.235C365.731 259.137 360.618 256.007 354.923 254.47C349.229 252.933 342.761 253.195 337.903 256.541C332.2 260.467 330.121 268.535 329.158 275.393" fill="#455A64"/>
<path d="M372.342 264.585C372.342 264.585 372.159 264.514 371.84 264.347C371.482 264.155 371.012 263.916 370.43 263.606C369.204 262.961 367.444 262.013 365.214 260.938C362.983 259.878 360.276 258.684 357.137 257.823C354.007 256.955 350.391 256.501 346.664 256.971C342.952 257.457 339.536 258.907 337.114 261.073C334.677 263.231 333.196 265.836 332.144 268.058C331.093 270.296 330.448 272.192 329.978 273.498C329.755 274.119 329.58 274.621 329.444 275.003C329.317 275.346 329.245 275.521 329.237 275.521C329.229 275.521 329.269 275.33 329.373 274.979C329.492 274.589 329.644 274.087 329.835 273.45C330.257 272.136 330.87 270.216 331.89 267.947C332.917 265.701 334.398 263.032 336.875 260.81C339.336 258.572 342.833 257.091 346.608 256.589C350.399 256.103 354.071 256.581 357.233 257.481C360.403 258.373 363.111 259.6 365.341 260.699C367.563 261.806 369.307 262.793 370.51 263.478C371.084 263.813 371.538 264.084 371.888 264.283C372.199 264.474 372.358 264.577 372.358 264.585H372.342Z" fill="#263238"/>
<path d="M365.182 268.432C365.118 268.519 361.223 266.003 356.477 262.801C351.73 259.599 347.93 256.931 347.986 256.835C348.05 256.748 351.945 259.264 356.7 262.466C361.446 265.668 365.246 268.336 365.19 268.432H365.182Z" fill="#263238"/>
<path d="M361.43 256.461C361.454 256.565 360.1 256.915 358.388 257.074C356.676 257.234 355.282 257.138 355.282 257.027C355.282 256.915 356.66 256.835 358.348 256.676C360.037 256.525 361.407 256.35 361.43 256.461Z" fill="#263238"/>
<path d="M343.948 253.331C344.044 253.387 343.47 254.534 342.666 255.888C341.861 257.242 341.137 258.301 341.049 258.245C340.961 258.19 341.527 257.043 342.331 255.689C343.136 254.335 343.86 253.275 343.948 253.331Z" fill="#263238"/>
<path d="M347.444 270.726C347.421 270.774 346.696 270.392 345.565 269.707C344.442 269.022 342.913 268.018 341.288 266.839C339.663 265.661 338.229 264.538 337.194 263.725C336.166 262.905 335.545 262.379 335.577 262.339C335.609 262.3 336.294 262.746 337.361 263.502C338.532 264.354 339.95 265.382 341.519 266.521C343.144 267.7 344.633 268.727 345.716 269.476C346.799 270.216 347.468 270.678 347.444 270.726Z" fill="#263238"/>
<path d="M333.554 288.057C330.711 287.308 327.318 290.072 326.736 292.955C326.147 295.839 327.23 298.785 328.497 301.438C331.3 307.316 335.163 312.763 340.26 316.825C345.35 320.879 351.729 323.476 358.244 323.444C357.042 317.861 358.563 312.023 357.894 306.352C357.313 301.398 355.003 296.667 351.459 293.162C347.914 289.658 343.159 287.396 338.205 286.854C336.389 286.655 334.287 286.377 333.562 288.049" fill="#455A64"/>
<path d="M358.236 323.452C358.236 323.452 358.093 323.396 357.83 323.261C357.575 323.117 357.201 322.894 356.763 322.544C355.871 321.867 354.843 320.561 353.951 318.784C353.497 317.9 352.988 316.945 352.494 315.893C352.016 314.834 351.498 313.703 350.965 312.508C350.423 311.322 349.826 310.095 349.085 308.892C348.344 307.69 347.468 306.519 346.497 305.372C344.553 303.086 342.458 301.103 340.65 299.215C338.827 297.336 337.297 295.52 336.19 293.863C335.075 292.214 334.398 290.741 334.016 289.706C333.833 289.18 333.697 288.774 333.634 288.487C333.562 288.2 333.53 288.057 333.546 288.049C333.586 288.041 333.745 288.63 334.159 289.65C334.581 290.661 335.29 292.103 336.421 293.712C337.544 295.329 339.081 297.105 340.913 298.968C342.729 300.84 344.832 302.815 346.799 305.125C347.779 306.28 348.671 307.475 349.412 308.701C350.16 309.928 350.758 311.17 351.291 312.365L352.789 315.758C353.266 316.809 353.76 317.781 354.198 318.665C355.058 320.441 356.014 321.731 356.858 322.432C357.687 323.149 358.252 323.412 358.228 323.452H358.236Z" fill="#263238"/>
<path d="M343.526 318.808C343.478 318.8 343.566 318.067 343.789 316.897C344.012 315.726 344.378 314.117 344.872 312.365C345.366 310.613 345.891 309.051 346.313 307.936C346.736 306.821 347.038 306.152 347.094 306.168C347.15 306.184 346.935 306.893 346.584 308.032C346.234 309.163 345.748 310.732 345.254 312.476C344.76 314.22 344.354 315.805 344.067 316.96C343.773 318.115 343.59 318.824 343.534 318.816L343.526 318.808Z" fill="#263238"/>
<path d="M357.695 305.101C357.679 305.157 356.914 304.958 355.688 304.639C354.461 304.321 352.773 303.883 350.885 303.46C349.005 303.038 347.285 302.704 346.043 302.473C344.8 302.234 344.027 302.09 344.035 302.027C344.035 301.971 344.824 302.027 346.09 302.194C347.349 302.361 349.085 302.648 350.981 303.07C352.876 303.5 354.565 303.978 355.775 304.368C356.986 304.759 357.719 305.045 357.703 305.101H357.695Z" fill="#263238"/>
<path d="M332.973 309.083C332.917 309.075 333.028 308.223 333.283 306.869C333.53 305.515 333.928 303.644 334.462 301.605C334.996 299.566 335.561 297.742 336.007 296.436C336.453 295.129 336.772 294.333 336.819 294.349C336.875 294.365 336.652 295.193 336.27 296.515C335.896 297.837 335.37 299.669 334.844 301.7C334.311 303.731 333.873 305.579 333.554 306.925C333.235 308.263 333.028 309.091 332.973 309.083Z" fill="#263238"/>
<path d="M351.172 293.155C351.164 293.266 347.612 292.98 343.247 292.51C338.882 292.048 335.346 291.586 335.362 291.474C335.37 291.363 338.922 291.649 343.295 292.119C347.66 292.581 351.196 293.043 351.18 293.155H351.172Z" fill="#263238"/>
<path d="M348.568 336.211C348.568 336.322 336.087 336.41 320.699 336.41C305.312 336.41 292.823 336.322 292.823 336.211C292.823 336.099 305.304 336.012 320.699 336.012C336.095 336.012 348.568 336.099 348.568 336.211Z" fill="#455A64"/>
<path d="M339.886 352.267C339.886 352.379 331.475 352.467 321.105 352.467C310.735 352.467 302.325 352.379 302.325 352.267C302.325 352.156 310.735 352.068 321.105 352.068C331.475 352.068 339.886 352.156 339.886 352.267Z" fill="#455A64"/>
<path d="M340.213 354.569C340.213 354.681 331.802 354.768 321.432 354.768C311.062 354.768 302.651 354.681 302.651 354.569C302.651 354.458 311.062 354.37 321.432 354.37C331.802 354.37 340.213 354.458 340.213 354.569Z" fill="#455A64"/>
<path d="M340.213 350.38C340.213 350.491 331.515 350.579 320.787 350.579C310.058 350.579 301.361 350.491 301.361 350.38C301.361 350.268 310.058 350.181 320.787 350.181C331.515 350.181 340.213 350.268 340.213 350.38Z" fill="#455A64"/>
<path d="M364.043 375.285C364.043 375.397 288.713 375.492 195.814 375.492C102.914 375.492 27.5686 375.397 27.5686 375.285C27.5686 375.174 102.882 375.078 195.814 375.078C288.745 375.078 364.043 375.174 364.043 375.285Z" fill="#263238"/>
</g>
<defs>
<clipPath id="clip0_2532_18763">
<rect width="400" height="400" fill="white" transform="translate(0.00292969 0.621094)"/>
</clipPath>
</defs>
</svg>
