<svg width="80" height="55" viewBox="0 0 80 55" fill="none" xmlns="http://www.w3.org/2000/svg">
<path d="M71.7766 34.1394C71.7766 34.542 71.4502 34.8672 71.0464 34.8672H50.9426C50.5413 34.8672 50.2148 34.5407 50.2148 34.1394V26.8519C50.2148 26.4492 50.5413 26.1229 50.9426 26.1229H71.0464C71.449 26.1229 71.7766 26.4494 71.7766 26.8519V34.1394Z" fill="#00B7A5"/>
<path d="M71.7771 34.1394V26.8519C71.7771 26.4492 71.4506 26.1229 71.0468 26.1229H66.8045C66.4018 26.1229 66.0742 26.4494 66.0742 26.8519V34.1394C66.0742 34.542 66.4007 34.8672 66.8045 34.8672H71.0468C71.4508 34.8685 71.7771 34.542 71.7771 34.1394Z" fill="#0794A3"/>
<path d="M65.2159 25.5462C65.2159 25.9488 64.8894 26.274 64.4869 26.274H44.383C43.9804 26.274 43.6541 25.9475 43.6541 25.5462V18.2587C43.6541 17.856 43.9805 17.5297 44.383 17.5297H64.4868C64.8894 17.5297 65.2157 17.8562 65.2157 18.2587V25.5462H65.2159Z" fill="#00B7A5"/>
<path d="M65.2163 25.5462V18.2587C65.2163 17.856 64.8898 17.5297 64.4874 17.5297H60.2437C59.841 17.5297 59.5134 17.8562 59.5134 18.2587V25.5462C59.5134 25.9488 59.8399 26.274 60.2437 26.274H64.4874C64.8885 26.2753 65.2163 25.9488 65.2163 25.5462Z" fill="#0794A3"/>
<path d="M59.0432 34.1394C59.0432 34.542 58.7168 34.8672 58.3155 34.8672H38.2117C37.8091 34.8672 37.4814 34.5407 37.4814 34.1394V26.8519C37.4814 26.4492 37.8079 26.1229 38.2117 26.1229H58.3155C58.7168 26.1229 59.0432 26.4494 59.0432 26.8519V34.1394Z" fill="#00B7A5"/>
<path d="M59.043 34.1394V26.8519C59.043 26.4492 58.7166 26.1229 58.3153 26.1229H54.0676C53.6663 26.1229 53.3398 26.4494 53.3398 26.8519V34.1394C53.3398 34.542 53.6663 34.8672 54.0676 34.8672H58.3153C58.7166 34.8685 59.043 34.542 59.043 34.1394Z" fill="#0794A3"/>
<path d="M28.8379 28.3318C28.8379 30.4026 27.1579 32.0813 25.0884 32.0813H18.6306C16.5598 32.0813 14.8811 30.4026 14.8811 28.3318V20.4146C14.8811 18.3438 16.5598 18.1243 18.6306 18.1243H25.0884C27.1581 18.1243 28.8379 18.3437 28.8379 20.4146V28.3318Z" fill="#88A1A8"/>
<path d="M34.2543 33.4892C34.2543 35.56 32.5743 37.2387 30.5048 37.2387H13.2124C11.1427 37.2387 9.46289 35.56 9.46289 33.4892V29.5318C9.46289 27.461 11.1429 25.7823 13.2124 25.7823H30.5048C32.5744 25.7823 34.2543 27.461 34.2543 29.5318V33.4892Z" fill="#A5B8BF"/>
<path d="M7.51203 35.4169C7.51072 35.4879 7.50171 35.555 7.50171 35.6246C7.50171 44.9443 22.0522 52.4988 40.0012 52.4988C57.9503 52.4988 72.5008 44.9443 72.5008 35.6246C72.5008 35.555 72.4918 35.4879 72.4905 35.4169H7.51203Z" fill="#5A6E7A"/>
<path d="M40.0012 52.4988C57.9503 52.4988 72.5008 44.9443 72.5008 35.6246C72.5008 35.555 72.4918 35.4879 72.4905 35.4169H7.51203C7.51072 35.4879 7.50171 35.555 7.50171 35.6246" fill="#3B4D56"/>
<path d="M75.8156 48.2706C73.8789 48.2706 72.1035 47.5971 70.6983 46.4758C69.2932 47.5958 67.5177 48.2706 65.5811 48.2706C63.6469 48.2706 61.8702 47.5971 60.4651 46.4758C59.06 47.5958 57.2858 48.2706 55.3492 48.2706C53.4138 48.2706 51.6383 47.5971 50.2332 46.4758C48.8281 47.5958 47.0515 48.2706 45.116 48.2706C43.1817 48.2706 41.4038 47.5971 40 46.4758C38.5936 47.5958 36.8183 48.2706 34.884 48.2706C32.9487 48.2706 31.1719 47.5971 29.7681 46.4758C28.3617 47.5958 26.5863 48.2706 24.6508 48.2706C22.7153 48.2706 20.94 47.5971 19.5336 46.4758C18.1298 47.5958 16.3518 48.2706 14.4189 48.2706C12.4823 48.2706 10.7055 47.5971 9.30166 46.4758C7.89785 47.5958 6.11991 48.2706 4.1844 48.2706C2.65282 48.2706 1.22575 47.8436 0 47.1145V53.3168C1.22575 54.0446 2.65413 54.4716 4.1844 54.4716C6.11975 54.4716 7.89785 53.7994 9.30166 52.6768C10.7055 53.7981 12.4823 54.4716 14.4189 54.4716C16.3518 54.4716 18.1298 53.7994 19.5336 52.6768C20.94 53.7981 22.7153 54.4716 24.6508 54.4716C26.5863 54.4716 28.3617 53.7994 29.7681 52.6768C31.1719 53.7981 32.9487 54.4716 34.884 54.4716C36.8183 54.4716 38.5936 53.7994 40 52.6768C41.4038 53.7981 43.1817 54.4716 45.116 54.4716C47.0513 54.4716 48.8281 53.7994 50.2332 52.6768C51.6383 53.7981 53.4138 54.4716 55.3492 54.4716C57.2845 54.4716 59.06 53.7994 60.4651 52.6768C61.8702 53.7981 63.6469 54.4716 65.5811 54.4716C67.5177 54.4716 69.2932 53.7994 70.6983 52.6768C72.1035 53.7981 73.8789 54.4716 75.8156 54.4716C77.3446 54.4716 78.7729 54.0459 80 53.3168V47.1145C78.7729 47.8434 77.3432 48.2706 75.8156 48.2706Z" fill="#3BABFF"/>
<path d="M8.6665 40.1032C9.43164 41.5432 10.5489 42.9082 11.9747 44.1651H68.0269C69.4527 42.9071 70.5713 41.5432 71.3351 40.1032H8.6665Z" fill="#F4D314"/>
<path d="M16.1274 40.1032L23.9517 44.1651H68.0264C68.3761 43.8566 68.7063 43.5407 69.0186 43.2206C69.0302 43.2103 69.0392 43.1999 69.0469 43.1922C69.6766 42.5406 70.2287 41.8671 70.6946 41.1717V41.1691C70.9295 40.8207 71.1398 40.4685 71.3293 40.1111C71.3293 40.1098 71.332 40.1071 71.332 40.1071L16.1274 40.1032Z" fill="#F29816"/>
<path d="M74.1666 34.7897C74.1666 35.2504 73.7924 35.6232 73.3329 35.6232H6.66962C6.21031 35.6232 5.83618 35.2504 5.83618 34.7897C5.83618 34.3304 6.21031 33.9563 6.66962 33.9563H73.3331C73.7911 33.9576 74.1666 34.3304 74.1666 34.7897Z" fill="#3B4D56"/>
<path d="M21.1301 20.1038C21.1301 20.5064 21.4553 20.8327 21.8591 20.8327C22.2617 20.8327 22.5868 20.5062 22.5868 20.1038V0.728931C22.5868 0.326299 22.2604 0 21.8591 0C21.4553 0 21.1301 0.327773 21.1301 0.728931V20.1038Z" fill="#88A1A8"/>
<path d="M14.7753 29.6337C14.7753 30.1808 14.3301 30.6246 13.7856 30.6246C13.2385 30.6246 12.7959 30.1807 12.7959 29.6337C12.7959 29.0879 13.2385 28.6453 13.7856 28.6453C14.3301 28.6466 14.7753 29.0879 14.7753 29.6337Z" fill="#3B4D56"/>
<path d="M18.6827 29.6337C18.6827 30.1808 18.2375 30.6246 17.693 30.6246C17.1446 30.6246 16.7021 30.1807 16.7021 29.6337C16.7021 29.0879 17.1447 28.6453 17.693 28.6453C18.2375 28.6466 18.6827 29.0879 18.6827 29.6337Z" fill="#3B4D56"/>
<path d="M22.5855 29.6337C22.5855 30.1808 22.1403 30.6246 21.5958 30.6246C21.0487 30.6246 20.6074 30.1807 20.6074 29.6337C20.6074 29.0879 21.0487 28.6453 21.5958 28.6453C22.1403 28.6466 22.5855 29.0879 22.5855 29.6337Z" fill="#3B4D56"/>
<path d="M26.4895 29.6337C26.4895 30.1808 26.0456 30.6246 25.5011 30.6246C24.9527 30.6246 24.5103 30.1807 24.5103 29.6337C24.5103 29.0879 24.9529 28.6453 25.5011 28.6453C26.0469 28.6466 26.4895 29.0879 26.4895 29.6337Z" fill="#3B4D56"/>
<path d="M31.3379 34.3756C31.3379 35.1794 30.685 35.8337 29.8799 35.8337C29.0748 35.8337 28.4219 35.1794 28.4219 34.3756V29.7899C28.4219 28.9861 29.0748 28.3332 29.8799 28.3332C30.685 28.3332 31.3379 28.9861 31.3379 29.7899V34.3756Z" fill="#3B4D56"/>
</svg>
