<svg width="80" height="46" viewBox="0 0 80 46" fill="none" xmlns="http://www.w3.org/2000/svg">
<path d="M79.6164 4.63437C78.8498 2.78355 77.4079 1.34184 75.5571 0.57504C73.7063 -0.191758 71.6675 -0.191602 69.8168 0.57504L23.9367 19.6151L8.66295 15.0065C7.53737 14.6659 6.32256 14.7356 5.24338 15.1994L0.756821 17.1283C0.385689 17.2882 0.114723 17.6154 0.0292457 18.0098C-0.057482 18.403 0.0512793 18.8143 0.320995 19.1135L9.43944 29.2379C12.1008 32.191 15.8499 33.783 19.6724 33.783C21.439 33.783 23.2226 33.4424 24.9195 32.7392L76.911 11.1683C78.1452 10.6569 79.106 9.69599 79.6164 8.46179C80.1279 7.22729 80.1279 5.86856 79.6164 4.63437Z" fill="#D7DBE0"/>
<path d="M79.4014 5.49131L27.4099 27.0621C25.713 27.7653 23.9294 28.106 22.1628 28.106C18.3404 28.106 14.5912 26.514 11.9299 23.5608L4.63488 15.4609L0.756821 17.1283C0.385689 17.2882 0.114723 17.6154 0.0292457 18.0098C-0.057482 18.403 0.0512793 18.8143 0.320995 19.1135L9.43944 29.2378C12.1008 32.191 15.8499 33.783 19.6724 33.783C21.439 33.783 23.2226 33.4423 24.9195 32.7391L76.911 11.1683C78.1451 10.6568 79.106 9.69597 79.6164 8.46178C80.0416 7.43605 80.0924 6.32781 79.8108 5.27301C79.6736 5.34505 79.5464 5.43131 79.4014 5.49131Z" fill="#45BDF0"/>
<path d="M55.9521 23.8794L39.7825 30.5771L37.2822 24.48L53.4386 17.7878C54.7195 17.2573 56.1875 17.8701 56.7108 19.154L57.3052 20.6125C57.8337 21.8884 57.2279 23.3509 55.9521 23.8794Z" fill="#8A8895"/>
<path d="M68.2589 7.88661C67.9342 7.88661 67.6095 7.74987 67.3848 7.51188C67.1468 7.28717 67.0088 6.96135 67.0088 6.62429C67.0088 6.29957 67.1468 5.97359 67.3848 5.74888C67.834 5.28618 68.6849 5.28618 69.1464 5.74888C69.3843 5.97359 69.5089 6.29941 69.5089 6.62429C69.5089 6.9612 69.3843 7.28717 69.1464 7.51188C68.9218 7.74987 68.5971 7.88661 68.2589 7.88661Z" fill="#5C546A"/>
<path d="M30.1556 23.6633C29.8175 23.6633 29.4928 23.5388 29.2681 23.3008C29.0301 23.0761 28.9055 22.7514 28.9055 22.4132C28.9055 22.0885 29.0301 21.7638 29.2681 21.5256C29.7308 21.0751 30.5682 21.0629 31.0309 21.5378C31.2678 21.7636 31.4056 22.0883 31.4056 22.4132C31.4056 22.7514 31.2676 23.0639 31.0309 23.3008C30.8051 23.5388 30.4804 23.6633 30.1556 23.6633Z" fill="#5C546A"/>
<path d="M26.6801 25.1015C26.3553 25.1015 26.0306 24.9635 25.8047 24.739C25.5678 24.501 25.4299 24.1761 25.4299 23.8514C25.4299 23.5254 25.5679 23.2007 25.8047 22.9638C26.2552 22.5011 27.1048 22.5011 27.5675 22.9638C27.8055 23.2007 27.93 23.5254 27.93 23.8514C27.93 24.1761 27.8055 24.5008 27.5675 24.739C27.3429 24.9759 27.0182 25.1015 26.6801 25.1015Z" fill="#5C546A"/>
<path d="M64.7968 9.31253C64.472 9.31253 64.1461 9.18674 63.9092 8.94999C63.6845 8.72419 63.5466 8.39947 63.5466 8.0624C63.5466 7.73643 63.6846 7.41171 63.9214 7.17481C64.3841 6.72429 65.2215 6.7121 65.6842 7.17481C65.9222 7.41171 66.0467 7.73643 66.0467 8.0624C66.0467 8.38712 65.9222 8.71184 65.6842 8.94999C65.4462 9.18689 65.1337 9.31253 64.7968 9.31253Z" fill="#5C546A"/>
<path d="M59.3689 11.3672C59.0295 10.8898 58.4044 10.7104 57.8709 10.9362L34.7716 20.504C34.5068 20.6138 34.2869 20.8116 34.1502 21.0643L21.8894 43.7339C21.6379 44.1991 21.7062 44.7727 22.0616 45.1659C22.3033 45.4345 22.6427 45.5786 22.9895 45.5786C23.1506 45.5786 23.3129 45.5481 23.4681 45.4834L33.8623 41.1775C34.0356 41.1055 34.1908 40.9956 34.3152 40.8551L59.2812 12.9238C59.6705 12.4891 59.7072 11.8434 59.3689 11.3672Z" fill="#B8BAC0"/>
<path d="M77.2238 1.5672L73.2813 3.19987C72.6441 3.46365 72.3412 4.19482 72.605 4.83332C72.8039 5.31431 73.2704 5.60496 73.76 5.60496C73.9198 5.60496 74.0824 5.57449 74.2386 5.5098L79.0257 3.52725C78.5483 2.76326 77.9359 2.10976 77.2238 1.5672Z" fill="#5C546A"/>
</svg>
