<svg width="153" height="166" viewBox="0 0 153 166" fill="none" xmlns="http://www.w3.org/2000/svg">
<g opacity="0.3">
<g clip-path="url(#clip0_7157_96155)">
<rect width="77.1257" height="77.1257" transform="matrix(0.866025 0.5 -0.866025 0.5 66.9253 0.731201)" fill="#FDE74D"/>
<rect width="77.1257" height="77.1257" transform="matrix(0.866025 0.5 -0.866025 0.5 66.9253 0.731201)" fill="white" fill-opacity="0.08" style="mix-blend-mode:overlay"/>
<rect width="77.1257" height="77.1257" transform="matrix(0.866025 0.5 -0.866025 0.5 66.9253 0.731201)" fill="white" fill-opacity="0.08"/>
</g>
<g clip-path="url(#clip1_7157_96155)">
<rect width="77.1257" height="77.1257" transform="matrix(2.20305e-08 1 -0.866025 0.5 133.719 39.2941)" fill="#DDDBE0" fill-opacity="0.24"/>
<rect width="89.0184" height="95.5598" transform="matrix(2.20305e-08 1 -0.866025 0.5 136.257 34.5852)" fill="#FCDC00"/>
<rect width="77.1257" height="77.1257" transform="matrix(2.20305e-08 1 -0.866025 0.5 133.719 39.2941)" fill="#373737" fill-opacity="0.2" style="mix-blend-mode:overlay"/>
<rect width="77.1257" height="77.1257" transform="matrix(2.20305e-08 1 -0.866025 0.5 133.719 39.2941)" fill="black" fill-opacity="0.16" style="mix-blend-mode:darken"/>
</g>
<rect width="77.1257" height="77.1257" transform="matrix(0.866025 0.5 -2.20305e-08 1 0.135254 39.2941)" fill="#FCDC00"/>
</g>
<g opacity="0.5">
<g clip-path="url(#clip2_7157_96155)">
<rect width="77.1257" height="77.1257" transform="matrix(0.866025 0.5 -0.866025 0.5 77.2544 6.23987)" fill="#FDE74D"/>
<rect width="77.1257" height="77.1257" transform="matrix(0.866025 0.5 -0.866025 0.5 77.2544 6.23987)" fill="white" fill-opacity="0.08" style="mix-blend-mode:overlay"/>
<rect width="77.1257" height="77.1257" transform="matrix(0.866025 0.5 -0.866025 0.5 77.2544 6.23987)" fill="white" fill-opacity="0.08"/>
</g>
<g clip-path="url(#clip3_7157_96155)">
<rect width="77.1257" height="77.1257" transform="matrix(2.20305e-08 1 -0.866025 0.5 144.048 44.8027)" fill="#DDDBE0" fill-opacity="0.24"/>
<rect width="89.0184" height="95.5598" transform="matrix(2.20305e-08 1 -0.866025 0.5 146.586 40.0939)" fill="#FCDC00"/>
<rect width="77.1257" height="77.1257" transform="matrix(2.20305e-08 1 -0.866025 0.5 144.048 44.8027)" fill="#373737" fill-opacity="0.2" style="mix-blend-mode:overlay"/>
<rect width="77.1257" height="77.1257" transform="matrix(2.20305e-08 1 -0.866025 0.5 144.048 44.8027)" fill="black" fill-opacity="0.16" style="mix-blend-mode:darken"/>
</g>
<rect width="77.1257" height="77.1257" transform="matrix(0.866025 0.5 -2.20305e-08 1 10.4634 44.8027)" fill="#FCDC00"/>
</g>
<g clip-path="url(#clip4_7157_96155)">
<rect width="77.1257" height="77.1257" transform="matrix(0.866025 0.5 -0.866025 0.5 86.2061 11.7485)" fill="#FDE74D"/>
<rect width="77.1257" height="77.1257" transform="matrix(0.866025 0.5 -0.866025 0.5 86.2061 11.7485)" fill="white" fill-opacity="0.08" style="mix-blend-mode:overlay"/>
<rect width="77.1257" height="77.1257" transform="matrix(0.866025 0.5 -0.866025 0.5 86.2061 11.7485)" fill="white" fill-opacity="0.08"/>
</g>
<g clip-path="url(#clip5_7157_96155)">
<rect width="77.1257" height="77.1257" transform="matrix(2.20305e-08 1 -0.866025 0.5 152.999 50.3114)" fill="#DDDBE0" fill-opacity="0.24"/>
<rect width="89.0184" height="95.5598" transform="matrix(2.20305e-08 1 -0.866025 0.5 155.537 45.6025)" fill="#FCDC00"/>
<rect width="77.1257" height="77.1257" transform="matrix(2.20305e-08 1 -0.866025 0.5 152.999 50.3114)" fill="#373737" fill-opacity="0.2" style="mix-blend-mode:overlay"/>
<rect width="77.1257" height="77.1257" transform="matrix(2.20305e-08 1 -0.866025 0.5 152.999 50.3114)" fill="black" fill-opacity="0.16" style="mix-blend-mode:darken"/>
</g>
<rect width="77.1257" height="77.1257" transform="matrix(0.866025 0.5 -2.20305e-08 1 19.4146 50.3114)" fill="#FCDC00"/>
<defs>
<clipPath id="clip0_7157_96155">
<rect width="77.1257" height="77.1257" fill="white" transform="matrix(0.866025 0.5 -0.866025 0.5 66.9253 0.731201)"/>
</clipPath>
<clipPath id="clip1_7157_96155">
<rect width="77.1257" height="77.1257" fill="white" transform="matrix(2.20305e-08 1 -0.866025 0.5 133.719 39.2941)"/>
</clipPath>
<clipPath id="clip2_7157_96155">
<rect width="77.1257" height="77.1257" fill="white" transform="matrix(0.866025 0.5 -0.866025 0.5 77.2544 6.23987)"/>
</clipPath>
<clipPath id="clip3_7157_96155">
<rect width="77.1257" height="77.1257" fill="white" transform="matrix(2.20305e-08 1 -0.866025 0.5 144.048 44.8027)"/>
</clipPath>
<clipPath id="clip4_7157_96155">
<rect width="77.1257" height="77.1257" fill="white" transform="matrix(0.866025 0.5 -0.866025 0.5 86.2061 11.7485)"/>
</clipPath>
<clipPath id="clip5_7157_96155">
<rect width="77.1257" height="77.1257" fill="white" transform="matrix(2.20305e-08 1 -0.866025 0.5 152.999 50.3114)"/>
</clipPath>
</defs>
</svg>
