<svg width="46" height="46" viewBox="0 0 46 46" fill="none" xmlns="http://www.w3.org/2000/svg">
<rect x="0.52063" y="0.0739746" width="45" height="45" rx="4" fill="#C85858"/>
<circle cx="37.0831" cy="17.5115" r="3.9375" fill="#C85858"/>
<path d="M36.7801 28.138C35.1489 26.1266 31.5208 21.2515 31.5208 18.5131C31.5208 15.1908 34.207 12.4976 37.5208 12.4976C40.8333 12.4976 43.5208 15.1908 43.5208 18.5131C43.5208 21.2515 39.8645 26.1266 38.2614 28.138C37.877 28.6174 37.1645 28.6174 36.7801 28.138ZM37.5208 20.5183C38.6239 20.5183 39.5208 19.6191 39.5208 18.5131C39.5208 17.4071 38.6239 16.5079 37.5208 16.5079C36.4176 16.5079 35.5208 17.4071 35.5208 18.5131C35.5208 19.6191 36.4176 20.5183 37.5208 20.5183Z" fill="#FBE39F"/>
<circle cx="31.4549" cy="28.9381" r="1.125" transform="rotate(-15 31.4549 28.9381)" fill="white"/>
<circle cx="37.5207" cy="32.12" r="1.125" transform="rotate(-15 37.5207 32.12)" fill="white"/>
<path d="M9.5092 13.5187C5.93812 11.9889 5.53734 11.8495 4.57543 11.8033C3.84559 11.7682 3.2746 12.022 2.9956 12.5053C2.62143 13.1535 2.83963 13.9212 3.66165 14.8488C4.12706 15.374 4.45702 15.6397 7.12985 17.6406C8.43606 18.6184 9.51744 19.4687 9.53297 19.5301C9.57348 19.6901 10.2982 27.9037 10.2749 27.944L10.4376 29.8033L10.6004 31.6625L11.9162 32.5689C12.6399 33.0674 13.248 33.4474 13.2676 33.4134C13.2873 33.3794 13.711 30.9529 14.2093 28.021C14.7076 25.0891 15.13 22.6649 15.148 22.6337C15.1715 22.593 23.8084 26.4851 24.3035 26.7596C24.3502 26.7855 24.6371 29.9128 24.6695 30.7486C24.6721 30.815 24.913 30.9929 25.3057 31.2182L25.9377 31.581L28.4614 27.2085L30.9851 22.8359L30.3455 22.4741L29.7059 22.1123L27.9027 22.9834C26.911 23.4626 26.0605 23.8421 26.0128 23.8267C25.8251 23.7664 17.811 18.0204 17.8413 17.9679C17.8591 17.9371 19.7469 16.3592 22.0364 14.4616C24.3259 12.5639 26.2154 10.9832 26.2351 10.9491C26.2548 10.9149 25.6217 10.578 24.8283 10.2004L23.3856 9.51387L21.69 10.3045L19.9945 11.0951C19.9712 11.1355 12.5056 14.6105 12.3468 14.6554C12.2859 14.6727 11.009 14.1612 9.5092 13.5187Z" fill="white"/>
</svg>
