<svg width="46" height="46" viewBox="0 0 46 46" fill="none" xmlns="http://www.w3.org/2000/svg">
<rect x="0.622559" y="0.00390625" width="45" height="45" rx="4" fill="#3F67CA"/>
<line x1="14.3282" y1="8.94507" x2="14.3282" y2="10.651" stroke="white" stroke-width="3" stroke-linecap="square"/>
<line x1="32.2107" y1="8.94507" x2="32.2107" y2="10.651" stroke="white" stroke-width="3" stroke-linecap="square"/>
<mask id="path-4-inside-1_6557_19536" fill="white">
<path fill-rule="evenodd" clip-rule="evenodd" d="M8.12256 14.2097C8.12256 12.5529 9.4657 11.2097 11.1226 11.2097H35.2402C36.8971 11.2097 38.2402 12.5529 38.2402 14.2097V26.5082C37.1731 25.7639 35.8753 25.3274 34.4755 25.3274C31.3295 25.3274 28.6985 27.5325 28.0438 30.4814H27.4161C26.3737 30.4829 25.3676 30.0926 24.5916 29.3857C23.8156 30.0926 22.8095 30.4829 21.767 30.4814C20.7246 30.4829 19.7184 30.0926 18.9424 29.3857C18.1664 30.0926 17.1603 30.4829 16.1179 30.4814H14.7056V31.9156H16.1179C17.1096 31.9172 18.084 31.6525 18.9424 31.1483C19.8009 31.6525 20.7753 31.9172 21.767 31.9156C22.7587 31.9172 23.7332 31.6525 24.5916 31.1483C25.45 31.6525 26.4245 31.9172 27.4161 31.9156L27.8873 31.9156C27.8873 33.7591 28.6444 35.4257 29.8647 36.6215H11.1226C9.4657 36.6215 8.12256 35.2783 8.12256 33.6215V14.2097ZM23.1793 19.008H19.3336C19.2139 19.008 19.0961 19.039 18.9913 19.0979C18.8866 19.1569 18.7983 19.2419 18.7348 19.3451L16.2944 23.3106H13.1817C13.1204 23.3105 13.0602 23.3267 13.0069 23.3575C12.9536 23.3883 12.9091 23.4326 12.8778 23.4862C12.8466 23.5397 12.8295 23.6006 12.8285 23.6629C12.8274 23.7251 12.8423 23.7866 12.8718 23.8412L15.6518 29.0164C16.2737 29.1011 16.9065 29.0156 17.485 28.7689C18.0634 28.5222 18.5666 28.1232 18.9424 27.6131C19.271 28.0587 19.6974 28.4204 20.1877 28.6693C20.6781 28.9183 21.2188 29.0477 21.767 29.0473C22.3152 29.0477 22.856 28.9183 23.3463 28.6693C23.8366 28.4204 24.263 28.0587 24.5916 27.6131C24.9595 28.1124 25.4496 28.5053 26.0131 28.7531C26.5767 29.0009 27.1942 29.0949 27.8045 29.0257L28.6773 24.156C28.6958 24.0527 28.6918 23.9464 28.6654 23.8449C28.639 23.7433 28.591 23.6488 28.5247 23.5682C28.4584 23.4875 28.3755 23.4226 28.2818 23.3781C28.1881 23.3336 28.0859 23.3105 27.9825 23.3106H27.4161V19.7251C27.4161 19.535 27.3417 19.3526 27.2093 19.2181C27.0769 19.0836 26.8973 19.008 26.71 19.008H26.0039V16.8568H23.1793V19.008ZM26.0039 23.3106H17.9595L19.7248 20.4422H26.0039V23.3106Z"/>
</mask>
<path fill-rule="evenodd" clip-rule="evenodd" d="M8.12256 14.2097C8.12256 12.5529 9.4657 11.2097 11.1226 11.2097H35.2402C36.8971 11.2097 38.2402 12.5529 38.2402 14.2097V26.5082C37.1731 25.7639 35.8753 25.3274 34.4755 25.3274C31.3295 25.3274 28.6985 27.5325 28.0438 30.4814H27.4161C26.3737 30.4829 25.3676 30.0926 24.5916 29.3857C23.8156 30.0926 22.8095 30.4829 21.767 30.4814C20.7246 30.4829 19.7184 30.0926 18.9424 29.3857C18.1664 30.0926 17.1603 30.4829 16.1179 30.4814H14.7056V31.9156H16.1179C17.1096 31.9172 18.084 31.6525 18.9424 31.1483C19.8009 31.6525 20.7753 31.9172 21.767 31.9156C22.7587 31.9172 23.7332 31.6525 24.5916 31.1483C25.45 31.6525 26.4245 31.9172 27.4161 31.9156L27.8873 31.9156C27.8873 33.7591 28.6444 35.4257 29.8647 36.6215H11.1226C9.4657 36.6215 8.12256 35.2783 8.12256 33.6215V14.2097ZM23.1793 19.008H19.3336C19.2139 19.008 19.0961 19.039 18.9913 19.0979C18.8866 19.1569 18.7983 19.2419 18.7348 19.3451L16.2944 23.3106H13.1817C13.1204 23.3105 13.0602 23.3267 13.0069 23.3575C12.9536 23.3883 12.9091 23.4326 12.8778 23.4862C12.8466 23.5397 12.8295 23.6006 12.8285 23.6629C12.8274 23.7251 12.8423 23.7866 12.8718 23.8412L15.6518 29.0164C16.2737 29.1011 16.9065 29.0156 17.485 28.7689C18.0634 28.5222 18.5666 28.1232 18.9424 27.6131C19.271 28.0587 19.6974 28.4204 20.1877 28.6693C20.6781 28.9183 21.2188 29.0477 21.767 29.0473C22.3152 29.0477 22.856 28.9183 23.3463 28.6693C23.8366 28.4204 24.263 28.0587 24.5916 27.6131C24.9595 28.1124 25.4496 28.5053 26.0131 28.7531C26.5767 29.0009 27.1942 29.0949 27.8045 29.0257L28.6773 24.156C28.6958 24.0527 28.6918 23.9464 28.6654 23.8449C28.639 23.7433 28.591 23.6488 28.5247 23.5682C28.4584 23.4875 28.3755 23.4226 28.2818 23.3781C28.1881 23.3336 28.0859 23.3105 27.9825 23.3106H27.4161V19.7251C27.4161 19.535 27.3417 19.3526 27.2093 19.2181C27.0769 19.0836 26.8973 19.008 26.71 19.008H26.0039V16.8568H23.1793V19.008ZM26.0039 23.3106H17.9595L19.7248 20.4422H26.0039V23.3106Z" fill="white"/>
<path d="M38.2402 26.5082L37.6681 27.3284L39.2402 28.425V26.5082H38.2402ZM28.0438 30.4814V31.4814H28.8462L29.0201 30.6982L28.0438 30.4814ZM27.4161 30.4814V29.4814L27.4147 29.4814L27.4161 30.4814ZM24.5916 29.3857L25.265 28.6465L24.5916 28.033L23.9182 28.6465L24.5916 29.3857ZM21.767 30.4814L21.7684 29.4814L21.7656 29.4814L21.767 30.4814ZM18.9424 29.3857L19.6159 28.6465L18.9424 28.033L18.269 28.6465L18.9424 29.3857ZM16.1179 30.4814L16.1193 29.4814H16.1179V30.4814ZM14.7056 30.4814V29.4814H13.7056V30.4814H14.7056ZM14.7056 31.9156H13.7056V32.9156H14.7056V31.9156ZM16.1179 31.9156L16.1195 30.9156H16.1179V31.9156ZM18.9424 31.1483L19.4489 30.2861L18.9424 29.9886L18.436 30.2861L18.9424 31.1483ZM21.767 31.9156L21.7687 30.9156L21.7654 30.9156L21.767 31.9156ZM24.5916 31.1483L25.098 30.2861L24.5916 29.9886L24.0851 30.2861L24.5916 31.1483ZM27.4161 31.9156L27.4161 30.9156L27.4145 30.9156L27.4161 31.9156ZM27.8873 31.9156H28.8873V30.9156L27.8873 30.9156L27.8873 31.9156ZM29.8647 36.6215V37.6215H32.314L30.5646 35.9072L29.8647 36.6215ZM19.3336 19.008L19.3336 20.008H19.3336V19.008ZM23.1793 19.008V20.008H24.1793V19.008H23.1793ZM18.9913 19.0979L18.5009 18.2265L18.5008 18.2265L18.9913 19.0979ZM18.7348 19.3451L17.8832 18.8209L17.8832 18.821L18.7348 19.3451ZM16.2944 23.3106V24.3106H16.8532L17.1461 23.8347L16.2944 23.3106ZM13.1817 23.3106L13.181 24.3106H13.1817V23.3106ZM13.0069 23.3575L12.5066 22.4916L12.5066 22.4916L13.0069 23.3575ZM12.8778 23.4862L13.7413 23.9906L13.7413 23.9906L12.8778 23.4862ZM12.8718 23.8412L13.7527 23.368L13.7521 23.3669L12.8718 23.8412ZM15.6518 29.0164L14.7709 29.4897L15.012 29.9386L15.517 30.0073L15.6518 29.0164ZM17.485 28.7689L17.0927 27.8491L17.0927 27.8491L17.485 28.7689ZM18.9424 27.6131L19.7473 27.0196L18.9422 25.9277L18.1374 27.0199L18.9424 27.6131ZM20.1877 28.6693L19.735 29.561L19.735 29.561L20.1877 28.6693ZM21.767 29.0473L21.7678 28.0473L21.7662 28.0473L21.767 29.0473ZM23.3463 28.6693L23.799 29.561L23.799 29.561L23.3463 28.6693ZM24.5916 27.6131L25.3966 27.0198L24.5917 25.9278L23.7867 27.0196L24.5916 27.6131ZM26.0131 28.7531L26.4156 27.8377L26.4156 27.8377L26.0131 28.7531ZM27.8045 29.0257L27.9171 30.0194L28.6574 29.9355L28.7888 29.2022L27.8045 29.0257ZM28.6773 24.156L29.6616 24.3324L29.6616 24.3324L28.6773 24.156ZM28.6654 23.8449L27.6975 24.0961L27.6975 24.0961L28.6654 23.8449ZM28.5247 23.5682L29.2973 22.9332L29.2973 22.9332L28.5247 23.5682ZM28.2818 23.3781L28.7109 22.4749L28.2818 23.3781ZM27.9825 23.3106V24.3106H27.9826L27.9825 23.3106ZM27.4161 23.3106H26.4161V24.3106H27.4161V23.3106ZM27.2093 19.2181L26.4968 19.9197L26.4968 19.9197L27.2093 19.2181ZM26.0039 19.008H25.0039V20.008H26.0039V19.008ZM26.0039 16.8568H27.0039V15.8568H26.0039V16.8568ZM23.1793 16.8568V15.8568H22.1793V16.8568H23.1793ZM17.9595 23.3106L17.1079 22.7864L16.1698 24.3106H17.9595V23.3106ZM26.0039 23.3106V24.3106H27.0039V23.3106H26.0039ZM19.7248 20.4422V19.4422H19.1661L18.8732 19.9181L19.7248 20.4422ZM26.0039 20.4422H27.0039V19.4422H26.0039V20.4422ZM11.1226 10.2097C8.91342 10.2097 7.12256 12.0006 7.12256 14.2097H9.12256C9.12256 13.1051 10.018 12.2097 11.1226 12.2097V10.2097ZM35.2402 10.2097H11.1226V12.2097H35.2402V10.2097ZM39.2402 14.2097C39.2402 12.0006 37.4494 10.2097 35.2402 10.2097V12.2097C36.3448 12.2097 37.2402 13.1051 37.2402 14.2097H39.2402ZM39.2402 26.5082V14.2097H37.2402V26.5082H39.2402ZM34.4755 26.3274C35.6641 26.3274 36.7633 26.6973 37.6681 27.3284L38.8123 25.6881C37.5828 24.8304 36.0864 24.3274 34.4755 24.3274V26.3274ZM29.0201 30.6982C29.5753 28.197 31.8082 26.3274 34.4755 26.3274V24.3274C30.8507 24.3274 27.8217 26.8679 27.0676 30.2647L29.0201 30.6982ZM27.4161 31.4814H28.0438V29.4814H27.4161V31.4814ZM23.9182 30.125C24.8773 30.9986 26.1236 31.4832 27.4175 31.4814L27.4147 29.4814C26.6238 29.4825 25.8579 29.1865 25.265 28.6465L23.9182 30.125ZM21.7656 31.4814C23.0596 31.4832 24.3059 30.9986 25.265 30.125L23.9182 28.6465C23.3253 29.1865 22.5594 29.4825 21.7684 29.4814L21.7656 31.4814ZM18.269 30.125C19.2281 30.9986 20.4744 31.4832 21.7684 31.4814L21.7656 29.4814C20.9747 29.4825 20.2088 29.1865 19.6159 28.6465L18.269 30.125ZM16.1165 31.4814C17.4104 31.4832 18.6568 30.9986 19.6159 30.125L18.269 28.6465C17.6761 29.1865 16.9102 29.4825 16.1193 29.4814L16.1165 31.4814ZM14.7056 31.4814H16.1179V29.4814H14.7056V31.4814ZM15.7056 31.9156V30.4814H13.7056V31.9156H15.7056ZM16.1179 30.9156H14.7056V32.9156H16.1179V30.9156ZM18.436 30.2861C17.731 30.7002 16.9318 30.917 16.1195 30.9156L16.1162 32.9156C17.2873 32.9175 18.4371 32.6049 19.4489 32.0106L18.436 30.2861ZM21.7654 30.9156C20.953 30.917 20.1539 30.7002 19.4489 30.2861L18.436 32.0106C19.4478 32.6049 20.5976 32.9175 21.7687 32.9156L21.7654 30.9156ZM24.0851 30.2861C23.3801 30.7002 22.581 30.917 21.7687 30.9156L21.7654 32.9156C22.9364 32.9175 24.0862 32.6049 25.098 32.0106L24.0851 30.2861ZM27.4145 30.9156C26.6022 30.917 25.8031 30.7002 25.098 30.2861L24.0851 32.0106C25.0969 32.6049 26.2467 32.9175 27.4178 32.9156L27.4145 30.9156ZM27.8873 30.9156L27.4161 30.9156L27.4161 32.9156L27.8873 32.9156L27.8873 30.9156ZM30.5646 35.9072C29.5284 34.8918 28.8873 33.4795 28.8873 31.9156H26.8873C26.8873 34.0387 27.7605 35.9596 29.1648 37.3357L30.5646 35.9072ZM11.1226 37.6215H29.8647V35.6215H11.1226V37.6215ZM7.12256 33.6215C7.12256 35.8306 8.91341 37.6215 11.1226 37.6215V35.6215C10.018 35.6215 9.12256 34.7261 9.12256 33.6215H7.12256ZM7.12256 14.2097V33.6215H9.12256V14.2097H7.12256ZM19.3336 20.008H23.1793V18.008H19.3336V20.008ZM19.4818 19.9694C19.4374 19.9944 19.3864 20.008 19.3336 20.008L19.3337 18.008C19.0414 18.008 18.7548 18.0836 18.5009 18.2265L19.4818 19.9694ZM19.5865 19.8692C19.5617 19.9095 19.5261 19.9445 19.4818 19.9694L18.5008 18.2265C18.247 18.3693 18.035 18.5744 17.8832 18.8209L19.5865 19.8692ZM17.1461 23.8347L19.5865 19.8692L17.8832 18.821L15.4428 22.7864L17.1461 23.8347ZM13.1817 24.3106H16.2944V22.3106H13.1817V24.3106ZM13.5072 24.2233C13.4088 24.2802 13.2963 24.3107 13.181 24.3106L13.1825 22.3106C12.9446 22.3104 12.7116 22.3732 12.5066 22.4916L13.5072 24.2233ZM13.7413 23.9906C13.6857 24.0858 13.6055 24.1665 13.5072 24.2233L12.5066 22.4916C12.3017 22.61 12.1326 22.7794 12.0144 22.9818L13.7413 23.9906ZM13.8283 23.68C13.8265 23.7885 13.7969 23.8955 13.7413 23.9906L12.0144 22.9817C11.8962 23.184 11.8326 23.4128 11.8286 23.6457L13.8283 23.68ZM13.7521 23.3669C13.8043 23.4637 13.8302 23.5715 13.8283 23.68L11.8286 23.6457C11.8246 23.8787 11.8804 24.1095 11.9914 24.3155L13.7521 23.3669ZM16.5328 28.5432L13.7527 23.368L11.9908 24.3144L14.7709 29.4897L16.5328 28.5432ZM17.0927 27.8491C16.6799 28.0251 16.2292 28.0858 15.7867 28.0256L15.517 30.0073C16.3181 30.1163 17.1331 30.0061 17.8772 29.6888L17.0927 27.8491ZM18.1374 27.0199C17.8666 27.3874 17.5055 27.673 17.0927 27.8491L17.8772 29.6888C18.6213 29.3714 19.2665 28.859 19.7475 28.2063L18.1374 27.0199ZM20.6405 27.7777C20.2901 27.5998 19.984 27.3407 19.7473 27.0196L18.1376 28.2065C18.558 28.7768 19.1047 29.2409 19.735 29.561L20.6405 27.7777ZM21.7662 28.0473C21.3761 28.0476 20.9907 27.9555 20.6405 27.7777L19.735 29.561C20.3654 29.8811 21.0615 30.0478 21.7678 30.0473L21.7662 28.0473ZM22.8936 27.7777C22.5433 27.9555 22.1579 28.0476 21.7678 28.0473L21.7662 30.0473C22.4725 30.0478 23.1686 29.8811 23.799 29.561L22.8936 27.7777ZM23.7867 27.0196C23.55 27.3407 23.2439 27.5998 22.8936 27.7777L23.799 29.561C24.4294 29.2409 24.976 28.7768 25.3964 28.2065L23.7867 27.0196ZM26.4156 27.8377C26.0133 27.6608 25.6616 27.3795 25.3966 27.0198L23.7866 28.2064C24.2575 28.8452 24.8858 29.3499 25.6106 29.6685L26.4156 27.8377ZM27.692 28.0321C27.2576 28.0813 26.8178 28.0145 26.4156 27.8377L25.6106 29.6685C26.3356 29.9873 27.1308 30.1085 27.9171 30.0194L27.692 28.0321ZM27.693 23.9796L26.8202 28.8493L28.7888 29.2022L29.6616 24.3324L27.693 23.9796ZM27.6975 24.0961C27.6876 24.0579 27.6861 24.0183 27.693 23.9797L29.6616 24.3324C29.7056 24.087 29.696 23.8349 29.6333 23.5936L27.6975 24.0961ZM27.7521 24.2031C27.7257 24.171 27.7074 24.1343 27.6975 24.0961L29.6333 23.5936C29.5706 23.3522 29.4563 23.1267 29.2973 22.9332L27.7521 24.2031ZM27.8527 24.2814C27.8127 24.2624 27.7786 24.2353 27.7521 24.2031L29.2973 22.9332C29.1382 22.7397 28.9383 22.5829 28.7109 22.4749L27.8527 24.2814ZM27.9826 24.3106C27.9371 24.3106 27.8927 24.3004 27.8527 24.2814L28.7109 22.4749C28.4835 22.3668 28.2347 22.3105 27.9823 22.3106L27.9826 24.3106ZM27.4161 24.3106H27.9825V22.3106H27.4161V24.3106ZM26.4161 19.7251V23.3106H28.4161V19.7251H26.4161ZM26.4968 19.9197C26.4434 19.8655 26.4161 19.7952 26.4161 19.7251H28.4161C28.4161 19.2747 28.2401 18.8396 27.9218 18.5164L26.4968 19.9197ZM26.71 20.008C26.6271 20.008 26.5507 19.9744 26.4968 19.9197L27.9218 18.5164C27.6031 18.1928 27.1675 18.008 26.71 18.008V20.008ZM26.0039 20.008H26.71V18.008H26.0039V20.008ZM25.0039 16.8568V19.008H27.0039V16.8568H25.0039ZM23.1793 17.8568H26.0039V15.8568H23.1793V17.8568ZM24.1793 19.008V16.8568H22.1793V19.008H24.1793ZM17.9595 24.3106H26.0039V22.3106H17.9595V24.3106ZM18.8732 19.9181L17.1079 22.7864L18.8111 23.8347L20.5765 20.9664L18.8732 19.9181ZM26.0039 19.4422H19.7248V21.4422H26.0039V19.4422ZM27.0039 23.3106V20.4422H25.0039V23.3106H27.0039Z" fill="white" mask="url(#path-4-inside-1_6557_19536)"/>
<path fill-rule="evenodd" clip-rule="evenodd" d="M40.1225 31.9156C40.1225 35.0344 37.5942 37.5627 34.4754 37.5627C31.3566 37.5627 28.8284 35.0344 28.8284 31.9156C28.8284 28.7968 31.3566 26.2686 34.4754 26.2686C37.5942 26.2686 40.1225 28.7968 40.1225 31.9156ZM33.5343 32.8569L33.5343 28.1511L34.5343 28.1511L34.5343 31.9156H37.299V32.9156H33.5343V32.8569H33.5343Z" fill="#FBE39F"/>
</svg>
