<svg width="46" height="46" viewBox="0 0 46 46" fill="none" xmlns="http://www.w3.org/2000/svg">
<rect x="0.749512" y="0.0739746" width="45" height="45" rx="4" fill="#D36C56"/>
<path fill-rule="evenodd" clip-rule="evenodd" d="M8.24951 14.2798C8.24951 12.6229 9.59266 11.2798 11.2495 11.2798H35.3672C37.024 11.2798 38.3672 12.6229 38.3672 14.2798V26.5783C37.3 25.834 36.0022 25.3974 34.6025 25.3974C30.9639 25.3974 28.0142 28.3471 28.0142 31.9857C28.0142 33.8291 28.7714 35.4958 29.9917 36.6915H11.2495C9.59265 36.6915 8.24951 35.3484 8.24951 33.6915V14.2798ZM17.104 17.017C15.13 15.4643 14.9031 15.3102 14.3101 15.1204C13.8603 14.9764 13.4613 15.0393 13.2062 15.2944C12.8641 15.6365 12.8719 16.1525 13.23 16.8692C13.4327 17.2751 13.5943 17.4961 14.9285 19.1928C15.5806 20.0219 16.1136 20.7338 16.113 20.7748C16.1115 20.8814 15.1898 26.1316 15.1684 26.1529L14.959 27.3411L14.7496 28.5293L15.4196 29.3154C15.788 29.7477 16.1042 30.0868 16.1221 30.0689C16.1401 30.0509 16.8107 28.6066 17.6124 26.8592C18.4141 25.1118 19.0835 23.6687 19.1 23.6522C19.1214 23.6307 23.8634 27.5062 24.1266 27.7605C24.1515 27.7845 23.8074 29.7853 23.6878 30.3126C23.6782 30.3545 23.7989 30.5059 24.0064 30.7123L24.3404 31.0446L26.6479 28.7365L28.9554 26.4283L28.6165 26.0954L28.2777 25.7624L27.0059 26.0047C26.3065 26.138 25.7119 26.2327 25.6847 26.2151C25.5776 26.146 21.5347 21.2171 21.5624 21.1894C21.5787 21.1731 23.0215 20.5037 24.7687 19.7018C26.5158 18.8999 27.9601 18.229 27.9781 18.211C27.9962 18.193 27.6572 17.8766 27.225 17.5081L26.439 16.838L25.2479 17.048L24.0569 17.258C24.0356 17.2794 18.7924 18.2002 18.6857 18.2016C18.6447 18.2022 17.933 17.6692 17.104 17.017Z" fill="white"/>
<line x1="14.4554" y1="9.01514" x2="14.4554" y2="10.721" stroke="white" stroke-width="3" stroke-linecap="square"/>
<line x1="32.3378" y1="9.01514" x2="32.3378" y2="10.721" stroke="white" stroke-width="3" stroke-linecap="square"/>
<path fill-rule="evenodd" clip-rule="evenodd" d="M40.2494 31.9857C40.2494 35.1045 37.7212 37.6327 34.6024 37.6327C31.4836 37.6327 28.9553 35.1045 28.9553 31.9857C28.9553 28.8669 31.4836 26.3386 34.6024 26.3386C37.7212 26.3386 40.2494 28.8669 40.2494 31.9857ZM33.6612 32.927L33.6612 28.2211L34.6612 28.2211L34.6612 31.9857H37.4259V32.9857H33.6612V32.927H33.6612Z" fill="#FBE39F"/>
</svg>
