<svg width="46" height="46" viewBox="0 0 46 46" fill="none" xmlns="http://www.w3.org/2000/svg">
<rect x="0.393921" y="0.00390625" width="45" height="45" rx="4" fill="#489454"/>
<path d="M10.3939 15.3977C10.3939 10.9794 13.9756 7.39771 18.3939 7.39771H35.3939V35.0293H10.3939V15.3977Z" fill="#E6FBE9"/>
<path fill-rule="evenodd" clip-rule="evenodd" d="M10.3939 18.1516C10.3942 18.1526 10.3946 18.1535 10.3949 18.1545L10.3939 18.1507V18.1516ZM10.3939 17.3113C10.9379 15.4205 14.8061 13.3709 17.1497 14.777C16.7566 12.0254 17.5645 7.90125 20.9212 7.34668H18.3939C13.9756 7.34668 10.3939 10.9284 10.3939 15.3467V17.3113ZM22.5534 7.34668C22.5535 7.34669 22.5536 7.3467 22.5536 7.34671L22.5536 7.34668H22.5534Z" fill="#21682D"/>
<path fill-rule="evenodd" clip-rule="evenodd" d="M20.9199 15.4786V16.9804L23.8571 16.9949C27.1098 17.011 26.9507 16.9972 27.7125 17.3291C28.6268 17.7275 29.4301 18.514 29.887 19.4583C29.9609 19.611 30.0353 19.7827 30.0525 19.84L30.0837 19.944H25.5018H20.9199V21.4474V22.9508H25.4988C28.0172 22.9508 30.0777 22.9617 30.0777 22.9749C30.0777 23.0513 29.7882 23.6396 29.6115 23.9225C29.3617 24.3224 28.8626 24.8487 28.4748 25.1213C28.1024 25.3829 27.5319 25.6577 27.0973 25.7844C26.7582 25.8834 26.6775 25.8863 23.8348 25.9005L20.9199 25.9151V27.4282V28.9414L25.1305 33.3012L29.341 37.661L30.368 36.5968L31.395 35.5326L28.2013 32.2253L25.0076 28.918H25.617C27.0258 28.918 28.1123 28.6848 29.1619 28.1571C31.025 27.2204 32.4625 25.4136 32.982 23.3556L33.0842 22.9508H34.2389H35.3936V21.4474V19.944H34.237H33.0803L33.0021 19.6087C32.833 18.8842 32.4402 17.9651 32.027 17.3275L31.8192 17.0067L33.6064 16.9946L35.3936 16.9825V15.4797V13.9768H28.1568H20.9199V15.4786Z" fill="url(#paint0_linear_6557_19503)"/>
<defs>
<linearGradient id="paint0_linear_6557_19503" x1="28.394" y1="12.8466" x2="28.1568" y2="37.661" gradientUnits="userSpaceOnUse">
<stop stop-color="#4D9B59"/>
<stop offset="1" stop-color="#489454"/>
</linearGradient>
</defs>
</svg>
