<svg width="227" height="243" viewBox="0 0 227 243" fill="none" xmlns="http://www.w3.org/2000/svg">
<path d="M196.998 93.4039C218.161 93.4039 233.702 73.2514 222.261 55.4855C200.768 22.0749 163.403 0 120.945 0C54.2828 0 0.251953 54.3585 0.251953 121.379C0.251953 188.399 54.2828 242.824 120.945 242.824C163.403 242.824 200.768 220.749 222.261 187.338C233.702 169.572 218.161 149.42 196.998 149.42H196.271C186.153 149.42 177.225 155.585 170.744 163.407C158.84 177.726 140.917 186.808 120.945 186.808C85.0348 186.808 55.9362 157.507 55.9362 121.445C55.9362 85.3827 85.0348 56.0821 120.945 56.0821C140.917 56.0821 158.84 65.1639 170.744 79.4828C177.225 87.3051 186.153 93.4702 196.271 93.4702H196.998V93.4039Z" fill="white" fill-opacity="0.15"/>
</svg>
