<svg width="910" height="197" viewBox="0 0 910 197" fill="none" xmlns="http://www.w3.org/2000/svg">
<rect x="0.5" y="4.5" width="909" height="191.535" rx="7.5" fill="white"/>
<path d="M46.8119 70.8033V93.2673H41.3399V84.0193H32.8279V93.2673H27.3559V70.8033H32.8279V79.6033H41.3399V70.8033H46.8119ZM50.9542 84.3073C50.9542 82.4727 51.2955 80.862 51.9782 79.4753C52.6822 78.0887 53.6315 77.022 54.8262 76.2753C56.0209 75.5287 57.3542 75.1553 58.8262 75.1553C60.0849 75.1553 61.1835 75.4113 62.1222 75.9233C63.0822 76.4353 63.8182 77.1073 64.3302 77.9393V75.4113H69.8022V93.2673H64.3302V90.7393C63.7969 91.5713 63.0502 92.2433 62.0902 92.7553C61.1515 93.2673 60.0529 93.5233 58.7942 93.5233C57.3435 93.5233 56.0209 93.15 54.8262 92.4033C53.6315 91.6353 52.6822 90.558 51.9782 89.1713C51.2955 87.7633 50.9542 86.142 50.9542 84.3073ZM64.3302 84.3393C64.3302 82.974 63.9462 81.8967 63.1782 81.1073C62.4315 80.318 61.5142 79.9233 60.4262 79.9233C59.3382 79.9233 58.4102 80.318 57.6422 81.1073C56.8955 81.8753 56.5222 82.942 56.5222 84.3073C56.5222 85.6727 56.8955 86.7607 57.6422 87.5713C58.4102 88.3607 59.3382 88.7553 60.4262 88.7553C61.5142 88.7553 62.4315 88.3607 63.1782 87.5713C63.9462 86.782 64.3302 85.7047 64.3302 84.3393ZM83.073 88.1473L86.945 75.4113H92.769L86.433 93.2673H79.681L73.3449 75.4113H79.2009L83.073 88.1473ZM113.184 84.0513C113.184 84.5633 113.152 85.0967 113.088 85.6513H100.704C100.79 86.7607 101.142 87.614 101.76 88.2113C102.4 88.7873 103.179 89.0753 104.096 89.0753C105.462 89.0753 106.411 88.4993 106.944 87.3473H112.768C112.47 88.5207 111.926 89.5767 111.136 90.5153C110.368 91.454 109.398 92.19 108.224 92.7233C107.051 93.2567 105.739 93.5233 104.288 93.5233C102.539 93.5233 100.982 93.15 99.6162 92.4033C98.2509 91.6567 97.1842 90.59 96.4162 89.2033C95.6482 87.8167 95.2642 86.1953 95.2642 84.3393C95.2642 82.4833 95.6375 80.862 96.3842 79.4753C97.1522 78.0887 98.2189 77.022 99.5842 76.2753C100.95 75.5287 102.518 75.1553 104.288 75.1553C106.016 75.1553 107.552 75.518 108.896 76.2433C110.24 76.9687 111.286 78.0033 112.032 79.3473C112.8 80.6913 113.184 82.2593 113.184 84.0513ZM107.584 82.6113C107.584 81.6727 107.264 80.926 106.624 80.3713C105.984 79.8167 105.184 79.5393 104.224 79.5393C103.307 79.5393 102.528 79.806 101.888 80.3393C101.27 80.8727 100.886 81.63 100.736 82.6113H107.584ZM124.324 84.3073C124.324 82.4727 124.666 80.862 125.348 79.4753C126.052 78.0887 127.002 77.022 128.196 76.2753C129.391 75.5287 130.724 75.1553 132.196 75.1553C133.455 75.1553 134.554 75.4113 135.492 75.9233C136.452 76.4353 137.188 77.1073 137.7 77.9393V75.4113H143.172V93.2673H137.7V90.7393C137.167 91.5713 136.42 92.2433 135.46 92.7553C134.522 93.2673 133.423 93.5233 132.164 93.5233C130.714 93.5233 129.391 93.15 128.196 92.4033C127.002 91.6353 126.052 90.558 125.348 89.1713C124.666 87.7633 124.324 86.142 124.324 84.3073ZM137.7 84.3393C137.7 82.974 137.316 81.8967 136.548 81.1073C135.802 80.318 134.884 79.9233 133.796 79.9233C132.708 79.9233 131.78 80.318 131.012 81.1073C130.266 81.8753 129.892 82.942 129.892 84.3073C129.892 85.6727 130.266 86.7607 131.012 87.5713C131.78 88.3607 132.708 88.7553 133.796 88.7553C134.884 88.7553 135.802 88.3607 136.548 87.5713C137.316 86.782 137.7 85.7047 137.7 84.3393ZM161.944 69.5873V93.2673H156.472V69.5873H161.944ZM166.102 84.3073C166.102 82.4727 166.443 80.862 167.126 79.4753C167.83 78.0887 168.779 77.022 169.974 76.2753C171.168 75.5287 172.502 75.1553 173.974 75.1553C175.232 75.1553 176.331 75.4113 177.27 75.9233C178.23 76.4353 178.966 77.1073 179.478 77.9393V75.4113H184.95V93.2673H179.478V90.7393C178.944 91.5713 178.198 92.2433 177.238 92.7553C176.299 93.2673 175.2 93.5233 173.942 93.5233C172.491 93.5233 171.168 93.15 169.974 92.4033C168.779 91.6353 167.83 90.558 167.126 89.1713C166.443 87.7633 166.102 86.142 166.102 84.3073ZM179.478 84.3393C179.478 82.974 179.094 81.8967 178.326 81.1073C177.579 80.318 176.662 79.9233 175.574 79.9233C174.486 79.9233 173.558 80.318 172.79 81.1073C172.043 81.8753 171.67 82.942 171.67 84.3073C171.67 85.6727 172.043 86.7607 172.79 87.5713C173.558 88.3607 174.486 88.7553 175.574 88.7553C176.662 88.7553 177.579 88.3607 178.326 87.5713C179.094 86.782 179.478 85.7047 179.478 84.3393ZM195.66 78.3873C196.3 77.406 197.1 76.638 198.06 76.0833C199.02 75.5073 200.087 75.2193 201.26 75.2193V81.0113H199.756C198.391 81.0113 197.367 81.31 196.684 81.9073C196.002 82.4833 195.66 83.5073 195.66 84.9793V93.2673H190.188V75.4113H195.66V78.3873ZM211.94 75.1553C213.199 75.1553 214.297 75.4113 215.236 75.9233C216.196 76.4353 216.932 77.1073 217.444 77.9393V75.4113H222.916V93.2353C222.916 94.878 222.585 96.3607 221.924 97.6833C221.284 99.0273 220.292 100.094 218.948 100.883C217.625 101.673 215.972 102.067 213.988 102.067C211.343 102.067 209.199 101.438 207.556 100.179C205.913 98.942 204.975 97.2567 204.74 95.1233H210.148C210.319 95.806 210.724 96.3393 211.364 96.7233C212.004 97.1287 212.793 97.3313 213.732 97.3313C214.863 97.3313 215.759 97.0007 216.42 96.3393C217.103 95.6993 217.444 94.6647 217.444 93.2353V90.7073C216.911 91.5393 216.175 92.222 215.236 92.7553C214.297 93.2673 213.199 93.5233 211.94 93.5233C210.468 93.5233 209.135 93.15 207.94 92.4033C206.745 91.6353 205.796 90.558 205.092 89.1713C204.409 87.7633 204.068 86.142 204.068 84.3073C204.068 82.4727 204.409 80.862 205.092 79.4753C205.796 78.0887 206.745 77.022 207.94 76.2753C209.135 75.5287 210.468 75.1553 211.94 75.1553ZM217.444 84.3393C217.444 82.974 217.06 81.8967 216.292 81.1073C215.545 80.318 214.628 79.9233 213.54 79.9233C212.452 79.9233 211.524 80.318 210.756 81.1073C210.009 81.8753 209.636 82.942 209.636 84.3073C209.636 85.6727 210.009 86.7607 210.756 87.5713C211.524 88.3607 212.452 88.7553 213.54 88.7553C214.628 88.7553 215.545 88.3607 216.292 87.5713C217.06 86.782 217.444 85.7047 217.444 84.3393ZM244.987 84.0513C244.987 84.5633 244.955 85.0967 244.891 85.6513H232.507C232.592 86.7607 232.944 87.614 233.563 88.2113C234.203 88.7873 234.981 89.0753 235.899 89.0753C237.264 89.0753 238.213 88.4993 238.747 87.3473H244.571C244.272 88.5207 243.728 89.5767 242.939 90.5153C242.171 91.454 241.2 92.19 240.027 92.7233C238.853 93.2567 237.541 93.5233 236.091 93.5233C234.341 93.5233 232.784 93.15 231.419 92.4033C230.053 91.6567 228.987 90.59 228.219 89.2033C227.451 87.8167 227.067 86.1953 227.067 84.3393C227.067 82.4833 227.44 80.862 228.187 79.4753C228.955 78.0887 230.021 77.022 231.387 76.2753C232.752 75.5287 234.32 75.1553 236.091 75.1553C237.819 75.1553 239.355 75.518 240.699 76.2433C242.043 76.9687 243.088 78.0033 243.835 79.3473C244.603 80.6913 244.987 82.2593 244.987 84.0513ZM239.387 82.6113C239.387 81.6727 239.067 80.926 238.427 80.3713C237.787 79.8167 236.987 79.5393 236.027 79.5393C235.109 79.5393 234.331 79.806 233.691 80.3393C233.072 80.8727 232.688 81.63 232.539 82.6113H239.387ZM256.287 82.0033C256.287 79.7847 256.767 77.8113 257.727 76.0833C258.687 74.334 260.02 72.9793 261.727 72.0193C263.455 71.038 265.407 70.5473 267.583 70.5473C270.249 70.5473 272.532 71.2513 274.431 72.6593C276.329 74.0673 277.599 75.9873 278.239 78.4193H272.223C271.775 77.4807 271.135 76.766 270.303 76.2753C269.492 75.7847 268.564 75.5393 267.519 75.5393C265.833 75.5393 264.468 76.126 263.423 77.2993C262.377 78.4727 261.855 80.0407 261.855 82.0033C261.855 83.966 262.377 85.534 263.423 86.7073C264.468 87.8807 265.833 88.4673 267.519 88.4673C268.564 88.4673 269.492 88.222 270.303 87.7313C271.135 87.2407 271.775 86.526 272.223 85.5873H278.239C277.599 88.0193 276.329 89.9393 274.431 91.3473C272.532 92.734 270.249 93.4273 267.583 93.4273C265.407 93.4273 263.455 92.9473 261.727 91.9873C260.02 91.006 258.687 89.6513 257.727 87.9233C256.767 86.1953 256.287 84.222 256.287 82.0033ZM290.998 93.5233C289.248 93.5233 287.67 93.15 286.262 92.4033C284.875 91.6567 283.776 90.59 282.966 89.2033C282.176 87.8167 281.782 86.1953 281.782 84.3393C281.782 82.5047 282.187 80.894 282.998 79.5073C283.808 78.0993 284.918 77.022 286.326 76.2753C287.734 75.5287 289.312 75.1553 291.062 75.1553C292.811 75.1553 294.39 75.5287 295.798 76.2753C297.206 77.022 298.315 78.0993 299.126 79.5073C299.936 80.894 300.342 82.5047 300.342 84.3393C300.342 86.174 299.926 87.7953 299.094 89.2033C298.283 90.59 297.163 91.6567 295.734 92.4033C294.326 93.15 292.747 93.5233 290.998 93.5233ZM290.998 88.7873C292.043 88.7873 292.928 88.4033 293.654 87.6353C294.4 86.8673 294.774 85.7687 294.774 84.3393C294.774 82.91 294.411 81.8113 293.686 81.0433C292.982 80.2753 292.107 79.8913 291.062 79.8913C289.995 79.8913 289.11 80.2753 288.406 81.0433C287.702 81.79 287.35 82.8887 287.35 84.3393C287.35 85.7687 287.691 86.8673 288.374 87.6353C289.078 88.4033 289.952 88.7873 290.998 88.7873ZM315.405 75.2193C317.495 75.2193 319.159 75.902 320.397 77.2673C321.655 78.6113 322.285 80.4673 322.285 82.8353V93.2673H316.845V83.5713C316.845 82.3767 316.535 81.4487 315.917 80.7873C315.298 80.126 314.466 79.7953 313.421 79.7953C312.375 79.7953 311.543 80.126 310.925 80.7873C310.306 81.4487 309.997 82.3767 309.997 83.5713V93.2673H304.525V75.4113H309.997V77.7793C310.551 76.99 311.298 76.3713 312.237 75.9233C313.175 75.454 314.231 75.2193 315.405 75.2193ZM337.319 88.6273V93.2673H334.535C332.551 93.2673 331.005 92.7873 329.895 91.8273C328.786 90.846 328.231 89.2567 328.231 87.0593V79.9553H326.055V75.4113H328.231V71.0593H333.703V75.4113H337.287V79.9553H333.703V87.1233C333.703 87.6567 333.831 88.0407 334.087 88.2753C334.343 88.51 334.77 88.6273 335.367 88.6273H337.319ZM340.559 84.3073C340.559 82.4727 340.901 80.862 341.583 79.4753C342.287 78.0887 343.237 77.022 344.431 76.2753C345.626 75.5287 346.959 75.1553 348.431 75.1553C349.69 75.1553 350.789 75.4113 351.727 75.9233C352.687 76.4353 353.423 77.1073 353.935 77.9393V75.4113H359.407V93.2673H353.935V90.7393C353.402 91.5713 352.655 92.2433 351.695 92.7553C350.757 93.2673 349.658 93.5233 348.399 93.5233C346.949 93.5233 345.626 93.15 344.431 92.4033C343.237 91.6353 342.287 90.558 341.583 89.1713C340.901 87.7633 340.559 86.142 340.559 84.3073ZM353.935 84.3393C353.935 82.974 353.551 81.8967 352.783 81.1073C352.037 80.318 351.119 79.9233 350.031 79.9233C348.943 79.9233 348.015 80.318 347.247 81.1073C346.501 81.8753 346.127 82.942 346.127 84.3073C346.127 85.6727 346.501 86.7607 347.247 87.5713C348.015 88.3607 348.943 88.7553 350.031 88.7553C351.119 88.7553 352.037 88.3607 352.783 87.5713C353.551 86.782 353.935 85.7047 353.935 84.3393ZM367.398 73.5553C366.438 73.5553 365.649 73.278 365.03 72.7233C364.433 72.1473 364.134 71.4433 364.134 70.6113C364.134 69.758 364.433 69.054 365.03 68.4993C365.649 67.9233 366.438 67.6353 367.398 67.6353C368.337 67.6353 369.105 67.9233 369.702 68.4993C370.321 69.054 370.63 69.758 370.63 70.6113C370.63 71.4433 370.321 72.1473 369.702 72.7233C369.105 73.278 368.337 73.5553 367.398 73.5553ZM370.118 75.4113V93.2673H364.646V75.4113H370.118ZM386.243 75.2193C388.334 75.2193 389.998 75.902 391.235 77.2673C392.494 78.6113 393.123 80.4673 393.123 82.8353V93.2673H387.683V83.5713C387.683 82.3767 387.374 81.4487 386.755 80.7873C386.137 80.126 385.305 79.7953 384.259 79.7953C383.214 79.7953 382.382 80.126 381.763 80.7873C381.145 81.4487 380.835 82.3767 380.835 83.5713V93.2673H375.363V75.4113H380.835V77.7793C381.39 76.99 382.137 76.3713 383.075 75.9233C384.014 75.454 385.07 75.2193 386.243 75.2193ZM415.038 84.0513C415.038 84.5633 415.006 85.0967 414.942 85.6513H402.558C402.643 86.7607 402.995 87.614 403.614 88.2113C404.254 88.7873 405.033 89.0753 405.95 89.0753C407.315 89.0753 408.265 88.4993 408.798 87.3473H414.622C414.323 88.5207 413.779 89.5767 412.99 90.5153C412.222 91.454 411.251 92.19 410.078 92.7233C408.905 93.2567 407.593 93.5233 406.142 93.5233C404.393 93.5233 402.835 93.15 401.47 92.4033C400.105 91.6567 399.038 90.59 398.27 89.2033C397.502 87.8167 397.118 86.1953 397.118 84.3393C397.118 82.4833 397.491 80.862 398.238 79.4753C399.006 78.0887 400.073 77.022 401.438 76.2753C402.803 75.5287 404.371 75.1553 406.142 75.1553C407.87 75.1553 409.406 75.518 410.75 76.2433C412.094 76.9687 413.139 78.0033 413.886 79.3473C414.654 80.6913 415.038 82.2593 415.038 84.0513ZM409.438 82.6113C409.438 81.6727 409.118 80.926 408.478 80.3713C407.838 79.8167 407.038 79.5393 406.078 79.5393C405.161 79.5393 404.382 79.806 403.742 80.3393C403.123 80.8727 402.739 81.63 402.59 82.6113H409.438ZM424.677 78.3873C425.317 77.406 426.117 76.638 427.077 76.0833C428.037 75.5073 429.103 75.2193 430.277 75.2193V81.0113H428.773C427.407 81.0113 426.383 81.31 425.701 81.9073C425.018 82.4833 424.677 83.5073 424.677 84.9793V93.2673H419.205V75.4113H424.677V78.3873ZM441.305 82.0033C441.305 79.7847 441.785 77.8113 442.745 76.0833C443.705 74.334 445.039 72.9793 446.745 72.0193C448.473 71.038 450.425 70.5473 452.601 70.5473C455.268 70.5473 457.551 71.2513 459.449 72.6593C461.348 74.0673 462.617 75.9873 463.257 78.4193H457.241C456.793 77.4807 456.153 76.766 455.321 76.2753C454.511 75.7847 453.583 75.5393 452.537 75.5393C450.852 75.5393 449.487 76.126 448.441 77.2993C447.396 78.4727 446.873 80.0407 446.873 82.0033C446.873 83.966 447.396 85.534 448.441 86.7073C449.487 87.8807 450.852 88.4673 452.537 88.4673C453.583 88.4673 454.511 88.222 455.321 87.7313C456.153 87.2407 456.793 86.526 457.241 85.5873H463.257C462.617 88.0193 461.348 89.9393 459.449 91.3473C457.551 92.734 455.268 93.4273 452.601 93.4273C450.425 93.4273 448.473 92.9473 446.745 91.9873C445.039 91.006 443.705 89.6513 442.745 87.9233C441.785 86.1953 441.305 84.222 441.305 82.0033ZM476.016 93.5233C474.267 93.5233 472.688 93.15 471.28 92.4033C469.894 91.6567 468.795 90.59 467.984 89.2033C467.195 87.8167 466.8 86.1953 466.8 84.3393C466.8 82.5047 467.206 80.894 468.016 79.5073C468.827 78.0993 469.936 77.022 471.344 76.2753C472.752 75.5287 474.331 75.1553 476.08 75.1553C477.83 75.1553 479.408 75.5287 480.816 76.2753C482.224 77.022 483.334 78.0993 484.144 79.5073C484.955 80.894 485.36 82.5047 485.36 84.3393C485.36 86.174 484.944 87.7953 484.112 89.2033C483.302 90.59 482.182 91.6567 480.752 92.4033C479.344 93.15 477.766 93.5233 476.016 93.5233ZM476.016 88.7873C477.062 88.7873 477.947 88.4033 478.672 87.6353C479.419 86.8673 479.792 85.7687 479.792 84.3393C479.792 82.91 479.43 81.8113 478.704 81.0433C478 80.2753 477.126 79.8913 476.08 79.8913C475.014 79.8913 474.128 80.2753 473.424 81.0433C472.72 81.79 472.368 82.8887 472.368 84.3393C472.368 85.7687 472.71 86.8673 473.392 87.6353C474.096 88.4033 474.971 88.7873 476.016 88.7873ZM507.175 75.4113V93.2673H501.703V90.8353C501.149 91.6247 500.391 92.2647 499.431 92.7553C498.493 93.2247 497.447 93.4593 496.295 93.4593C494.93 93.4593 493.725 93.1607 492.679 92.5633C491.634 91.9447 490.823 91.0593 490.247 89.9073C489.671 88.7553 489.383 87.4007 489.383 85.8433V75.4113H494.823V85.1073C494.823 86.302 495.133 87.23 495.751 87.8913C496.37 88.5527 497.202 88.8833 498.247 88.8833C499.314 88.8833 500.157 88.5527 500.775 87.8913C501.394 87.23 501.703 86.302 501.703 85.1073V75.4113H507.175ZM523.266 75.2193C525.357 75.2193 527.021 75.902 528.258 77.2673C529.517 78.6113 530.146 80.4673 530.146 82.8353V93.2673H524.706V83.5713C524.706 82.3767 524.397 81.4487 523.778 80.7873C523.159 80.126 522.327 79.7953 521.282 79.7953C520.237 79.7953 519.405 80.126 518.786 80.7873C518.167 81.4487 517.858 82.3767 517.858 83.5713V93.2673H512.386V75.4113H517.858V77.7793C518.413 76.99 519.159 76.3713 520.098 75.9233C521.037 75.454 522.093 75.2193 523.266 75.2193ZM545.18 88.6273V93.2673H542.396C540.412 93.2673 538.866 92.7873 537.756 91.8273C536.647 90.846 536.092 89.2567 536.092 87.0593V79.9553H533.916V75.4113H536.092V71.0593H541.564V75.4113H545.148V79.9553H541.564V87.1233C541.564 87.6567 541.692 88.0407 541.948 88.2753C542.204 88.51 542.631 88.6273 543.228 88.6273H545.18ZM564.13 69.5553C566.412 69.5553 568.236 70.1527 569.602 71.3473C570.988 72.542 571.682 74.2273 571.682 76.4033C571.682 78.4087 571.02 79.9767 569.698 81.1073C568.396 82.2167 566.668 82.782 564.514 82.8033L564.354 85.2033H559.554L559.394 79.2513H561.314C562.956 79.2513 564.204 79.0487 565.058 78.6433C565.932 78.238 566.37 77.502 566.37 76.4353C566.37 75.6887 566.167 75.102 565.762 74.6753C565.356 74.2487 564.791 74.0353 564.066 74.0353C563.298 74.0353 562.7 74.2593 562.274 74.7073C561.847 75.134 561.634 75.7207 561.634 76.4673H556.482C556.439 75.166 556.706 73.9927 557.282 72.9473C557.879 71.902 558.754 71.0807 559.906 70.4833C561.079 69.8647 562.487 69.5553 564.13 69.5553ZM562.018 93.5233C561.058 93.5233 560.268 93.246 559.65 92.6913C559.052 92.1153 558.754 91.4113 558.754 90.5793C558.754 89.726 559.052 89.0113 559.65 88.4353C560.268 87.8593 561.058 87.5713 562.018 87.5713C562.956 87.5713 563.724 87.8593 564.322 88.4353C564.94 89.0113 565.25 89.726 565.25 90.5793C565.25 91.4113 564.94 92.1153 564.322 92.6913C563.724 93.246 562.956 93.5233 562.018 93.5233Z" fill="#4F4F4F"/>
<path d="M40.8759 132.267H38.1399L29.9079 119.811V132.267H27.1719V115.563H29.9079L38.1399 127.995V115.563H40.8759V132.267ZM50.2048 132.483C48.9568 132.483 47.8288 132.203 46.8208 131.643C45.8128 131.067 45.0208 130.267 44.4448 129.243C43.8688 128.203 43.5808 127.003 43.5808 125.643C43.5808 124.299 43.8768 123.107 44.4688 122.067C45.0608 121.027 45.8688 120.227 46.8928 119.667C47.9168 119.107 49.0608 118.827 50.3248 118.827C51.5888 118.827 52.7328 119.107 53.7568 119.667C54.7808 120.227 55.5888 121.027 56.1808 122.067C56.7728 123.107 57.0688 124.299 57.0688 125.643C57.0688 126.987 56.7648 128.179 56.1568 129.219C55.5488 130.259 54.7168 131.067 53.6608 131.643C52.6208 132.203 51.4688 132.483 50.2048 132.483ZM50.2048 130.107C50.9088 130.107 51.5648 129.939 52.1728 129.603C52.7968 129.267 53.3008 128.763 53.6848 128.091C54.0688 127.419 54.2608 126.603 54.2608 125.643C54.2608 124.683 54.0768 123.875 53.7088 123.219C53.3408 122.547 52.8528 122.043 52.2448 121.707C51.6368 121.371 50.9808 121.203 50.2768 121.203C49.5728 121.203 48.9168 121.371 48.3088 121.707C47.7168 122.043 47.2448 122.547 46.8928 123.219C46.5408 123.875 46.3648 124.683 46.3648 125.643C46.3648 127.067 46.7248 128.171 47.4448 128.955C48.1808 129.723 49.1008 130.107 50.2048 130.107ZM77.5335 119.043L73.4295 132.267H70.5495L67.8855 122.499L65.2215 132.267H62.3415L58.2135 119.043H60.9975L63.7575 129.675L66.5655 119.043H69.4215L72.1095 129.627L74.8455 119.043H77.5335ZM88.5486 130.059H94.1886V132.267H85.8126V115.587H88.5486V130.059ZM102.213 132.483C100.965 132.483 99.8366 132.203 98.8286 131.643C97.8206 131.067 97.0286 130.267 96.4526 129.243C95.8766 128.203 95.5886 127.003 95.5886 125.643C95.5886 124.299 95.8846 123.107 96.4766 122.067C97.0686 121.027 97.8766 120.227 98.9006 119.667C99.9246 119.107 101.069 118.827 102.333 118.827C103.597 118.827 104.741 119.107 105.765 119.667C106.789 120.227 107.597 121.027 108.189 122.067C108.781 123.107 109.077 124.299 109.077 125.643C109.077 126.987 108.773 128.179 108.165 129.219C107.557 130.259 106.725 131.067 105.669 131.643C104.629 132.203 103.477 132.483 102.213 132.483ZM102.213 130.107C102.917 130.107 103.573 129.939 104.181 129.603C104.805 129.267 105.309 128.763 105.693 128.091C106.077 127.419 106.269 126.603 106.269 125.643C106.269 124.683 106.085 123.875 105.717 123.219C105.349 122.547 104.861 122.043 104.253 121.707C103.645 121.371 102.989 121.203 102.285 121.203C101.581 121.203 100.925 121.371 100.317 121.707C99.7246 122.043 99.2526 122.547 98.9006 123.219C98.5486 123.875 98.3726 124.683 98.3726 125.643C98.3726 127.067 98.7326 128.171 99.4526 128.955C100.189 129.723 101.109 130.107 102.213 130.107ZM110.869 125.643C110.869 124.283 111.141 123.091 111.685 122.067C112.245 121.027 113.013 120.227 113.989 119.667C114.965 119.107 116.085 118.827 117.349 118.827C118.949 118.827 120.269 119.211 121.309 119.979C122.365 120.731 123.077 121.811 123.445 123.219H120.493C120.253 122.563 119.869 122.051 119.341 121.683C118.813 121.315 118.149 121.131 117.349 121.131C116.229 121.131 115.333 121.531 114.661 122.331C114.005 123.115 113.677 124.219 113.677 125.643C113.677 127.067 114.005 128.179 114.661 128.979C115.333 129.779 116.229 130.179 117.349 130.179C118.933 130.179 119.981 129.483 120.493 128.091H123.445C123.061 129.435 122.341 130.507 121.285 131.307C120.229 132.091 118.917 132.483 117.349 132.483C116.085 132.483 114.965 132.203 113.989 131.643C113.013 131.067 112.245 130.267 111.685 129.243C111.141 128.203 110.869 127.003 110.869 125.643ZM131.404 125.667L137.5 132.267H133.804L128.908 126.579V132.267H126.172V114.507H128.908V124.827L133.708 119.043H137.5L131.404 125.667ZM157.359 120.555C157.359 121.403 157.159 122.203 156.759 122.955C156.359 123.707 155.719 124.323 154.839 124.803C153.959 125.267 152.831 125.499 151.455 125.499H148.431V132.267H145.695V115.587H151.455C152.735 115.587 153.815 115.811 154.695 116.259C155.591 116.691 156.255 117.283 156.687 118.035C157.135 118.787 157.359 119.627 157.359 120.555ZM151.455 123.267C152.495 123.267 153.271 123.035 153.783 122.571C154.295 122.091 154.551 121.419 154.551 120.555C154.551 118.731 153.519 117.819 151.455 117.819H148.431V123.267H151.455ZM162.705 120.963C163.105 120.291 163.633 119.771 164.289 119.403C164.961 119.019 165.753 118.827 166.665 118.827V121.659H165.969C164.897 121.659 164.081 121.931 163.521 122.475C162.977 123.019 162.705 123.963 162.705 125.307V132.267H159.969V119.043H162.705V120.963ZM170.572 117.291C170.076 117.291 169.66 117.123 169.324 116.787C168.988 116.451 168.82 116.035 168.82 115.539C168.82 115.043 168.988 114.627 169.324 114.291C169.66 113.955 170.076 113.787 170.572 113.787C171.052 113.787 171.46 113.955 171.796 114.291C172.132 114.627 172.3 115.043 172.3 115.539C172.3 116.035 172.132 116.451 171.796 116.787C171.46 117.123 171.052 117.291 170.572 117.291ZM171.916 119.043V132.267H169.18V119.043H171.916ZM174.596 125.643C174.596 124.283 174.868 123.091 175.412 122.067C175.972 121.027 176.74 120.227 177.716 119.667C178.692 119.107 179.812 118.827 181.076 118.827C182.676 118.827 183.996 119.211 185.036 119.979C186.092 120.731 186.804 121.811 187.172 123.219H184.22C183.98 122.563 183.596 122.051 183.068 121.683C182.54 121.315 181.876 121.131 181.076 121.131C179.956 121.131 179.06 121.531 178.388 122.331C177.732 123.115 177.404 124.219 177.404 125.643C177.404 127.067 177.732 128.179 178.388 128.979C179.06 129.779 179.956 130.179 181.076 130.179C182.66 130.179 183.708 129.483 184.22 128.091H187.172C186.788 129.435 186.068 130.507 185.012 131.307C183.956 132.091 182.644 132.483 181.076 132.483C179.812 132.483 178.692 132.203 177.716 131.643C176.74 131.067 175.972 130.267 175.412 129.243C174.868 128.203 174.596 127.003 174.596 125.643ZM202.019 125.331C202.019 125.827 201.987 126.275 201.923 126.675H191.819C191.899 127.731 192.291 128.579 192.995 129.219C193.699 129.859 194.563 130.179 195.587 130.179C197.059 130.179 198.099 129.563 198.707 128.331H201.659C201.259 129.547 200.531 130.547 199.475 131.331C198.435 132.099 197.139 132.483 195.587 132.483C194.323 132.483 193.187 132.203 192.179 131.643C191.187 131.067 190.403 130.267 189.827 129.243C189.267 128.203 188.987 127.003 188.987 125.643C188.987 124.283 189.259 123.091 189.803 122.067C190.363 121.027 191.139 120.227 192.131 119.667C193.139 119.107 194.291 118.827 195.587 118.827C196.835 118.827 197.947 119.099 198.923 119.643C199.899 120.187 200.659 120.955 201.203 121.947C201.747 122.923 202.019 124.051 202.019 125.331ZM199.163 124.467C199.147 123.459 198.787 122.651 198.083 122.043C197.379 121.435 196.507 121.131 195.467 121.131C194.523 121.131 193.715 121.435 193.043 122.043C192.371 122.635 191.971 123.443 191.843 124.467H199.163ZM209.511 132.483C208.471 132.483 207.535 132.299 206.703 131.931C205.887 131.547 205.239 131.035 204.759 130.395C204.279 129.739 204.023 129.011 203.991 128.211H206.823C206.871 128.771 207.135 129.243 207.615 129.627C208.111 129.995 208.727 130.179 209.463 130.179C210.231 130.179 210.823 130.035 211.239 129.747C211.671 129.443 211.887 129.059 211.887 128.595C211.887 128.099 211.647 127.731 211.167 127.491C210.703 127.251 209.959 126.987 208.935 126.699C207.943 126.427 207.135 126.163 206.511 125.907C205.887 125.651 205.343 125.259 204.879 124.731C204.431 124.203 204.207 123.507 204.207 122.643C204.207 121.939 204.415 121.299 204.831 120.723C205.247 120.131 205.839 119.667 206.607 119.331C207.391 118.995 208.287 118.827 209.295 118.827C210.799 118.827 212.007 119.211 212.919 119.979C213.847 120.731 214.343 121.763 214.407 123.075H211.671C211.623 122.483 211.383 122.011 210.951 121.659C210.519 121.307 209.935 121.131 209.199 121.131C208.479 121.131 207.927 121.267 207.543 121.539C207.159 121.811 206.967 122.171 206.967 122.619C206.967 122.971 207.095 123.267 207.351 123.507C207.607 123.747 207.919 123.939 208.287 124.083C208.655 124.211 209.199 124.379 209.919 124.587C210.879 124.843 211.663 125.107 212.271 125.379C212.895 125.635 213.431 126.019 213.879 126.531C214.327 127.043 214.559 127.723 214.575 128.571C214.575 129.323 214.367 129.995 213.951 130.587C213.535 131.179 212.943 131.643 212.175 131.979C211.423 132.315 210.535 132.483 209.511 132.483ZM236.654 132.267L234.59 130.203C233.79 131.003 232.918 131.603 231.974 132.003C231.03 132.387 229.974 132.579 228.806 132.579C227.622 132.579 226.574 132.371 225.662 131.955C224.75 131.539 224.046 130.947 223.55 130.179C223.054 129.395 222.806 128.491 222.806 127.467C222.806 126.315 223.134 125.291 223.79 124.395C224.446 123.483 225.422 122.763 226.718 122.235C226.254 121.675 225.926 121.155 225.734 120.675C225.542 120.179 225.446 119.635 225.446 119.043C225.446 118.307 225.63 117.651 225.998 117.075C226.382 116.499 226.926 116.043 227.63 115.707C228.334 115.371 229.15 115.203 230.078 115.203C231.022 115.203 231.822 115.387 232.478 115.755C233.15 116.107 233.646 116.595 233.966 117.219C234.302 117.843 234.438 118.539 234.374 119.307H231.638C231.654 118.715 231.51 118.259 231.206 117.939C230.902 117.603 230.486 117.435 229.958 117.435C229.43 117.435 228.998 117.595 228.662 117.915C228.342 118.219 228.182 118.595 228.182 119.043C228.182 119.475 228.302 119.907 228.542 120.339C228.798 120.755 229.238 121.299 229.862 121.971L234.278 126.363L235.982 123.555H238.934L236.774 127.251L236.174 128.235L240.23 132.267H236.654ZM228.806 130.251C230.31 130.251 231.638 129.635 232.79 128.403L228.374 123.963C226.486 124.715 225.542 125.851 225.542 127.371C225.542 128.187 225.846 128.875 226.454 129.435C227.062 129.979 227.846 130.251 228.806 130.251ZM257.186 123.699C258.082 123.859 258.842 124.331 259.466 125.115C260.09 125.899 260.402 126.787 260.402 127.779C260.402 128.627 260.178 129.395 259.73 130.083C259.298 130.755 258.666 131.291 257.834 131.691C257.002 132.075 256.034 132.267 254.93 132.267H248.258V115.587H254.618C255.754 115.587 256.73 115.779 257.546 116.163C258.362 116.547 258.978 117.067 259.394 117.723C259.81 118.363 260.018 119.083 260.018 119.883C260.018 120.843 259.762 121.643 259.25 122.283C258.738 122.923 258.05 123.395 257.186 123.699ZM250.994 122.595H254.378C255.274 122.595 255.97 122.395 256.466 121.995C256.978 121.579 257.234 120.987 257.234 120.219C257.234 119.467 256.978 118.883 256.466 118.467C255.97 118.035 255.274 117.819 254.378 117.819H250.994V122.595ZM254.69 130.035C255.618 130.035 256.346 129.811 256.874 129.363C257.402 128.915 257.666 128.291 257.666 127.491C257.666 126.675 257.386 126.027 256.826 125.547C256.266 125.067 255.522 124.827 254.594 124.827H250.994V130.035H254.69ZM269.111 132.483C267.863 132.483 266.735 132.203 265.727 131.643C264.719 131.067 263.927 130.267 263.351 129.243C262.775 128.203 262.487 127.003 262.487 125.643C262.487 124.299 262.783 123.107 263.375 122.067C263.967 121.027 264.775 120.227 265.799 119.667C266.823 119.107 267.967 118.827 269.231 118.827C270.495 118.827 271.639 119.107 272.663 119.667C273.687 120.227 274.495 121.027 275.087 122.067C275.679 123.107 275.975 124.299 275.975 125.643C275.975 126.987 275.671 128.179 275.063 129.219C274.455 130.259 273.623 131.067 272.567 131.643C271.527 132.203 270.375 132.483 269.111 132.483ZM269.111 130.107C269.815 130.107 270.471 129.939 271.079 129.603C271.703 129.267 272.207 128.763 272.591 128.091C272.975 127.419 273.167 126.603 273.167 125.643C273.167 124.683 272.983 123.875 272.615 123.219C272.247 122.547 271.759 122.043 271.151 121.707C270.543 121.371 269.887 121.203 269.183 121.203C268.479 121.203 267.823 121.371 267.215 121.707C266.623 122.043 266.151 122.547 265.799 123.219C265.447 123.875 265.271 124.683 265.271 125.643C265.271 127.067 265.631 128.171 266.351 128.955C267.087 129.723 268.007 130.107 269.111 130.107ZM284.416 132.483C283.168 132.483 282.04 132.203 281.032 131.643C280.024 131.067 279.232 130.267 278.656 129.243C278.08 128.203 277.792 127.003 277.792 125.643C277.792 124.299 278.088 123.107 278.68 122.067C279.272 121.027 280.08 120.227 281.104 119.667C282.128 119.107 283.272 118.827 284.536 118.827C285.8 118.827 286.944 119.107 287.968 119.667C288.992 120.227 289.8 121.027 290.392 122.067C290.984 123.107 291.28 124.299 291.28 125.643C291.28 126.987 290.976 128.179 290.368 129.219C289.76 130.259 288.928 131.067 287.872 131.643C286.832 132.203 285.68 132.483 284.416 132.483ZM284.416 130.107C285.12 130.107 285.776 129.939 286.384 129.603C287.008 129.267 287.512 128.763 287.896 128.091C288.28 127.419 288.472 126.603 288.472 125.643C288.472 124.683 288.288 123.875 287.92 123.219C287.552 122.547 287.064 122.043 286.456 121.707C285.848 121.371 285.192 121.203 284.488 121.203C283.784 121.203 283.128 121.371 282.52 121.707C281.928 122.043 281.456 122.547 281.104 123.219C280.752 123.875 280.576 124.683 280.576 125.643C280.576 127.067 280.936 128.171 281.656 128.955C282.392 129.723 283.312 130.107 284.416 130.107ZM299.216 125.667L305.312 132.267H301.616L296.72 126.579V132.267H293.984V114.507H296.72V124.827L301.52 119.043H305.312L299.216 125.667ZM316.244 130.059H321.884V132.267H313.508V115.587H316.244V130.059ZM323.26 125.595C323.26 124.267 323.532 123.091 324.076 122.067C324.636 121.043 325.388 120.251 326.332 119.691C327.292 119.115 328.348 118.827 329.5 118.827C330.54 118.827 331.444 119.035 332.212 119.451C332.996 119.851 333.62 120.355 334.084 120.963V119.043H336.844V132.267H334.084V130.299C333.62 130.923 332.988 131.443 332.188 131.859C331.388 132.275 330.476 132.483 329.452 132.483C328.316 132.483 327.276 132.195 326.332 131.619C325.388 131.027 324.636 130.211 324.076 129.171C323.532 128.115 323.26 126.923 323.26 125.595ZM334.084 125.643C334.084 124.731 333.892 123.939 333.508 123.267C333.14 122.595 332.652 122.083 332.044 121.731C331.436 121.379 330.78 121.203 330.076 121.203C329.372 121.203 328.716 121.379 328.108 121.731C327.5 122.067 327.004 122.571 326.62 123.243C326.252 123.899 326.068 124.683 326.068 125.595C326.068 126.507 326.252 127.307 326.62 127.995C327.004 128.683 327.5 129.211 328.108 129.579C328.732 129.931 329.388 130.107 330.076 130.107C330.78 130.107 331.436 129.931 332.044 129.579C332.652 129.227 333.14 128.715 333.508 128.043C333.892 127.355 334.084 126.555 334.084 125.643ZM343.63 121.275V128.595C343.63 129.091 343.742 129.451 343.966 129.675C344.206 129.883 344.606 129.987 345.166 129.987H346.846V132.267H344.686C343.454 132.267 342.51 131.979 341.854 131.403C341.198 130.827 340.87 129.891 340.87 128.595V121.275H339.31V119.043H340.87V115.755H343.63V119.043H346.846V121.275H343.63ZM361.487 125.331C361.487 125.827 361.455 126.275 361.391 126.675H351.287C351.367 127.731 351.759 128.579 352.463 129.219C353.167 129.859 354.031 130.179 355.055 130.179C356.527 130.179 357.567 129.563 358.175 128.331H361.127C360.727 129.547 359.999 130.547 358.943 131.331C357.903 132.099 356.607 132.483 355.055 132.483C353.791 132.483 352.655 132.203 351.647 131.643C350.655 131.067 349.871 130.267 349.295 129.243C348.735 128.203 348.455 127.003 348.455 125.643C348.455 124.283 348.727 123.091 349.271 122.067C349.831 121.027 350.607 120.227 351.599 119.667C352.607 119.107 353.759 118.827 355.055 118.827C356.303 118.827 357.415 119.099 358.391 119.643C359.367 120.187 360.127 120.955 360.671 121.947C361.215 122.923 361.487 124.051 361.487 125.331ZM358.631 124.467C358.615 123.459 358.255 122.651 357.551 122.043C356.847 121.435 355.975 121.131 354.935 121.131C353.991 121.131 353.183 121.435 352.511 122.043C351.839 122.635 351.439 123.443 351.311 124.467H358.631ZM366.916 120.963C367.316 120.291 367.844 119.771 368.5 119.403C369.172 119.019 369.964 118.827 370.876 118.827V121.659H370.18C369.108 121.659 368.292 121.931 367.732 122.475C367.188 123.019 366.916 123.963 366.916 125.307V132.267H364.18V119.043H366.916V120.963ZM376.823 115.587L376.511 127.227H374.231L373.919 115.587H376.823ZM375.455 132.435C374.959 132.435 374.543 132.267 374.207 131.931C373.871 131.595 373.703 131.179 373.703 130.683C373.703 130.187 373.871 129.771 374.207 129.435C374.543 129.099 374.959 128.931 375.455 128.931C375.935 128.931 376.343 129.099 376.679 129.435C377.015 129.771 377.183 130.187 377.183 130.683C377.183 131.179 377.015 131.595 376.679 131.931C376.343 132.267 375.935 132.435 375.455 132.435Z" fill="#DA9A3B"/>
<rect x="597.372" y="23" width="26.567" height="161.063" rx="4.13265" fill="#FFFCF3"/>
<rect x="662.129" y="23.4717" width="27.3973" height="161.063" rx="4.13265" fill="#FFFCF3"/>
<rect x="727.716" y="23.4717" width="26.567" height="161.063" rx="4.13265" fill="#FFFCF3"/>
<rect x="792.474" y="23.4717" width="27.3973" height="161.063" rx="4.13265" fill="#FFFCF3"/>
<rect x="858.061" y="23.4717" width="26.567" height="161.063" rx="4.13265" fill="#FFFCF3"/>
<path d="M873.226 97.8598L808.654 136.603L740.465 51.3674L624.234 92.6939" stroke="url(#paint0_linear_2068_114047)" stroke-width="2.06633" stroke-linecap="round" stroke-linejoin="round"/>
<circle cx="739.948" cy="52.4006" r="6.19898" fill="#E35D64"/>
<circle cx="808.654" cy="134.021" r="6.19898" fill="#6ED2B0"/>
<rect x="611.32" y="82.8789" width="20.6633" height="20.6633" rx="10.3316" fill="#FFFBEE"/>
<path d="M618.992 91.1726C618.83 89.525 619.142 86.8311 621.949 87.0242C622.802 87.0831 624.473 87.9952 624.332 91.1726" stroke="#DA9A3B" stroke-width="1.03236" stroke-linecap="round"/>
<mask id="path-14-inside-1_2068_114047" fill="white">
<path fill-rule="evenodd" clip-rule="evenodd" d="M616.53 92.2062C616.53 91.636 616.992 91.1738 617.562 91.1738H625.74C626.31 91.1738 626.773 91.636 626.773 92.2062V98.3738C626.773 98.9439 626.31 99.4061 625.74 99.4061H617.562C616.992 99.4061 616.53 98.9439 616.53 98.3738V92.2062ZM622.084 96.5899C622.457 96.4237 622.716 96.0502 622.716 95.616C622.716 95.0273 622.239 94.5501 621.65 94.5501C621.062 94.5501 620.584 95.0273 620.584 95.616C620.584 96.0492 620.843 96.422 621.214 96.5888V98.3551C621.214 98.3836 621.237 98.4067 621.266 98.4067H622.033C622.061 98.4067 622.084 98.3836 622.084 98.3551V96.5899Z"/>
</mask>
<path fill-rule="evenodd" clip-rule="evenodd" d="M616.53 92.2062C616.53 91.636 616.992 91.1738 617.562 91.1738H625.74C626.31 91.1738 626.773 91.636 626.773 92.2062V98.3738C626.773 98.9439 626.31 99.4061 625.74 99.4061H617.562C616.992 99.4061 616.53 98.9439 616.53 98.3738V92.2062ZM622.084 96.5899C622.457 96.4237 622.716 96.0502 622.716 95.616C622.716 95.0273 622.239 94.5501 621.65 94.5501C621.062 94.5501 620.584 95.0273 620.584 95.616C620.584 96.0492 620.843 96.422 621.214 96.5888V98.3551C621.214 98.3836 621.237 98.4067 621.266 98.4067H622.033C622.061 98.4067 622.084 98.3836 622.084 98.3551V96.5899Z" fill="#DA9A3B"/>
<path d="M622.084 96.5899L621.664 95.6471L621.052 95.9201V96.5899H622.084ZM621.214 96.5888H622.246V95.9209L621.637 95.6471L621.214 96.5888ZM617.562 90.1415C616.422 90.1415 615.497 91.0659 615.497 92.2062H617.562V92.2062V90.1415ZM625.74 90.1415H617.562V92.2062H625.74V90.1415ZM627.805 92.2062C627.805 91.0659 626.881 90.1415 625.74 90.1415V92.2062H625.74H627.805ZM627.805 98.3738V92.2062H625.74V98.3738H627.805ZM625.74 100.438C626.881 100.438 627.805 99.5141 627.805 98.3738H625.74V100.438ZM617.562 100.438H625.74V98.3738H617.562V100.438ZM615.497 98.3738C615.497 99.5141 616.422 100.438 617.562 100.438V98.3738L617.562 98.3738H615.497ZM615.497 92.2062V98.3738H617.562V92.2062H615.497ZM621.684 95.616C621.684 95.6212 621.683 95.6243 621.683 95.6262C621.682 95.6285 621.681 95.631 621.679 95.6338C621.675 95.6401 621.669 95.6448 621.664 95.6471L622.505 97.5327C623.236 97.2065 623.749 96.4723 623.749 95.616H621.684ZM621.65 95.5824C621.657 95.5824 621.661 95.5835 621.663 95.5846C621.666 95.586 621.67 95.5885 621.674 95.5922C621.678 95.596 621.68 95.6 621.682 95.6032C621.683 95.6058 621.684 95.6094 621.684 95.616H623.749C623.749 94.4571 622.809 93.5177 621.65 93.5177V95.5824ZM621.617 95.616C621.617 95.6094 621.618 95.6058 621.619 95.6032C621.62 95.6 621.623 95.596 621.627 95.5922C621.63 95.5885 621.634 95.586 621.638 95.5846C621.64 95.5835 621.644 95.5824 621.65 95.5824V93.5177C620.492 93.5177 619.552 94.4571 619.552 95.616H621.617ZM621.637 95.6471C621.632 95.6447 621.626 95.64 621.622 95.6337C621.62 95.631 621.619 95.6284 621.618 95.6262C621.618 95.6243 621.617 95.6211 621.617 95.616H619.552C619.552 96.4703 620.063 97.2032 620.791 97.5304L621.637 95.6471ZM620.182 96.5888V98.3551H622.246V96.5888H620.182ZM620.182 98.3551C620.182 98.9537 620.667 99.4391 621.266 99.4391V97.3743C621.807 97.3743 622.246 97.8134 622.246 98.3551H620.182ZM621.266 99.4391H622.033V97.3743H621.266V99.4391ZM622.033 99.4391C622.631 99.4391 623.117 98.9537 623.117 98.3551H621.052C621.052 97.8134 621.491 97.3743 622.033 97.3743V99.4391ZM623.117 98.3551V96.5899H621.052V98.3551H623.117Z" fill="#DA9A3B" mask="url(#path-14-inside-1_2068_114047)"/>
<rect x="611.32" y="82.8789" width="20.6633" height="20.6633" rx="10.3316" stroke="#F1BB1A" stroke-width="1.03316"/>
<path d="M743.462 53.4028L740.367 50.1782C740.138 49.9406 739.758 49.9406 739.53 50.1782L736.435 53.4028" stroke="white" stroke-width="1.03316" stroke-linecap="round" stroke-linejoin="round"/>
<path d="M805.556 132.859L808.47 135.895C808.698 136.132 809.078 136.132 809.306 135.895L812.22 132.859" stroke="white" stroke-width="1.03316" stroke-linecap="round" stroke-linejoin="round"/>
<g filter="url(#filter0_d_2068_114047)">
<path d="M777.358 141.95C777.682 141.626 778.208 141.626 778.532 141.95L782.926 146.345H772.964L777.358 141.95Z" fill="white"/>
<rect x="717.482" y="146.344" width="120.925" height="37.2835" rx="4.98132" fill="white"/>
<path d="M733.75 156.2V161.986H732.995V156.2H733.75ZM736.889 158.059H735.935V161.986H735.179V158.059H734.59V157.437H735.179V157.113C735.179 156.604 735.309 156.233 735.569 156C735.835 155.762 736.258 155.643 736.84 155.643V156.274C736.508 156.274 736.272 156.341 736.134 156.474C736.001 156.601 735.935 156.814 735.935 157.113V157.437H736.889V158.059ZM740.905 158.059V160.741C740.905 160.962 740.952 161.12 741.046 161.214C741.14 161.303 741.304 161.347 741.536 161.347H742.092V161.986H741.412C740.991 161.986 740.676 161.889 740.465 161.696C740.255 161.502 740.15 161.184 740.15 160.741V158.059H739.56V157.437H740.15V156.291H740.905V157.437H742.092V158.059H740.905ZM745.266 157.354C745.609 157.354 745.919 157.428 746.196 157.578C746.473 157.722 746.689 157.94 746.843 158.234C747.004 158.527 747.084 158.884 747.084 159.305V161.986H746.337V159.413C746.337 158.959 746.224 158.613 745.997 158.375C745.77 158.131 745.46 158.01 745.067 158.01C744.668 158.01 744.35 158.134 744.112 158.383C743.88 158.632 743.763 158.995 743.763 159.471V161.986H743.008V155.843H743.763V158.084C743.913 157.852 744.118 157.672 744.378 157.545C744.643 157.417 744.94 157.354 745.266 157.354ZM752.469 159.537C752.469 159.681 752.461 159.833 752.445 159.994H748.808C748.836 160.442 748.988 160.794 749.265 161.048C749.547 161.297 749.887 161.422 750.286 161.422C750.613 161.422 750.884 161.347 751.1 161.198C751.321 161.043 751.476 160.838 751.565 160.583H752.378C752.256 161.021 752.013 161.378 751.648 161.654C751.282 161.925 750.828 162.061 750.286 162.061C749.854 162.061 749.467 161.964 749.124 161.77C748.786 161.577 748.52 161.303 748.327 160.949C748.133 160.589 748.036 160.174 748.036 159.703C748.036 159.233 748.13 158.82 748.318 158.466C748.507 158.112 748.769 157.841 749.107 157.653C749.45 157.459 749.843 157.362 750.286 157.362C750.718 157.362 751.1 157.456 751.432 157.644C751.764 157.832 752.018 158.093 752.195 158.425C752.378 158.751 752.469 159.122 752.469 159.537ZM751.689 159.379C751.689 159.092 751.625 158.845 751.498 158.641C751.371 158.43 751.196 158.272 750.975 158.167C750.759 158.057 750.518 158.001 750.253 158.001C749.871 158.001 749.544 158.123 749.273 158.367C749.007 158.61 748.855 158.948 748.816 159.379H751.689ZM756.436 158.275C756.585 158.015 756.806 157.799 757.1 157.628C757.399 157.451 757.745 157.362 758.138 157.362C758.542 157.362 758.907 157.459 759.233 157.653C759.566 157.846 759.826 158.12 760.014 158.474C760.202 158.823 760.296 159.23 760.296 159.695C760.296 160.154 760.202 160.564 760.014 160.924C759.826 161.283 759.566 161.563 759.233 161.762C758.907 161.961 758.542 162.061 758.138 162.061C757.75 162.061 757.407 161.975 757.108 161.804C756.815 161.627 756.591 161.408 756.436 161.148V164.145H755.68V157.437H756.436V158.275ZM759.524 159.695C759.524 159.352 759.455 159.053 759.316 158.798C759.178 158.544 758.99 158.35 758.752 158.217C758.519 158.084 758.262 158.018 757.98 158.018C757.703 158.018 757.446 158.087 757.208 158.225C756.975 158.358 756.787 158.555 756.643 158.815C756.505 159.069 756.436 159.366 756.436 159.703C756.436 160.046 756.505 160.348 756.643 160.608C756.787 160.863 756.975 161.059 757.208 161.198C757.446 161.33 757.703 161.397 757.98 161.397C758.262 161.397 758.519 161.33 758.752 161.198C758.99 161.059 759.178 160.863 759.316 160.608C759.455 160.348 759.524 160.044 759.524 159.695ZM762.046 158.176C762.179 157.915 762.367 157.713 762.611 157.57C762.86 157.426 763.161 157.354 763.516 157.354V158.134H763.316C762.469 158.134 762.046 158.593 762.046 159.512V161.986H761.291V157.437H762.046V158.176ZM764.778 156.698C764.634 156.698 764.512 156.648 764.413 156.548C764.313 156.449 764.263 156.327 764.263 156.183C764.263 156.039 764.313 155.917 764.413 155.818C764.512 155.718 764.634 155.668 764.778 155.668C764.916 155.668 765.032 155.718 765.127 155.818C765.226 155.917 765.276 156.039 765.276 156.183C765.276 156.327 765.226 156.449 765.127 156.548C765.032 156.648 764.916 156.698 764.778 156.698ZM765.143 157.437V161.986H764.388V157.437H765.143ZM766.148 159.703C766.148 159.233 766.243 158.823 766.431 158.474C766.619 158.12 766.879 157.846 767.211 157.653C767.549 157.459 767.933 157.362 768.365 157.362C768.924 157.362 769.384 157.498 769.743 157.769C770.109 158.04 770.349 158.416 770.466 158.898H769.652C769.575 158.621 769.422 158.403 769.195 158.242C768.974 158.082 768.697 158.001 768.365 158.001C767.933 158.001 767.585 158.151 767.319 158.45C767.053 158.743 766.921 159.161 766.921 159.703C766.921 160.251 767.053 160.675 767.319 160.973C767.585 161.272 767.933 161.422 768.365 161.422C768.697 161.422 768.974 161.344 769.195 161.189C769.417 161.034 769.569 160.813 769.652 160.525H770.466C770.344 160.99 770.1 161.364 769.735 161.646C769.37 161.923 768.913 162.061 768.365 162.061C767.933 162.061 767.549 161.964 767.211 161.77C766.879 161.577 766.619 161.303 766.431 160.949C766.243 160.594 766.148 160.179 766.148 159.703ZM775.625 159.537C775.625 159.681 775.617 159.833 775.6 159.994H771.964C771.991 160.442 772.143 160.794 772.42 161.048C772.702 161.297 773.043 161.422 773.441 161.422C773.768 161.422 774.039 161.347 774.255 161.198C774.476 161.043 774.631 160.838 774.72 160.583H775.533C775.412 161.021 775.168 161.378 774.803 161.654C774.438 161.925 773.984 162.061 773.441 162.061C773.01 162.061 772.622 161.964 772.279 161.77C771.941 161.577 771.676 161.303 771.482 160.949C771.288 160.589 771.191 160.174 771.191 159.703C771.191 159.233 771.286 158.82 771.474 158.466C771.662 158.112 771.925 157.841 772.262 157.653C772.606 157.459 772.999 157.362 773.441 157.362C773.873 157.362 774.255 157.456 774.587 157.644C774.919 157.832 775.174 158.093 775.351 158.425C775.533 158.751 775.625 159.122 775.625 159.537ZM774.844 159.379C774.844 159.092 774.781 158.845 774.653 158.641C774.526 158.43 774.352 158.272 774.13 158.167C773.915 158.057 773.674 158.001 773.408 158.001C773.026 158.001 772.7 158.123 772.428 158.367C772.163 158.61 772.011 158.948 771.972 159.379H774.844ZM778.553 159.695C778.553 159.23 778.647 158.823 778.835 158.474C779.024 158.12 779.281 157.846 779.608 157.653C779.94 157.459 780.31 157.362 780.72 157.362C781.074 157.362 781.404 157.445 781.708 157.611C782.012 157.772 782.245 157.985 782.405 158.25V155.843H783.169V161.986H782.405V161.131C782.256 161.402 782.035 161.627 781.741 161.804C781.448 161.975 781.105 162.061 780.712 162.061C780.308 162.061 779.94 161.961 779.608 161.762C779.281 161.563 779.024 161.283 778.835 160.924C778.647 160.564 778.553 160.154 778.553 159.695ZM782.405 159.703C782.405 159.36 782.336 159.061 782.198 158.807C782.059 158.552 781.871 158.358 781.633 158.225C781.401 158.087 781.143 158.018 780.861 158.018C780.579 158.018 780.322 158.084 780.089 158.217C779.857 158.35 779.671 158.544 779.533 158.798C779.394 159.053 779.325 159.352 779.325 159.695C779.325 160.044 779.394 160.348 779.533 160.608C779.671 160.863 779.857 161.059 780.089 161.198C780.322 161.33 780.579 161.397 780.861 161.397C781.143 161.397 781.401 161.33 781.633 161.198C781.871 161.059 782.059 160.863 782.198 160.608C782.336 160.348 782.405 160.046 782.405 159.703ZM785.201 158.176C785.334 157.915 785.522 157.713 785.766 157.57C786.015 157.426 786.317 157.354 786.671 157.354V158.134H786.472C785.625 158.134 785.201 158.593 785.201 159.512V161.986H784.446V157.437H785.201V158.176ZM789.527 162.061C789.101 162.061 788.714 161.964 788.365 161.77C788.022 161.577 787.751 161.303 787.551 160.949C787.358 160.589 787.261 160.174 787.261 159.703C787.261 159.238 787.36 158.829 787.56 158.474C787.764 158.115 788.041 157.841 788.39 157.653C788.739 157.459 789.129 157.362 789.56 157.362C789.992 157.362 790.382 157.459 790.731 157.653C791.08 157.841 791.354 158.112 791.553 158.466C791.758 158.82 791.86 159.233 791.86 159.703C791.86 160.174 791.755 160.589 791.545 160.949C791.34 161.303 791.06 161.577 790.706 161.77C790.352 161.964 789.959 162.061 789.527 162.061ZM789.527 161.397C789.798 161.397 790.053 161.333 790.291 161.206C790.529 161.079 790.72 160.888 790.864 160.633C791.013 160.378 791.088 160.069 791.088 159.703C791.088 159.338 791.016 159.028 790.872 158.773C790.728 158.519 790.54 158.331 790.308 158.209C790.075 158.082 789.823 158.018 789.552 158.018C789.275 158.018 789.021 158.082 788.788 158.209C788.561 158.331 788.379 158.519 788.24 158.773C788.102 159.028 788.033 159.338 788.033 159.703C788.033 160.074 788.099 160.387 788.232 160.641C788.37 160.896 788.553 161.087 788.78 161.214C789.007 161.336 789.256 161.397 789.527 161.397ZM793.609 158.275C793.758 158.015 793.98 157.799 794.273 157.628C794.572 157.451 794.918 157.362 795.311 157.362C795.715 157.362 796.08 157.459 796.407 157.653C796.739 157.846 796.999 158.12 797.187 158.474C797.375 158.823 797.47 159.23 797.47 159.695C797.47 160.154 797.375 160.564 797.187 160.924C796.999 161.283 796.739 161.563 796.407 161.762C796.08 161.961 795.715 162.061 795.311 162.061C794.924 162.061 794.58 161.975 794.281 161.804C793.988 161.627 793.764 161.408 793.609 161.148V164.145H792.854V157.437H793.609V158.275ZM796.697 159.695C796.697 159.352 796.628 159.053 796.49 158.798C796.351 158.544 796.163 158.35 795.925 158.217C795.693 158.084 795.435 158.018 795.153 158.018C794.876 158.018 794.619 158.087 794.381 158.225C794.149 158.358 793.96 158.555 793.817 158.815C793.678 159.069 793.609 159.366 793.609 159.703C793.609 160.046 793.678 160.348 793.817 160.608C793.96 160.863 794.149 161.059 794.381 161.198C794.619 161.33 794.876 161.397 795.153 161.397C795.435 161.397 795.693 161.33 795.925 161.198C796.163 161.059 796.351 160.863 796.49 160.608C796.628 160.348 796.697 160.044 796.697 159.695ZM800.075 162.061C799.726 162.061 799.413 162.003 799.136 161.887C798.86 161.765 798.641 161.599 798.481 161.389C798.32 161.173 798.232 160.926 798.215 160.65H798.995C799.017 160.877 799.123 161.062 799.311 161.206C799.505 161.35 799.756 161.422 800.066 161.422C800.354 161.422 800.581 161.358 800.747 161.231C800.913 161.104 800.996 160.943 800.996 160.749C800.996 160.55 800.908 160.403 800.73 160.309C800.553 160.21 800.279 160.113 799.909 160.019C799.571 159.93 799.294 159.842 799.078 159.753C798.868 159.659 798.685 159.523 798.53 159.346C798.381 159.164 798.306 158.926 798.306 158.632C798.306 158.4 798.375 158.187 798.514 157.993C798.652 157.799 798.849 157.647 799.103 157.536C799.358 157.42 799.648 157.362 799.975 157.362C800.479 157.362 800.885 157.489 801.195 157.744C801.505 157.999 801.671 158.347 801.694 158.79H800.938C800.921 158.552 800.825 158.361 800.647 158.217C800.476 158.073 800.243 158.001 799.95 158.001C799.679 158.001 799.463 158.059 799.302 158.176C799.142 158.292 799.062 158.444 799.062 158.632C799.062 158.782 799.109 158.906 799.203 159.006C799.302 159.1 799.424 159.177 799.568 159.238C799.718 159.294 799.922 159.357 800.183 159.429C800.509 159.518 800.775 159.606 800.98 159.695C801.184 159.778 801.359 159.905 801.503 160.077C801.652 160.248 801.73 160.473 801.735 160.749C801.735 160.998 801.666 161.223 801.527 161.422C801.389 161.621 801.193 161.779 800.938 161.895C800.689 162.006 800.401 162.061 800.075 162.061ZM803.582 160.94L802.652 163.174H802.146L802.752 160.94H803.582ZM810.579 157.437L807.84 164.128H807.059L807.956 161.937L806.121 157.437H806.96L808.388 161.123L809.799 157.437H810.579ZM813.323 162.061C812.897 162.061 812.509 161.964 812.161 161.77C811.818 161.577 811.546 161.303 811.347 160.949C811.153 160.589 811.057 160.174 811.057 159.703C811.057 159.238 811.156 158.829 811.355 158.474C811.56 158.115 811.837 157.841 812.186 157.653C812.534 157.459 812.925 157.362 813.356 157.362C813.788 157.362 814.178 157.459 814.527 157.653C814.876 157.841 815.15 158.112 815.349 158.466C815.554 158.82 815.656 159.233 815.656 159.703C815.656 160.174 815.551 160.589 815.341 160.949C815.136 161.303 814.856 161.577 814.502 161.77C814.148 161.964 813.755 162.061 813.323 162.061ZM813.323 161.397C813.594 161.397 813.849 161.333 814.087 161.206C814.325 161.079 814.516 160.888 814.66 160.633C814.809 160.378 814.884 160.069 814.884 159.703C814.884 159.338 814.812 159.028 814.668 158.773C814.524 158.519 814.336 158.331 814.104 158.209C813.871 158.082 813.619 158.018 813.348 158.018C813.071 158.018 812.817 158.082 812.584 158.209C812.357 158.331 812.175 158.519 812.036 158.773C811.898 159.028 811.829 159.338 811.829 159.703C811.829 160.074 811.895 160.387 812.028 160.641C812.166 160.896 812.349 161.087 812.576 161.214C812.803 161.336 813.052 161.397 813.323 161.397ZM820.684 157.437V161.986H819.929V161.314C819.785 161.546 819.583 161.729 819.323 161.862C819.068 161.989 818.786 162.053 818.476 162.053C818.122 162.053 817.803 161.981 817.521 161.837C817.239 161.687 817.015 161.466 816.849 161.173C816.688 160.879 816.608 160.522 816.608 160.102V157.437H817.355V160.002C817.355 160.45 817.469 160.796 817.695 161.04C817.922 161.278 818.232 161.397 818.625 161.397C819.029 161.397 819.348 161.272 819.58 161.023C819.812 160.774 819.929 160.412 819.929 159.936V157.437H820.684ZM729.089 170.275C729.238 170.015 729.459 169.799 729.753 169.628C730.052 169.451 730.398 169.362 730.791 169.362C731.195 169.362 731.56 169.459 731.886 169.653C732.219 169.846 732.479 170.12 732.667 170.474C732.855 170.823 732.949 171.23 732.949 171.695C732.949 172.154 732.855 172.564 732.667 172.924C732.479 173.283 732.219 173.563 731.886 173.762C731.56 173.961 731.195 174.061 730.791 174.061C730.403 174.061 730.06 173.975 729.761 173.804C729.468 173.627 729.244 173.408 729.089 173.148V176.145H728.333V169.437H729.089V170.275ZM732.177 171.695C732.177 171.352 732.108 171.053 731.969 170.798C731.831 170.544 731.643 170.35 731.405 170.217C731.172 170.084 730.915 170.018 730.633 170.018C730.356 170.018 730.099 170.087 729.861 170.225C729.628 170.358 729.44 170.555 729.296 170.815C729.158 171.069 729.089 171.366 729.089 171.703C729.089 172.046 729.158 172.348 729.296 172.608C729.44 172.863 729.628 173.059 729.861 173.198C730.099 173.33 730.356 173.397 730.633 173.397C730.915 173.397 731.172 173.33 731.405 173.198C731.643 173.059 731.831 172.863 731.969 172.608C732.108 172.348 732.177 172.044 732.177 171.695ZM733.661 171.695C733.661 171.23 733.755 170.823 733.944 170.474C734.132 170.12 734.389 169.846 734.716 169.653C735.048 169.459 735.416 169.362 735.82 169.362C736.218 169.362 736.564 169.448 736.858 169.619C737.151 169.791 737.37 170.007 737.513 170.267V169.437H738.277V173.986H737.513V173.14C737.364 173.405 737.14 173.627 736.841 173.804C736.548 173.975 736.205 174.061 735.812 174.061C735.408 174.061 735.042 173.961 734.716 173.762C734.389 173.563 734.132 173.283 733.944 172.924C733.755 172.564 733.661 172.154 733.661 171.695ZM737.513 171.703C737.513 171.36 737.444 171.061 737.306 170.807C737.168 170.552 736.979 170.358 736.741 170.225C736.509 170.087 736.252 170.018 735.969 170.018C735.687 170.018 735.43 170.084 735.197 170.217C734.965 170.35 734.779 170.544 734.641 170.798C734.503 171.053 734.433 171.352 734.433 171.695C734.433 172.044 734.503 172.348 734.641 172.608C734.779 172.863 734.965 173.059 735.197 173.198C735.43 173.33 735.687 173.397 735.969 173.397C736.252 173.397 736.509 173.33 736.741 173.198C736.979 173.059 737.168 172.863 737.306 172.608C737.444 172.348 737.513 172.046 737.513 171.703ZM743.473 169.437L740.733 176.128H739.953L740.849 173.937L739.014 169.437H739.853L741.281 173.123L742.692 169.437H743.473ZM747.367 170.059V172.741C747.367 172.962 747.414 173.12 747.508 173.214C747.602 173.303 747.766 173.347 747.998 173.347H748.554V173.986H747.873C747.453 173.986 747.137 173.889 746.927 173.696C746.717 173.502 746.612 173.184 746.612 172.741V170.059H746.022V169.437H746.612V168.291H747.367V169.437H748.554V170.059H747.367ZM751.728 169.354C752.071 169.354 752.381 169.428 752.658 169.578C752.934 169.722 753.15 169.94 753.305 170.234C753.466 170.527 753.546 170.884 753.546 171.305V173.986H752.799V171.413C752.799 170.959 752.685 170.613 752.458 170.375C752.232 170.131 751.922 170.01 751.529 170.01C751.13 170.01 750.812 170.134 750.574 170.383C750.341 170.632 750.225 170.995 750.225 171.471V173.986H749.47V167.843H750.225V170.084C750.375 169.852 750.579 169.672 750.839 169.545C751.105 169.417 751.401 169.354 751.728 169.354ZM758.931 171.537C758.931 171.681 758.923 171.833 758.906 171.994H755.27C755.298 172.442 755.45 172.794 755.727 173.048C756.009 173.297 756.349 173.422 756.748 173.422C757.074 173.422 757.346 173.347 757.561 173.198C757.783 173.043 757.938 172.838 758.026 172.583H758.84C758.718 173.021 758.475 173.378 758.109 173.654C757.744 173.925 757.29 174.061 756.748 174.061C756.316 174.061 755.929 173.964 755.585 173.77C755.248 173.577 754.982 173.303 754.788 172.949C754.595 172.589 754.498 172.174 754.498 171.703C754.498 171.233 754.592 170.82 754.78 170.466C754.968 170.112 755.231 169.841 755.569 169.653C755.912 169.459 756.305 169.362 756.748 169.362C757.179 169.362 757.561 169.456 757.893 169.644C758.226 169.832 758.48 170.093 758.657 170.425C758.84 170.751 758.931 171.122 758.931 171.537ZM758.151 171.379C758.151 171.092 758.087 170.845 757.96 170.641C757.833 170.43 757.658 170.272 757.437 170.167C757.221 170.057 756.98 170.001 756.715 170.001C756.333 170.001 756.006 170.123 755.735 170.367C755.469 170.61 755.317 170.948 755.278 171.379H758.151ZM764.359 169.354C764.912 169.354 765.36 169.523 765.703 169.86C766.047 170.192 766.218 170.674 766.218 171.305V173.986H765.471V171.413C765.471 170.959 765.358 170.613 765.131 170.375C764.904 170.131 764.594 170.01 764.201 170.01C763.802 170.01 763.484 170.134 763.246 170.383C763.014 170.632 762.897 170.995 762.897 171.471V173.986H762.142V169.437H762.897V170.084C763.047 169.852 763.249 169.672 763.503 169.545C763.764 169.417 764.049 169.354 764.359 169.354ZM771.603 171.537C771.603 171.681 771.595 171.833 771.579 171.994H767.942C767.97 172.442 768.122 172.794 768.399 173.048C768.681 173.297 769.021 173.422 769.42 173.422C769.747 173.422 770.018 173.347 770.234 173.198C770.455 173.043 770.61 172.838 770.698 172.583H771.512C771.39 173.021 771.147 173.378 770.782 173.654C770.416 173.925 769.962 174.061 769.42 174.061C768.988 174.061 768.601 173.964 768.258 173.77C767.92 173.577 767.654 173.303 767.461 172.949C767.267 172.589 767.17 172.174 767.17 171.703C767.17 171.233 767.264 170.82 767.452 170.466C767.641 170.112 767.903 169.841 768.241 169.653C768.584 169.459 768.977 169.362 769.42 169.362C769.852 169.362 770.234 169.456 770.566 169.644C770.898 169.832 771.152 170.093 771.329 170.425C771.512 170.751 771.603 171.122 771.603 171.537ZM770.823 171.379C770.823 171.092 770.759 170.845 770.632 170.641C770.505 170.43 770.33 170.272 770.109 170.167C769.893 170.057 769.652 170.001 769.387 170.001C769.005 170.001 768.678 170.123 768.407 170.367C768.141 170.61 767.989 170.948 767.95 171.379H770.823ZM778.661 169.437L777.242 173.986H776.461L775.365 170.375L774.269 173.986H773.489L772.061 169.437H772.833L773.879 173.256L775.008 169.437H775.78L776.885 173.264L777.914 169.437H778.661ZM780.191 172.94L779.262 175.174H778.755L779.361 172.94H780.191ZM784.026 167.843V173.986H783.27V167.843H784.026ZM787.298 174.061C786.871 174.061 786.484 173.964 786.135 173.77C785.792 173.577 785.521 173.303 785.322 172.949C785.128 172.589 785.031 172.174 785.031 171.703C785.031 171.238 785.131 170.829 785.33 170.474C785.535 170.115 785.812 169.841 786.16 169.653C786.509 169.459 786.899 169.362 787.331 169.362C787.763 169.362 788.153 169.459 788.501 169.653C788.85 169.841 789.124 170.112 789.323 170.466C789.528 170.82 789.631 171.233 789.631 171.703C789.631 172.174 789.525 172.589 789.315 172.949C789.11 173.303 788.831 173.577 788.477 173.77C788.122 173.964 787.729 174.061 787.298 174.061ZM787.298 173.397C787.569 173.397 787.823 173.333 788.061 173.206C788.299 173.079 788.49 172.888 788.634 172.633C788.784 172.378 788.858 172.069 788.858 171.703C788.858 171.338 788.787 171.028 788.643 170.773C788.499 170.519 788.311 170.331 788.078 170.209C787.846 170.082 787.594 170.018 787.323 170.018C787.046 170.018 786.791 170.082 786.559 170.209C786.332 170.331 786.149 170.519 786.011 170.773C785.872 171.028 785.803 171.338 785.803 171.703C785.803 172.074 785.87 172.387 786.003 172.641C786.141 172.896 786.324 173.087 786.55 173.214C786.777 173.336 787.026 173.397 787.298 173.397ZM796.685 169.437L795.265 173.986H794.484L793.389 170.375L792.293 173.986H791.512L790.084 169.437H790.856L791.902 173.256L793.032 169.437H793.804L794.908 173.264L795.937 169.437H796.685ZM801.585 171.537C801.585 171.681 801.577 171.833 801.561 171.994H797.924C797.952 172.442 798.104 172.794 798.381 173.048C798.663 173.297 799.003 173.422 799.402 173.422C799.728 173.422 800 173.347 800.216 173.198C800.437 173.043 800.592 172.838 800.68 172.583H801.494C801.372 173.021 801.129 173.378 800.763 173.654C800.398 173.925 799.944 174.061 799.402 174.061C798.97 174.061 798.583 173.964 798.24 173.77C797.902 173.577 797.636 173.303 797.443 172.949C797.249 172.589 797.152 172.174 797.152 171.703C797.152 171.233 797.246 170.82 797.434 170.466C797.622 170.112 797.885 169.841 798.223 169.653C798.566 169.459 798.959 169.362 799.402 169.362C799.834 169.362 800.216 169.456 800.548 169.644C800.88 169.832 801.134 170.093 801.311 170.425C801.494 170.751 801.585 171.122 801.585 171.537ZM800.805 171.379C800.805 171.092 800.741 170.845 800.614 170.641C800.487 170.43 800.312 170.272 800.091 170.167C799.875 170.057 799.634 170.001 799.369 170.001C798.987 170.001 798.66 170.123 798.389 170.367C798.123 170.61 797.971 170.948 797.932 171.379H800.805ZM803.338 170.176C803.471 169.915 803.659 169.713 803.903 169.57C804.152 169.426 804.453 169.354 804.808 169.354V170.134H804.608C803.762 170.134 803.338 170.593 803.338 171.512V173.986H802.583V169.437H803.338V170.176ZM808.649 170.275C808.798 170.015 809.019 169.799 809.313 169.628C809.612 169.451 809.958 169.362 810.351 169.362C810.755 169.362 811.12 169.459 811.446 169.653C811.779 169.846 812.039 170.12 812.227 170.474C812.415 170.823 812.509 171.23 812.509 171.695C812.509 172.154 812.415 172.564 812.227 172.924C812.039 173.283 811.779 173.563 811.446 173.762C811.12 173.961 810.755 174.061 810.351 174.061C809.963 174.061 809.62 173.975 809.321 173.804C809.028 173.627 808.804 173.408 808.649 173.148V176.145H807.893V169.437H808.649V170.275ZM811.737 171.695C811.737 171.352 811.668 171.053 811.529 170.798C811.391 170.544 811.203 170.35 810.965 170.217C810.732 170.084 810.475 170.018 810.193 170.018C809.916 170.018 809.659 170.087 809.421 170.225C809.188 170.358 809 170.555 808.856 170.815C808.718 171.069 808.649 171.366 808.649 171.703C808.649 172.046 808.718 172.348 808.856 172.608C809 172.863 809.188 173.059 809.421 173.198C809.659 173.33 809.916 173.397 810.193 173.397C810.475 173.397 810.732 173.33 810.965 173.198C811.203 173.059 811.391 172.863 811.529 172.608C811.668 172.348 811.737 172.044 811.737 171.695ZM814.259 170.176C814.392 169.915 814.58 169.713 814.824 169.57C815.073 169.426 815.374 169.354 815.729 169.354V170.134H815.529C814.683 170.134 814.259 170.593 814.259 171.512V173.986H813.504V169.437H814.259V170.176ZM816.991 168.698C816.847 168.698 816.725 168.648 816.626 168.548C816.526 168.449 816.476 168.327 816.476 168.183C816.476 168.039 816.526 167.917 816.626 167.818C816.725 167.718 816.847 167.668 816.991 167.668C817.129 167.668 817.246 167.718 817.34 167.818C817.439 167.917 817.489 168.039 817.489 168.183C817.489 168.327 817.439 168.449 817.34 168.548C817.246 168.648 817.129 168.698 816.991 168.698ZM817.356 169.437V173.986H816.601V169.437H817.356ZM818.362 171.703C818.362 171.233 818.456 170.823 818.644 170.474C818.832 170.12 819.092 169.846 819.424 169.653C819.762 169.459 820.147 169.362 820.578 169.362C821.137 169.362 821.597 169.498 821.956 169.769C822.322 170.04 822.562 170.416 822.679 170.898H821.865C821.788 170.621 821.635 170.403 821.408 170.242C821.187 170.082 820.91 170.001 820.578 170.001C820.147 170.001 819.798 170.151 819.532 170.45C819.266 170.743 819.134 171.161 819.134 171.703C819.134 172.251 819.266 172.675 819.532 172.973C819.798 173.272 820.147 173.422 820.578 173.422C820.91 173.422 821.187 173.344 821.408 173.189C821.63 173.034 821.782 172.813 821.865 172.525H822.679C822.557 172.99 822.313 173.364 821.948 173.646C821.583 173.923 821.126 174.061 820.578 174.061C820.147 174.061 819.762 173.964 819.424 173.77C819.092 173.577 818.832 173.303 818.644 172.949C818.456 172.594 818.362 172.179 818.362 171.703ZM827.838 171.537C827.838 171.681 827.83 171.833 827.813 171.994H824.177C824.204 172.442 824.356 172.794 824.633 173.048C824.915 173.297 825.256 173.422 825.654 173.422C825.981 173.422 826.252 173.347 826.468 173.198C826.689 173.043 826.844 172.838 826.933 172.583H827.747C827.625 173.021 827.381 173.378 827.016 173.654C826.651 173.925 826.197 174.061 825.654 174.061C825.223 174.061 824.835 173.964 824.492 173.77C824.154 173.577 823.889 173.303 823.695 172.949C823.501 172.589 823.404 172.174 823.404 171.703C823.404 171.233 823.499 170.82 823.687 170.466C823.875 170.112 824.138 169.841 824.475 169.653C824.819 169.459 825.212 169.362 825.654 169.362C826.086 169.362 826.468 169.456 826.8 169.644C827.132 169.832 827.387 170.093 827.564 170.425C827.747 170.751 827.838 171.122 827.838 171.537ZM827.057 171.379C827.057 171.092 826.994 170.845 826.867 170.641C826.739 170.43 826.565 170.272 826.343 170.167C826.128 170.057 825.887 170.001 825.621 170.001C825.239 170.001 824.913 170.123 824.642 170.367C824.376 170.61 824.224 170.948 824.185 171.379H827.057Z" fill="#221F20"/>
</g>
<g filter="url(#filter1_d_2068_114047)">
<rect x="649.225" y="16" width="114.642" height="27.3209" rx="4.98132" fill="white"/>
<path d="M654.297 20.8738V26.6604H653.541V20.8738H654.297ZM657.436 22.7335H656.481V26.6604H655.725V22.7335H655.136V22.1108H655.725V21.787C655.725 21.2778 655.855 20.907 656.116 20.6745C656.381 20.4365 656.805 20.3175 657.386 20.3175V20.9485C657.054 20.9485 656.818 21.0149 656.68 21.1477C656.547 21.275 656.481 21.4881 656.481 21.787V22.1108H657.436V22.7335ZM661.451 22.7335V25.4151C661.451 25.6365 661.498 25.7942 661.592 25.8883C661.687 25.9769 661.85 26.0211 662.082 26.0211H662.639V26.6604H661.958C661.537 26.6604 661.222 26.5635 661.011 26.3698C660.801 26.1761 660.696 25.8579 660.696 25.4151V22.7335H660.106V22.1108H660.696V20.9651H661.451V22.1108H662.639V22.7335H661.451ZM665.812 22.0278C666.155 22.0278 666.465 22.1025 666.742 22.2519C667.019 22.3958 667.235 22.6145 667.39 22.9078C667.55 23.2011 667.63 23.5581 667.63 23.9788V26.6604H666.883V24.0867C666.883 23.6329 666.77 23.2869 666.543 23.0489C666.316 22.8054 666.006 22.6836 665.613 22.6836C665.214 22.6836 664.896 22.8082 664.658 23.0572C664.426 23.3063 664.309 23.6688 664.309 24.1448V26.6604H663.554V20.5168H664.309V22.7584C664.459 22.5259 664.664 22.346 664.924 22.2187C665.189 22.0914 665.486 22.0278 665.812 22.0278ZM673.016 24.2113C673.016 24.3552 673.007 24.5074 672.991 24.6679H669.354C669.382 25.1162 669.534 25.4677 669.811 25.7223C670.093 25.9713 670.434 26.0959 670.832 26.0959C671.159 26.0959 671.43 26.0211 671.646 25.8717C671.867 25.7167 672.022 25.5119 672.111 25.2573H672.924C672.802 25.6946 672.559 26.0516 672.194 26.3283C671.828 26.5995 671.374 26.7351 670.832 26.7351C670.4 26.7351 670.013 26.6383 669.67 26.4445C669.332 26.2508 669.066 25.9769 668.873 25.6226C668.679 25.2629 668.582 24.8478 668.582 24.3773C668.582 23.9068 668.676 23.4945 668.864 23.1403C669.053 22.786 669.316 22.5148 669.653 22.3267C669.996 22.1329 670.389 22.0361 670.832 22.0361C671.264 22.0361 671.646 22.1302 671.978 22.3183C672.31 22.5065 672.564 22.7667 672.742 23.0988C672.924 23.4253 673.016 23.7961 673.016 24.2113ZM672.235 24.0535C672.235 23.7657 672.171 23.5194 672.044 23.3146C671.917 23.1043 671.743 22.9465 671.521 22.8414C671.305 22.7307 671.065 22.6753 670.799 22.6753C670.417 22.6753 670.09 22.7971 669.819 23.0406C669.554 23.2842 669.401 23.6218 669.363 24.0535H672.235ZM676.982 22.9493C677.131 22.6892 677.352 22.4733 677.646 22.3017C677.945 22.1246 678.291 22.0361 678.684 22.0361C679.088 22.0361 679.453 22.1329 679.78 22.3267C680.112 22.5204 680.372 22.7943 680.56 23.1486C680.748 23.4973 680.842 23.9041 680.842 24.369C680.842 24.8284 680.748 25.238 680.56 25.5977C680.372 25.9575 680.112 26.237 679.78 26.4362C679.453 26.6355 679.088 26.7351 678.684 26.7351C678.296 26.7351 677.953 26.6493 677.654 26.4778C677.361 26.3006 677.137 26.082 676.982 25.8219V28.819H676.226V22.1108H676.982V22.9493ZM680.07 24.369C680.07 24.0258 680.001 23.727 679.863 23.4724C679.724 23.2178 679.536 23.024 679.298 22.8912C679.066 22.7584 678.808 22.6919 678.526 22.6919C678.249 22.6919 677.992 22.7611 677.754 22.8995C677.521 23.0323 677.333 23.2288 677.189 23.489C677.051 23.7436 676.982 24.0397 676.982 24.3773C676.982 24.7205 677.051 25.0221 677.189 25.2822C677.333 25.5368 677.521 25.7333 677.754 25.8717C677.992 26.0045 678.249 26.0709 678.526 26.0709C678.808 26.0709 679.066 26.0045 679.298 25.8717C679.536 25.7333 679.724 25.5368 679.863 25.2822C680.001 25.0221 680.07 24.7177 680.07 24.369ZM682.592 22.8497C682.725 22.5896 682.913 22.3875 683.157 22.2436C683.406 22.0997 683.707 22.0278 684.062 22.0278V22.8082H683.862C683.016 22.8082 682.592 23.2676 682.592 24.1863V26.6604H681.837V22.1108H682.592V22.8497ZM685.324 21.3719C685.18 21.3719 685.058 21.3221 684.959 21.2225C684.859 21.1228 684.809 21.0011 684.809 20.8572C684.809 20.7133 684.859 20.5915 684.959 20.4919C685.058 20.3922 685.18 20.3424 685.324 20.3424C685.462 20.3424 685.579 20.3922 685.673 20.4919C685.772 20.5915 685.822 20.7133 685.822 20.8572C685.822 21.0011 685.772 21.1228 685.673 21.2225C685.579 21.3221 685.462 21.3719 685.324 21.3719ZM685.689 22.1108V26.6604H684.934V22.1108H685.689ZM686.695 24.3773C686.695 23.9068 686.789 23.4973 686.977 23.1486C687.165 22.7943 687.425 22.5204 687.757 22.3267C688.095 22.1329 688.48 22.0361 688.911 22.0361C689.47 22.0361 689.93 22.1717 690.289 22.4429C690.655 22.7141 690.896 23.0905 691.012 23.572H690.198C690.121 23.2952 689.968 23.0766 689.741 22.9161C689.52 22.7556 689.243 22.6753 688.911 22.6753C688.48 22.6753 688.131 22.8248 687.865 23.1237C687.6 23.417 687.467 23.8349 687.467 24.3773C687.467 24.9252 687.6 25.3487 687.865 25.6475C688.131 25.9464 688.48 26.0959 688.911 26.0959C689.243 26.0959 689.52 26.0184 689.741 25.8634C689.963 25.7084 690.115 25.487 690.198 25.1992H691.012C690.89 25.6641 690.646 26.0377 690.281 26.32C689.916 26.5968 689.459 26.7351 688.911 26.7351C688.48 26.7351 688.095 26.6383 687.757 26.4445C687.425 26.2508 687.165 25.9769 686.977 25.6226C686.789 25.2684 686.695 24.8533 686.695 24.3773ZM696.171 24.2113C696.171 24.3552 696.163 24.5074 696.146 24.6679H692.51C692.537 25.1162 692.69 25.4677 692.966 25.7223C693.249 25.9713 693.589 26.0959 693.987 26.0959C694.314 26.0959 694.585 26.0211 694.801 25.8717C695.022 25.7167 695.177 25.5119 695.266 25.2573H696.08C695.958 25.6946 695.714 26.0516 695.349 26.3283C694.984 26.5995 694.53 26.7351 693.987 26.7351C693.556 26.7351 693.168 26.6383 692.825 26.4445C692.487 26.2508 692.222 25.9769 692.028 25.6226C691.834 25.2629 691.738 24.8478 691.738 24.3773C691.738 23.9068 691.832 23.4945 692.02 23.1403C692.208 22.786 692.471 22.5148 692.809 22.3267C693.152 22.1329 693.545 22.0361 693.987 22.0361C694.419 22.0361 694.801 22.1302 695.133 22.3183C695.465 22.5065 695.72 22.7667 695.897 23.0988C696.08 23.4253 696.171 23.7961 696.171 24.2113ZM695.39 24.0535C695.39 23.7657 695.327 23.5194 695.2 23.3146C695.072 23.1043 694.898 22.9465 694.677 22.8414C694.461 22.7307 694.22 22.6753 693.954 22.6753C693.572 22.6753 693.246 22.7971 692.975 23.0406C692.709 23.2842 692.557 23.6218 692.518 24.0535H695.39ZM699.772 21.3719C699.628 21.3719 699.506 21.3221 699.406 21.2225C699.307 21.1228 699.257 21.0011 699.257 20.8572C699.257 20.7133 699.307 20.5915 699.406 20.4919C699.506 20.3922 699.628 20.3424 699.772 20.3424C699.91 20.3424 700.026 20.3922 700.12 20.4919C700.22 20.5915 700.27 20.7133 700.27 20.8572C700.27 21.0011 700.22 21.1228 700.12 21.2225C700.026 21.3221 699.91 21.3719 699.772 21.3719ZM700.137 22.1108V26.6604H699.382V22.1108H700.137ZM703.641 22.0278C704.195 22.0278 704.643 22.1966 704.986 22.5342C705.329 22.8663 705.501 23.3478 705.501 23.9788V26.6604H704.754V24.0867C704.754 23.6329 704.64 23.2869 704.413 23.0489C704.187 22.8054 703.877 22.6836 703.484 22.6836C703.085 22.6836 702.767 22.8082 702.529 23.0572C702.296 23.3063 702.18 23.6688 702.18 24.1448V26.6604H701.425V22.1108H702.18V22.7584C702.33 22.5259 702.532 22.346 702.786 22.2187C703.046 22.0914 703.331 22.0278 703.641 22.0278ZM706.453 24.3773C706.453 23.9068 706.547 23.4973 706.735 23.1486C706.923 22.7943 707.183 22.5204 707.516 22.3267C707.853 22.1329 708.238 22.0361 708.67 22.0361C709.229 22.0361 709.688 22.1717 710.048 22.4429C710.413 22.7141 710.654 23.0905 710.77 23.572H709.956C709.879 23.2952 709.727 23.0766 709.5 22.9161C709.278 22.7556 709.002 22.6753 708.67 22.6753C708.238 22.6753 707.889 22.8248 707.623 23.1237C707.358 23.417 707.225 23.8349 707.225 24.3773C707.225 24.9252 707.358 25.3487 707.623 25.6475C707.889 25.9464 708.238 26.0959 708.67 26.0959C709.002 26.0959 709.278 26.0184 709.5 25.8634C709.721 25.7084 709.873 25.487 709.956 25.1992H710.77C710.648 25.6641 710.405 26.0377 710.039 26.32C709.674 26.5968 709.217 26.7351 708.67 26.7351C708.238 26.7351 707.853 26.6383 707.516 26.4445C707.183 26.2508 706.923 25.9769 706.735 25.6226C706.547 25.2684 706.453 24.8533 706.453 24.3773ZM712.534 22.8497C712.666 22.5896 712.855 22.3875 713.098 22.2436C713.347 22.0997 713.649 22.0278 714.003 22.0278V22.8082H713.804C712.957 22.8082 712.534 23.2676 712.534 24.1863V26.6604H711.778V22.1108H712.534V22.8497ZM719.026 24.2113C719.026 24.3552 719.018 24.5074 719.001 24.6679H715.365C715.393 25.1162 715.545 25.4677 715.822 25.7223C716.104 25.9713 716.444 26.0959 716.843 26.0959C717.169 26.0959 717.441 26.0211 717.656 25.8717C717.878 25.7167 718.033 25.5119 718.121 25.2573H718.935C718.813 25.6946 718.57 26.0516 718.204 26.3283C717.839 26.5995 717.385 26.7351 716.843 26.7351C716.411 26.7351 716.024 26.6383 715.68 26.4445C715.343 26.2508 715.077 25.9769 714.883 25.6226C714.69 25.2629 714.593 24.8478 714.593 24.3773C714.593 23.9068 714.687 23.4945 714.875 23.1403C715.063 22.786 715.326 22.5148 715.664 22.3267C716.007 22.1329 716.4 22.0361 716.843 22.0361C717.275 22.0361 717.656 22.1302 717.989 22.3183C718.321 22.5065 718.575 22.7667 718.752 23.0988C718.935 23.4253 719.026 23.7961 719.026 24.2113ZM718.246 24.0535C718.246 23.7657 718.182 23.5194 718.055 23.3146C717.928 23.1043 717.753 22.9465 717.532 22.8414C717.316 22.7307 717.075 22.6753 716.81 22.6753C716.428 22.6753 716.101 22.7971 715.83 23.0406C715.564 23.2842 715.412 23.6218 715.373 24.0535H718.246ZM719.741 24.369C719.741 23.9041 719.835 23.4973 720.024 23.1486C720.212 22.7943 720.469 22.5204 720.796 22.3267C721.128 22.1329 721.496 22.0361 721.9 22.0361C722.298 22.0361 722.644 22.1219 722.938 22.2934C723.231 22.465 723.45 22.6809 723.593 22.941V22.1108H724.357V26.6604H723.593V25.8136C723.444 26.0792 723.22 26.3006 722.921 26.4778C722.628 26.6493 722.284 26.7351 721.892 26.7351C721.487 26.7351 721.122 26.6355 720.796 26.4362C720.469 26.237 720.212 25.9575 720.024 25.5977C719.835 25.238 719.741 24.8284 719.741 24.369ZM723.593 24.3773C723.593 24.0341 723.524 23.7353 723.386 23.4807C723.248 23.2261 723.059 23.0323 722.821 22.8995C722.589 22.7611 722.332 22.6919 722.049 22.6919C721.767 22.6919 721.51 22.7584 721.277 22.8912C721.045 23.024 720.859 23.2178 720.721 23.4724C720.583 23.727 720.513 24.0258 720.513 24.369C720.513 24.7177 720.583 25.0221 720.721 25.2822C720.859 25.5368 721.045 25.7333 721.277 25.8717C721.51 26.0045 721.767 26.0709 722.049 26.0709C722.332 26.0709 722.589 26.0045 722.821 25.8717C723.059 25.7333 723.248 25.5368 723.386 25.2822C723.524 25.0221 723.593 24.7205 723.593 24.3773ZM727.245 26.7351C726.896 26.7351 726.583 26.677 726.306 26.5608C726.03 26.439 725.811 26.273 725.651 26.0626C725.49 25.8468 725.402 25.6005 725.385 25.3237H726.165C726.187 25.5507 726.293 25.7361 726.481 25.88C726.675 26.0239 726.926 26.0959 727.236 26.0959C727.524 26.0959 727.751 26.0322 727.917 25.9049C728.083 25.7776 728.166 25.6171 728.166 25.4234C728.166 25.2241 728.078 25.0774 727.9 24.9834C727.723 24.8837 727.449 24.7869 727.079 24.6928C726.741 24.6042 726.464 24.5157 726.248 24.4271C726.038 24.333 725.855 24.1974 725.7 24.0203C725.551 23.8377 725.476 23.5997 725.476 23.3063C725.476 23.0738 725.545 22.8608 725.684 22.667C725.822 22.4733 726.019 22.3211 726.273 22.2104C726.528 22.0942 726.818 22.0361 727.145 22.0361C727.649 22.0361 728.055 22.1634 728.365 22.418C728.675 22.6726 728.841 23.0213 728.864 23.4641H728.108C728.091 23.2261 727.995 23.0351 727.817 22.8912C727.646 22.7473 727.413 22.6753 727.12 22.6753C726.849 22.6753 726.633 22.7335 726.473 22.8497C726.312 22.9659 726.232 23.1181 726.232 23.3063C726.232 23.4558 726.279 23.5803 726.373 23.6799C726.473 23.774 726.594 23.8515 726.738 23.9124C726.888 23.9677 727.092 24.0314 727.353 24.1033C727.679 24.1919 727.945 24.2804 728.15 24.369C728.354 24.452 728.529 24.5793 728.673 24.7509C728.822 24.9225 728.9 25.1466 728.905 25.4234C728.905 25.6724 728.836 25.8966 728.698 26.0959C728.559 26.2951 728.363 26.4528 728.108 26.5691C727.859 26.6798 727.571 26.7351 727.245 26.7351ZM734.123 24.2113C734.123 24.3552 734.114 24.5074 734.098 24.6679H730.461C730.489 25.1162 730.641 25.4677 730.918 25.7223C731.2 25.9713 731.541 26.0959 731.939 26.0959C732.266 26.0959 732.537 26.0211 732.753 25.8717C732.974 25.7167 733.129 25.5119 733.218 25.2573H734.031C733.91 25.6946 733.666 26.0516 733.301 26.3283C732.935 26.5995 732.482 26.7351 731.939 26.7351C731.507 26.7351 731.12 26.6383 730.777 26.4445C730.439 26.2508 730.174 25.9769 729.98 25.6226C729.786 25.2629 729.689 24.8478 729.689 24.3773C729.689 23.9068 729.783 23.4945 729.972 23.1403C730.16 22.786 730.423 22.5148 730.76 22.3267C731.103 22.1329 731.496 22.0361 731.939 22.0361C732.371 22.0361 732.753 22.1302 733.085 22.3183C733.417 22.5065 733.672 22.7667 733.849 23.0988C734.031 23.4253 734.123 23.7961 734.123 24.2113ZM733.342 24.0535C733.342 23.7657 733.279 23.5194 733.151 23.3146C733.024 23.1043 732.85 22.9465 732.628 22.8414C732.412 22.7307 732.172 22.6753 731.906 22.6753C731.524 22.6753 731.198 22.7971 730.926 23.0406C730.661 23.2842 730.508 23.6218 730.47 24.0535H733.342ZM736.731 26.7351C736.382 26.7351 736.069 26.677 735.792 26.5608C735.516 26.439 735.297 26.273 735.137 26.0626C734.976 25.8468 734.887 25.6005 734.871 25.3237H735.651C735.673 25.5507 735.779 25.7361 735.967 25.88C736.16 26.0239 736.412 26.0959 736.722 26.0959C737.01 26.0959 737.237 26.0322 737.403 25.9049C737.569 25.7776 737.652 25.6171 737.652 25.4234C737.652 25.2241 737.564 25.0774 737.386 24.9834C737.209 24.8837 736.935 24.7869 736.564 24.6928C736.227 24.6042 735.95 24.5157 735.734 24.4271C735.524 24.333 735.341 24.1974 735.186 24.0203C735.037 23.8377 734.962 23.5997 734.962 23.3063C734.962 23.0738 735.031 22.8608 735.17 22.667C735.308 22.4733 735.505 22.3211 735.759 22.2104C736.014 22.0942 736.304 22.0361 736.631 22.0361C737.135 22.0361 737.541 22.1634 737.851 22.418C738.161 22.6726 738.327 23.0213 738.349 23.4641H737.594C737.577 23.2261 737.48 23.0351 737.303 22.8912C737.132 22.7473 736.899 22.6753 736.606 22.6753C736.335 22.6753 736.119 22.7335 735.958 22.8497C735.798 22.9659 735.718 23.1181 735.718 23.3063C735.718 23.4558 735.765 23.5803 735.859 23.6799C735.958 23.774 736.08 23.8515 736.224 23.9124C736.374 23.9677 736.578 24.0314 736.838 24.1033C737.165 24.1919 737.431 24.2804 737.635 24.369C737.84 24.452 738.015 24.5793 738.159 24.7509C738.308 24.9225 738.385 25.1466 738.391 25.4234C738.391 25.6724 738.322 25.8966 738.183 26.0959C738.045 26.2951 737.849 26.4528 737.594 26.5691C737.345 26.6798 737.057 26.7351 736.731 26.7351ZM740.238 25.6143L739.308 27.8476H738.802L739.408 25.6143H740.238ZM747.235 22.1108L744.496 28.8024H743.715L744.612 26.6106L742.777 22.1108H743.616L745.044 25.797L746.455 22.1108H747.235ZM749.979 26.7351C749.553 26.7351 749.165 26.6383 748.817 26.4445C748.474 26.2508 748.202 25.9769 748.003 25.6226C747.809 25.2629 747.713 24.8478 747.713 24.3773C747.713 23.9124 747.812 23.5028 748.011 23.1486C748.216 22.7888 748.493 22.5148 748.842 22.3267C749.19 22.1329 749.581 22.0361 750.012 22.0361C750.444 22.0361 750.834 22.1329 751.183 22.3267C751.532 22.5148 751.806 22.786 752.005 23.1403C752.21 23.4945 752.312 23.9068 752.312 24.3773C752.312 24.8478 752.207 25.2629 751.996 25.6226C751.792 25.9769 751.512 26.2508 751.158 26.4445C750.804 26.6383 750.411 26.7351 749.979 26.7351ZM749.979 26.0709C750.25 26.0709 750.505 26.0073 750.743 25.88C750.981 25.7527 751.172 25.5617 751.316 25.3071C751.465 25.0525 751.54 24.7426 751.54 24.3773C751.54 24.012 751.468 23.702 751.324 23.4474C751.18 23.1928 750.992 23.0047 750.759 22.8829C750.527 22.7556 750.275 22.6919 750.004 22.6919C749.727 22.6919 749.473 22.7556 749.24 22.8829C749.013 23.0047 748.831 23.1928 748.692 23.4474C748.554 23.702 748.485 24.012 748.485 24.3773C748.485 24.7481 748.551 25.0608 748.684 25.3154C748.822 25.57 749.005 25.761 749.232 25.8883C749.459 26.0101 749.708 26.0709 749.979 26.0709ZM757.34 22.1108V26.6604H756.585V25.9879C756.441 26.2204 756.239 26.403 755.979 26.5359C755.724 26.6632 755.442 26.7268 755.132 26.7268C754.778 26.7268 754.459 26.6549 754.177 26.511C753.895 26.3615 753.671 26.1401 753.505 25.8468C753.344 25.5534 753.264 25.1964 753.264 24.7758V22.1108H754.011V24.6762C754.011 25.1245 754.124 25.4704 754.351 25.7139C754.578 25.9519 754.888 26.0709 755.281 26.0709C755.685 26.0709 756.004 25.9464 756.236 25.6973C756.468 25.4483 756.585 25.0857 756.585 24.6098V22.1108H757.34ZM662.368 34.9493C662.517 34.6892 662.739 34.4733 663.032 34.3017C663.331 34.1246 663.677 34.0361 664.07 34.0361C664.474 34.0361 664.839 34.1329 665.166 34.3267C665.498 34.5204 665.758 34.7943 665.946 35.1486C666.134 35.4973 666.228 35.9041 666.228 36.369C666.228 36.8284 666.134 37.238 665.946 37.5977C665.758 37.9575 665.498 38.237 665.166 38.4362C664.839 38.6355 664.474 38.7351 664.07 38.7351C663.682 38.7351 663.339 38.6493 663.04 38.4778C662.747 38.3006 662.523 38.082 662.368 37.8219V40.819H661.612V34.1108H662.368V34.9493ZM665.456 36.369C665.456 36.0258 665.387 35.727 665.249 35.4724C665.11 35.2178 664.922 35.024 664.684 34.8912C664.452 34.7584 664.194 34.6919 663.912 34.6919C663.635 34.6919 663.378 34.7611 663.14 34.8995C662.907 35.0323 662.719 35.2288 662.575 35.489C662.437 35.7436 662.368 36.0397 662.368 36.3773C662.368 36.7205 662.437 37.0221 662.575 37.2822C662.719 37.5368 662.907 37.7333 663.14 37.8717C663.378 38.0045 663.635 38.0709 663.912 38.0709C664.194 38.0709 664.452 38.0045 664.684 37.8717C664.922 37.7333 665.11 37.5368 665.249 37.2822C665.387 37.0221 665.456 36.7177 665.456 36.369ZM666.94 36.369C666.94 35.9041 667.034 35.4973 667.223 35.1486C667.411 34.7943 667.668 34.5204 667.995 34.3267C668.327 34.1329 668.695 34.0361 669.099 34.0361C669.497 34.0361 669.843 34.1219 670.137 34.2934C670.43 34.465 670.649 34.6809 670.793 34.941V34.1108H671.556V38.6604H670.793V37.8136C670.643 38.0792 670.419 38.3006 670.12 38.4778C669.827 38.6493 669.484 38.7351 669.091 38.7351C668.687 38.7351 668.321 38.6355 667.995 38.4362C667.668 38.237 667.411 37.9575 667.223 37.5977C667.034 37.238 666.94 36.8284 666.94 36.369ZM670.793 36.3773C670.793 36.0341 670.723 35.7353 670.585 35.4807C670.447 35.2261 670.258 35.0323 670.02 34.8995C669.788 34.7611 669.531 34.6919 669.248 34.6919C668.966 34.6919 668.709 34.7584 668.476 34.8912C668.244 35.024 668.058 35.2178 667.92 35.4724C667.782 35.727 667.712 36.0258 667.712 36.369C667.712 36.7177 667.782 37.0221 667.92 37.2822C668.058 37.5368 668.244 37.7333 668.476 37.8717C668.709 38.0045 668.966 38.0709 669.248 38.0709C669.531 38.0709 669.788 38.0045 670.02 37.8717C670.258 37.7333 670.447 37.5368 670.585 37.2822C670.723 37.0221 670.793 36.7205 670.793 36.3773ZM676.752 34.1108L674.012 40.8024H673.232L674.128 38.6106L672.293 34.1108H673.132L674.56 37.797L675.971 34.1108H676.752ZM680.646 34.7335V37.4151C680.646 37.6365 680.693 37.7942 680.787 37.8883C680.881 37.9769 681.045 38.0211 681.277 38.0211H681.833V38.6604H681.153C680.732 38.6604 680.416 38.5635 680.206 38.3698C679.996 38.1761 679.891 37.8579 679.891 37.4151V34.7335H679.301V34.1108H679.891V32.9651H680.646V34.1108H681.833V34.7335H680.646ZM685.007 34.0278C685.35 34.0278 685.66 34.1025 685.937 34.2519C686.214 34.3958 686.429 34.6145 686.584 34.9078C686.745 35.2011 686.825 35.5581 686.825 35.9788V38.6604H686.078V36.0867C686.078 35.6329 685.964 35.2869 685.738 35.0489C685.511 34.8054 685.201 34.6836 684.808 34.6836C684.409 34.6836 684.091 34.8082 683.853 35.0572C683.62 35.3063 683.504 35.6688 683.504 36.1448V38.6604H682.749V32.5168H683.504V34.7584C683.654 34.5259 683.858 34.346 684.119 34.2187C684.384 34.0914 684.68 34.0278 685.007 34.0278ZM692.21 36.2113C692.21 36.3552 692.202 36.5074 692.185 36.6679H688.549C688.577 37.1162 688.729 37.4677 689.006 37.7223C689.288 37.9713 689.628 38.0959 690.027 38.0959C690.353 38.0959 690.625 38.0211 690.84 37.8717C691.062 37.7167 691.217 37.5119 691.305 37.2573H692.119C691.997 37.6946 691.754 38.0516 691.388 38.3283C691.023 38.5995 690.569 38.7351 690.027 38.7351C689.595 38.7351 689.208 38.6383 688.865 38.4445C688.527 38.2508 688.261 37.9769 688.068 37.6226C687.874 37.2629 687.777 36.8478 687.777 36.3773C687.777 35.9068 687.871 35.4945 688.059 35.1403C688.247 34.786 688.51 34.5148 688.848 34.3267C689.191 34.1329 689.584 34.0361 690.027 34.0361C690.459 34.0361 690.84 34.1302 691.173 34.3183C691.505 34.5065 691.759 34.7667 691.936 35.0988C692.119 35.4253 692.21 35.7961 692.21 36.2113ZM691.43 36.0535C691.43 35.7657 691.366 35.5194 691.239 35.3146C691.112 35.1043 690.937 34.9465 690.716 34.8414C690.5 34.7307 690.259 34.6753 689.994 34.6753C689.612 34.6753 689.285 34.7971 689.014 35.0406C688.748 35.2842 688.596 35.6218 688.557 36.0535H691.43ZM696.176 34.9493C696.326 34.6892 696.547 34.4733 696.841 34.3017C697.14 34.1246 697.485 34.0361 697.878 34.0361C698.282 34.0361 698.648 34.1329 698.974 34.3267C699.306 34.5204 699.567 34.7943 699.755 35.1486C699.943 35.4973 700.037 35.9041 700.037 36.369C700.037 36.8284 699.943 37.238 699.755 37.5977C699.567 37.9575 699.306 38.237 698.974 38.4362C698.648 38.6355 698.282 38.7351 697.878 38.7351C697.491 38.7351 697.148 38.6493 696.849 38.4778C696.556 38.3006 696.331 38.082 696.176 37.8219V40.819H695.421V34.1108H696.176V34.9493ZM699.265 36.369C699.265 36.0258 699.196 35.727 699.057 35.4724C698.919 35.2178 698.731 35.024 698.493 34.8912C698.26 34.7584 698.003 34.6919 697.721 34.6919C697.444 34.6919 697.187 34.7611 696.949 34.8995C696.716 35.0323 696.528 35.2288 696.384 35.489C696.246 35.7436 696.176 36.0397 696.176 36.3773C696.176 36.7205 696.246 37.0221 696.384 37.2822C696.528 37.5368 696.716 37.7333 696.949 37.8717C697.187 38.0045 697.444 38.0709 697.721 38.0709C698.003 38.0709 698.26 38.0045 698.493 37.8717C698.731 37.7333 698.919 37.5368 699.057 37.2822C699.196 37.0221 699.265 36.7177 699.265 36.369ZM701.787 34.8497C701.92 34.5896 702.108 34.3875 702.351 34.2436C702.601 34.0997 702.902 34.0278 703.256 34.0278V34.8082H703.057C702.21 34.8082 701.787 35.2676 701.787 36.1863V38.6604H701.031V34.1108H701.787V34.8497ZM704.519 33.3719C704.375 33.3719 704.253 33.3221 704.153 33.2225C704.054 33.1228 704.004 33.0011 704.004 32.8572C704.004 32.7133 704.054 32.5915 704.153 32.4919C704.253 32.3922 704.375 32.3424 704.519 32.3424C704.657 32.3424 704.773 32.3922 704.867 32.4919C704.967 32.5915 705.017 32.7133 705.017 32.8572C705.017 33.0011 704.967 33.1228 704.867 33.2225C704.773 33.3221 704.657 33.3719 704.519 33.3719ZM704.884 34.1108V38.6604H704.129V34.1108H704.884ZM705.889 36.3773C705.889 35.9068 705.983 35.4973 706.172 35.1486C706.36 34.7943 706.62 34.5204 706.952 34.3267C707.29 34.1329 707.674 34.0361 708.106 34.0361C708.665 34.0361 709.124 34.1717 709.484 34.4429C709.85 34.7141 710.09 35.0905 710.207 35.572H709.393C709.315 35.2952 709.163 35.0766 708.936 34.9161C708.715 34.7556 708.438 34.6753 708.106 34.6753C707.674 34.6753 707.326 34.8248 707.06 35.1237C706.794 35.417 706.661 35.8349 706.661 36.3773C706.661 36.9252 706.794 37.3487 707.06 37.6475C707.326 37.9464 707.674 38.0959 708.106 38.0959C708.438 38.0959 708.715 38.0184 708.936 37.8634C709.158 37.7084 709.31 37.487 709.393 37.1992H710.207C710.085 37.6641 709.841 38.0377 709.476 38.32C709.111 38.5968 708.654 38.7351 708.106 38.7351C707.674 38.7351 707.29 38.6383 706.952 38.4445C706.62 38.2508 706.36 37.9769 706.172 37.6226C705.983 37.2684 705.889 36.8533 705.889 36.3773ZM715.366 36.2113C715.366 36.3552 715.357 36.5074 715.341 36.6679H711.704C711.732 37.1162 711.884 37.4677 712.161 37.7223C712.443 37.9713 712.784 38.0959 713.182 38.0959C713.509 38.0959 713.78 38.0211 713.996 37.8717C714.217 37.7167 714.372 37.5119 714.461 37.2573H715.274C715.153 37.6946 714.909 38.0516 714.544 38.3283C714.178 38.5995 713.725 38.7351 713.182 38.7351C712.751 38.7351 712.363 38.6383 712.02 38.4445C711.682 38.2508 711.417 37.9769 711.223 37.6226C711.029 37.2629 710.932 36.8478 710.932 36.3773C710.932 35.9068 711.026 35.4945 711.215 35.1403C711.403 34.786 711.666 34.5148 712.003 34.3267C712.346 34.1329 712.739 34.0361 713.182 34.0361C713.614 34.0361 713.996 34.1302 714.328 34.3183C714.66 34.5065 714.915 34.7667 715.092 35.0988C715.274 35.4253 715.366 35.7961 715.366 36.2113ZM714.585 36.0535C714.585 35.7657 714.522 35.5194 714.394 35.3146C714.267 35.1043 714.093 34.9465 713.871 34.8414C713.655 34.7307 713.415 34.6753 713.149 34.6753C712.767 34.6753 712.441 34.7971 712.169 35.0406C711.904 35.2842 711.751 35.6218 711.713 36.0535H714.585ZM722.495 34.1108L719.755 40.8024H718.975L719.871 38.6106L718.037 34.1108H718.875L720.303 37.797L721.715 34.1108H722.495ZM725.239 38.7351C724.812 38.7351 724.425 38.6383 724.076 38.4445C723.733 38.2508 723.462 37.9769 723.263 37.6226C723.069 37.2629 722.972 36.8478 722.972 36.3773C722.972 35.9124 723.072 35.5028 723.271 35.1486C723.476 34.7888 723.753 34.5148 724.101 34.3267C724.45 34.1329 724.84 34.0361 725.272 34.0361C725.704 34.0361 726.094 34.1329 726.442 34.3267C726.791 34.5148 727.065 34.786 727.264 35.1403C727.469 35.4945 727.572 35.9068 727.572 36.3773C727.572 36.8478 727.466 37.2629 727.256 37.6226C727.051 37.9769 726.772 38.2508 726.418 38.4445C726.063 38.6383 725.67 38.7351 725.239 38.7351ZM725.239 38.0709C725.51 38.0709 725.764 38.0073 726.002 37.88C726.24 37.7527 726.431 37.5617 726.575 37.3071C726.725 37.0525 726.799 36.7426 726.799 36.3773C726.799 36.012 726.727 35.702 726.584 35.4474C726.44 35.1928 726.252 35.0047 726.019 34.8829C725.787 34.7556 725.535 34.6919 725.264 34.6919C724.987 34.6919 724.732 34.7556 724.5 34.8829C724.273 35.0047 724.09 35.1928 723.952 35.4474C723.813 35.702 723.744 36.012 723.744 36.3773C723.744 36.7481 723.811 37.0608 723.943 37.3154C724.082 37.57 724.265 37.761 724.491 37.8883C724.718 38.0101 724.967 38.0709 725.239 38.0709ZM732.6 34.1108V38.6604H731.844V37.9879C731.7 38.2204 731.498 38.403 731.238 38.5359C730.984 38.6632 730.701 38.7268 730.391 38.7268C730.037 38.7268 729.719 38.6549 729.437 38.511C729.154 38.3615 728.93 38.1401 728.764 37.8468C728.604 37.5534 728.523 37.1964 728.523 36.7758V34.1108H729.271V36.6762C729.271 37.1245 729.384 37.4704 729.611 37.7139C729.838 37.9519 730.148 38.0709 730.541 38.0709C730.945 38.0709 731.263 37.9464 731.496 37.6973C731.728 37.4483 731.844 37.0857 731.844 36.6098V34.1108H732.6ZM736.844 32.5168V38.6604H736.089V32.5168H736.844ZM740.116 38.7351C739.69 38.7351 739.302 38.6383 738.954 38.4445C738.611 38.2508 738.339 37.9769 738.14 37.6226C737.946 37.2629 737.85 36.8478 737.85 36.3773C737.85 35.9124 737.949 35.5028 738.148 35.1486C738.353 34.7888 738.63 34.5148 738.979 34.3267C739.327 34.1329 739.718 34.0361 740.149 34.0361C740.581 34.0361 740.971 34.1329 741.32 34.3267C741.669 34.5148 741.943 34.786 742.142 35.1403C742.347 35.4945 742.449 35.9068 742.449 36.3773C742.449 36.8478 742.344 37.2629 742.134 37.6226C741.929 37.9769 741.649 38.2508 741.295 38.4445C740.941 38.6383 740.548 38.7351 740.116 38.7351ZM740.116 38.0709C740.387 38.0709 740.642 38.0073 740.88 37.88C741.118 37.7527 741.309 37.5617 741.453 37.3071C741.602 37.0525 741.677 36.7426 741.677 36.3773C741.677 36.012 741.605 35.702 741.461 35.4474C741.317 35.1928 741.129 35.0047 740.897 34.8829C740.664 34.7556 740.412 34.6919 740.141 34.6919C739.864 34.6919 739.61 34.7556 739.377 34.8829C739.15 35.0047 738.968 35.1928 738.829 35.4474C738.691 35.702 738.622 36.012 738.622 36.3773C738.622 36.7481 738.688 37.0608 738.821 37.3154C738.959 37.57 739.142 37.761 739.369 37.8883C739.596 38.0101 739.845 38.0709 740.116 38.0709ZM743.16 36.3773C743.16 35.9068 743.254 35.4973 743.442 35.1486C743.631 34.7943 743.891 34.5204 744.223 34.3267C744.56 34.1329 744.945 34.0361 745.377 34.0361C745.936 34.0361 746.395 34.1717 746.755 34.4429C747.12 34.7141 747.361 35.0905 747.477 35.572H746.664C746.586 35.2952 746.434 35.0766 746.207 34.9161C745.986 34.7556 745.709 34.6753 745.377 34.6753C744.945 34.6753 744.596 34.8248 744.331 35.1237C744.065 35.417 743.932 35.8349 743.932 36.3773C743.932 36.9252 744.065 37.3487 744.331 37.6475C744.596 37.9464 744.945 38.0959 745.377 38.0959C745.709 38.0959 745.986 38.0184 746.207 37.8634C746.428 37.7084 746.581 37.487 746.664 37.1992H747.477C747.355 37.6641 747.112 38.0377 746.747 38.32C746.381 38.5968 745.925 38.7351 745.377 38.7351C744.945 38.7351 744.56 38.6383 744.223 38.4445C743.891 38.2508 743.631 37.9769 743.442 37.6226C743.254 37.2684 743.16 36.8533 743.16 36.3773ZM751.026 38.6604L749.241 36.6513V38.6604H748.485V32.5168H749.241V36.1282L750.993 34.1108H752.047L749.905 36.3773L752.055 38.6604H751.026Z" fill="#221F20"/>
</g>
<rect x="0.5" y="4.5" width="909" height="191.535" rx="7.5" stroke="#E0E0E0"/>
<defs>
<filter id="filter0_d_2068_114047" x="704.199" y="128.08" width="147.492" height="68.8317" filterUnits="userSpaceOnUse" color-interpolation-filters="sRGB">
<feFlood flood-opacity="0" result="BackgroundImageFix"/>
<feColorMatrix in="SourceAlpha" type="matrix" values="0 0 0 0 0 0 0 0 0 0 0 0 0 0 0 0 0 0 127 0" result="hardAlpha"/>
<feOffset/>
<feGaussianBlur stdDeviation="6.64176"/>
<feComposite in2="hardAlpha" operator="out"/>
<feColorMatrix type="matrix" values="0 0 0 0 0.172549 0 0 0 0 0.243137 0 0 0 0 0.313726 0 0 0 0.2 0"/>
<feBlend mode="normal" in2="BackgroundImageFix" result="effect1_dropShadow_2068_114047"/>
<feBlend mode="normal" in="SourceGraphic" in2="effect1_dropShadow_2068_114047" result="shape"/>
</filter>
<filter id="filter1_d_2068_114047" x="633.225" y="0" width="146.642" height="59.3208" filterUnits="userSpaceOnUse" color-interpolation-filters="sRGB">
<feFlood flood-opacity="0" result="BackgroundImageFix"/>
<feColorMatrix in="SourceAlpha" type="matrix" values="0 0 0 0 0 0 0 0 0 0 0 0 0 0 0 0 0 0 127 0" result="hardAlpha"/>
<feOffset/>
<feGaussianBlur stdDeviation="8"/>
<feComposite in2="hardAlpha" operator="out"/>
<feColorMatrix type="matrix" values="0 0 0 0 0.384314 0 0 0 0 0.498039 0 0 0 0 0.67451 0 0 0 0.2 0"/>
<feBlend mode="normal" in2="BackgroundImageFix" result="effect1_dropShadow_2068_114047"/>
<feBlend mode="normal" in="SourceGraphic" in2="effect1_dropShadow_2068_114047" result="shape"/>
</filter>
<linearGradient id="paint0_linear_2068_114047" x1="624.751" y1="93.7271" x2="873.743" y2="93.7271" gradientUnits="userSpaceOnUse">
<stop stop-color="#5DC4F0"/>
<stop offset="0.456572" stop-color="#CC5355"/>
<stop offset="0.751613" stop-color="#6FD2A8"/>
<stop offset="1" stop-color="#5ECAF5"/>
</linearGradient>
</defs>
</svg>
