<svg width="225" height="50" viewBox="0 0 225 50" fill="none" xmlns="http://www.w3.org/2000/svg">
<path d="M5.3784 0.448242L0.666016 2.23242L5.3784 3.98895V0.448242Z" fill="#77520C"/>
<path fill-rule="evenodd" clip-rule="evenodd" d="M4.19386 2.19336L0.626953 2.1934V49.2109H208.223V2.19336H4.19386ZM208.244 49.1572H224.555L208.244 25.7153L224.555 2.27344H208.244V25.7153V49.1572Z" fill="#CFEAED"/>
<path d="M37.0291 24.5185C37.9493 24.5185 38.6251 23.6403 38.1276 22.8661C37.193 21.4101 35.5682 20.4482 33.7221 20.4482C30.8234 20.4482 28.474 22.817 28.474 25.7376C28.474 28.6582 30.8234 31.03 33.7221 31.03C35.5682 31.03 37.193 30.068 38.1276 28.612C38.6251 27.8378 37.9493 26.9596 37.0291 26.9596H36.9975C36.5575 26.9596 36.1692 27.2283 35.8875 27.5692C35.3698 28.1931 34.5905 28.5889 33.7221 28.5889C32.1606 28.5889 30.8953 27.312 30.8953 25.7405C30.8953 24.169 32.1606 22.8921 33.7221 22.8921C34.5905 22.8921 35.3698 23.2879 35.8875 23.9119C36.1692 24.2528 36.5575 24.5214 36.9975 24.5214H37.0291V24.5185Z" fill="url(#paint0_linear_6160_209447)"/>
<path fill-rule="evenodd" clip-rule="evenodd" d="M71.0412 31.3142C73.9513 31.3142 76.3094 28.9454 76.3094 26.0219C76.3094 23.0984 73.9513 20.7295 71.0412 20.7295C68.131 20.7295 65.7729 23.0984 65.7729 26.0219C65.7729 28.9454 68.131 31.3142 71.0412 31.3142ZM71.0412 28.8732C72.6084 28.8732 73.8765 27.5963 73.8765 26.0248C73.8765 24.4532 72.6055 23.1764 71.0412 23.1764C69.4739 23.1764 68.2058 24.4532 68.2058 26.0248C68.2058 27.5963 69.4739 28.8732 71.0412 28.8732Z" fill="url(#paint1_linear_6160_209447)"/>
<path fill-rule="evenodd" clip-rule="evenodd" d="M45.6999 31.3153C48.61 31.3153 50.968 28.9464 50.968 26.0229C50.968 23.0994 48.61 20.7334 45.6999 20.7334C42.7897 20.7334 40.4316 23.1023 40.4316 26.0258C40.4316 28.9493 42.7926 31.3153 45.6999 31.3153ZM45.6999 28.8742C47.2671 28.8742 48.5353 27.5973 48.5353 26.0258C48.5353 24.4543 47.2642 23.1774 45.6999 23.1774C44.1355 23.1774 42.8645 24.4543 42.8645 26.0258C42.8645 27.5973 44.1355 28.8742 45.6999 28.8742Z" fill="url(#paint2_linear_6160_209447)"/>
<path fill-rule="evenodd" clip-rule="evenodd" d="M58.3725 31.3142C59.3646 31.3142 60.2906 31.0398 61.0813 30.5602C61.0439 31.4009 60.7996 32.0624 60.3452 32.542C59.8506 33.0793 59.1806 33.348 58.3293 33.348C57.7945 33.348 57.3084 33.1977 56.8685 32.8944C56.5867 32.7095 56.3567 32.4727 56.1784 32.1867C56.0058 31.9122 55.6751 31.7533 55.3732 31.8747L53.8548 32.4842C53.573 32.5969 53.4264 32.9175 53.5701 33.1862C53.6736 33.3797 53.8002 33.5704 53.9468 33.764C54.22 34.1222 54.5651 34.4457 54.9764 34.7346C55.3875 35.0379 55.8678 35.2777 56.4171 35.4568C56.9807 35.6504 57.6162 35.7457 58.3293 35.7457C59.1259 35.7457 59.8448 35.6157 60.489 35.3528C61.1475 35.1044 61.7083 34.7404 62.177 34.258C62.6428 33.79 63.008 33.2122 63.2668 32.5218C63.5286 31.8458 63.6407 31.0831 63.6407 30.228V21.3015C63.6407 20.9866 63.3848 20.7295 63.0713 20.7295H61.6478C61.3344 20.7295 61.0784 20.9866 61.0784 21.3015V21.4604V21.4806C60.2877 21.004 59.3617 20.7295 58.3725 20.7295C55.4623 20.7295 53.1042 23.0984 53.1042 26.0219C53.1042 28.9454 55.4623 31.3142 58.3725 31.3142ZM58.3438 28.8732C59.9023 28.8732 61.1648 27.5963 61.1648 26.0248C61.1648 24.4532 59.9023 23.1764 58.3438 23.1764C56.7851 23.1764 55.5227 24.4532 55.5227 26.0248C55.5227 27.5963 56.7851 28.8732 58.3438 28.8732Z" fill="url(#paint3_linear_6160_209447)"/>
<path d="M79.2038 25.8642C79.3958 24.7762 79.8171 23.8002 80.4678 22.9362C81.1291 22.0722 81.9344 21.4002 82.8838 20.9202C83.8438 20.4296 84.8411 20.1842 85.8758 20.1842C87.0598 20.1842 88.0624 20.4776 88.8838 21.0642C89.7158 21.6402 90.2438 22.4616 90.4678 23.5282H88.2758C88.0731 22.9736 87.7424 22.5576 87.2838 22.2802C86.8251 21.9922 86.2598 21.8482 85.5878 21.8482C84.8518 21.8482 84.1638 22.0136 83.5238 22.3442C82.8944 22.6749 82.3611 23.1442 81.9238 23.7522C81.4971 24.3602 81.2144 25.0642 81.0758 25.8642C81.0224 26.2162 80.9958 26.5149 80.9958 26.7602C80.9958 27.7202 81.2838 28.4829 81.8598 29.0482C82.4358 29.6136 83.2038 29.8962 84.1638 29.8962C84.8358 29.8962 85.4544 29.7576 86.0198 29.4802C86.5851 29.1922 87.0598 28.7709 87.4438 28.2162H89.6358C89.0278 29.2829 88.2118 30.1042 87.1878 30.6802C86.1638 31.2562 85.0598 31.5442 83.8758 31.5442C82.9584 31.5442 82.1371 31.3522 81.4118 30.9682C80.6864 30.5842 80.1211 30.0456 79.7158 29.3522C79.3104 28.6589 79.1078 27.8589 79.1078 26.9522C79.1078 26.6109 79.1398 26.2482 79.2038 25.8642ZM95.0508 31.5922C94.3041 31.5922 93.6481 31.4376 93.0828 31.1282C92.5174 30.8189 92.0748 30.3816 91.7548 29.8162C91.4454 29.2509 91.2908 28.6056 91.2908 27.8802C91.2908 26.8882 91.5201 25.9816 91.9788 25.1602C92.4481 24.3389 93.0881 23.6882 93.8988 23.2082C94.7201 22.7282 95.6321 22.4882 96.6348 22.4882C97.3814 22.4882 98.0428 22.6482 98.6188 22.9682C99.1948 23.2776 99.6428 23.7149 99.9628 24.2802C100.293 24.8349 100.459 25.4802 100.459 26.2162C100.459 27.2082 100.219 28.1149 99.7388 28.9362C99.2588 29.7576 98.6081 30.4082 97.7868 30.8882C96.9654 31.3576 96.0534 31.5922 95.0508 31.5922ZM95.2748 30.0562C95.8828 30.0562 96.4374 29.8856 96.9388 29.5442C97.4508 29.1922 97.8508 28.7336 98.1388 28.1682C98.4268 27.5922 98.5708 26.9789 98.5708 26.3282C98.5708 25.5922 98.3628 25.0269 97.9468 24.6322C97.5308 24.2269 97.0081 24.0242 96.3788 24.0242C95.7601 24.0242 95.2054 24.2002 94.7148 24.5522C94.2348 24.8936 93.8561 25.3576 93.5788 25.9442C93.3121 26.5202 93.1788 27.1389 93.1788 27.8002C93.1788 28.5149 93.3708 29.0696 93.7548 29.4642C94.1494 29.8589 94.6561 30.0562 95.2748 30.0562ZM107.43 22.4882C108.358 22.4882 109.094 22.7389 109.638 23.2402C110.193 23.7309 110.47 24.4402 110.47 25.3682C110.47 25.6029 110.443 25.8962 110.39 26.2482L109.462 31.4482H107.654L108.534 26.5202C108.577 26.2216 108.598 26.0082 108.598 25.8802C108.598 25.2936 108.433 24.8456 108.102 24.5362C107.782 24.2269 107.334 24.0722 106.758 24.0722C106.065 24.0722 105.478 24.2856 104.998 24.7122C104.529 25.1282 104.23 25.7309 104.102 26.5202V26.4722L103.222 31.4482H101.398L102.95 22.6322H104.774L104.598 23.6562C104.961 23.2936 105.387 23.0109 105.878 22.8082C106.379 22.5949 106.897 22.4882 107.43 22.4882ZM114.349 29.0002C114.327 29.1496 114.317 29.2456 114.317 29.2882C114.317 29.5122 114.386 29.6776 114.525 29.7842C114.663 29.8802 114.893 29.9282 115.213 29.9282H116.333L116.061 31.4482H114.621C113.917 31.4482 113.378 31.3096 113.005 31.0322C112.631 30.7442 112.445 30.2909 112.445 29.6722C112.445 29.4376 112.466 29.2136 112.509 29.0002L113.373 24.1202H112.333L112.589 22.6322H113.645L114.029 20.4402H115.869L115.485 22.6322H117.613L117.357 24.1202H115.213L114.349 29.0002ZM120.846 24.1842C121.208 23.6509 121.635 23.2349 122.126 22.9362C122.627 22.6376 123.182 22.4882 123.79 22.4882L123.454 24.3762H122.99C122.286 24.3762 121.72 24.5522 121.294 24.9042C120.867 25.2562 120.568 25.8642 120.398 26.7282L119.566 31.4482H117.742L119.294 22.6322H121.118L120.846 24.1842ZM124.058 27.0002C124.218 26.1149 124.538 25.3309 125.018 24.6482C125.509 23.9656 126.106 23.4376 126.81 23.0642C127.514 22.6802 128.25 22.4882 129.018 22.4882C129.712 22.4882 130.293 22.6269 130.762 22.9042C131.232 23.1709 131.584 23.5069 131.818 23.9122L132.042 22.6322H133.882L132.33 31.4482H130.49L130.73 30.1362C130.346 30.5522 129.861 30.8989 129.274 31.1762C128.698 31.4536 128.069 31.5922 127.386 31.5922C126.725 31.5922 126.133 31.4429 125.61 31.1442C125.098 30.8456 124.693 30.4242 124.394 29.8802C124.106 29.3256 123.962 28.6909 123.962 27.9762C123.962 27.6562 123.994 27.3309 124.058 27.0002ZM131.274 27.0322C131.317 26.8296 131.338 26.6109 131.338 26.3762C131.338 25.6616 131.125 25.1016 130.698 24.6962C130.282 24.2802 129.76 24.0722 129.13 24.0722C128.661 24.0722 128.202 24.1896 127.754 24.4242C127.306 24.6482 126.917 24.9842 126.586 25.4322C126.256 25.8696 126.037 26.3922 125.93 27.0002C125.888 27.2029 125.866 27.4216 125.866 27.6562C125.866 28.3816 126.074 28.9576 126.49 29.3842C126.917 29.8002 127.445 30.0082 128.074 30.0082C128.544 30.0082 129.002 29.8909 129.45 29.6562C129.898 29.4216 130.288 29.0802 130.618 28.6322C130.949 28.1736 131.168 27.6402 131.274 27.0322ZM134.902 27.0322C135.062 26.1256 135.382 25.3309 135.862 24.6482C136.353 23.9549 136.955 23.4216 137.67 23.0482C138.395 22.6749 139.179 22.4882 140.022 22.4882C141.089 22.4882 141.926 22.7442 142.534 23.2562C143.142 23.7576 143.489 24.4776 143.574 25.4162H141.606C141.521 24.9789 141.323 24.6376 141.014 24.3922C140.705 24.1469 140.283 24.0242 139.75 24.0242C139.003 24.0242 138.363 24.2909 137.83 24.8242C137.297 25.3469 136.945 26.0829 136.774 27.0322C136.721 27.3736 136.694 27.6509 136.694 27.8642C136.694 28.5682 136.87 29.1122 137.222 29.4962C137.574 29.8696 138.065 30.0562 138.694 30.0562C139.75 30.0562 140.529 29.5922 141.03 28.6642H142.998C142.582 29.5602 141.974 30.2749 141.174 30.8082C140.385 31.3309 139.467 31.5922 138.422 31.5922C137.313 31.5922 136.433 31.2776 135.782 30.6482C135.131 30.0082 134.806 29.1442 134.806 28.0562C134.806 27.7256 134.838 27.3842 134.902 27.0322ZM146.88 29.0002C146.858 29.1496 146.848 29.2456 146.848 29.2882C146.848 29.5122 146.917 29.6776 147.056 29.7842C147.194 29.8802 147.424 29.9282 147.744 29.9282H148.864L148.592 31.4482H147.152C146.448 31.4482 145.909 31.3096 145.536 31.0322C145.162 30.7442 144.976 30.2909 144.976 29.6722C144.976 29.4376 144.997 29.2136 145.04 29.0002L145.904 24.1202H144.864L145.12 22.6322H146.176L146.56 20.4402H148.4L148.016 22.6322H150.144L149.888 24.1202H147.744L146.88 29.0002Z" fill="#343434"/>
<defs>
<linearGradient id="paint0_linear_6160_209447" x1="29.0107" y1="20.4482" x2="36.0541" y2="21.933" gradientUnits="userSpaceOnUse">
<stop stop-color="#333333"/>
<stop offset="0.505208" stop-color="#4F4F4F"/>
<stop offset="1" stop-color="#333333"/>
</linearGradient>
<linearGradient id="paint1_linear_6160_209447" x1="66.3487" y1="20.7295" x2="73.8564" y2="22.4267" gradientUnits="userSpaceOnUse">
<stop stop-color="#333333"/>
<stop offset="0.505208" stop-color="#4F4F4F"/>
<stop offset="1" stop-color="#333333"/>
</linearGradient>
<linearGradient id="paint2_linear_6160_209447" x1="41.0074" y1="20.7334" x2="48.5149" y2="22.4311" gradientUnits="userSpaceOnUse">
<stop stop-color="#333333"/>
<stop offset="0.505208" stop-color="#4F4F4F"/>
<stop offset="1" stop-color="#333333"/>
</linearGradient>
<linearGradient id="paint3_linear_6160_209447" x1="53.68" y1="20.7295" x2="61.376" y2="21.9559" gradientUnits="userSpaceOnUse">
<stop stop-color="#333333"/>
<stop offset="0.505208" stop-color="#4F4F4F"/>
<stop offset="1" stop-color="#333333"/>
</linearGradient>
</defs>
</svg>
