<svg width="962" height="144" viewBox="0 0 962 144" fill="none" xmlns="http://www.w3.org/2000/svg">
<path d="M100.08 48.652V65.5H95.976V58.564H89.592V65.5H85.488V48.652H89.592V55.252H95.976V48.652H100.08ZM103.187 58.78C103.187 57.404 103.443 56.196 103.955 55.156C104.483 54.116 105.195 53.316 106.091 52.756C106.987 52.196 107.987 51.916 109.091 51.916C110.035 51.916 110.859 52.108 111.563 52.492C112.283 52.876 112.835 53.38 113.219 54.004V52.108H117.323V65.5H113.219V63.604C112.819 64.228 112.259 64.732 111.539 65.116C110.835 65.5 110.011 65.692 109.067 65.692C107.979 65.692 106.987 65.412 106.091 64.852C105.195 64.276 104.483 63.468 103.955 62.428C103.443 61.372 103.187 60.156 103.187 58.78ZM113.219 58.804C113.219 57.78 112.931 56.972 112.355 56.38C111.795 55.788 111.107 55.492 110.291 55.492C109.475 55.492 108.779 55.788 108.203 56.38C107.643 56.956 107.363 57.756 107.363 58.78C107.363 59.804 107.643 60.62 108.203 61.228C108.779 61.82 109.475 62.116 110.291 62.116C111.107 62.116 111.795 61.82 112.355 61.228C112.931 60.636 113.219 59.828 113.219 58.804ZM127.276 61.66L130.18 52.108H134.548L129.796 65.5H124.732L119.98 52.108H124.372L127.276 61.66ZM149.859 58.588C149.859 58.972 149.835 59.372 149.787 59.788H140.499C140.563 60.62 140.827 61.26 141.291 61.708C141.771 62.14 142.355 62.356 143.043 62.356C144.067 62.356 144.779 61.924 145.179 61.06H149.547C149.323 61.94 148.915 62.732 148.323 63.436C147.747 64.14 147.019 64.692 146.139 65.092C145.259 65.492 144.275 65.692 143.187 65.692C141.875 65.692 140.707 65.412 139.683 64.852C138.659 64.292 137.859 63.492 137.283 62.452C136.707 61.412 136.419 60.196 136.419 58.804C136.419 57.412 136.699 56.196 137.259 55.156C137.835 54.116 138.635 53.316 139.659 52.756C140.683 52.196 141.859 51.916 143.187 51.916C144.483 51.916 145.635 52.188 146.643 52.732C147.651 53.276 148.435 54.052 148.995 55.06C149.571 56.068 149.859 57.244 149.859 58.588ZM145.659 57.508C145.659 56.804 145.419 56.244 144.939 55.828C144.459 55.412 143.859 55.204 143.139 55.204C142.451 55.204 141.867 55.404 141.387 55.804C140.923 56.204 140.635 56.772 140.523 57.508H145.659ZM158.214 58.78C158.214 57.404 158.47 56.196 158.982 55.156C159.51 54.116 160.222 53.316 161.118 52.756C162.014 52.196 163.014 51.916 164.118 51.916C165.062 51.916 165.886 52.108 166.59 52.492C167.31 52.876 167.862 53.38 168.246 54.004V52.108H172.35V65.5H168.246V63.604C167.846 64.228 167.286 64.732 166.566 65.116C165.862 65.5 165.038 65.692 164.094 65.692C163.006 65.692 162.014 65.412 161.118 64.852C160.222 64.276 159.51 63.468 158.982 62.428C158.47 61.372 158.214 60.156 158.214 58.78ZM168.246 58.804C168.246 57.78 167.958 56.972 167.382 56.38C166.822 55.788 166.134 55.492 165.318 55.492C164.502 55.492 163.806 55.788 163.23 56.38C162.67 56.956 162.39 57.756 162.39 58.78C162.39 59.804 162.67 60.62 163.23 61.228C163.806 61.82 164.502 62.116 165.318 62.116C166.134 62.116 166.822 61.82 167.382 61.228C167.958 60.636 168.246 59.828 168.246 58.804ZM186.429 47.74V65.5H182.325V47.74H186.429ZM189.547 58.78C189.547 57.404 189.803 56.196 190.315 55.156C190.843 54.116 191.555 53.316 192.451 52.756C193.347 52.196 194.347 51.916 195.451 51.916C196.395 51.916 197.219 52.108 197.923 52.492C198.643 52.876 199.195 53.38 199.579 54.004V52.108H203.683V65.5H199.579V63.604C199.179 64.228 198.619 64.732 197.899 65.116C197.195 65.5 196.371 65.692 195.427 65.692C194.339 65.692 193.347 65.412 192.451 64.852C191.555 64.276 190.843 63.468 190.315 62.428C189.803 61.372 189.547 60.156 189.547 58.78ZM199.579 58.804C199.579 57.78 199.291 56.972 198.715 56.38C198.155 55.788 197.467 55.492 196.651 55.492C195.835 55.492 195.139 55.788 194.563 56.38C194.003 56.956 193.723 57.756 193.723 58.78C193.723 59.804 194.003 60.62 194.563 61.228C195.139 61.82 195.835 62.116 196.651 62.116C197.467 62.116 198.155 61.82 198.715 61.228C199.291 60.636 199.579 59.828 199.579 58.804ZM211.716 54.34C212.196 53.604 212.796 53.028 213.516 52.612C214.236 52.18 215.036 51.964 215.916 51.964V56.308H214.788C213.764 56.308 212.996 56.532 212.484 56.98C211.972 57.412 211.716 58.18 211.716 59.284V65.5H207.612V52.108H211.716V54.34ZM223.926 51.916C224.87 51.916 225.694 52.108 226.398 52.492C227.118 52.876 227.67 53.38 228.054 54.004V52.108H232.158V65.476C232.158 66.708 231.91 67.82 231.414 68.812C230.934 69.82 230.19 70.62 229.182 71.212C228.19 71.804 226.95 72.1 225.462 72.1C223.478 72.1 221.87 71.628 220.638 70.684C219.406 69.756 218.702 68.492 218.526 66.892H222.582C222.71 67.404 223.014 67.804 223.494 68.092C223.974 68.396 224.566 68.548 225.27 68.548C226.118 68.548 226.79 68.3 227.286 67.804C227.798 67.324 228.054 66.548 228.054 65.476V63.58C227.654 64.204 227.102 64.716 226.398 65.116C225.694 65.5 224.87 65.692 223.926 65.692C222.822 65.692 221.822 65.412 220.926 64.852C220.03 64.276 219.318 63.468 218.79 62.428C218.278 61.372 218.022 60.156 218.022 58.78C218.022 57.404 218.278 56.196 218.79 55.156C219.318 54.116 220.03 53.316 220.926 52.756C221.822 52.196 222.822 51.916 223.926 51.916ZM228.054 58.804C228.054 57.78 227.766 56.972 227.19 56.38C226.63 55.788 225.942 55.492 225.126 55.492C224.31 55.492 223.614 55.788 223.038 56.38C222.478 56.956 222.198 57.756 222.198 58.78C222.198 59.804 222.478 60.62 223.038 61.228C223.614 61.82 224.31 62.116 225.126 62.116C225.942 62.116 226.63 61.82 227.19 61.228C227.766 60.636 228.054 59.828 228.054 58.804ZM248.711 58.588C248.711 58.972 248.687 59.372 248.639 59.788H239.351C239.415 60.62 239.679 61.26 240.143 61.708C240.623 62.14 241.207 62.356 241.895 62.356C242.919 62.356 243.631 61.924 244.031 61.06H248.399C248.175 61.94 247.767 62.732 247.175 63.436C246.599 64.14 245.871 64.692 244.991 65.092C244.111 65.492 243.127 65.692 242.039 65.692C240.727 65.692 239.559 65.412 238.535 64.852C237.511 64.292 236.711 63.492 236.135 62.452C235.559 61.412 235.271 60.196 235.271 58.804C235.271 57.412 235.551 56.196 236.111 55.156C236.687 54.116 237.487 53.316 238.511 52.756C239.535 52.196 240.711 51.916 242.039 51.916C243.335 51.916 244.487 52.188 245.495 52.732C246.503 53.276 247.287 54.052 247.847 55.06C248.423 56.068 248.711 57.244 248.711 58.588ZM244.511 57.508C244.511 56.804 244.271 56.244 243.791 55.828C243.311 55.412 242.711 55.204 241.991 55.204C241.303 55.204 240.719 55.404 240.239 55.804C239.775 56.204 239.487 56.772 239.375 57.508H244.511ZM257.186 57.052C257.186 55.388 257.546 53.908 258.266 52.612C258.986 51.3 259.986 50.284 261.266 49.564C262.562 48.828 264.026 48.46 265.658 48.46C267.658 48.46 269.37 48.988 270.794 50.044C272.218 51.1 273.17 52.54 273.65 54.364H269.138C268.802 53.66 268.322 53.124 267.698 52.756C267.09 52.388 266.394 52.204 265.61 52.204C264.346 52.204 263.322 52.644 262.538 53.524C261.754 54.404 261.362 55.58 261.362 57.052C261.362 58.524 261.754 59.7 262.538 60.58C263.322 61.46 264.346 61.9 265.61 61.9C266.394 61.9 267.09 61.716 267.698 61.348C268.322 60.98 268.802 60.444 269.138 59.74H273.65C273.17 61.564 272.218 63.004 270.794 64.06C269.37 65.1 267.658 65.62 265.658 65.62C264.026 65.62 262.562 65.26 261.266 64.54C259.986 63.804 258.986 62.788 258.266 61.492C257.546 60.196 257.186 58.716 257.186 57.052ZM283.219 65.692C281.907 65.692 280.723 65.412 279.667 64.852C278.627 64.292 277.803 63.492 277.195 62.452C276.603 61.412 276.307 60.196 276.307 58.804C276.307 57.428 276.611 56.22 277.219 55.18C277.827 54.124 278.659 53.316 279.715 52.756C280.771 52.196 281.955 51.916 283.267 51.916C284.579 51.916 285.763 52.196 286.819 52.756C287.875 53.316 288.707 54.124 289.315 55.18C289.923 56.22 290.227 57.428 290.227 58.804C290.227 60.18 289.915 61.396 289.291 62.452C288.683 63.492 287.843 64.292 286.771 64.852C285.715 65.412 284.531 65.692 283.219 65.692ZM283.219 62.14C284.003 62.14 284.667 61.852 285.211 61.276C285.771 60.7 286.051 59.876 286.051 58.804C286.051 57.732 285.779 56.908 285.235 56.332C284.707 55.756 284.051 55.468 283.267 55.468C282.467 55.468 281.803 55.756 281.275 56.332C280.747 56.892 280.483 57.716 280.483 58.804C280.483 59.876 280.739 60.7 281.251 61.276C281.779 61.852 282.435 62.14 283.219 62.14ZM301.525 51.964C303.093 51.964 304.341 52.476 305.269 53.5C306.213 54.508 306.685 55.9 306.685 57.676V65.5H302.605V58.228C302.605 57.332 302.373 56.636 301.909 56.14C301.445 55.644 300.821 55.396 300.037 55.396C299.253 55.396 298.629 55.644 298.165 56.14C297.701 56.636 297.469 57.332 297.469 58.228V65.5H293.365V52.108H297.469V53.884C297.885 53.292 298.445 52.828 299.149 52.492C299.853 52.14 300.645 51.964 301.525 51.964ZM317.96 62.02V65.5H315.872C314.384 65.5 313.224 65.14 312.392 64.42C311.56 63.684 311.144 62.492 311.144 60.844V55.516H309.512V52.108H311.144V48.844H315.248V52.108H317.936V55.516H315.248V60.892C315.248 61.292 315.344 61.58 315.536 61.756C315.728 61.932 316.048 62.02 316.496 62.02H317.96ZM320.39 58.78C320.39 57.404 320.646 56.196 321.158 55.156C321.686 54.116 322.398 53.316 323.294 52.756C324.19 52.196 325.19 51.916 326.294 51.916C327.238 51.916 328.062 52.108 328.766 52.492C329.486 52.876 330.038 53.38 330.422 54.004V52.108H334.526V65.5H330.422V63.604C330.022 64.228 329.462 64.732 328.742 65.116C328.038 65.5 327.214 65.692 326.27 65.692C325.182 65.692 324.19 65.412 323.294 64.852C322.398 64.276 321.686 63.468 321.158 62.428C320.646 61.372 320.39 60.156 320.39 58.78ZM330.422 58.804C330.422 57.78 330.134 56.972 329.558 56.38C328.998 55.788 328.31 55.492 327.494 55.492C326.678 55.492 325.982 55.788 325.406 56.38C324.846 56.956 324.566 57.756 324.566 58.78C324.566 59.804 324.846 60.62 325.406 61.228C325.982 61.82 326.678 62.116 327.494 62.116C328.31 62.116 328.998 61.82 329.558 61.228C330.134 60.636 330.422 59.828 330.422 58.804ZM340.519 50.716C339.799 50.716 339.207 50.508 338.743 50.092C338.295 49.66 338.071 49.132 338.071 48.508C338.071 47.868 338.295 47.34 338.743 46.924C339.207 46.492 339.799 46.276 340.519 46.276C341.223 46.276 341.799 46.492 342.247 46.924C342.711 47.34 342.943 47.868 342.943 48.508C342.943 49.132 342.711 49.66 342.247 50.092C341.799 50.508 341.223 50.716 340.519 50.716ZM342.559 52.108V65.5H338.455V52.108H342.559ZM354.654 51.964C356.222 51.964 357.47 52.476 358.398 53.5C359.342 54.508 359.814 55.9 359.814 57.676V65.5H355.734V58.228C355.734 57.332 355.502 56.636 355.038 56.14C354.574 55.644 353.95 55.396 353.166 55.396C352.382 55.396 351.758 55.644 351.294 56.14C350.83 56.636 350.598 57.332 350.598 58.228V65.5H346.494V52.108H350.598V53.884C351.014 53.292 351.574 52.828 352.278 52.492C352.982 52.14 353.774 51.964 354.654 51.964ZM376.25 58.588C376.25 58.972 376.226 59.372 376.178 59.788H366.89C366.954 60.62 367.218 61.26 367.682 61.708C368.162 62.14 368.746 62.356 369.434 62.356C370.458 62.356 371.17 61.924 371.57 61.06H375.938C375.714 61.94 375.306 62.732 374.714 63.436C374.138 64.14 373.41 64.692 372.53 65.092C371.65 65.492 370.666 65.692 369.578 65.692C368.266 65.692 367.098 65.412 366.074 64.852C365.05 64.292 364.25 63.492 363.674 62.452C363.098 61.412 362.81 60.196 362.81 58.804C362.81 57.412 363.09 56.196 363.65 55.156C364.226 54.116 365.026 53.316 366.05 52.756C367.074 52.196 368.25 51.916 369.578 51.916C370.874 51.916 372.026 52.188 373.034 52.732C374.042 53.276 374.826 54.052 375.386 55.06C375.962 56.068 376.25 57.244 376.25 58.588ZM372.05 57.508C372.05 56.804 371.81 56.244 371.33 55.828C370.85 55.412 370.25 55.204 369.53 55.204C368.842 55.204 368.258 55.404 367.778 55.804C367.314 56.204 367.026 56.772 366.914 57.508H372.05ZM383.479 54.34C383.959 53.604 384.559 53.028 385.279 52.612C385.999 52.18 386.799 51.964 387.679 51.964V56.308H386.551C385.527 56.308 384.759 56.532 384.247 56.98C383.735 57.412 383.479 58.18 383.479 59.284V65.5H379.375V52.108H383.479V54.34ZM395.95 57.052C395.95 55.388 396.31 53.908 397.03 52.612C397.75 51.3 398.75 50.284 400.03 49.564C401.326 48.828 402.79 48.46 404.422 48.46C406.422 48.46 408.134 48.988 409.558 50.044C410.982 51.1 411.934 52.54 412.414 54.364H407.902C407.566 53.66 407.086 53.124 406.462 52.756C405.854 52.388 405.158 52.204 404.374 52.204C403.11 52.204 402.086 52.644 401.302 53.524C400.518 54.404 400.126 55.58 400.126 57.052C400.126 58.524 400.518 59.7 401.302 60.58C402.086 61.46 403.11 61.9 404.374 61.9C405.158 61.9 405.854 61.716 406.462 61.348C407.086 60.98 407.566 60.444 407.902 59.74H412.414C411.934 61.564 410.982 63.004 409.558 64.06C408.134 65.1 406.422 65.62 404.422 65.62C402.79 65.62 401.326 65.26 400.03 64.54C398.75 63.804 397.75 62.788 397.03 61.492C396.31 60.196 395.95 58.716 395.95 57.052ZM421.983 65.692C420.671 65.692 419.487 65.412 418.431 64.852C417.391 64.292 416.567 63.492 415.959 62.452C415.367 61.412 415.071 60.196 415.071 58.804C415.071 57.428 415.375 56.22 415.983 55.18C416.591 54.124 417.423 53.316 418.479 52.756C419.535 52.196 420.719 51.916 422.031 51.916C423.343 51.916 424.527 52.196 425.583 52.756C426.639 53.316 427.471 54.124 428.079 55.18C428.687 56.22 428.991 57.428 428.991 58.804C428.991 60.18 428.679 61.396 428.055 62.452C427.447 63.492 426.607 64.292 425.535 64.852C424.479 65.412 423.295 65.692 421.983 65.692ZM421.983 62.14C422.767 62.14 423.431 61.852 423.975 61.276C424.535 60.7 424.815 59.876 424.815 58.804C424.815 57.732 424.543 56.908 423.999 56.332C423.471 55.756 422.815 55.468 422.031 55.468C421.231 55.468 420.567 55.756 420.039 56.332C419.511 56.892 419.247 57.716 419.247 58.804C419.247 59.876 419.503 60.7 420.015 61.276C420.543 61.852 421.199 62.14 421.983 62.14ZM445.353 52.108V65.5H441.249V63.676C440.833 64.268 440.265 64.748 439.545 65.116C438.841 65.468 438.057 65.644 437.193 65.644C436.169 65.644 435.265 65.42 434.481 64.972C433.697 64.508 433.089 63.844 432.657 62.98C432.225 62.116 432.009 61.1 432.009 59.932V52.108H436.089V59.38C436.089 60.276 436.321 60.972 436.785 61.468C437.249 61.964 437.873 62.212 438.657 62.212C439.457 62.212 440.089 61.964 440.553 61.468C441.017 60.972 441.249 60.276 441.249 59.38V52.108H445.353ZM457.42 51.964C458.988 51.964 460.236 52.476 461.164 53.5C462.108 54.508 462.58 55.9 462.58 57.676V65.5H458.5V58.228C458.5 57.332 458.268 56.636 457.804 56.14C457.34 55.644 456.716 55.396 455.932 55.396C455.148 55.396 454.524 55.644 454.06 56.14C453.596 56.636 453.364 57.332 453.364 58.228V65.5H449.26V52.108H453.364V53.884C453.78 53.292 454.34 52.828 455.044 52.492C455.748 52.14 456.54 51.964 457.42 51.964ZM473.856 62.02V65.5H471.768C470.28 65.5 469.12 65.14 468.288 64.42C467.456 63.684 467.04 62.492 467.04 60.844V55.516H465.408V52.108H467.04V48.844H471.144V52.108H473.832V55.516H471.144V60.892C471.144 61.292 471.24 61.58 471.432 61.756C471.624 61.932 471.944 62.02 472.392 62.02H473.856ZM488.068 47.716C489.78 47.716 491.148 48.164 492.172 49.06C493.212 49.956 493.732 51.22 493.732 52.852C493.732 54.356 493.236 55.532 492.244 56.38C491.268 57.212 489.972 57.636 488.356 57.652L488.236 59.452H484.636L484.516 54.988H485.956C487.188 54.988 488.124 54.836 488.764 54.532C489.42 54.228 489.748 53.676 489.748 52.876C489.748 52.316 489.596 51.876 489.292 51.556C488.988 51.236 488.564 51.076 488.02 51.076C487.444 51.076 486.996 51.244 486.676 51.58C486.356 51.9 486.196 52.34 486.196 52.9H482.332C482.3 51.924 482.5 51.044 482.932 50.26C483.38 49.476 484.036 48.86 484.9 48.412C485.78 47.948 486.836 47.716 488.068 47.716ZM486.484 65.692C485.764 65.692 485.172 65.484 484.708 65.068C484.26 64.636 484.036 64.108 484.036 63.484C484.036 62.844 484.26 62.308 484.708 61.876C485.172 61.444 485.764 61.228 486.484 61.228C487.188 61.228 487.764 61.444 488.212 61.876C488.676 62.308 488.908 62.844 488.908 63.484C488.908 64.108 488.676 64.636 488.212 65.068C487.764 65.484 487.188 65.692 486.484 65.692Z" fill="#4F4F4F"/>
<path d="M96.92 97.5H94.64L87.78 87.12V97.5H85.5V83.58H87.78L94.64 93.94V83.58H96.92V97.5ZM104.694 97.68C103.654 97.68 102.714 97.4467 101.874 96.98C101.034 96.5 100.374 95.8333 99.8941 94.98C99.4141 94.1133 99.1741 93.1133 99.1741 91.98C99.1741 90.86 99.4207 89.8667 99.9141 89C100.407 88.1333 101.081 87.4667 101.934 87C102.787 86.5333 103.741 86.3 104.794 86.3C105.847 86.3 106.801 86.5333 107.654 87C108.507 87.4667 109.181 88.1333 109.674 89C110.167 89.8667 110.414 90.86 110.414 91.98C110.414 93.1 110.161 94.0933 109.654 94.96C109.147 95.8267 108.454 96.5 107.574 96.98C106.707 97.4467 105.747 97.68 104.694 97.68ZM104.694 95.7C105.281 95.7 105.827 95.56 106.334 95.28C106.854 95 107.274 94.58 107.594 94.02C107.914 93.46 108.074 92.78 108.074 91.98C108.074 91.18 107.921 90.5067 107.614 89.96C107.307 89.4 106.901 88.98 106.394 88.7C105.887 88.42 105.341 88.28 104.754 88.28C104.167 88.28 103.621 88.42 103.114 88.7C102.621 88.98 102.227 89.4 101.934 89.96C101.641 90.5067 101.494 91.18 101.494 91.98C101.494 93.1667 101.794 94.0867 102.394 94.74C103.007 95.38 103.774 95.7 104.694 95.7ZM127.468 86.48L124.048 97.5H121.648L119.428 89.36L117.208 97.5H114.808L111.368 86.48H113.688L115.988 95.34L118.328 86.48H120.708L122.948 95.3L125.228 86.48H127.468ZM136.647 95.66H141.347V97.5H134.367V83.6H136.647V95.66ZM148.034 97.68C146.994 97.68 146.054 97.4467 145.214 96.98C144.374 96.5 143.714 95.8333 143.234 94.98C142.754 94.1133 142.514 93.1133 142.514 91.98C142.514 90.86 142.761 89.8667 143.254 89C143.747 88.1333 144.421 87.4667 145.274 87C146.127 86.5333 147.081 86.3 148.134 86.3C149.187 86.3 150.141 86.5333 150.994 87C151.847 87.4667 152.521 88.1333 153.014 89C153.507 89.8667 153.754 90.86 153.754 91.98C153.754 93.1 153.501 94.0933 152.994 94.96C152.487 95.8267 151.794 96.5 150.914 96.98C150.047 97.4467 149.087 97.68 148.034 97.68ZM148.034 95.7C148.621 95.7 149.167 95.56 149.674 95.28C150.194 95 150.614 94.58 150.934 94.02C151.254 93.46 151.414 92.78 151.414 91.98C151.414 91.18 151.261 90.5067 150.954 89.96C150.647 89.4 150.241 88.98 149.734 88.7C149.227 88.42 148.681 88.28 148.094 88.28C147.507 88.28 146.961 88.42 146.454 88.7C145.961 88.98 145.567 89.4 145.274 89.96C144.981 90.5067 144.834 91.18 144.834 91.98C144.834 93.1667 145.134 94.0867 145.734 94.74C146.347 95.38 147.114 95.7 148.034 95.7ZM155.248 91.98C155.248 90.8467 155.474 89.8533 155.928 89C156.394 88.1333 157.034 87.4667 157.848 87C158.661 86.5333 159.594 86.3 160.648 86.3C161.981 86.3 163.081 86.62 163.948 87.26C164.828 87.8867 165.421 88.7867 165.728 89.96H163.268C163.068 89.4133 162.748 88.9867 162.308 88.68C161.868 88.3733 161.314 88.22 160.648 88.22C159.714 88.22 158.968 88.5533 158.408 89.22C157.861 89.8733 157.588 90.7933 157.588 91.98C157.588 93.1667 157.861 94.0933 158.408 94.76C158.968 95.4267 159.714 95.76 160.648 95.76C161.968 95.76 162.841 95.18 163.268 94.02H165.728C165.408 95.14 164.808 96.0333 163.928 96.7C163.048 97.3533 161.954 97.68 160.648 97.68C159.594 97.68 158.661 97.4467 157.848 96.98C157.034 96.5 156.394 95.8333 155.928 94.98C155.474 94.1133 155.248 93.1133 155.248 91.98ZM172.36 92L177.44 97.5H174.36L170.28 92.76V97.5H168V82.7H170.28V91.3L174.28 86.48H177.44L172.36 92ZM193.99 87.74C193.99 88.4467 193.823 89.1133 193.49 89.74C193.156 90.3667 192.623 90.88 191.89 91.28C191.156 91.6667 190.216 91.86 189.07 91.86H186.55V97.5H184.27V83.6H189.07C190.136 83.6 191.036 83.7867 191.77 84.16C192.516 84.52 193.07 85.0133 193.43 85.64C193.803 86.2667 193.99 86.9667 193.99 87.74ZM189.07 90C189.936 90 190.583 89.8067 191.01 89.42C191.436 89.02 191.65 88.46 191.65 87.74C191.65 86.22 190.79 85.46 189.07 85.46H186.55V90H189.07ZM198.444 88.08C198.777 87.52 199.217 87.0867 199.764 86.78C200.324 86.46 200.984 86.3 201.744 86.3V88.66H201.164C200.271 88.66 199.591 88.8867 199.124 89.34C198.671 89.7933 198.444 90.58 198.444 91.7V97.5H196.164V86.48H198.444V88.08ZM205 85.02C204.587 85.02 204.24 84.88 203.96 84.6C203.68 84.32 203.54 83.9733 203.54 83.56C203.54 83.1467 203.68 82.8 203.96 82.52C204.24 82.24 204.587 82.1 205 82.1C205.4 82.1 205.74 82.24 206.02 82.52C206.3 82.8 206.44 83.1467 206.44 83.56C206.44 83.9733 206.3 84.32 206.02 84.6C205.74 84.88 205.4 85.02 205 85.02ZM206.12 86.48V97.5H203.84V86.48H206.12ZM208.353 91.98C208.353 90.8467 208.58 89.8533 209.033 89C209.5 88.1333 210.14 87.4667 210.953 87C211.767 86.5333 212.7 86.3 213.753 86.3C215.087 86.3 216.187 86.62 217.053 87.26C217.933 87.8867 218.527 88.7867 218.833 89.96H216.373C216.173 89.4133 215.853 88.9867 215.413 88.68C214.973 88.3733 214.42 88.22 213.753 88.22C212.82 88.22 212.073 88.5533 211.513 89.22C210.967 89.8733 210.693 90.7933 210.693 91.98C210.693 93.1667 210.967 94.0933 211.513 94.76C212.073 95.4267 212.82 95.76 213.753 95.76C215.073 95.76 215.947 95.18 216.373 94.02H218.833C218.513 95.14 217.913 96.0333 217.033 96.7C216.153 97.3533 215.06 97.68 213.753 97.68C212.7 97.68 211.767 97.4467 210.953 96.98C210.14 96.5 209.5 95.8333 209.033 94.98C208.58 94.1133 208.353 93.1133 208.353 91.98ZM231.205 91.72C231.205 92.1333 231.179 92.5067 231.125 92.84H222.705C222.772 93.72 223.099 94.4267 223.685 94.96C224.272 95.4933 224.992 95.76 225.845 95.76C227.072 95.76 227.939 95.2467 228.445 94.22H230.905C230.572 95.2333 229.965 96.0667 229.085 96.72C228.219 97.36 227.139 97.68 225.845 97.68C224.792 97.68 223.845 97.4467 223.005 96.98C222.179 96.5 221.525 95.8333 221.045 94.98C220.579 94.1133 220.345 93.1133 220.345 91.98C220.345 90.8467 220.572 89.8533 221.025 89C221.492 88.1333 222.139 87.4667 222.965 87C223.805 86.5333 224.765 86.3 225.845 86.3C226.885 86.3 227.812 86.5267 228.625 86.98C229.439 87.4333 230.072 88.0733 230.525 88.9C230.979 89.7133 231.205 90.6533 231.205 91.72ZM228.825 91C228.812 90.16 228.512 89.4867 227.925 88.98C227.339 88.4733 226.612 88.22 225.745 88.22C224.959 88.22 224.285 88.4733 223.725 88.98C223.165 89.4733 222.832 90.1467 222.725 91H228.825ZM237.449 97.68C236.583 97.68 235.803 97.5267 235.109 97.22C234.429 96.9 233.889 96.4733 233.489 95.94C233.089 95.3933 232.876 94.7867 232.849 94.12H235.209C235.249 94.5867 235.469 94.98 235.869 95.3C236.283 95.6067 236.796 95.76 237.409 95.76C238.049 95.76 238.543 95.64 238.889 95.4C239.249 95.1467 239.429 94.8267 239.429 94.44C239.429 94.0267 239.229 93.72 238.829 93.52C238.443 93.32 237.823 93.1 236.969 92.86C236.143 92.6333 235.469 92.4133 234.949 92.2C234.429 91.9867 233.976 91.66 233.589 91.22C233.216 90.78 233.029 90.2 233.029 89.48C233.029 88.8933 233.203 88.36 233.549 87.88C233.896 87.3867 234.389 87 235.029 86.72C235.683 86.44 236.429 86.3 237.269 86.3C238.523 86.3 239.529 86.62 240.289 87.26C241.063 87.8867 241.476 88.7467 241.529 89.84H239.249C239.209 89.3467 239.009 88.9533 238.649 88.66C238.289 88.3667 237.803 88.22 237.189 88.22C236.589 88.22 236.129 88.3333 235.809 88.56C235.489 88.7867 235.329 89.0867 235.329 89.46C235.329 89.7533 235.436 90 235.649 90.2C235.863 90.4 236.123 90.56 236.429 90.68C236.736 90.7867 237.189 90.9267 237.789 91.1C238.589 91.3133 239.243 91.5333 239.749 91.76C240.269 91.9733 240.716 92.2933 241.089 92.72C241.463 93.1467 241.656 93.7133 241.669 94.42C241.669 95.0467 241.496 95.6067 241.149 96.1C240.803 96.5933 240.309 96.98 239.669 97.26C239.043 97.54 238.303 97.68 237.449 97.68ZM260.068 97.5L258.348 95.78C257.681 96.4467 256.955 96.9467 256.168 97.28C255.381 97.6 254.501 97.76 253.528 97.76C252.541 97.76 251.668 97.5867 250.908 97.24C250.148 96.8933 249.561 96.4 249.148 95.76C248.735 95.1067 248.528 94.3533 248.528 93.5C248.528 92.54 248.801 91.6867 249.348 90.94C249.895 90.18 250.708 89.58 251.788 89.14C251.401 88.6733 251.128 88.24 250.968 87.84C250.808 87.4267 250.728 86.9733 250.728 86.48C250.728 85.8667 250.881 85.32 251.188 84.84C251.508 84.36 251.961 83.98 252.548 83.7C253.135 83.42 253.815 83.28 254.588 83.28C255.375 83.28 256.041 83.4333 256.588 83.74C257.148 84.0333 257.561 84.44 257.828 84.96C258.108 85.48 258.221 86.06 258.168 86.7H255.888C255.901 86.2067 255.781 85.8267 255.528 85.56C255.275 85.28 254.928 85.14 254.488 85.14C254.048 85.14 253.688 85.2733 253.408 85.54C253.141 85.7933 253.008 86.1067 253.008 86.48C253.008 86.84 253.108 87.2 253.308 87.56C253.521 87.9067 253.888 88.36 254.408 88.92L258.088 92.58L259.508 90.24H261.968L260.168 93.32L259.668 94.14L263.048 97.5H260.068ZM253.528 95.82C254.781 95.82 255.888 95.3067 256.848 94.28L253.168 90.58C251.595 91.2067 250.808 92.1533 250.808 93.42C250.808 94.1 251.061 94.6733 251.568 95.14C252.075 95.5933 252.728 95.82 253.528 95.82ZM277.178 90.36C277.925 90.4933 278.558 90.8867 279.078 91.54C279.598 92.1933 279.858 92.9333 279.858 93.76C279.858 94.4667 279.672 95.1067 279.298 95.68C278.938 96.24 278.412 96.6867 277.718 97.02C277.025 97.34 276.218 97.5 275.298 97.5H269.738V83.6H275.038C275.985 83.6 276.798 83.76 277.478 84.08C278.158 84.4 278.672 84.8333 279.018 85.38C279.365 85.9133 279.538 86.5133 279.538 87.18C279.538 87.98 279.325 88.6467 278.898 89.18C278.472 89.7133 277.898 90.1067 277.178 90.36ZM272.018 89.44H274.838C275.585 89.44 276.165 89.2733 276.578 88.94C277.005 88.5933 277.218 88.1 277.218 87.46C277.218 86.8333 277.005 86.3467 276.578 86C276.165 85.64 275.585 85.46 274.838 85.46H272.018V89.44ZM275.098 95.64C275.872 95.64 276.478 95.4533 276.918 95.08C277.358 94.7067 277.578 94.1867 277.578 93.52C277.578 92.84 277.345 92.3 276.878 91.9C276.412 91.5 275.792 91.3 275.018 91.3H272.018V95.64H275.098ZM287.116 97.68C286.076 97.68 285.136 97.4467 284.296 96.98C283.456 96.5 282.796 95.8333 282.316 94.98C281.836 94.1133 281.596 93.1133 281.596 91.98C281.596 90.86 281.843 89.8667 282.336 89C282.829 88.1333 283.503 87.4667 284.356 87C285.209 86.5333 286.163 86.3 287.216 86.3C288.269 86.3 289.223 86.5333 290.076 87C290.929 87.4667 291.603 88.1333 292.096 89C292.589 89.8667 292.836 90.86 292.836 91.98C292.836 93.1 292.583 94.0933 292.076 94.96C291.569 95.8267 290.876 96.5 289.996 96.98C289.129 97.4467 288.169 97.68 287.116 97.68ZM287.116 95.7C287.703 95.7 288.249 95.56 288.756 95.28C289.276 95 289.696 94.58 290.016 94.02C290.336 93.46 290.496 92.78 290.496 91.98C290.496 91.18 290.343 90.5067 290.036 89.96C289.729 89.4 289.323 88.98 288.816 88.7C288.309 88.42 287.763 88.28 287.176 88.28C286.589 88.28 286.043 88.42 285.536 88.7C285.043 88.98 284.649 89.4 284.356 89.96C284.063 90.5067 283.916 91.18 283.916 91.98C283.916 93.1667 284.216 94.0867 284.816 94.74C285.429 95.38 286.196 95.7 287.116 95.7ZM299.87 97.68C298.83 97.68 297.89 97.4467 297.05 96.98C296.21 96.5 295.55 95.8333 295.07 94.98C294.59 94.1133 294.35 93.1133 294.35 91.98C294.35 90.86 294.597 89.8667 295.09 89C295.583 88.1333 296.257 87.4667 297.11 87C297.963 86.5333 298.917 86.3 299.97 86.3C301.023 86.3 301.977 86.5333 302.83 87C303.683 87.4667 304.357 88.1333 304.85 89C305.343 89.8667 305.59 90.86 305.59 91.98C305.59 93.1 305.337 94.0933 304.83 94.96C304.323 95.8267 303.63 96.5 302.75 96.98C301.883 97.4467 300.923 97.68 299.87 97.68ZM299.87 95.7C300.457 95.7 301.003 95.56 301.51 95.28C302.03 95 302.45 94.58 302.77 94.02C303.09 93.46 303.25 92.78 303.25 91.98C303.25 91.18 303.097 90.5067 302.79 89.96C302.483 89.4 302.077 88.98 301.57 88.7C301.063 88.42 300.517 88.28 299.93 88.28C299.343 88.28 298.797 88.42 298.29 88.7C297.797 88.98 297.403 89.4 297.11 89.96C296.817 90.5067 296.67 91.18 296.67 91.98C296.67 93.1667 296.97 94.0867 297.57 94.74C298.183 95.38 298.95 95.7 299.87 95.7ZM312.204 92L317.284 97.5H314.204L310.124 92.76V97.5H307.844V82.7H310.124V91.3L314.124 86.48H317.284L312.204 92ZM326.393 95.66H331.093V97.5H324.113V83.6H326.393V95.66ZM332.24 91.94C332.24 90.8333 332.467 89.8533 332.92 89C333.387 88.1467 334.013 87.4867 334.8 87.02C335.6 86.54 336.48 86.3 337.44 86.3C338.307 86.3 339.06 86.4733 339.7 86.82C340.353 87.1533 340.873 87.5733 341.26 88.08V86.48H343.56V97.5H341.26V95.86C340.873 96.38 340.347 96.8133 339.68 97.16C339.013 97.5067 338.253 97.68 337.4 97.68C336.453 97.68 335.587 97.44 334.8 96.96C334.013 96.4667 333.387 95.7867 332.92 94.92C332.467 94.04 332.24 93.0467 332.24 91.94ZM341.26 91.98C341.26 91.22 341.1 90.56 340.78 90C340.473 89.44 340.067 89.0133 339.56 88.72C339.053 88.4267 338.507 88.28 337.92 88.28C337.333 88.28 336.787 88.4267 336.28 88.72C335.773 89 335.36 89.42 335.04 89.98C334.733 90.5267 334.58 91.18 334.58 91.94C334.58 92.7 334.733 93.3667 335.04 93.94C335.36 94.5133 335.773 94.9533 336.28 95.26C336.8 95.5533 337.347 95.7 337.92 95.7C338.507 95.7 339.053 95.5533 339.56 95.26C340.067 94.9667 340.473 94.54 340.78 93.98C341.1 93.4067 341.26 92.74 341.26 91.98ZM349.215 88.34V94.44C349.215 94.8533 349.308 95.1533 349.495 95.34C349.695 95.5133 350.028 95.6 350.495 95.6H351.895V97.5H350.095C349.068 97.5 348.281 97.26 347.735 96.78C347.188 96.3 346.915 95.52 346.915 94.44V88.34H345.615V86.48H346.915V83.74H349.215V86.48H351.895V88.34H349.215ZM364.096 91.72C364.096 92.1333 364.069 92.5067 364.016 92.84H355.596C355.663 93.72 355.989 94.4267 356.576 94.96C357.163 95.4933 357.883 95.76 358.736 95.76C359.963 95.76 360.829 95.2467 361.336 94.22H363.796C363.463 95.2333 362.856 96.0667 361.976 96.72C361.109 97.36 360.029 97.68 358.736 97.68C357.683 97.68 356.736 97.4467 355.896 96.98C355.069 96.5 354.416 95.8333 353.936 94.98C353.469 94.1133 353.236 93.1133 353.236 91.98C353.236 90.8467 353.463 89.8533 353.916 89C354.383 88.1333 355.029 87.4667 355.856 87C356.696 86.5333 357.656 86.3 358.736 86.3C359.776 86.3 360.703 86.5267 361.516 86.98C362.329 87.4333 362.963 88.0733 363.416 88.9C363.869 89.7133 364.096 90.6533 364.096 91.72ZM361.716 91C361.703 90.16 361.403 89.4867 360.816 88.98C360.229 88.4733 359.503 88.22 358.636 88.22C357.849 88.22 357.176 88.4733 356.616 88.98C356.056 89.4733 355.723 90.1467 355.616 91H361.716ZM368.62 88.08C368.953 87.52 369.393 87.0867 369.94 86.78C370.5 86.46 371.16 86.3 371.92 86.3V88.66H371.34C370.447 88.66 369.767 88.8867 369.3 89.34C368.847 89.7933 368.62 90.58 368.62 91.7V97.5H366.34V86.48H368.62V88.08ZM376.876 83.6L376.616 93.3H374.716L374.456 83.6H376.876ZM375.736 97.64C375.322 97.64 374.976 97.5 374.696 97.22C374.416 96.94 374.276 96.5933 374.276 96.18C374.276 95.7667 374.416 95.42 374.696 95.14C374.976 94.86 375.322 94.72 375.736 94.72C376.136 94.72 376.476 94.86 376.756 95.14C377.036 95.42 377.176 95.7667 377.176 96.18C377.176 96.5933 377.036 96.94 376.756 97.22C376.476 97.5 376.136 97.64 375.736 97.64Z" fill="#DA9A3B"/>
<rect x="571" y="19" width="26.567" height="107" rx="4.13265" fill="#FFFCF3"/>
<rect x="635.757" y="19" width="27.3973" height="107" rx="4.13265" fill="#FFFCF3"/>
<rect x="701.345" y="19" width="26.567" height="107" rx="4.13265" fill="#FFFCF3"/>
<rect x="766.102" y="19" width="27.3973" height="107" rx="4.13265" fill="#FFFCF3"/>
<rect x="831.689" y="19" width="26.567" height="107" rx="4.13265" fill="#FFFCF3"/>
<path d="M846.854 71.3878L782.282 110.131L714.093 24.8955L597.862 66.222" stroke="url(#paint0_linear_6091_210767)" stroke-width="2.06633" stroke-linecap="round" stroke-linejoin="round"/>
<path d="M846.854 71.3878L782.282 110.131L714.093 24.8955L597.862 66.222" stroke="black" stroke-opacity="0.2" stroke-width="2.06633" stroke-linecap="round" stroke-linejoin="round"/>
<circle cx="713.576" cy="25.9285" r="6.19898" fill="#E35D64"/>
<circle cx="782.282" cy="107.549" r="6.19898" fill="#6ED2B0"/>
<rect x="584.948" y="56.4072" width="20.6633" height="20.6633" rx="10.3316" fill="#FFFBEE"/>
<path d="M592.62 64.7011C592.458 63.0536 592.77 60.3596 595.577 60.5528C596.43 60.6117 598.101 61.5237 597.96 64.7011" stroke="#DA9A3B" stroke-width="1.03236" stroke-linecap="round"/>
<mask id="path-13-inside-1_6091_210767" fill="white">
<path fill-rule="evenodd" clip-rule="evenodd" d="M590.158 65.735C590.158 65.1648 590.62 64.7026 591.19 64.7026H599.368C599.938 64.7026 600.401 65.1648 600.401 65.735V71.9026C600.401 72.4727 599.938 72.9349 599.368 72.9349H591.19C590.62 72.9349 590.158 72.4727 590.158 71.9026V65.735ZM595.712 70.1187C596.085 69.9525 596.344 69.579 596.344 69.1448C596.344 68.5561 595.867 68.0789 595.278 68.0789C594.69 68.0789 594.212 68.5561 594.212 69.1448C594.212 69.578 594.471 69.9508 594.842 70.1176V71.8839C594.842 71.9124 594.865 71.9355 594.894 71.9355H595.661C595.689 71.9355 595.712 71.9124 595.712 71.8839V70.1187Z"/>
</mask>
<path fill-rule="evenodd" clip-rule="evenodd" d="M590.158 65.735C590.158 65.1648 590.62 64.7026 591.19 64.7026H599.368C599.938 64.7026 600.401 65.1648 600.401 65.735V71.9026C600.401 72.4727 599.938 72.9349 599.368 72.9349H591.19C590.62 72.9349 590.158 72.4727 590.158 71.9026V65.735ZM595.712 70.1187C596.085 69.9525 596.344 69.579 596.344 69.1448C596.344 68.5561 595.867 68.0789 595.278 68.0789C594.69 68.0789 594.212 68.5561 594.212 69.1448C594.212 69.578 594.471 69.9508 594.842 70.1176V71.8839C594.842 71.9124 594.865 71.9355 594.894 71.9355H595.661C595.689 71.9355 595.712 71.9124 595.712 71.8839V70.1187Z" fill="#DA9A3B"/>
<path d="M595.712 70.1187L595.292 69.1759L594.68 69.4489V70.1187H595.712ZM594.842 70.1176H595.874V69.4497L595.265 69.1759L594.842 70.1176ZM591.19 63.6703C590.05 63.6703 589.125 64.5947 589.125 65.735H591.19V65.735V63.6703ZM599.368 63.6703H591.19V65.735H599.368V63.6703ZM601.433 65.735C601.433 64.5947 600.509 63.6703 599.368 63.6703V65.735H599.368H601.433ZM601.433 71.9026V65.735H599.368V71.9026H601.433ZM599.368 73.9673C600.509 73.9673 601.433 73.0429 601.433 71.9026H599.368V73.9673ZM591.19 73.9673H599.368V71.9026H591.19V73.9673ZM589.125 71.9026C589.125 73.0429 590.05 73.9673 591.19 73.9673V71.9026L591.19 71.9026H589.125ZM589.125 65.735V71.9026H591.19V65.735H589.125ZM595.312 69.1448C595.312 69.15 595.311 69.1531 595.311 69.155C595.31 69.1573 595.309 69.1598 595.307 69.1626C595.303 69.1689 595.297 69.1736 595.292 69.1759L596.133 71.0615C596.864 70.7353 597.377 70.0011 597.377 69.1448H595.312ZM595.278 69.1112C595.285 69.1112 595.289 69.1123 595.291 69.1134C595.294 69.1148 595.298 69.1173 595.302 69.1211C595.306 69.1248 595.308 69.1288 595.31 69.132C595.311 69.1346 595.312 69.1383 595.312 69.1448H597.377C597.377 67.9859 596.437 67.0465 595.278 67.0465V69.1112ZM595.245 69.1448C595.245 69.1383 595.246 69.1346 595.247 69.132C595.248 69.1288 595.251 69.1248 595.255 69.1211C595.258 69.1173 595.262 69.1148 595.266 69.1134C595.268 69.1123 595.272 69.1112 595.278 69.1112V67.0465C594.12 67.0465 593.18 67.9859 593.18 69.1448H595.245ZM595.265 69.1759C595.26 69.1735 595.254 69.1688 595.25 69.1625C595.248 69.1598 595.247 69.1573 595.246 69.155C595.246 69.1531 595.245 69.15 595.245 69.1448H593.18C593.18 69.9991 593.691 70.732 594.419 71.0592L595.265 69.1759ZM593.81 70.1176V71.8839H595.874V70.1176H593.81ZM593.81 71.8839C593.81 72.4826 594.295 72.9679 594.894 72.9679V70.9032C595.435 70.9032 595.874 71.3422 595.874 71.8839H593.81ZM594.894 72.9679H595.661V70.9032H594.894V72.9679ZM595.661 72.9679C596.259 72.9679 596.745 72.4826 596.745 71.8839H594.68C594.68 71.3422 595.119 70.9032 595.661 70.9032V72.9679ZM596.745 71.8839V70.1187H594.68V71.8839H596.745Z" fill="#DA9A3B" mask="url(#path-13-inside-1_6091_210767)"/>
<rect x="584.948" y="56.4072" width="20.6633" height="20.6633" rx="10.3316" stroke="#F1BB1A" stroke-width="1.03316"/>
<path d="M716.877 26.9307L713.82 23.7127C713.592 23.4722 713.208 23.4722 712.98 23.7127L709.923 26.9307" stroke="white" stroke-width="1.03316" stroke-linecap="round" stroke-linejoin="round"/>
<path d="M779.194 106.388L782.071 109.416C782.299 109.657 782.683 109.657 782.911 109.416L785.789 106.388" stroke="white" stroke-width="1.03316" stroke-linecap="round" stroke-linejoin="round"/>
<g filter="url(#filter0_d_6091_210767)">
<rect x="636.52" y="92.7173" width="120.925" height="37.2835" rx="4.98132" fill="white"/>
<path d="M652.789 102.572V108.359H652.033V102.572H652.789ZM655.928 104.432H654.973V108.359H654.217V104.432H653.628V103.809H654.217V103.485C654.217 102.976 654.347 102.605 654.608 102.373C654.873 102.135 655.297 102.016 655.878 102.016V102.647C655.546 102.647 655.31 102.713 655.172 102.846C655.039 102.974 654.973 103.187 654.973 103.485V103.809H655.928V104.432ZM659.943 104.432V107.114C659.943 107.335 659.99 107.493 660.085 107.587C660.179 107.675 660.342 107.72 660.574 107.72H661.131V108.359H660.45C660.029 108.359 659.714 108.262 659.503 108.068C659.293 107.875 659.188 107.556 659.188 107.114V104.432H658.598V103.809H659.188V102.664H659.943V103.809H661.131V104.432H659.943ZM664.304 103.726C664.647 103.726 664.957 103.801 665.234 103.95C665.511 104.094 665.727 104.313 665.882 104.606C666.042 104.9 666.122 105.257 666.122 105.677V108.359H665.375V105.785C665.375 105.331 665.262 104.985 665.035 104.747C664.808 104.504 664.498 104.382 664.105 104.382C663.706 104.382 663.388 104.507 663.15 104.756C662.918 105.005 662.802 105.367 662.802 105.843V108.359H662.046V102.215H662.802V104.457C662.951 104.224 663.156 104.045 663.416 103.917C663.682 103.79 663.978 103.726 664.304 103.726ZM671.508 105.91C671.508 106.054 671.499 106.206 671.483 106.366H667.846C667.874 106.815 668.026 107.166 668.303 107.421C668.585 107.67 668.926 107.794 669.324 107.794C669.651 107.794 669.922 107.72 670.138 107.57C670.359 107.415 670.514 107.21 670.603 106.956H671.416C671.295 107.393 671.051 107.75 670.686 108.027C670.32 108.298 669.867 108.434 669.324 108.434C668.892 108.434 668.505 108.337 668.162 108.143C667.824 107.949 667.559 107.675 667.365 107.321C667.171 106.961 667.074 106.546 667.074 106.076C667.074 105.605 667.168 105.193 667.357 104.839C667.545 104.485 667.808 104.213 668.145 104.025C668.488 103.831 668.881 103.735 669.324 103.735C669.756 103.735 670.138 103.829 670.47 104.017C670.802 104.205 671.057 104.465 671.234 104.797C671.416 105.124 671.508 105.495 671.508 105.91ZM670.727 105.752C670.727 105.464 670.664 105.218 670.536 105.013C670.409 104.803 670.235 104.645 670.013 104.54C669.797 104.429 669.557 104.374 669.291 104.374C668.909 104.374 668.582 104.496 668.311 104.739C668.046 104.983 667.893 105.32 667.855 105.752H670.727ZM675.474 104.648C675.623 104.388 675.845 104.172 676.138 104C676.437 103.823 676.783 103.735 677.176 103.735C677.58 103.735 677.945 103.831 678.272 104.025C678.604 104.219 678.864 104.493 679.052 104.847C679.24 105.196 679.334 105.603 679.334 106.067C679.334 106.527 679.24 106.936 679.052 107.296C678.864 107.656 678.604 107.935 678.272 108.135C677.945 108.334 677.58 108.434 677.176 108.434C676.788 108.434 676.445 108.348 676.146 108.176C675.853 107.999 675.629 107.781 675.474 107.52V110.517H674.718V103.809H675.474V104.648ZM678.562 106.067C678.562 105.724 678.493 105.425 678.355 105.171C678.216 104.916 678.028 104.723 677.79 104.59C677.558 104.457 677.3 104.39 677.018 104.39C676.741 104.39 676.484 104.46 676.246 104.598C676.013 104.731 675.825 104.927 675.681 105.187C675.543 105.442 675.474 105.738 675.474 106.076C675.474 106.419 675.543 106.721 675.681 106.981C675.825 107.235 676.013 107.432 676.246 107.57C676.484 107.703 676.741 107.769 677.018 107.769C677.3 107.769 677.558 107.703 677.79 107.57C678.028 107.432 678.216 107.235 678.355 106.981C678.493 106.721 678.562 106.416 678.562 106.067ZM681.084 104.548C681.217 104.288 681.405 104.086 681.649 103.942C681.898 103.798 682.199 103.726 682.554 103.726V104.507H682.354C681.508 104.507 681.084 104.966 681.084 105.885V108.359H680.329V103.809H681.084V104.548ZM683.816 103.07C683.672 103.07 683.55 103.021 683.451 102.921C683.351 102.821 683.301 102.7 683.301 102.556C683.301 102.412 683.351 102.29 683.451 102.19C683.55 102.091 683.672 102.041 683.816 102.041C683.954 102.041 684.071 102.091 684.165 102.19C684.264 102.29 684.314 102.412 684.314 102.556C684.314 102.7 684.264 102.821 684.165 102.921C684.071 103.021 683.954 103.07 683.816 103.07ZM684.181 103.809V108.359H683.426V103.809H684.181ZM685.187 106.076C685.187 105.605 685.281 105.196 685.469 104.847C685.657 104.493 685.917 104.219 686.249 104.025C686.587 103.831 686.972 103.735 687.403 103.735C687.962 103.735 688.422 103.87 688.781 104.141C689.147 104.413 689.388 104.789 689.504 105.27H688.69C688.613 104.994 688.46 104.775 688.234 104.615C688.012 104.454 687.735 104.374 687.403 104.374C686.972 104.374 686.623 104.523 686.357 104.822C686.092 105.115 685.959 105.533 685.959 106.076C685.959 106.624 686.092 107.047 686.357 107.346C686.623 107.645 686.972 107.794 687.403 107.794C687.735 107.794 688.012 107.717 688.234 107.562C688.455 107.407 688.607 107.186 688.69 106.898H689.504C689.382 107.363 689.138 107.736 688.773 108.018C688.408 108.295 687.951 108.434 687.403 108.434C686.972 108.434 686.587 108.337 686.249 108.143C685.917 107.949 685.657 107.675 685.469 107.321C685.281 106.967 685.187 106.552 685.187 106.076ZM694.663 105.91C694.663 106.054 694.655 106.206 694.638 106.366H691.002C691.029 106.815 691.182 107.166 691.458 107.421C691.741 107.67 692.081 107.794 692.479 107.794C692.806 107.794 693.077 107.72 693.293 107.57C693.514 107.415 693.669 107.21 693.758 106.956H694.572C694.45 107.393 694.206 107.75 693.841 108.027C693.476 108.298 693.022 108.434 692.479 108.434C692.048 108.434 691.66 108.337 691.317 108.143C690.98 107.949 690.714 107.675 690.52 107.321C690.326 106.961 690.23 106.546 690.23 106.076C690.23 105.605 690.324 105.193 690.512 104.839C690.7 104.485 690.963 104.213 691.301 104.025C691.644 103.831 692.037 103.735 692.479 103.735C692.911 103.735 693.293 103.829 693.625 104.017C693.957 104.205 694.212 104.465 694.389 104.797C694.572 105.124 694.663 105.495 694.663 105.91ZM693.883 105.752C693.883 105.464 693.819 105.218 693.692 105.013C693.564 104.803 693.39 104.645 693.169 104.54C692.953 104.429 692.712 104.374 692.446 104.374C692.064 104.374 691.738 104.496 691.467 104.739C691.201 104.983 691.049 105.32 691.01 105.752H693.883ZM697.591 106.067C697.591 105.603 697.685 105.196 697.874 104.847C698.062 104.493 698.319 104.219 698.646 104.025C698.978 103.831 699.349 103.735 699.758 103.735C700.112 103.735 700.442 103.818 700.746 103.984C701.051 104.144 701.283 104.357 701.444 104.623V102.215H702.207V108.359H701.444V107.504C701.294 107.775 701.073 107.999 700.779 108.176C700.486 108.348 700.143 108.434 699.75 108.434C699.346 108.434 698.978 108.334 698.646 108.135C698.319 107.935 698.062 107.656 697.874 107.296C697.685 106.936 697.591 106.527 697.591 106.067ZM701.444 106.076C701.444 105.733 701.374 105.434 701.236 105.179C701.098 104.925 700.909 104.731 700.671 104.598C700.439 104.46 700.182 104.39 699.899 104.39C699.617 104.39 699.36 104.457 699.127 104.59C698.895 104.723 698.709 104.916 698.571 105.171C698.433 105.425 698.363 105.724 698.363 106.067C698.363 106.416 698.433 106.721 698.571 106.981C698.709 107.235 698.895 107.432 699.127 107.57C699.36 107.703 699.617 107.769 699.899 107.769C700.182 107.769 700.439 107.703 700.671 107.57C700.909 107.432 701.098 107.235 701.236 106.981C701.374 106.721 701.444 106.419 701.444 106.076ZM704.24 104.548C704.372 104.288 704.561 104.086 704.804 103.942C705.053 103.798 705.355 103.726 705.709 103.726V104.507H705.51C704.663 104.507 704.24 104.966 704.24 105.885V108.359H703.484V103.809H704.24V104.548ZM708.565 108.434C708.139 108.434 707.752 108.337 707.403 108.143C707.06 107.949 706.789 107.675 706.589 107.321C706.396 106.961 706.299 106.546 706.299 106.076C706.299 105.611 706.399 105.201 706.598 104.847C706.803 104.487 707.079 104.213 707.428 104.025C707.777 103.831 708.167 103.735 708.599 103.735C709.03 103.735 709.421 103.831 709.769 104.025C710.118 104.213 710.392 104.485 710.591 104.839C710.796 105.193 710.898 105.605 710.898 106.076C710.898 106.546 710.793 106.961 710.583 107.321C710.378 107.675 710.099 107.949 709.744 108.143C709.39 108.337 708.997 108.434 708.565 108.434ZM708.565 107.769C708.837 107.769 709.091 107.706 709.329 107.578C709.567 107.451 709.758 107.26 709.902 107.006C710.051 106.751 710.126 106.441 710.126 106.076C710.126 105.71 710.054 105.401 709.91 105.146C709.766 104.891 709.578 104.703 709.346 104.581C709.113 104.454 708.861 104.39 708.59 104.39C708.314 104.39 708.059 104.454 707.826 104.581C707.6 104.703 707.417 104.891 707.279 105.146C707.14 105.401 707.071 105.71 707.071 106.076C707.071 106.447 707.137 106.759 707.27 107.014C707.409 107.269 707.591 107.459 707.818 107.587C708.045 107.709 708.294 107.769 708.565 107.769ZM712.647 104.648C712.797 104.388 713.018 104.172 713.311 104C713.61 103.823 713.956 103.735 714.349 103.735C714.753 103.735 715.118 103.831 715.445 104.025C715.777 104.219 716.037 104.493 716.225 104.847C716.414 105.196 716.508 105.603 716.508 106.067C716.508 106.527 716.414 106.936 716.225 107.296C716.037 107.656 715.777 107.935 715.445 108.135C715.118 108.334 714.753 108.434 714.349 108.434C713.962 108.434 713.619 108.348 713.32 108.176C713.026 107.999 712.802 107.781 712.647 107.52V110.517H711.892V103.809H712.647V104.648ZM715.736 106.067C715.736 105.724 715.666 105.425 715.528 105.171C715.39 104.916 715.201 104.723 714.963 104.59C714.731 104.457 714.474 104.39 714.191 104.39C713.915 104.39 713.657 104.46 713.419 104.598C713.187 104.731 712.999 104.927 712.855 105.187C712.716 105.442 712.647 105.738 712.647 106.076C712.647 106.419 712.716 106.721 712.855 106.981C712.999 107.235 713.187 107.432 713.419 107.57C713.657 107.703 713.915 107.769 714.191 107.769C714.474 107.769 714.731 107.703 714.963 107.57C715.201 107.432 715.39 107.235 715.528 106.981C715.666 106.721 715.736 106.416 715.736 106.067ZM719.113 108.434C718.764 108.434 718.451 108.375 718.175 108.259C717.898 108.137 717.679 107.971 717.519 107.761C717.358 107.545 717.27 107.299 717.253 107.022H718.033C718.056 107.249 718.161 107.435 718.349 107.578C718.543 107.722 718.794 107.794 719.104 107.794C719.392 107.794 719.619 107.731 719.785 107.603C719.951 107.476 720.034 107.316 720.034 107.122C720.034 106.923 719.946 106.776 719.769 106.682C719.592 106.582 719.318 106.485 718.947 106.391C718.609 106.303 718.332 106.214 718.116 106.126C717.906 106.032 717.724 105.896 717.569 105.719C717.419 105.536 717.344 105.298 717.344 105.005C717.344 104.772 717.414 104.559 717.552 104.366C717.69 104.172 717.887 104.02 718.141 103.909C718.396 103.793 718.687 103.735 719.013 103.735C719.517 103.735 719.924 103.862 720.234 104.116C720.543 104.371 720.71 104.72 720.732 105.163H719.976C719.96 104.925 719.863 104.734 719.686 104.59C719.514 104.446 719.282 104.374 718.988 104.374C718.717 104.374 718.501 104.432 718.341 104.548C718.18 104.664 718.1 104.817 718.1 105.005C718.1 105.154 718.147 105.279 718.241 105.378C718.341 105.472 718.462 105.55 718.606 105.611C718.756 105.666 718.961 105.73 719.221 105.802C719.547 105.89 719.813 105.979 720.018 106.067C720.222 106.151 720.397 106.278 720.541 106.449C720.69 106.621 720.768 106.845 720.773 107.122C720.773 107.371 720.704 107.595 720.566 107.794C720.427 107.994 720.231 108.151 719.976 108.268C719.727 108.378 719.439 108.434 719.113 108.434ZM722.62 107.313L721.69 109.546H721.184L721.79 107.313H722.62ZM729.618 103.809L726.878 110.501H726.097L726.994 108.309L725.159 103.809H725.998L727.426 107.495L728.837 103.809H729.618ZM732.361 108.434C731.935 108.434 731.548 108.337 731.199 108.143C730.856 107.949 730.585 107.675 730.385 107.321C730.192 106.961 730.095 106.546 730.095 106.076C730.095 105.611 730.194 105.201 730.394 104.847C730.598 104.487 730.875 104.213 731.224 104.025C731.573 103.831 731.963 103.735 732.394 103.735C732.826 103.735 733.216 103.831 733.565 104.025C733.914 104.213 734.188 104.485 734.387 104.839C734.592 105.193 734.694 105.605 734.694 106.076C734.694 106.546 734.589 106.961 734.379 107.321C734.174 107.675 733.894 107.949 733.54 108.143C733.186 108.337 732.793 108.434 732.361 108.434ZM732.361 107.769C732.632 107.769 732.887 107.706 733.125 107.578C733.363 107.451 733.554 107.26 733.698 107.006C733.847 106.751 733.922 106.441 733.922 106.076C733.922 105.71 733.85 105.401 733.706 105.146C733.562 104.891 733.374 104.703 733.142 104.581C732.909 104.454 732.657 104.39 732.386 104.39C732.109 104.39 731.855 104.454 731.622 104.581C731.395 104.703 731.213 104.891 731.074 105.146C730.936 105.401 730.867 105.71 730.867 106.076C730.867 106.447 730.933 106.759 731.066 107.014C731.204 107.269 731.387 107.459 731.614 107.587C731.841 107.709 732.09 107.769 732.361 107.769ZM739.722 103.809V108.359H738.967V107.686C738.823 107.919 738.621 108.102 738.361 108.234C738.106 108.362 737.824 108.425 737.514 108.425C737.16 108.425 736.842 108.353 736.559 108.209C736.277 108.06 736.053 107.839 735.887 107.545C735.726 107.252 735.646 106.895 735.646 106.474V103.809H736.393V106.375C736.393 106.823 736.507 107.169 736.734 107.412C736.961 107.65 737.27 107.769 737.663 107.769C738.067 107.769 738.386 107.645 738.618 107.396C738.851 107.147 738.967 106.784 738.967 106.308V103.809H739.722ZM648.127 116.648C648.276 116.388 648.498 116.172 648.791 116C649.09 115.823 649.436 115.735 649.829 115.735C650.233 115.735 650.598 115.831 650.925 116.025C651.257 116.219 651.517 116.493 651.705 116.847C651.893 117.196 651.987 117.603 651.987 118.067C651.987 118.527 651.893 118.936 651.705 119.296C651.517 119.656 651.257 119.935 650.925 120.135C650.598 120.334 650.233 120.434 649.829 120.434C649.441 120.434 649.098 120.348 648.799 120.176C648.506 119.999 648.282 119.781 648.127 119.52V122.517H647.371V115.809H648.127V116.648ZM651.215 118.067C651.215 117.724 651.146 117.425 651.008 117.171C650.869 116.916 650.681 116.723 650.443 116.59C650.211 116.457 649.953 116.39 649.671 116.39C649.394 116.39 649.137 116.46 648.899 116.598C648.666 116.731 648.478 116.927 648.334 117.187C648.196 117.442 648.127 117.738 648.127 118.076C648.127 118.419 648.196 118.721 648.334 118.981C648.478 119.235 648.666 119.432 648.899 119.57C649.137 119.703 649.394 119.769 649.671 119.769C649.953 119.769 650.211 119.703 650.443 119.57C650.681 119.432 650.869 119.235 651.008 118.981C651.146 118.721 651.215 118.416 651.215 118.067ZM652.699 118.067C652.699 117.603 652.794 117.196 652.982 116.847C653.17 116.493 653.427 116.219 653.754 116.025C654.086 115.831 654.454 115.735 654.858 115.735C655.256 115.735 655.602 115.82 655.896 115.992C656.189 116.164 656.408 116.379 656.552 116.64V115.809H657.315V120.359H656.552V119.512C656.402 119.778 656.178 119.999 655.879 120.176C655.586 120.348 655.243 120.434 654.85 120.434C654.446 120.434 654.08 120.334 653.754 120.135C653.427 119.935 653.17 119.656 652.982 119.296C652.794 118.936 652.699 118.527 652.699 118.067ZM656.552 118.076C656.552 117.733 656.482 117.434 656.344 117.179C656.206 116.925 656.018 116.731 655.78 116.598C655.547 116.46 655.29 116.39 655.007 116.39C654.725 116.39 654.468 116.457 654.235 116.59C654.003 116.723 653.817 116.916 653.679 117.171C653.541 117.425 653.472 117.724 653.472 118.067C653.472 118.416 653.541 118.721 653.679 118.981C653.817 119.235 654.003 119.432 654.235 119.57C654.468 119.703 654.725 119.769 655.007 119.769C655.29 119.769 655.547 119.703 655.78 119.57C656.018 119.432 656.206 119.235 656.344 118.981C656.482 118.721 656.552 118.419 656.552 118.076ZM662.511 115.809L659.771 122.501H658.991L659.887 120.309L658.053 115.809H658.891L660.319 119.495L661.73 115.809H662.511ZM666.405 116.432V119.114C666.405 119.335 666.452 119.493 666.546 119.587C666.64 119.675 666.804 119.72 667.036 119.72H667.592V120.359H666.912C666.491 120.359 666.175 120.262 665.965 120.068C665.755 119.875 665.65 119.556 665.65 119.114V116.432H665.06V115.809H665.65V114.664H666.405V115.809H667.592V116.432H666.405ZM670.766 115.726C671.109 115.726 671.419 115.801 671.696 115.95C671.973 116.094 672.188 116.313 672.343 116.606C672.504 116.9 672.584 117.257 672.584 117.677V120.359H671.837V117.785C671.837 117.331 671.724 116.985 671.497 116.747C671.27 116.504 670.96 116.382 670.567 116.382C670.168 116.382 669.85 116.507 669.612 116.756C669.38 117.005 669.263 117.367 669.263 117.843V120.359H668.508V114.215H669.263V116.457C669.413 116.224 669.618 116.045 669.878 115.917C670.143 115.79 670.439 115.726 670.766 115.726ZM677.969 117.91C677.969 118.054 677.961 118.206 677.944 118.366H674.308C674.336 118.815 674.488 119.166 674.765 119.421C675.047 119.67 675.387 119.794 675.786 119.794C676.112 119.794 676.384 119.72 676.6 119.57C676.821 119.415 676.976 119.21 677.064 118.956H677.878C677.756 119.393 677.513 119.75 677.147 120.027C676.782 120.298 676.328 120.434 675.786 120.434C675.354 120.434 674.967 120.337 674.624 120.143C674.286 119.949 674.02 119.675 673.827 119.321C673.633 118.961 673.536 118.546 673.536 118.076C673.536 117.605 673.63 117.193 673.818 116.839C674.006 116.485 674.269 116.213 674.607 116.025C674.95 115.831 675.343 115.735 675.786 115.735C676.218 115.735 676.6 115.829 676.932 116.017C677.264 116.205 677.518 116.465 677.695 116.797C677.878 117.124 677.969 117.495 677.969 117.91ZM677.189 117.752C677.189 117.464 677.125 117.218 676.998 117.013C676.871 116.803 676.696 116.645 676.475 116.54C676.259 116.429 676.018 116.374 675.753 116.374C675.371 116.374 675.044 116.496 674.773 116.739C674.507 116.983 674.355 117.32 674.316 117.752H677.189ZM683.397 115.726C683.95 115.726 684.398 115.895 684.742 116.233C685.085 116.565 685.256 117.046 685.256 117.677V120.359H684.509V117.785C684.509 117.331 684.396 116.985 684.169 116.747C683.942 116.504 683.632 116.382 683.239 116.382C682.84 116.382 682.522 116.507 682.284 116.756C682.052 117.005 681.935 117.367 681.935 117.843V120.359H681.18V115.809H681.935V116.457C682.085 116.224 682.287 116.045 682.542 115.917C682.802 115.79 683.087 115.726 683.397 115.726ZM690.642 117.91C690.642 118.054 690.633 118.206 690.617 118.366H686.98C687.008 118.815 687.16 119.166 687.437 119.421C687.719 119.67 688.06 119.794 688.458 119.794C688.785 119.794 689.056 119.72 689.272 119.57C689.493 119.415 689.648 119.21 689.737 118.956H690.55C690.428 119.393 690.185 119.75 689.82 120.027C689.454 120.298 689.001 120.434 688.458 120.434C688.026 120.434 687.639 120.337 687.296 120.143C686.958 119.949 686.693 119.675 686.499 119.321C686.305 118.961 686.208 118.546 686.208 118.076C686.208 117.605 686.302 117.193 686.49 116.839C686.679 116.485 686.942 116.213 687.279 116.025C687.622 115.831 688.015 115.735 688.458 115.735C688.89 115.735 689.272 115.829 689.604 116.017C689.936 116.205 690.19 116.465 690.368 116.797C690.55 117.124 690.642 117.495 690.642 117.91ZM689.861 117.752C689.861 117.464 689.798 117.218 689.67 117.013C689.543 116.803 689.369 116.645 689.147 116.54C688.931 116.429 688.691 116.374 688.425 116.374C688.043 116.374 687.716 116.496 687.445 116.739C687.18 116.983 687.027 117.32 686.989 117.752H689.861ZM697.699 115.809L696.28 120.359H695.499L694.403 116.747L693.308 120.359H692.527L691.099 115.809H691.871L692.917 119.628L694.046 115.809H694.819L695.923 119.637L696.952 115.809H697.699ZM699.23 119.313L698.3 121.546H697.793L698.399 119.313H699.23ZM703.064 114.215V120.359H702.308V114.215H703.064ZM706.336 120.434C705.91 120.434 705.522 120.337 705.173 120.143C704.83 119.949 704.559 119.675 704.36 119.321C704.166 118.961 704.069 118.546 704.069 118.076C704.069 117.611 704.169 117.201 704.368 116.847C704.573 116.487 704.85 116.213 705.198 116.025C705.547 115.831 705.937 115.735 706.369 115.735C706.801 115.735 707.191 115.831 707.54 116.025C707.888 116.213 708.162 116.485 708.362 116.839C708.566 117.193 708.669 117.605 708.669 118.076C708.669 118.546 708.564 118.961 708.353 119.321C708.148 119.675 707.869 119.949 707.515 120.143C707.16 120.337 706.768 120.434 706.336 120.434ZM706.336 119.769C706.607 119.769 706.862 119.706 707.1 119.578C707.338 119.451 707.529 119.26 707.672 119.006C707.822 118.751 707.897 118.441 707.897 118.076C707.897 117.71 707.825 117.401 707.681 117.146C707.537 116.891 707.349 116.703 707.116 116.581C706.884 116.454 706.632 116.39 706.361 116.39C706.084 116.39 705.829 116.454 705.597 116.581C705.37 116.703 705.187 116.891 705.049 117.146C704.911 117.401 704.841 117.71 704.841 118.076C704.841 118.447 704.908 118.759 705.041 119.014C705.179 119.269 705.362 119.459 705.589 119.587C705.816 119.709 706.065 119.769 706.336 119.769ZM715.723 115.809L714.303 120.359H713.523L712.427 116.747L711.331 120.359H710.55L709.122 115.809H709.895L710.941 119.628L712.07 115.809H712.842L713.946 119.637L714.975 115.809H715.723ZM720.624 117.91C720.624 118.054 720.615 118.206 720.599 118.366H716.962C716.99 118.815 717.142 119.166 717.419 119.421C717.701 119.67 718.042 119.794 718.44 119.794C718.767 119.794 719.038 119.72 719.254 119.57C719.475 119.415 719.63 119.21 719.719 118.956H720.532C720.41 119.393 720.167 119.75 719.802 120.027C719.436 120.298 718.982 120.434 718.44 120.434C718.008 120.434 717.621 120.337 717.278 120.143C716.94 119.949 716.674 119.675 716.481 119.321C716.287 118.961 716.19 118.546 716.19 118.076C716.19 117.605 716.284 117.193 716.472 116.839C716.661 116.485 716.924 116.213 717.261 116.025C717.604 115.831 717.997 115.735 718.44 115.735C718.872 115.735 719.254 115.829 719.586 116.017C719.918 116.205 720.172 116.465 720.35 116.797C720.532 117.124 720.624 117.495 720.624 117.91ZM719.843 117.752C719.843 117.464 719.78 117.218 719.652 117.013C719.525 116.803 719.351 116.645 719.129 116.54C718.913 116.429 718.673 116.374 718.407 116.374C718.025 116.374 717.698 116.496 717.427 116.739C717.162 116.983 717.009 117.32 716.971 117.752H719.843ZM722.376 116.548C722.509 116.288 722.697 116.086 722.941 115.942C723.19 115.798 723.492 115.726 723.846 115.726V116.507H723.647C722.8 116.507 722.376 116.966 722.376 117.885V120.359H721.621V115.809H722.376V116.548ZM727.687 116.648C727.836 116.388 728.058 116.172 728.351 116C728.65 115.823 728.996 115.735 729.389 115.735C729.793 115.735 730.158 115.831 730.485 116.025C730.817 116.219 731.077 116.493 731.265 116.847C731.453 117.196 731.547 117.603 731.547 118.067C731.547 118.527 731.453 118.936 731.265 119.296C731.077 119.656 730.817 119.935 730.485 120.135C730.158 120.334 729.793 120.434 729.389 120.434C729.001 120.434 728.658 120.348 728.359 120.176C728.066 119.999 727.842 119.781 727.687 119.52V122.517H726.931V115.809H727.687V116.648ZM730.775 118.067C730.775 117.724 730.706 117.425 730.568 117.171C730.429 116.916 730.241 116.723 730.003 116.59C729.771 116.457 729.513 116.39 729.231 116.39C728.954 116.39 728.697 116.46 728.459 116.598C728.226 116.731 728.038 116.927 727.894 117.187C727.756 117.442 727.687 117.738 727.687 118.076C727.687 118.419 727.756 118.721 727.894 118.981C728.038 119.235 728.226 119.432 728.459 119.57C728.697 119.703 728.954 119.769 729.231 119.769C729.513 119.769 729.771 119.703 730.003 119.57C730.241 119.432 730.429 119.235 730.568 118.981C730.706 118.721 730.775 118.416 730.775 118.067ZM733.297 116.548C733.43 116.288 733.618 116.086 733.862 115.942C734.111 115.798 734.413 115.726 734.767 115.726V116.507H734.567C733.721 116.507 733.297 116.966 733.297 117.885V120.359H732.542V115.809H733.297V116.548ZM736.029 115.07C735.885 115.07 735.763 115.021 735.664 114.921C735.564 114.821 735.514 114.7 735.514 114.556C735.514 114.412 735.564 114.29 735.664 114.19C735.763 114.091 735.885 114.041 736.029 114.041C736.167 114.041 736.284 114.091 736.378 114.19C736.477 114.29 736.527 114.412 736.527 114.556C736.527 114.7 736.477 114.821 736.378 114.921C736.284 115.021 736.167 115.07 736.029 115.07ZM736.394 115.809V120.359H735.639V115.809H736.394ZM737.4 118.076C737.4 117.605 737.494 117.196 737.682 116.847C737.87 116.493 738.13 116.219 738.462 116.025C738.8 115.831 739.185 115.735 739.616 115.735C740.175 115.735 740.635 115.87 740.995 116.141C741.36 116.413 741.601 116.789 741.717 117.27H740.903C740.826 116.994 740.674 116.775 740.447 116.615C740.225 116.454 739.948 116.374 739.616 116.374C739.185 116.374 738.836 116.523 738.57 116.822C738.305 117.115 738.172 117.533 738.172 118.076C738.172 118.624 738.305 119.047 738.57 119.346C738.836 119.645 739.185 119.794 739.616 119.794C739.948 119.794 740.225 119.717 740.447 119.562C740.668 119.407 740.82 119.186 740.903 118.898H741.717C741.595 119.363 741.352 119.736 740.986 120.018C740.621 120.295 740.164 120.434 739.616 120.434C739.185 120.434 738.8 120.337 738.462 120.143C738.13 119.949 737.87 119.675 737.682 119.321C737.494 118.967 737.4 118.552 737.4 118.076ZM746.876 117.91C746.876 118.054 746.868 118.206 746.851 118.366H743.215C743.242 118.815 743.395 119.166 743.671 119.421C743.954 119.67 744.294 119.794 744.693 119.794C745.019 119.794 745.29 119.72 745.506 119.57C745.728 119.415 745.883 119.21 745.971 118.956H746.785C746.663 119.393 746.419 119.75 746.054 120.027C745.689 120.298 745.235 120.434 744.693 120.434C744.261 120.434 743.873 120.337 743.53 120.143C743.193 119.949 742.927 119.675 742.733 119.321C742.54 118.961 742.443 118.546 742.443 118.076C742.443 117.605 742.537 117.193 742.725 116.839C742.913 116.485 743.176 116.213 743.514 116.025C743.857 115.831 744.25 115.735 744.693 115.735C745.124 115.735 745.506 115.829 745.838 116.017C746.17 116.205 746.425 116.465 746.602 116.797C746.785 117.124 746.876 117.495 746.876 117.91ZM746.096 117.752C746.096 117.464 746.032 117.218 745.905 117.013C745.777 116.803 745.603 116.645 745.382 116.54C745.166 116.429 744.925 116.374 744.659 116.374C744.277 116.374 743.951 116.496 743.68 116.739C743.414 116.983 743.262 117.32 743.223 117.752H746.096Z" fill="#221F20"/>
<path d="M761.84 111.946C762.164 111.622 762.164 111.096 761.84 110.772L757.446 106.378L757.446 116.34L761.84 111.946Z" fill="white"/>
</g>
<g filter="url(#filter1_d_6091_210767)">
<path d="M737.087 23.9461C736.763 23.6218 736.763 23.0962 737.087 22.772L741.481 18.3777L741.481 28.3403L737.087 23.9461Z" fill="white"/>
<rect x="741.481" y="13.7173" width="127.925" height="37.2835" rx="4.98132" fill="white"/>
<path d="M753.195 23.5723V29.3589H752.439V23.5723H753.195ZM756.334 25.4319H755.379V29.3589H754.623V25.4319H754.034V24.8093H754.623V24.4855C754.623 23.9763 754.754 23.6055 755.014 23.373C755.279 23.135 755.703 23.016 756.284 23.016V23.647C755.952 23.647 755.717 23.7134 755.578 23.8462C755.445 23.9735 755.379 24.1866 755.379 24.4855V24.8093H756.334V25.4319ZM760.349 25.4319V28.1136C760.349 28.3349 760.397 28.4927 760.491 28.5868C760.585 28.6753 760.748 28.7196 760.98 28.7196H761.537V29.3589H760.856C760.435 29.3589 760.12 29.262 759.909 29.0683C759.699 28.8746 759.594 28.5563 759.594 28.1136V25.4319H759.005V24.8093H759.594V23.6636H760.349V24.8093H761.537V25.4319H760.349ZM764.71 24.7263C765.053 24.7263 765.363 24.801 765.64 24.9504C765.917 25.0943 766.133 25.3129 766.288 25.6063C766.448 25.8996 766.528 26.2566 766.528 26.6773V29.3589H765.781V26.7852C765.781 26.3314 765.668 25.9854 765.441 25.7474C765.214 25.5039 764.904 25.3821 764.511 25.3821C764.113 25.3821 763.794 25.5067 763.556 25.7557C763.324 26.0048 763.208 26.3673 763.208 26.8433V29.3589H762.452V23.2153H763.208V25.4569C763.357 25.2244 763.562 25.0445 763.822 24.9172C764.088 24.7899 764.384 24.7263 764.71 24.7263ZM771.914 26.9097C771.914 27.0536 771.905 27.2058 771.889 27.3664H768.252C768.28 27.8147 768.432 28.1661 768.709 28.4207C768.991 28.6698 769.332 28.7943 769.73 28.7943C770.057 28.7943 770.328 28.7196 770.544 28.5702C770.765 28.4152 770.92 28.2104 771.009 27.9558H771.822C771.701 28.3931 771.457 28.7501 771.092 29.0268C770.726 29.298 770.273 29.4336 769.73 29.4336C769.298 29.4336 768.911 29.3367 768.568 29.143C768.23 28.9493 767.965 28.6753 767.771 28.3211C767.577 27.9613 767.48 27.5462 767.48 27.0758C767.48 26.6053 767.574 26.193 767.763 25.8388C767.951 25.4845 768.214 25.2133 768.551 25.0251C768.894 24.8314 769.287 24.7346 769.73 24.7346C770.162 24.7346 770.544 24.8287 770.876 25.0168C771.208 25.205 771.463 25.4652 771.64 25.7972C771.822 26.1238 771.914 26.4946 771.914 26.9097ZM771.133 26.752C771.133 26.4642 771.07 26.2179 770.942 26.0131C770.815 25.8028 770.641 25.645 770.419 25.5399C770.203 25.4292 769.963 25.3738 769.697 25.3738C769.315 25.3738 768.989 25.4956 768.717 25.7391C768.452 25.9827 768.299 26.3203 768.261 26.752H771.133ZM775.88 25.6478C776.029 25.3877 776.251 25.1718 776.544 25.0002C776.843 24.8231 777.189 24.7346 777.582 24.7346C777.986 24.7346 778.351 24.8314 778.678 25.0251C779.01 25.2189 779.27 25.4928 779.458 25.8471C779.646 26.1957 779.74 26.6026 779.74 27.0675C779.74 27.5269 779.646 27.9364 779.458 28.2962C779.27 28.656 779.01 28.9355 778.678 29.1347C778.351 29.334 777.986 29.4336 777.582 29.4336C777.194 29.4336 776.851 29.3478 776.552 29.1762C776.259 28.9991 776.035 28.7805 775.88 28.5204V31.5175H775.124V24.8093H775.88V25.6478ZM778.968 27.0675C778.968 26.7243 778.899 26.4254 778.761 26.1708C778.622 25.9162 778.434 25.7225 778.196 25.5897C777.964 25.4569 777.706 25.3904 777.424 25.3904C777.147 25.3904 776.89 25.4596 776.652 25.598C776.419 25.7308 776.231 25.9273 776.087 26.1874C775.949 26.442 775.88 26.7382 775.88 27.0758C775.88 27.4189 775.949 27.7206 776.087 27.9807C776.231 28.2353 776.419 28.4318 776.652 28.5702C776.89 28.703 777.147 28.7694 777.424 28.7694C777.706 28.7694 777.964 28.703 778.196 28.5702C778.434 28.4318 778.622 28.2353 778.761 27.9807C778.899 27.7206 778.968 27.4162 778.968 27.0675ZM781.49 25.5482C781.623 25.288 781.811 25.086 782.055 24.9421C782.304 24.7982 782.606 24.7263 782.96 24.7263V25.5067H782.761C781.914 25.5067 781.49 25.9661 781.49 26.8848V29.3589H780.735V24.8093H781.49V25.5482ZM784.222 24.0704C784.078 24.0704 783.956 24.0206 783.857 23.9209C783.757 23.8213 783.707 23.6996 783.707 23.5556C783.707 23.4117 783.757 23.29 783.857 23.1904C783.956 23.0907 784.078 23.0409 784.222 23.0409C784.36 23.0409 784.477 23.0907 784.571 23.1904C784.67 23.29 784.72 23.4117 784.72 23.5556C784.72 23.6996 784.67 23.8213 784.571 23.9209C784.477 24.0206 784.36 24.0704 784.222 24.0704ZM784.587 24.8093V29.3589H783.832V24.8093H784.587ZM785.593 27.0758C785.593 26.6053 785.687 26.1957 785.875 25.8471C786.063 25.4928 786.323 25.2189 786.655 25.0251C786.993 24.8314 787.378 24.7346 787.809 24.7346C788.368 24.7346 788.828 24.8702 789.188 25.1414C789.553 25.4126 789.794 25.7889 789.91 26.2705H789.096C789.019 25.9937 788.867 25.7751 788.64 25.6146C788.418 25.4541 788.141 25.3738 787.809 25.3738C787.378 25.3738 787.029 25.5233 786.763 25.8221C786.498 26.1155 786.365 26.5334 786.365 27.0758C786.365 27.6237 786.498 28.0471 786.763 28.346C787.029 28.6449 787.378 28.7943 787.809 28.7943C788.141 28.7943 788.418 28.7168 788.64 28.5619C788.861 28.4069 789.013 28.1855 789.096 27.8977H789.91C789.788 28.3626 789.545 28.7362 789.179 29.0185C788.814 29.2952 788.357 29.4336 787.809 29.4336C787.378 29.4336 786.993 29.3367 786.655 29.143C786.323 28.9493 786.063 28.6753 785.875 28.3211C785.687 27.9669 785.593 27.5518 785.593 27.0758ZM795.069 26.9097C795.069 27.0536 795.061 27.2058 795.044 27.3664H791.408C791.435 27.8147 791.588 28.1661 791.864 28.4207C792.147 28.6698 792.487 28.7943 792.886 28.7943C793.212 28.7943 793.483 28.7196 793.699 28.5702C793.921 28.4152 794.076 28.2104 794.164 27.9558H794.978C794.856 28.3931 794.612 28.7501 794.247 29.0268C793.882 29.298 793.428 29.4336 792.886 29.4336C792.454 29.4336 792.066 29.3367 791.723 29.143C791.386 28.9493 791.12 28.6753 790.926 28.3211C790.733 27.9613 790.636 27.5462 790.636 27.0758C790.636 26.6053 790.73 26.193 790.918 25.8388C791.106 25.4845 791.369 25.2133 791.707 25.0251C792.05 24.8314 792.443 24.7346 792.886 24.7346C793.317 24.7346 793.699 24.8287 794.031 25.0168C794.363 25.205 794.618 25.4652 794.795 25.7972C794.978 26.1238 795.069 26.4946 795.069 26.9097ZM794.289 26.752C794.289 26.4642 794.225 26.2179 794.098 26.0131C793.97 25.8028 793.796 25.645 793.575 25.5399C793.359 25.4292 793.118 25.3738 792.852 25.3738C792.47 25.3738 792.144 25.4956 791.873 25.7391C791.607 25.9827 791.455 26.3203 791.416 26.752H794.289ZM798.67 24.0704C798.526 24.0704 798.404 24.0206 798.305 23.9209C798.205 23.8213 798.155 23.6996 798.155 23.5556C798.155 23.4117 798.205 23.29 798.305 23.1904C798.404 23.0907 798.526 23.0409 798.67 23.0409C798.808 23.0409 798.924 23.0907 799.019 23.1904C799.118 23.29 799.168 23.4117 799.168 23.5556C799.168 23.6996 799.118 23.8213 799.019 23.9209C798.924 24.0206 798.808 24.0704 798.67 24.0704ZM799.035 24.8093V29.3589H798.28V24.8093H799.035ZM802.539 24.7263C803.093 24.7263 803.541 24.8951 803.884 25.2327C804.228 25.5648 804.399 26.0463 804.399 26.6773V29.3589H803.652V26.7852C803.652 26.3314 803.538 25.9854 803.312 25.7474C803.085 25.5039 802.775 25.3821 802.382 25.3821C801.983 25.3821 801.665 25.5067 801.427 25.7557C801.195 26.0048 801.078 26.3673 801.078 26.8433V29.3589H800.323V24.8093H801.078V25.4569C801.228 25.2244 801.43 25.0445 801.684 24.9172C801.944 24.7899 802.23 24.7263 802.539 24.7263ZM805.351 27.0758C805.351 26.6053 805.445 26.1957 805.633 25.8471C805.821 25.4928 806.082 25.2189 806.414 25.0251C806.751 24.8314 807.136 24.7346 807.568 24.7346C808.127 24.7346 808.586 24.8702 808.946 25.1414C809.311 25.4126 809.552 25.7889 809.668 26.2705H808.855C808.777 25.9937 808.625 25.7751 808.398 25.6146C808.177 25.4541 807.9 25.3738 807.568 25.3738C807.136 25.3738 806.787 25.5233 806.522 25.8221C806.256 26.1155 806.123 26.5334 806.123 27.0758C806.123 27.6237 806.256 28.0471 806.522 28.346C806.787 28.6449 807.136 28.7943 807.568 28.7943C807.9 28.7943 808.177 28.7168 808.398 28.5619C808.619 28.4069 808.771 28.1855 808.855 27.8977H809.668C809.546 28.3626 809.303 28.7362 808.938 29.0185C808.572 29.2952 808.116 29.4336 807.568 29.4336C807.136 29.4336 806.751 29.3367 806.414 29.143C806.082 28.9493 805.821 28.6753 805.633 28.3211C805.445 27.9669 805.351 27.5518 805.351 27.0758ZM811.432 25.5482C811.565 25.288 811.753 25.086 811.996 24.9421C812.245 24.7982 812.547 24.7263 812.901 24.7263V25.5067H812.702C811.855 25.5067 811.432 25.9661 811.432 26.8848V29.3589H810.676V24.8093H811.432V25.5482ZM817.924 26.9097C817.924 27.0536 817.916 27.2058 817.9 27.3664H814.263C814.291 27.8147 814.443 28.1661 814.72 28.4207C815.002 28.6698 815.342 28.7943 815.741 28.7943C816.067 28.7943 816.339 28.7196 816.555 28.5702C816.776 28.4152 816.931 28.2104 817.019 27.9558H817.833C817.711 28.3931 817.468 28.7501 817.102 29.0268C816.737 29.298 816.283 29.4336 815.741 29.4336C815.309 29.4336 814.922 29.3367 814.579 29.143C814.241 28.9493 813.975 28.6753 813.782 28.3211C813.588 27.9613 813.491 27.5462 813.491 27.0758C813.491 26.6053 813.585 26.193 813.773 25.8388C813.961 25.4845 814.224 25.2133 814.562 25.0251C814.905 24.8314 815.298 24.7346 815.741 24.7346C816.173 24.7346 816.555 24.8287 816.887 25.0168C817.219 25.205 817.473 25.4652 817.65 25.7972C817.833 26.1238 817.924 26.4946 817.924 26.9097ZM817.144 26.752C817.144 26.4642 817.08 26.2179 816.953 26.0131C816.826 25.8028 816.651 25.645 816.43 25.5399C816.214 25.4292 815.973 25.3738 815.708 25.3738C815.326 25.3738 814.999 25.4956 814.728 25.7391C814.462 25.9827 814.31 26.3203 814.271 26.752H817.144ZM818.639 27.0675C818.639 26.6026 818.733 26.1957 818.922 25.8471C819.11 25.4928 819.367 25.2189 819.694 25.0251C820.026 24.8314 820.394 24.7346 820.798 24.7346C821.196 24.7346 821.542 24.8203 821.836 24.9919C822.129 25.1635 822.348 25.3794 822.492 25.6395V24.8093H823.255V29.3589H822.492V28.5121C822.342 28.7777 822.118 28.9991 821.819 29.1762C821.526 29.3478 821.183 29.4336 820.79 29.4336C820.386 29.4336 820.02 29.334 819.694 29.1347C819.367 28.9355 819.11 28.656 818.922 28.2962C818.733 27.9364 818.639 27.5269 818.639 27.0675ZM822.492 27.0758C822.492 26.7326 822.422 26.4337 822.284 26.1791C822.146 25.9245 821.957 25.7308 821.719 25.598C821.487 25.4596 821.23 25.3904 820.947 25.3904C820.665 25.3904 820.408 25.4569 820.175 25.5897C819.943 25.7225 819.757 25.9162 819.619 26.1708C819.481 26.4254 819.411 26.7243 819.411 27.0675C819.411 27.4162 819.481 27.7206 819.619 27.9807C819.757 28.2353 819.943 28.4318 820.175 28.5702C820.408 28.703 820.665 28.7694 820.947 28.7694C821.23 28.7694 821.487 28.703 821.719 28.5702C821.957 28.4318 822.146 28.2353 822.284 27.9807C822.422 27.7206 822.492 27.4189 822.492 27.0758ZM826.143 29.4336C825.794 29.4336 825.481 29.3755 825.205 29.2593C824.928 29.1375 824.709 28.9715 824.549 28.7611C824.388 28.5453 824.3 28.299 824.283 28.0222H825.063C825.086 28.2492 825.191 28.4346 825.379 28.5785C825.573 28.7224 825.824 28.7943 826.134 28.7943C826.422 28.7943 826.649 28.7307 826.815 28.6034C826.981 28.4761 827.064 28.3156 827.064 28.1219C827.064 27.9226 826.976 27.7759 826.799 27.6818C826.622 27.5822 826.348 27.4854 825.977 27.3913C825.639 27.3027 825.362 27.2142 825.146 27.1256C824.936 27.0315 824.754 26.8959 824.599 26.7188C824.449 26.5361 824.374 26.2981 824.374 26.0048C824.374 25.7723 824.444 25.5592 824.582 25.3655C824.72 25.1718 824.917 25.0196 825.171 24.9089C825.426 24.7927 825.717 24.7346 826.043 24.7346C826.547 24.7346 826.954 24.8619 827.264 25.1165C827.573 25.3711 827.74 25.7198 827.762 26.1625H827.006C826.99 25.9245 826.893 25.7336 826.716 25.5897C826.544 25.4458 826.312 25.3738 826.018 25.3738C825.747 25.3738 825.531 25.4319 825.371 25.5482C825.21 25.6644 825.13 25.8166 825.13 26.0048C825.13 26.1542 825.177 26.2788 825.271 26.3784C825.371 26.4725 825.492 26.55 825.636 26.6109C825.786 26.6662 825.991 26.7299 826.251 26.8018C826.577 26.8904 826.843 26.9789 827.048 27.0675C827.252 27.1505 827.427 27.2778 827.571 27.4494C827.72 27.621 827.798 27.8451 827.803 28.1219C827.803 28.3709 827.734 28.5951 827.596 28.7943C827.457 28.9936 827.261 29.1513 827.006 29.2676C826.757 29.3783 826.469 29.4336 826.143 29.4336ZM833.021 26.9097C833.021 27.0536 833.012 27.2058 832.996 27.3664H829.36C829.387 27.8147 829.539 28.1661 829.816 28.4207C830.098 28.6698 830.439 28.7943 830.837 28.7943C831.164 28.7943 831.435 28.7196 831.651 28.5702C831.872 28.4152 832.027 28.2104 832.116 27.9558H832.929C832.808 28.3931 832.564 28.7501 832.199 29.0268C831.834 29.298 831.38 29.4336 830.837 29.4336C830.406 29.4336 830.018 29.3367 829.675 29.143C829.337 28.9493 829.072 28.6753 828.878 28.3211C828.684 27.9613 828.587 27.5462 828.587 27.0758C828.587 26.6053 828.682 26.193 828.87 25.8388C829.058 25.4845 829.321 25.2133 829.658 25.0251C830.002 24.8314 830.395 24.7346 830.837 24.7346C831.269 24.7346 831.651 24.8287 831.983 25.0168C832.315 25.205 832.57 25.4652 832.747 25.7972C832.929 26.1238 833.021 26.4946 833.021 26.9097ZM832.24 26.752C832.24 26.4642 832.177 26.2179 832.049 26.0131C831.922 25.8028 831.748 25.645 831.526 25.5399C831.311 25.4292 831.07 25.3738 830.804 25.3738C830.422 25.3738 830.096 25.4956 829.824 25.7391C829.559 25.9827 829.407 26.3203 829.368 26.752H832.24ZM835.629 29.4336C835.28 29.4336 834.967 29.3755 834.691 29.2593C834.414 29.1375 834.195 28.9715 834.035 28.7611C833.874 28.5453 833.786 28.299 833.769 28.0222H834.549C834.572 28.2492 834.677 28.4346 834.865 28.5785C835.059 28.7224 835.31 28.7943 835.62 28.7943C835.908 28.7943 836.135 28.7307 836.301 28.6034C836.467 28.4761 836.55 28.3156 836.55 28.1219C836.55 27.9226 836.462 27.7759 836.285 27.6818C836.107 27.5822 835.833 27.4854 835.463 27.3913C835.125 27.3027 834.848 27.2142 834.632 27.1256C834.422 27.0315 834.239 26.8959 834.084 26.7188C833.935 26.5361 833.86 26.2981 833.86 26.0048C833.86 25.7723 833.929 25.5592 834.068 25.3655C834.206 25.1718 834.403 25.0196 834.657 24.9089C834.912 24.7927 835.202 24.7346 835.529 24.7346C836.033 24.7346 836.44 24.8619 836.749 25.1165C837.059 25.3711 837.225 25.7198 837.248 26.1625H836.492C836.475 25.9245 836.379 25.7336 836.202 25.5897C836.03 25.4458 835.797 25.3738 835.504 25.3738C835.233 25.3738 835.017 25.4319 834.857 25.5482C834.696 25.6644 834.616 25.8166 834.616 26.0048C834.616 26.1542 834.663 26.2788 834.757 26.3784C834.857 26.4725 834.978 26.55 835.122 26.6109C835.272 26.6662 835.476 26.7299 835.737 26.8018C836.063 26.8904 836.329 26.9789 836.534 27.0675C836.738 27.1505 836.913 27.2778 837.057 27.4494C837.206 27.621 837.284 27.8451 837.289 28.1219C837.289 28.3709 837.22 28.5951 837.082 28.7943C836.943 28.9936 836.747 29.1513 836.492 29.2676C836.243 29.3783 835.955 29.4336 835.629 29.4336ZM839.136 28.3128L838.206 30.5461H837.7L838.306 28.3128H839.136ZM846.133 24.8093L843.394 31.5009H842.613L843.51 29.3091L841.675 24.8093H842.514L843.942 28.4955L845.353 24.8093H846.133ZM848.877 29.4336C848.451 29.4336 848.064 29.3367 847.715 29.143C847.372 28.9493 847.1 28.6753 846.901 28.3211C846.708 27.9613 846.611 27.5462 846.611 27.0758C846.611 26.6109 846.71 26.2013 846.91 25.8471C847.114 25.4873 847.391 25.2133 847.74 25.0251C848.088 24.8314 848.479 24.7346 848.91 24.7346C849.342 24.7346 849.732 24.8314 850.081 25.0251C850.43 25.2133 850.704 25.4845 850.903 25.8388C851.108 26.193 851.21 26.6053 851.21 27.0758C851.21 27.5462 851.105 27.9613 850.895 28.3211C850.69 28.6753 850.41 28.9493 850.056 29.143C849.702 29.3367 849.309 29.4336 848.877 29.4336ZM848.877 28.7694C849.148 28.7694 849.403 28.7058 849.641 28.5785C849.879 28.4512 850.07 28.2602 850.214 28.0056C850.363 27.751 850.438 27.4411 850.438 27.0758C850.438 26.7105 850.366 26.4005 850.222 26.1459C850.078 25.8913 849.89 25.7032 849.658 25.5814C849.425 25.4541 849.173 25.3904 848.902 25.3904C848.625 25.3904 848.371 25.4541 848.138 25.5814C847.911 25.7032 847.729 25.8913 847.59 26.1459C847.452 26.4005 847.383 26.7105 847.383 27.0758C847.383 27.4466 847.449 27.7593 847.582 28.0139C847.72 28.2685 847.903 28.4595 848.13 28.5868C848.357 28.7085 848.606 28.7694 848.877 28.7694ZM856.238 24.8093V29.3589H855.483V28.6864C855.339 28.9189 855.137 29.1015 854.877 29.2344C854.622 29.3617 854.34 29.4253 854.03 29.4253C853.676 29.4253 853.357 29.3534 853.075 29.2094C852.793 29.06 852.569 28.8386 852.403 28.5453C852.242 28.2519 852.162 27.8949 852.162 27.4743V24.8093H852.909V27.3747C852.909 27.823 853.023 28.1689 853.25 28.4124C853.476 28.6504 853.786 28.7694 854.179 28.7694C854.583 28.7694 854.902 28.6449 855.134 28.3958C855.367 28.1468 855.483 27.7842 855.483 27.3082V24.8093H856.238ZM761.266 37.6478C761.415 37.3877 761.637 37.1718 761.93 37.0002C762.229 36.8231 762.575 36.7346 762.968 36.7346C763.372 36.7346 763.737 36.8314 764.064 37.0251C764.396 37.2189 764.656 37.4928 764.844 37.8471C765.032 38.1957 765.126 38.6026 765.126 39.0675C765.126 39.5269 765.032 39.9364 764.844 40.2962C764.656 40.656 764.396 40.9355 764.064 41.1347C763.737 41.334 763.372 41.4336 762.968 41.4336C762.58 41.4336 762.237 41.3478 761.938 41.1762C761.645 40.9991 761.421 40.7805 761.266 40.5204V43.5175H760.51V36.8093H761.266V37.6478ZM764.354 39.0675C764.354 38.7243 764.285 38.4254 764.147 38.1708C764.008 37.9162 763.82 37.7225 763.582 37.5897C763.35 37.4569 763.092 37.3904 762.81 37.3904C762.533 37.3904 762.276 37.4596 762.038 37.598C761.805 37.7308 761.617 37.9273 761.473 38.1874C761.335 38.442 761.266 38.7382 761.266 39.0758C761.266 39.4189 761.335 39.7206 761.473 39.9807C761.617 40.2353 761.805 40.4318 762.038 40.5702C762.276 40.703 762.533 40.7694 762.81 40.7694C763.092 40.7694 763.35 40.703 763.582 40.5702C763.82 40.4318 764.008 40.2353 764.147 39.9807C764.285 39.7206 764.354 39.4162 764.354 39.0675ZM765.839 39.0675C765.839 38.6026 765.933 38.1957 766.121 37.8471C766.309 37.4928 766.566 37.2189 766.893 37.0251C767.225 36.8314 767.593 36.7346 767.997 36.7346C768.396 36.7346 768.742 36.8203 769.035 36.9919C769.328 37.1635 769.547 37.3794 769.691 37.6395V36.8093H770.455V41.3589H769.691V40.5121C769.541 40.7777 769.317 40.9991 769.018 41.1762C768.725 41.3478 768.382 41.4336 767.989 41.4336C767.585 41.4336 767.219 41.334 766.893 41.1347C766.566 40.9355 766.309 40.656 766.121 40.2962C765.933 39.9364 765.839 39.5269 765.839 39.0675ZM769.691 39.0758C769.691 38.7326 769.622 38.4337 769.483 38.1791C769.345 37.9245 769.157 37.7308 768.919 37.598C768.686 37.4596 768.429 37.3904 768.147 37.3904C767.864 37.3904 767.607 37.4569 767.374 37.5897C767.142 37.7225 766.957 37.9162 766.818 38.1708C766.68 38.4254 766.611 38.7243 766.611 39.0675C766.611 39.4162 766.68 39.7206 766.818 39.9807C766.957 40.2353 767.142 40.4318 767.374 40.5702C767.607 40.703 767.864 40.7694 768.147 40.7694C768.429 40.7694 768.686 40.703 768.919 40.5702C769.157 40.4318 769.345 40.2353 769.483 39.9807C769.622 39.7206 769.691 39.4189 769.691 39.0758ZM775.65 36.8093L772.91 43.5009H772.13L773.026 41.3091L771.192 36.8093H772.03L773.458 40.4955L774.869 36.8093H775.65ZM779.544 37.4319V40.1136C779.544 40.3349 779.591 40.4927 779.685 40.5868C779.78 40.6753 779.943 40.7196 780.175 40.7196H780.731V41.3589H780.051C779.63 41.3589 779.315 41.262 779.104 41.0683C778.894 40.8746 778.789 40.5563 778.789 40.1136V37.4319H778.199V36.8093H778.789V35.6636H779.544V36.8093H780.731V37.4319H779.544ZM783.905 36.7263C784.248 36.7263 784.558 36.801 784.835 36.9504C785.112 37.0943 785.328 37.3129 785.482 37.6063C785.643 37.8996 785.723 38.2566 785.723 38.6773V41.3589H784.976V38.7852C784.976 38.3314 784.863 37.9854 784.636 37.7474C784.409 37.5039 784.099 37.3821 783.706 37.3821C783.307 37.3821 782.989 37.5067 782.751 37.7557C782.519 38.0048 782.402 38.3673 782.402 38.8433V41.3589H781.647V35.2153H782.402V37.4569C782.552 37.2244 782.757 37.0445 783.017 36.9172C783.282 36.7899 783.579 36.7263 783.905 36.7263ZM791.108 38.9097C791.108 39.0536 791.1 39.2058 791.084 39.3664H787.447C787.475 39.8147 787.627 40.1661 787.904 40.4207C788.186 40.6698 788.526 40.7943 788.925 40.7943C789.252 40.7943 789.523 40.7196 789.739 40.5702C789.96 40.4152 790.115 40.2104 790.204 39.9558H791.017C790.895 40.3931 790.652 40.7501 790.287 41.0268C789.921 41.298 789.467 41.4336 788.925 41.4336C788.493 41.4336 788.106 41.3367 787.763 41.143C787.425 40.9493 787.159 40.6753 786.966 40.3211C786.772 39.9613 786.675 39.5462 786.675 39.0758C786.675 38.6053 786.769 38.193 786.957 37.8388C787.146 37.4845 787.408 37.2133 787.746 37.0251C788.089 36.8314 788.482 36.7346 788.925 36.7346C789.357 36.7346 789.739 36.8287 790.071 37.0168C790.403 37.205 790.657 37.4652 790.834 37.7972C791.017 38.1238 791.108 38.4946 791.108 38.9097ZM790.328 38.752C790.328 38.4642 790.264 38.2179 790.137 38.0131C790.01 37.8028 789.835 37.645 789.614 37.5399C789.398 37.4292 789.157 37.3738 788.892 37.3738C788.51 37.3738 788.183 37.4956 787.912 37.7391C787.646 37.9827 787.494 38.3203 787.456 38.752H790.328ZM795.075 37.6478C795.224 37.3877 795.445 37.1718 795.739 37.0002C796.038 36.8231 796.384 36.7346 796.777 36.7346C797.181 36.7346 797.546 36.8314 797.872 37.0251C798.205 37.2189 798.465 37.4928 798.653 37.8471C798.841 38.1957 798.935 38.6026 798.935 39.0675C798.935 39.5269 798.841 39.9364 798.653 40.2962C798.465 40.656 798.205 40.9355 797.872 41.1347C797.546 41.334 797.181 41.4336 796.777 41.4336C796.389 41.4336 796.046 41.3478 795.747 41.1762C795.454 40.9991 795.23 40.7805 795.075 40.5204V43.5175H794.319V36.8093H795.075V37.6478ZM798.163 39.0675C798.163 38.7243 798.094 38.4254 797.955 38.1708C797.817 37.9162 797.629 37.7225 797.391 37.5897C797.158 37.4569 796.901 37.3904 796.619 37.3904C796.342 37.3904 796.085 37.4596 795.847 37.598C795.614 37.7308 795.426 37.9273 795.282 38.1874C795.144 38.442 795.075 38.7382 795.075 39.0758C795.075 39.4189 795.144 39.7206 795.282 39.9807C795.426 40.2353 795.614 40.4318 795.847 40.5702C796.085 40.703 796.342 40.7694 796.619 40.7694C796.901 40.7694 797.158 40.703 797.391 40.5702C797.629 40.4318 797.817 40.2353 797.955 39.9807C798.094 39.7206 798.163 39.4162 798.163 39.0675ZM800.685 37.5482C800.818 37.288 801.006 37.086 801.25 36.9421C801.499 36.7982 801.8 36.7263 802.155 36.7263V37.5067H801.955C801.108 37.5067 800.685 37.9661 800.685 38.8848V41.3589H799.93V36.8093H800.685V37.5482ZM803.417 36.0704C803.273 36.0704 803.151 36.0206 803.052 35.9209C802.952 35.8213 802.902 35.6996 802.902 35.5556C802.902 35.4117 802.952 35.29 803.052 35.1904C803.151 35.0907 803.273 35.0409 803.417 35.0409C803.555 35.0409 803.671 35.0907 803.766 35.1904C803.865 35.29 803.915 35.4117 803.915 35.5556C803.915 35.6996 803.865 35.8213 803.766 35.9209C803.671 36.0206 803.555 36.0704 803.417 36.0704ZM803.782 36.8093V41.3589H803.027V36.8093H803.782ZM804.788 39.0758C804.788 38.6053 804.882 38.1957 805.07 37.8471C805.258 37.4928 805.518 37.2189 805.85 37.0251C806.188 36.8314 806.572 36.7346 807.004 36.7346C807.563 36.7346 808.023 36.8702 808.382 37.1414C808.748 37.4126 808.988 37.7889 809.105 38.2705H808.291C808.214 37.9937 808.061 37.7751 807.834 37.6146C807.613 37.4541 807.336 37.3738 807.004 37.3738C806.572 37.3738 806.224 37.5233 805.958 37.8221C805.692 38.1155 805.56 38.5334 805.56 39.0758C805.56 39.6237 805.692 40.0471 805.958 40.346C806.224 40.6449 806.572 40.7943 807.004 40.7943C807.336 40.7943 807.613 40.7168 807.834 40.5619C808.056 40.4069 808.208 40.1855 808.291 39.8977H809.105C808.983 40.3626 808.739 40.7362 808.374 41.0185C808.009 41.2952 807.552 41.4336 807.004 41.4336C806.572 41.4336 806.188 41.3367 805.85 41.143C805.518 40.9493 805.258 40.6753 805.07 40.3211C804.882 39.9669 804.788 39.5518 804.788 39.0758ZM814.264 38.9097C814.264 39.0536 814.256 39.2058 814.239 39.3664H810.603C810.63 39.8147 810.782 40.1661 811.059 40.4207C811.341 40.6698 811.682 40.7943 812.08 40.7943C812.407 40.7943 812.678 40.7196 812.894 40.5702C813.115 40.4152 813.27 40.2104 813.359 39.9558H814.173C814.051 40.3931 813.807 40.7501 813.442 41.0268C813.077 41.298 812.623 41.4336 812.08 41.4336C811.649 41.4336 811.261 41.3367 810.918 41.143C810.58 40.9493 810.315 40.6753 810.121 40.3211C809.927 39.9613 809.83 39.5462 809.83 39.0758C809.83 38.6053 809.925 38.193 810.113 37.8388C810.301 37.4845 810.564 37.2133 810.901 37.0251C811.245 36.8314 811.638 36.7346 812.08 36.7346C812.512 36.7346 812.894 36.8287 813.226 37.0168C813.558 37.205 813.813 37.4652 813.99 37.7972C814.173 38.1238 814.264 38.4946 814.264 38.9097ZM813.483 38.752C813.483 38.4642 813.42 38.2179 813.292 38.0131C813.165 37.8028 812.991 37.645 812.769 37.5399C812.554 37.4292 812.313 37.3738 812.047 37.3738C811.665 37.3738 811.339 37.4956 811.067 37.7391C810.802 37.9827 810.65 38.3203 810.611 38.752H813.483ZM821.393 36.8093L818.653 43.5009H817.873L818.77 41.3091L816.935 36.8093H817.773L819.201 40.4955L820.613 36.8093H821.393ZM824.137 41.4336C823.711 41.4336 823.323 41.3367 822.974 41.143C822.631 40.9493 822.36 40.6753 822.161 40.3211C821.967 39.9613 821.87 39.5462 821.87 39.0758C821.87 38.6109 821.97 38.2013 822.169 37.8471C822.374 37.4873 822.651 37.2133 822.999 37.0251C823.348 36.8314 823.738 36.7346 824.17 36.7346C824.602 36.7346 824.992 36.8314 825.341 37.0251C825.689 37.2133 825.963 37.4845 826.163 37.8388C826.367 38.193 826.47 38.6053 826.47 39.0758C826.47 39.5462 826.365 39.9613 826.154 40.3211C825.949 40.6753 825.67 40.9493 825.316 41.143C824.961 41.3367 824.568 41.4336 824.137 41.4336ZM824.137 40.7694C824.408 40.7694 824.663 40.7058 824.901 40.5785C825.139 40.4512 825.33 40.2602 825.473 40.0056C825.623 39.751 825.698 39.4411 825.698 39.0758C825.698 38.7105 825.626 38.4005 825.482 38.1459C825.338 37.8913 825.15 37.7032 824.917 37.5814C824.685 37.4541 824.433 37.3904 824.162 37.3904C823.885 37.3904 823.63 37.4541 823.398 37.5814C823.171 37.7032 822.988 37.8913 822.85 38.1459C822.712 38.4005 822.642 38.7105 822.642 39.0758C822.642 39.4466 822.709 39.7593 822.842 40.0139C822.98 40.2685 823.163 40.4595 823.39 40.5868C823.616 40.7085 823.866 40.7694 824.137 40.7694ZM831.498 36.8093V41.3589H830.742V40.6864C830.598 40.9189 830.396 41.1015 830.136 41.2344C829.882 41.3617 829.599 41.4253 829.29 41.4253C828.935 41.4253 828.617 41.3534 828.335 41.2094C828.052 41.06 827.828 40.8386 827.662 40.5453C827.502 40.2519 827.422 39.8949 827.422 39.4743V36.8093H828.169V39.3747C828.169 39.823 828.282 40.1689 828.509 40.4124C828.736 40.6504 829.046 40.7694 829.439 40.7694C829.843 40.7694 830.161 40.6449 830.394 40.3958C830.626 40.1468 830.742 39.7842 830.742 39.3082V36.8093H831.498ZM835.742 35.2153V41.3589H834.987V35.2153H835.742ZM839.014 41.4336C838.588 41.4336 838.201 41.3367 837.852 41.143C837.509 40.9493 837.238 40.6753 837.038 40.3211C836.845 39.9613 836.748 39.5462 836.748 39.0758C836.748 38.6109 836.847 38.2013 837.047 37.8471C837.251 37.4873 837.528 37.2133 837.877 37.0251C838.226 36.8314 838.616 36.7346 839.047 36.7346C839.479 36.7346 839.869 36.8314 840.218 37.0251C840.567 37.2133 840.841 37.4845 841.04 37.8388C841.245 38.193 841.347 38.6053 841.347 39.0758C841.347 39.5462 841.242 39.9613 841.032 40.3211C840.827 40.6753 840.547 40.9493 840.193 41.143C839.839 41.3367 839.446 41.4336 839.014 41.4336ZM839.014 40.7694C839.285 40.7694 839.54 40.7058 839.778 40.5785C840.016 40.4512 840.207 40.2602 840.351 40.0056C840.5 39.751 840.575 39.4411 840.575 39.0758C840.575 38.7105 840.503 38.4005 840.359 38.1459C840.215 37.8913 840.027 37.7032 839.795 37.5814C839.562 37.4541 839.31 37.3904 839.039 37.3904C838.762 37.3904 838.508 37.4541 838.275 37.5814C838.048 37.7032 837.866 37.8913 837.727 38.1459C837.589 38.4005 837.52 38.7105 837.52 39.0758C837.52 39.4466 837.586 39.7593 837.719 40.0139C837.857 40.2685 838.04 40.4595 838.267 40.5868C838.494 40.7085 838.743 40.7694 839.014 40.7694ZM842.058 39.0758C842.058 38.6053 842.152 38.1957 842.341 37.8471C842.529 37.4928 842.789 37.2189 843.121 37.0251C843.459 36.8314 843.843 36.7346 844.275 36.7346C844.834 36.7346 845.293 36.8702 845.653 37.1414C846.018 37.4126 846.259 37.7889 846.375 38.2705H845.562C845.484 37.9937 845.332 37.7751 845.105 37.6146C844.884 37.4541 844.607 37.3738 844.275 37.3738C843.843 37.3738 843.495 37.5233 843.229 37.8221C842.963 38.1155 842.83 38.5334 842.83 39.0758C842.83 39.6237 842.963 40.0471 843.229 40.346C843.495 40.6449 843.843 40.7943 844.275 40.7943C844.607 40.7943 844.884 40.7168 845.105 40.5619C845.327 40.4069 845.479 40.1855 845.562 39.8977H846.375C846.254 40.3626 846.01 40.7362 845.645 41.0185C845.279 41.2952 844.823 41.4336 844.275 41.4336C843.843 41.4336 843.459 41.3367 843.121 41.143C842.789 40.9493 842.529 40.6753 842.341 40.3211C842.152 39.9669 842.058 39.5518 842.058 39.0758ZM849.924 41.3589L848.139 39.3498V41.3589H847.383V35.2153H848.139V38.8267L849.891 36.8093H850.945L848.803 39.0758L850.953 41.3589H849.924Z" fill="#221F20"/>
</g>
<defs>
<filter id="filter0_d_6091_210767" x="623.237" y="79.4338" width="152.474" height="63.8507" filterUnits="userSpaceOnUse" color-interpolation-filters="sRGB">
<feFlood flood-opacity="0" result="BackgroundImageFix"/>
<feColorMatrix in="SourceAlpha" type="matrix" values="0 0 0 0 0 0 0 0 0 0 0 0 0 0 0 0 0 0 127 0" result="hardAlpha"/>
<feOffset/>
<feGaussianBlur stdDeviation="6.64176"/>
<feComposite in2="hardAlpha" operator="out"/>
<feColorMatrix type="matrix" values="0 0 0 0 0.172549 0 0 0 0 0.243137 0 0 0 0 0.313726 0 0 0 0.2 0"/>
<feBlend mode="normal" in2="BackgroundImageFix" result="effect1_dropShadow_6091_210767"/>
<feBlend mode="normal" in="SourceGraphic" in2="effect1_dropShadow_6091_210767" result="shape"/>
</filter>
<filter id="filter1_d_6091_210767" x="723.216" y="0.433763" width="159.474" height="63.8507" filterUnits="userSpaceOnUse" color-interpolation-filters="sRGB">
<feFlood flood-opacity="0" result="BackgroundImageFix"/>
<feColorMatrix in="SourceAlpha" type="matrix" values="0 0 0 0 0 0 0 0 0 0 0 0 0 0 0 0 0 0 127 0" result="hardAlpha"/>
<feOffset/>
<feGaussianBlur stdDeviation="6.64176"/>
<feComposite in2="hardAlpha" operator="out"/>
<feColorMatrix type="matrix" values="0 0 0 0 0.172549 0 0 0 0 0.243137 0 0 0 0 0.313726 0 0 0 0.2 0"/>
<feBlend mode="normal" in2="BackgroundImageFix" result="effect1_dropShadow_6091_210767"/>
<feBlend mode="normal" in="SourceGraphic" in2="effect1_dropShadow_6091_210767" result="shape"/>
</filter>
<linearGradient id="paint0_linear_6091_210767" x1="598.379" y1="67.2552" x2="847.371" y2="67.2552" gradientUnits="userSpaceOnUse">
<stop stop-color="#5DC4F0"/>
<stop offset="0.456572" stop-color="#CC5355"/>
<stop offset="0.751613" stop-color="#6FD2A8"/>
<stop offset="1" stop-color="#5ECAF5"/>
</linearGradient>
</defs>
</svg>
