<svg width="136" height="126" viewBox="0 0 136 126" fill="none" xmlns="http://www.w3.org/2000/svg">
<path d="M28.7264 13.3231H17.4416C16.3567 13.3241 15.3165 13.7555 14.5494 14.5226C13.7822 15.2898 13.3508 16.33 13.3498 17.4149V29.6494C13.2055 29.6408 13.0613 29.6279 12.9191 29.6107C10.2456 29.3294 7.7039 28.3068 5.58049 26.6583C3.45707 25.0098 1.83642 22.8009 0.901242 20.2806C-0.0339355 17.7602 -0.246442 15.0288 0.287682 12.3942C0.821807 9.75957 2.08132 7.32655 3.92422 5.36946C5.76711 3.41236 8.1201 2.00901 10.7179 1.31764C13.3157 0.626263 16.055 0.674356 18.6269 1.4565C21.1988 2.23864 23.5011 3.72372 25.2741 5.7443C27.0472 7.76489 28.2205 10.2406 28.6618 12.8924C28.6855 13.0345 28.7071 13.1788 28.7264 13.3231Z" fill="#CED1ED"/>
<path d="M129.829 12.8923H16.5345C15.5944 12.8936 14.6932 13.3705 14.0284 14.2184C13.3637 15.0663 12.9898 16.2158 12.9888 17.4149V93.6518C12.9898 94.8509 13.3637 96.0004 14.0284 96.8483C14.6932 97.6961 15.5944 98.173 16.5345 98.1744H129.829C130.769 98.173 131.67 97.6961 132.335 96.8483C132.999 96.0004 133.373 94.8509 133.374 93.6518V17.4149C133.373 16.2158 132.999 15.0663 132.335 14.2184C131.67 13.3705 130.769 12.8936 129.829 12.8923ZM133.037 93.6518C133.036 94.7367 132.698 95.7769 132.096 96.5441C131.495 97.3112 130.679 97.7427 129.829 97.7436H16.5345C15.6839 97.7427 14.8684 97.3112 14.2669 96.5441C13.6655 95.7769 13.3272 94.7367 13.3265 93.6518V17.4149C13.3272 16.33 13.6655 15.2898 14.2669 14.5226C14.8684 13.7554 15.6839 13.324 16.5345 13.3231H129.829C130.679 13.324 131.495 13.7554 132.096 14.5226C132.698 15.2898 133.036 16.33 133.037 17.4149V93.6518Z" fill="#3F3D56"/>
<path d="M126.53 25.1678H24.5714C24.5267 25.1678 24.4838 25.1451 24.4522 25.1047C24.4206 25.0643 24.4028 25.0095 24.4028 24.9524C24.4028 24.8953 24.4206 24.8405 24.4522 24.8001C24.4838 24.7598 24.5267 24.7371 24.5714 24.7371H126.53C126.574 24.7371 126.617 24.7598 126.649 24.8001C126.68 24.8405 126.698 24.8953 126.698 24.9524C126.698 25.0095 126.68 25.0643 126.649 25.1047C126.617 25.1451 126.574 25.1678 126.53 25.1678Z" fill="#3F3D56"/>
<path d="M61.3745 88.9141C61.3174 88.9141 61.2626 88.8914 61.2223 88.851C61.1819 88.8106 61.1592 88.7558 61.1592 88.6987V17.8457C61.1592 17.7886 61.1819 17.7338 61.2223 17.6934C61.2626 17.6531 61.3174 17.6304 61.3745 17.6304C61.4317 17.6304 61.4864 17.6531 61.5268 17.6934C61.5672 17.7338 61.5899 17.7886 61.5899 17.8457V88.6987C61.5899 88.7558 61.5672 88.8106 61.5268 88.851C61.4864 88.8914 61.4317 88.9141 61.3745 88.9141Z" fill="#3F3D56"/>
<path d="M93.8941 88.9141C93.837 88.9141 93.7822 88.8914 93.7418 88.851C93.7014 88.8106 93.6787 88.7558 93.6787 88.6987V17.8457C93.6787 17.7886 93.7014 17.7338 93.7418 17.6934C93.7822 17.6531 93.837 17.6304 93.8941 17.6304C93.9512 17.6304 94.006 17.6531 94.0463 17.6934C94.0867 17.7338 94.1094 17.7886 94.1094 17.8457V88.6987C94.1094 88.7558 94.0867 88.8106 94.0463 88.851C94.006 88.8914 93.9512 88.9141 93.8941 88.9141Z" fill="#3F3D56"/>
<path d="M40.4667 47.4761H32.5975C32.3406 47.4758 32.0943 47.3736 31.9126 47.192C31.7309 47.0103 31.6287 46.7639 31.6284 46.507V37.2208C31.6287 36.9639 31.7309 36.7175 31.9126 36.5359C32.0943 36.3542 32.3406 36.252 32.5975 36.2517H40.4667C40.7237 36.252 40.97 36.3542 41.1517 36.5359C41.3334 36.7175 41.4356 36.9639 41.4359 37.2208V46.507C41.4356 46.7639 41.3334 47.0103 41.1517 47.192C40.97 47.3736 40.7237 47.4758 40.4667 47.4761Z" fill="#F9AE64"/>
<path d="M51.6655 73.9654H43.7963C43.5393 73.9651 43.293 73.8629 43.1113 73.6812C42.9296 73.4995 42.8274 73.2532 42.8271 72.9963V63.7101C42.8274 63.4531 42.9296 63.2068 43.1113 63.0251C43.293 62.8434 43.5393 62.7413 43.7963 62.741H51.6655C51.9224 62.7413 52.1687 62.8434 52.3504 63.0251C52.5321 63.2068 52.6343 63.4531 52.6346 63.7101V72.9963C52.6343 73.2532 52.5321 73.4995 52.3504 73.6812C52.1687 73.8629 51.9224 73.9651 51.6655 73.9654Z" fill="#F9AE64"/>
<path d="M77.0781 53.0755H69.2089C68.9519 53.0752 68.7056 52.973 68.5239 52.7913C68.3422 52.6096 68.24 52.3633 68.2397 52.1064V42.8202C68.24 42.5633 68.3422 42.3169 68.5239 42.1352C68.7056 41.9536 68.9519 41.8514 69.2089 41.8511H77.0781C77.335 41.8514 77.5813 41.9536 77.763 42.1352C77.9447 42.3169 78.0469 42.5633 78.0472 42.8202V52.1064C78.0469 52.3633 77.9447 52.6096 77.763 52.7913C77.5813 52.973 77.335 53.0752 77.0781 53.0755Z" fill="#ABB0DE"/>
<path d="M110.028 42.9539H102.159C101.902 42.9536 101.655 42.8514 101.474 42.6697C101.292 42.488 101.19 42.2417 101.189 41.9848V32.6986C101.19 32.4417 101.292 32.1953 101.474 32.0137C101.655 31.832 101.902 31.7298 102.159 31.7295H110.028C110.285 31.7298 110.531 31.832 110.713 32.0137C110.894 32.1953 110.997 32.4417 110.997 32.6986V41.9848C110.997 42.2417 110.894 42.4881 110.713 42.6697C110.531 42.8514 110.285 42.9536 110.028 42.9539Z" fill="#888FD1"/>
<path d="M121.441 58.6751H113.572C113.315 58.6748 113.069 58.5726 112.887 58.3909C112.706 58.2092 112.603 57.9629 112.603 57.706V48.4198C112.603 48.1629 112.706 47.9165 112.887 47.7348C113.069 47.5532 113.315 47.451 113.572 47.4507H121.441C121.698 47.451 121.945 47.5532 122.126 47.7348C122.308 47.9165 122.41 48.1629 122.41 48.4198V57.706C122.41 57.9629 122.308 58.2092 122.126 58.3909C121.945 58.5726 121.698 58.6748 121.441 58.6751Z" fill="#F8AEA8"/>
<path d="M106.151 62.1206H98.2821C98.0252 62.1204 97.7788 62.0182 97.5971 61.8365C97.4155 61.6548 97.3133 61.4085 97.313 61.1515V51.8654C97.3133 51.6084 97.4155 51.3621 97.5971 51.1804C97.7788 50.9987 98.0252 50.8965 98.2821 50.8962H106.151C106.408 50.8965 106.655 50.9987 106.836 51.1804C107.018 51.3621 107.12 51.6084 107.12 51.8654V61.1515C107.12 61.4085 107.018 61.6548 106.836 61.8365C106.655 62.0182 106.408 62.1204 106.151 62.1206Z" fill="#E6E6E6"/>
<path d="M73.2016 76.7649H65.3324C65.0755 76.7646 64.8291 76.6624 64.6474 76.4808C64.4658 76.2991 64.3636 76.0528 64.3633 75.7958V66.5096C64.3636 66.2527 64.4658 66.0064 64.6474 65.8247C64.8291 65.643 65.0755 65.5408 65.3324 65.5405H73.2016C73.4585 65.5408 73.7049 65.643 73.8865 65.8247C74.0682 66.0064 74.1704 66.2527 74.1707 66.5096V75.7958C74.1704 76.0528 74.0682 76.2991 73.8865 76.4808C73.7049 76.6625 73.4585 76.7646 73.2016 76.7649Z" fill="#E6E6E6"/>
<path d="M33.3598 64.4895H25.4906C25.2337 64.4893 24.9873 64.3871 24.8056 64.2054C24.624 64.0237 24.5218 63.7774 24.5215 63.5204V54.2343C24.5218 53.9773 24.624 53.731 24.8056 53.5493C24.9873 53.3676 25.2337 53.2654 25.4906 53.2651H33.3598C33.6167 53.2654 33.8631 53.3676 34.0448 53.5493C34.2264 53.731 34.3286 53.9773 34.3289 54.2343V63.5204C34.3286 63.7774 34.2264 64.0237 34.0448 64.2054C33.8631 64.3871 33.6167 64.4893 33.3598 64.4895Z" fill="#FF6584"/>
<path d="M55.5419 47.4761H47.6727C47.4158 47.4758 47.1695 47.3736 46.9878 47.192C46.8061 47.0103 46.7039 46.7639 46.7036 46.507V37.2208C46.7039 36.9639 46.8061 36.7175 46.9878 36.5359C47.1695 36.3542 47.4158 36.252 47.6727 36.2517H55.5419C55.7989 36.252 56.0452 36.3542 56.2269 36.5359C56.4086 36.7175 56.5108 36.9639 56.511 37.2208V46.507C56.5108 46.7639 56.4086 47.0103 56.2269 47.192C56.0452 47.3736 55.7989 47.4758 55.5419 47.4761Z" fill="#E6E6E6"/>
<path d="M49.0993 21.7221H36.8238C36.5954 21.7221 36.3763 21.6314 36.2147 21.4698C36.0532 21.3083 35.9624 21.0892 35.9624 20.8607C35.9624 20.6322 36.0532 20.4131 36.2147 20.2516C36.3763 20.09 36.5954 19.9993 36.8238 19.9993H49.0993C49.3277 19.9993 49.5469 20.09 49.7084 20.2516C49.87 20.4131 49.9607 20.6322 49.9607 20.8607C49.9607 21.0892 49.87 21.3083 49.7084 21.4698C49.5469 21.6314 49.3277 21.7221 49.0993 21.7221Z" fill="#CCCCCC"/>
<path d="M83.7721 21.7221H71.4967C71.2682 21.7221 71.0491 21.6314 70.8876 21.4698C70.726 21.3083 70.6353 21.0892 70.6353 20.8607C70.6353 20.6322 70.726 20.4131 70.8876 20.2516C71.0491 20.09 71.2682 19.9993 71.4967 19.9993H83.7721C84.0006 19.9993 84.2197 20.09 84.3813 20.2516C84.5428 20.4131 84.6336 20.6322 84.6336 20.8607C84.6336 21.0892 84.5428 21.3083 84.3813 21.4698C84.2197 21.6314 84.0006 21.7221 83.7721 21.7221Z" fill="#CCCCCC"/>
<path d="M116.291 21.7221H104.016C103.787 21.7221 103.568 21.6314 103.407 21.4698C103.245 21.3083 103.154 21.0892 103.154 20.8607C103.154 20.6322 103.245 20.4131 103.407 20.2516C103.568 20.09 103.787 19.9993 104.016 19.9993H116.291C116.52 19.9993 116.739 20.09 116.9 20.2516C117.062 20.4131 117.153 20.6322 117.153 20.8607C117.153 21.0892 117.062 21.3083 116.9 21.4698C116.739 21.6314 116.52 21.7221 116.291 21.7221Z" fill="#CCCCCC"/>
<path d="M21.6053 84.7987C21.2902 84.7679 20.9857 84.6683 20.7133 84.507C20.4408 84.3458 20.2071 84.1267 20.0284 83.8653C19.8498 83.6039 19.7307 83.3066 19.6794 82.9942C19.6281 82.6817 19.646 82.3619 19.7317 82.0571L14.2114 76.9184L17.1301 76.178L22.5584 80.5807C23.0609 80.7587 23.4806 81.1147 23.738 81.5815C23.9955 82.0482 24.0728 82.5931 23.9554 83.1131C23.8379 83.633 23.5338 84.0917 23.1006 84.4024C22.6675 84.7131 22.1355 84.8541 21.6053 84.7987Z" fill="#FFB8B8"/>
<path d="M29.228 122.78H31.8683L33.1242 112.596H29.2275L29.228 122.78Z" fill="#FFB8B8"/>
<path d="M36.96 125.231L28.662 125.231L28.6619 122.025L33.7538 122.025C34.6041 122.025 35.4196 122.363 36.0208 122.964C36.6221 123.565 36.9599 124.381 36.96 125.231Z" fill="#2F2E41"/>
<path d="M11.1245 120.874L13.6761 121.553L17.5097 112.035L13.7441 111.032L11.1245 120.874Z" fill="#FFB8B8"/>
<path d="M17.9663 125.232L9.94761 123.098L10.7723 119.999L15.6928 121.309C16.5145 121.528 17.2156 122.064 17.642 122.8C18.0684 123.535 18.185 124.41 17.9663 125.232Z" fill="#2F2E41"/>
<path d="M32.5782 120.852H28.5495C28.295 120.853 28.0494 120.758 27.861 120.587C27.6727 120.416 27.5552 120.181 27.5317 119.927L25.086 94.5295C25.068 94.3432 24.9859 94.169 24.8537 94.0365C24.7214 93.9041 24.5473 93.8217 24.361 93.8036C24.1747 93.7854 23.9879 93.8325 23.8326 93.9368C23.6772 94.0412 23.5629 94.1963 23.5093 94.3756L16.4082 118.108C16.3331 118.36 16.1635 118.574 15.9348 118.704C15.7061 118.834 15.4359 118.871 15.1807 118.807L11.4328 117.87C11.3019 117.837 11.1789 117.779 11.0707 117.699C10.9625 117.618 10.8712 117.517 10.8022 117.401C10.7332 117.285 10.6878 117.157 10.6686 117.024C10.6494 116.89 10.6568 116.754 10.6904 116.624C10.7516 116.384 16.8088 92.7127 16.8617 92.4693C18.2342 82.3544 19.8761 79.6439 20.7582 78.1879C20.8312 78.0674 20.8983 77.9566 20.9587 77.8519C21.0344 77.7208 21.4998 76.4209 21.7951 75.5767C21.8335 75.4394 21.8999 75.3115 21.9901 75.2011C22.0804 75.0908 22.1925 75.0003 22.3195 74.9355C26.026 73.0399 30.3626 74.3521 31.6034 74.7994C31.8091 74.8718 31.9858 75.009 32.107 75.1904C35.8294 80.805 34.0026 113.415 33.5986 119.895C33.5818 120.154 33.467 120.397 33.2775 120.575C33.088 120.752 32.838 120.851 32.5782 120.852Z" fill="#7278AD"/>
<path d="M22.181 56.5208C25.1023 56.5208 27.4705 54.1526 27.4705 51.2313C27.4705 48.3101 25.1023 45.9419 22.181 45.9419C19.2598 45.9419 16.8916 48.3101 16.8916 51.2313C16.8916 54.1526 19.2598 56.5208 22.181 56.5208Z" fill="#FFB8B8"/>
<path d="M21.6206 76.6036L21.5826 76.5667C21.5113 76.4978 14.4638 69.5935 15.3759 63.2093C15.766 60.4786 17.9753 58.7338 21.7651 58.1633C23.1574 57.9565 24.5775 58.2592 25.7644 59.0157C26.9514 59.7723 27.8254 60.9318 28.2258 62.2812L31.973 75.0916L21.6206 76.6036Z" fill="#CCCCCC"/>
<path d="M18.0142 81.5142L12.9924 76.5242C12.649 76.181 12.3997 75.7553 12.2684 75.2879C12.1372 74.8206 12.1284 74.3273 12.243 73.8556L14.6741 63.9665C14.7469 63.6702 14.8797 63.392 15.0644 63.1491C15.2491 62.9061 15.4817 62.7037 15.7478 62.5543C16.0138 62.4049 16.3077 62.3117 16.6113 62.2805C16.9148 62.2493 17.2215 62.2807 17.5125 62.3728C18.067 62.5515 18.5301 62.9391 18.8038 63.4534C19.0775 63.9677 19.1403 64.5683 18.9789 65.1281L16.4194 73.8278L20.5582 78.2721L18.0142 81.5142Z" fill="#CCCCCC"/>
<path d="M44.9489 64.4841C44.8161 64.7715 44.6219 65.0263 44.38 65.2306C44.1381 65.4348 43.8544 65.5835 43.5488 65.6663C43.2432 65.749 42.9232 65.7637 42.6113 65.7094C42.2994 65.655 42.0032 65.5329 41.7435 65.3517L35.0396 68.8265L35.3359 65.8748L41.2791 62.1967C41.6124 61.7807 42.0867 61.5015 42.6121 61.4119C43.1376 61.3222 43.6776 61.4285 44.13 61.7104C44.5823 61.9924 44.9156 62.4305 45.0665 62.9417C45.2174 63.4529 45.1756 64.0017 44.9489 64.4841Z" fill="#FFB8B8"/>
<path d="M41.0118 66.6812L34.4765 69.5054C34.0415 69.6919 33.5658 69.7633 33.0952 69.7128C32.6247 69.6623 32.175 69.4916 31.7894 69.2171L23.479 63.2626C23.231 63.0849 23.022 62.8582 22.8652 62.5965C22.7083 62.3347 22.6068 62.0436 22.5669 61.7411C22.5271 61.4386 22.5498 61.1311 22.6335 60.8377C22.7173 60.5443 22.8604 60.2712 23.054 60.0353C23.4259 59.5868 23.9578 59.3008 24.5371 59.2378C25.1163 59.1747 25.6973 59.3397 26.157 59.6976L33.2829 65.306L38.9468 63.1147L41.0118 66.6812Z" fill="#CCCCCC"/>
<path d="M23.0581 52.9263C23.7107 52.1087 24.9298 52.0648 25.8261 51.5254C27.0002 50.819 27.4856 49.2403 27.1072 47.9234C26.7289 46.6064 25.6131 45.58 24.3338 45.0892C23.0545 44.5983 21.6311 44.5922 20.2816 44.8295C18.2723 45.1828 16.294 46.1206 15.0685 47.7517C13.843 49.3828 13.5312 51.7716 14.6418 53.4829C15.1522 54.2695 15.9402 54.9187 16.144 55.834C16.4116 57.0356 15.5687 58.1945 14.6657 59.0312C13.637 59.9845 12.4568 60.7828 11.5556 61.8574C10.6543 62.9319 10.0533 64.3999 10.4646 65.7408C10.8091 66.8641 11.8118 67.6918 12.9113 68.1063C14.0108 68.5207 15.2084 68.5806 16.3832 68.6036C17.524 68.6259 18.7357 68.5982 19.6967 67.9831C20.7255 67.3246 21.2748 66.0754 21.3154 64.8546C21.356 63.6337 20.948 62.4377 20.4013 61.3454C20.0754 60.6943 19.6965 60.0635 19.4799 59.3683C19.2634 58.6732 19.2259 57.8845 19.5726 57.2443C19.9372 56.5714 20.6747 56.1656 21.4256 56.018C21.4646 56.0104 21.5059 56.0035 21.5491 55.9974C21.7628 55.9697 21.9686 55.8989 22.1541 55.7894C22.3396 55.6799 22.501 55.5339 22.6285 55.3602C22.756 55.1865 22.847 54.9888 22.8959 54.7789C22.9448 54.5691 22.9506 54.3515 22.913 54.1394C22.8275 53.6625 22.8348 53.206 23.0581 52.9263Z" fill="#7278AD"/>
<path d="M135.104 125.525H6.30549C6.27816 125.525 6.25109 125.52 6.22582 125.509C6.20054 125.498 6.17758 125.482 6.15822 125.462C6.13887 125.442 6.12352 125.418 6.11304 125.392C6.10256 125.366 6.09717 125.338 6.09717 125.31C6.09717 125.281 6.10256 125.253 6.11304 125.227C6.12352 125.201 6.13887 125.177 6.15822 125.157C6.17758 125.137 6.20054 125.121 6.22582 125.11C6.25109 125.1 6.27816 125.094 6.30549 125.094H135.104C135.131 125.094 135.158 125.1 135.184 125.11C135.209 125.121 135.232 125.137 135.251 125.157C135.271 125.177 135.286 125.201 135.296 125.227C135.307 125.253 135.312 125.281 135.312 125.31C135.312 125.338 135.307 125.366 135.296 125.392C135.286 125.418 135.271 125.442 135.251 125.462C135.232 125.482 135.209 125.498 135.184 125.509C135.158 125.52 135.131 125.525 135.104 125.525Z" fill="#3F3D56"/>
</svg>
