<svg width="44" height="44" viewBox="0 0 44 44" fill="none" xmlns="http://www.w3.org/2000/svg">
<path d="M38.417 31.9419C37.5702 32.7478 36.7782 33.4967 35.9957 34.2556C35.9135 34.3356 35.8546 34.4686 35.8461 34.5806C35.7366 36.1003 35.0615 36.8162 33.4764 37.0772C33.4343 37.0842 33.3953 37.1072 33.3585 37.1212C33.1299 39.0249 32.2421 39.8318 30.4285 39.7578C30.3663 40.5707 30.0504 41.2675 29.2973 41.7245C28.5601 42.1714 27.7776 42.1874 26.9455 41.8915C26.9171 41.9664 26.8855 42.0254 26.8718 42.0874C26.5106 43.7172 24.8065 44.4781 23.2646 43.6812C22.3989 43.2332 21.5468 42.7633 20.7032 42.2794C20.442 42.1294 20.2714 42.1344 20.0566 42.3424C19.7901 42.6013 19.4921 42.8333 19.1972 43.0653C17.768 44.1901 15.7922 43.6562 15.1992 41.9894C15.1771 41.9264 15.1518 41.8635 15.1171 41.7685C14.3019 42.1434 13.4899 42.2064 12.6926 41.7955C11.9122 41.3945 11.5014 40.7426 11.3719 39.8908C10.5346 40.0367 9.77945 39.8908 9.14121 39.3588C8.52193 38.8429 8.22808 38.177 8.23019 37.4051C5.88893 37.2362 5.04742 35.2065 6.06692 33.6357C5.7499 33.4027 5.42868 33.1678 5.08849 32.9178C4.95263 33.1208 4.84099 33.2997 4.71777 33.4697C4.47448 33.8047 4.1859 33.8867 3.80464 33.6877C2.64507 33.0808 1.49392 32.4609 0.339616 31.845C-0.0174184 31.654 -0.0448016 31.367 0.0405076 31.0151C1.10003 26.6487 2.15007 22.2804 3.20327 17.9131C3.33808 17.3551 3.46973 16.7962 3.61401 16.2413C3.76357 15.6664 4.20697 15.5124 4.70513 15.8764C7.10748 17.6331 9.5014 19.4008 11.9048 21.1576C12.2387 21.4015 12.2924 21.6945 12.1281 22.1074C13.3171 22.0344 14.4588 21.9934 15.5942 21.8875C17.0286 21.7535 18.4547 21.5245 19.8912 21.4225C20.4252 21.3845 20.9771 21.6035 21.5237 21.6805C21.7227 21.7085 21.9776 21.7365 22.1314 21.6465C23.2193 21.0076 24.3252 20.9536 25.509 21.3925C26.3431 21.7015 27.2162 21.9135 28.064 22.1904C29.3753 22.6193 30.6107 22.4254 31.8419 21.8205C31.6312 21.3715 31.8798 21.1056 32.2389 20.8426C34.5507 19.1569 36.8509 17.4571 39.1553 15.7624C39.8167 15.2755 40.2296 15.4004 40.4128 16.1593C41.5998 21.0566 42.7804 25.9548 43.9695 30.8511C44.0632 31.2361 43.9431 31.495 43.5808 31.686C42.4739 32.2679 41.3754 32.8628 40.2685 33.4447C39.7851 33.6987 39.5302 33.6317 39.2343 33.1918C38.9668 32.7938 38.7098 32.3899 38.416 31.9389L38.417 31.9419ZM21.2751 41.2625C22.1651 41.7475 23.0182 42.2434 23.906 42.6763C24.1662 42.8033 24.539 42.8183 24.8339 42.7603C25.3236 42.6653 25.6038 42.3064 25.6775 41.8405C25.7523 41.3655 25.5311 41.0006 25.1225 40.7316C23.6859 39.7828 22.2451 38.8399 20.8138 37.8831C20.3894 37.5991 20.3093 37.3031 20.5158 37.0022C20.7254 36.6952 21.0845 36.6602 21.5174 36.9352C22.3357 37.4561 23.1456 37.988 23.9555 38.521C25.0435 39.2369 26.1209 39.9667 27.2152 40.6756C27.9703 41.1646 28.8719 40.8986 29.1236 40.1337C29.2963 39.6118 29.1036 39.1659 28.5264 38.7759C26.6559 37.5141 24.7833 36.2563 22.9128 34.9935C22.5084 34.7205 22.4052 34.3696 22.6253 34.0716C22.8433 33.7777 23.232 33.7567 23.6375 34.0276C24.5506 34.6385 25.4626 35.2525 26.3726 35.8684C27.5711 36.6782 28.7623 37.4971 29.9651 38.3C30.7929 38.8519 31.8061 38.525 32.0388 37.6461C32.1736 37.1382 31.9577 36.6782 31.3943 36.2923C30.0104 35.3444 28.6233 34.4006 27.2404 33.4527C26.3463 32.8398 25.4553 32.2219 24.5611 31.607C24.3115 31.435 24.1377 31.1981 24.2904 30.9311C24.3926 30.7511 24.6264 30.5802 24.8339 30.5332C24.9908 30.4972 25.2204 30.6351 25.3805 30.7441C27.7376 32.3429 30.083 33.9576 32.4485 35.5464C32.7308 35.7354 33.1089 35.8684 33.4501 35.8874C33.9704 35.9154 34.4001 35.5434 34.556 35.0745C34.7266 34.5616 34.5654 34.1096 34.0504 33.7107C31.0615 31.396 28.063 29.0934 25.0888 26.7617C24.678 26.4398 24.3547 26.3298 23.9071 26.6347C23.7438 26.7457 23.5353 26.8017 23.3436 26.8697C21.2635 27.6086 19.2119 27.6816 17.2098 26.6247C16.68 26.3448 16.343 25.9448 16.3546 25.3549C16.3662 24.766 16.7148 24.3801 17.2572 24.1151C18.1461 23.6812 19.0255 23.2283 19.907 22.7803C20.0007 22.7333 20.084 22.6683 20.2735 22.5464C20.0745 22.5594 20.0039 22.5594 19.9344 22.5704C17.1961 22.9713 14.4409 23.1973 11.671 23.2603C11.3951 23.2663 11.256 23.3692 11.1212 23.5792C9.74153 25.7249 8.35236 27.8656 6.96635 30.0072C6.55981 30.6361 6.15117 31.264 5.72568 31.9209C6.06692 32.1699 6.40183 32.3949 6.71253 32.6458C6.91474 32.8098 7.05271 32.7828 7.23702 32.6198C7.64672 32.2589 8.06484 31.905 8.50086 31.572C9.86476 30.5282 11.7984 31.0441 12.4072 32.6058C12.4461 32.7058 12.4851 32.8048 12.5315 32.9218C13.4267 32.4779 14.304 32.4249 15.156 32.9278C15.9912 33.4207 16.3872 34.1706 16.4093 35.0845C18.1082 35.2664 18.6906 35.8214 19.0908 37.5991C21.1666 37.6981 22.2399 39.5268 21.2741 41.2645L21.2751 41.2625ZM32.5328 22.8483C32.3716 22.9063 32.2337 22.9473 32.1041 23.0053C30.5148 23.7132 28.9098 23.7522 27.2647 23.1703C26.3842 22.8593 25.489 22.5734 24.578 22.3594C24.1767 22.2654 23.6564 22.2544 23.3025 22.4214C21.4478 23.2972 19.629 24.2421 17.7975 25.162C17.4931 25.3149 17.5247 25.4939 17.8059 25.5979C18.4167 25.8249 19.0286 26.0988 19.6669 26.2018C21.2646 26.4608 22.7191 25.9688 24.0956 25.246C24.5 25.033 24.8149 25.056 25.1751 25.3359C28.5538 27.9625 31.9419 30.5792 35.27 33.1538C36.0736 32.3909 36.8814 31.625 37.7103 30.8391C36.0062 28.2095 34.2748 25.5359 32.5328 22.8463V22.8483ZM4.63035 17.2851C4.57664 17.4751 4.53556 17.6061 4.50291 17.7401C4.16062 19.1539 3.81834 20.5677 3.47815 21.9814C2.77672 24.891 2.07424 27.8006 1.38123 30.7121C1.35279 30.8331 1.37912 31.0511 1.45917 31.0961C2.27434 31.556 3.10637 31.9899 3.95104 32.4409C6.25228 28.8864 8.5293 25.3709 10.819 21.8345C8.75363 20.3157 6.72095 18.8219 4.6293 17.2841L4.63035 17.2851ZM40.0516 32.2339C40.8436 31.811 41.5935 31.397 42.357 31.0111C42.6193 30.8781 42.6962 30.7581 42.6224 30.4602C41.9421 27.7036 41.287 24.942 40.6213 22.1824C40.2148 20.4987 39.8041 18.8159 39.3796 17.0722C37.2911 18.607 35.2416 20.1137 33.1784 21.6295C35.4796 25.18 37.7493 28.6834 40.0505 32.2339H40.0516ZM10.9306 38.7889C11.0738 38.7199 11.3961 38.6299 11.6299 38.441C12.6705 37.5991 13.6921 36.7362 14.7074 35.8674C15.2856 35.3724 15.3172 34.6935 14.819 34.1606C14.3335 33.6407 13.5857 33.5837 13.0096 34.0576C11.9543 34.9255 10.9106 35.8064 9.87213 36.6932C9.45822 37.0472 9.36027 37.5241 9.56249 37.989C9.76154 38.446 10.2681 38.7839 10.9327 38.7889H10.9306ZM12.5336 39.6628C12.6168 40.2007 12.8474 40.5726 13.3098 40.7876C13.7911 41.0106 14.2629 40.9496 14.6673 40.6166C15.5889 39.8578 16.5083 39.0949 17.4109 38.315C17.9354 37.8621 17.947 37.1512 17.4783 36.6652C17.0255 36.1953 16.2914 36.1383 15.7722 36.5643C14.8369 37.3301 13.9059 38.102 13.0033 38.9019C12.7863 39.0939 12.6873 39.4068 12.5336 39.6638V39.6628ZM6.78099 34.9515C6.8663 35.4964 7.12012 35.8574 7.57615 36.0723C8.05746 36.2993 8.52193 36.2293 8.92951 35.8934C9.56249 35.3714 10.1912 34.8435 10.82 34.3176C11.4066 33.8267 11.4877 33.1318 11.0222 32.6128C10.5356 32.0709 9.79946 32.0349 9.18334 32.5389C8.53667 33.0668 7.88158 33.5897 7.27178 34.1546C7.04745 34.3616 6.94107 34.6835 6.78099 34.9535V34.9515ZM16.2514 41.2825C16.3335 41.7825 16.5494 42.1304 16.9686 42.3494C17.4067 42.5783 17.8701 42.5723 18.2545 42.2774C18.8938 41.7875 19.5163 41.2725 20.1061 40.7296C20.5537 40.3187 20.5158 39.6088 20.0882 39.1729C19.6542 38.7299 18.9402 38.6549 18.4536 39.0399C17.8449 39.5218 17.2435 40.0167 16.679 40.5447C16.4767 40.7336 16.3893 41.0336 16.2503 41.2835L16.2514 41.2825Z" fill="black"/>
<path d="M21.274 41.2634C22.2398 39.5256 21.1665 37.6969 19.0907 37.5979C18.6905 35.8202 18.1081 35.2653 16.4092 35.0833C16.3861 34.1694 15.9901 33.4195 15.1559 32.9266C14.305 32.4237 13.4266 32.4767 12.5314 32.9206C12.485 32.8036 12.4461 32.7046 12.4071 32.6047C11.7983 31.0429 9.86571 30.527 8.50077 31.5708C8.0658 31.9038 7.64662 32.2577 7.23693 32.6187C7.05156 32.7816 6.91465 32.8076 6.71243 32.6446C6.40174 32.3937 6.06682 32.1687 5.72559 31.9198C6.15213 31.2629 6.55972 30.6349 6.96626 30.006C8.35332 27.8644 9.74144 25.7237 11.1211 23.578C11.2559 23.369 11.395 23.2651 11.6709 23.2591C14.4408 23.1961 17.196 22.9701 19.9343 22.5692C20.0038 22.5592 20.0754 22.5592 20.2734 22.5452C20.0839 22.6671 20.0007 22.7321 19.9069 22.7791C19.0254 23.2271 18.146 23.68 17.2571 24.1139C16.7157 24.3789 16.3661 24.7638 16.3545 25.3537C16.3429 25.9437 16.6799 26.3436 17.2097 26.6236C19.2129 27.6794 21.2634 27.6074 23.3435 26.8685C23.5362 26.8005 23.7437 26.7445 23.907 26.6335C24.3546 26.3276 24.6779 26.4386 25.0887 26.7605C28.0618 29.0922 31.0614 31.3948 34.0503 33.7095C34.5654 34.1084 34.7265 34.5604 34.5559 35.0733C34.4 35.5422 33.9703 35.9142 33.45 35.8862C33.1077 35.8682 32.7296 35.7352 32.4484 35.5452C30.0829 33.9574 27.7375 32.3427 25.3804 30.7429C25.2193 30.6339 24.9907 30.496 24.8338 30.532C24.6263 30.579 24.3925 30.7509 24.2903 30.9299C24.1387 31.1979 24.3114 31.4348 24.561 31.6058C25.4541 32.2197 26.3451 32.8386 27.2404 33.4515C28.6243 34.3994 30.0113 35.3432 31.3942 36.2911C31.9576 36.677 32.1725 37.137 32.0387 37.6449C31.806 38.5238 30.7928 38.8507 29.965 38.2988C28.7622 37.4959 27.57 36.677 26.3725 35.8672C25.4626 35.2513 24.5505 34.6383 23.6374 34.0264C23.2319 33.7555 22.8422 33.7765 22.6252 34.0704C22.4051 34.3684 22.5073 34.7193 22.9128 34.9923C24.7822 36.2551 26.6558 37.5129 28.5263 38.7747C29.1035 39.1637 29.2962 39.6096 29.1235 40.1325C28.8718 40.8964 27.9702 41.1634 27.2151 40.6744C26.1219 39.9665 25.0434 39.2367 23.9554 38.5198C23.1455 37.9868 22.3356 37.4549 21.5173 36.934C21.0844 36.659 20.7253 36.694 20.5157 37.001C20.3092 37.3019 20.3893 37.5979 20.8137 37.8819C22.244 38.8387 23.6858 39.7816 25.1224 40.7304C25.53 40.9994 25.7511 41.3643 25.6774 41.8393C25.6047 42.3052 25.3235 42.6641 24.8338 42.7591C24.5389 42.8161 24.1661 42.8011 23.9059 42.6751C23.0181 42.2432 22.1639 41.7483 21.274 41.2634Z" fill="#FFDB01"/>
<path d="M32.532 22.8501C34.274 25.5397 36.0055 28.2123 37.7095 30.8429C36.8807 31.6298 36.0729 32.3957 35.2693 33.1576C31.9412 30.582 28.553 27.9664 25.1744 25.3398C24.8131 25.0588 24.4993 25.0368 24.0948 25.2498C22.7183 25.9727 21.2638 26.4646 19.6661 26.2056C19.0279 26.1017 18.416 25.8287 17.8051 25.6017C17.5239 25.4977 17.4923 25.3188 17.7967 25.1658C19.6282 24.2459 21.4471 23.3011 23.3018 22.4252C23.6556 22.2582 24.1759 22.2692 24.5772 22.3632C25.4882 22.5772 26.3834 22.8621 27.2639 23.1741C28.909 23.756 30.5141 23.717 32.1034 23.0091C32.2329 22.9511 32.3709 22.9081 32.532 22.8501Z" fill="#FFDB01"/>
<path d="M4.63025 17.2859C6.72191 18.8237 8.75459 20.3174 10.8199 21.8362C8.53025 25.3727 6.25324 28.8881 3.95199 32.4426C3.10733 31.9917 2.2753 31.5577 1.46012 31.0978C1.38008 31.0528 1.35375 30.8349 1.38219 30.7139C2.07414 27.8023 2.77768 24.8927 3.47911 21.9832C3.82034 20.5694 4.16158 19.1556 4.50387 17.7418C4.53652 17.6078 4.57759 17.4769 4.63131 17.2869L4.63025 17.2859Z" fill="#FFDB01"/>
<path d="M40.0508 32.2347C37.7496 28.6833 35.48 25.1808 33.1787 21.6303C35.2419 20.1145 37.2915 18.6078 39.38 17.073C39.8033 18.8157 40.2151 20.4985 40.6217 22.1832C41.2873 24.9428 41.9424 27.7054 42.6228 30.461C42.6965 30.7589 42.6196 30.8789 42.3574 31.0119C41.5938 31.3988 40.8439 31.8118 40.0519 32.2347H40.0508Z" fill="#FFDB01"/>
<path d="M10.9295 38.789C10.265 38.783 9.75836 38.4451 9.55931 37.9892C9.35604 37.5232 9.45399 37.0463 9.86895 36.6933C10.9074 35.8075 11.9511 34.9256 13.0064 34.0577C13.5836 33.5838 14.3303 33.6408 14.8158 34.1607C15.314 34.6936 15.2835 35.3725 14.7042 35.8675C13.6889 36.7363 12.6673 37.6002 11.6267 38.4411C11.394 38.6301 11.0717 38.72 10.9274 38.789H10.9295Z" fill="#FFDB01"/>
<path d="M12.5322 39.663C12.686 39.406 12.785 39.0941 13.002 38.9011C13.9045 38.1012 14.8356 37.3303 15.7708 36.5635C16.29 36.1375 17.0252 36.1945 17.477 36.6644C17.9457 37.1504 17.9341 37.8603 17.4096 38.3142C16.507 39.0941 15.5876 39.857 14.666 40.6158C14.2616 40.9488 13.7897 41.0098 13.3084 40.7868C12.8461 40.5729 12.6154 40.2009 12.5322 39.662V39.663Z" fill="#FFDB01"/>
<path d="M6.78223 34.9518C6.94231 34.6819 7.04869 34.3609 7.27302 34.1529C7.88282 33.588 8.53791 33.0661 9.18458 32.5372C9.80175 32.0333 10.5379 32.0693 11.0235 32.6112C11.489 33.1311 11.4079 33.826 10.8212 34.3159C10.1925 34.8418 9.56373 35.3698 8.93075 35.8917C8.52317 36.2276 8.0587 36.2976 7.57739 36.0707C7.12136 35.8557 6.86859 35.4957 6.78223 34.9498V34.9518Z" fill="#FFDB01"/>
<path d="M16.249 41.2825C16.3891 41.0336 16.4755 40.7326 16.6777 40.5437C17.2422 40.0157 17.8425 39.5208 18.4523 39.0389C18.9399 38.6539 19.653 38.7289 20.0869 39.1719C20.5145 39.6088 20.5524 40.3177 20.1048 40.7286C19.5139 41.2705 18.8926 41.7855 18.2533 42.2764C17.8678 42.5723 17.4044 42.5773 16.9673 42.3484C16.5481 42.1294 16.3322 41.7825 16.2501 41.2815L16.249 41.2825Z" fill="#FFDB01"/>
<path d="M2.5194 8.21034H10.1181V9.92549L12.911 7.50791L10.1591 4.97339V6.49441H0.711914V9.92549H2.47834L2.5194 8.21034Z" fill="white"/>
<path d="M9.871 10.4561V8.44472H2.75931L2.71825 10.1607H0.464844V6.26103H9.91206V4.42114L13.27 7.51387L9.871 10.4561ZM0.957571 9.6921H2.23702L2.27808 7.97618H10.3637V9.39585L12.5506 7.50295L10.4048 5.52663V6.7288H0.957571V9.69288V9.6921Z" fill="black"/>
<path d="M30.4404 6.22046H40.5964V10.1825H42.5443L39.831 13.0491L37.1875 10.315L38.9268 10.2487V7.93717H30.4404V6.22046Z" fill="white"/>
<path d="M39.8327 13.397L36.6464 10.1016L38.6798 10.0244V8.17207H30.1934V5.98682H40.842V9.94881H43.0962L39.8327 13.397ZM37.728 10.5288L39.8286 12.7016L41.9909 10.4174H40.3493V6.45458H30.6861V7.70352H39.1725V10.4735L37.728 10.5281V10.5288Z" fill="black"/>
<path d="M26.9444 0.943706C26.7335 0.782517 26.4648 0.705632 26.1952 0.729304C25.9256 0.752975 25.6763 0.875363 25.5001 1.07054C25.2561 1.35276 25.0644 1.67239 24.9335 2.01572C24.4486 1.59722 23.8818 1.27356 23.265 1.06321C22.6483 0.85287 21.9939 0.759985 21.3394 0.789858C20.0161 0.851615 18.7726 1.40912 17.8818 2.34011C16.991 3.27109 16.5255 4.49952 16.5875 5.75591C16.6526 7.01216 17.2399 8.19261 18.2205 9.03833C19.2012 9.88404 20.4951 10.326 21.8186 10.2671C23.1418 10.2054 24.3853 9.64784 25.2762 8.71685C26.167 7.78587 26.6324 6.55746 26.5704 5.30107C26.5275 4.43876 26.236 3.60417 25.728 2.88821C26.1209 2.75749 26.4872 2.56359 26.8109 2.315C27.0165 2.14772 27.1454 1.91102 27.1703 1.65505C27.1952 1.39908 27.1142 1.14395 26.9444 0.943706ZM21.724 8.39365C20.924 8.42859 20.142 8.16123 19.5492 7.65008C18.9563 7.13893 18.6009 6.42561 18.5608 5.66628C18.524 4.9068 18.8057 4.16443 19.3441 3.60162C19.8826 3.03881 20.6339 2.70144 21.4337 2.66333C22.2337 2.62839 23.0157 2.89575 23.6086 3.4069C24.2014 3.91806 24.5568 4.63135 24.5969 5.39068C24.6309 6.14817 24.3483 6.8877 23.8105 7.44824C23.2728 8.00878 22.5235 8.34495 21.726 8.38351L21.724 8.39365Z" fill="#FBDC00"/>
<path d="M26.3559 0.713574C26.4649 0.711874 26.573 0.731068 26.674 0.769999C26.7749 0.80893 26.8667 0.866803 26.9436 0.940154C27.1133 1.1404 27.1944 1.39553 27.1694 1.6515C27.1445 1.90747 27.0157 2.14416 26.8101 2.31145C26.4864 2.56006 26.12 2.75394 25.7271 2.88463C26.2353 3.60052 26.5268 4.43515 26.5696 5.29749C26.6316 6.55388 26.1659 7.78232 25.2751 8.7133C24.3843 9.64428 23.1408 10.2018 21.8175 10.2635C21.7356 10.2635 21.6555 10.2635 21.5753 10.2635C20.2927 10.2611 19.0601 9.79114 18.1321 8.95066C17.204 8.11019 16.6514 6.96345 16.5884 5.74727C16.5264 4.49089 16.9918 3.26246 17.8827 2.33147C18.7735 1.40049 20.017 0.84298 21.3403 0.781223C21.4222 0.781223 21.5023 0.781223 21.5825 0.781223C22.8221 0.781769 24.0171 1.2206 24.9344 2.01216C25.0656 1.66897 25.2573 1.34937 25.501 1.06696C25.7281 0.850083 26.0339 0.723686 26.3559 0.713574ZM21.5773 8.39177H21.7249C22.5247 8.35367 23.2763 8.0163 23.8147 7.45349C24.3531 6.89068 24.6346 6.14828 24.5978 5.3888C24.5591 4.65338 24.2246 3.96014 23.6632 3.45204C23.1018 2.94394 22.3564 2.65976 21.5807 2.65808H21.4346C20.6345 2.69575 19.8828 3.03294 19.3439 3.5958C18.8051 4.15865 18.5231 4.90127 18.5599 5.66102C18.5987 6.39645 18.9334 7.08972 19.4948 7.59782C20.0562 8.10591 20.8016 8.3901 21.5773 8.39177ZM26.3559 3.52304e-05C25.8348 0.00978937 25.338 0.211026 24.9701 0.561402C24.8567 0.671888 24.7564 0.793782 24.6709 0.924931C23.7492 0.363957 22.6773 0.065848 21.5825 0.0659813C21.4899 0.0659813 21.4044 0.0659813 21.3046 0.0659813C19.783 0.136939 18.3533 0.777954 17.3289 1.84841C16.3045 2.91886 15.7691 4.33135 15.8403 5.77602C15.909 7.1762 16.5435 8.49737 17.612 9.46479C18.6805 10.4322 20.1008 10.9714 21.5773 10.9704C21.6699 10.9704 21.7554 10.9704 21.8551 10.9704C23.3767 10.8994 24.8064 10.2584 25.8308 9.18793C26.8552 8.11747 27.3906 6.70496 27.3195 5.26029C27.2858 4.54657 27.1041 3.84617 26.7851 3.19914C26.9903 3.09499 27.1798 2.96471 27.3479 2.81193C27.6496 2.52351 27.8488 2.15288 27.9178 1.75176C27.962 1.51508 27.9455 1.27178 27.8695 1.04248C27.7936 0.813179 27.6604 0.604658 27.4814 0.434593C27.3345 0.295565 27.1601 0.185567 26.9681 0.110977C26.7761 0.0363877 26.5703 -0.00131912 26.3628 3.52304e-05H26.3559ZM21.5773 7.67824C20.9937 7.67883 20.4322 7.46579 20.0099 7.08346C19.5876 6.70112 19.3369 6.17893 19.3098 5.62552C19.2949 5.34276 19.3392 5.05999 19.44 4.79356C19.5409 4.52713 19.6963 4.28234 19.8975 4.07331C20.0975 3.86287 20.3396 3.69219 20.6095 3.57116C20.8795 3.45013 21.172 3.38116 21.4703 3.36824H21.5807C22.1642 3.36806 22.7252 3.58123 23.1474 3.96348C23.5697 4.34573 23.8205 4.86766 23.848 5.42092C23.876 5.99206 23.6644 6.55048 23.2594 6.97365C22.8544 7.39682 22.289 7.6502 21.6875 7.67824H21.5773Z" fill="#231F20"/>
<path d="M26.1464 11.3758C25.9505 11.1509 25.6405 11.2709 25.4339 11.4231C25.1644 11.6269 24.884 11.8171 24.5934 11.993C24.0122 12.3486 23.3637 12.5938 22.684 12.7149C21.9502 12.8199 21.2039 12.8199 20.4701 12.7149C19.791 12.5936 19.1434 12.3484 18.5627 11.993C18.2715 11.8172 17.9903 11.627 17.7202 11.4231C17.5154 11.2726 17.2054 11.1509 17.0077 11.3758C16.8698 11.6141 16.8096 11.886 16.8346 12.157C16.8597 12.4279 16.9688 12.6856 17.1484 12.8975C17.5545 13.4138 18.0945 13.8216 18.7157 14.0812L18.7497 14.0981C19.6295 14.5018 20.5997 14.6962 21.5763 14.6645C22.5524 14.696 23.5217 14.5016 24.401 14.0981L24.4349 14.0812C25.0563 13.8218 25.5963 13.414 26.0023 12.8975C26.1824 12.686 26.2923 12.4284 26.318 12.1575C26.3436 11.8865 26.2839 11.6145 26.1464 11.3758Z" fill="#FBDC00"/>
<path d="M25.8698 11.2507C25.9229 11.25 25.9755 11.261 26.0233 11.2827C26.0712 11.3044 26.1131 11.3363 26.146 11.3758C26.2839 11.6142 26.3441 11.8861 26.319 12.157C26.294 12.4279 26.1849 12.6857 26.0053 12.8976C25.5992 13.414 25.0593 13.8217 24.4379 14.0812L24.404 14.0981C23.5242 14.5019 22.554 14.6963 21.5774 14.6645C20.6007 14.6963 19.6307 14.5019 18.7509 14.0981L18.717 14.0812C18.0957 13.8217 17.5557 13.414 17.1497 12.8976C16.9701 12.6857 16.8608 12.4279 16.8357 12.157C16.8107 11.8861 16.8711 11.6142 17.009 11.3758C17.0415 11.3364 17.0832 11.3046 17.1308 11.2829C17.1783 11.2612 17.2304 11.2502 17.2832 11.2507C17.4437 11.2621 17.5964 11.3213 17.7195 11.4198C17.9896 11.6236 18.2709 11.8138 18.562 11.9896C19.1427 12.3451 19.7906 12.5903 20.4696 12.7116C20.8355 12.7663 21.2053 12.7929 21.5756 12.7911C21.946 12.7929 22.3158 12.7663 22.6816 12.7116C23.3607 12.5903 24.0086 12.3451 24.5893 11.9896C24.8798 11.8138 25.1605 11.6236 25.43 11.4198C25.5532 11.3214 25.7058 11.2622 25.8664 11.2507M25.8664 10.5388C25.5405 10.5506 25.2277 10.6634 24.9758 10.8601C24.7268 11.0486 24.4675 11.2247 24.1992 11.3876C23.7005 11.6941 23.144 11.9059 22.5605 12.0116C22.2359 12.0596 21.9077 12.0828 21.5791 12.0809C21.2506 12.0828 20.9226 12.0596 20.5979 12.0116C20.015 11.9058 19.4591 11.6939 18.961 11.3876C18.6926 11.2247 18.4334 11.0486 18.1844 10.8601C17.9325 10.6634 17.6197 10.5506 17.2938 10.5388C17.1308 10.5381 16.9698 10.572 16.8225 10.6381C16.6751 10.7042 16.5454 10.8009 16.4426 10.921C16.1952 11.2747 16.0702 11.6929 16.0852 12.1173C16.1002 12.5417 16.2545 12.951 16.5263 13.2882C17.0017 13.9119 17.6426 14.4049 18.3839 14.717L18.4107 14.7305C19.3979 15.1889 20.4879 15.4118 21.5863 15.3798C22.6794 15.4122 23.7644 15.1917 24.7477 14.7372L24.7923 14.7153C25.5329 14.4036 26.1732 13.9112 26.6482 13.2882C26.9203 12.9512 27.0747 12.5419 27.09 12.1176C27.1053 11.6932 26.9808 11.2749 26.7336 10.921C26.6306 10.8008 26.5004 10.7041 26.3527 10.6379C26.2051 10.5718 26.0437 10.5379 25.8805 10.5388H25.8664Z" fill="#231F20"/>
</svg>
