<svg width="44" height="44" viewBox="0 0 44 44" fill="none" xmlns="http://www.w3.org/2000/svg">
<path d="M0.0037827 33.5991C0.0037827 23.4309 0.0037827 13.2626 0.0037827 3.09436C0.037827 2.98844 0.0756541 2.88252 0.105916 2.77282C0.427446 1.62283 1.12346 0.786829 2.21666 0.298844C2.50037 0.17401 2.80298 0.0983536 3.09804 0C14.2419 0 25.3819 0 36.5258 0C36.5485 0.0151313 36.5674 0.0416111 36.5939 0.0491768C38.6782 0.646864 39.6125 1.88763 39.6125 4.05141C39.6125 8.30331 39.6087 12.559 39.6238 16.8109C39.6238 17.0379 39.7297 17.3102 39.8773 17.488C40.9856 18.8461 41.6816 20.3743 41.7648 22.1333C41.8216 23.3779 41.8027 24.6224 41.814 25.8708C41.814 26.0334 41.814 26.1999 41.814 26.389C42.0448 26.389 42.1999 26.389 42.3549 26.389C43.4179 26.3928 43.9966 26.9754 43.9966 28.0346C43.9966 31.6736 44.0042 35.3089 43.9966 38.948C43.9891 41.6868 41.693 43.9868 38.9581 43.9943C35.478 44.0019 31.9979 44.0019 28.5178 43.9943C26.46 43.9943 24.5573 42.6401 23.8046 40.7146C23.4414 39.7765 23.4566 38.8118 23.4641 37.8397C23.4641 37.4576 23.4641 37.0793 23.4641 36.6821H22.84C16.5796 36.6821 10.323 36.6821 4.06262 36.6821C1.9027 36.6821 0.654408 35.744 0.0529579 33.6672C0.0453925 33.6407 0.0189135 33.6218 0 33.5991H0.0037827ZM25.6619 26.389C25.6619 25.2315 25.6619 24.1307 25.6619 23.0337C25.6619 22.0426 25.7716 21.0666 26.0969 20.1209C27.7272 15.3507 33.2878 13.2286 37.6871 15.7025C37.8157 15.7744 37.9481 15.8387 38.0994 15.9182V7.37652H1.46769C1.46769 7.58079 1.46769 7.7548 1.46769 7.92503C1.46769 16.1565 1.48282 24.3917 1.45256 32.6231C1.44878 34.0682 2.30745 35.2144 4.01345 35.203C10.3117 35.1614 16.6136 35.1879 22.9118 35.1879C23.0783 35.1879 23.2485 35.1879 23.4641 35.1879C23.4641 34.9912 23.4641 34.8361 23.4641 34.6848C23.4641 32.4226 23.4641 30.1605 23.4641 27.8984C23.4641 27.0359 24.0845 26.4155 24.9507 26.3928C25.1625 26.389 25.3782 26.3928 25.6581 26.3928L25.6619 26.389ZM42.5138 33.7504C41.7951 33.7504 41.1104 33.7618 40.4258 33.7466C39.8621 33.7315 39.5444 33.3721 39.6163 32.8728C39.673 32.4907 39.9794 32.2562 40.4674 32.2524C41.1483 32.2449 41.8291 32.2524 42.5138 32.2524V30.8187C42.3095 30.8187 42.128 30.8187 41.9464 30.8187C41.3866 30.8149 40.8305 30.8263 40.2745 30.796C39.9075 30.7733 39.6654 30.5539 39.62 30.1756C39.5747 29.8049 39.726 29.525 40.0778 29.3964C40.2328 29.3396 40.4106 29.3283 40.5809 29.3283C41.2201 29.3207 41.8594 29.3283 42.5138 29.3283V27.9059H24.9621V29.3283C25.6657 29.3283 26.3503 29.3207 27.0312 29.3283C27.6251 29.3396 27.9807 29.752 27.8407 30.2702C27.7234 30.7015 27.3792 30.8225 26.9782 30.8225C26.3125 30.8225 25.643 30.8225 24.9734 30.8225V32.2562C25.6808 32.2562 26.3541 32.2449 27.0236 32.2562C27.5948 32.2675 27.9164 32.6118 27.8558 33.1111C27.8067 33.5121 27.4965 33.7504 26.982 33.7542C26.3125 33.7618 25.6467 33.7542 24.9696 33.7542V35.1879C25.1739 35.1879 25.3441 35.1879 25.5143 35.1879C26.0439 35.1879 26.5735 35.1728 27.1031 35.1992C27.6364 35.2257 27.9353 35.5964 27.8521 36.0806C27.7877 36.4476 27.4889 36.6783 27.035 36.6859C26.3503 36.6935 25.6694 36.6859 24.9621 36.6859V38.1347C25.1399 38.1347 25.2949 38.1347 25.4463 38.1347C26.0174 38.1347 26.5924 38.1196 27.1636 38.1461C27.6705 38.1688 27.9769 38.5962 27.8369 39.0691C27.7272 39.4511 27.4397 39.61 27.0577 39.61C26.3919 39.61 25.73 39.61 25.0566 39.61C25.3403 41.2934 26.8799 42.5266 28.6956 42.5304C32.0584 42.5417 35.425 42.5379 38.7916 42.5266C39.1737 42.5266 39.5633 42.4623 39.9302 42.3564C41.2164 41.997 42.3133 40.7676 42.3966 39.6062C41.7232 39.6062 41.0499 39.6176 40.3804 39.6062C39.9075 39.5987 39.6125 39.2923 39.6163 38.861C39.6163 38.4373 39.8924 38.165 40.3539 38.1385C40.5809 38.1234 40.8116 38.1309 41.0423 38.1309C41.5379 38.1309 42.0296 38.1309 42.51 38.1309V36.6821C41.7913 36.6821 41.1029 36.6935 40.4144 36.6821C39.8621 36.6708 39.5406 36.2925 39.6238 35.7931C39.6881 35.4149 39.9794 35.1992 40.4901 35.1917C41.1596 35.1841 41.8291 35.1917 42.5176 35.1917V33.758L42.5138 33.7504ZM1.47904 5.82556H38.0881C38.0881 4.97064 38.141 4.13842 38.0654 3.32133C38.0313 2.93926 37.8043 2.5345 37.5585 2.22052C37.0932 1.62662 36.4161 1.46396 35.6785 1.46396C25.0982 1.46774 14.518 1.46396 3.9378 1.46396C3.83944 1.46396 3.73731 1.46396 3.63896 1.46396C2.46254 1.52448 1.57361 2.34157 1.49039 3.51425C1.43743 4.26703 1.47904 5.02738 1.47904 5.82178V5.82556ZM40.2366 26.3739C40.2366 24.7851 40.3766 23.2266 40.2064 21.7021C39.8697 18.691 37.1386 16.2662 34.1767 16.1527C30.8669 16.0279 28.0261 18.0933 27.3376 21.1725C26.9593 22.8672 27.2014 24.5922 27.1674 26.3058C27.1674 26.3247 27.2014 26.3474 27.2203 26.3701H40.2366V26.3739Z" fill="black"/>
<path d="M25.6635 26.3889C25.3836 26.3889 25.168 26.3851 24.9562 26.3889C24.0937 26.4115 23.4734 27.0281 23.4696 27.8944C23.462 30.1565 23.4696 32.4187 23.4696 34.6808C23.4696 34.8359 23.4696 34.9872 23.4696 35.1839C23.254 35.1839 23.0837 35.1839 22.9173 35.1839C16.6191 35.1839 10.3171 35.1575 4.01891 35.1991C2.31291 35.2104 1.45424 34.0642 1.45802 32.6192C1.48828 24.3877 1.47315 16.1525 1.47315 7.92107C1.47315 7.75084 1.47315 7.58061 1.47315 7.37256H38.0973V15.9142C37.946 15.8348 37.8136 15.7704 37.685 15.6986C33.2857 13.2284 27.7251 15.3505 26.0948 20.1169C25.7695 21.0626 25.6598 22.0348 25.6598 23.0297C25.6598 24.1305 25.6598 25.2313 25.6598 26.3851L25.6635 26.3889ZM5.89892 11.7493C6.87107 11.7493 7.80162 11.7606 8.72838 11.7455C9.23148 11.7379 9.54544 11.4202 9.53788 10.9852C9.53031 10.5691 9.2277 10.2589 8.74729 10.2513C7.77514 10.2362 6.7992 10.221 5.82704 10.2589C4.99107 10.2929 4.40096 10.9133 4.39718 11.7304C4.38583 13.6899 4.38583 15.6532 4.39718 17.6127C4.40096 18.426 5.03646 19.0615 5.84596 19.0653C7.82053 19.0766 9.7951 19.0766 11.7697 19.0653C12.4543 19.0653 13.0709 18.6113 13.1428 17.938C13.2336 17.0604 13.2147 16.1714 13.192 15.2862C13.1806 14.8928 12.8213 14.6469 12.443 14.6696C12.0458 14.6923 11.8113 14.9193 11.747 15.3014C11.7129 15.4981 11.7243 15.6986 11.7205 15.8991C11.7205 16.4514 11.7205 17.0036 11.7205 17.5673H5.89892V11.7455V11.7493ZM5.89513 24.2175C6.8635 24.2175 7.77514 24.2251 8.69055 24.2175C9.20122 24.2137 9.52275 23.9224 9.53788 23.495C9.55301 23.06 9.24661 22.7346 8.73973 22.7271C7.7827 22.7082 6.8219 22.7006 5.86487 22.7271C5.03268 22.7536 4.41231 23.3399 4.40475 24.1229C4.38205 26.1278 4.38583 28.129 4.40475 30.1339C4.41231 30.9018 5.05537 31.5259 5.8157 31.5297C7.8054 31.5411 9.7951 31.5411 11.7848 31.5297C12.4468 31.5297 13.0671 31.0871 13.139 30.4365C13.2336 29.5475 13.2184 28.6396 13.192 27.7431C13.1806 27.3535 12.8175 27.1152 12.4354 27.1416C12.0345 27.1681 11.8113 27.4026 11.7508 27.7847C11.7205 27.9814 11.7281 28.1857 11.7281 28.3824C11.7281 28.9347 11.7281 29.4832 11.7281 30.0355H5.89513V24.2137V24.2175ZM20.8633 16.1487C22.4369 16.1487 24.0105 16.1525 25.5841 16.1487C26.0872 16.1487 26.3974 15.8423 26.3936 15.3997C26.3936 14.9647 26.1099 14.6999 25.6144 14.6659C25.5274 14.6583 25.4441 14.6659 25.3571 14.6659C22.3802 14.6659 19.407 14.6659 16.43 14.6659C16.2749 14.6659 16.1122 14.6659 15.9609 14.6999C15.5599 14.7869 15.3027 15.1992 15.42 15.5813C15.5448 15.9936 15.8512 16.1563 16.2711 16.1563C17.8031 16.1525 19.3313 16.1563 20.8633 16.1563V16.1487ZM8.73594 26.7898C8.46359 26.5023 8.22528 26.2413 7.97184 25.9917C7.59735 25.6209 7.14721 25.5831 6.83324 25.882C6.50415 26.1997 6.54198 26.6499 6.93538 27.0471C7.34769 27.467 7.76001 27.8831 8.17989 28.2916C8.63759 28.7418 9.03856 28.7304 9.45466 28.2311C10.6349 26.8314 11.8037 25.4204 12.9726 24.0132C13.3017 23.616 13.279 23.1961 12.9423 22.9086C12.5981 22.6136 12.1669 22.6817 11.8188 23.0864C11.5389 23.4118 11.2704 23.7447 10.9942 24.0738C10.2528 24.9627 9.5114 25.8479 8.72838 26.786L8.73594 26.7898ZM8.72838 14.3368C8.40685 13.9963 8.14584 13.6899 7.85079 13.4175C7.55196 13.1376 7.11695 13.1527 6.84081 13.4175C6.54954 13.6937 6.52306 14.14 6.81811 14.4578C7.29852 14.9685 7.79405 15.464 8.30472 15.9445C8.63381 16.2546 9.01586 16.2282 9.33361 15.9066C9.54544 15.6948 9.72701 15.4527 9.91993 15.2219C10.9299 14.0152 11.9361 12.8047 12.9423 11.5942C13.2979 11.1667 13.2941 10.7544 12.9461 10.4556C12.5905 10.1492 12.1669 10.221 11.7962 10.6598C11.6562 10.8225 11.52 10.9889 11.3838 11.1554C10.5138 12.1957 9.64379 13.2397 8.72081 14.3443L8.72838 14.3368ZM19.04 24.9325C19.9857 24.9325 20.9276 24.9325 21.8733 24.9325C22.4066 24.9325 22.7509 24.6374 22.7471 24.1986C22.7471 23.7598 22.3991 23.4647 21.8695 23.4647C20.0084 23.4647 18.1473 23.4647 16.2862 23.4647C15.7453 23.4647 15.4086 23.7409 15.3935 24.1797C15.3784 24.6336 15.7188 24.9287 16.2862 24.9325C17.2016 24.9362 18.1171 24.9325 19.0325 24.9325H19.04ZM19.1195 11.0041C18.1587 11.0041 17.2016 11.0041 16.2408 11.0041C15.7339 11.0041 15.4049 11.2916 15.3973 11.719C15.3859 12.1503 15.715 12.4605 16.2106 12.4642C18.1133 12.468 20.016 12.468 21.9225 12.4642C22.418 12.4642 22.7546 12.1503 22.7509 11.7304C22.7471 11.3067 22.4104 11.0079 21.9111 11.0079C20.9806 11.0041 20.05 11.0079 19.1195 11.0079V11.0041ZM18.6958 27.1341C17.8939 27.1341 17.0919 27.1303 16.2938 27.1341C15.7226 27.1379 15.3859 27.4329 15.3973 27.8869C15.4124 28.3257 15.7529 28.6094 16.2862 28.6094C17.9014 28.6094 19.5204 28.6094 21.1356 28.6094C21.6728 28.6094 21.9981 28.3219 22.0019 27.8717C22.0019 27.414 21.6993 27.1416 21.1432 27.1341C20.3262 27.1265 19.5129 27.1341 18.6958 27.1341Z" fill="#FDDE00"/>
<path d="M42.5126 33.7502V35.1839C41.8203 35.1839 41.1508 35.1764 40.485 35.1839C39.9781 35.1915 39.6831 35.4033 39.6188 35.7854C39.5356 36.2847 39.8571 36.663 40.4094 36.6744C41.094 36.6895 41.7825 36.6744 42.505 36.6744V38.1232C42.0246 38.1232 41.5291 38.1232 41.0373 38.1232C40.8066 38.1232 40.5796 38.1156 40.3489 38.1308C39.8836 38.1572 39.6112 38.4296 39.6112 38.8533C39.6112 39.2845 39.9063 39.5909 40.3753 39.5985C41.0487 39.6136 41.7182 39.5985 42.3915 39.5985C42.3083 40.7598 41.2113 41.9855 39.9252 42.3486C39.5583 42.4507 39.1649 42.5151 38.7866 42.5188C35.4238 42.5302 32.0572 42.534 28.6906 42.5226C26.8749 42.5151 25.3353 41.2856 25.0516 39.6023C25.7249 39.6023 26.3907 39.6023 27.0526 39.6023C27.4385 39.6023 27.7222 39.4396 27.8319 39.0613C27.9681 38.5885 27.6654 38.161 27.1586 38.1383C26.5874 38.1118 26.0124 38.127 25.4412 38.127C25.2861 38.127 25.1348 38.127 24.957 38.127V36.6781C25.6606 36.6781 26.3453 36.6857 27.03 36.6781C27.4877 36.6706 27.7865 36.4398 27.847 36.0729C27.9302 35.5887 27.6314 35.218 27.098 35.1915C26.5685 35.165 26.0389 35.1839 25.5093 35.1801C25.3391 35.1801 25.1689 35.1801 24.9646 35.1801V33.7464C25.6417 33.7464 26.3112 33.754 26.977 33.7464C27.4914 33.7389 27.8016 33.5043 27.8508 33.1034C27.9113 32.604 27.5898 32.2598 27.0186 32.2484C26.3453 32.2371 25.6757 32.2484 24.9684 32.2484V30.8148C25.6379 30.8148 26.3037 30.8148 26.9732 30.8148C27.378 30.8148 27.7184 30.6975 27.8357 30.2625C27.9756 29.7442 27.6201 29.3281 27.0262 29.3205C26.3415 29.3092 25.6606 29.3205 24.957 29.3205V27.8982H42.5088V29.3205C41.8544 29.3205 41.2151 29.3168 40.5758 29.3205C40.4056 29.3205 40.2278 29.3319 40.0727 29.3886C39.7171 29.5172 39.5658 29.7972 39.615 30.1679C39.6642 30.55 39.9063 30.7694 40.2694 30.7883C40.8255 30.8185 41.3853 30.8072 41.9414 30.811C42.1229 30.811 42.3045 30.811 42.5088 30.811V32.2447C41.8241 32.2447 41.1432 32.2371 40.4623 32.2447C39.9744 32.2522 39.668 32.4868 39.6112 32.865C39.5394 33.3644 39.8571 33.7275 40.4207 33.7389C41.1054 33.754 41.7901 33.7427 42.5088 33.7427L42.5126 33.7502ZM33.0028 36.7349C33.0028 36.9619 32.9915 37.1926 33.0028 37.4196C33.0218 37.8243 33.3319 38.1308 33.7102 38.1421C34.1036 38.1534 34.4403 37.8395 34.4554 37.4158C34.4705 37.0451 34.4781 36.6706 34.4554 36.2999C34.4365 35.967 34.5235 35.7778 34.8488 35.6038C35.7113 35.1385 36.1122 34.1096 35.8626 33.179C35.6053 32.2258 34.7958 31.56 33.854 31.5335C32.7948 31.5032 31.9286 32.0971 31.6259 33.058C31.3347 33.9923 31.6638 35.0402 32.5073 35.5282C32.9234 35.7703 33.0596 36.0351 32.9991 36.4701C32.9877 36.5533 32.9991 36.6403 32.9991 36.7273L33.0028 36.7349Z" fill="#FDDE00"/>
<path d="M1.47813 5.82581C1.47813 5.03142 1.43274 4.27107 1.48948 3.51828C1.57648 2.34561 2.46163 1.5323 3.63805 1.46799C3.7364 1.46421 3.83854 1.46799 3.93689 1.46799C14.5171 1.46799 25.0973 1.46799 35.6776 1.46799C36.4152 1.46799 37.0923 1.63065 37.5576 2.22456C37.8034 2.53853 38.0304 2.94329 38.0644 3.32536C38.1401 4.14623 38.0871 4.97467 38.0871 5.82959H1.47813V5.82581ZM25.313 4.39968C28.4904 4.39968 31.6679 4.39968 34.8416 4.39968C35.0005 4.39968 35.1593 4.40347 35.3144 4.38455C35.6851 4.33538 35.9234 4.05166 35.9272 3.67716C35.931 3.1854 35.6133 2.92816 34.9929 2.92816C28.5396 2.92816 22.0863 2.92816 15.633 2.92816C15.5195 2.92816 15.4023 2.9206 15.2888 2.93951C14.9105 3.00004 14.6609 3.31779 14.676 3.69986C14.6911 4.06679 14.9408 4.34294 15.3115 4.38834C15.4666 4.40725 15.6254 4.40347 15.7843 4.40347C18.9618 4.40347 22.1393 4.40347 25.313 4.40347V4.39968ZM12.081 4.3959C12.2097 4.3959 12.3383 4.40347 12.4669 4.3959C12.9019 4.36942 13.2159 4.05923 13.2159 3.66581C13.2159 3.27618 12.8943 2.95843 12.4669 2.92816C12.3383 2.9206 12.2097 2.92816 12.081 2.92816C11.3396 2.92816 11.0068 3.15892 11.0068 3.66581C11.0068 4.18028 11.3283 4.39968 12.081 4.3959ZM8.42696 4.39968C9.20619 4.39968 9.54664 4.16893 9.53529 3.65447C9.52772 3.15513 9.18728 2.92816 8.44209 2.92816C7.68933 2.92816 7.31106 3.18161 7.32241 3.68095C7.33375 4.16893 7.68933 4.40347 8.42317 4.40347L8.42696 4.39968ZM4.76152 4.38834C4.76152 4.38834 4.76152 4.38834 4.76152 4.39212C4.89013 4.39212 5.01874 4.39968 5.14735 4.39212C5.59371 4.35807 5.86985 4.06679 5.86228 3.65068C5.85472 3.25349 5.57858 2.95843 5.16248 2.93195C4.87878 2.91681 4.58751 2.90925 4.30759 2.93951C3.92554 2.97734 3.66831 3.30266 3.67588 3.68095C3.68344 4.06679 3.94067 4.35051 4.33785 4.38834C4.47781 4.40347 4.62156 4.38834 4.7653 4.38834H4.76152Z" fill="white"/>
<path d="M40.2356 26.3702H27.2193C27.2004 26.3476 27.1664 26.3249 27.1664 26.3059C27.2004 24.5923 26.9583 22.8673 27.3366 21.1726C28.0213 18.0934 30.8659 16.028 34.1757 16.1528C37.1376 16.2625 39.8687 18.6911 40.2053 21.7022C40.3756 23.2267 40.2356 24.7852 40.2356 26.374V26.3702Z" fill="white"/>
<path d="M5.89746 11.7497V17.5714H11.719C11.719 17.0078 11.719 16.4555 11.719 15.9032C11.719 15.7027 11.7115 15.4984 11.7455 15.3055C11.8098 14.9197 12.0444 14.6927 12.4415 14.6738C12.8198 14.6511 13.1792 14.897 13.1905 15.2904C13.217 16.1756 13.2359 17.0645 13.1413 17.9421C13.0695 18.6155 12.4529 19.0656 11.7682 19.0694C9.79364 19.0808 7.81907 19.0808 5.8445 19.0694C5.035 19.0656 4.40329 18.4301 4.39572 17.6168C4.38059 15.6573 4.38437 13.694 4.39572 11.7345C4.3995 10.9174 4.98961 10.2933 5.82558 10.263C6.79774 10.2252 7.76989 10.2403 8.74583 10.2554C9.22624 10.263 9.52885 10.5732 9.53642 10.9893C9.54398 11.4243 9.23002 11.7383 8.72692 11.7497C7.80016 11.7648 6.86961 11.7534 5.89746 11.7534V11.7497Z" fill="black"/>
<path d="M5.89495 24.2175V30.0393H11.7203C11.7203 29.487 11.7203 28.9385 11.7203 28.3862C11.7203 28.1857 11.709 27.9815 11.743 27.7885C11.8035 27.4065 12.0267 27.1682 12.4277 27.1455C12.8097 27.1228 13.1729 27.3573 13.1842 27.7469C13.2107 28.6435 13.2258 29.5513 13.1313 30.4403C13.0632 31.091 12.439 31.5298 11.7771 31.5335C9.78735 31.5411 7.79765 31.5449 5.80795 31.5335C5.04762 31.5298 4.40456 30.9056 4.397 30.1377C4.37808 28.1328 4.37808 26.1317 4.397 24.1268C4.40456 23.3437 5.02493 22.7574 5.85712 22.7309C6.81415 22.7006 7.77495 22.7082 8.73198 22.7309C9.23508 22.7385 9.54526 23.0638 9.53013 23.4988C9.515 23.9263 9.19347 24.2175 8.6828 24.2213C7.76739 24.2327 6.85197 24.2213 5.88738 24.2213L5.89495 24.2175Z" fill="black"/>
<path d="M20.8624 16.1455C19.3304 16.1455 17.8022 16.1455 16.2702 16.1455C15.8503 16.1455 15.5477 15.9866 15.4191 15.5705C15.3019 15.1922 15.5591 14.7761 15.96 14.6891C16.1114 14.655 16.274 14.655 16.4291 14.655C19.4061 14.655 22.3793 14.655 25.3563 14.655C25.4433 14.655 25.5265 14.655 25.6135 14.655C26.109 14.6891 26.389 14.9539 26.3927 15.3889C26.3927 15.8315 26.0863 16.1341 25.5832 16.1379C24.0096 16.1455 22.436 16.1379 20.8624 16.1379V16.1455Z" fill="black"/>
<path d="M8.73473 26.7861C9.51775 25.8479 10.2592 24.9627 11.0006 24.0738C11.2767 23.7447 11.5453 23.4118 11.8252 23.0865C12.1732 22.6817 12.6044 22.6136 12.9487 22.9087C13.2853 23.1962 13.308 23.6161 12.9789 24.0133C11.8101 25.4243 10.6412 26.8315 9.46101 28.2311C9.04113 28.7267 8.64395 28.738 8.18624 28.2916C7.76636 27.8793 7.35405 27.4632 6.94173 27.0471C6.54833 26.6461 6.5105 26.1959 6.8396 25.882C7.15356 25.5793 7.59992 25.6172 7.97819 25.9917C8.23163 26.2413 8.46994 26.5024 8.7423 26.7899L8.73473 26.7861Z" fill="black"/>
<path d="M8.72734 14.3333C9.65032 13.225 10.5203 12.1847 11.3904 11.1444C11.5265 10.978 11.6627 10.8153 11.8027 10.6489C12.1734 10.2138 12.597 10.1382 12.9526 10.4446C13.3006 10.7434 13.3044 11.1558 12.9488 11.5832C11.9426 12.7937 10.9364 14.0042 9.92646 15.2109C9.73354 15.4417 9.54819 15.68 9.34014 15.8956C9.02239 16.221 8.64034 16.2437 8.31125 15.9335C7.80058 15.453 7.30505 14.9575 6.82464 14.4468C6.52581 14.1328 6.55607 13.6827 6.84734 13.4065C7.12348 13.1455 7.55849 13.1304 7.85732 13.4065C8.14859 13.6789 8.4096 13.9853 8.73491 14.3258L8.72734 14.3333Z" fill="black"/>
<path d="M19.0359 24.9287C18.1205 24.9287 17.2051 24.9287 16.2897 24.9287C15.7223 24.9287 15.3818 24.6336 15.397 24.1759C15.4121 23.7371 15.7488 23.4609 16.2897 23.4609C18.1508 23.4609 20.0119 23.4609 21.873 23.4609C22.4025 23.4609 22.7468 23.756 22.7505 24.1948C22.7505 24.6298 22.4101 24.9249 21.8767 24.9287C20.9311 24.9325 19.9892 24.9287 19.0435 24.9287H19.0359Z" fill="black"/>
<path d="M19.119 11.0004C20.0495 11.0004 20.98 11.0004 21.9106 11.0004C22.4061 11.0004 22.7466 11.2992 22.7503 11.7229C22.7541 12.1466 22.4175 12.4568 21.9219 12.4568C20.0192 12.4605 18.1165 12.4605 16.2101 12.4568C15.7145 12.4568 15.3854 12.1428 15.3968 11.7115C15.4081 11.2841 15.7372 11.0004 16.2403 10.9966C17.1973 10.9966 18.1581 10.9966 19.119 10.9966V11.0004Z" fill="black"/>
<path d="M18.6926 27.1301C19.5096 27.1301 20.3229 27.1225 21.14 27.1301C21.696 27.1339 22.0024 27.4062 21.9986 27.8677C21.9986 28.3179 21.6695 28.6054 21.1324 28.6054C19.5172 28.6092 17.8982 28.6054 16.283 28.6054C15.7496 28.6054 15.4054 28.3179 15.394 27.8829C15.3789 27.4289 15.7194 27.1339 16.2905 27.1301C17.0925 27.1225 17.8944 27.1301 18.6926 27.1301Z" fill="black"/>
<path d="M33.0054 36.7347C33.0054 36.6477 32.9941 36.5607 33.0054 36.4775C33.0659 36.0463 32.9336 35.7777 32.5137 35.5356C31.6701 35.0476 31.341 33.996 31.6323 33.0654C31.9349 32.1045 32.8012 31.5106 33.8603 31.5409C34.8022 31.5674 35.6117 32.2294 35.8689 33.1864C36.1186 34.1132 35.7176 35.1459 34.8552 35.6112C34.5298 35.7852 34.4428 35.9744 34.4618 36.3073C34.4845 36.678 34.4769 37.0525 34.4618 37.4232C34.4466 37.8469 34.11 38.1609 33.7166 38.1495C33.3345 38.1382 33.0281 37.8317 33.0092 37.427C32.9979 37.2 33.0092 36.9693 33.0092 36.7423L33.0054 36.7347ZM34.4618 33.7728C34.4882 33.3907 34.144 33.0162 33.7544 33.0011C33.3875 32.9897 33.0319 33.315 33.0054 33.6895C32.9827 34.0527 33.2967 34.4196 33.6712 34.4575C34.0532 34.4953 34.4353 34.1662 34.458 33.7728H34.4618Z" fill="black"/>
<path d="M25.3144 4.39941C22.1369 4.39941 18.9594 4.39941 15.7857 4.39941C15.6269 4.39941 15.468 4.40319 15.3129 4.38427C14.9422 4.34266 14.6887 4.06273 14.6774 3.6958C14.6623 3.31373 14.9157 2.99976 15.2902 2.93545C15.4037 2.91654 15.5172 2.9241 15.6344 2.9241C22.0877 2.9241 28.541 2.9241 34.9943 2.9241C35.6147 2.9241 35.9324 3.18133 35.9286 3.6731C35.9249 4.0476 35.6865 4.32753 35.3158 4.38049C35.1607 4.40319 35.0019 4.39562 34.843 4.39562C31.6655 4.39562 28.4881 4.39562 25.3144 4.39562V4.39941Z" fill="black"/>
<path d="M12.0821 4.39566C11.3256 4.39566 11.0078 4.18004 11.0078 3.66558C11.0078 3.15489 11.3407 2.92792 12.0821 2.92792C12.2107 2.92792 12.3393 2.92036 12.4679 2.92792C12.8954 2.9544 13.2131 3.27216 13.2169 3.66558C13.2169 4.05899 12.9067 4.3654 12.4679 4.39566C12.3393 4.40323 12.2107 4.39566 12.0821 4.39566Z" fill="black"/>
<path d="M8.42719 4.39986C7.68956 4.39986 7.33399 4.16533 7.32642 3.67734C7.31507 3.17801 7.69334 2.92456 8.4461 2.92456C9.19129 2.92456 9.53174 3.15153 9.5393 3.65086C9.54687 4.16911 9.20642 4.39608 8.43097 4.39608L8.42719 4.39986Z" fill="black"/>
<path d="M4.76341 4.38809C4.61967 4.38809 4.47592 4.39944 4.33596 4.38809C3.94256 4.34648 3.68156 4.06655 3.67399 3.6807C3.66643 3.30241 3.92365 2.98087 4.3057 2.93926C4.58941 2.909 4.87689 2.91657 5.16059 2.9317C5.57669 2.95439 5.85661 3.25324 5.86039 3.65043C5.86796 4.07033 5.59182 4.36161 5.14546 4.39187C5.01685 4.39944 4.88824 4.39187 4.75963 4.39187C4.75963 4.39187 4.75963 4.39187 4.75963 4.38809H4.76341Z" fill="black"/>
<path d="M34.4619 33.7727C34.4354 34.1661 34.0534 34.4952 33.6751 34.4574C33.3006 34.4196 32.9829 34.0564 33.0094 33.6895C33.0358 33.315 33.3876 32.9897 33.7583 33.001C34.148 33.0124 34.4922 33.3869 34.4657 33.7727H34.4619Z" fill="white"/>
</svg>
