<svg width="20" height="24" viewBox="0 0 20 24" fill="none" xmlns="http://www.w3.org/2000/svg">
<path fill-rule="evenodd" clip-rule="evenodd" d="M15.3918 0C14.749 7.6894 5.94771 2.63487 2.60377 9.04132C2.13197 10.0842 1.81469 11.0527 1.6657 11.9383C1.42015 12.2418 1.19391 12.5674 0.989739 12.915C-0.0310996 14.6835 -0.235267 16.6976 0.25308 18.5241C0.744186 20.3506 1.93057 21.9922 3.6991 23.0103C5.46764 24.0311 7.47897 24.2353 9.3082 23.7469C11.1347 23.2586 12.7763 22.0722 13.7944 20.3037C14.2469 19.5201 14.5393 18.6924 14.6828 17.8536C15.7229 17.2467 16.6417 16.3914 17.3425 15.2574C18.5316 12.4984 16.3658 10.2994 19.3317 8.35709C17.497 7.43557 16.3823 8.38743 15.3118 10.2525C14.153 12.766 9.8131 9.78902 13.8827 8.24121C17.3728 6.91963 17.0528 2.82248 15.3918 0ZM10.5415 11.1575C13.6785 12.9674 14.6607 16.6259 12.848 19.7657C11.0381 22.9027 7.37688 23.8849 4.23987 22.075C1.10286 20.265 0.123405 16.6038 1.93333 13.4668C3.746 10.327 7.40447 9.34757 10.5415 11.1575Z" fill="#BF291E"/>
<path d="M7.23344 16.59H7.2334C7.10372 16.59 6.98233 16.6176 6.87197 16.6673L4.23434 14.6284C4.07156 14.5015 3.83704 14.5318 3.71012 14.6974C3.58321 14.8601 3.61356 15.0947 3.77634 15.2216L6.36982 17.2246C6.34499 17.3157 6.32844 17.4067 6.32844 17.5005C6.32844 17.9999 6.73401 18.4082 7.2334 18.4082C7.68588 18.4082 8.05835 18.0772 8.13008 17.6468L10.6491 15.7568C10.9443 15.5333 11.0022 15.114 10.7815 14.8188C10.5608 14.5235 10.1387 14.4656 9.84619 14.6863L7.29961 16.5928C7.27756 16.59 7.2555 16.59 7.23344 16.59Z" fill="#0C0058"/>
</svg>
