<svg width="99" height="37" viewBox="0 0 99 37" fill="none" xmlns="http://www.w3.org/2000/svg">
<g filter="url(#filter0_d_4379_83600)">
<path d="M12.4767 11.4737L4 2H95V11.4737V22H4L12.4767 11.4737Z" fill="black"/>
<rect x="4" y="22" width="91" height="2" fill="url(#paint0_linear_4379_83600)"/>
<path d="M89 22L95 27.8333V29L89 23.1667V22Z" fill="url(#paint1_linear_4379_83600)"/>
<rect x="4" width="91" height="2" fill="url(#paint2_linear_4379_83600)"/>
<path d="M22.2207 7.89062H23.3145L25.3701 13.374L27.4209 7.89062H28.5146L25.7998 15H24.9307L22.2207 7.89062ZM21.7227 7.89062H22.7627L22.9434 12.6367V15H21.7227V7.89062ZM27.9727 7.89062H29.0176V15H27.792V12.6367L27.9727 7.89062ZM30.3309 12.417V12.3047C30.3309 11.9238 30.3862 11.5706 30.4969 11.2451C30.6076 10.9163 30.7671 10.6315 30.9754 10.3906C31.187 10.1465 31.4441 9.95768 31.7469 9.82422C32.0529 9.6875 32.3979 9.61914 32.782 9.61914C33.1694 9.61914 33.5145 9.6875 33.8172 9.82422C34.1232 9.95768 34.382 10.1465 34.5936 10.3906C34.8051 10.6315 34.9663 10.9163 35.077 11.2451C35.1876 11.5706 35.243 11.9238 35.243 12.3047V12.417C35.243 12.7979 35.1876 13.151 35.077 13.4766C34.9663 13.8021 34.8051 14.0869 34.5936 14.3311C34.382 14.5719 34.1248 14.7607 33.8221 14.8975C33.5193 15.0309 33.1759 15.0977 32.7918 15.0977C32.4044 15.0977 32.0577 15.0309 31.7518 14.8975C31.449 14.7607 31.1919 14.5719 30.9803 14.3311C30.7687 14.0869 30.6076 13.8021 30.4969 13.4766C30.3862 13.151 30.3309 12.7979 30.3309 12.417ZM31.5076 12.3047V12.417C31.5076 12.6546 31.532 12.8792 31.5809 13.0908C31.6297 13.3024 31.7062 13.488 31.8104 13.6475C31.9145 13.807 32.048 13.9323 32.2107 14.0234C32.3735 14.1146 32.5672 14.1602 32.7918 14.1602C33.0099 14.1602 33.1987 14.1146 33.3582 14.0234C33.521 13.9323 33.6544 13.807 33.7586 13.6475C33.8628 13.488 33.9393 13.3024 33.9881 13.0908C34.0402 12.8792 34.0662 12.6546 34.0662 12.417V12.3047C34.0662 12.0703 34.0402 11.849 33.9881 11.6406C33.9393 11.429 33.8611 11.2419 33.7537 11.0791C33.6495 10.9163 33.5161 10.7894 33.3533 10.6982C33.1938 10.6038 33.0034 10.5566 32.782 10.5566C32.5607 10.5566 32.3686 10.6038 32.2059 10.6982C32.0464 10.7894 31.9145 10.9163 31.8104 11.0791C31.7062 11.2419 31.6297 11.429 31.5809 11.6406C31.532 11.849 31.5076 12.0703 31.5076 12.3047ZM39.3932 13.5693C39.3932 13.4521 39.3639 13.3464 39.3053 13.252C39.2467 13.1543 39.1344 13.0664 38.9684 12.9883C38.8056 12.9102 38.5647 12.8385 38.2457 12.7734C37.9658 12.7116 37.7086 12.6383 37.4742 12.5537C37.2431 12.4658 37.0445 12.36 36.8785 12.2363C36.7125 12.1126 36.5839 11.9661 36.4928 11.7969C36.4016 11.6276 36.3561 11.4323 36.3561 11.2109C36.3561 10.9961 36.4033 10.7926 36.4977 10.6006C36.5921 10.4085 36.7271 10.2393 36.9029 10.0928C37.0787 9.94629 37.2919 9.83073 37.5426 9.74609C37.7965 9.66146 38.0797 9.61914 38.3922 9.61914C38.8349 9.61914 39.2141 9.69401 39.5299 9.84375C39.8489 9.99023 40.093 10.1904 40.2623 10.4443C40.4316 10.695 40.5162 10.9782 40.5162 11.2939H39.3395C39.3395 11.154 39.3036 11.0238 39.232 10.9033C39.1637 10.7796 39.0595 10.6803 38.9195 10.6055C38.7796 10.5273 38.6038 10.4883 38.3922 10.4883C38.1904 10.4883 38.0227 10.5208 37.8893 10.5859C37.759 10.6478 37.6614 10.7292 37.5963 10.8301C37.5344 10.931 37.5035 11.0417 37.5035 11.1621C37.5035 11.25 37.5198 11.3298 37.5523 11.4014C37.5882 11.4697 37.6467 11.5332 37.7281 11.5918C37.8095 11.6471 37.9202 11.6992 38.0602 11.748C38.2034 11.7969 38.3824 11.8441 38.5973 11.8896C39.0009 11.9743 39.3476 12.0833 39.6373 12.2168C39.9303 12.347 40.1549 12.5163 40.3111 12.7246C40.4674 12.9297 40.5455 13.1901 40.5455 13.5059C40.5455 13.7402 40.4951 13.9551 40.3941 14.1504C40.2965 14.3424 40.1533 14.5101 39.9645 14.6533C39.7757 14.7933 39.5494 14.9023 39.2857 14.9805C39.0253 15.0586 38.7324 15.0977 38.4068 15.0977C37.9283 15.0977 37.523 15.013 37.191 14.8438C36.859 14.6712 36.6067 14.4515 36.4342 14.1846C36.2649 13.9144 36.1803 13.6344 36.1803 13.3447H37.318C37.331 13.5628 37.3912 13.737 37.4986 13.8672C37.6093 13.9941 37.746 14.0869 37.9088 14.1455C38.0748 14.2008 38.2457 14.2285 38.4215 14.2285C38.6331 14.2285 38.8105 14.2008 38.9537 14.1455C39.0969 14.0869 39.206 14.0088 39.2809 13.9111C39.3557 13.8102 39.3932 13.6963 39.3932 13.5693ZM44.1977 9.7168V10.5762H41.2191V9.7168H44.1977ZM42.0785 8.42285H43.2553V13.54C43.2553 13.7028 43.2781 13.8281 43.3236 13.916C43.3725 14.0007 43.4392 14.0576 43.5238 14.0869C43.6085 14.1162 43.7077 14.1309 43.8217 14.1309C43.9031 14.1309 43.9812 14.126 44.0561 14.1162C44.1309 14.1064 44.1911 14.0967 44.2367 14.0869L44.2416 14.9854C44.1439 15.0146 44.03 15.0407 43.8998 15.0635C43.7729 15.0863 43.6264 15.0977 43.4604 15.0977C43.1902 15.0977 42.9509 15.0505 42.7426 14.9561C42.5342 14.8584 42.3715 14.7005 42.2543 14.4824C42.1371 14.2643 42.0785 13.9746 42.0785 13.6133V8.42285ZM50.8135 12.3486H48.9629V11.377H50.8135C51.1357 11.377 51.3962 11.3249 51.5947 11.2207C51.7933 11.1165 51.9382 10.9733 52.0293 10.791C52.1237 10.6055 52.1709 10.3939 52.1709 10.1562C52.1709 9.93164 52.1237 9.72168 52.0293 9.52637C51.9382 9.3278 51.7933 9.16829 51.5947 9.04785C51.3962 8.92741 51.1357 8.86719 50.8135 8.86719H49.3389V15H48.1133V7.89062H50.8135C51.3636 7.89062 51.8307 7.98828 52.2148 8.18359C52.6022 8.37565 52.8968 8.64258 53.0986 8.98438C53.3005 9.32292 53.4014 9.71029 53.4014 10.1465C53.4014 10.6055 53.3005 10.9993 53.0986 11.3281C52.8968 11.6569 52.6022 11.9092 52.2148 12.085C51.8307 12.2607 51.3636 12.3486 50.8135 12.3486ZM54.2898 12.417V12.3047C54.2898 11.9238 54.3452 11.5706 54.4559 11.2451C54.5665 10.9163 54.726 10.6315 54.9344 10.3906C55.146 10.1465 55.4031 9.95768 55.7059 9.82422C56.0118 9.6875 56.3569 9.61914 56.741 9.61914C57.1284 9.61914 57.4734 9.6875 57.7762 9.82422C58.0822 9.95768 58.341 10.1465 58.5525 10.3906C58.7641 10.6315 58.9253 10.9163 59.0359 11.2451C59.1466 11.5706 59.202 11.9238 59.202 12.3047V12.417C59.202 12.7979 59.1466 13.151 59.0359 13.4766C58.9253 13.8021 58.7641 14.0869 58.5525 14.3311C58.341 14.5719 58.0838 14.7607 57.7811 14.8975C57.4783 15.0309 57.1349 15.0977 56.7508 15.0977C56.3634 15.0977 56.0167 15.0309 55.7107 14.8975C55.408 14.7607 55.1508 14.5719 54.9393 14.3311C54.7277 14.0869 54.5665 13.8021 54.4559 13.4766C54.3452 13.151 54.2898 12.7979 54.2898 12.417ZM55.4666 12.3047V12.417C55.4666 12.6546 55.491 12.8792 55.5398 13.0908C55.5887 13.3024 55.6652 13.488 55.7693 13.6475C55.8735 13.807 56.007 13.9323 56.1697 14.0234C56.3325 14.1146 56.5262 14.1602 56.7508 14.1602C56.9689 14.1602 57.1577 14.1146 57.3172 14.0234C57.4799 13.9323 57.6134 13.807 57.7176 13.6475C57.8217 13.488 57.8982 13.3024 57.9471 13.0908C57.9992 12.8792 58.0252 12.6546 58.0252 12.417V12.3047C58.0252 12.0703 57.9992 11.849 57.9471 11.6406C57.8982 11.429 57.8201 11.2419 57.7127 11.0791C57.6085 10.9163 57.4751 10.7894 57.3123 10.6982C57.1528 10.6038 56.9624 10.5566 56.741 10.5566C56.5197 10.5566 56.3276 10.6038 56.1648 10.6982C56.0053 10.7894 55.8735 10.9163 55.7693 11.0791C55.6652 11.2419 55.5887 11.429 55.5398 11.6406C55.491 11.849 55.4666 12.0703 55.4666 12.3047ZM61.5699 10.7324V17.0312H60.3932V9.7168H61.4771L61.5699 10.7324ZM65.0123 12.3096V12.4121C65.0123 12.7962 64.9667 13.1527 64.8756 13.4814C64.7877 13.807 64.6559 14.0918 64.4801 14.3359C64.3076 14.5768 64.0943 14.764 63.8404 14.8975C63.5865 15.0309 63.2936 15.0977 62.9615 15.0977C62.6327 15.0977 62.3447 15.0374 62.0973 14.917C61.8531 14.7933 61.6464 14.6191 61.4771 14.3945C61.3079 14.1699 61.1712 13.9062 61.067 13.6035C60.9661 13.2975 60.8945 12.9622 60.8521 12.5977V12.2021C60.8945 11.8148 60.9661 11.4632 61.067 11.1475C61.1712 10.8317 61.3079 10.5599 61.4771 10.332C61.6464 10.1042 61.8531 9.92839 62.0973 9.80469C62.3414 9.68099 62.6262 9.61914 62.9518 9.61914C63.2838 9.61914 63.5784 9.68424 63.8355 9.81445C64.0927 9.94141 64.3092 10.1237 64.485 10.3613C64.6607 10.5957 64.7926 10.8789 64.8805 11.2109C64.9684 11.5397 65.0123 11.9059 65.0123 12.3096ZM63.8355 12.4121V12.3096C63.8355 12.0654 63.8128 11.8392 63.7672 11.6309C63.7216 11.4193 63.65 11.2337 63.5523 11.0742C63.4547 10.9147 63.3294 10.791 63.1764 10.7031C63.0266 10.612 62.846 10.5664 62.6344 10.5664C62.426 10.5664 62.247 10.6022 62.0973 10.6738C61.9475 10.7422 61.8222 10.8382 61.7213 10.9619C61.6204 11.0856 61.5423 11.2305 61.4869 11.3965C61.4316 11.5592 61.3925 11.7367 61.3697 11.9287V12.876C61.4088 13.1104 61.4755 13.3252 61.5699 13.5205C61.6643 13.7158 61.7978 13.8721 61.9703 13.9893C62.1461 14.1032 62.3707 14.1602 62.6441 14.1602C62.8557 14.1602 63.0364 14.1146 63.1861 14.0234C63.3359 13.9323 63.4579 13.807 63.5523 13.6475C63.65 13.4847 63.7216 13.2975 63.7672 13.0859C63.8128 12.8743 63.8355 12.6497 63.8355 12.4121ZM69.392 13.7549V9.7168H70.5736V15H69.4604L69.392 13.7549ZM69.558 12.6562L69.9535 12.6465C69.9535 13.0013 69.9145 13.3285 69.8363 13.6279C69.7582 13.9242 69.6378 14.1829 69.475 14.4043C69.3122 14.6224 69.1039 14.7933 68.85 14.917C68.5961 15.0374 68.2917 15.0977 67.9369 15.0977C67.6798 15.0977 67.4437 15.0602 67.2289 14.9854C67.0141 14.9105 66.8285 14.7949 66.6723 14.6387C66.5193 14.4824 66.4005 14.279 66.3158 14.0283C66.2312 13.7777 66.1889 13.4782 66.1889 13.1299V9.7168H67.3656V13.1396C67.3656 13.3317 67.3884 13.4928 67.434 13.623C67.4796 13.75 67.5414 13.8525 67.6195 13.9307C67.6977 14.0088 67.7888 14.0641 67.893 14.0967C67.9971 14.1292 68.1078 14.1455 68.225 14.1455C68.5603 14.1455 68.824 14.0804 69.016 13.9502C69.2113 13.8167 69.3497 13.6377 69.4311 13.4131C69.5157 13.1885 69.558 12.9362 69.558 12.6562ZM73.2395 7.5V15H72.0578V7.5H73.2395ZM77.707 13.9404V11.4209C77.707 11.2321 77.6729 11.0693 77.6045 10.9326C77.5361 10.7959 77.432 10.6901 77.292 10.6152C77.1553 10.5404 76.9827 10.5029 76.7744 10.5029C76.5824 10.5029 76.4163 10.5355 76.2764 10.6006C76.1364 10.6657 76.0273 10.7536 75.9492 10.8643C75.8711 10.9749 75.832 11.1003 75.832 11.2402H74.6602C74.6602 11.0319 74.7106 10.8301 74.8115 10.6348C74.9124 10.4395 75.0589 10.2653 75.251 10.1123C75.443 9.95931 75.6725 9.83887 75.9395 9.75098C76.2064 9.66309 76.5059 9.61914 76.8379 9.61914C77.235 9.61914 77.5866 9.68587 77.8926 9.81934C78.2018 9.9528 78.4443 10.1546 78.6201 10.4248C78.7992 10.6917 78.8887 11.027 78.8887 11.4307V13.7793C78.8887 14.0202 78.9049 14.2367 78.9375 14.4287C78.9733 14.6175 79.0238 14.7819 79.0889 14.9219V15H77.8828C77.8275 14.873 77.7835 14.7119 77.751 14.5166C77.7217 14.318 77.707 14.126 77.707 13.9404ZM77.8779 11.7871L77.8877 12.5146H77.043C76.8249 12.5146 76.6328 12.5358 76.4668 12.5781C76.3008 12.6172 76.1624 12.6758 76.0518 12.7539C75.9411 12.832 75.8581 12.9264 75.8027 13.0371C75.7474 13.1478 75.7197 13.2731 75.7197 13.4131C75.7197 13.5531 75.7523 13.6816 75.8174 13.7988C75.8825 13.9128 75.9769 14.0023 76.1006 14.0674C76.2275 14.1325 76.3805 14.165 76.5596 14.165C76.8005 14.165 77.0104 14.1162 77.1895 14.0186C77.3717 13.9176 77.515 13.7956 77.6191 13.6523C77.7233 13.5059 77.7786 13.3675 77.7852 13.2373L78.166 13.7598C78.127 13.8932 78.0602 14.0365 77.9658 14.1895C77.8714 14.3424 77.7477 14.4889 77.5947 14.6289C77.445 14.7656 77.2643 14.8779 77.0527 14.9658C76.8444 15.0537 76.6035 15.0977 76.3301 15.0977C75.985 15.0977 75.6774 15.0293 75.4072 14.8926C75.137 14.7526 74.9255 14.5654 74.7725 14.3311C74.6195 14.0934 74.543 13.8249 74.543 13.5254C74.543 13.2454 74.5951 12.998 74.6992 12.7832C74.8066 12.5651 74.9629 12.3828 75.168 12.2363C75.3763 12.0898 75.6302 11.9792 75.9297 11.9043C76.2292 11.8262 76.571 11.7871 76.9551 11.7871H77.8779ZM81.5008 10.7227V15H80.324V9.7168H81.4471L81.5008 10.7227ZM83.117 9.68262L83.1072 10.7764C83.0356 10.7633 82.9575 10.7536 82.8729 10.7471C82.7915 10.7406 82.7101 10.7373 82.6287 10.7373C82.4269 10.7373 82.2495 10.7666 82.0965 10.8252C81.9435 10.8805 81.8149 10.9619 81.7107 11.0693C81.6098 11.1735 81.5317 11.3005 81.4764 11.4502C81.421 11.5999 81.3885 11.7676 81.3787 11.9531L81.1102 11.9727C81.1102 11.6406 81.1427 11.333 81.2078 11.0498C81.2729 10.7666 81.3706 10.5176 81.5008 10.3027C81.6342 10.0879 81.8003 9.92025 81.9988 9.7998C82.2007 9.67936 82.4334 9.61914 82.6971 9.61914C82.7687 9.61914 82.8452 9.62565 82.9266 9.63867C83.0112 9.65169 83.0747 9.66634 83.117 9.68262Z" fill="white"/>
<path d="M89 22H95V28L89 22Z" fill="black"/>
</g>
<defs>
<filter id="filter0_d_4379_83600" x="0" y="0" width="99" height="37" filterUnits="userSpaceOnUse" color-interpolation-filters="sRGB">
<feFlood flood-opacity="0" result="BackgroundImageFix"/>
<feColorMatrix in="SourceAlpha" type="matrix" values="0 0 0 0 0 0 0 0 0 0 0 0 0 0 0 0 0 0 127 0" result="hardAlpha"/>
<feOffset dy="4"/>
<feGaussianBlur stdDeviation="2"/>
<feComposite in2="hardAlpha" operator="out"/>
<feColorMatrix type="matrix" values="0 0 0 0 0 0 0 0 0 0 0 0 0 0 0 0 0 0 0.25 0"/>
<feBlend mode="normal" in2="BackgroundImageFix" result="effect1_dropShadow_4379_83600"/>
<feBlend mode="normal" in="SourceGraphic" in2="effect1_dropShadow_4379_83600" result="shape"/>
</filter>
<linearGradient id="paint0_linear_4379_83600" x1="4" y1="23.0073" x2="95" y2="23.0073" gradientUnits="userSpaceOnUse">
<stop stop-color="#D27209"/>
<stop offset="0.103993" stop-color="#DB9E00"/>
<stop offset="0.151042" stop-color="#FEF2DC"/>
<stop offset="0.199644" stop-color="#DB9F01"/>
<stop offset="0.344789" stop-color="#BF5E17"/>
<stop offset="0.482149" stop-color="#D89703"/>
<stop offset="0.550551" stop-color="#FDF1D7"/>
<stop offset="0.674563" stop-color="#DA9C01"/>
<stop offset="0.76799" stop-color="#BD5B18"/>
<stop offset="0.900345" stop-color="#FEEC95"/>
<stop offset="0.955956" stop-color="#DEA60E"/>
<stop offset="1" stop-color="#FDEB93"/>
</linearGradient>
<linearGradient id="paint1_linear_4379_83600" x1="87" y1="27.1365" x2="95" y2="27.1365" gradientUnits="userSpaceOnUse">
<stop stop-color="#D27209"/>
<stop offset="0.103993" stop-color="#DB9E00"/>
<stop offset="0.151042" stop-color="#FEF2DC"/>
<stop offset="0.199644" stop-color="#DB9F01"/>
<stop offset="0.344789" stop-color="#BF5E17"/>
<stop offset="0.482149" stop-color="#D89703"/>
<stop offset="0.550551" stop-color="#FDF1D7"/>
<stop offset="0.674563" stop-color="#DA9C01"/>
<stop offset="0.76799" stop-color="#BD5B18"/>
<stop offset="0.900345" stop-color="#FEEC95"/>
<stop offset="0.955956" stop-color="#DEA60E"/>
<stop offset="1" stop-color="#FDEB93"/>
</linearGradient>
<linearGradient id="paint2_linear_4379_83600" x1="4" y1="1.0073" x2="95" y2="1.00727" gradientUnits="userSpaceOnUse">
<stop stop-color="#D27209"/>
<stop offset="0.103993" stop-color="#DB9E00"/>
<stop offset="0.151042" stop-color="#FEF2DC"/>
<stop offset="0.199644" stop-color="#DB9F01"/>
<stop offset="0.344789" stop-color="#BF5E17"/>
<stop offset="0.482149" stop-color="#D89703"/>
<stop offset="0.550551" stop-color="#FDF1D7"/>
<stop offset="0.674563" stop-color="#DA9C01"/>
<stop offset="0.76799" stop-color="#BD5B18"/>
<stop offset="0.900345" stop-color="#FEEC95"/>
<stop offset="0.955956" stop-color="#DEA60E"/>
<stop offset="1" stop-color="#FDEB93"/>
</linearGradient>
</defs>
</svg>
