<svg width="12" height="13" viewBox="0 0 12 13" fill="none" xmlns="http://www.w3.org/2000/svg">
<path d="M0.67927 0.228798H7.97604L9.68507 1.72325V12.8561H0.777292C0.777292 12.8561 -0.0401482 12.7776 0.169354 11.3855C0.378856 9.99338 0.228269 0.659992 0.228269 0.659992C0.228269 0.659992 0.36489 0.0774488 0.67927 0.228544V0.228798Z" fill="#FDDE00"/>
<path d="M8.26201 0C8.76812 0.50763 9.27244 1.01678 9.7816 1.52111C9.87251 1.61126 9.9106 1.70471 9.91035 1.83346C9.90628 3.11765 9.90781 4.40158 9.90781 5.68576C9.90781 5.72386 9.9106 6.77797 9.90578 6.81555C9.89282 6.9184 9.80242 6.74724 9.70694 6.73607C9.60435 6.72388 9.53502 6.66827 9.52766 6.55729C9.52461 6.51108 9.52537 5.70252 9.52537 5.65605C9.52537 4.41834 9.5241 3.18063 9.5274 1.94317C9.5274 1.84616 9.49794 1.77937 9.42989 1.71233C9.0119 1.29993 8.59721 0.88448 8.1843 0.466746C8.12361 0.405292 8.06393 0.377612 7.97582 0.377866C5.64844 0.380405 3.3208 0.379643 0.993422 0.379897C0.591939 0.379897 0.379136 0.59524 0.379136 1.00028C0.379136 4.65831 0.379136 8.31635 0.379136 11.9744C0.379136 12.3662 0.589908 12.5816 0.977169 12.5818C2.28243 12.5828 3.58769 12.5821 4.89296 12.5821C4.93435 12.5821 4.97549 12.5821 5.0245 12.5821V11.4033C4.84877 11.4033 4.67736 11.4033 4.5057 11.4033C4.36628 11.4033 4.22687 11.4048 4.08745 11.4028C3.95337 11.4007 3.86449 11.3238 3.86221 11.2128C3.85992 11.1001 3.94499 11.0221 4.08136 11.0211C4.34749 11.0188 4.61362 11.0203 4.87975 11.0203C4.92495 11.0203 4.97016 11.0203 5.02374 11.0203V10.6425C4.97828 10.6397 4.9341 10.6346 4.88991 10.6343C4.6154 10.6333 4.34063 10.6366 4.06638 10.6313C3.94525 10.629 3.86703 10.5498 3.86297 10.4467C3.85916 10.3492 3.9328 10.2643 4.03946 10.2476C4.07247 10.2425 4.10675 10.2443 4.14053 10.2443C4.38964 10.2443 4.63902 10.2443 4.88813 10.2443C4.92978 10.2443 4.97168 10.2443 5.02272 10.2443V8.67085C4.73018 8.67085 4.44424 8.67085 4.15805 8.67085C3.9521 8.67085 3.86017 8.61118 3.86221 8.47938C3.86424 8.34936 3.95921 8.28943 4.16262 8.28918C4.44526 8.28918 4.72815 8.28918 5.02145 8.28918V7.90573C4.83303 7.90573 4.64486 7.90573 4.45669 7.90573C4.32997 7.90573 4.20325 7.90801 4.07653 7.90497C3.95159 7.90192 3.86576 7.82396 3.86246 7.71705C3.85916 7.60354 3.94372 7.52481 4.07983 7.52354C4.37136 7.52126 4.66289 7.52684 4.95416 7.51872C5.00469 7.51745 5.07351 7.47834 5.10043 7.43568C5.2627 7.17894 5.41913 6.91865 5.56921 6.65455C5.64869 6.51463 5.75839 6.4481 5.91761 6.4481C7.34528 6.44911 8.77319 6.44886 10.2009 6.4481C10.3542 6.4481 10.4639 6.51031 10.5416 6.64567C10.6968 6.91662 10.8624 7.18148 11.0165 7.45269C11.0521 7.51542 11.0762 7.59439 11.0764 7.66601C11.0798 9.30063 11.0795 10.9355 11.0785 12.5701C11.0785 12.832 10.9304 12.9754 10.6684 12.9754C8.9281 12.9757 7.18783 12.9762 5.44731 12.9754C3.95616 12.9749 2.46527 12.9731 0.974122 12.9711C0.478935 12.9703 0.110973 12.6829 0.0149826 12.2199C0.000507884 12.1506 0.000507884 12.0775 0.000253942 12.0059C0 8.32295 0 4.63952 0 0.956092C0 0.481982 0.256989 0.147286 0.714847 0.021839C0.730592 0.017522 0.745066 0.00736432 0.760049 0C3.26062 0 5.76144 0 8.26201 0ZM5.41963 12.5884H10.6879V7.81278H8.95146C8.95146 7.86662 8.95146 7.91208 8.95146 7.95778C8.95146 8.4644 8.95095 8.97101 8.95172 9.47788C8.95172 9.56651 8.93902 9.64853 8.85065 9.69322C8.75974 9.73944 8.68127 9.70872 8.60534 9.65082C8.43799 9.52334 8.26836 9.39916 8.09822 9.27244C7.92985 9.39764 7.76682 9.5175 7.60557 9.6399C7.52761 9.69932 7.44711 9.74147 7.34959 9.69576C7.24827 9.64802 7.2437 9.55483 7.24395 9.45833C7.24522 8.95578 7.24446 8.45348 7.24446 7.95093C7.24446 7.90598 7.24446 7.86078 7.24446 7.8044C7.17895 7.8044 7.12917 7.8044 7.0794 7.8044C6.78381 7.8044 6.48822 7.80618 6.19263 7.80339C6.06668 7.80237 5.9844 7.72365 5.98237 7.6142C5.98059 7.50932 6.05881 7.42984 6.17537 7.42324C6.24266 7.41943 6.31046 7.42146 6.37801 7.42146C6.67284 7.42146 6.96741 7.42146 7.26808 7.42146C7.29881 7.22465 7.32776 7.03928 7.3567 6.85415C7.33055 6.84653 7.31887 6.84019 7.30693 6.84019C6.86355 6.83942 6.42017 6.83714 5.97704 6.84196C5.93869 6.84247 5.88714 6.88183 5.86479 6.91764C5.73274 7.12841 5.60323 7.34096 5.48236 7.55833C5.44579 7.62436 5.42192 7.70714 5.42167 7.78231C5.41836 9.33618 5.41913 10.8898 5.41913 12.4437C5.41913 12.4894 5.41913 12.5351 5.41913 12.5882L5.41963 12.5884ZM7.63706 7.80974V9.13455C7.74625 9.0538 7.84046 8.98371 7.93493 8.91413C8.06876 8.8156 8.12767 8.8156 8.26353 8.91515C8.35978 8.98574 8.455 9.0571 8.55887 9.13404V7.80974H7.63706ZM10.547 7.41384C10.4459 7.24218 10.3494 7.08575 10.261 6.92449C10.2229 6.85517 10.1757 6.83612 10.0995 6.83663C9.711 6.84044 9.32247 6.83815 8.93419 6.83866C8.8989 6.83866 8.8636 6.84425 8.82322 6.8478C8.85852 7.04537 8.89178 7.23024 8.92607 7.42095C9.45325 7.42095 9.96799 7.42095 10.4827 7.42095C10.498 7.42095 10.5132 7.41765 10.5472 7.41384H10.547ZM8.52839 7.41155C8.49538 7.21831 8.46338 7.03115 8.43139 6.84349H7.75032C7.72111 7.03369 7.69242 7.2211 7.66169 7.42121C7.92909 7.42121 8.17643 7.42146 8.42402 7.42095C8.45272 7.42095 8.48141 7.41587 8.52839 7.41155Z" fill="black"/>
<path d="M2.89952 1.46626C3.00592 1.35453 3.10267 1.24889 3.20399 1.14782C3.30735 1.04497 3.41959 1.03913 3.50314 1.12598C3.58033 1.20622 3.57221 1.32024 3.478 1.41801C3.38734 1.51222 3.29592 1.60618 3.19968 1.6943C3.14838 1.74153 3.14178 1.77963 3.17022 1.84565C3.45565 2.51073 3.08718 3.22583 2.38274 3.38048C1.79538 3.50923 1.20978 3.1146 1.08256 2.50438C0.962953 1.92996 1.35656 1.33574 1.93149 1.21841C2.28523 1.14629 2.59809 1.23492 2.89952 1.46652V1.46626ZM2.60291 1.73138C2.29259 1.5008 1.89314 1.53483 1.63793 1.81035C1.38373 2.08461 1.38043 2.49625 1.6298 2.77787C1.87461 3.05416 2.2931 3.09733 2.59275 2.87691C2.85381 2.68493 2.9663 2.30833 2.82232 2.06506C2.66614 2.22428 2.51302 2.38096 2.35938 2.53663C2.27812 2.6189 2.18187 2.64455 2.08766 2.57015C2.00539 2.50514 1.93047 2.42819 1.86419 2.34693C1.80122 2.26973 1.80553 2.17958 1.8741 2.10442C1.94241 2.02976 2.02722 2.02112 2.11509 2.07141C2.14683 2.08944 2.17476 2.11432 2.20168 2.13388C2.33754 1.99776 2.46807 1.86673 2.60291 1.73163V1.73138Z" fill="black"/>
<path d="M2.90838 4.31245C3.00487 4.20681 3.09807 4.09863 3.19787 3.9968C3.3058 3.88685 3.40737 3.87847 3.49625 3.96303C3.58412 4.04683 3.57294 4.16212 3.46603 4.27258C3.45435 4.28477 3.44216 4.29645 3.43048 4.30839C3.34109 4.39803 3.21082 4.47396 3.17476 4.58138C3.14327 4.67534 3.22123 4.80408 3.24561 4.91861C3.37284 5.51944 2.96983 6.11849 2.36672 6.22819C1.75523 6.33942 1.17878 5.92854 1.07263 5.30562C0.973337 4.72308 1.39463 4.14917 1.9858 4.05216C2.29028 4.00239 2.56149 4.07375 2.81162 4.24516C2.83524 4.26141 2.85911 4.27766 2.90863 4.31169L2.90838 4.31245ZM2.59247 4.56639C2.30222 4.34851 1.90632 4.3767 1.64908 4.64182C1.39285 4.90592 1.37634 5.31298 1.61022 5.59892C1.83623 5.87496 2.24483 5.94124 2.54778 5.75103C2.83626 5.56997 2.96602 5.19592 2.83143 4.91379C2.79944 4.9435 2.76871 4.97042 2.73951 4.99937C2.61101 5.12735 2.48379 5.25686 2.35427 5.38409C2.27124 5.46586 2.17398 5.48313 2.08154 5.40872C2.00307 5.34574 1.93197 5.27159 1.86721 5.19414C1.80297 5.11745 1.80322 5.02857 1.87052 4.95188C1.94162 4.87087 2.02974 4.86478 2.12116 4.91887C2.14909 4.93537 2.17347 4.95797 2.19378 4.97372C2.3304 4.8343 2.46195 4.69971 2.59222 4.56665L2.59247 4.56639Z" fill="black"/>
<path d="M1.06451 10.8243C1.06451 10.2148 1.55462 9.72193 2.16332 9.71889C2.7738 9.71584 3.27 10.2153 3.26848 10.8312C3.26695 11.436 2.76593 11.9348 2.16256 11.932C1.55589 11.9292 1.06426 11.4332 1.06451 10.8243ZM2.1745 10.1082C1.77047 10.1059 1.44543 10.4236 1.4439 10.8223C1.44263 11.2146 1.76235 11.5369 2.15774 11.5414C2.55795 11.5463 2.8868 11.2243 2.88858 10.8261C2.8901 10.4332 2.56912 10.1105 2.1745 10.1082Z" fill="black"/>
<path d="M2.16841 6.99509C2.77864 6.99559 3.26824 7.48545 3.26849 8.09593C3.26849 8.71148 2.77508 9.20159 2.15749 9.19931C1.55057 9.19727 1.06326 8.7031 1.06427 8.0911C1.06529 7.48139 1.5559 6.99458 2.16841 6.99509ZM2.16765 7.37473C1.77709 7.37372 1.44899 7.69724 1.44392 8.08831C1.43884 8.48217 1.76947 8.81814 2.16384 8.81941C2.55694 8.82093 2.89164 8.48497 2.88834 8.09212C2.88504 7.70155 2.55771 7.37575 2.16765 7.37499V7.37473Z" fill="black"/>
<path d="M5.41963 12.5884C5.41963 12.5354 5.41963 12.4896 5.41963 12.4439C5.41963 10.8901 5.41887 9.33644 5.42217 7.78257C5.42217 7.7074 5.44604 7.62462 5.48286 7.55859C5.60374 7.34122 5.73325 7.12867 5.8653 6.9179C5.88765 6.88209 5.9392 6.84248 5.97754 6.84222C6.42093 6.8374 6.86405 6.83943 7.30744 6.84044C7.31937 6.84044 7.33105 6.84679 7.35721 6.85441C7.32826 7.03954 7.29931 7.22491 7.26858 7.42172C6.96792 7.42172 6.67334 7.42172 6.37852 7.42172C6.31097 7.42172 6.24317 7.41969 6.17587 7.4235C6.05931 7.4301 5.9811 7.50958 5.98288 7.61446C5.98465 7.72391 6.06718 7.80263 6.19314 7.80365C6.48873 7.80619 6.78432 7.80466 7.07991 7.80466C7.12968 7.80466 7.17945 7.80466 7.24497 7.80466C7.24497 7.86129 7.24497 7.90624 7.24497 7.95119C7.24497 8.45374 7.24548 8.95604 7.24446 9.45859C7.24446 9.55509 7.24878 9.64854 7.3501 9.69602C7.44761 9.74173 7.52811 9.69958 7.60607 9.64016C7.76707 9.5175 7.93036 9.3979 8.09872 9.2727C8.26886 9.39942 8.4385 9.5236 8.60584 9.65108C8.68177 9.70897 8.76024 9.7397 8.85115 9.69348C8.93952 9.64854 8.95222 9.56677 8.95222 9.47814C8.95146 8.97153 8.95197 8.46491 8.95197 7.95804C8.95197 7.91259 8.95197 7.86688 8.95197 7.81304H10.6884V12.5887H5.41963V12.5884Z" fill="white"/>
<path d="M7.63702 7.80974H8.55883V9.13405C8.45497 9.0571 8.35974 8.98574 8.2635 8.91515C8.12789 8.8156 8.06873 8.8156 7.9349 8.91413C7.84043 8.98371 7.74622 9.0538 7.63702 9.13455V7.80974Z" fill="#FDDE00"/>
<path d="M10.547 7.41358C10.513 7.41739 10.4977 7.42069 10.4825 7.42069C9.96777 7.42095 9.45303 7.42069 8.92584 7.42069C8.89156 7.22998 8.85855 7.04511 8.823 6.84754C8.86337 6.84399 8.89867 6.8384 8.93397 6.8384C9.3225 6.8379 9.71103 6.83993 10.0993 6.83637C10.1752 6.83561 10.2227 6.85466 10.2608 6.92424C10.3492 7.08549 10.4457 7.24192 10.5468 7.41358H10.547Z" fill="white"/>
<path d="M8.52839 7.41156C8.48141 7.41588 8.45271 7.4207 8.42402 7.42096C8.17642 7.42146 7.92908 7.42121 7.66168 7.42121C7.69241 7.2211 7.72111 7.03369 7.75031 6.84349H8.43138C8.46338 7.03115 8.49537 7.21831 8.52839 7.41156Z" fill="#FDDE00"/>
<path d="M2.60285 1.73138C2.46801 1.86648 2.33748 1.99751 2.20162 2.13362C2.1747 2.11382 2.14677 2.08918 2.11503 2.07115C2.02716 2.02113 1.94235 2.02951 1.87404 2.10417C1.80547 2.17908 1.80116 2.26948 1.86413 2.34668C1.93041 2.42794 2.00533 2.50514 2.0876 2.5699C2.18182 2.6443 2.27806 2.61891 2.35932 2.53637C2.51321 2.38045 2.66608 2.22403 2.82226 2.0648C2.96624 2.30833 2.85349 2.68468 2.59269 2.87666C2.29304 3.09708 1.87455 3.05416 1.62975 2.77762C1.38037 2.49574 1.38368 2.08436 1.63787 1.8101C1.89308 1.53457 2.29279 1.50054 2.60285 1.73112V1.73138Z" fill="white"/>
<path d="M2.59275 4.56639C2.46247 4.69971 2.33068 4.83404 2.19431 4.97346C2.17399 4.95797 2.14962 4.93537 2.12168 4.91861C2.03026 4.86477 1.94215 4.87061 1.87104 4.95162C1.80375 5.02831 1.80349 5.11719 1.86774 5.19388C1.9325 5.27133 2.0036 5.34548 2.08207 5.40846C2.17476 5.48287 2.27176 5.46534 2.3548 5.38383C2.48431 5.2566 2.61154 5.12709 2.74003 4.99911C2.76898 4.97016 2.79996 4.94324 2.83196 4.91353C2.96655 5.19566 2.83653 5.56946 2.54831 5.75078C2.24535 5.94098 1.83651 5.8747 1.61075 5.59866C1.37687 5.31273 1.39338 4.90566 1.6496 4.64156C1.90685 4.37644 2.30274 4.34825 2.593 4.56614L2.59275 4.56639Z" fill="white"/>
<path d="M2.1745 10.1082C2.56913 10.1105 2.89011 10.4335 2.88859 10.8261C2.88681 11.224 2.55796 11.546 2.15774 11.5414C1.76236 11.5366 1.44264 11.2143 1.44391 10.8223C1.44518 10.4238 1.77048 10.1059 2.1745 10.1082Z" fill="white"/>
<path d="M2.16764 7.37498C2.5577 7.376 2.88528 7.7018 2.88833 8.09211C2.89163 8.48496 2.55693 8.82093 2.16383 8.8194C1.76946 8.81788 1.43883 8.48217 1.44391 8.0883C1.44898 7.69749 1.77708 7.37396 2.16764 7.37473V7.37498Z" fill="white"/>
</svg>
