<svg width="33" height="33" viewBox="0 0 33 33" fill="none" xmlns="http://www.w3.org/2000/svg">
<path fill-rule="evenodd" clip-rule="evenodd" d="M16.5 0L20.1337 2.94775L24.7562 2.20618L26.4185 6.58146L30.7938 8.24382L30.0522 12.8663L33 16.5L30.0522 20.1337L30.7938 24.7562L26.4185 26.4185L24.7562 30.7938L20.1337 30.0522L16.5 33L12.8663 30.0522L8.24382 30.7938L6.58146 26.4185L2.20618 24.7562L2.94775 20.1337L0 16.5L2.94775 12.8663L2.20618 8.24382L6.58146 6.58146L8.24382 2.20618L12.8663 2.94775L16.5 0ZM16.5 10.6169L18.1994 14.7697L22.6798 15.1034L19.2562 18.0017L20.3253 22.3646L16.5062 19.9978L12.6871 22.3646L13.7562 18.0079L10.3202 15.1096L14.8006 14.7758L16.5 10.623V10.6169ZM16.5 7.17472C21.6478 7.17472 25.8191 11.3522 25.8191 16.4938C25.8191 21.6416 21.6416 25.8129 16.5 25.8129C11.3522 25.8129 7.1809 21.6354 7.1809 16.4938C7.1809 11.3522 11.3522 7.17472 16.5 7.17472Z" fill="black"/>
</svg>
