<svg width="43" height="44" viewBox="0 0 43 44" fill="none" xmlns="http://www.w3.org/2000/svg">
<path d="M22.0563 0C22.2514 0.0780329 22.4511 0.148033 22.6416 0.236394C23.7822 0.763115 24.3262 1.68689 24.3996 2.95263C24.6555 2.98246 24.9126 2.99049 25.1581 3.04443C26.5168 3.34164 27.4337 4.49148 27.4521 5.92935C27.4647 6.95984 27.4624 7.99148 27.4498 9.02198C27.4463 9.27558 27.5117 9.4305 27.7332 9.57738C28.3495 9.98476 28.6558 10.5895 28.6627 11.3205C28.6765 13.0097 28.6811 14.7 28.6627 16.3892C28.6467 17.8466 27.4819 19.0699 25.9981 19.0262C25.048 18.9976 24.4065 19.2144 23.8981 20.0556C23.6067 20.5376 23.0834 20.8899 22.6335 21.2651C22.0816 21.7241 21.9186 22.26 22.1929 22.9348C22.2296 23.0254 22.2881 23.1058 22.3501 23.2136C23.1717 22.6444 23.9578 22.7707 24.7026 23.3249C25.5781 23.9756 26.5949 24.3049 27.6058 24.6584C27.9685 24.7846 28.3196 24.9522 28.6604 25.13C29.0127 25.3136 29.1252 25.6808 28.9634 26.0033C28.8062 26.3189 28.4504 26.4348 28.0844 26.2879C27.5014 26.0549 26.9139 25.8323 26.339 25.5822C26.0647 25.4628 25.8994 25.5477 25.7055 25.7451C24.5603 26.9087 23.4001 28.0563 22.2503 29.2153C21.7809 29.6881 21.2508 29.9646 20.5588 29.8476C20.4739 29.8326 20.3293 29.9302 20.2742 30.0151C20.0722 30.3261 19.868 30.6428 19.7211 30.9813C19.643 31.1615 19.6362 31.3979 19.6706 31.5964C20.1996 34.6213 20.7458 37.6428 21.2737 40.6677C21.3185 40.9259 21.4183 40.9925 21.6627 40.9902C22.7506 40.9799 23.8396 40.9787 24.9275 40.9902C25.4542 40.9948 25.7985 41.4618 25.5575 41.8795C25.4508 42.0643 25.1788 42.2238 24.9596 42.2594C24.5832 42.3214 24.1896 42.2789 23.8029 42.2789C17.1299 42.2789 10.4558 42.28 3.78287 42.2789C2.02713 42.2789 0.721226 41.3941 0.21057 39.8725C0.152045 39.6969 0.0831925 39.5156 0.0751597 39.3343C-0.010906 37.1471 -0.149759 34.9495 0.49516 32.8151C1.81828 28.443 4.7009 25.62 9.03861 24.2223C9.66402 24.0203 10.2309 23.6222 10.8058 23.2825C11.7571 22.7213 12.1003 22.6938 13.1181 23.193C13.4337 22.7122 13.3189 22.1762 13.3006 21.661C13.2983 21.591 13.1755 21.5164 13.0963 21.4613C11.2821 20.2071 10.2103 18.4892 9.84648 16.3158C9.82812 16.2056 9.6491 16.0656 9.52517 16.0426C9.26124 15.9933 8.98238 16.0312 8.71271 16.0002C7.61681 15.8728 6.82385 15.0408 6.78599 13.9346C6.75615 13.0476 6.75959 12.1594 6.78828 11.2723C6.81123 10.5608 7.12107 9.9664 7.72582 9.57509C7.95877 9.42476 8.00238 9.25952 8.00353 9.01394C8.00812 7.94099 7.97828 6.86345 8.05517 5.79509C8.25484 2.95607 10.4696 0.564591 13.2719 0.0895083C13.3671 0.0734427 13.4566 0.0298361 13.5485 0C16.384 0 19.2196 0 22.0552 0H22.0563ZM15.0598 29.8074C14.307 29.9899 13.7321 29.7454 13.2329 29.244C12.0727 28.0758 10.9057 26.9145 9.74665 25.7451C9.57337 25.5707 9.42878 25.4708 9.15337 25.5649C4.98664 26.9948 2.37139 29.843 1.54631 34.1692C1.26287 35.6541 1.36844 37.2159 1.33975 38.7445C1.3191 39.8954 2.12123 40.8559 3.26074 40.9512C4.29467 41.0384 5.34123 40.9695 6.42795 40.9695C6.42795 40.7917 6.42795 40.6379 6.42795 40.4841C6.42795 39.6682 6.42107 38.8523 6.4314 38.0364C6.43713 37.6153 6.71254 37.3204 7.07058 37.3089C7.42861 37.2974 7.70746 37.582 7.73271 38.0054C7.74763 38.2625 7.73959 38.5207 7.73959 38.7777C7.73959 39.5041 7.73959 40.2305 7.73959 40.9627H14.1165C14.2324 40.3143 14.3471 39.6843 14.4573 39.0543C14.906 36.509 15.3558 33.9638 15.7976 31.4174C15.8206 31.2877 15.816 31.1259 15.7563 31.0146C15.5429 30.6118 15.3019 30.224 15.0575 29.8074H15.0598ZM10.9975 12.6161C11.056 13.8566 11.0032 15.0994 11.1925 16.3043C11.7835 20.0544 15.7563 22.2761 19.1955 21.4648C20.1881 21.2307 21.0981 20.8233 21.9852 20.0969C21.5778 20.0969 21.2829 20.1095 20.988 20.0946C20.1227 20.0499 19.3688 19.3212 19.308 18.4846C19.2391 17.5344 19.8003 16.6061 20.6793 16.5441C21.8291 16.4638 23.0444 16.1643 24.1219 16.9882C24.566 15.5159 24.3273 14.0471 24.3927 12.6012C23.2406 12.4325 22.839 11.9643 22.839 10.8661C22.839 10.0502 22.8481 9.23312 22.8355 8.41722C22.8229 7.64951 22.3444 7.01148 21.595 6.87951C21.175 6.80492 20.7217 6.86689 20.2891 6.92083C19.4422 7.02755 18.5965 7.29148 17.7553 7.26853C16.7535 7.24099 15.7552 6.99542 14.7614 6.81755C13.5611 6.60181 12.6098 7.36033 12.6017 8.57099C12.5971 9.32952 12.6017 10.0892 12.6017 10.8477C12.6017 11.9815 12.2311 12.4176 10.9986 12.6161H10.9975ZM11.3096 11.3182C11.3096 11.0703 11.3096 10.9177 11.3096 10.7662C11.3107 9.95034 11.3096 9.13443 11.3153 8.31853C11.3199 7.71148 11.5253 7.16984 11.8857 6.68787C12.6637 5.64591 13.9742 5.23623 15.3937 5.63099C16.4804 5.93279 17.5729 6.11755 18.6952 5.9282C19.2712 5.83066 19.8347 5.66541 20.4073 5.55066C22.3914 5.15017 24.0611 6.45148 24.1368 8.47116C24.1655 9.24345 24.1403 10.0169 24.1437 10.7903C24.1437 10.9407 24.1632 11.0898 24.1793 11.3033C24.7473 11.1025 25.2706 10.9567 25.7526 10.7261C25.9281 10.6423 26.106 10.3554 26.1094 10.158C26.1358 8.66968 26.1427 7.18132 26.1037 5.69296C26.0842 4.91722 25.4152 4.33082 24.6303 4.29066C23.6342 4.24017 23.1694 3.80181 23.0811 2.83099C22.9973 1.91754 22.357 1.29557 21.4401 1.29213C19.0498 1.2818 16.6583 1.26115 14.268 1.29902C11.8455 1.33803 9.73746 3.08574 9.43451 5.47722C9.23484 7.05624 9.34386 8.67427 9.34501 10.2751C9.34501 10.43 9.52632 10.6572 9.68009 10.7249C10.1724 10.9418 10.6911 11.1002 11.3085 11.3194L11.3096 11.3182ZM15.4453 40.9592H20.0022C19.4514 37.8597 18.9063 34.7889 18.3624 31.7204H17.084C16.5378 34.8027 15.995 37.8643 15.4465 40.9592H15.4453ZM14.2875 23.9653C15.3409 24.6343 16.4345 25.3331 17.5362 26.0194C17.6222 26.0733 17.7932 26.0905 17.8735 26.04C18.9889 25.3492 20.094 24.6435 21.1658 23.9641C21.0109 23.4122 20.8675 22.8981 20.7171 22.3622C18.7262 23.1367 16.7076 23.1264 14.7339 22.3564C14.5835 22.8981 14.4412 23.4133 14.2886 23.9641L14.2875 23.9653ZM10.7255 24.8913C11.9121 26.0744 13.0871 27.261 14.2875 28.42C14.3919 28.521 14.7304 28.529 14.8544 28.4372C15.4465 27.9954 16.003 27.5043 16.6124 26.9982C16.446 26.8881 16.3209 26.8008 16.1912 26.7194C15.1791 26.0767 14.1647 25.4376 13.1537 24.7926C12.3428 24.2755 11.5334 24.3084 10.7255 24.8913ZM24.7531 24.8867C24.3996 24.6687 24.0875 24.4954 23.7983 24.2912C23.5367 24.1076 23.3163 24.1328 23.0558 24.3026C22.0747 24.9407 21.0821 25.5626 20.0929 26.1904C19.6855 26.4497 19.2793 26.709 18.8329 26.9948C19.4388 27.4997 19.9919 27.9931 20.5852 28.4315C20.7137 28.5256 21.0683 28.5061 21.1831 28.3959C22.3811 27.2507 23.5504 26.0767 24.7519 24.8867H24.7531ZM17.7232 27.7705C17.1953 28.2135 16.6858 28.6404 16.158 29.0833C16.3932 29.4907 16.6032 29.8774 16.8373 30.2492C16.9911 30.4913 18.4645 30.4822 18.6183 30.2377C18.8524 29.8659 19.0635 29.4792 19.2953 29.0799C18.7675 28.6404 18.2557 28.2135 17.7244 27.7705H17.7232ZM25.7067 14.7058H26.2116C27.1067 14.7058 27.3649 14.4521 27.3672 13.5685C27.3683 12.8984 27.3717 12.2271 27.3637 11.5569C27.3614 11.3905 27.3201 11.2253 27.2822 10.9521C26.9449 11.5856 26.4939 11.8839 25.9511 12.0756C25.8535 12.11 25.7181 12.2317 25.717 12.3154C25.6986 13.0969 25.7067 13.8784 25.7067 14.7058ZM8.1332 11.0738C8.1332 12.0905 8.10451 13.1084 8.15845 14.1217C8.16877 14.3156 8.47287 14.5921 8.69205 14.6541C9.01451 14.7448 9.38173 14.6771 9.75468 14.6771C9.75468 13.9438 9.75468 13.261 9.75468 12.5771C9.75468 12.5059 9.77763 12.4233 9.74894 12.3659C9.6996 12.2661 9.63648 12.1295 9.54697 12.0985C8.98124 11.8989 8.50386 11.5936 8.1332 11.0726V11.0738ZM25.3142 17.6744C26.6557 17.9602 27.6322 17.08 27.3063 15.9439C26.8462 15.9715 26.3929 15.9876 25.9431 16.0346C25.8329 16.0461 25.6642 16.1402 25.6401 16.2274C25.5104 16.7036 25.4186 17.1902 25.3142 17.6733V17.6744ZM21.9565 17.7766C21.6857 17.7766 21.4149 17.7743 21.144 17.7766C20.8227 17.7789 20.6196 17.9453 20.6012 18.2597C20.5829 18.5821 20.794 18.7772 21.0981 18.7899C21.6673 18.8151 22.2399 18.8174 22.808 18.7899C23.1121 18.7749 23.306 18.5741 23.2796 18.2436C23.2555 17.9395 23.0685 17.7869 22.7701 17.78C22.4993 17.7731 22.2285 17.7789 21.9576 17.7777L21.9565 17.7766Z" fill="black"/>
<path d="M42.203 35.1834C42.1698 40.2407 37.9686 44.1033 33.1065 43.9977C28.4039 43.8956 24.4896 39.8918 24.5286 35.102C24.5688 30.2111 28.553 26.2716 33.4232 26.3049C38.2693 26.3382 42.2432 30.3569 42.203 35.1823V35.1834ZM33.3865 27.6269C29.2794 27.6062 25.8563 30.9467 25.8311 35.001C25.8035 39.2629 29.1371 42.6826 33.336 42.6987C37.4637 42.7148 40.865 39.3479 40.888 35.2224C40.9109 31.0179 37.583 27.6475 33.3876 27.6269H33.3865Z" fill="black"/>
<path d="M15.0589 29.8074C15.3034 30.2239 15.5443 30.6118 15.7578 31.0146C15.8163 31.1259 15.8209 31.2877 15.7991 31.4174C15.3573 33.9638 14.9075 36.509 14.4588 39.0543C14.3475 39.6843 14.2338 40.3143 14.1179 40.9626H7.74105C7.74105 40.2305 7.74105 39.5041 7.74105 38.7777C7.74105 38.5195 7.75023 38.2613 7.73417 38.0054C7.70892 37.582 7.43007 37.2974 7.07203 37.3089C6.714 37.3203 6.43859 37.6141 6.43285 38.0364C6.42138 38.8523 6.42941 39.6682 6.42941 40.4841C6.42941 40.6379 6.42941 40.7916 6.42941 40.9695C5.34269 40.9695 4.29613 41.0384 3.2622 40.9512C2.12269 40.8548 1.32055 39.8954 1.34121 38.7444C1.3699 37.2171 1.26432 35.6541 1.54777 34.1692C2.37285 29.843 4.9881 26.9948 9.15482 25.5649C9.43023 25.4708 9.57482 25.5695 9.7481 25.7451C10.9071 26.9144 12.0742 28.0757 13.2343 29.2439C13.7324 29.7466 14.3073 29.9898 15.0612 29.8074H15.0589Z" fill="#FDDE00"/>
<path d="M10.9992 12.6164C12.2317 12.4167 12.6023 11.9818 12.6023 10.848C12.6023 10.0895 12.5977 9.32979 12.6023 8.57127C12.6103 7.36061 13.5617 6.60208 14.762 6.81782C15.7569 6.99684 16.7541 7.24126 17.7559 7.26881C18.5959 7.29176 19.4417 7.02782 20.2897 6.9211C20.7212 6.86717 21.1744 6.8052 21.5956 6.87979C22.3461 7.0129 22.8246 7.65094 22.8361 8.4175C22.8487 9.2334 22.8395 10.0493 22.8395 10.8664C22.8395 11.9657 23.2412 12.4339 24.3933 12.6014C24.3267 14.0473 24.5666 15.5162 24.1225 16.9885C23.0461 16.1646 21.8297 16.4641 20.6799 16.5444C19.8008 16.6052 19.2397 17.5347 19.3085 18.4849C19.3694 19.3214 20.1244 20.0501 20.9885 20.0949C21.2823 20.1098 21.5784 20.0972 21.9858 20.0972C21.0999 20.8236 20.1887 21.231 19.1961 21.465C15.7569 22.2764 11.7841 20.0547 11.1931 16.3046C11.0026 15.0996 11.0566 13.8568 10.998 12.6164H10.9992Z" fill="white"/>
<path d="M11.3082 11.3191C10.6897 11.0987 10.171 10.9415 9.67985 10.7246C9.52723 10.6569 9.34592 10.4297 9.34477 10.2748C9.34477 8.67397 9.23461 7.05479 9.43428 5.47692C9.73723 3.08429 11.8453 1.33659 14.2677 1.29872C16.6581 1.26085 19.0495 1.28151 21.4399 1.29183C22.3567 1.29528 22.9982 1.91839 23.0808 2.83069C23.1692 3.80151 23.634 4.23987 24.63 4.29036C25.4149 4.33052 26.084 4.91577 26.1035 5.69266C26.1425 7.17987 26.1345 8.66938 26.1092 10.1577C26.1058 10.3551 25.9268 10.642 25.7523 10.7258C25.2704 10.9564 24.7471 11.1022 24.179 11.303C24.1641 11.0895 24.1446 10.9404 24.1435 10.79C24.14 10.0166 24.1664 9.24315 24.1366 8.47086C24.0597 6.45118 22.3912 5.14987 20.4071 5.55036C19.8345 5.66626 19.2699 5.83036 18.6949 5.9279C17.5715 6.1184 16.4802 5.93364 15.3935 5.63069C13.974 5.23594 12.6635 5.64561 11.8854 6.68758C11.5251 7.16954 11.3197 7.71233 11.3151 8.31823C11.3082 9.13414 11.3105 9.95004 11.3094 10.7659C11.3094 10.9174 11.3094 11.07 11.3094 11.3179L11.3082 11.3191Z" fill="#FDDE00"/>
<path d="M15.4465 40.9605C15.995 37.8656 16.5378 34.804 17.084 31.7217H18.3624C18.9074 34.7902 19.4525 37.861 20.0022 40.9605H15.4453H15.4465Z" fill="white"/>
<path d="M14.2863 23.9661C14.4389 23.4153 14.5812 22.9 14.7316 22.3584C16.7053 23.1284 18.7238 23.1387 20.7148 22.3641C20.8652 22.9 21.0098 23.4141 21.1635 23.9661C20.0917 24.6455 18.9866 25.3512 17.8712 26.042C17.7909 26.0914 17.6199 26.0753 17.5338 26.0214C16.4322 25.3351 15.3386 24.6363 14.2852 23.9673L14.2863 23.9661Z" fill="#FDDE00"/>
<path d="M10.7246 24.8924C11.5332 24.3087 12.3426 24.2758 13.1528 24.7937C14.1638 25.4386 15.1782 26.0778 16.1904 26.7204C16.32 26.8031 16.4463 26.8891 16.6115 26.9993C16.0033 27.5054 15.4467 27.9965 14.8535 28.4383C14.7307 28.5301 14.3922 28.5221 14.2866 28.4211C13.0851 27.2621 11.91 26.0755 10.7246 24.8924Z" fill="white"/>
<path d="M24.754 24.8883C23.5525 26.0783 22.382 27.2522 21.1851 28.3974C21.0704 28.5076 20.7146 28.5271 20.5873 28.433C19.994 27.9947 19.4409 27.5012 18.835 26.9963C19.2814 26.7117 19.6876 26.4512 20.095 26.1919C21.083 25.563 22.0756 24.9422 23.0579 24.3042C23.3184 24.1343 23.5387 24.1091 23.8004 24.2927C24.0907 24.4958 24.4017 24.6691 24.7551 24.8883H24.754Z" fill="white"/>
<path d="M17.7217 27.7725C18.253 28.2154 18.7648 28.6423 19.2927 29.0818C19.0608 29.4811 18.8497 29.8679 18.6156 30.2397C18.4618 30.483 16.9884 30.4933 16.8346 30.2512C16.6005 29.8793 16.3905 29.4926 16.1553 29.0852C16.6831 28.6423 17.1938 28.2154 17.7205 27.7725H17.7217Z" fill="#FDDE00"/>
<path d="M25.7064 14.707C25.7064 13.8807 25.6996 13.0981 25.7168 12.3166C25.7191 12.2329 25.8533 12.1124 25.9509 12.0768C26.4937 11.884 26.9446 11.5857 27.282 10.9534C27.3199 11.2265 27.3623 11.3917 27.3635 11.5581C27.3715 12.2283 27.3681 12.8996 27.3669 13.5698C27.3646 14.4534 27.1064 14.707 26.2114 14.707H25.7064Z" fill="#FDDE00"/>
<path d="M8.13262 11.0762C8.50328 11.5972 8.9818 11.9013 9.54639 12.1021C9.6359 12.1331 9.69787 12.2696 9.74836 12.3695C9.77705 12.4268 9.7541 12.5095 9.7541 12.5806C9.7541 13.2645 9.7541 13.9473 9.7541 14.6806C9.38 14.6806 9.01279 14.7483 8.69148 14.6577C8.47229 14.5957 8.1682 14.3191 8.15787 14.1252C8.10393 13.1119 8.13262 12.0929 8.13262 11.0773V11.0762Z" fill="#FDDE00"/>
<path d="M25.3145 17.6766C25.4189 17.1935 25.5118 16.7069 25.6404 16.2307C25.6645 16.1423 25.8331 16.0494 25.9433 16.0379C26.3931 15.9909 26.8464 15.9748 27.3066 15.9473C27.6325 17.0822 26.6559 17.9623 25.3145 17.6778V17.6766Z" fill="#FDDE00"/>
<path d="M21.9581 17.7789C22.2289 17.7789 22.4997 17.7732 22.7706 17.7801C23.0689 17.7881 23.256 17.9408 23.2801 18.2437C23.3065 18.5753 23.1137 18.775 22.8084 18.7899C22.2392 18.8186 21.6678 18.8152 21.0986 18.7899C20.7945 18.7773 20.5833 18.5822 20.6017 18.2598C20.6201 17.9453 20.8232 17.7789 21.1445 17.7767C21.4153 17.7744 21.6861 17.7767 21.9569 17.7767L21.9581 17.7789Z" fill="#FDDE00"/>
<path d="M33.3849 27.6283C37.5803 27.6489 40.9081 31.0192 40.8852 35.2238C40.8622 39.3493 37.4609 42.7161 33.3332 42.7001C29.1344 42.6829 25.8008 39.2632 25.8283 35.0024C25.8547 30.9492 29.2778 27.6088 33.3837 27.6283H33.3849ZM37.8373 35.5463C37.8373 34.564 37.8488 33.6058 37.8327 32.6488C37.8236 32.0796 37.5252 31.6573 37.1086 31.5448C36.6657 31.4255 36.2342 31.577 35.9416 32.0658C35.1785 33.3407 34.4372 34.6283 33.7165 35.9273C33.4629 36.384 33.7326 36.8235 34.257 36.8901C34.4544 36.9153 34.6563 36.9061 34.8572 36.9061C35.3954 36.9084 35.9324 36.9061 36.5027 36.9061C36.5027 37.2814 36.4936 37.5935 36.505 37.9056C36.5211 38.344 36.7655 38.593 37.1603 38.5942C37.5481 38.5953 37.7685 38.3796 37.8063 37.9493C37.8213 37.7783 37.8247 37.6061 37.819 37.434C37.8098 37.1379 37.8155 36.8947 38.2045 36.7994C38.3514 36.7638 38.5086 36.493 38.5385 36.3094C38.6154 35.8435 38.2872 35.6553 37.8385 35.5452L37.8373 35.5463ZM30.578 37.4811C30.6388 37.3732 30.6663 37.3135 30.7042 37.2584C31.2286 36.4919 31.7714 35.7379 32.274 34.9565C32.6068 34.4389 32.7503 33.8594 32.6137 33.2351C32.4072 32.2884 31.5224 31.5953 30.5172 31.5988C29.5245 31.6022 28.6329 32.316 28.4412 33.2627C28.3655 33.6345 28.5549 33.9696 28.9129 34.0625C29.2744 34.1566 29.5199 33.9868 29.6783 33.6724C29.7231 33.584 29.738 33.4807 29.7793 33.3912C29.9698 32.9804 30.407 32.7956 30.8144 32.9494C31.2493 33.1135 31.4627 33.5438 31.2814 33.9925C31.1552 34.307 30.9865 34.6133 30.7903 34.8911C30.1706 35.7666 29.5303 36.6273 28.8957 37.4914C28.6937 37.7668 28.5331 38.0479 28.7006 38.4002C28.8612 38.7399 29.1791 38.7915 29.4981 38.7961C30.3714 38.8088 31.2435 38.8134 32.1168 38.8042C32.6252 38.7984 32.8994 38.5529 32.9006 38.1455C32.9017 37.7255 32.6126 37.4891 32.0778 37.4845C31.5958 37.4799 31.115 37.4845 30.5791 37.4845L30.578 37.4811Z" fill="#FDDE00"/>
<path d="M37.8396 35.5452C38.2883 35.6554 38.6165 35.8436 38.5396 36.3095C38.5098 36.4931 38.3526 36.7639 38.2057 36.7995C37.8178 36.8947 37.811 37.138 37.8201 37.434C37.8259 37.605 37.8213 37.7783 37.8075 37.9493C37.7708 38.3796 37.5493 38.5954 37.1614 38.5942C36.7667 38.5931 36.5223 38.344 36.5062 37.9057C36.4947 37.5936 36.5039 37.2814 36.5039 36.9062C35.9336 36.9062 35.3965 36.9073 34.8583 36.9062C34.6587 36.9062 34.4555 36.9154 34.2582 36.8901C33.7326 36.8236 33.4641 36.384 33.7177 35.9273C34.4395 34.6283 35.1796 33.3408 35.9428 32.0658C36.2354 31.577 36.6669 31.4255 37.1098 31.5449C37.5264 31.6573 37.8247 32.0796 37.8339 32.6488C37.85 33.6058 37.8385 34.564 37.8385 35.5463L37.8396 35.5452ZM36.4993 33.8067C36.4718 33.7986 36.4431 33.7906 36.4155 33.7826C36.0885 34.3575 35.7626 34.9313 35.4069 35.5578H36.5005V33.8067H36.4993Z" fill="black"/>
<path d="M30.5788 37.48C31.1147 37.48 31.5956 37.4765 32.0775 37.48C32.6123 37.4846 32.9015 37.721 32.9003 38.141C32.8992 38.5484 32.6249 38.7951 32.1165 38.7997C31.2433 38.8088 30.3711 38.8054 29.4978 38.7916C29.1788 38.787 28.861 38.7354 28.7003 38.3957C28.5339 38.0446 28.6934 37.7623 28.8954 37.4869C29.53 36.6216 30.1703 35.7621 30.79 34.8865C30.9862 34.61 31.1538 34.3036 31.2811 33.988C31.4624 33.5393 31.249 33.1079 30.8141 32.9449C30.4067 32.7923 29.9695 32.977 29.779 33.3867C29.7377 33.4774 29.7228 33.5795 29.678 33.6679C29.5197 33.9823 29.2741 34.1521 28.9126 34.058C28.5546 33.9651 28.3664 33.63 28.441 33.2582C28.6326 32.3126 29.5242 31.5977 30.5169 31.5943C31.5221 31.5908 32.4069 32.2839 32.6134 33.2306C32.75 33.8561 32.6065 34.4344 32.2738 34.952C31.7723 35.7334 31.2283 36.4874 30.7039 37.2539C30.6672 37.3079 30.6385 37.3687 30.5777 37.4765L30.5788 37.48Z" fill="black"/>
<path d="M36.4989 33.8066V35.5577H35.4053C35.761 34.9312 36.0881 34.3574 36.414 33.7825C36.4415 33.7905 36.4702 33.7985 36.4977 33.8066H36.4989Z" fill="#FDDE00"/>
</svg>
