<svg width="30" height="15" viewBox="0 0 30 15" fill="none" xmlns="http://www.w3.org/2000/svg">
<path fill-rule="evenodd" clip-rule="evenodd" d="M22.8431 14.2765C20.6091 14.279 18.5022 13.2373 17.1479 11.4605L12.8259 7.1575L17.1519 2.85446C19.1678 0.167895 22.7839 -0.749815 25.8369 0.650361C28.8899 2.05054 30.5538 5.38975 29.833 8.67028C29.1122 11.9508 26.2019 14.285 22.8431 14.2765ZM22.764 2.8861C21.4052 2.88137 20.1205 3.50505 19.2836 4.57568L16.6417 7.1575L19.2852 9.73932C20.122 10.81 21.4067 11.4337 22.7656 11.4289C24.2916 11.4286 25.7016 10.6142 26.4644 9.29251C27.2271 7.97079 27.2268 6.34255 26.4636 5.02111C25.7003 3.69968 24.2901 2.88582 22.764 2.8861Z" fill="#0C0058"/>
<path fill-rule="evenodd" clip-rule="evenodd" d="M12.7903 11.4606C10.9426 13.8959 7.74634 14.8797 4.84898 13.9049C1.95161 12.9301 0 10.2145 0 7.15753C0 4.10059 1.95161 1.38491 4.84898 0.41015C7.74634 -0.564607 10.9426 0.419189 12.7903 2.85449L17.1163 7.15753L12.7903 11.4606ZM10.6546 4.57887C9.8178 3.50824 8.53307 2.88456 7.17422 2.88929C4.8152 2.88929 2.90283 4.80166 2.90283 7.16069C2.90283 9.51972 4.8152 11.4321 7.17422 11.4321C8.5331 11.4369 9.81788 10.8132 10.6546 9.74251L13.3005 7.15753L10.6546 4.57887Z" fill="#ABCD62"/>
</svg>
