<svg width="513" height="513" viewBox="0 0 513 513" fill="none" xmlns="http://www.w3.org/2000/svg">
  <rect x=".025" y=".303" width="512" height="512" rx="59" fill="#FFDE01"/>
  <path d="M402.966 63.228c-12.176-12.175-31.392-6.641-41.919 3.862-5.77 5.77-11.516 17.097-16.438 28.896-27.483-24.916-64.433-39.399-104.326-37.468-79.882 3.839-141.748 71.945-137.933 151.827 3.839 79.881 71.946 141.747 151.827 137.908 79.882-3.838 141.747-71.945 137.909-151.826-1.319-27.342-10.174-52.564-24.422-73.782 12.67-5.134 25.222-11.304 31.416-17.498 10.503-10.503 16.037-29.744 3.862-41.919h.024ZM251.445 290.98c-48.301 2.308-89.49-35.09-91.821-83.414-2.308-48.301 35.089-89.49 83.414-91.822 48.301-2.307 89.49 35.09 91.821 83.414 2.308 48.301-35.089 89.49-83.414 91.822Zm128.371 64.882c-5.699-6.876-14.695-3.203-20.653 1.413-7.913 6.147-15.897 12.152-24.445 17.451-16.98 10.55-35.608 18.699-55.39 22.066-18.887 3.203-45.333 3.203-64.244 0-19.782-3.367-38.41-11.516-55.39-22.066-8.525-5.299-16.508-11.281-24.444-17.451-5.958-4.616-14.931-8.289-20.654-1.413-10.903 13.165-4.05 33.842 4.051 46.582 10.409 16.344 28.684 27.365 45.522 36.032l.989.494c25.222 12.599 50.727 17.333 82.025 17.333 31.298 0 56.802-4.734 82.024-17.333l.989-.494c16.838-8.667 35.09-19.688 45.522-36.032 8.101-12.717 14.955-33.417 4.051-46.582h.047Z" fill="#ED3726"/>
</svg>
