<svg width="20" height="20" viewBox="0 0 19 19" fill="none" xmlns="http://www.w3.org/2000/svg">
<path d="M12.9436 2.84395L12.9438 2.84414C13.8494 3.58158 14.5872 4.5154 15.0899 5.57643L15.0899 5.57644C15.5769 6.6039 15.85 7.75385 15.85 8.96471C15.85 11.1414 14.9715 13.1125 13.5529 14.5386L13.4794 14.6067L13.4793 14.6067L13.4764 14.6095C12.0596 15.9963 10.126 16.85 8 16.85C5.83789 16.85 3.87436 15.9664 2.45249 14.5375L2.45223 14.5372C1.02936 13.1143 0.15 11.1425 0.15 8.96471C0.15 7.75978 0.422383 6.61368 0.908162 5.58608C1.41166 4.52164 2.14826 3.58587 3.04867 2.84981L3.04868 2.8498C3.51276 2.47036 4.19759 2.5415 4.57507 3.00806L4.57509 3.00808C4.95344 3.47557 4.88223 4.16403 4.41751 4.54399L4.41747 4.54402C3.76892 5.07467 3.23731 5.74947 2.87439 6.51795C2.52534 7.2553 2.32946 8.08634 2.32946 8.96471C2.32946 10.5372 2.96549 11.9611 3.99003 12.9909C5.01239 14.0238 6.43109 14.6594 8 14.6594C9.53917 14.6594 10.9332 14.0464 11.9508 13.0537L11.9508 13.0537L11.9552 13.0492L12.0114 12.9895C13.0351 11.9598 13.6705 10.5365 13.6705 8.96471C13.6705 8.08744 13.4739 7.257 13.1236 6.51777C12.7603 5.75046 12.2312 5.07415 11.5747 4.53814C11.11 4.15818 11.0388 3.46969 11.4165 3.00218C11.7947 2.53558 12.4796 2.46458 12.9436 2.84395ZM6.91027 1.2453C6.91027 0.640512 7.39955 0.15 8 0.15C8.60044 0.15 9.08973 0.640512 9.08973 1.2453V5.31071C9.08973 5.9155 8.60044 6.40601 8 6.40601C7.39955 6.40601 6.91027 5.9155 6.91027 5.31071V1.2453Z" fill="#ef9b9b" stroke="white" stroke-width="0.3"/>
</svg>
