<svg width="16" height="16" viewBox="0 0 16 16" fill="none" xmlns="http://www.w3.org/2000/svg">
<path d="M0.825826 7.0372C1.00162 6.8363 1.24005 6.72344 1.48866 6.72344L12.3493 6.72344L8.32415 2.1257C8.14813 1.92455 8.04925 1.65173 8.04925 1.36727C8.04925 1.0828 8.14813 0.80998 8.32415 0.608831C8.50017 0.407681 8.7389 0.294677 8.98783 0.294677C9.23675 0.294677 9.47548 0.407681 9.6515 0.608831L15.2759 7.03624C15.3632 7.13575 15.4324 7.25396 15.4797 7.38411C15.5269 7.51425 15.5513 7.65377 15.5513 7.79468C15.5513 7.93558 15.5269 8.0751 15.4797 8.20525C15.4324 8.33539 15.3632 8.4536 15.2759 8.55311L9.6515 14.9805C9.47548 15.1817 9.23675 15.2947 8.98783 15.2947C8.7389 15.2947 8.50017 15.1817 8.32415 14.9805C8.14813 14.7794 8.04925 14.5066 8.04925 14.2221C8.04925 13.9376 8.14813 13.6648 8.32415 13.4637L12.3493 8.86591L1.48866 8.86591C1.24005 8.86591 1.00162 8.75305 0.825826 8.55215C0.65003 8.35126 0.551269 8.07879 0.551269 7.79468C0.551269 7.51057 0.65003 7.23809 0.825826 7.0372Z" fill="#828282"/>
</svg>
