<!-- <svg width="30" height="30" viewBox="0 0 30 30" fill="none" xmlns="http://www.w3.org/2000/svg">
<circle cx="13" cy="12" r="7" fill="white"/>
<path d="M18 12C18 9.23858 15.7614 7 13 7" stroke="black" stroke-linecap="round"/>
<line x1="18.7071" y1="18" x2="25" y2="24.2929" stroke="white" stroke-linecap="round"/>
</svg> -->

<svg width="30" height="30" viewBox="0 0 25 20" fill="none" xmlns="http://www.w3.org/2000/svg">
<path d="M7.93274 0H7.93528V0.00108098C10.1251 0.00169868 12.1079 0.866016 13.5428 2.26264C14.9754 3.65725 15.8628 5.5851 15.8642 7.71431H15.8653V7.71941V7.72558H15.8642C15.8634 8.58372 15.7187 9.40959 15.4526 10.1797C15.408 10.309 15.3613 10.4331 15.3134 10.5517V10.5528C15.0839 11.118 14.7873 11.6523 14.4331 12.1445L19.0482 16.181L19.0511 16.1834L19.076 16.206L19.0777 16.2077C19.3383 16.4491 19.4802 16.7723 19.4981 17.1003C19.5156 17.4246 19.4119 17.7563 19.1841 18.0223L19.1823 18.0248L19.1545 18.0562L19.149 18.0616L19.1258 18.0863L19.1233 18.0895C18.8749 18.3431 18.5434 18.4808 18.206 18.4981C17.8733 18.5153 17.5321 18.4147 17.2585 18.1927L17.2561 18.191L17.2237 18.164L17.2191 18.1602L12.4988 14.0318C12.3592 14.1276 12.2167 14.2185 12.0724 14.3044C11.8767 14.421 11.6741 14.5308 11.4673 14.631C10.4042 15.1471 9.20292 15.4374 7.9329 15.4374V15.4385H7.93036V15.4374C5.74056 15.4368 3.75737 14.5725 2.32247 13.1759C0.889474 11.7812 0.00253909 9.8531 0.00111085 7.7245H0V7.71941V7.71693H0.00111085C0.00174562 5.58602 0.88995 3.65617 2.32517 2.25986C3.75832 0.866016 5.73944 0.0024708 7.9275 0.00108098V0H7.93274ZM7.93528 1.73111V1.73219H7.93274H7.9275V1.73111C6.23171 1.73219 4.69461 2.40286 3.58186 3.48522C2.46926 4.56759 1.77942 6.06489 1.77895 7.71709H1.78006V7.71956V7.72466H1.77895C1.78006 9.37484 2.46878 10.8698 3.58154 11.953C4.69382 13.0358 6.2325 13.7071 7.9302 13.7074V13.7063H7.93274H7.93797V13.7074C9.63377 13.7063 11.1702 13.036 12.2833 11.9533C13.3959 10.8709 14.0857 9.37407 14.0861 7.72203L14.0851 7.71956V7.71446C14.0842 6.06428 13.3957 4.56851 12.2836 3.48569C11.1713 2.40286 9.63313 1.73157 7.93528 1.73111Z" fill="white"/>
</svg>

