<svg width="19" height="20" viewBox="0 0 19 20" fill="none" xmlns="http://www.w3.org/2000/svg">
<path d="M1 18.25V14.5833V18.25ZM1 14.5833V3.58333C1 3.0971 1.19315 2.63079 1.53697 2.28697C1.88079 1.94315 2.3471 1.75 2.83333 1.75H8.79167L9.70833 2.66667H17.5L14.75 8.16667L17.5 13.6667H9.70833L8.79167 12.75H2.83333C2.3471 12.75 1.88079 12.9432 1.53697 13.287C1.19315 13.6308 1 14.0971 1 14.5833ZM9.25 2.20833L9.70833 2.66667L9.25 2.20833Z" fill="#67C676"/>
<path d="M1 18.25V14.5833M1 14.5833V3.58333C1 3.0971 1.19315 2.63079 1.53697 2.28697C1.88079 1.94315 2.3471 1.75 2.83333 1.75H8.79167L9.70833 2.66667M1 14.5833C1 14.0971 1.19315 13.6308 1.53697 13.287C1.88079 12.9432 2.3471 12.75 2.83333 12.75H8.79167L9.70833 13.6667H17.5L14.75 8.16667L17.5 2.66667H9.70833M9.70833 2.66667L9.25 2.20833" stroke="#67C676" stroke-width="2" stroke-linecap="round" stroke-linejoin="round"/>
</svg>
