<svg width="19" height="19" viewBox="0 0 19 19" fill="none" xmlns="http://www.w3.org/2000/svg">
<path d="M1 17.75V14.0833V17.75ZM1 14.0833V3.08333C1 2.5971 1.19315 2.13079 1.53697 1.78697C1.88079 1.44315 2.3471 1.25 2.83333 1.25H8.79167L9.70833 2.16667H17.5L14.75 7.66667L17.5 13.1667H9.70833L8.79167 12.25H2.83333C2.3471 12.25 1.88079 12.4432 1.53697 12.787C1.19315 13.1308 1 13.5971 1 14.0833ZM9.25 1.70833L9.70833 2.16667L9.25 1.70833Z" fill="#CB6464"/>
<path d="M1 17.75V14.0833M1 14.0833V3.08333C1 2.5971 1.19315 2.13079 1.53697 1.78697C1.88079 1.44315 2.3471 1.25 2.83333 1.25H8.79167L9.70833 2.16667M1 14.0833C1 13.5971 1.19315 13.1308 1.53697 12.787C1.88079 12.4432 2.3471 12.25 2.83333 12.25H8.79167L9.70833 13.1667H17.5L14.75 7.66667L17.5 2.16667H9.70833M9.70833 2.16667L9.25 1.70833" stroke="#CB6464" stroke-width="2" stroke-linecap="round" stroke-linejoin="round"/>
</svg>
