<svg width="154" height="121" viewBox="0 0 154 121" fill="none" xmlns="http://www.w3.org/2000/svg">
<g opacity="0.7">
<path d="M90.0375 33.3001C90.0375 33.3001 89.808 21.0505 100.905 21.0505C112.605 21.0505 110.438 12.7611 121.724 13.4377C129.353 13.8956 131.331 21.9358 135.718 23.1238C140.104 24.3117 144.234 25.7534 144.234 33.0682L90.0375 33.3001Z" fill="white"/>
<path d="M114.016 94.4479C114.016 94.4479 113.847 85.411 122.033 85.411C130.665 85.411 129.067 79.2953 137.393 79.7946C143.021 80.1325 144.48 86.0643 147.717 86.9408C150.954 87.8173 154 88.8809 154 94.2778L114.016 94.4479Z" fill="white"/>
<path d="M0.000320159 53.0329C0.000320159 53.0329 -0.203252 42.1492 9.65618 42.1492C20.0505 42.1492 18.1256 34.7846 28.1521 35.3866C34.9287 35.7933 36.6865 42.9366 40.5845 43.9921C44.4825 45.0476 48.151 46.3284 48.151 52.8274L0.000320159 53.0329Z" fill="white"/>
<path opacity="0.1" d="M90.0375 33.3001C90.0375 33.3001 89.808 21.0505 100.905 21.0505C112.605 21.0505 110.438 12.7611 121.724 13.4377C129.353 13.8956 131.331 21.9358 135.718 23.1238C140.104 24.3117 144.234 25.7534 144.234 33.0682L90.0375 33.3001Z" fill="#367CFF"/>
<path opacity="0.1" d="M114.016 94.4479C114.016 94.4479 113.847 85.411 122.033 85.411C130.665 85.411 129.067 79.2953 137.393 79.7946C143.021 80.1325 144.48 86.0643 147.717 86.9408C150.954 87.8173 154 88.8809 154 94.2778L114.016 94.4479Z" fill="#367CFF"/>
<path opacity="0.1" d="M0.000320159 53.0329C0.000320159 53.0329 -0.203252 42.1492 9.65618 42.1492C20.0505 42.1492 18.1256 34.7846 28.1521 35.3866C34.9287 35.7933 36.6865 42.9366 40.5845 43.9921C44.4825 45.0476 48.151 46.3284 48.151 52.8274L0.000320159 53.0329Z" fill="#367CFF"/>
<path d="M115.307 6.89283C115.221 6.75572 115.165 6.60266 115.14 6.44299C115.116 6.28332 115.125 6.12038 115.166 5.96412C115.206 5.80785 115.279 5.66154 115.378 5.53409C115.478 5.40664 115.602 5.30074 115.744 5.22284C116.023 5.08157 116.346 5.05156 116.647 5.13888C116.948 5.2262 117.205 5.42433 117.365 5.69321L118.216 7.05627L117.804 2.26568C117.716 1.65139 117.999 0.842505 118.695 0.788096C119.255 0.707142 119.711 -0.0436099 120.381 0.286571C120.387 0.284816 125.644 4.41768 125.727 4.98677L126.05 12.57C126.402 14.9846 118.18 14.5006 118.18 14.5006L115.307 6.89283Z" fill="#E98862"/>
<g opacity="0.1">
<path d="M115.307 6.89283C115.221 6.75572 115.165 6.60266 115.14 6.44299C115.116 6.28332 115.125 6.12038 115.166 5.96412C115.206 5.80785 115.279 5.66154 115.378 5.53409C115.478 5.40664 115.602 5.30074 115.744 5.22284C116.023 5.08157 116.346 5.05156 116.647 5.13888C116.948 5.2262 117.205 5.42433 117.365 5.69321L118.216 7.05627L117.804 2.26568C117.716 1.65139 117.999 0.842505 118.695 0.788096C119.255 0.707142 119.711 -0.0436099 120.381 0.286571C120.387 0.284816 125.644 4.41768 125.727 4.98677L126.05 12.57C126.402 14.9846 118.18 14.5006 118.18 14.5006L115.307 6.89283Z" fill="#0C0C0C"/>
</g>
<path d="M59.1131 44.0882C59.1131 44.0882 58.6411 51.156 57.0477 53.7194C52.4608 61.1014 51.1318 69.4057 55.7254 73.7446C60.319 78.0834 89.6183 78.1442 91.838 68.1651C93.7067 59.7638 89.6963 58.8603 88.7207 51.9302C88.2792 48.7943 87.0646 42.2188 87.0646 42.2188" fill="#0A0A0A"/>
<path d="M84.2532 66.7042C84.2024 66.6977 83.6414 75.991 72.8228 75.1808C65.3332 74.6209 62.6628 66.6904 62.4902 66.6904C63.2979 66.5191 64.6577 66.2701 65.0162 66.0792C66.1957 65.4467 67.6543 64.7887 68.0348 62.5031C68.2547 61.1868 67.8823 54.4467 67.9968 53.1133L79.4932 55.674C79.3325 58.4888 78.2082 65.0145 82.1489 66.1694C82.8053 66.3618 83.5117 66.5373 84.2532 66.7042Z" fill="#E98862"/>
<path opacity="0.5" d="M79.6569 63.5009C79.4768 62.9218 79.3609 62.3247 79.3111 61.7203C79.1847 60.3412 79.2099 58.9524 79.3863 57.5787C77.0498 57.2639 74.8487 56.3015 73.0329 54.8008C72.8194 55.5875 71.6455 59.0253 71.9706 59.773C72.5844 61.1863 75.4716 63.5009 79.6569 63.5009Z" fill="#0C0C0C"/>
<path d="M78.1699 60.6072C73.6372 61.0459 67.7728 59.2355 66.5579 53.212L65.4618 47.7768C64.2467 41.7533 66.4322 36.2334 72.1155 35.0917C77.7988 33.9509 83.0315 37.9802 84.2463 44.0038L84.7317 46.41C85.1978 48.7213 86.2568 59.8264 78.1699 60.6072Z" fill="#E98862"/>
<path d="M81.3938 53.4016C79.9211 54.1489 78.2409 54.3852 76.6186 54.0732C76.5625 54.0625 76.5044 54.068 76.4513 54.0891C76.3981 54.1102 76.3521 54.146 76.3187 54.1923C76.2852 54.2385 76.2656 54.2934 76.2622 54.3503C76.2589 54.4073 76.2718 54.464 76.2996 54.5139C76.7833 55.3645 77.9304 56.8175 79.8982 56.2251C81.1691 55.8425 81.6495 54.5378 81.8276 53.7309C81.8397 53.6751 81.8356 53.617 81.8158 53.5634C81.796 53.5099 81.7613 53.463 81.7157 53.4285C81.6702 53.3939 81.6157 53.373 81.5587 53.3682C81.5017 53.3635 81.4445 53.3751 81.3938 53.4016Z" fill="white"/>
<path d="M81.4851 46.8656C81.8781 46.8656 82.1967 46.5477 82.1967 46.1555C82.1967 45.7633 81.8781 45.4453 81.4851 45.4453C81.092 45.4453 80.7734 45.7633 80.7734 46.1555C80.7734 46.5477 81.092 46.8656 81.4851 46.8656Z" fill="#0C0C0C"/>
<path d="M74.6491 48.061C75.0421 48.061 75.3608 47.743 75.3608 47.3508C75.3608 46.9586 75.0421 46.6406 74.6491 46.6406C74.2561 46.6406 73.9375 46.9586 73.9375 47.3508C73.9375 47.743 74.2561 48.061 74.6491 48.061Z" fill="#0C0C0C"/>
<path opacity="0.1" d="M75.2881 52.7148C76.034 52.626 76.5858 52.1114 76.5205 51.5654C76.4552 51.0194 75.7977 50.6488 75.0518 50.7376C74.3058 50.8264 73.7541 51.341 73.8194 51.887C73.8846 52.433 74.5422 52.8036 75.2881 52.7148Z" fill="#0C0C0C"/>
<path opacity="0.1" d="M83.1692 50.5309C83.2352 51.0761 83.8934 51.4462 84.6395 51.3585C84.7684 51.343 84.8953 51.3143 85.0183 51.2727C85.053 50.6226 85.055 49.9972 85.0359 49.4182C84.8288 49.3666 84.6138 49.354 84.4021 49.3811C83.6559 49.4691 83.1046 49.9833 83.1692 50.5309Z" fill="#0C0C0C"/>
<path opacity="0.5" d="M79.8734 52.2154L79.8846 52.2137C80.115 52.1658 80.3425 52.1052 80.5661 52.0322C80.8999 51.9208 81.3356 51.7378 81.2758 51.4366C81.2068 51.0932 79.5171 47.5795 79.3251 47.1804C79.3083 47.1455 79.2783 47.1187 79.2417 47.1059C79.205 47.0931 79.1648 47.0953 79.1298 47.1121C79.0948 47.1289 79.068 47.1588 79.0551 47.1954C79.0423 47.232 79.0445 47.2721 79.0613 47.307C79.7817 48.8035 80.9421 51.2637 80.9887 51.4949C80.9522 51.6027 80.3986 51.8131 79.8273 51.928C79.7895 51.9347 79.7558 51.9559 79.7335 51.9871C79.7113 52.0183 79.7022 52.057 79.7083 52.0948C79.7144 52.1327 79.7352 52.1666 79.7661 52.1893C79.797 52.2119 79.8357 52.2216 79.8736 52.2161L79.8734 52.2154Z" fill="#0C0C0C"/>
<path d="M60.9259 49.7271L66.0209 48.7339C69.8697 47.1278 70.9614 40.434 70.9614 40.434C70.9614 40.434 75.7115 44.9481 87.0636 42.2185C87.0636 42.2185 84.5977 26.4036 67.8353 31.204C62.4302 32.7518 58.6019 38.2497 59.1713 45.5317C59.5703 50.6349 60.9259 49.7271 60.9259 49.7271Z" fill="#0A0A0A"/>
<path d="M67.2801 54.9725C65.5531 55.3194 63.7809 53.7567 63.4329 52.0327C63.0849 50.3088 64.2938 49.0773 66.0209 48.7305L67.1438 49.7065L68.7645 54.6737L67.2801 54.9725Z" fill="#E98862"/>
<path d="M80.5497 44.3754C80.9818 44.0704 81.4872 43.8852 82.0145 43.8386C82.279 43.8134 82.5458 43.8282 82.8059 43.8825C83.0685 43.936 83.3234 44.0222 83.5646 44.1389L83.5723 44.1425C83.599 44.1542 83.6293 44.1551 83.6566 44.1449C83.684 44.1347 83.7063 44.1142 83.7187 44.0878C83.7311 44.0614 83.7327 44.0312 83.7232 44.0037C83.7136 43.9761 83.6936 43.9534 83.6675 43.9404C83.4119 43.8057 83.1404 43.7037 82.8593 43.6368C82.5763 43.5681 82.2845 43.5423 81.9938 43.5602C81.405 43.5928 80.8357 43.7822 80.345 44.1087C80.3082 44.1337 80.2828 44.1723 80.2744 44.216C80.2661 44.2597 80.2755 44.3049 80.3006 44.3417C80.3257 44.3784 80.3643 44.4038 80.4081 44.4121C80.4519 44.4204 80.4972 44.411 80.5341 44.386L80.538 44.3831L80.5497 44.3754Z" fill="#0C0C0C"/>
<path d="M75.8981 45.0201C75.3195 44.9054 74.7206 44.9477 74.164 45.1425C73.8888 45.2371 73.6294 45.3724 73.3945 45.5438C73.1605 45.713 72.9488 45.9109 72.7645 46.1329C72.745 46.1548 72.7349 46.1835 72.7365 46.2128C72.7381 46.2421 72.7511 46.2696 72.7728 46.2894C72.7945 46.3092 72.8232 46.3196 72.8525 46.3185C72.8819 46.3174 72.9097 46.3047 72.9298 46.2834L72.9357 46.2772C73.1136 46.0772 73.316 45.9003 73.5381 45.7507C73.7578 45.601 73.999 45.4854 74.2534 45.4078C74.7584 45.2497 75.2963 45.2278 75.8125 45.3444L75.8253 45.3474C75.8686 45.3579 75.9143 45.3508 75.9523 45.3277C75.9904 45.3045 76.0176 45.2672 76.0281 45.224C76.0386 45.1808 76.0315 45.1352 76.0083 45.0973C75.9851 45.0593 75.9477 45.0321 75.9044 45.0217L75.8981 45.0201Z" fill="#0C0C0C"/>
<path d="M66.0246 48.6477C69.4497 47.3752 70.5861 45.015 70.9363 43.2586C71.1628 42.0872 71.1416 40.8815 70.8741 39.7188L70.7681 39.7477C71.0315 40.8954 71.0518 42.0853 70.8277 43.2413C70.4823 44.969 69.3618 47.2914 65.9863 48.545L66.0246 48.6477Z" fill="#0C0C0C"/>
<path d="M27.0328 22.942L24.7838 15.7708C24.7344 15.6132 24.6526 15.4677 24.5437 15.3434C24.4348 15.2191 24.3012 15.1187 24.1513 15.0488C24.0014 14.9789 23.8386 14.9408 23.6732 14.9371C23.5078 14.9334 23.3435 14.9641 23.1906 15.0273C22.912 15.1526 22.69 15.3768 22.5676 15.6562C22.4452 15.9357 22.4312 16.2506 22.5282 16.5398L23.0106 18.0774L19.2697 13.9365C18.8619 13.4687 18.0606 13.1552 17.5662 13.6464C17.3632 13.823 17.2261 14.063 17.1774 14.3273C17.1286 14.5916 17.1711 14.8645 17.2978 15.1017C17.2923 15.1043 17.2873 15.1077 17.2826 15.1115C17.2796 15.115 17.2768 15.1187 17.2742 15.1225L16.6455 14.4014C16.5289 14.2678 16.384 14.1619 16.2212 14.0914C16.0584 14.0209 15.8819 13.9875 15.7046 13.9936C15.5272 13.9998 15.3535 14.0454 15.196 14.1271C15.0386 14.2088 14.9014 14.3245 14.7944 14.4659C14.6305 14.6917 14.5492 14.9669 14.5643 15.2454C14.5793 15.5239 14.6898 15.7887 14.8771 15.9957L15.1446 16.3028C15.1394 16.3147 15.1363 16.3274 15.1354 16.3403C14.9064 16.1748 14.6258 16.096 14.3439 16.118C14.0619 16.14 13.797 16.2613 13.5965 16.4603C13.3836 16.6845 13.2632 16.9805 13.2594 17.2893C13.2556 17.5981 13.3686 17.897 13.5759 18.1264L14.2407 18.8885C14.2236 18.8844 14.2059 18.8844 14.1888 18.8884C14.1718 18.8925 14.156 18.9005 14.1426 18.9118C14.1275 18.9261 14.1168 18.9444 14.1121 18.9647C13.8671 18.8739 13.599 18.8659 13.3491 18.942C13.0991 19.0181 12.8811 19.1739 12.7286 19.3857C12.5729 19.6114 12.4981 19.8829 12.5164 20.1563C12.5346 20.4297 12.6448 20.6889 12.8291 20.892L18.4379 27.323C19.2226 28.2224 20.2587 28.8676 21.4132 29.1759C22.5677 29.4841 23.7881 29.4413 24.9181 29.0531C25.8925 28.718 26.6975 28.0171 27.1622 27.0992C27.627 26.1813 27.7147 25.1187 27.4069 24.1372L27.0328 22.942Z" fill="#E98862"/>
<g opacity="0.2">
<path d="M20.9799 19.2177C20.9581 19.2365 20.9298 19.2461 20.901 19.2442C20.8722 19.2424 20.8453 19.2293 20.826 19.2078L17.2743 15.2652C17.2548 15.2435 17.2447 15.215 17.2462 15.186C17.2478 15.1569 17.2608 15.1296 17.2825 15.1102C17.3042 15.0907 17.3328 15.0806 17.3619 15.0822C17.391 15.0837 17.4184 15.0968 17.4379 15.1184L20.99 19.061C21.0095 19.0827 21.0196 19.1111 21.0181 19.1402C21.0166 19.1692 21.0036 19.1965 20.9819 19.2159L20.9799 19.2177Z" fill="#0C0C0C"/>
</g>
<g opacity="0.2">
<path d="M19.2826 20.8297C19.2607 20.8486 19.2324 20.8581 19.2036 20.8563C19.1748 20.8544 19.1479 20.8413 19.1287 20.8199L15.1649 16.4198C15.1454 16.3982 15.1353 16.3697 15.1369 16.3407C15.1384 16.3116 15.1514 16.2844 15.1731 16.2649C15.1952 16.2464 15.2236 16.2369 15.2524 16.2384C15.2813 16.24 15.3085 16.2524 15.3285 16.2733L19.2927 20.6731C19.3122 20.6947 19.3223 20.7232 19.3207 20.7522C19.3192 20.7813 19.3062 20.8085 19.2845 20.828L19.2826 20.8297Z" fill="#0C0C0C"/>
</g>
<g opacity="0.2">
<path d="M17.4493 22.585C17.4275 22.6038 17.3991 22.6133 17.3703 22.6114C17.3415 22.6095 17.3146 22.5964 17.2954 22.5749L14.1337 19.066C14.1142 19.0443 14.1041 19.0158 14.1056 18.9867C14.1072 18.9577 14.1202 18.9304 14.1419 18.911C14.1636 18.8915 14.1922 18.8814 14.2213 18.883C14.2504 18.8845 14.2777 18.8975 14.2972 18.9192L17.4596 22.4294C17.4791 22.4511 17.4892 22.4795 17.4876 22.5086C17.486 22.5376 17.473 22.5649 17.4513 22.5843L17.4493 22.585Z" fill="#0C0C0C"/>
</g>
<path d="M114.496 9.96484L107.298 44.6433L82.7852 69.3545L95.6557 81.3158L119.959 53.6253L120.104 53.4617C120.961 52.4777 121.559 51.2962 121.843 50.0238L130.094 13.3233L114.496 9.96484Z" fill="#367CFF"/>
<path d="M72.4593 72.8731C64.9649 72.5206 64.6494 66.1719 64.6494 66.1719C64.6494 66.1719 60.9359 66.4112 58.4673 66.7447C54.4255 67.2903 51.7595 68.658 49.6376 70.7753C47.6638 72.7452 48.2238 78.8901 48.2238 78.8901L50.2048 120.004H95.4373L97.5759 79.1163C97.5759 79.1163 100.006 73.9277 95.8756 69.5667C92.8803 66.4049 85.1478 66.1719 82.0349 66.1719C81.9841 66.1719 82.6663 73.3534 72.4593 72.8731Z" fill="#367CFF"/>
<path d="M37.2488 51.5233L29.1441 22.5977L13.8184 27.0324L23.1873 58.1741C23.6158 59.5855 24.4294 60.8501 25.537 61.8265L25.6909 61.961L50.3766 83.6147L61.5285 70.043L37.2488 51.5233Z" fill="#367CFF"/>
<path d="M120.683 6.82335C120.558 6.65181 120.492 6.44413 120.496 6.23192C120.5 6.01971 120.573 5.81461 120.705 5.64786C120.69 5.63952 120.647 5.62987 120.663 5.60398L119.931 5.95939C119.718 6.06883 119.472 6.09748 119.239 6.04005C119.006 5.98262 118.802 5.843 118.664 5.64698C118.535 5.44903 118.483 5.21008 118.52 4.97645C118.557 4.74282 118.679 4.53113 118.864 4.38242C118.855 4.37957 118.85 4.3697 118.842 4.36399L118.541 4.51011C118.339 4.61236 118.109 4.64201 117.888 4.59403C117.667 4.54606 117.469 4.42341 117.329 4.24684C117.243 4.1343 117.183 4.00413 117.154 3.86573C117.124 3.72732 117.126 3.58413 117.159 3.44649C117.192 3.30885 117.255 3.18018 117.343 3.06978C117.432 2.95938 117.544 2.87 117.671 2.80808L118.366 2.47088C118.363 2.46759 118.358 2.46715 118.356 2.4632C118.355 2.45925 118.356 2.45289 118.355 2.44785C118.144 2.49711 117.923 2.47342 117.727 2.38067C117.531 2.28793 117.373 2.13161 117.278 1.93733C117 1.45116 117.411 0.897203 117.86 0.679349L119.327 0.102354C119.553 0.0134173 119.798 -0.0182799 120.04 0.0100832C120.281 0.0384462 120.512 0.125991 120.712 0.264922C122.44 1.46586 126.88 4.70997 125.447 5.40566L121.92 7.11821C121.711 7.2133 121.475 7.23593 121.251 7.18254C121.027 7.12914 120.827 7.00276 120.683 6.82335Z" fill="#E98862"/>
<path d="M6.8275 72.1423L5.18945 72.7812L7.49991 78.6802L9.13796 78.0412L6.8275 72.1423Z" fill="#367CFF"/>
<path d="M139.693 54.075L135.459 58.793L136.769 59.9639L141.003 55.2459L139.693 54.075Z" fill="#367CFF"/>
<path d="M120.283 75.1928L119.229 76.5977L124.308 80.3947L125.363 78.9898L120.283 75.1928Z" fill="#0CBC8B"/>
<path d="M43.9444 25.0384L39.3223 29.3789L40.5275 30.6571L45.1497 26.3166L43.9444 25.0384Z" fill="#367CFF"/>
<path d="M95.14 17.676L93.6152 18.5508L96.7785 24.0418L98.3032 23.1671L95.14 17.676Z" fill="#367CFF"/>
<path d="M32.9476 93.1985L29.5605 98.5547L31.0479 99.4913L34.4349 94.1351L32.9476 93.1985Z" fill="#0CBC8B"/>
<path d="M118.172 106.069L115.336 111.734L116.909 112.519L119.746 106.853L118.172 106.069Z" fill="#0CBC8B"/>
<path d="M141.192 91.1601L139.508 91.6641L141.33 97.7309L143.015 97.2269L141.192 91.1601Z" fill="#367CFF"/>
<path d="M17.964 107.866L16.9844 109.324L22.2584 112.852L23.238 111.394L17.964 107.866Z" fill="#367CFF"/>
<path d="M74.2747 4.02763L72.75 4.90234L75.913 10.3933L77.4378 9.51855L74.2747 4.02763Z" fill="#0CBC8B"/>
</g>
</svg>
