<svg width="12" height="16" viewBox="0 0 12 16" fill="none" xmlns="http://www.w3.org/2000/svg">
<path d="M11.8398 4.22256C11.942 4.32635 12 4.46648 12 4.61352V15.2819C12 15.5881 11.7563 15.8355 11.4545 15.8355H0.545455C0.24375 15.8355 0 15.5881 0 15.2819V0.889021C0 0.582826 0.24375 0.335449 0.545455 0.335449H7.78466C7.92955 0.335449 8.06932 0.394266 8.17159 0.498061L11.8398 4.22256ZM10.742 4.86782L7.53409 1.61212V4.86782H10.742ZM8.06625 10.2523C7.8075 10.2437 7.53239 10.2639 7.21994 10.3035C6.80574 10.0442 6.52688 9.68804 6.32881 9.16474L6.34705 9.08897L6.36818 8.99936C6.44148 8.68573 6.48085 8.45686 6.49261 8.22609C6.50148 8.05189 6.49193 7.89118 6.46142 7.74224C6.40517 7.42065 6.18102 7.2326 5.89858 7.22101C5.63523 7.21011 5.39318 7.35941 5.33131 7.59069C5.23057 7.9647 5.28955 8.45686 5.50313 9.29621C5.23108 9.95444 4.87159 10.7262 4.6304 11.1566C4.30841 11.3251 4.05767 11.4783 3.84699 11.6482C3.56915 11.8726 3.39563 12.1032 3.3479 12.3454C3.32472 12.4576 3.35966 12.6043 3.43926 12.7246C3.5296 12.8609 3.66563 12.9494 3.82875 12.9622C4.2404 12.9946 4.74631 12.5638 5.30489 11.5911C5.36097 11.5721 5.42028 11.552 5.49273 11.5271L5.69557 11.4576C5.82392 11.4136 5.91699 11.3821 6.00903 11.3519C6.4079 11.22 6.7096 11.1368 6.98403 11.0894C7.46097 11.3486 8.01222 11.5185 8.38347 11.5185C8.68994 11.5185 8.89705 11.3572 8.97188 11.1035C9.0375 10.8806 8.98551 10.6222 8.84438 10.4793C8.69847 10.3338 8.43017 10.2643 8.06625 10.2523ZM3.83915 12.4739V12.4677L3.84136 12.4618C3.8663 12.3963 3.89832 12.3339 3.93682 12.2756C4.00977 12.1618 4.11017 12.0421 4.2346 11.9146C4.30142 11.8463 4.37097 11.7797 4.45261 11.7049C4.47085 11.6883 4.58744 11.583 4.60926 11.5622L4.79966 11.3823L4.66125 11.606C4.45125 11.9457 4.26136 12.1904 4.09875 12.3499C4.03892 12.4087 3.98625 12.4519 3.94364 12.4798C3.92957 12.4893 3.91468 12.4975 3.89915 12.5043C3.89216 12.5073 3.88602 12.509 3.87989 12.5095C3.87341 12.5104 3.86683 12.5095 3.8608 12.5069C3.85438 12.5042 3.8489 12.4996 3.84505 12.4937C3.8412 12.4879 3.83915 12.4809 3.83915 12.4739ZM5.98585 8.69784L5.94733 8.76703L5.92347 8.69127C5.87063 8.52121 5.83176 8.26501 5.82102 8.0339C5.80875 7.77095 5.82938 7.61318 5.91119 7.61318C6.02608 7.61318 6.07875 7.80001 6.08284 8.08112C6.08659 8.32816 6.04824 8.58522 5.98568 8.69784H5.98585ZM5.88682 9.70914L5.9129 9.63908L5.94852 9.70482C6.14778 10.0723 6.40636 10.3788 6.69068 10.5924L6.75205 10.6385L6.67722 10.654C6.39886 10.7125 6.1396 10.8004 5.78506 10.9455C5.82205 10.9303 5.41653 11.0988 5.31392 11.1387L5.22443 11.1735L5.27216 11.0891C5.48267 10.7172 5.67716 10.2705 5.88665 9.70914H5.88682ZM8.57352 11.0284C8.43955 11.082 8.15114 11.0341 7.64335 10.814L7.51449 10.7583L7.65426 10.748C8.05142 10.718 8.33267 10.7402 8.49665 10.8011C8.56653 10.827 8.61307 10.8597 8.63369 10.8971C8.64455 10.9148 8.6482 10.936 8.64387 10.9564C8.63954 10.9768 8.62758 10.9946 8.61051 11.0062C8.59967 11.0159 8.58712 11.0234 8.57352 11.0284Z" fill="#0D1E2E"/>
</svg>
