<svg width="22" height="23" viewBox="0 0 22 23" fill="none" xmlns="http://www.w3.org/2000/svg">
<path fill-rule="evenodd" clip-rule="evenodd" d="M10.9597 0.46875C4.90696 0.46875 0 5.39375 0 11.4687C0 17.5437 4.90696 22.4687 10.9597 22.4687C17.0125 22.4687 21.9194 17.5437 21.9194 11.4687C21.9194 5.39375 17.0125 0.46875 10.9597 0.46875ZM11.956 15.4687C11.956 15.734 11.8511 15.9883 11.6642 16.1759C11.4774 16.3634 11.224 16.4687 10.9597 16.4687C10.6955 16.4687 10.442 16.3634 10.2552 16.1759C10.0683 15.9883 9.96337 15.734 9.96337 15.4687V12.4687H6.97436C6.71011 12.4687 6.45669 12.3634 6.26984 12.1759C6.08299 11.9883 5.97802 11.734 5.97802 11.4687C5.97802 11.2035 6.08299 10.9492 6.26984 10.7616C6.45669 10.5741 6.71011 10.4687 6.97436 10.4687H9.96337V7.46875C9.96337 7.20353 10.0683 6.94918 10.2552 6.76164C10.442 6.57411 10.6955 6.46875 10.9597 6.46875C11.224 6.46875 11.4774 6.57411 11.6642 6.76164C11.8511 6.94918 11.956 7.20353 11.956 7.46875V10.4687H14.9451C15.2093 10.4687 15.4627 10.5741 15.6496 10.7616C15.8364 10.9492 15.9414 11.2035 15.9414 11.4687C15.9414 11.734 15.8364 11.9883 15.6496 12.1759C15.4627 12.3634 15.2093 12.4687 14.9451 12.4687H11.956V15.4687Z" fill="#7A5EF3"/>
</svg>
