<svg width="18" height="19" viewBox="0 0 18 19" fill="none" xmlns="http://www.w3.org/2000/svg">
<path d="M6.95455 3.46875H11.0455C11.0455 2.97147 10.83 2.49456 10.4464 2.14292C10.0628 1.79129 9.54249 1.59375 9 1.59375C8.45751 1.59375 7.93724 1.79129 7.55365 2.14292C7.17005 2.49456 6.95455 2.97147 6.95455 3.46875ZM5.72727 3.46875C5.72727 2.6731 6.07208 1.91004 6.68583 1.34743C7.29959 0.784821 8.13202 0.46875 9 0.46875C9.86798 0.46875 10.7004 0.784821 11.3142 1.34743C11.9279 1.91004 12.2727 2.6731 12.2727 3.46875H17.3864C17.5491 3.46875 17.7052 3.52801 17.8203 3.6335C17.9354 3.73899 18 3.88207 18 4.03125C18 4.18043 17.9354 4.32351 17.8203 4.429C17.7052 4.53449 17.5491 4.59375 17.3864 4.59375H16.3145L15.3188 15.546C15.2464 16.3427 14.8499 17.0854 14.2081 17.6268C13.5663 18.1682 12.726 18.4687 11.8538 18.4688H6.14618C5.27399 18.4687 4.43368 18.1682 3.79187 17.6268C3.15006 17.0854 2.75362 16.3427 2.68118 15.546L1.68545 4.59375H0.613636C0.45089 4.59375 0.294809 4.53449 0.17973 4.429C0.0646507 4.32351 0 4.18043 0 4.03125C0 3.88207 0.0646507 3.73899 0.17973 3.6335C0.294809 3.52801 0.45089 3.46875 0.613636 3.46875H5.72727ZM7.77273 7.78125C7.77273 7.63207 7.70808 7.48899 7.593 7.3835C7.47792 7.27801 7.32184 7.21875 7.15909 7.21875C6.99634 7.21875 6.84026 7.27801 6.72518 7.3835C6.61011 7.48899 6.54545 7.63207 6.54545 7.78125V14.1562C6.54545 14.3054 6.61011 14.4485 6.72518 14.554C6.84026 14.6595 6.99634 14.7188 7.15909 14.7188C7.32184 14.7188 7.47792 14.6595 7.593 14.554C7.70808 14.4485 7.77273 14.3054 7.77273 14.1562V7.78125ZM10.8409 7.21875C10.6782 7.21875 10.5221 7.27801 10.407 7.3835C10.2919 7.48899 10.2273 7.63207 10.2273 7.78125V14.1562C10.2273 14.3054 10.2919 14.4485 10.407 14.554C10.5221 14.6595 10.6782 14.7188 10.8409 14.7188C11.0037 14.7188 11.1597 14.6595 11.2748 14.554C11.3899 14.4485 11.4545 14.3054 11.4545 14.1562V7.78125C11.4545 7.63207 11.3899 7.48899 11.2748 7.3835C11.1597 7.27801 11.0037 7.21875 10.8409 7.21875Z" fill="#393F70"/>
</svg>
