<svg width="10" height="10" viewBox="0 0 10 10" fill="none" xmlns="http://www.w3.org/2000/svg">
<path d="M7.54818 0.435362C7.67973 0.299158 7.83709 0.190517 8.01107 0.115778C8.18506 0.041039 8.37219 0.00169926 8.56154 5.38436e-05C8.75089 -0.00159158 8.93868 0.0344904 9.11393 0.106194C9.28919 0.177898 9.44842 0.283788 9.58231 0.417686C9.71621 0.551583 9.8221 0.710806 9.8938 0.886065C9.96551 1.06132 10.0016 1.24911 9.99995 1.43846C9.9983 1.62781 9.95896 1.81494 9.88422 1.98893C9.80948 2.16291 9.70084 2.32027 9.56464 2.45182L9.17598 2.84048C9.07835 2.93811 8.92006 2.93811 8.82243 2.84048L7.15952 1.17757C7.06189 1.07994 7.06189 0.921652 7.15952 0.824021L7.54818 0.435362ZM6.15129 2.18574C6.05365 2.08814 5.89538 2.08815 5.79777 2.18577L0.0732234 7.91032C0.0263393 7.9572 0 8.02079 0 8.08709V9.75C0 9.88807 0.111929 10 0.25 10H1.91292C1.97921 10 2.0428 9.97366 2.08968 9.92679L7.81486 4.2023C7.91251 4.10465 7.9125 3.94633 7.81484 3.8487L6.15129 2.18574Z" fill="#5936F0"/>
</svg>
