<svg width="16" height="10" viewBox="0 0 17 10" fill="none" xmlns="http://www.w3.org/2000/svg">
<path fill-rule="evenodd" clip-rule="evenodd" d="M11.4552 1.36207C11.2552 1.17163 11.2475 0.855139 11.4379 0.655173C11.6284 0.455208 11.9449 0.447489 12.1448 0.637932L16.725 5L12.1448 9.36207C11.9449 9.55251 11.6284 9.54479 11.4379 9.34483C11.2475 9.14486 11.2552 8.82837 11.4552 8.63793L14.75 5.5H7.65094C6.67407 5.5 5.88531 6.27725 5.23253 7.00399C4.68332 7.61542 3.88657 8 3 8C1.34315 8 0 6.65685 0 5C0 3.34315 1.34315 2 3 2C3.88657 2 4.68332 2.38458 5.23253 2.99601C5.88531 3.72275 6.67407 4.5 7.65094 4.5H14.75L11.4552 1.36207ZM4 5C4 5.55229 3.55228 6 3 6C2.44772 6 2 5.55229 2 5C2 4.44772 2.44772 4 3 4C3.55228 4 4 4.44772 4 5Z" fill="black"/>
</svg>
