<svg width="20" height="19" viewBox="0 0 20 19" fill="none" xmlns="http://www.w3.org/2000/svg">
<g opacity="0.6">
<path class="fill" fill-rule="evenodd" clip-rule="evenodd" d="M16.9504 9.09829L11.7569 11.6675L13.7052 12.3389C13.4023 14.9911 12.2016 16.7565 9.85214 17.6002C13.7672 18.6635 16.4826 16.6533 17.5915 13.6802L19.5789 14.3656L16.9504 9.09829Z" />
<circle class="fill" cx="9.42356" cy="9.52658" r="2.19846" />
<path class="fill" d="M7.29774 9.47473H4.13106C4.18065 10.7322 4.61666 11.9794 5.40149 13.2182H7.29774V14.013H5.96062C6.37127 14.5426 6.81802 15.0436 7.29774 15.5127V16.6075C6.42996 15.8315 5.65176 14.9625 4.97745 14.0164H2.44513C3.00699 14.7674 3.69463 15.4174 4.47816 15.9381C4.92988 16.2398 5.41038 16.497 5.91275 16.7057C5.91275 16.7057 5.92301 16.7057 5.92814 16.7176C6.37017 16.9027 6.82794 17.0484 7.29603 17.1531V17.9716C6.71774 17.8568 6.15282 17.6836 5.6101 17.4548C5.60162 17.4532 5.59384 17.4491 5.58787 17.4429C5.04282 17.2076 4.52033 16.924 4.02676 16.5956C3.54033 16.2749 3.08777 15.9065 2.67596 15.4958C2.26011 15.089 1.8882 14.6403 1.56625 14.157C1.23551 13.6689 0.952123 13.1508 0.719866 12.6098C0.481076 12.0605 0.300569 11.488 0.181256 10.9016C-0.0604186 9.69722 -0.0604186 8.45745 0.181256 7.25306C0.296538 6.67128 0.473642 6.10324 0.709606 5.55842C0.710786 5.55024 0.714352 5.54259 0.719866 5.53639C0.955757 4.99547 1.24197 4.4775 1.5748 3.98919C1.89835 3.50709 2.27013 3.05856 2.68451 2.65042C3.09536 2.23869 3.54802 1.87012 4.03531 1.5506C4.52803 1.22317 5.0507 0.942317 5.59642 0.711757C6.15032 0.476027 6.72734 0.297706 7.31826 0.179641C8.53348 -0.0598803 9.7844 -0.0598803 10.9996 0.179641C11.5866 0.293896 12.1598 0.469422 12.7095 0.703284C12.7178 0.704122 12.7257 0.707701 12.7317 0.713452C13.2769 0.948364 13.7995 1.23197 14.2928 1.56077C14.7793 1.88143 15.2318 2.2499 15.6436 2.66059C16.0603 3.0645 16.4333 3.51034 16.7568 3.99088C17.0897 4.47909 17.376 4.99708 17.6117 5.53809C17.8515 6.08942 18.032 6.66425 18.1503 7.25306C18.1623 7.31068 18.1742 7.36999 18.1845 7.42252H17.3672V7.40558C17.2604 6.87092 17.0971 6.34891 16.8799 5.8482C16.7436 5.53312 16.5894 5.2259 16.4182 4.92802H13.72C14.1879 5.70561 14.5409 6.54565 14.7682 7.42252H13.9423C13.6843 6.53752 13.2922 5.69645 12.7796 4.92802H9.5599V7.42761H8.87595H8.75797V4.9331H5.53829C4.71413 6.20295 4.25075 7.4519 4.14816 8.67994H7.32852C7.31137 8.762 7.30108 8.84532 7.29774 8.92906V9.47473ZM1.91849 13.2182H4.4662C3.78369 12.0802 3.39326 10.7937 3.32913 9.47134H0.813909C0.832731 9.89768 0.884175 10.322 0.967797 10.7406C1.07434 11.2755 1.23828 11.7976 1.45682 12.298C1.59174 12.6137 1.74592 12.921 1.91849 13.2182ZM0.813909 8.67994H3.34623C3.46757 7.35206 3.89648 6.06984 4.59957 4.9331H1.91849C1.74592 5.23027 1.59174 5.53757 1.45682 5.85329C1.45682 5.85329 1.45682 5.86515 1.44485 5.87023C1.06736 6.76208 0.853692 7.71361 0.813909 8.67994ZM2.44 4.13831H5.11424C5.98707 2.9267 7.00184 1.82199 8.13729 0.847328C7.91159 0.876137 7.69272 0.908335 7.47728 0.952396C6.93782 1.0582 6.41111 1.22008 5.90591 1.43537C5.4056 1.64796 4.92598 1.90549 4.47303 2.20473C4.03116 2.50092 3.62094 2.84105 3.24877 3.21982C2.95745 3.50517 2.68931 3.81285 2.44684 4.14001L2.44 4.13831ZM10.1806 0.855802C11.3182 1.82461 12.3327 2.92686 13.2019 4.13831H15.8779C15.3176 3.38771 14.6317 2.73774 13.85 2.2166C13.3986 1.91519 12.9187 1.65808 12.4171 1.44892C12.4171 1.44892 12.4051 1.44892 12.4 1.43706C11.8979 1.22684 11.3754 1.0684 10.8406 0.964258C10.62 0.920198 10.4012 0.888 10.1806 0.860885V0.855802ZM9.5599 1.37267V4.13831H12.2188C11.4307 3.12831 10.5397 2.20153 9.5599 1.37267ZM8.75797 4.13831V1.37267C7.77814 2.20153 6.88714 3.12831 6.09912 4.13831H8.75797Z" />
</g>
</svg>
