<svg width="16" height="19" viewBox="0 0 16 19" fill="none" xmlns="http://www.w3.org/2000/svg">
<path class="fill" fill-rule="evenodd" clip-rule="evenodd" d="M14.6494 1.16131C14.7578 1.14565 14.8683 1.16634 14.9633 1.22006C15.0479 1.25698 15.1198 1.31719 15.1705 1.39343C15.2212 1.46967 15.2484 1.55871 15.249 1.64983L15.2803 6.00322H15.2662H15.2521H15.2443H15.2364H15.2286H15.0355H14.4109H14.3967H14.3826H14.3685H14.3544L14.3293 2.52175L11.3473 4.37688V10.8374C11.1005 11.0078 10.8432 11.1627 10.5767 11.3012L10.3868 11.0198V4.44027L6.49763 3.95639L6.35481 8.05624L4.81203 7.01891L3.26767 7.87845L3.58157 3.59L0.960563 3.26071V12.0479L7.15994 12.7265L6.97318 13.6541L0.456765 12.9445C0.333518 12.9386 0.217327 12.8861 0.132292 12.798C0.0472571 12.71 -9.6925e-05 12.593 5.14152e-05 12.4715V2.732C-0.0013301 2.63868 0.0251564 2.54703 0.0762193 2.46842C0.127282 2.38981 0.20067 2.32772 0.287263 2.28985L5.46021 0.0420465C5.54031 0.00642299 5.62878 -0.00694211 5.71604 0.00339778L14.6494 1.16131ZM7.64334 17.6689L8.92873 11.2363L10.2314 13.1702C13.0376 12.0618 14.6133 10.2314 14.8472 7.41467C17.1527 11.3847 15.7528 14.9434 12.832 17.0274L14.1613 19L7.64334 17.6689ZM10.1404 1.53079L7.31532 3.10921L10.7399 3.53898L13.3169 1.94047L10.1404 1.53079ZM4.34433 2.73509L7.08461 1.13503L5.72545 0.960339L2.23654 2.47691L4.34433 2.74127V2.73509Z" />
</svg>
