<svg width="1em" height="1em" viewBox="0 0 19 16" fill="none" xmlns="http://www.w3.org/2000/svg" class="css-1h4rd1f" style="height: 20px; width: 20px; fill: rgb(40, 43, 46); margin-right: 16px;">
<path d="M17.141 6.858H3.588l4.148-4.982A1.144 1.144 0 0 0 5.976.413L.264 7.269a1.36 1.36 0 0 0-.103.172c0 .057 0 .091-.08.148-.052.131-.079.27-.08.412.001.14.028.28.08.411 0 .057 0 
.092.08.149.03.06.064.117.103.171l5.714 6.857a1.143 1.143 0 0 0 .88.411 1.143 1.143 0 0 0 .88-1.874L3.587 9.143h13.553a1.143 1.143 0 1 0 0-2.285Z">
</path>
</svg>