<svg width="24" id='svg' height="24" viewBox="0 0 24 24" fill="none" xmlns="http://www.w3.org/2000/svg">
<path fill-rule="evenodd" clip-rule="evenodd" d="M5.7998 4.80005C5.24752 4.80005 4.7998 5.24776 4.7998 5.80005V18.2C4.7998 18.7523 5.24752 19.2 5.79981 19.2H18.1998C18.7521 19.2 19.1998 18.7523 19.1998 18.2V5.80005C19.1998 5.24776 18.7521 4.80005 18.1998 4.80005H5.7998ZM13.6954 12.0676L15.643 11.5457C16.258 11.3809 17.1931 11.5905 17.2794 11.9125C17.3657 12.2344 16.6607 12.8835 16.0456 13.0483L11.8429 14.1744C10.6128 14.504 7.95132 14.4119 7.95132 14.4119L6.71614 12.6723L7.33118 12.5075L8.77508 13.386L10.9277 12.8092L8.03991 11.0523L9.06497 10.7776L13.6954 12.0676Z" fill="#EF9B9B"/>
<path d="M10.5601 4.80005H13.4401V9.12005L12.0001 7.68005L10.5601 9.12005V4.80005Z" fill="white"/>
</svg>


