<svg width="20" height="20" id='svg' viewBox="0 0 20 20" fill="none" xmlns="http://www.w3.org/2000/svg">
<path d="M2.4 12.1335C2.4 11.9126 2.57909 11.7335 2.8 11.7335H12.5333C12.7542 11.7335 12.9333 11.9126 12.9333 12.1335V14.2668H2.8C2.57909 14.2668 2.4 14.0877 2.4 13.8668V12.1335Z" fill="#81C0AF" stroke="white" stroke-width="0.8"/>
<path d="M12.668 14.6667H17.2013C17.6431 14.6667 18.0013 14.3085 18.0013 13.8667V10.998C18.0013 10.7859 17.917 10.5824 17.767 10.4324L15.569 8.23431C15.4189 8.08429 15.2154 8 15.0033 8H13.468C13.0261 8 12.668 8.35817 12.668 8.8V14.6667Z" fill="#81C0AF"/>
<rect x="2" y="5.3335" width="10.2857" height="6" rx="0.514286" fill="#81C0AF"/>
<line x1="3.97199" y1="6.87628" x2="3.97199" y2="9.79057" stroke="white" stroke-width="0.514286" stroke-linecap="round"/>
<line x1="5.68683" y1="6.87677" x2="5.68683" y2="9.79106" stroke="white" stroke-width="0.514286" stroke-linecap="round"/>
<line x1="7.40167" y1="6.87677" x2="7.40167" y2="9.79106" stroke="white" stroke-width="0.514286" stroke-linecap="round"/>
<line x1="9.11652" y1="6.87677" x2="9.11652" y2="9.79106" stroke="white" stroke-width="0.514286" stroke-linecap="round"/>
<line x1="10.8275" y1="6.87677" x2="10.8275" y2="9.79106" stroke="white" stroke-width="0.514286" stroke-linecap="round"/>
<path d="M5.08464 14.6668C5.08464 15.2651 4.59961 15.7502 4.0013 15.7502C3.40299 15.7502 2.91797 15.2651 2.91797 14.6668C2.91797 14.0685 3.40299 13.5835 4.0013 13.5835C4.59961 13.5835 5.08464 14.0685 5.08464 14.6668Z" fill="#81C0AF" stroke="white" stroke-width="0.5"/>
<path d="M8.41667 14.6668C8.41667 15.2651 7.93164 15.7502 7.33333 15.7502C6.73502 15.7502 6.25 15.2651 6.25 14.6668C6.25 14.0685 6.73502 13.5835 7.33333 13.5835C7.93164 13.5835 8.41667 14.0685 8.41667 14.6668Z" fill="#81C0AF" stroke="white" stroke-width="0.5"/>
<circle cx="15.3333" cy="14.6668" r="1.08333" fill="#81C0AF" stroke="white" stroke-width="0.5"/>
</svg>
