<svg width="16" height="16" id='svg' viewBox="0 0 16 16" fill="none" xmlns="http://www.w3.org/2000/svg">
<path d="M7.8323 1.06701C7.58002 1.06701 7.36656 1.25142 7.33402 1.49748L7.12227 1.94222H6.52297C6.28326 1.94166 6.07607 2.10869 6.02927 2.33961L5.81752 3.37712H5.12462C4.88033 3.37712 4.67143 3.54975 4.62977 3.78629L4.26562 5.82815L7.45223 4.32151H7.4528C7.77242 4.17017 8.14513 4.17017 8.46533 4.32151L11.7323 5.86689L11.367 3.78629C11.3253 3.5492 11.1164 3.376 10.8716 3.376H10.1793L9.96751 2.33849H9.96694C9.92014 2.107 9.71352 1.94054 9.47324 1.9411H8.87566L8.66391 1.49736C8.63138 1.25131 8.41791 1.06689 8.16563 1.06689L7.8323 1.06701Z" fill="#356EFD"/>
<path d="M2.72609 8.69094L3.94821 11.4378C4.43949 11.0842 5.0226 10.8998 5.61676 10.9104C6.2469 10.9027 6.86322 11.1094 7.37439 11.5011C7.61229 11.6644 7.71021 11.7335 7.98904 11.7335H7.99734C8.2806 11.7335 8.37852 11.6644 8.61366 11.5028C9.12431 11.1106 9.74116 10.9039 10.3724 10.9121C10.9661 10.9016 11.5486 11.086 12.0394 11.4396L13.2687 8.69089C13.4198 8.35484 13.2853 7.95264 12.9689 7.79164L8.24691 5.39365C8.08923 5.31344 7.90555 5.31344 7.74788 5.39365L3.02592 7.79164C2.70946 7.95264 2.57506 8.35489 2.72609 8.69094Z" fill="#356EFD"/>
<path d="M3.73438 12.2671L4.44549 12.8004C4.86689 13.1165 5.44631 13.1165 5.86771 12.8004V12.8004C6.28911 12.4844 6.86853 12.4844 7.28993 12.8004V12.8004C7.71133 13.1165 8.29075 13.1165 8.71215 12.8004V12.8004C9.13355 12.4844 9.71298 12.4844 10.1344 12.8004V12.8004C10.5558 13.1165 11.1352 13.1165 11.5566 12.8004L12.2677 12.2671" stroke="#356EFD" stroke-width="0.8"/>
<path d="M3.73438 13.8667L4.44549 14.4C4.86689 14.7161 5.44631 14.7161 5.86771 14.4V14.4C6.28911 14.084 6.86853 14.084 7.28993 14.4V14.4C7.71133 14.7161 8.29075 14.7161 8.71215 14.4V14.4C9.13355 14.084 9.71298 14.084 10.1344 14.4V14.4C10.5558 14.7161 11.1352 14.7161 11.5566 14.4L12.2677 13.8667" stroke="#356EFD" stroke-width="0.8"/>
</svg>

