<svg width="23" height="11" viewBox="0 0 23 11" fill="none" xmlns="http://www.w3.org/2000/svg">
<path opacity="0.8" d="M17.2899 10.9564C17.4585 11.0327 17.6138 11.0089 17.7558 10.8847L22.8669 5.87235C22.9556 5.77688 23 5.66708 23 5.54296C23 5.4093 22.9556 5.29473 22.8669 5.19926L17.7558 0.115251C17.6138 -0.00886547 17.4585 -0.032734 17.2899 0.0436454C17.1213 0.129572 17.037 0.26801 17.037 0.458958V3.66689L0.425926 3.66689C0.301698 3.66689 0.199653 3.70986 0.119792 3.79578C0.0399306 3.88171 0 3.99151 0 4.12517L0 6.87483C0 7.00849 0.0399306 7.11829 0.119792 7.20422C0.199653 7.29014 0.301698 7.33311 0.425926 7.33311L17.037 7.33311V10.541C17.037 10.7415 17.1213 10.88 17.2899 10.9564Z" fill="#8CC1F9"/>
</svg>
