<svg width="24" height="24" viewBox="0 0 17 16" fill="none" xmlns="http://www.w3.org/2000/svg">
<path fill-rule="evenodd" clip-rule="evenodd" d="M0 14.8456C0 10.4209 3.62812 11.9491 4.84487 10.4044C5.73771 12.505 8.96163 12.3271 10.0538 10.4044C10.1869 10.5474 10.345 10.6651 10.5203 10.752C10.4577 10.9946 10.4772 11.2511 10.5757 11.4816L10.613 11.5574C10.5548 11.572 10.4975 11.59 10.4414 11.6112C10.1574 11.7306 9.93135 11.9558 9.81156 12.2388L9.78387 12.3188C9.74652 12.4333 9.72737 12.5529 9.72712 12.6733V13.4001C9.72716 13.5497 9.75679 13.6978 9.81433 13.836L9.84893 13.9063C9.90032 14.0139 9.96801 14.113 10.0497 14.2001L10.069 14.2194C10.1719 14.3221 10.2936 14.404 10.4276 14.4608L10.5189 14.4939C10.4509 14.6027 10.4013 14.722 10.3722 14.8469L0 14.8456ZM16.0075 10.934C15.9816 10.9069 15.9505 10.8853 15.916 10.8705C15.8815 10.8558 15.8443 10.8482 15.8067 10.8482C15.7692 10.8482 15.732 10.8558 15.6975 10.8705C15.663 10.8853 15.6319 10.9069 15.606 10.934L15.2987 11.2388C15.2157 11.1869 15.1293 11.1409 15.0399 11.1009C14.9497 11.0599 14.8573 11.024 14.763 10.9933V10.523C14.7638 10.4857 14.7569 10.4486 14.7429 10.414C14.7289 10.3794 14.7079 10.3479 14.6813 10.3216C14.6551 10.2953 14.6238 10.2745 14.5893 10.2606C14.5548 10.2466 14.5179 10.2397 14.4806 10.2403H13.8909C13.8542 10.24 13.8177 10.2471 13.7838 10.2611C13.7498 10.2751 13.7189 10.2957 13.693 10.3216C13.6659 10.3477 13.6445 10.379 13.6299 10.4136C13.6154 10.4483 13.6081 10.4855 13.6086 10.523V10.9506C13.5115 10.9733 13.4163 11.0028 13.3234 11.0388C13.2327 11.0734 13.1444 11.114 13.059 11.1602L12.7199 10.8264C12.695 10.7993 12.6646 10.7778 12.6307 10.7633C12.5968 10.7488 12.5602 10.7416 12.5233 10.7423C12.4859 10.7421 12.4488 10.7494 12.4143 10.7639C12.3798 10.7783 12.3486 10.7996 12.3226 10.8264L11.9073 11.2402C11.8801 11.266 11.8584 11.297 11.8436 11.3314C11.8288 11.3658 11.8211 11.4028 11.8211 11.4402C11.8211 11.4776 11.8288 11.5146 11.8436 11.549C11.8584 11.5834 11.8801 11.6144 11.9073 11.6402L12.2132 11.9464C12.1606 12.0288 12.1144 12.115 12.0748 12.2043C12.0336 12.2942 11.9976 12.3863 11.9668 12.4802H11.4893C11.4158 12.4802 11.3454 12.5092 11.2935 12.561C11.2416 12.6127 11.2124 12.6828 11.2124 12.756V13.3436C11.2122 13.3802 11.2193 13.4165 11.2333 13.4504C11.2474 13.4842 11.268 13.515 11.2941 13.5408C11.3198 13.568 11.3509 13.5896 11.3855 13.604C11.4201 13.6185 11.4573 13.6257 11.4948 13.6249H11.9253C11.9481 13.7216 11.9777 13.8165 12.0139 13.9091C12.049 14.0009 12.0892 14.0907 12.1343 14.178L11.8007 14.5104C11.7733 14.5351 11.7516 14.5653 11.737 14.5991C11.7224 14.6329 11.7154 14.6695 11.7163 14.7063C11.7161 14.7436 11.7234 14.7805 11.7379 14.8149C11.7525 14.8493 11.7738 14.8803 11.8007 14.9063L12.216 15.32C12.2705 15.3705 12.3423 15.3986 12.4167 15.3986C12.4912 15.3986 12.5629 15.3705 12.6174 15.32L12.9234 15.0097C13.0065 15.0621 13.0935 15.1082 13.1836 15.1476C13.2738 15.1885 13.3663 15.2244 13.4604 15.2552V15.7241C13.4604 15.7973 13.4896 15.8675 13.5415 15.9192C13.5934 15.9709 13.6639 16 13.7373 16H14.327C14.4004 16 14.4708 15.9709 14.5227 15.9192C14.5747 15.8675 14.6038 15.7973 14.6038 15.7241V15.3035C14.7006 15.2806 14.7959 15.2515 14.889 15.2166C14.9817 15.1807 15.0717 15.1393 15.1658 15.0952L15.4994 15.4276C15.5243 15.4553 15.5548 15.4773 15.589 15.492C15.6232 15.5068 15.6601 15.514 15.6974 15.5131C15.7348 15.5138 15.7719 15.5066 15.8063 15.4918C15.8407 15.4771 15.8715 15.4552 15.8967 15.4276L16.312 15.0138C16.3627 14.9595 16.3909 14.888 16.3909 14.8138C16.3909 14.7396 16.3627 14.6682 16.312 14.6139L16.0005 14.309C16.0531 14.2262 16.0994 14.1395 16.139 14.0497C16.18 13.9598 16.216 13.8677 16.2469 13.7739H16.7162C16.7538 13.7745 16.791 13.7674 16.8258 13.7532C16.8605 13.739 16.892 13.7179 16.9183 13.6911C16.9447 13.665 16.9656 13.6338 16.9796 13.5994C16.9936 13.5651 17.0005 13.5282 17 13.4911V12.9077C17.0002 12.8711 16.9931 12.8348 16.979 12.8009C16.965 12.7671 16.9444 12.7363 16.9183 12.7105C16.892 12.6838 16.8605 12.6626 16.8258 12.6484C16.791 12.6342 16.7538 12.6271 16.7162 12.6277H16.2871C16.2632 12.5341 16.2336 12.442 16.1985 12.3519C16.164 12.2605 16.1233 12.1715 16.0767 12.0857L16.4117 11.7478C16.4387 11.7231 16.4602 11.693 16.4747 11.6595C16.4893 11.626 16.4966 11.5898 16.4961 11.5533C16.4961 11.5158 16.4887 11.4787 16.4742 11.4442C16.4597 11.4096 16.4384 11.3783 16.4117 11.3519L15.9964 10.9382L16.0075 10.934ZM14.111 11.9781C14.2655 11.9774 14.4186 12.0079 14.5609 12.0678C14.8395 12.1836 15.0605 12.4048 15.1755 12.6829C15.2349 12.8249 15.2655 12.9773 15.2655 13.1312C15.2655 13.285 15.2349 13.4374 15.1755 13.5794C15.0599 13.8565 14.839 14.0766 14.5609 14.1918C14.4184 14.251 14.2655 14.2815 14.111 14.2815C13.9566 14.2815 13.8037 14.251 13.6612 14.1918C13.3831 14.0766 13.1621 13.8565 13.0465 13.5794C12.9872 13.4374 12.9566 13.285 12.9566 13.1312C12.9566 12.9773 12.9872 12.8249 13.0465 12.6829C13.1621 12.4059 13.3831 12.1857 13.6612 12.0705C13.8035 12.0107 13.9565 11.9802 14.111 11.9809V11.9781ZM4.25518 5.78667C4.12533 5.78366 3.99725 5.81712 3.88559 5.88321C3.83872 5.91219 3.8016 5.95445 3.779 6.00459C3.75223 6.06627 3.74037 6.13336 3.74439 6.20044C3.75132 6.42388 3.86759 6.7149 4.09461 7.05144L4.82965 8.2169C5.12172 8.68998 5.43733 9.16582 5.82215 9.51064C6.20037 9.87514 6.70651 10.0781 7.2327 10.0761C7.50723 10.0815 7.7801 10.0326 8.03553 9.93224C8.29095 9.83186 8.52386 9.682 8.72077 9.49133C9.11667 9.12169 9.43089 8.61413 9.73819 8.11208L10.5687 6.75214C10.7238 6.40043 10.7805 6.16458 10.7445 6.02803C10.7238 5.94528 10.6324 5.90528 10.4774 5.89701C10.4442 5.89701 10.4109 5.89701 10.3763 5.89701L10.2601 5.9039C10.2389 5.90669 10.2175 5.90669 10.1964 5.9039C10.1193 5.90399 10.0424 5.89706 9.96659 5.88321L10.2517 4.63086C8.14492 4.96188 6.56965 3.40333 4.34377 4.31915L4.50435 5.79494C4.42122 5.80035 4.33776 5.79757 4.25518 5.78667ZM10.7612 5.52185C10.8571 5.54666 10.9444 5.5974 11.0132 5.66846C11.0821 5.73953 11.13 5.82816 11.1515 5.92459C11.211 6.15493 11.1515 6.47629 10.9494 6.92593L10.937 6.94937L10.105 8.32448C9.78249 8.85411 9.45442 9.3865 9.017 9.79476C8.78252 10.0233 8.50473 10.2031 8.19982 10.3236C7.89491 10.4442 7.56898 10.503 7.24101 10.4968C6.60614 10.5037 5.99404 10.2614 5.537 9.82235C5.11203 9.4334 4.78673 8.93273 4.47666 8.4431L3.74024 7.27763C3.4717 6.87765 3.32497 6.51215 3.32497 6.21285C3.31921 6.08169 3.34384 5.95096 3.39695 5.8308C3.4527 5.71234 3.5398 5.61125 3.64888 5.5384C3.70456 5.50146 3.76452 5.47136 3.82745 5.44875C3.77688 4.75111 3.76533 4.05121 3.79284 3.35229C3.81009 3.19246 3.84018 3.03426 3.88282 2.87921C4.08906 2.21806 4.53259 1.65583 5.12864 1.29997C5.4517 1.09629 5.80284 0.940641 6.17098 0.837925C6.40354 0.771721 5.97165 0.0269267 6.2139 0.0103758C7.3822 -0.116515 9.27447 0.945506 10.0884 1.82547C10.4954 2.26683 10.7528 2.84887 10.8082 3.61849L10.7625 5.51909L10.7612 5.52185Z" fill="#828282"/>
</svg>
