<svg width="118" height="24" viewBox="0 0 118 24" fill="none" xmlns="http://www.w3.org/2000/svg">
<path d="M109.427 6.9824H110.973V12.7129C110.973 14.1884 111.389 15.3248 112.219 16.1259C112.572 16.4798 113.005 16.7667 113.521 16.9791C114.051 17.1728 114.645 17.2734 115.297 17.2734C115.865 17.2734 116.377 17.2213 116.836 17.1132C117.089 17.0648 117.333 17.0052 117.567 16.9269C117.916 16.8114 118.079 16.4239 117.964 16.0737L117.352 14.166C117.263 13.894 116.94 13.7785 116.673 13.8866C116.495 13.9387 116.258 13.9648 115.958 13.9648C115.498 13.9648 115.145 13.8232 114.897 13.5401C114.719 13.3612 114.596 13.1488 114.526 12.8992C114.474 12.6309 114.448 12.3478 114.448 12.046V6.9824H116.896C117.3 6.9824 117.63 6.6508 117.63 6.24467V4.1805C117.63 3.77437 117.3 3.44277 116.896 3.44277H114.448V0.737735C114.448 0.331608 114.118 0 113.714 0H111.707C111.303 0 110.973 0.331608 110.973 0.737735V3.44277H109.427C109.022 3.44277 108.692 3.77437 108.692 4.1805V6.24467C108.692 6.65452 109.022 6.9824 109.427 6.9824Z" fill="black"/>
<path d="M11.0331 8.75668C12.2199 8.75668 13.0914 7.62399 12.4498 6.62544C11.2445 4.74757 9.14914 3.50684 6.76821 3.50684C3.02994 3.50684 0 6.5621 0 10.329C0 14.0959 3.02994 17.1549 6.76821 17.1549C9.14914 17.1549 11.2445 15.9142 12.4498 14.0363C13.0914 13.0378 12.2199 11.9051 11.0331 11.9051H10.9923C10.4249 11.9051 9.92424 12.2516 9.5608 12.6913C8.89325 13.4961 7.88822 14.0065 6.76821 14.0065C4.75444 14.0065 3.12265 12.3597 3.12265 10.3327C3.12265 8.30584 4.75444 6.65898 6.76821 6.65898C7.88822 6.65898 8.89325 7.16943 9.5608 7.97423C9.92424 8.41389 10.4249 8.7604 10.9923 8.7604H11.0331V8.75668Z" fill="black"/>
<path fill-rule="evenodd" clip-rule="evenodd" d="M54.8987 17.5229C58.6518 17.5229 61.6928 14.4676 61.6928 10.697C61.6928 6.92636 58.6518 3.87109 54.8987 3.87109C51.1456 3.87109 48.1045 6.92636 48.1045 10.697C48.1045 14.4676 51.1456 17.5229 54.8987 17.5229ZM54.8987 14.3745C56.9199 14.3745 58.5554 12.7276 58.5554 10.7007C58.5554 8.67382 56.9162 7.02696 54.8987 7.02696C52.8775 7.02696 51.242 8.67382 51.242 10.7007C51.242 12.7276 52.8775 14.3745 54.8987 14.3745Z" fill="black"/>
<path d="M100.941 5.80804H100.73V4.73497C100.73 4.32884 100.4 3.99723 99.9956 3.99723H98.0448C97.6406 3.99723 97.3105 4.32884 97.3105 4.73497V16.3189C97.3105 16.725 97.6406 17.0566 98.0448 17.0566H100.207C100.611 17.0566 100.941 16.725 100.941 16.3189V10.6592C100.941 9.50417 101.249 8.59876 101.861 7.93927C102.491 7.26488 103.352 6.92582 104.438 6.92582C104.772 6.92582 105.054 6.9519 105.28 7.00406C105.596 7.07113 105.937 6.84757 105.937 6.51969V4.2655C105.937 3.95625 105.74 3.6768 105.436 3.64327C105.262 3.62464 105.024 3.61719 104.724 3.61719C103.901 3.61719 103.144 3.82211 102.462 4.23197C101.798 4.62692 101.29 5.15227 100.941 5.80804Z" fill="black"/>
<path fill-rule="evenodd" clip-rule="evenodd" d="M94.5542 10.697C94.5542 14.4676 91.5131 17.5229 87.76 17.5229C84.0069 17.5229 80.9658 14.4676 80.9658 10.697C80.9658 6.92636 84.0069 3.87109 87.76 3.87109C91.5131 3.87109 94.5542 6.93009 94.5542 10.697ZM91.3685 10.697C91.3685 12.7276 89.7404 14.3708 87.7303 14.3708C85.7203 14.3708 84.0922 12.7239 84.0922 10.697C84.0922 8.6701 85.7203 7.02323 87.7303 7.02323C89.7367 7.02323 91.3685 8.6701 91.3685 10.697Z" fill="black"/>
<path fill-rule="evenodd" clip-rule="evenodd" d="M22.2141 17.5231C25.9672 17.5231 29.0083 14.4678 29.0083 10.6972C29.0083 6.92654 25.9672 3.875 22.2141 3.875C18.461 3.875 15.4199 6.93027 15.4199 10.7009C15.4199 14.4716 18.4647 17.5231 22.2141 17.5231ZM22.2141 14.3747C24.2353 14.3747 25.8708 12.7278 25.8708 10.7009C25.8708 8.674 24.2316 7.02714 22.2141 7.02714C20.1966 7.02714 18.5574 8.674 18.5574 10.7009C18.5574 12.7278 20.1966 14.3747 22.2141 14.3747Z" fill="black"/>
<path fill-rule="evenodd" clip-rule="evenodd" d="M78.0337 10.6972C78.0337 14.4678 74.9926 17.5231 71.2395 17.5231C69.9637 17.5231 68.7695 17.1691 67.7497 16.5544V22.5047C67.7497 22.9108 67.4196 23.2424 67.0154 23.2424H65.1796C64.7754 23.2424 64.4453 22.9108 64.4453 22.5047V4.61274C64.4453 4.20661 64.7754 3.875 65.1796 3.875H67.0154C67.4196 3.875 67.7497 4.20661 67.7497 4.61274V4.84374C68.7695 4.22896 69.9637 3.875 71.2395 3.875C74.9926 3.875 78.0337 6.93027 78.0337 10.6972ZM74.8443 10.6972C74.8443 12.7278 73.2162 14.371 71.2061 14.371C69.196 14.371 67.568 12.7241 67.568 10.6972C67.568 8.67028 69.196 7.02342 71.2061 7.02342C73.2162 7.02342 74.8443 8.67028 74.8443 10.6972Z" fill="black"/>
<path fill-rule="evenodd" clip-rule="evenodd" d="M38.5588 17.5229C39.8383 17.5229 41.0325 17.169 42.0523 16.5505C42.0041 17.6347 41.6889 18.4879 41.1029 19.1064C40.465 19.7995 39.6009 20.146 38.5032 20.146C37.8134 20.146 37.1866 19.9522 36.6192 19.561C36.2558 19.3225 35.9591 19.017 35.7291 18.6482C35.5066 18.2942 35.0801 18.0893 34.6907 18.2458L32.7326 19.0319C32.3692 19.1772 32.18 19.5908 32.3654 19.9373C32.499 20.187 32.6621 20.4329 32.8513 20.6825C33.2036 21.1445 33.6486 21.5618 34.179 21.9344C34.7093 22.3257 35.3286 22.6349 36.037 22.8659C36.7639 23.1155 37.5835 23.2385 38.5032 23.2385C39.5305 23.2385 40.4576 23.0708 41.2884 22.7318C42.1376 22.4113 42.8608 21.9419 43.4653 21.3196C44.0661 20.716 44.5371 19.9709 44.8709 19.0804C45.2084 18.2085 45.353 17.2248 45.353 16.122V4.60883C45.353 4.2027 45.0229 3.87109 44.6187 3.87109H42.7829C42.3787 3.87109 42.0486 4.2027 42.0486 4.60883V4.81376V4.83984C41.0288 4.22506 39.8346 3.87109 38.5588 3.87109C34.8057 3.87109 31.7646 6.92636 31.7646 10.697C31.7646 14.4677 34.8057 17.5229 38.5588 17.5229ZM38.5217 14.3745C40.5318 14.3745 42.1599 12.7276 42.1599 10.7007C42.1599 8.67382 40.5318 7.02696 38.5217 7.02696C36.5117 7.02696 34.8836 8.67382 34.8836 10.7007C34.8836 12.7276 36.5117 14.3745 38.5217 14.3745Z" fill="black"/>
</svg>
