<svg width="118" height="24" viewBox="0 0 118 24" fill="none" xmlns="http://www.w3.org/2000/svg">
<path d="M109.426 6.9824H110.972V12.7129C110.972 14.1884 111.388 15.3248 112.218 16.1259C112.571 16.4798 113.005 16.7667 113.52 16.9791C114.05 17.1728 114.644 17.2734 115.296 17.2734C115.864 17.2734 116.376 17.2213 116.836 17.1132C117.088 17.0648 117.332 17.0052 117.566 16.9269C117.915 16.8114 118.078 16.4239 117.963 16.0737L117.351 14.166C117.262 13.894 116.939 13.7785 116.672 13.8866C116.494 13.9387 116.257 13.9648 115.957 13.9648C115.497 13.9648 115.144 13.8232 114.896 13.5401C114.718 13.3612 114.596 13.1488 114.525 12.8992C114.473 12.6309 114.447 12.3478 114.447 12.046V6.9824H116.895C117.299 6.9824 117.629 6.6508 117.629 6.24467V4.1805C117.629 3.77437 117.299 3.44277 116.895 3.44277H114.447V0.737735C114.447 0.331608 114.117 0 113.713 0H111.707C111.302 0 110.972 0.331608 110.972 0.737735V3.44277H109.426C109.021 3.44277 108.691 3.77437 108.691 4.1805V6.24467C108.691 6.65452 109.021 6.9824 109.426 6.9824Z" fill="white"/>
<path d="M11.0331 8.75668C12.2199 8.75668 13.0914 7.62399 12.4498 6.62544C11.2445 4.74757 9.14914 3.50684 6.76821 3.50684C3.02994 3.50684 0 6.5621 0 10.329C0 14.0959 3.02994 17.1549 6.76821 17.1549C9.14914 17.1549 11.2445 15.9142 12.4498 14.0363C13.0914 13.0378 12.2199 11.9051 11.0331 11.9051H10.9923C10.4249 11.9051 9.92424 12.2516 9.5608 12.6913C8.89325 13.4961 7.88822 14.0065 6.76821 14.0065C4.75444 14.0065 3.12265 12.3597 3.12265 10.3327C3.12265 8.30584 4.75444 6.65898 6.76821 6.65898C7.88822 6.65898 8.89325 7.16943 9.5608 7.97423C9.92424 8.41389 10.4249 8.7604 10.9923 8.7604H11.0331V8.75668Z" fill="white"/>
<path fill-rule="evenodd" clip-rule="evenodd" d="M54.8996 17.5229C58.6528 17.5229 61.6938 14.4676 61.6938 10.697C61.6938 6.92636 58.6528 3.87109 54.8996 3.87109C51.1465 3.87109 48.1055 6.92636 48.1055 10.697C48.1055 14.4676 51.1465 17.5229 54.8996 17.5229ZM54.8996 14.3745C56.9208 14.3745 58.5563 12.7276 58.5563 10.7007C58.5563 8.67382 56.9171 7.02696 54.8996 7.02696C52.8785 7.02696 51.243 8.67382 51.243 10.7007C51.243 12.7276 52.8785 14.3745 54.8996 14.3745Z" fill="white"/>
<path d="M100.941 5.80804H100.73V4.73497C100.73 4.32884 100.4 3.99723 99.9956 3.99723H98.0448C97.6406 3.99723 97.3105 4.32884 97.3105 4.73497V16.3189C97.3105 16.725 97.6406 17.0566 98.0448 17.0566H100.207C100.611 17.0566 100.941 16.725 100.941 16.3189V10.6592C100.941 9.50417 101.249 8.59876 101.861 7.93927C102.491 7.26488 103.352 6.92582 104.438 6.92582C104.772 6.92582 105.054 6.9519 105.28 7.00406C105.596 7.07113 105.937 6.84757 105.937 6.51969V4.2655C105.937 3.95625 105.74 3.6768 105.436 3.64327C105.262 3.62464 105.024 3.61719 104.724 3.61719C103.901 3.61719 103.144 3.82211 102.462 4.23197C101.798 4.62692 101.29 5.15227 100.941 5.80804Z" fill="white"/>
<path fill-rule="evenodd" clip-rule="evenodd" d="M94.5532 10.697C94.5532 14.4676 91.5121 17.5229 87.759 17.5229C84.0059 17.5229 80.9648 14.4676 80.9648 10.697C80.9648 6.92636 84.0059 3.87109 87.759 3.87109C91.5121 3.87109 94.5532 6.93009 94.5532 10.697ZM91.3675 10.697C91.3675 12.7276 89.7394 14.3708 87.7293 14.3708C85.7193 14.3708 84.0912 12.7239 84.0912 10.697C84.0912 8.6701 85.7193 7.02323 87.7293 7.02323C89.7357 7.02323 91.3675 8.6701 91.3675 10.697Z" fill="white"/>
<path fill-rule="evenodd" clip-rule="evenodd" d="M22.2141 17.5231C25.9672 17.5231 29.0083 14.4678 29.0083 10.6972C29.0083 6.92654 25.9672 3.875 22.2141 3.875C18.461 3.875 15.4199 6.93027 15.4199 10.7009C15.4199 14.4716 18.4647 17.5231 22.2141 17.5231ZM22.2141 14.3747C24.2353 14.3747 25.8708 12.7278 25.8708 10.7009C25.8708 8.674 24.2316 7.02714 22.2141 7.02714C20.1966 7.02714 18.5574 8.674 18.5574 10.7009C18.5574 12.7278 20.1966 14.3747 22.2141 14.3747Z" fill="white"/>
<path fill-rule="evenodd" clip-rule="evenodd" d="M78.0337 10.6972C78.0337 14.4678 74.9926 17.5231 71.2395 17.5231C69.9637 17.5231 68.7695 17.1691 67.7497 16.5544V22.5047C67.7497 22.9108 67.4196 23.2424 67.0154 23.2424H65.1796C64.7754 23.2424 64.4453 22.9108 64.4453 22.5047V4.61274C64.4453 4.20661 64.7754 3.875 65.1796 3.875H67.0154C67.4196 3.875 67.7497 4.20661 67.7497 4.61274V4.84374C68.7695 4.22896 69.9637 3.875 71.2395 3.875C74.9926 3.875 78.0337 6.93027 78.0337 10.6972ZM74.8443 10.6972C74.8443 12.7278 73.2162 14.371 71.2061 14.371C69.196 14.371 67.568 12.7241 67.568 10.6972C67.568 8.67028 69.196 7.02342 71.2061 7.02342C73.2162 7.02342 74.8443 8.67028 74.8443 10.6972Z" fill="white"/>
<path fill-rule="evenodd" clip-rule="evenodd" d="M38.5578 17.5229C39.8373 17.5229 41.0315 17.169 42.0514 16.5505C42.0031 17.6347 41.6879 18.4879 41.102 19.1064C40.4641 19.7995 39.6 20.146 38.5022 20.146C37.8124 20.146 37.1857 19.9522 36.6182 19.561C36.2548 19.3225 35.9581 19.017 35.7282 18.6482C35.5057 18.2942 35.0792 18.0893 34.6898 18.2458L32.7316 19.0319C32.3682 19.1772 32.179 19.5908 32.3645 19.9373C32.498 20.187 32.6612 20.4329 32.8503 20.6825C33.2026 21.1445 33.6476 21.5618 34.178 21.9344C34.7083 22.3257 35.3276 22.6349 36.036 22.8659C36.7629 23.1155 37.5825 23.2385 38.5022 23.2385C39.5295 23.2385 40.4567 23.0708 41.2874 22.7318C42.1367 22.4113 42.8598 21.9419 43.4643 21.3196C44.0651 20.716 44.5361 19.9709 44.8699 19.0804C45.2074 18.2085 45.352 17.2248 45.352 16.122V4.60883C45.352 4.2027 45.0219 3.87109 44.6177 3.87109H42.7819C42.3777 3.87109 42.0476 4.2027 42.0476 4.60883V4.81376V4.83984C41.0278 4.22506 39.8336 3.87109 38.5578 3.87109C34.8047 3.87109 31.7637 6.92636 31.7637 10.697C31.7637 14.4677 34.8047 17.5229 38.5578 17.5229ZM38.5208 14.3745C40.5308 14.3745 42.1589 12.7276 42.1589 10.7007C42.1589 8.67382 40.5308 7.02696 38.5208 7.02696C36.5107 7.02696 34.8826 8.67382 34.8826 10.7007C34.8826 12.7276 36.5107 14.3745 38.5208 14.3745Z" fill="white"/>
</svg>
