<svg width="46" height="46" viewBox="0 0 46 46" fill="none" xmlns="http://www.w3.org/2000/svg">
<rect x="0.893066" y="0.00390625" width="45" height="45" rx="4" fill="#4F80F8"/>
<path d="M19.0387 16.361H13.9689C13.811 16.361 13.6557 16.4021 13.5176 16.4804C13.3795 16.5587 13.2631 16.6717 13.1795 16.8087L9.96221 22.0753H5.85875C5.77792 22.0753 5.69847 22.0967 5.62822 22.1376C5.55797 22.1785 5.49934 22.2374 5.4581 22.3086C5.41685 22.3797 5.39442 22.4606 5.39302 22.5432C5.39161 22.6259 5.41127 22.7075 5.45007 22.7801L9.11507 29.6534C9.93486 29.7658 10.7691 29.6523 11.5317 29.3247C12.2943 28.9971 12.9576 28.4671 13.4532 27.7896C13.8863 28.3815 14.4484 28.8618 15.0948 29.1925C15.7412 29.5231 16.4541 29.695 17.1768 29.6944C17.8995 29.695 18.6124 29.5231 19.2588 29.1925C19.9052 28.8618 20.4673 28.3815 20.9005 27.7896C21.3856 28.4527 22.0316 28.9746 22.7746 29.3037C23.5175 29.6328 24.3316 29.7576 25.1362 29.6658L26.2868 23.1982C26.3112 23.0609 26.3058 22.9198 26.2711 22.7849C26.2363 22.65 26.173 22.5246 26.0856 22.4175C25.9982 22.3103 25.8889 22.2242 25.7654 22.1651C25.6419 22.1059 25.5071 22.0753 25.3708 22.0753H24.6242V17.3134C24.6242 17.0608 24.5261 16.8186 24.3515 16.64C24.1769 16.4614 23.9402 16.361 23.6933 16.361H22.7623V13.5039H19.0387V16.361ZM22.7623 22.0753H12.1573L14.4846 18.2658H22.7623V22.0753ZM24.6242 31.5991C23.2499 31.6011 21.9235 31.0827 20.9005 30.1439C19.8775 31.0827 18.5511 31.6011 17.1768 31.5991C15.8025 31.6011 14.4762 31.0827 13.4532 30.1439C12.4301 31.0827 11.1038 31.6011 9.72948 31.5991H7.86764V33.5039H9.72948C11.0368 33.5061 12.3215 33.1545 13.4532 32.4848C14.5848 33.1545 15.8695 33.5061 17.1768 33.5039C18.4842 33.5061 19.7688 33.1545 20.9005 32.4848C22.0322 33.1545 23.3168 33.5061 24.6242 33.5039L26.4898 32.9776L26.486 31.5991H24.6242Z" fill="white"/>
<path d="M35.8074 30.1439C36.8304 31.0827 38.1568 31.6011 39.531 31.5991H41.3929V33.5039H39.531C38.2237 33.5061 36.939 33.1545 35.8074 32.4848C34.6757 33.1545 33.391 33.5061 32.0837 33.5039C30.7763 33.5061 29.4917 33.1545 28.36 32.4848C27.2283 33.1545 25.9437 33.5061 24.6363 33.5039L22.7985 32.9776L22.7745 31.5991H24.6363C26.0106 31.6011 27.337 31.0827 28.36 30.1439C29.383 31.0827 30.7094 31.6011 32.0837 31.5991C33.458 31.6011 34.7843 31.0827 35.8074 30.1439Z" fill="white"/>
<path d="M34.6521 27.1444C33.0208 25.1329 29.3927 20.2578 29.3927 17.5195C29.3927 14.1971 32.079 11.5039 35.3927 11.5039C38.7052 11.5039 41.3927 14.1971 41.3927 17.5195C41.3927 20.2578 37.7365 25.1329 36.1333 27.1444C35.749 27.6237 35.0365 27.6237 34.6521 27.1444ZM35.3927 19.5247C36.4958 19.5247 37.3927 18.6255 37.3927 17.5195C37.3927 16.4135 36.4958 15.5143 35.3927 15.5143C34.2896 15.5143 33.3927 16.4135 33.3927 17.5195C33.3927 18.6255 34.2896 19.5247 35.3927 19.5247Z" fill="#FBE39F"/>
</svg>
