<svg width="44" height="44" viewBox="0 0 44 44" fill="none" xmlns="http://www.w3.org/2000/svg">
<rect width="44" height="44" rx="4" fill="#F68B21"/>
<path d="M15.6027 10.4336C14.8488 10.4336 14.1258 10.7382 13.5927 11.2803C13.0596 11.8225 12.7601 12.5578 12.7601 13.3246V19.2577C12.7601 19.6591 13.216 19.905 13.5776 19.7309C14.2808 19.3923 15.0414 19.1859 15.8223 19.1246C16.9171 19.0387 18.0152 19.2408 19.0108 19.7116C20.0065 20.1824 20.8662 20.906 21.5072 21.8127C22.0623 22.5978 22.4371 23.4973 22.6067 24.445C22.6517 24.6961 22.8638 24.8885 23.1188 24.8885H27.6864C27.8749 24.8885 28.0556 24.9646 28.1889 25.1002C28.3221 25.2357 28.397 25.4196 28.397 25.6112C28.397 25.8029 28.3221 25.9868 28.1889 26.1223C28.0556 26.2578 27.8749 26.334 27.6864 26.334H23.1174C22.8624 26.334 22.6503 26.5264 22.6053 26.7775C22.5245 27.2291 22.3969 27.6709 22.2245 28.0953C22.1458 28.2891 22.1824 28.513 22.329 28.6621L24.1568 30.521C24.2508 30.6166 24.3792 30.6704 24.5133 30.6704H29.8169C30.5708 30.6704 31.2938 30.3659 31.8269 29.8237C32.3599 29.2815 32.6594 28.5462 32.6594 27.7795V13.3246C32.6594 12.5578 32.3599 11.8225 31.8269 11.2803C31.2938 10.7382 30.5708 10.4336 29.8169 10.4336H15.6027ZM19.1559 16.5769C19.1559 16.8645 19.0436 17.1402 18.8437 17.3435C18.6437 17.5468 18.3726 17.661 18.0899 17.661C17.8072 17.661 17.5361 17.5468 17.3362 17.3435C17.1363 17.1402 17.0239 16.8645 17.0239 16.5769C17.0239 16.2894 17.1363 16.0136 17.3362 15.8103C17.5361 15.607 17.8072 15.4928 18.0899 15.4928C18.3726 15.4928 18.6437 15.607 18.8437 15.8103C19.0436 16.0136 19.1559 16.2894 19.1559 16.5769ZM21.9984 16.2156H27.6835C27.872 16.2156 28.0528 16.2917 28.186 16.4272C28.3193 16.5628 28.3942 16.7466 28.3942 16.9383C28.3942 17.13 28.3193 17.3138 28.186 17.4494C28.0528 17.5849 27.872 17.661 27.6835 17.661H21.9984C21.8099 17.661 21.6292 17.5849 21.4959 17.4494C21.3627 17.3138 21.2878 17.13 21.2878 16.9383C21.2878 16.7466 21.3627 16.5628 21.4959 16.4272C21.6292 16.2917 21.8099 16.2156 21.9984 16.2156ZM21.2878 21.2748C21.2878 21.0831 21.3627 20.8992 21.4959 20.7637C21.6292 20.6282 21.8099 20.552 21.9984 20.552H27.6835C27.872 20.552 28.0528 20.6282 28.186 20.7637C28.3193 20.8992 28.3942 21.0831 28.3942 21.2748C28.3942 21.4665 28.3193 21.6503 28.186 21.7858C28.0528 21.9214 27.872 21.9975 27.6835 21.9975H21.9984C21.8099 21.9975 21.6292 21.9214 21.4959 21.7858C21.3627 21.6503 21.2878 21.4665 21.2878 21.2748ZM11.886 23.3057C11.3738 24.3237 11.2158 25.4883 11.4378 26.6094C11.6598 27.7305 12.2488 28.7421 13.1086 29.4791C13.9685 30.216 15.0485 30.635 16.1725 30.6676C17.1495 30.696 18.1096 30.431 18.9349 29.9107C19.1485 29.7761 19.4306 29.7942 19.6071 29.9748L22.9123 33.3562C23.0457 33.4917 23.2267 33.5678 23.4152 33.5676C23.6038 33.5675 23.7846 33.4912 23.9179 33.3554C24.0511 33.2197 24.1259 33.0357 24.1258 32.844C24.1256 32.6522 24.0506 32.4683 23.9171 32.3328L20.5916 28.9506C20.4195 28.7755 20.4023 28.5027 20.5308 28.2934C20.8199 27.8223 21.0312 27.3052 21.1556 26.7625C21.3118 26.0804 21.3271 25.3728 21.2005 24.6844C21.0739 23.996 20.8081 23.3419 20.42 22.7634C20.032 22.1849 19.53 21.6946 18.946 21.3236C18.3619 20.9526 17.7085 20.709 17.0271 20.6082C16.3457 20.5073 15.6511 20.5514 14.9874 20.7378C14.3236 20.9241 13.7051 21.2485 13.171 21.6905C12.6369 22.1326 12.2003 22.6826 11.886 23.3057ZM19.2681 23.6035C19.5325 23.9979 19.7173 24.4417 19.812 24.9092C19.9068 25.3767 19.9095 25.8586 19.8201 26.3272C19.7306 26.7958 19.5508 27.2417 19.2909 27.6392C19.0311 28.0367 18.6964 28.3779 18.3062 28.6431C17.916 28.9083 17.478 29.0923 17.0175 29.1844C16.5569 29.2765 16.0831 29.2749 15.6232 29.1796C15.1633 29.0844 14.7265 28.8975 14.338 28.6296C13.9495 28.3618 13.6171 28.0183 13.3599 27.619C12.8465 26.8221 12.6633 25.8513 12.8502 24.9177C13.0371 23.9841 13.5789 23.1633 14.3577 22.634C15.1366 22.1046 16.0895 21.9095 17.0091 22.0911C17.9287 22.2726 18.7406 22.8162 19.2681 23.6035Z" fill="white"/>
</svg>
