<svg width="407" height="79" viewBox="0 0 407 79" fill="none" xmlns="http://www.w3.org/2000/svg">
    <path d="M377.428 23.7329H382.762V43.2106C382.762 48.2256 384.195 52.0883 387.06 54.8111C388.275 56.0142 389.772 56.9893 391.55 57.7112C393.379 58.3698 395.426 58.7117 397.677 58.7117C399.634 58.7117 401.399 58.5344 402.986 58.1671C403.855 58.0025 404.7 57.7999 405.505 57.5339C406.708 57.1413 407.271 55.8242 406.874 54.6338L404.764 48.1497C404.457 47.2252 403.344 46.8326 402.423 47.1998C401.809 47.3771 400.99 47.4658 399.954 47.4658C398.368 47.4658 397.153 46.9845 396.296 46.0221C395.682 45.4142 395.259 44.6923 395.016 43.8438C394.837 42.932 394.748 41.9695 394.748 40.9437V23.7329H403.19C404.584 23.7329 405.723 22.6058 405.723 21.2254V14.2093C405.723 12.8289 404.584 11.7018 403.19 11.7018H394.748V2.50753C394.748 1.12712 393.609 0 392.215 0H385.295C383.9 0 382.762 1.12712 382.762 2.50753V11.7018H377.428C376.034 11.7018 374.895 12.8289 374.895 14.2093V21.2254C374.895 22.6184 376.034 23.7329 377.428 23.7329Z" fill="black"/>
    <path d="M38.0549 29.7611C42.1482 29.7611 45.1542 25.9112 42.9413 22.5171C38.784 16.1343 31.5568 11.9171 23.3446 11.9171C10.4507 11.9171 0 22.3018 0 35.1054C0 47.9091 10.4507 58.3064 23.3446 58.3064C31.5568 58.3064 38.784 54.0892 42.9413 47.7064C45.1542 44.3124 42.1482 40.4624 38.0549 40.4624H37.9142C35.9571 40.4624 34.2302 41.6402 32.9767 43.1346C30.6742 45.8701 27.2077 47.6051 23.3446 47.6051C16.3988 47.6051 10.7705 42.0075 10.7705 35.1181C10.7705 28.2287 16.3988 22.6311 23.3446 22.6311C27.2077 22.6311 30.6742 24.3661 32.9767 27.1016C34.2302 28.596 35.9571 29.7738 37.9142 29.7738H38.0549V29.7611Z" fill="black"/>
    <path fill-rule="evenodd" clip-rule="evenodd" d="M189.354 59.5601C202.299 59.5601 212.788 49.1753 212.788 36.3591C212.788 23.5428 202.299 13.1581 189.354 13.1581C176.409 13.1581 165.919 23.5428 165.919 36.3591C165.919 49.1753 176.409 59.5601 189.354 59.5601ZM189.354 48.8587C196.325 48.8587 201.966 43.2611 201.966 36.3717C201.966 29.4824 196.312 23.8847 189.354 23.8847C182.382 23.8847 176.741 29.4824 176.741 36.3717C176.741 43.2611 182.382 48.8587 189.354 48.8587Z" fill="black"/>
    <path d="M348.161 19.7436H347.432V16.0963C347.432 14.7159 346.293 13.5888 344.899 13.5888H338.171C336.776 13.5888 335.638 14.7159 335.638 16.0963V55.4696C335.638 56.85 336.776 57.9771 338.171 57.9771H345.628C347.022 57.9771 348.161 56.85 348.161 55.4696V36.2325C348.161 32.3066 349.223 29.2292 351.333 26.9876C353.508 24.6953 356.475 23.5429 360.223 23.5429C361.375 23.5429 362.347 23.6315 363.127 23.8088C364.214 24.0368 365.391 23.2769 365.391 22.1625V14.5006C365.391 13.4494 364.713 12.4996 363.664 12.3856C363.063 12.3223 362.244 12.297 361.208 12.297C358.369 12.297 355.759 12.9935 353.405 14.3866C351.116 15.729 349.363 17.5147 348.161 19.7436Z" fill="black"/>
    <path fill-rule="evenodd" clip-rule="evenodd" d="M326.134 36.3591C326.134 49.1753 315.645 59.5601 302.7 59.5601C289.754 59.5601 279.265 49.1753 279.265 36.3591C279.265 23.5428 289.754 13.1581 302.7 13.1581C315.645 13.1581 326.134 23.5555 326.134 36.3591ZM315.146 36.3591C315.146 43.2611 309.53 48.8461 302.597 48.8461C295.664 48.8461 290.049 43.2485 290.049 36.3591C290.049 29.4697 295.664 23.8721 302.597 23.8721C309.517 23.8721 315.146 29.4697 315.146 36.3591Z" fill="black"/>
    <path fill-rule="evenodd" clip-rule="evenodd" d="M76.6214 59.5603C89.5664 59.5603 100.056 49.1756 100.056 36.3594C100.056 23.5431 89.5664 13.171 76.6214 13.171C63.6763 13.171 53.1872 23.5557 53.1872 36.372C53.1872 49.1883 63.6891 59.5603 76.6214 59.5603ZM76.6214 48.859C83.5928 48.859 89.2339 43.2614 89.2339 36.372C89.2339 29.4826 83.58 23.885 76.6214 23.885C69.6628 23.885 64.0089 29.4826 64.0089 36.372C64.0089 43.2614 69.6628 48.859 76.6214 48.859Z" fill="black"/>
    <path fill-rule="evenodd" clip-rule="evenodd" d="M269.147 36.3594C269.147 49.1756 258.658 59.5604 245.713 59.5604C241.313 59.5604 237.194 58.3572 233.676 56.2676V76.4925C233.676 77.8729 232.538 79.0001 231.144 79.0001H224.812C223.417 79.0001 222.279 77.8729 222.279 76.4925V15.6786C222.279 14.2981 223.417 13.171 224.812 13.171H231.144C232.538 13.171 233.676 14.2981 233.676 15.6786V16.4637C237.194 14.3741 241.313 13.171 245.713 13.171C258.658 13.171 269.147 23.5557 269.147 36.3594ZM258.147 36.3594C258.147 43.2614 252.531 48.8464 245.598 48.8464C238.665 48.8464 233.05 43.2487 233.05 36.3594C233.05 29.47 238.665 23.8724 245.598 23.8724C252.531 23.8724 258.147 29.47 258.147 36.3594Z" fill="black"/>
    <path fill-rule="evenodd" clip-rule="evenodd" d="M132.994 59.5601C137.407 59.5601 141.526 58.357 145.044 56.2547C144.877 59.94 143.79 62.8401 141.769 64.9424C139.569 67.298 136.588 68.4757 132.802 68.4757C130.423 68.4757 128.261 67.8172 126.304 66.4874C125.05 65.6769 124.027 64.6385 123.234 63.3847C122.466 62.1816 120.995 61.485 119.652 62.0169L112.898 64.6891C111.645 65.183 110.992 66.5888 111.632 67.7665C112.092 68.615 112.655 69.4509 113.308 70.2994C114.523 71.8698 116.058 73.2882 117.887 74.5546C119.716 75.8844 121.852 76.9355 124.296 77.7207C126.803 78.5692 129.63 78.9871 132.802 78.9871C136.345 78.9871 139.543 78.4172 142.408 77.2648C145.338 76.1756 147.832 74.5799 149.917 72.465C151.989 70.4134 153.614 67.8805 154.765 64.8537C155.929 61.8903 156.428 58.5469 156.428 54.7983V15.6656C156.428 14.2852 155.29 13.1581 153.895 13.1581H147.563C146.169 13.1581 145.031 14.2852 145.031 15.6656V16.3621V16.4508C141.513 14.3612 137.394 13.1581 132.994 13.1581C120.049 13.1581 109.56 23.5428 109.56 36.3591C109.56 49.1753 120.049 59.5601 132.994 59.5601ZM132.866 48.8587C139.799 48.8587 145.415 43.2611 145.415 36.3717C145.415 29.4824 139.799 23.8847 132.866 23.8847C125.933 23.8847 120.317 29.4824 120.317 36.3717C120.317 43.2611 125.933 48.8587 132.866 48.8587Z" fill="black"/>
</svg>
