<svg width="28" height="23" viewBox="0 0 28 23" fill="none" xmlns="http://www.w3.org/2000/svg">
<path d="M17.1487 9.11146C18.9909 9.11146 20.3494 7.3564 19.3509 5.80833C17.4765 2.90222 14.2208 0.979553 10.5183 0.979553C4.70922 0.979553 0 5.71255 0 11.551C0 17.3894 4.70922 22.1224 10.5183 22.1224C14.2208 22.1224 17.4765 20.1998 19.3509 17.2937C20.3493 15.7457 18.9908 13.9906 17.1487 13.9906H17.0848C16.2008 13.9906 15.4259 14.5287 14.8594 15.2073C13.8205 16.452 12.2613 17.2433 10.5183 17.2433C7.39036 17.2433 4.85462 14.6948 4.85462 11.551C4.85462 8.40725 7.39036 5.85871 10.5183 5.85871C12.2613 5.85871 13.8204 6.65003 14.8594 7.89472C15.4259 8.57337 16.2008 9.11146 17.0848 9.11146H17.1487Z" fill="white"/>
<path fill-rule="evenodd" clip-rule="evenodd" d="M21.2157 13.6423C20.7676 12.9857 20.1093 12.4081 19.3143 12.4081H14.4946C13.768 12.4081 13.1547 12.9151 12.628 13.4155C12.1669 13.8536 11.5434 14.1224 10.8572 14.1224C9.43699 14.1224 8.28572 12.9712 8.28572 11.551C8.28572 10.1308 9.43699 8.97956 10.8572 8.97956C11.5434 8.97956 12.1669 9.24839 12.628 9.68648C13.1547 10.1869 13.768 10.6939 14.4946 10.6939H19.3143C20.1093 10.6939 20.7676 10.1163 21.2157 9.45973C21.8844 8.47991 23.01 7.8367 24.2857 7.8367C26.3371 7.8367 28 9.49965 28 11.551C28 13.6023 26.3371 15.2653 24.2857 15.2653C23.01 15.2653 21.8844 14.6221 21.2157 13.6423ZM24.2857 13.2653C25.2325 13.2653 26 12.4978 26 11.551C26 10.6042 25.2325 9.83671 24.2857 9.83671C23.339 9.83671 22.5715 10.6042 22.5715 11.551C22.5715 12.4978 23.339 13.2653 24.2857 13.2653Z" fill="white"/>
</svg>
