<svg width="14" height="16" viewBox="0 0 14 16" fill="none" xmlns="http://www.w3.org/2000/svg">
<path d="M1.56141 6.60024L0.911854 4.72639C0.894298 4.67582 0.886563 4.62217 0.889091 4.5685C0.89162 4.51484 0.904363 4.46221 0.92659 4.41364C0.948818 4.36507 0.980094 4.32151 1.01863 4.28544C1.05716 4.24938 1.1022 4.22152 1.15116 4.20346C1.18112 4.19305 1.21206 4.18594 1.24347 4.18226L3.11124 3.98086L3.30496 2.03635C3.31023 1.9829 3.32564 1.93104 3.35032 1.88375C3.375 1.83645 3.40847 1.79465 3.44879 1.76074C3.48912 1.72683 3.53552 1.70147 3.58534 1.68611C3.63517 1.67075 3.68743 1.6657 3.73914 1.67124C3.76672 1.67361 3.7939 1.67954 3.82005 1.68891L5.64337 2.17298L6.7009 0.908044C6.76945 0.825985 6.8666 0.775239 6.97118 0.766856C7.07576 0.758474 7.17932 0.793134 7.25929 0.863289C7.28541 0.887086 7.30874 0.913966 7.32881 0.943378L8.35442 2.37673L10.1675 1.69362C10.2168 1.67515 10.2691 1.66697 10.3215 1.66954C10.3739 1.67212 10.4252 1.6854 10.4726 1.70862C10.52 1.73184 10.5624 1.76454 10.5975 1.80482C10.6325 1.84511 10.6595 1.89218 10.6769 1.94331C10.688 1.97484 10.6953 2.00768 10.6985 2.04106L10.8923 3.98557L12.7737 4.18108C12.8383 4.18784 12.9004 4.21095 12.9543 4.24837C13.0082 4.28579 13.0524 4.33637 13.0829 4.39563C13.1135 4.45489 13.1294 4.52102 13.1293 4.58816C13.1293 4.65529 13.1132 4.72138 13.0825 4.78057L12.2506 6.40237L13.846 7.6779C13.8873 7.71066 13.9218 7.75152 13.9477 7.79813C13.9736 7.84474 13.9903 7.89618 13.9968 7.9495C14.0034 8.00281 13.9997 8.05693 13.986 8.10876C13.9722 8.16059 13.9487 8.20909 13.9167 8.25148C13.8937 8.28328 13.866 8.31111 13.8346 8.33392L12.4444 9.40217L13.1053 11.276C13.1409 11.378 13.136 11.4904 13.0915 11.5887C13.0471 11.6869 12.9668 11.7629 12.8683 11.8001C12.8378 11.8116 12.806 11.8191 12.7737 11.8225L10.8923 12.0227L10.6985 13.9566C10.6876 14.0645 10.6358 14.1634 10.5544 14.2319C10.473 14.3003 10.3687 14.3326 10.2644 14.3217C10.2139 14.3162 10.1648 14.301 10.1196 14.277L8.54701 13.4254L7.31057 15.0743C7.27304 15.125 7.2245 15.1659 7.16888 15.1937C7.11325 15.2215 7.05209 15.2353 6.99032 15.2342C6.92856 15.233 6.86792 15.2169 6.81329 15.1871C6.75866 15.1573 6.71158 15.1146 6.67583 15.0626L5.64109 13.6198L3.82803 14.2958C3.77246 14.316 3.71323 14.323 3.65468 14.3165C3.59613 14.31 3.53974 14.29 3.48961 14.2581C3.43948 14.2261 3.39689 14.183 3.36494 14.1319C3.333 14.0807 3.31251 14.0229 3.30496 13.9625L3.11124 12.2241L1.20017 11.8154C1.14932 11.8048 1.10101 11.7838 1.05801 11.7538C1.01501 11.7238 0.978164 11.6853 0.94958 11.6406C0.920996 11.5958 0.901239 11.5457 0.891441 11.493C0.881643 11.4404 0.881996 11.3862 0.892481 11.3337C0.896014 11.3086 0.90252 11.2841 0.911854 11.2607L1.56141 9.40334L0.159734 8.33039C0.0755613 8.26561 0.0196624 8.169 0.00428323 8.06171C-0.011096 7.95442 0.0152985 7.8452 0.0776841 7.75799C0.102245 7.72395 0.13186 7.69414 0.165431 7.66966L1.56141 6.60024ZM8.67123 5.87001L6.34307 10.0535C6.32101 10.095 6.29546 10.1344 6.26672 10.1713C6.24123 10.2052 6.20947 10.2337 6.17328 10.2549C6.134 10.2749 6.09152 10.2872 6.04792 10.2914C5.99838 10.2974 5.94852 10.3002 5.89864 10.2996H5.45876C5.4239 10.2996 5.39045 10.2854 5.36569 10.26C5.34093 10.2347 5.32687 10.2002 5.32657 10.1642C5.32662 10.136 5.33496 10.1085 5.3505 10.0853L7.6798 5.8971C7.70129 5.85579 7.72607 5.8164 7.75387 5.77933V5.77226C7.77881 5.74143 7.80892 5.7155 7.84275 5.6957C7.88517 5.67622 7.93083 5.66542 7.97722 5.6639V5.6639C8.026 5.65788 8.07511 5.65513 8.12423 5.65566H8.56297C8.59783 5.65566 8.63128 5.66989 8.65604 5.69526C8.6808 5.72063 8.69486 5.75507 8.69516 5.7911C8.69511 5.81931 8.68677 5.84683 8.67123 5.87001V5.87001ZM7.82794 10.1183C7.63193 9.90625 7.53279 9.58119 7.53279 9.14305C7.53279 8.70492 7.63193 8.37986 7.82794 8.16786C8.02395 7.95586 8.34303 7.84986 8.78518 7.84986C9.22734 7.84986 9.54642 7.95586 9.74243 8.16786C9.93843 8.37986 10.0364 8.70492 10.0364 9.14305C10.0364 9.58119 9.93843 9.90625 9.74243 10.1183C9.54642 10.3303 9.22734 10.4363 8.78518 10.4363C8.34303 10.4363 8.02395 10.3303 7.82794 10.1183ZM8.51169 8.77088V9.7131H8.65983C8.78473 9.71594 8.90958 9.70568 9.03247 9.68248C9.05754 9.66128 9.07008 9.60357 9.07008 9.51052V8.5683H8.7282C8.66661 8.56146 8.60438 8.57204 8.54815 8.59892C8.52422 8.62012 8.51169 8.67783 8.51169 8.77088ZM4.26107 7.83219C4.06506 7.62019 3.96706 7.29512 3.96706 6.85699C3.96706 6.41886 4.06506 6.09379 4.26107 5.88179C4.45707 5.66979 4.77616 5.56379 5.21831 5.56379C5.66047 5.56379 5.97955 5.66979 6.17555 5.88179C6.37156 6.09379 6.46957 6.41886 6.46957 6.85699C6.46957 7.29512 6.37156 7.62019 6.17555 7.83219C5.97955 8.04419 5.66047 8.15019 5.21831 8.15019C4.77616 8.15019 4.45707 8.04419 4.26107 7.83219ZM4.94481 6.48481V7.42704H5.28669C5.34802 7.43372 5.40995 7.42271 5.4656 7.39524C5.49067 7.37404 5.50321 7.31632 5.50321 7.22328V6.28106H5.34822C5.22364 6.27789 5.0991 6.28855 4.97672 6.31286C4.95165 6.33288 4.93912 6.39059 4.93912 6.48364L4.94481 6.48481ZM1.82351 4.94193L2.3933 6.59081C2.42725 6.67525 2.4329 6.769 2.40936 6.85714C2.38582 6.94528 2.33444 7.02275 2.26339 7.07724L1.06 8.00179L2.26795 8.92752C2.33699 8.98019 2.38764 9.05457 2.4123 9.13952C2.43696 9.22447 2.43429 9.31539 2.4047 9.39863L1.80528 11.1111L3.53288 11.4833C3.62043 11.4953 3.7016 11.5371 3.76353 11.6022C3.82546 11.6673 3.8646 11.7518 3.87475 11.8425L4.04455 13.3618L5.64565 12.7659C5.72583 12.7326 5.81437 12.7273 5.89772 12.7509C5.98107 12.7745 6.05464 12.8257 6.10718 12.8966L7.00858 14.1545L8.11853 12.6693C8.17403 12.5885 8.25599 12.5312 8.34922 12.508C8.44246 12.4849 8.54066 12.4974 8.62564 12.5433L9.97148 13.2747L10.1424 11.6129C10.1515 11.52 10.191 11.4331 10.2544 11.3667C10.3179 11.3003 10.4014 11.2583 10.4911 11.2477L12.1937 11.0628L11.6011 9.40099C11.5709 9.31803 11.5677 9.22716 11.5919 9.14214C11.6162 9.05712 11.6666 8.9826 11.7355 8.92988L12.9515 7.99708L11.5247 6.85817C11.4429 6.80113 11.3845 6.71478 11.3607 6.6158C11.3369 6.51682 11.3495 6.41224 11.396 6.32228L12.1093 4.93251L10.4957 4.76173C10.405 4.75192 10.3204 4.71015 10.2561 4.64344C10.1918 4.57673 10.1516 4.48915 10.1424 4.39544L9.96351 2.64173L8.35556 3.24829C8.27525 3.27911 8.18744 3.28224 8.10527 3.25718C8.0231 3.23213 7.95099 3.18025 7.89973 3.10931L6.97896 1.82553L6.09009 2.89377C6.04188 2.95162 5.97899 2.9944 5.90852 3.01729C5.83805 3.04018 5.76279 3.04227 5.69123 3.02333L4.04569 2.59109L3.86563 4.39073C3.85739 4.48515 3.81765 4.57368 3.7532 4.64115C3.68875 4.70861 3.60361 4.75082 3.51237 4.76055L1.82351 4.94193Z" fill="#DA9A3B"/>
</svg>
