<svg width="21" height="21" viewBox="0 0 21 21" fill="none" xmlns="http://www.w3.org/2000/svg">
<path fill-rule="evenodd" clip-rule="evenodd" d="M13.0728 1.83024C12.8635 1.39439 12.5353 1.02654 12.1261 0.769069C11.7168 0.511603 11.2432 0.375 10.7597 0.375C10.2762 0.375 9.8025 0.511603 9.39325 0.769069C8.984 1.02654 8.65582 1.39439 8.44653 1.83024L1.06416 16.3521C0.180934 18.0858 1.29702 20.388 3.37638 20.388H18.142C20.2223 20.388 21.3366 18.0867 20.4552 16.3521L13.0728 1.83024ZM10.7597 6.74393C11.0009 6.74393 11.2323 6.83977 11.4028 7.01035C11.5734 7.18094 11.6693 7.4123 11.6693 7.65354V12.2016C11.6693 12.4428 11.5734 12.6742 11.4028 12.8448C11.2323 13.0153 11.0009 13.1112 10.7597 13.1112C10.5184 13.1112 10.2871 13.0153 10.1165 12.8448C9.94589 12.6742 9.85005 12.4428 9.85005 12.2016V7.65354C9.85005 7.4123 9.94589 7.18094 10.1165 7.01035C10.2871 6.83977 10.5184 6.74393 10.7597 6.74393ZM10.7597 14.4756C11.0009 14.4756 11.2323 14.5714 11.4028 14.742C11.5734 14.9126 11.6693 15.144 11.6693 15.3852V15.84C11.6693 16.0812 11.5734 16.3126 11.4028 16.4832C11.2323 16.6538 11.0009 16.7496 10.7597 16.7496C10.5184 16.7496 10.2871 16.6538 10.1165 16.4832C9.94589 16.3126 9.85005 16.0812 9.85005 15.84V15.3852C9.85005 15.144 9.94589 14.9126 10.1165 14.742C10.2871 14.5714 10.5184 14.4756 10.7597 14.4756Z" fill="#CB6464"/>
</svg>
