<svg width="201" height="169" viewBox="0 0 201 169" fill="none" xmlns="http://www.w3.org/2000/svg">
<g filter="url(#filter0_d_5484_21498)">
<path d="M7 27C7 15.9543 15.9543 7 27 7H158C169.046 7 178 15.9543 178 27V102.381C178 113.426 169.046 122.381 158 122.381H135.25H124.217C117.73 122.381 111.646 125.527 107.897 130.82L100.66 141.037C96.6749 146.663 88.3251 146.663 84.3398 141.037L77.1031 130.82C73.3535 125.527 67.2695 122.381 60.7826 122.381H49.75H27C15.9543 122.381 7 113.426 7 102.381V27Z" fill="white"/>
</g>
<rect x="27.1176" y="27.1177" width="35.5017" height="41.4187" rx="9" fill="#FDF8EF"/>
<rect x="33.0345" y="33.0347" width="17.7509" height="2.36678" rx="1.18339" fill="#F5CE88"/>
<rect x="33.0345" y="37.7681" width="10.6505" height="2.36678" rx="1.18339" fill="#E1D3B8"/>
<path d="M33.7377 63.2241C33.7377 63.0711 33.7849 62.9425 33.8793 62.8384C33.9769 62.731 34.1169 62.6772 34.2992 62.6772C34.4815 62.6772 34.6198 62.731 34.7142 62.8384C34.8119 62.9425 34.8607 63.0711 34.8607 63.2241C34.8607 63.3739 34.8119 63.5008 34.7142 63.605C34.6198 63.7091 34.4815 63.7612 34.2992 63.7612C34.1169 63.7612 33.9769 63.7091 33.8793 63.605C33.7849 63.5008 33.7377 63.3739 33.7377 63.2241ZM39.1185 60.9146H37.2191V60.1479H39.1185C39.4864 60.1479 39.7842 60.0894 40.0121 59.9722C40.2399 59.855 40.406 59.6922 40.5101 59.4839C40.6176 59.2756 40.6713 59.0379 40.6713 58.771C40.6713 58.5269 40.6176 58.2974 40.5101 58.0825C40.406 57.8677 40.2399 57.6951 40.0121 57.5649C39.7842 57.4315 39.4864 57.3647 39.1185 57.3647H37.4388V63.7026H36.4965V56.5933H39.1185C39.6556 56.5933 40.1097 56.686 40.4808 56.8716C40.8519 57.0571 41.1335 57.3143 41.3256 57.6431C41.5176 57.9686 41.6136 58.3413 41.6136 58.7612C41.6136 59.217 41.5176 59.606 41.3256 59.9282C41.1335 60.2505 40.8519 60.4963 40.4808 60.6655C40.1097 60.8315 39.6556 60.9146 39.1185 60.9146ZM44.7289 63.7026H43.2445L43.2543 62.936H44.7289C45.2367 62.936 45.6599 62.8302 45.9984 62.6187C46.337 62.4038 46.5909 62.1043 46.7601 61.7202C46.9327 61.3328 47.0189 60.8804 47.0189 60.3628V59.9282C47.0189 59.5213 46.9701 59.16 46.8724 58.8442C46.7748 58.5252 46.6316 58.2567 46.4427 58.0386C46.2539 57.8172 46.0228 57.6496 45.7494 57.5356C45.4792 57.4217 45.1683 57.3647 44.8168 57.3647H43.2152V56.5933H44.8168C45.2823 56.5933 45.7071 56.6714 46.0912 56.8276C46.4753 56.9806 46.8057 57.2036 47.0824 57.4966C47.3623 57.7863 47.5772 58.1379 47.7269 58.5513C47.8767 58.9614 47.9515 59.4237 47.9515 59.938V60.3628C47.9515 60.8771 47.8767 61.341 47.7269 61.7544C47.5772 62.1646 47.3607 62.5145 47.0775 62.8042C46.7976 63.0939 46.459 63.3169 46.0619 63.4731C45.668 63.6261 45.2237 63.7026 44.7289 63.7026ZM43.7474 56.5933V63.7026H42.8051V56.5933H43.7474ZM50.3099 56.5933V63.7026H49.3676V56.5933H50.3099ZM53.2885 59.7915V60.563H50.1049V59.7915H53.2885ZM53.7719 56.5933V57.3647H50.1049V56.5933H53.7719Z" fill="#F5CE88"/>
<rect x="54.3356" y="85.6953" width="76.9204" height="17.7509" rx="8.87543" fill="#EFF1FD"/>
<rect x="69.1282" y="92.7959" width="47.3356" height="3.55017" rx="1.77509" fill="#4424A7"/>
<rect x="74.4532" y="27.1177" width="35.5017" height="41.4187" rx="9" fill="#FFECF2"/>
<rect x="80.37" y="33.0347" width="17.7509" height="2.36678" rx="1.18339" fill="#FFA2C0"/>
<rect x="80.37" y="37.7681" width="10.6505" height="2.36678" rx="1.18339" fill="#EFCAD6"/>
<path d="M81.0731 63.2241C81.0731 63.0711 81.1203 62.9425 81.2147 62.8384C81.3124 62.731 81.4524 62.6772 81.6346 62.6772C81.8169 62.6772 81.9553 62.731 82.0497 62.8384C82.1473 62.9425 82.1962 63.0711 82.1962 63.2241C82.1962 63.3739 82.1473 63.5008 82.0497 63.605C81.9553 63.7091 81.8169 63.7612 81.6346 63.7612C81.4524 63.7612 81.3124 63.7091 81.2147 63.605C81.1203 63.5008 81.0731 63.3739 81.0731 63.2241ZM88.1239 61.4419H89.0614C89.0126 61.8911 88.884 62.2931 88.6757 62.6479C88.4673 63.0028 88.1727 63.2843 87.7919 63.4927C87.411 63.6978 86.9358 63.8003 86.3661 63.8003C85.9494 63.8003 85.5702 63.7222 85.2284 63.5659C84.8899 63.4097 84.5985 63.1883 84.3544 62.9019C84.1102 62.6121 83.9214 62.2655 83.788 61.8618C83.6578 61.4549 83.5927 61.0024 83.5927 60.5044V59.7964C83.5927 59.2983 83.6578 58.8475 83.788 58.4438C83.9214 58.0369 84.1119 57.6886 84.3593 57.3989C84.6099 57.1092 84.911 56.8862 85.2626 56.73C85.6141 56.5737 86.0096 56.4956 86.4491 56.4956C86.9862 56.4956 87.4403 56.5965 87.8114 56.7983C88.1825 57.0002 88.4706 57.2801 88.6757 57.6382C88.884 57.993 89.0126 58.4048 89.0614 58.8735H88.1239C88.0783 58.5415 87.9937 58.2567 87.87 58.019C87.7463 57.7782 87.5705 57.5926 87.3427 57.4624C87.1148 57.3322 86.8169 57.2671 86.4491 57.2671C86.1333 57.2671 85.855 57.3273 85.6141 57.4478C85.3765 57.5682 85.1763 57.7391 85.0135 57.9604C84.854 58.1818 84.7336 58.4471 84.6522 58.7563C84.5708 59.0656 84.5302 59.409 84.5302 59.7866V60.5044C84.5302 60.8527 84.566 61.1799 84.6376 61.4858C84.7124 61.7918 84.8247 62.0604 84.9745 62.2915C85.1242 62.5226 85.3147 62.7049 85.5458 62.8384C85.7769 62.9686 86.0503 63.0337 86.3661 63.0337C86.7665 63.0337 87.0855 62.9702 87.3231 62.8433C87.5608 62.7163 87.7398 62.534 87.8602 62.2964C87.9839 62.0588 88.0718 61.7739 88.1239 61.4419ZM94.1346 61.9058C94.1346 61.7397 94.1086 61.5933 94.0565 61.4663C94.0077 61.3361 93.9198 61.2189 93.7928 61.1147C93.6691 61.0106 93.4966 60.9113 93.2753 60.8169C93.0572 60.7225 92.7805 60.6265 92.4452 60.5288C92.0936 60.4246 91.7762 60.3091 91.493 60.1821C91.2098 60.0519 90.9673 59.9038 90.7655 59.7378C90.5637 59.5718 90.4091 59.3813 90.3016 59.1665C90.1942 58.9517 90.1405 58.7059 90.1405 58.4292C90.1405 58.1525 90.1975 57.897 90.3114 57.6626C90.4253 57.4282 90.5881 57.2248 90.7997 57.0522C91.0145 56.8765 91.2701 56.7397 91.5663 56.6421C91.8625 56.5444 92.1929 56.4956 92.5575 56.4956C93.0913 56.4956 93.5438 56.5981 93.9149 56.8032C94.2893 57.005 94.5741 57.2703 94.7694 57.5991C94.9647 57.9246 95.0624 58.2729 95.0624 58.644H94.1249C94.1249 58.3771 94.0679 58.1411 93.954 57.936C93.84 57.7277 93.6675 57.5649 93.4364 57.4478C93.2053 57.3273 92.9123 57.2671 92.5575 57.2671C92.2222 57.2671 91.9455 57.3175 91.7274 57.4185C91.5093 57.5194 91.3466 57.6561 91.2391 57.8286C91.135 58.0011 91.0829 58.1981 91.0829 58.4194C91.0829 58.5692 91.1138 58.7059 91.1757 58.8296C91.2408 58.95 91.34 59.0623 91.4735 59.1665C91.6102 59.2707 91.7828 59.3667 91.9911 59.4546C92.2027 59.5425 92.455 59.6271 92.7479 59.7085C93.1516 59.8224 93.4999 59.9494 93.7928 60.0894C94.0858 60.2293 94.3267 60.3872 94.5155 60.563C94.7076 60.7355 94.8492 60.9325 94.9403 61.1538C95.0347 61.3719 95.0819 61.6193 95.0819 61.896C95.0819 62.1857 95.0233 62.4478 94.9061 62.6821C94.7889 62.9165 94.6213 63.1167 94.4032 63.2827C94.1851 63.4487 93.9231 63.5773 93.6171 63.6685C93.3143 63.7563 92.9758 63.8003 92.6014 63.8003C92.2727 63.8003 91.9488 63.7547 91.6298 63.6636C91.314 63.5724 91.0259 63.4357 90.7655 63.2534C90.5083 63.0711 90.3016 62.8465 90.1454 62.5796C89.9924 62.3094 89.9159 61.9969 89.9159 61.6421H90.8534C90.8534 61.8862 90.9006 62.0962 90.995 62.272C91.0894 62.4445 91.218 62.5877 91.3807 62.7017C91.5468 62.8156 91.7339 62.9002 91.9423 62.9556C92.1538 63.0076 92.3736 63.0337 92.6014 63.0337C92.9302 63.0337 93.2085 62.9881 93.4364 62.897C93.6643 62.8058 93.8368 62.6756 93.954 62.5063C94.0744 62.3371 94.1346 62.1369 94.1346 61.9058ZM98.578 62.6235L100.673 56.5933H101.693L99.0614 63.7026H98.3339L98.578 62.6235ZM96.62 56.5933L98.6952 62.6235L98.954 63.7026H98.2264L95.5995 56.5933H96.62Z" fill="#FFA2C0"/>
<rect x="121.789" y="27.1177" width="35.5017" height="41.4187" rx="9" fill="#E5F7F8"/>
<rect x="127.706" y="33.0347" width="17.7509" height="2.36678" rx="1.18339" fill="#84D8DD"/>
<rect x="127.706" y="37.7681" width="10.6505" height="2.36678" rx="1.18339" fill="#C4DFE0"/>
<path d="M128.409 63.2241C128.409 63.0711 128.456 62.9425 128.551 62.8384C128.648 62.731 128.788 62.6772 128.97 62.6772C129.153 62.6772 129.291 62.731 129.385 62.8384C129.483 62.9425 129.532 63.0711 129.532 63.2241C129.532 63.3739 129.483 63.5008 129.385 63.605C129.291 63.7091 129.153 63.7612 128.97 63.7612C128.788 63.7612 128.648 63.7091 128.551 63.605C128.456 63.5008 128.409 63.3739 128.409 63.2241ZM135.46 61.4419H136.397C136.348 61.8911 136.22 62.2931 136.011 62.6479C135.803 63.0028 135.509 63.2843 135.128 63.4927C134.747 63.6978 134.272 63.8003 133.702 63.8003C133.285 63.8003 132.906 63.7222 132.564 63.5659C132.226 63.4097 131.934 63.1883 131.69 62.9019C131.446 62.6121 131.257 62.2655 131.124 61.8618C130.994 61.4549 130.928 61.0024 130.928 60.5044V59.7964C130.928 59.2983 130.994 58.8475 131.124 58.4438C131.257 58.0369 131.448 57.6886 131.695 57.3989C131.946 57.1092 132.247 56.8862 132.598 56.73C132.95 56.5737 133.345 56.4956 133.785 56.4956C134.322 56.4956 134.776 56.5965 135.147 56.7983C135.518 57.0002 135.806 57.2801 136.011 57.6382C136.22 57.993 136.348 58.4048 136.397 58.8735H135.46C135.414 58.5415 135.33 58.2567 135.206 58.019C135.082 57.7782 134.906 57.5926 134.678 57.4624C134.451 57.3322 134.153 57.2671 133.785 57.2671C133.469 57.2671 133.191 57.3273 132.95 57.4478C132.712 57.5682 132.512 57.7391 132.349 57.9604C132.19 58.1818 132.069 58.4471 131.988 58.7563C131.907 59.0656 131.866 59.409 131.866 59.7866V60.5044C131.866 60.8527 131.902 61.1799 131.973 61.4858C132.048 61.7918 132.161 62.0604 132.31 62.2915C132.46 62.5226 132.65 62.7049 132.882 62.8384C133.113 62.9686 133.386 63.0337 133.702 63.0337C134.102 63.0337 134.421 62.9702 134.659 62.8433C134.897 62.7163 135.076 62.534 135.196 62.2964C135.32 62.0588 135.408 61.7739 135.46 61.4419ZM141.47 61.9058C141.47 61.7397 141.444 61.5933 141.392 61.4663C141.344 61.3361 141.256 61.2189 141.129 61.1147C141.005 61.0106 140.832 60.9113 140.611 60.8169C140.393 60.7225 140.116 60.6265 139.781 60.5288C139.429 60.4246 139.112 60.3091 138.829 60.1821C138.546 60.0519 138.303 59.9038 138.101 59.7378C137.899 59.5718 137.745 59.3813 137.637 59.1665C137.53 58.9517 137.476 58.7059 137.476 58.4292C137.476 58.1525 137.533 57.897 137.647 57.6626C137.761 57.4282 137.924 57.2248 138.135 57.0522C138.35 56.8765 138.606 56.7397 138.902 56.6421C139.198 56.5444 139.529 56.4956 139.893 56.4956C140.427 56.4956 140.88 56.5981 141.251 56.8032C141.625 57.005 141.91 57.2703 142.105 57.5991C142.301 57.9246 142.398 58.2729 142.398 58.644H141.461C141.461 58.3771 141.404 58.1411 141.29 57.936C141.176 57.7277 141.003 57.5649 140.772 57.4478C140.541 57.3273 140.248 57.2671 139.893 57.2671C139.558 57.2671 139.281 57.3175 139.063 57.4185C138.845 57.5194 138.682 57.6561 138.575 57.8286C138.471 58.0011 138.419 58.1981 138.419 58.4194C138.419 58.5692 138.45 58.7059 138.511 58.8296C138.577 58.95 138.676 59.0623 138.809 59.1665C138.946 59.2707 139.119 59.3667 139.327 59.4546C139.538 59.5425 139.791 59.6271 140.084 59.7085C140.487 59.8224 140.836 59.9494 141.129 60.0894C141.422 60.2293 141.663 60.3872 141.851 60.563C142.043 60.7355 142.185 60.9325 142.276 61.1538C142.371 61.3719 142.418 61.6193 142.418 61.896C142.418 62.1857 142.359 62.4478 142.242 62.6821C142.125 62.9165 141.957 63.1167 141.739 63.2827C141.521 63.4487 141.259 63.5773 140.953 63.6685C140.65 63.7563 140.312 63.8003 139.937 63.8003C139.608 63.8003 139.285 63.7547 138.966 63.6636C138.65 63.5724 138.362 63.4357 138.101 63.2534C137.844 63.0711 137.637 62.8465 137.481 62.5796C137.328 62.3094 137.252 61.9969 137.252 61.6421H138.189C138.189 61.8862 138.236 62.0962 138.331 62.272C138.425 62.4445 138.554 62.5877 138.717 62.7017C138.883 62.8156 139.07 62.9002 139.278 62.9556C139.49 63.0076 139.709 63.0337 139.937 63.0337C140.266 63.0337 140.544 62.9881 140.772 62.897C141 62.8058 141.173 62.6756 141.29 62.5063C141.41 62.3371 141.47 62.1369 141.47 61.9058ZM145.914 62.6235L148.009 56.5933H149.029L146.397 63.7026H145.67L145.914 62.6235ZM143.956 56.5933L146.031 62.6235L146.29 63.7026H145.562L142.935 56.5933H143.956Z" fill="#7FD6DC"/>
<defs>
<filter id="filter0_d_5484_21498" x="0" y="0" width="201" height="168.256" filterUnits="userSpaceOnUse" color-interpolation-filters="sRGB">
<feFlood flood-opacity="0" result="BackgroundImageFix"/>
<feColorMatrix in="SourceAlpha" type="matrix" values="0 0 0 0 0 0 0 0 0 0 0 0 0 0 0 0 0 0 127 0" result="hardAlpha"/>
<feOffset dx="8" dy="8"/>
<feGaussianBlur stdDeviation="7.5"/>
<feColorMatrix type="matrix" values="0 0 0 0 0.221008 0 0 0 0 0.117361 0 0 0 0 0.541667 0 0 0 0.25 0"/>
<feBlend mode="normal" in2="BackgroundImageFix" result="effect1_dropShadow_5484_21498"/>
<feBlend mode="normal" in="SourceGraphic" in2="effect1_dropShadow_5484_21498" result="shape"/>
</filter>
</defs>
</svg>
