<svg width="32" height="21" viewBox="0 0 32 21" fill="none" xmlns="http://www.w3.org/2000/svg">
<path d="M27.7152 8.7591C27.7205 8.6394 27.7333 8.5218 27.7333 8.4C27.7333 3.7611 23.9125 0 19.2 0C15.8827 0 13.0133 1.86795 11.6021 4.58955C10.9824 4.3428 10.3093 4.2 9.6 4.2C6.90133 4.2 4.6944 6.17925 4.3392 8.7402C1.81653 9.58545 0 11.9311 0 14.7C0 18.1797 2.86507 21 6.4 21H25.6C29.1349 21 32 18.1797 32 14.7C32 11.9511 30.2091 9.6201 27.7152 8.7591ZM12.0459 10.8076L15.2459 7.65765C15.4539 7.4529 15.7269 7.35 16 7.35C16.2731 7.35 16.5461 7.4529 16.7541 7.65765L19.9541 10.8076C20.3712 11.2182 20.3712 11.8818 19.9541 12.2924C19.5371 12.7029 18.8629 12.7029 18.4459 12.2924L17.0667 10.9347V16.8C17.0667 17.3796 16.5899 17.85 16 17.85C15.4101 17.85 14.9333 17.3796 14.9333 16.8V10.9347L13.5541 12.2924C13.1371 12.7029 12.4629 12.7029 12.0459 12.2924C11.6288 11.8818 11.6288 11.2182 12.0459 10.8076Z" fill="#A1B9F1"/>
</svg>
