<svg width="23" height="23" viewBox="0 0 23 23" fill="none" xmlns="http://www.w3.org/2000/svg">
<path fill-rule="evenodd" clip-rule="evenodd" d="M11.3301 2.07275C8.77737 2.07275 6.32921 3.08681 4.52418 4.89185C2.71914 6.69689 1.70508 9.14505 1.70508 11.6978C1.70508 14.2505 2.71914 16.6986 4.52418 18.5037C6.32921 20.3087 8.77737 21.3228 11.3301 21.3228C13.8828 21.3228 16.3309 20.3087 18.136 18.5037C19.941 16.6986 20.9551 14.2505 20.9551 11.6978C20.9551 9.14505 19.941 6.69689 18.136 4.89185C16.3309 3.08681 13.8828 2.07275 11.3301 2.07275ZM11.3301 22.6978C8.4127 22.6978 5.6148 21.5388 3.5519 19.4759C1.489 17.413 0.330079 14.6151 0.33008 11.6978C0.33008 8.78037 1.489 5.98248 3.5519 3.91958C5.61481 1.85668 8.4127 0.697753 11.3301 0.697753C14.2475 0.697754 17.0454 1.85668 19.1083 3.91958C21.1712 5.98248 22.3301 8.78037 22.3301 11.6978C22.3301 14.6151 21.1712 17.413 19.1083 19.4759C17.0454 21.5388 14.2475 22.6978 11.3301 22.6978ZM16.1426 12.3853C16.3249 12.3853 16.4998 12.3128 16.6287 12.1839C16.7576 12.055 16.8301 11.8801 16.8301 11.6978C16.8301 11.5154 16.7576 11.3406 16.6287 11.2116C16.4998 11.0827 16.3249 11.0103 16.1426 11.0103L8.1772 11.0103L11.1293 8.0595C11.2584 7.93041 11.3309 7.75532 11.3309 7.57275C11.3309 7.39019 11.2584 7.2151 11.1293 7.086C11.0002 6.95691 10.8251 6.88439 10.6426 6.88439C10.46 6.88439 10.2849 6.95691 10.1558 7.086L6.03083 11.211C5.9668 11.2749 5.91601 11.3507 5.88135 11.4343C5.84669 11.5178 5.82885 11.6073 5.82885 11.6978C5.82885 11.7882 5.84669 11.8777 5.88135 11.9612C5.91601 12.0448 5.9668 12.1206 6.03083 12.1845L10.1558 16.3095C10.2849 16.4386 10.46 16.5111 10.6426 16.5111C10.8251 16.5111 11.0002 16.4386 11.1293 16.3095C11.2584 16.1804 11.3309 16.0053 11.3309 15.8228C11.3309 15.6402 11.2584 15.4651 11.1293 15.336L8.1772 12.3853L16.1426 12.3853Z" fill="#2D3D4F"/>
</svg>
