<svg width="15" height="15" viewBox="0 0 15 15" fill="none" xmlns="http://www.w3.org/2000/svg">
<path d="M0.60709 0H5.99684C6.15771 0.00035622 6.31187 0.0645511 6.42544 0.178485C6.48208 0.234623 6.5271 0.30137 6.55793 0.374911C6.58876 0.448452 6.60481 0.527348 6.60514 0.60709V5.97255C6.60514 6.13356 6.54118 6.28798 6.42733 6.40183C6.31348 6.51568 6.15906 6.57964 5.99805 6.57964H0.60709C0.527024 6.57979 0.44772 6.56409 0.373744 6.53346C0.299769 6.50283 0.232583 6.45786 0.176056 6.40116L0.165129 6.3878C0.0592907 6.27542 0.000243677 6.12693 0 5.97255L0 0.60709C0 0.44608 0.0639611 0.291664 0.177813 0.177813C0.291664 0.0639611 0.44608 0 0.60709 0ZM0.60709 8.19936H5.99684C6.15771 8.19972 6.31187 8.26391 6.42544 8.37785C6.48255 8.43388 6.52787 8.50078 6.55873 8.5746C6.58959 8.64841 6.60537 8.72766 6.60514 8.80767V14.1707C6.60514 14.3317 6.54118 14.4861 6.42733 14.6C6.31348 14.7138 6.15906 14.7778 5.99805 14.7778H0.60709C0.527024 14.7779 0.44772 14.7622 0.373744 14.7316C0.299769 14.701 0.232583 14.656 0.176056 14.5993L0.165129 14.586C0.0595771 14.4739 0.000551779 14.3259 0 14.1719L0 8.80888C0 8.64787 0.0639611 8.49345 0.177813 8.3796C0.291664 8.26575 0.44608 8.20179 0.60709 8.20179V8.19936ZM8.92301 0H14.3103C14.4713 0 14.6258 0.0639611 14.7396 0.177813C14.8535 0.291664 14.9174 0.44608 14.9174 0.60709V5.97255C14.9174 6.13356 14.8535 6.28798 14.7396 6.40183C14.6258 6.51568 14.4713 6.57964 14.3103 6.57964H8.92301C8.762 6.57964 8.60759 6.51568 8.49374 6.40183C8.37988 6.28798 8.31592 6.13356 8.31592 5.97255V0.60709C8.31674 0.527092 8.33335 0.448043 8.36481 0.374488C8.39628 0.300933 8.44197 0.234322 8.49926 0.178485L8.51141 0.167557C8.6225 0.0616894 8.76956 0.00182217 8.92301 0Z" fill="#828282"/>
<path d="M9.176 8.13477H14.1345C14.2529 8.13471 14.3698 8.16177 14.4767 8.21395C14.5835 8.26613 14.6776 8.34211 14.752 8.43632C14.8104 8.50613 14.8559 8.58629 14.8861 8.67284C14.9177 8.76068 14.9338 8.85359 14.9335 8.94719V13.9956C14.9333 14.105 14.9112 14.2133 14.8688 14.3137C14.8273 14.4155 14.7655 14.5074 14.6872 14.5833C14.5382 14.729 14.3406 14.811 14.1345 14.8128H9.176C9.07533 14.8121 8.97568 14.7921 8.88228 14.7536C8.78732 14.7156 8.70051 14.6589 8.62673 14.5869C8.54863 14.5106 8.48648 14.4188 8.44402 14.3173C8.40041 14.2179 8.37756 14.1104 8.37695 14.0015V8.95311C8.37722 8.85489 8.39485 8.75754 8.42899 8.66574C8.46278 8.57407 8.5121 8.4892 8.57469 8.41504L8.60823 8.38192C8.67665 8.31028 8.7574 8.25215 8.84644 8.21045C8.94966 8.16118 9.06209 8.13536 9.176 8.13477ZM14.1345 8.94956H9.176V14.0015C9.60038 14.0015 14.1356 14.0015 14.1391 14.0015C14.1391 13.5758 14.1391 8.95192 14.1391 8.94956H14.1345Z" fill="#828282"/>
</svg>
