<svg width="16" height="17" viewBox="0 0 16 17" fill="none" xmlns="http://www.w3.org/2000/svg">
<path d="M0 14.0687C0 15.4287 1.04 16.4688 2.4 16.4688H13.6C14.96 16.4688 16 15.4287 16 14.0687V7.66875H0V14.0687ZM13.6 2.06875H12V1.26875C12 0.78875 11.68 0.46875 11.2 0.46875C10.72 0.46875 10.4 0.78875 10.4 1.26875V2.06875H5.6V1.26875C5.6 0.78875 5.28 0.46875 4.8 0.46875C4.32 0.46875 4 0.78875 4 1.26875V2.06875H2.4C1.04 2.06875 0 3.10875 0 4.46875V6.06875H16V4.46875C16 3.10875 14.96 2.06875 13.6 2.06875Z" fill="#393F70"/>
</svg>
