<svg width="277" height="304" viewBox="0 0 277 304" fill="none" xmlns="http://www.w3.org/2000/svg">
<path d="M220.416 34.5394C221.961 34.4485 222.507 35.2666 222.961 36.2664C224.052 39.0841 225.143 41.9018 226.233 44.8104C228.597 50.9911 230.96 57.081 233.323 63.2617C236.05 70.3514 238.777 77.4411 241.503 84.5308C243.594 90.0753 245.866 95.6197 247.957 101.164C250.775 108.436 253.501 115.616 256.319 122.888C258.5 128.523 260.682 134.068 262.863 139.703C265.59 146.884 268.408 154.064 271.135 161.154C272.316 164.153 273.498 167.244 274.68 170.243C275.043 171.243 275.498 172.243 275.77 173.334C276.316 175.151 276.043 175.788 274.316 176.697C266.681 180.696 259.046 184.786 251.411 188.785C244.594 192.421 237.868 195.966 231.051 199.602C225.779 202.419 220.507 205.146 215.235 207.964C207.873 211.872 200.511 215.781 193.148 219.689C185.968 223.507 178.787 227.324 171.606 231.142C164.517 234.959 157.427 238.686 150.247 242.503C142.521 246.594 134.886 250.593 127.16 254.683C121.433 257.773 115.707 260.864 109.89 263.954C109.345 264.227 108.89 264.5 108.345 264.681C106.981 265.227 106.072 264.954 105.345 263.681C103.437 260.318 101.528 257.046 99.619 253.683C96.4377 248.048 93.2564 242.412 90.1661 236.777C87.8937 232.778 85.7123 228.778 83.5309 224.779C80.3496 219.144 77.1683 213.508 74.078 207.873C71.7147 203.601 69.3515 199.238 66.8974 194.966C63.807 189.422 60.6258 183.877 57.5354 178.333C55.1722 174.152 52.8998 169.97 50.5366 165.789C47.9007 161.063 45.2648 156.427 42.7198 151.792C40.9019 148.52 39.084 145.157 37.2662 141.884C33.3578 134.795 29.4494 127.614 25.45 120.525C23.4504 116.98 21.3598 113.526 19.2693 110.072C18.0877 108.072 18.3604 107.072 20.5418 106.254C23.9049 104.982 27.177 103.8 30.5401 102.619C39.1749 99.5282 47.7189 96.5287 56.3538 93.4383C65.2613 90.257 74.1689 86.9849 83.1673 83.8036C90.3479 81.2586 97.4375 78.6227 104.618 76.0777C116.071 71.9875 127.523 67.8973 138.976 63.8071C146.156 61.2621 153.246 58.6262 160.427 56.0812C170.243 52.5363 180.06 49.0824 189.876 45.5375C197.511 42.8107 205.146 40.0839 212.781 37.2662C214.872 36.5391 217.053 35.7211 219.144 34.9939C219.689 34.7212 220.234 34.6303 220.416 34.5394Z" fill="#D9EAFD"/>
<path d="M118.071 78.6227C117.434 79.7134 116.889 80.9859 116.071 81.9857C115.526 82.622 114.708 83.0765 113.98 83.44C97.8923 90.9842 81.7133 98.5283 65.6252 105.982C47.5374 114.435 29.4496 122.797 11.3619 131.25C10.6347 131.613 9.90758 131.977 9.08954 132.341C33.4489 181.877 57.7175 231.323 82.0769 280.86C92.9841 274.134 103.891 267.408 114.98 260.5C115.071 261.591 115.253 262.318 115.162 263.045C115.071 263.5 114.708 264.045 114.344 264.409C114.162 264.681 113.708 264.772 113.435 265.045C103.528 271.135 93.6203 277.225 83.7129 283.314C83.622 283.405 83.4403 283.496 83.3494 283.496C81.077 284.86 80.5317 284.769 79.3501 282.315C71.715 266.863 64.08 251.502 56.5358 235.959C39.9024 202.056 23.3598 168.062 6.81721 134.158C5.27202 131.068 5.36292 130.886 8.45329 129.432C44.2653 112.708 79.9863 95.9833 115.798 79.168C116.525 78.8045 117.253 78.5318 117.98 78.1682C117.889 78.4409 117.98 78.5318 118.071 78.6227Z" fill="black"/>
<path d="M195.239 45.0831C183.786 50.5367 178.787 52.8999 167.335 58.3535C167.153 57.2628 165.517 57.081 165.335 56.172C166.062 55.8085 165.153 56.2629 165.699 55.9903C176.151 51.2638 183.423 47.9917 193.875 43.1743C194.33 42.9925 194.693 42.6289 195.057 42.3563C196.148 41.5382 196.875 41.6291 197.602 42.7198C197.966 43.1743 198.147 43.7197 198.42 44.265C218.871 86.2577 239.322 128.25 259.773 170.243C259.864 170.334 259.955 170.516 259.955 170.607C261.227 173.243 261.136 173.515 258.591 175.151C229.778 192.966 201.056 210.782 172.243 228.597C171.788 228.869 171.334 229.051 170.789 229.415C170.243 228.597 169.698 227.869 168.971 226.87C198.42 208.691 227.688 190.512 257.228 172.243C236.686 129.887 215.963 87.5302 195.239 45.0831Z" fill="black"/>
<path d="M31.9034 133.613C39.4475 147.974 46.9008 162.245 54.5358 176.606C64.4432 172.061 74.2597 167.516 84.5306 162.79C83.8035 165.153 83.0763 166.88 80.8949 167.789C72.6236 171.425 64.3523 175.333 56.1719 179.06C55.7174 179.242 55.263 179.514 54.8085 179.605C53.8996 179.878 53.0815 179.696 52.5362 178.787C52.2635 178.333 51.9908 177.878 51.809 177.424C44.4467 163.426 37.1752 149.338 29.9037 135.34C28.2677 132.159 28.2677 132.068 31.6307 130.523C56.5355 119.434 81.5311 108.345 106.436 97.2558C106.981 96.9831 107.618 96.8013 108.345 96.5287C108.254 98.8919 107.163 100.073 105.163 100.982C81.4402 111.435 57.808 121.979 34.0848 132.432C33.3577 132.886 32.7214 133.159 31.9034 133.613Z" fill="black"/>
<path d="M79.8046 184.604C80.1682 185.604 80.35 186.331 80.7135 187.331C75.8053 189.785 70.8971 192.239 65.7161 194.875C71.0788 204.873 76.4416 214.69 81.8043 224.779C89.8029 220.325 97.6197 215.962 105.8 211.418C106.255 212.145 106.709 212.872 107.254 213.69C106.982 213.872 106.527 214.145 106.073 214.417C98.4377 218.689 90.7118 222.961 83.0768 227.233C80.9862 228.415 80.4409 228.324 79.2592 226.143C73.8965 216.235 68.6247 206.328 63.262 196.33C63.0802 195.966 62.8984 195.693 62.8076 195.33C62.2622 193.966 62.3531 193.33 63.7165 192.603C65.5344 191.603 67.3522 190.694 69.1701 189.785C72.7149 188.149 76.1689 186.422 79.8046 184.604Z" fill="black"/>
<path d="M143.702 193.512C143.339 190.421 143.339 190.421 145.52 189.24C163.79 179.06 182.059 168.88 200.329 158.7C201.056 158.245 201.874 157.882 202.783 157.336C203.328 157.973 203.964 158.609 204.692 159.518C184.332 170.879 164.153 182.059 143.702 193.512Z" fill="black"/>
<path d="M185.968 64.5342C182.605 66.0794 179.696 67.4428 176.515 68.8971C176.152 68.2608 175.788 67.8064 175.333 67.0792C177.969 65.9885 180.424 64.9887 182.878 63.898C183.605 63.5344 184.423 63.0799 185.059 62.5346C186.877 61.0803 188.24 61.353 188.967 63.6253C190.694 69.7151 192.421 75.805 194.148 81.8039C196.693 90.9842 199.329 100.255 201.874 109.436C202.329 111.162 202.147 111.708 200.965 112.435C200.693 112.617 200.329 112.799 199.966 112.889C199.511 113.071 199.057 113.253 198.42 113.526C197.966 112.708 197.602 111.981 197.148 111.072C197.693 110.708 198.148 110.344 198.875 109.799C194.603 94.8926 190.331 79.8952 185.968 64.5342Z" fill="black"/>
<path d="M148.883 205.419C148.247 204.783 147.792 204.237 147.338 203.692C168.97 191.694 190.421 179.696 212.054 167.698C212.145 168.516 212.236 169.243 212.417 170.061C191.512 182.332 170.425 194.057 148.883 205.419Z" fill="black"/>
<path d="M160.427 218.235C161.517 217.508 162.517 216.78 163.608 216.235C176.242 209.691 187.967 201.601 200.238 194.421C206.146 190.967 211.872 187.331 217.78 183.877C219.507 182.877 221.416 182.059 223.234 181.241C223.87 180.969 224.507 180.787 224.961 181.787C224.597 182.059 224.234 182.514 223.779 182.786C215.235 188.058 206.691 193.239 198.238 198.511C191.33 202.692 184.604 207.055 177.606 211.054C172.697 213.872 167.607 216.326 162.608 218.962C161.79 219.416 160.972 219.78 160.427 218.235Z" fill="black"/>
<path d="M40.084 137.794C40.8111 137.249 41.4474 136.704 42.2654 136.34C47.5372 133.795 52.809 131.159 58.1717 128.705C72.7147 122.07 87.2576 115.434 101.71 108.799C102.255 108.527 102.891 108.345 103.709 108.072C103.528 110.072 102.709 111.162 100.982 111.981C82.2585 120.343 63.5345 128.796 44.8104 137.249C43.7197 137.703 42.629 138.158 41.5383 138.521C41.1747 138.612 40.6293 138.43 40.2658 138.43C40.1749 138.158 40.1749 137.976 40.084 137.794Z" fill="black"/>
<path d="M99.9826 120.161C99.3464 122.07 98.9828 123.433 97.2558 124.16C81.3495 131.25 65.534 138.43 49.6277 145.52C48.8097 145.884 47.9008 146.247 46.9918 146.52C46.6282 146.611 46.0829 146.338 45.6284 146.247C45.8102 145.884 45.9011 145.247 46.2647 145.066C46.9918 144.52 47.8099 144.157 48.537 143.793C59.9896 138.43 71.3512 133.068 82.8038 127.796C87.712 125.524 92.7111 123.251 97.6194 120.979C98.2556 120.797 98.8919 120.524 99.9826 120.161Z" fill="black"/>
<path d="M197.875 149.792C198.238 150.519 198.602 151.065 198.966 151.792C181.241 161.154 163.517 170.425 145.793 179.696C145.611 178.06 145.884 177.06 147.338 176.242C163.79 167.607 180.242 158.972 196.693 150.247C197.057 150.247 197.329 150.065 197.875 149.792Z" fill="black"/>
<path d="M147.974 166.971C147.883 165.244 148.247 164.244 149.519 163.608C163.517 156.518 177.424 149.338 191.33 142.248C191.603 142.157 191.876 141.975 192.239 141.884C192.603 142.43 192.966 142.975 193.512 143.702C178.423 151.428 163.335 159.063 147.974 166.971Z" fill="black"/>
<path d="M92.8928 229.324C93.3473 229.596 94.0744 229.96 94.3471 230.505C95.7105 233.141 96.983 235.777 98.3464 238.504C98.8009 239.504 98.5282 240.322 97.5284 240.867C95.6196 242.049 93.7109 243.23 91.7112 244.321C90.2569 245.139 89.7116 244.957 88.8935 243.594C87.4392 241.231 86.0758 238.868 84.6215 236.504C84.1671 235.868 83.8035 235.141 83.349 234.505C82.531 233.232 82.6219 232.596 84.0762 232.051C85.6214 231.414 87.2574 230.96 88.8026 230.505C90.0751 230.142 91.3476 229.778 92.8928 229.324ZM93.3473 234.232C93.1655 234.232 92.9837 234.323 92.8928 234.323C92.9837 235.686 93.0746 237.05 93.0746 238.413C93.0746 239.595 92.3475 240.231 91.4385 239.867C90.3478 239.413 89.1662 238.868 88.8026 237.504C88.7117 237.322 88.8935 237.141 89.0753 236.777C89.7116 236.777 90.2569 236.777 90.9841 236.777C90.9841 235.323 90.9841 234.05 90.9841 232.596C89.1662 233.141 87.5301 233.778 85.6214 234.414C87.3483 237.05 88.9844 239.504 90.7114 242.049C92.5293 240.958 94.1653 239.958 95.8923 238.868C94.9834 237.232 94.1653 235.777 93.3473 234.232Z" fill="black"/>
<path d="M186.695 131.159C187.059 131.886 187.422 132.522 187.877 133.25C175.333 139.612 162.881 145.884 150.429 152.246C150.247 149.338 150.247 149.247 152.519 148.156C163.245 142.793 173.97 137.431 184.696 132.159C185.332 131.795 185.968 131.523 186.695 131.159Z" fill="black"/>
<path d="M204.419 124.706C204.056 124.16 203.692 123.706 203.329 123.07C203.601 122.888 203.783 122.797 203.965 122.706C205.237 122.07 206.51 121.524 207.691 120.888C208.419 120.524 209.146 119.979 209.873 119.525C210.964 118.707 211.873 118.798 212.509 120.07C212.691 120.434 212.872 120.888 212.963 121.252C216.054 129.705 219.053 138.158 222.053 146.702C222.325 147.429 222.871 148.247 222.144 149.338C220.417 147.429 218.599 145.884 217.69 143.339C215.508 136.976 213.054 130.614 210.691 124.342C210.418 123.615 210.146 122.888 209.782 121.979C207.964 122.797 206.237 123.706 204.419 124.706Z" fill="black"/>
<path d="M101.164 249.139C101.437 249.32 102.073 249.502 102.255 249.866C103.982 252.592 105.618 255.41 107.254 258.228C107.709 259.046 107.436 259.682 106.709 260.137C104.709 261.409 102.71 262.682 100.619 263.863C99.7101 264.409 98.983 263.954 98.4376 263.136C97.5287 261.682 96.7106 260.137 95.8017 258.682C95.1654 257.682 94.5292 256.774 93.8929 255.774C93.4385 255.047 93.2567 254.319 93.9838 253.865C96.1653 252.32 98.3467 250.775 100.619 249.32C100.619 249.229 100.801 249.229 101.164 249.139ZM96.2562 255.501C97.6196 257.592 98.8921 259.5 100.255 261.409C101.892 260.409 103.255 259.5 104.709 258.682C103.709 256.774 103.709 256.774 102.528 255.774C102.528 256.774 102.619 257.592 102.528 258.501C102.437 258.955 101.801 259.682 101.528 259.682C100.71 259.5 99.9828 259.046 99.2556 258.501C98.7103 258.137 98.1649 257.592 98.7103 256.592C99.3465 256.683 99.8919 256.774 100.71 256.864C100.619 255.501 100.619 254.229 100.528 252.592C98.8921 253.501 97.6196 254.41 96.2562 255.501Z" fill="black"/>
<path d="M180.241 118.798C180.787 119.706 181.15 120.434 181.696 121.433C172.606 125.615 163.699 129.705 154.791 133.795C154.61 131.068 155.064 130.341 157.155 129.341C164.244 126.069 171.334 122.797 178.424 119.525C178.969 119.252 179.514 119.07 180.241 118.798Z" fill="black"/>
<path d="M95.6197 132.977C95.2561 134.522 94.5289 135.431 93.2564 136.067C80.3496 142.157 67.4428 148.247 54.445 154.246C53.5361 154.7 52.6271 155.428 51.1729 154.882C51.5364 154.428 51.8091 153.973 52.1727 153.791C53.4452 153.064 54.7177 152.428 55.9902 151.792C68.6244 145.702 81.3494 139.612 94.0745 133.522C94.529 133.34 94.9834 133.159 95.6197 132.977Z" fill="black"/>
<path d="M89.5301 147.52C88.9848 149.61 87.8941 150.61 86.258 151.428C77.1686 155.7 68.1702 160.063 59.1718 164.335C58.3537 164.699 57.4448 165.426 56.2632 164.79C56.3541 163.79 57.1721 163.517 57.8993 163.153C60.8078 161.699 63.7164 160.154 66.625 158.7C73.6238 155.246 80.7135 151.792 87.7123 148.338C88.2576 148.065 88.7121 147.883 89.5301 147.52Z" fill="black"/>
<path d="M79.5317 213.327C80.986 211.509 88.8938 206.964 95.8925 203.783C96.2561 204.146 96.7106 204.51 97.165 204.873C96.9833 205.146 96.9833 205.328 96.8924 205.419C89.3482 209.782 81.6223 213.417 79.5317 213.327Z" fill="black"/>
<path d="M163.699 113.708C163.426 111.799 164.154 110.89 165.608 110.254C168.426 108.981 171.243 107.618 174.152 106.163C174.515 106.709 174.879 107.254 175.424 107.981C171.516 109.981 167.698 111.799 163.699 113.708Z" fill="black"/>
<path d="M88.9848 196.966C84.1674 199.329 79.8045 201.874 74.9872 203.692C74.8054 203.783 74.5327 203.51 73.8965 203.328C74.4418 202.783 74.7145 202.238 75.169 202.056C78.8956 200.056 82.5313 198.147 86.258 196.148C87.3487 195.511 87.9849 196.148 88.9848 196.966Z" fill="black"/>
<path d="M98.4375 232.869C102.619 229.869 106.891 227.688 110.981 225.052C111.526 225.506 111.981 225.961 112.344 226.324C112.253 226.506 112.253 226.688 112.162 226.779C108.527 228.688 104.891 230.687 101.255 232.505C100.528 232.96 99.71 233.414 98.4375 232.869Z" fill="black"/>
<path d="M106.8 252.138C107.891 250.411 109.981 249.048 114.162 246.957C114.889 248.775 114.889 248.957 113.344 249.775C111.344 250.866 109.345 251.774 106.8 252.138Z" fill="black"/>
<path d="M180.696 75.3505C180.241 74.7143 179.969 74.1689 179.423 73.4418C180.878 72.7146 182.241 71.9875 183.695 71.2603C184.422 70.8968 184.968 71.2603 185.331 71.9875C185.604 72.7146 185.422 73.3509 184.786 73.6236C183.423 74.2598 182.059 74.8052 180.696 75.3505Z" fill="black"/>
<path d="M169.789 97.4376C170.152 98.0738 170.425 98.6192 170.698 99.3464C168.789 100.255 167.062 101.073 165.335 101.891C164.881 100.255 165.335 99.3464 166.698 98.801C167.789 98.4374 168.698 97.983 169.789 97.4376Z" fill="black"/>
<path d="M185.059 83.8945C184.695 83.0765 184.423 82.4402 184.059 81.713C184.877 81.2586 185.513 80.895 186.331 80.5314C187.149 80.1679 187.786 80.4405 188.149 81.1677C188.513 81.9857 188.149 82.622 187.422 82.9856C186.695 83.2582 185.877 83.5309 185.059 83.8945Z" fill="black"/>
<path d="M166.335 89.8026C166.699 90.4388 167.062 91.0751 167.517 91.8022C167.062 92.0749 166.699 92.2567 166.153 92.5294C165.971 91.6204 165.881 90.8024 165.699 89.9844C165.971 89.8935 166.153 89.8935 166.335 89.8026Z" fill="black"/>
<path d="M98.5286 27.6316C103.437 27.6316 108.254 28.2678 112.799 29.9039C118.343 31.9035 123.797 34.085 129.251 36.1755C133.159 37.6298 137.158 38.9932 141.158 40.3566C148.338 42.9016 155.519 45.5375 162.336 48.9915C166.244 50.9911 170.153 53.1726 173.97 55.354C177.878 57.6263 180.696 60.9894 182.787 65.0796C187.604 74.3507 193.421 82.8947 199.148 91.5295C207.419 104.255 216.417 116.434 225.416 128.705C227.506 131.523 229.506 134.34 231.415 137.249C232.96 139.612 234.051 142.066 234.141 144.975C234.232 146.611 233.687 147.974 232.596 149.156C229.233 152.61 225.234 154.973 220.417 155.882C216.781 156.518 213.781 155.246 211.6 152.337C209.418 149.338 207.419 146.156 205.601 142.975C198.784 131.25 191.967 119.525 184.605 108.072C182.15 104.255 179.696 100.346 177.151 96.5287C176.788 95.8924 176.333 95.3471 175.788 94.8926C174.97 94.2563 174.061 94.529 173.697 95.5288C173.425 96.3469 173.152 97.1649 173.061 98.0739C172.879 99.9826 172.698 101.982 172.607 103.891C172.425 107.981 172.243 112.162 172.061 116.253C171.88 119.07 171.061 121.706 169.425 123.978C167.608 126.433 165.063 127.705 162.154 127.614C159.609 127.614 156.973 127.16 154.428 126.705C144.339 124.615 134.613 121.252 124.979 117.434C121.797 116.162 118.98 114.162 117.071 111.162C116.344 110.072 116.071 108.981 115.98 107.709C115.798 103.255 116.707 98.9828 118.162 94.8926C120.707 87.712 123.615 80.6223 126.433 73.6236C127.614 70.6241 129.16 67.7155 130.432 64.716C132.159 60.5349 131.432 58.2626 127.342 56.4447C124.342 55.1722 121.252 54.1724 118.071 53.2635C111.526 51.3547 104.982 49.6277 98.3468 47.8099C97.8924 47.719 97.347 47.719 96.8926 47.719C96.4381 47.719 95.8018 47.9008 95.4383 47.719C92.8024 46.1738 90.0756 44.5377 88.2577 41.9018C87.5305 40.902 87.4397 39.7204 87.5306 38.5388C87.7123 37.1754 87.8941 35.812 87.8941 34.4486C87.8941 32.9034 88.5304 31.7218 89.4393 30.4492C91.2572 27.8133 94.0749 27.9042 96.7108 27.4498C97.347 27.5407 97.9833 27.6316 98.5286 27.6316Z" fill="#EF9B9B"/>
<path d="M164.88 235.505C165.153 230.96 167.335 227.415 170.97 225.87C173.515 224.779 175.969 224.961 178.242 226.506C182.695 229.687 186.149 233.778 188.149 238.959C189.422 242.322 189.422 245.776 188.422 249.229C187.058 254.41 180.787 256.865 176.151 254.047C173.333 252.32 170.97 250.138 169.425 247.139C168.425 245.139 167.153 243.321 166.335 241.231C165.608 239.322 165.335 237.413 164.88 235.505Z" fill="#F8BC61"/>
<path d="M126.433 295.494C126.705 290.586 128.341 286.132 130.705 281.951C131.614 280.224 132.886 278.679 133.886 277.043C135.068 275.134 136.885 274.043 138.976 273.771C141.43 273.407 143.793 273.043 146.338 273.589C149.61 274.316 151.065 275.952 151.156 279.315C151.247 281.587 150.701 283.769 149.701 285.859C146.975 291.768 142.975 296.676 137.431 300.221C136.249 300.948 134.977 301.493 133.704 301.948C129.705 303.22 126.614 300.948 126.342 296.767C126.433 296.221 126.433 295.858 126.433 295.494Z" fill="#F8BC61"/>
<path d="M170.879 29.0859C171.061 27.4498 171.152 25.9046 170.152 24.4503C169.334 23.1778 168.243 22.2689 166.698 22.178C165.517 22.0871 164.426 21.8144 163.244 21.7235C160.972 21.4508 159.699 20.451 159.154 18.4514C158.7 16.8153 159.518 14.543 161.336 13.634C162.699 12.9978 164.244 12.3615 165.698 12.5433C172.879 13.2705 178.333 16.7244 180.878 23.8141C181.514 25.6319 181.968 27.5407 182.15 29.5404C182.241 30.9038 181.787 32.4489 181.241 33.7214C180.332 35.9029 178.242 36.9936 175.788 36.8118C173.606 36.63 171.97 35.2666 171.425 32.9034C170.97 31.54 170.97 30.3584 170.879 29.0859Z" fill="#F8BC61"/>
<path d="M94.4382 23.2687C93.0748 21.8144 93.2566 19.3603 92.9839 17.088C92.5295 13.9976 92.3477 10.9072 92.1659 7.81686C92.075 5.72631 92.1659 3.63576 92.1659 1.54522C92.1659 0.454498 93.5293 -0.181755 94.4382 0.636285C95.0745 1.18164 95.5289 1.99968 95.7107 2.81772C96.347 6.08988 96.9832 9.36204 97.4377 12.6342C98.1648 18.1787 98.9829 23.7232 99.5282 29.2677C100.074 34.4486 100.437 39.6295 100.801 44.9013C100.892 45.6285 101.073 46.5374 100.164 46.9919C99.4373 47.3554 97.6195 46.8101 97.165 46.1738C96.8014 45.6285 96.5288 44.9922 96.4379 44.356C95.7107 38.8115 94.7109 33.3579 94.8018 27.7225C94.7109 26.45 94.62 25.1775 94.4382 23.2687Z" fill="#F8BC61"/>
<path d="M143.52 275.861C139.43 275.952 135.522 275.225 131.704 274.134C127.523 272.953 124.706 270.135 123.797 265.954C122.979 262.227 122.433 258.41 122.07 254.592C121.252 246.684 120.706 238.686 119.797 230.778C119.161 225.052 118.252 219.416 116.343 213.963C115.616 211.781 114.525 209.691 113.526 207.6C112.162 204.964 109.981 203.056 107.527 201.51C103.982 199.329 100.437 196.966 96.9831 194.603C93.1655 191.876 91.9839 187.786 91.5295 183.423C91.075 178.696 92.2566 174.152 93.5291 169.698C96.6195 158.336 99.9825 147.065 104.255 136.067C105.163 133.704 106.254 131.341 107.163 128.978C108.072 126.796 108.89 124.615 109.254 122.161C110.163 115.798 115.798 111.981 122.251 112.799C126.614 113.344 130.704 114.707 134.795 116.434C137.34 117.525 139.976 118.343 142.611 119.161C147.702 120.797 152.882 122.251 157.972 123.978C161.063 124.978 163.608 126.978 165.88 129.25C169.061 132.522 170.788 136.522 170.97 141.157C171.152 145.793 170.243 150.247 169.334 154.791C167.698 162.79 165.88 170.698 164.244 178.605C163.608 181.787 163.153 185.059 162.79 188.24C162.608 189.785 163.062 191.421 163.244 192.966C163.517 194.693 164.426 196.057 165.971 196.966C167.425 197.875 168.971 198.693 170.516 199.602C171.516 200.147 172.515 200.783 173.515 201.42C177.787 204.055 180.06 207.873 180.968 212.69C181.877 217.326 182.059 222.052 181.877 226.779C181.787 229.415 181.696 232.141 181.332 234.777C181.15 236.232 180.514 237.686 179.787 239.049C178.878 240.776 177.333 241.685 175.333 241.685C173.879 241.685 172.425 241.413 170.97 241.231C170.061 241.14 169.152 240.776 168.153 240.685C165.517 240.413 164.062 241.685 164.335 244.321C164.517 246.503 165.062 248.593 165.426 250.775C165.88 253.501 166.516 256.228 166.789 258.955C167.062 262.227 166.335 265.318 164.971 268.226C164.153 269.862 162.79 270.953 161.336 271.862C158.336 273.771 154.973 274.68 151.428 275.043C148.792 275.498 146.156 275.588 143.52 275.861Z" fill="#6892FE"/>
<path d="M102.982 112.708C101.255 111.981 101.619 110.708 101.982 109.526C102.891 106.891 103.709 104.255 104.8 101.71C110.163 88.9845 116.616 76.8957 124.433 65.625C124.706 65.1705 124.978 64.8069 125.342 64.2616C116.071 60.5349 106.8 56.8083 97.3467 53.0817C97.1649 53.6271 97.0741 54.0815 96.8923 54.536C91.2569 71.9875 80.3497 84.349 62.3528 89.5299C59.0806 90.4388 55.6267 90.5297 52.2636 90.9842C51.8092 91.0751 51.2638 91.0751 50.8094 91.0751C50.6276 91.3478 50.5367 91.4387 50.4458 91.6205C44.7195 104.982 37.6298 117.707 30.1766 130.159C25.1774 138.521 20.451 147.065 16.4517 155.973C10.5436 169.334 6.18074 183.15 3.99931 197.602C2.90859 204.783 2.45412 212.054 3.27216 219.326C4.54467 231.051 14.6338 243.321 28.086 245.957C32.5398 246.866 36.9027 246.866 41.2656 245.503C52.5363 241.958 62.6255 236.504 70.3514 227.233C73.8963 222.961 76.9866 218.417 79.7134 213.599C80.4406 212.418 81.3495 211.6 82.9856 211.145C82.622 212.327 82.4402 213.327 82.0767 214.145C76.0777 226.324 67.8973 236.323 55.7176 242.685C51.082 245.139 46.3556 247.502 41.2656 248.593C28.6314 251.32 18.0878 247.502 9.27112 238.322C2.45412 231.323 0 222.689 0 213.145C0 203.056 1.54519 193.148 3.99931 183.423C8.54397 165.244 16.2699 148.338 25.8137 132.25C31.1764 123.16 36.3573 113.98 41.4473 104.8C43.5379 100.982 45.2649 96.9832 47.1736 93.0747C47.4463 92.4385 47.719 91.8022 47.9008 91.0751C45.2649 90.5297 42.9016 90.0753 40.5384 89.439C38.7205 88.8937 36.9936 88.2574 35.2666 87.3485C28.6314 84.0763 24.9957 78.6227 23.814 71.3512C22.5415 63.1708 25.4501 56.3539 31.2673 50.8094C35.9938 46.2647 41.9018 45.3558 48.0826 46.6283C52.4454 47.5372 55.0813 50.5367 56.6265 54.6269C58.0808 58.6262 58.1717 62.7164 57.7172 66.8975C56.8992 73.5327 54.8087 79.9861 52.5363 86.3486C52.2636 86.9849 52.0819 87.712 51.8092 88.5301C54.536 88.8937 56.9901 88.4392 59.4442 87.9847C68.6244 86.1669 76.3504 81.6222 82.8947 74.987C87.2576 70.4423 90.7115 65.2614 93.5292 59.626C94.7108 57.2628 95.2562 54.7178 95.3471 52.2637C94.4381 51.9001 93.4383 51.5365 92.4385 51.082C88.8028 49.3551 85.0761 47.6281 81.4404 45.8102C79.5316 44.9013 78.6227 43.1743 78.0773 41.1747C77.2593 37.8116 77.6229 34.5395 78.35 31.2673C78.4409 30.8128 78.8045 30.3584 78.9863 29.9948C78.4409 28.995 77.8047 27.9951 77.3502 26.9044C76.6231 25.2683 76.8957 24.2685 78.4409 23.4505C79.3499 22.9051 79.7134 22.178 79.8952 21.269C80.1679 19.8148 80.9859 18.9967 82.5311 18.8149C83.0765 18.724 83.6218 18.4514 83.9854 18.0878C86.2577 15.2701 87.4394 15.1792 90.2571 17.2697C90.3479 17.3606 90.5297 17.3606 90.8933 17.6333C90.6206 16.2699 90.4388 14.9974 90.2571 13.8158C89.7117 10.4527 89.2572 7.08969 88.7119 3.72664C88.621 3.18128 88.621 2.54502 88.7119 1.99967C88.8028 0.999839 89.3481 0.363586 90.3479 0.181799C91.3478 1.26064e-05 92.0749 0.363586 92.5294 1.27252C92.8021 1.81788 92.893 2.54502 93.0747 3.18128C93.8928 8.18041 94.6199 13.2704 95.438 18.2696C95.5289 18.724 95.6198 19.0876 95.7107 19.5421C98.1648 20.451 98.801 22.5415 96.6196 24.5412C97.1649 25.3592 97.8012 26.1773 98.2557 27.0862C99.6191 29.5403 99.4373 30.3584 96.8923 31.7218C97.3467 35.2666 97.7103 38.7206 98.2557 42.2654C98.5283 44.3559 98.5283 46.2647 97.2558 48.0826C96.5287 49.0824 97.1649 50.8094 98.2557 51.2638C99.2555 51.7183 100.255 52.0819 101.255 52.5363C108.527 55.5358 115.798 58.5353 122.979 61.5348C124.069 61.9892 125.069 62.4437 126.342 63.08C130.068 58.6262 133.159 53.4453 138.703 50.8094C130.886 59.5351 124.615 69.2607 118.798 79.3499C113.071 89.439 107.618 99.71 104.164 110.799C123.433 114.889 142.339 119.343 160.881 125.978C162.608 116.343 163.426 106.8 164.517 97.3467C165.608 87.8029 165.789 78.2591 165.244 68.6245C165.426 68.6245 165.608 68.5336 165.699 68.5336C165.88 68.988 166.062 69.4425 166.153 69.897C167.607 78.35 167.607 86.8031 166.88 95.3471C165.971 105.436 164.699 115.435 163.517 125.433C163.153 128.978 162.79 129.159 159.427 127.978C158.7 127.705 157.973 127.523 156.973 127.16C156.791 128.432 156.609 129.523 156.336 130.614C154.61 138.249 152.883 145.884 151.156 153.519C148.792 164.062 147.156 174.606 145.793 185.331C145.157 190.058 146.066 194.693 146.611 199.42C146.974 202.238 147.883 204.419 150.247 206.146C152.337 207.691 154.064 209.691 155.973 211.509C158.063 213.599 160.063 215.69 159.972 218.962C162.699 219.235 164.608 220.598 166.244 222.507C170.789 227.96 174.697 233.778 177.424 240.322C178.514 242.958 179.151 245.685 178.878 248.593C178.878 248.957 178.878 249.32 178.787 249.684C178.151 254.047 175.788 255.501 171.788 253.683C167.789 251.865 164.79 248.775 162.063 245.412C161.608 244.867 161.245 244.23 160.881 243.685C160.154 244.412 159.518 245.321 158.7 245.594C157.518 246.048 156.336 245.503 155.246 244.776C154.882 244.503 154.519 244.412 153.882 244.049C154.246 247.321 154.7 250.32 155.064 253.32C155.518 257.228 156.064 261.136 156.518 265.045C156.609 265.863 156.7 266.681 156.609 267.408C156.518 268.862 156.246 269.044 154.791 269.226C150.065 269.68 145.52 270.953 141.339 272.225C139.794 277.679 138.521 282.769 136.976 287.859C135.613 292.222 133.34 296.221 130.068 299.584C128.614 301.13 126.796 302.22 124.797 302.947C121.615 304.129 118.798 303.129 117.252 300.039C116.525 298.675 116.162 297.039 115.98 295.494C115.434 291.04 116.525 286.859 117.98 282.678C118.161 282.042 118.434 281.497 118.616 280.86C118.343 280.769 118.252 280.678 118.161 280.678C115.98 281.315 115.434 281.042 115.162 278.77C114.889 276.134 114.798 273.589 114.526 270.953C113.708 263.863 112.708 256.864 112.071 249.775C111.344 242.503 110.981 235.141 110.344 227.87C110.163 225.143 109.89 222.325 109.708 219.598C109.617 218.417 109.163 217.599 108.254 216.781C102.891 212.236 97.5285 207.6 92.2567 202.965C89.6208 200.692 86.9849 198.42 84.349 196.057C83.2583 195.057 82.2584 193.966 81.3495 192.876C77.8956 188.876 76.7139 184.423 77.8956 179.06C80.4406 167.698 83.8945 156.609 88.3483 145.884C92.8021 135.249 97.4376 124.797 101.982 114.253C102.528 113.889 102.709 113.435 102.982 112.708ZM104.982 112.98C102.709 118.343 100.437 123.615 98.1648 128.978C93.9837 138.703 89.7117 148.429 86.4395 158.518C84.0763 165.971 81.6222 173.424 80.2588 181.241C79.8043 183.968 80.077 186.513 81.7131 188.695C83.1674 190.694 84.7126 192.603 86.4395 194.33C88.8937 196.693 91.6204 198.784 94.2564 200.965C98.801 204.783 103.346 208.6 107.89 212.509C108.163 212.781 108.527 212.963 108.89 213.236C108.981 212.963 109.072 212.781 109.072 212.69C109.072 212.145 108.981 211.691 108.981 211.145C108.708 206.146 108.708 201.147 109.799 196.148C110.89 191.24 111.981 186.331 112.98 181.423C113.162 180.787 113.162 180.06 113.253 179.332C110.163 179.969 107.436 180.696 104.618 180.878C104.527 180.696 104.527 180.605 104.436 180.423C106.436 179.696 108.436 178.878 110.617 178.06C108.617 176.878 106.163 177.424 104.164 175.697C107.709 174.879 110.708 175.879 113.798 176.878C113.98 176.333 114.162 175.788 114.253 175.333C115.344 170.698 116.343 165.971 117.434 161.336C119.706 150.974 122.07 140.612 124.342 130.341C124.524 129.705 124.433 128.978 125.342 128.432C125.251 129.341 125.342 129.977 125.251 130.614C124.342 136.613 123.615 142.702 122.433 148.701C119.525 163.244 116.434 177.696 113.344 192.239C112.253 197.329 111.072 202.419 111.435 207.782C111.708 211.145 111.799 214.599 112.435 217.962C112.98 220.962 112.889 224.052 113.071 227.051C113.708 235.414 114.344 243.685 115.162 252.047C115.98 260.5 116.98 268.953 117.98 277.406C117.98 277.77 118.161 278.043 118.252 278.406C130.068 273.952 141.43 268.771 153.973 266.681C153.701 263.863 153.428 261.136 153.064 258.501C151.428 246.23 149.974 234.05 147.611 221.871C146.156 214.236 145.247 206.51 144.066 198.784C143.339 193.966 142.702 189.149 143.521 184.241C144.52 178.06 145.247 171.879 146.52 165.789C148.883 154.609 151.61 143.43 154.246 132.25C154.7 130.432 155.246 128.614 155.7 126.887C150.065 124.069 109.254 112.98 104.982 112.98ZM49.1733 88.621C50.264 85.5306 51.4456 82.4402 52.4454 79.3499C53.9906 74.4416 55.354 69.4425 55.6267 64.2616C55.8085 61.0803 55.4449 57.9899 54.3542 55.0813C52.9908 51.7183 50.6276 49.2642 46.9918 48.7188C41.0838 47.9008 35.7211 49.1733 31.6309 53.8088C30.4493 55.1722 29.4494 56.7174 28.5405 58.2626C23.4505 66.7157 25.4501 81.3495 38.357 86.2577C41.72 87.6211 45.2649 88.4392 49.1733 88.621ZM138.521 273.498C138.34 273.498 138.067 273.407 137.885 273.498C132.522 275.498 127.16 277.497 121.706 279.497C120.979 279.77 120.706 280.224 120.615 280.951C120.07 283.314 119.434 285.587 118.979 287.95C118.343 291.222 118.07 294.585 119.161 297.857C120.343 301.13 122.161 301.857 125.251 300.402C128.25 299.039 130.159 296.494 131.795 293.858C135.613 287.768 137.067 280.86 138.612 273.952C138.703 273.862 138.521 273.68 138.521 273.498ZM160.336 220.78C160.427 222.052 160.427 223.143 160.518 224.234C160.608 228.051 161.063 231.96 160.79 235.777C160.518 239.322 161.336 242.049 163.881 244.503C166.698 247.23 169.334 250.138 173.061 251.774C175.515 252.865 176.515 252.32 176.969 249.684C177.515 246.775 176.878 244.049 175.788 241.413C172.97 234.687 168.88 228.688 163.972 223.234C163.063 222.052 161.972 221.325 160.336 220.78ZM158.063 243.321C158.154 242.685 158.336 242.14 158.336 241.685C158.882 233.778 158.336 225.87 157.791 217.962C157.7 216.69 157.064 215.599 156.155 214.69C153.973 212.509 151.792 210.236 149.519 208.055C149.156 207.691 148.792 207.509 148.065 206.873C150.065 218.598 151.974 229.96 153.882 241.231C155.246 241.958 156.609 242.594 158.063 243.321ZM95.438 49.9913C95.8015 48.4461 95.8015 48.4461 95.2562 47.5372C94.529 46.2647 93.9837 44.9922 93.8928 43.447C93.5292 38.9932 92.893 34.5395 92.4385 29.9948C92.3476 29.2677 92.3476 28.5405 91.4387 28.4496C90.6206 29.3585 89.7117 30.2675 88.9845 31.2673C87.712 32.9943 86.6213 33.6305 84.5308 32.9034C82.8947 32.358 81.3495 31.54 79.6225 30.7219C79.1681 34.085 78.8954 37.448 80.077 40.7202C80.6224 42.1745 81.3495 42.629 82.7129 42.1745C83.6218 41.9018 84.5308 41.2656 85.2579 40.6293C87.3485 38.8114 88.2574 36.2664 89.0754 33.6305C89.2572 32.9034 89.5299 32.2671 89.8935 31.6309C90.0753 31.3582 90.6206 31.2673 91.0751 31.2673C91.3478 31.2673 91.5296 31.8127 91.6205 32.0853C91.7113 32.358 91.6205 32.6307 91.6205 32.9034C90.8933 36.63 89.6208 40.084 86.7122 42.629C85.8942 43.3561 84.9852 43.9015 83.8945 44.7195C87.8029 46.7192 91.6205 48.3552 95.438 49.9913ZM79.0772 25.4501C80.2588 28.3587 82.0767 30.0857 84.6217 30.9946C85.5306 31.3582 86.4395 31.3582 87.0758 30.2675C85.8033 29.0859 84.4399 27.9951 83.8945 25.8137C85.167 26.7226 86.076 27.268 86.894 27.9043C87.5303 28.3587 88.1665 28.9041 88.8028 28.2678C89.5299 27.6316 88.9846 26.9953 88.4392 26.45C87.8938 25.8137 87.4394 25.1775 86.9849 24.5412C86.8031 24.2685 86.7122 23.8141 86.6213 23.4505C87.6211 23.6323 88.2574 24.0867 88.9845 24.6321C89.5299 25.0866 90.0753 25.8137 90.7115 25.9046C92.7112 26.2682 94.2564 27.5407 95.8924 28.6314C96.1651 28.8132 96.4378 28.8132 97.0741 29.0859C96.7105 28.4496 96.6196 28.086 96.4378 27.8134C94.2564 24.9048 92.0749 21.9962 89.8026 19.1785C89.3481 18.6331 88.7119 18.1787 88.0756 17.9969C87.5303 17.906 86.6213 18.0878 86.4395 18.4514C85.6215 20.1783 84.1672 20.8146 82.2584 20.9964C82.0767 23.1778 81.3495 24.8139 79.0772 25.4501ZM91.166 1.72699C90.1662 2.45413 90.257 3.18128 90.3479 3.99932C91.166 9.18023 91.8931 14.3612 92.6203 19.4512C92.7112 20.3601 93.1656 20.9055 94.0746 21.269C93.1656 14.7247 92.2567 8.2713 91.166 1.72699ZM94.3473 30.4493C94.529 32.358 94.7108 34.085 94.8926 35.812C95.0744 37.6298 95.1653 39.4477 95.438 41.1747C95.7106 42.8108 95.3471 44.5377 96.6196 45.992C96.3469 40.9929 95.8015 35.9938 95.2562 30.9946C95.2562 30.8128 94.8926 30.7219 94.3473 30.4493Z" fill="black"/>
<path d="M168.243 91.984C168.789 93.0748 169.425 94.0746 169.97 95.1653C177.878 110.526 185.604 125.978 193.693 141.248C197.693 148.883 202.783 155.973 208.418 162.79C214.962 161.245 220.416 157.518 226.597 154.519C225.415 153.246 224.415 152.065 223.415 150.974C219.143 146.793 215.144 142.43 211.418 137.703C204.873 129.432 200.147 120.07 195.784 110.617C191.057 100.437 186.876 89.8935 181.514 79.9861C178.06 73.7145 174.606 67.352 170.152 61.7166C167.062 57.8082 163.699 54.2633 159.517 51.2639C158.881 52.1728 158.427 53.0817 157.791 53.8089C156.882 54.8087 155.973 55.9903 154.882 56.7175C151.973 58.5353 148.428 56.7174 148.247 53.2635C148.156 51.7183 148.428 50.264 148.61 48.4462C142.611 46.5374 136.521 44.4469 130.341 42.7199C121.524 40.2658 112.617 38.1752 103.8 35.9029C102.891 35.6302 101.891 35.5393 101.073 35.2666C100.528 35.0848 100.073 34.7213 99.437 34.3577C100.437 33.0852 101.437 33.4488 102.346 33.6306C105.981 34.4486 109.617 35.0848 113.162 36.0847C121.07 38.1752 128.977 40.3567 136.885 42.629C140.157 43.5379 143.338 44.9013 146.52 45.992C147.338 46.2647 148.247 46.5374 149.065 46.7192C149.156 46.5374 149.156 46.4465 149.247 46.2647C148.974 46.0829 148.701 45.9011 148.428 45.7194C143.066 42.3563 141.43 37.3572 142.52 31.3582C144.429 20.8146 153.7 15.5428 161.426 15.1792C170.606 14.7247 177.605 22.9051 176.242 32.2672C176.151 32.8125 176.06 33.267 175.969 33.7214C178.423 36.3573 178.605 39.4477 176.515 42.1745C174.878 44.2651 173.061 44.5377 169.97 42.9017C167.88 45.8103 164.789 47.1737 161.335 47.8099C160.972 47.9008 160.426 48.3553 160.426 48.7188C160.336 49.0824 160.608 49.7187 160.972 49.9005C168.698 54.7178 173.606 61.8984 178.241 69.4425C185.967 81.9858 191.785 95.438 197.693 108.89C204.055 123.16 211.963 136.34 223.415 147.156C225.142 148.792 226.597 150.519 228.233 152.246C228.96 153.064 229.596 153.973 228.96 155.246C231.05 156.427 233.141 157.427 235.05 158.7C237.231 160.154 239.231 161.79 241.231 163.517C241.958 164.153 242.867 165.062 242.139 166.153C241.412 167.153 240.231 166.698 239.322 166.335C238.049 165.88 236.868 165.244 235.504 164.79C236.141 165.517 236.868 166.153 237.413 166.971C238.322 168.244 239.14 169.607 239.958 171.061C240.14 171.425 240.049 172.334 239.776 172.606C239.504 172.879 238.686 172.97 238.231 172.788C237.231 172.334 236.322 171.788 235.413 171.152C234.323 170.334 233.232 169.425 231.778 168.334C232.05 169.243 232.232 169.698 232.414 170.152C233.05 171.607 233.686 173.061 234.232 174.606C234.504 175.333 234.686 176.242 233.868 176.788C232.959 177.424 232.141 176.969 231.505 176.333C230.505 175.333 229.505 174.242 228.596 173.061C228.051 172.425 227.506 171.697 226.688 171.061C226.869 171.788 226.96 172.425 227.142 173.152C227.415 174.606 227.778 176.151 227.96 177.606C228.051 178.424 228.233 179.423 227.233 179.969C226.142 180.514 225.415 179.787 224.779 179.151C222.87 177.424 221.234 175.515 220.052 173.243C219.507 172.152 218.871 171.152 217.962 169.698C217.416 171.516 217.053 172.788 216.598 174.061C216.235 175.061 215.871 176.151 215.326 177.06C214.508 178.333 213.145 178.242 212.781 176.788C212.236 174.879 211.963 172.788 211.781 170.789C211.599 168.607 211.781 166.517 211.781 164.153C211.236 164.244 210.781 164.335 210.327 164.426C208.509 164.699 206.964 164.335 205.691 162.79C200.783 156.7 196.329 150.338 192.603 143.521C188.24 135.522 184.15 127.251 179.968 119.161C177.878 114.98 175.696 110.89 173.788 106.618C171.788 102.073 170.061 97.3468 168.243 92.6203C168.152 92.3476 168.152 92.0749 168.061 91.8023C167.88 92.0749 168.061 92.0749 168.243 91.984ZM148.065 25.0866C147.974 25.1775 147.883 25.2684 147.701 25.3593C145.52 27.9043 144.52 30.9038 144.429 34.1759C144.247 38.5388 146.156 41.9018 149.974 44.0833C155.791 47.3554 164.426 46.4465 168.516 42.2654C169.425 41.2656 170.425 41.1747 171.606 41.7201C173.061 42.3563 173.697 42.0836 174.606 40.902C175.515 39.5386 175.969 38.1752 174.969 36.5391C174.606 36.63 174.151 36.8118 173.697 36.9027C173.97 37.4481 174.151 37.9025 174.333 38.1752C173.606 40.084 171.97 39.4477 170.879 39.9022C170.788 39.8113 170.697 39.7204 170.606 39.5386C171.061 38.7206 171.515 37.9025 171.879 37.0845C168.789 35.812 168.334 34.9031 168.607 31.54C168.698 30.9946 168.789 30.3584 168.879 29.813C168.97 28.995 169.243 28.2678 169.243 27.4498C169.516 24.8139 167.88 23.1778 165.244 23.2687C164.335 23.3596 163.517 23.3596 162.608 23.4505C159.245 23.5414 156.064 23.0869 153.973 19.9966C150.973 21.5417 149.156 22.996 148.065 25.0866ZM231.323 174.152C231.414 174.061 231.596 173.97 231.687 173.879C231.141 172.788 230.687 171.697 230.142 170.607C229.505 169.334 228.869 168.153 228.324 166.88C227.96 166.153 227.415 165.335 228.233 164.699C229.051 164.062 229.687 164.88 230.323 165.335C231.596 166.335 232.777 167.425 233.959 168.425C234.959 169.243 235.959 169.971 236.959 170.698C237.049 170.516 237.231 170.425 237.322 170.243C236.413 169.243 235.595 168.153 234.686 167.153C233.868 166.153 232.868 165.244 232.05 164.244C231.505 163.608 230.778 162.79 231.505 161.881C232.232 160.972 233.141 161.517 233.868 161.881C235.141 162.517 236.322 163.244 237.504 163.881C237.958 164.153 238.413 164.244 238.867 164.426C235.141 160.972 230.687 158.972 226.415 156.882C221.87 159.245 217.507 161.517 212.963 163.972C213.145 167.153 213.326 170.425 213.599 173.788C213.599 174.152 213.872 174.424 214.144 175.151C214.508 174.061 214.69 173.424 214.871 172.697C215.144 171.697 215.326 170.698 215.69 169.789C216.417 167.971 217.962 167.698 219.234 169.243C219.962 170.152 220.507 171.152 221.052 172.152C222.234 174.152 223.597 175.969 225.597 177.696C225.506 176.969 225.597 176.606 225.506 176.151C225.052 174.424 224.597 172.606 224.143 170.879C223.961 169.971 223.779 169.062 223.779 168.062C223.779 167.698 224.234 167.062 224.597 166.88C224.961 166.789 225.597 166.971 225.96 167.244C226.506 167.698 226.869 168.334 227.324 168.88C228.687 170.789 229.96 172.516 231.323 174.152ZM173.061 34.3577C174.697 28.8132 173.061 23.5414 168.698 20.451C164.608 17.5424 159.427 17.088 156.154 19.4512C157.609 20.8146 159.336 21.0873 161.154 21.1782C162.79 21.1782 164.517 21.0873 166.153 20.9964C168.152 20.9964 169.607 21.9053 170.697 23.5414C171.606 24.9048 171.788 26.5409 171.515 28.177C171.243 29.7221 170.97 31.1764 170.879 32.7216C170.788 34.2668 171.243 34.4486 173.061 34.3577ZM150.701 47.4463C150.065 49.2642 149.883 51.2639 150.155 53.1726C150.428 55.354 152.428 56.1721 154.155 54.7178C156.064 53.1726 157.336 51.0821 157.972 48.8097C155.427 48.2644 153.064 47.9008 150.701 47.4463Z" fill="black"/>
<path d="M148.065 25.0866C148.611 24.9048 149.156 24.6321 149.701 24.4503C152.792 23.4505 155.246 25.632 154.519 28.7223C153.973 30.8129 152.973 32.7216 152.065 35.0849C152.246 35.1758 152.883 35.4484 153.428 35.7211C152.155 37.1754 151.337 37.2663 150.247 36.5392C149.338 35.9029 149.156 35.0849 149.792 33.9033C150.519 32.5399 151.337 31.1765 152.065 29.7222C152.519 28.8132 152.973 27.7225 152.155 26.9045C151.337 25.9955 150.156 26.1773 149.065 26.5409C148.701 26.7227 148.247 26.7227 147.702 26.9045C147.702 26.2682 147.702 25.8137 147.702 25.3593C147.883 25.2684 147.974 25.1775 148.065 25.0866Z" fill="black"/>
<path d="M151.701 38.5388C153.974 38.4479 156.337 39.0841 158.246 37.6298C159.972 36.2664 161.518 34.7213 163.063 33.267C163.79 35.4484 162.245 37.8116 158.973 39.3568C156.155 40.7202 152.883 40.4475 151.701 38.5388Z" fill="black"/>
<path d="M163.881 30.0857C163.063 29.2676 162.427 28.086 161.518 27.6315C160.609 27.1771 159.336 27.5406 158.246 27.5406C157.882 26.2681 158.609 25.6319 159.518 25.3592C161.063 24.9047 162.336 25.3592 163.426 26.4499C164.426 27.4498 164.517 28.5405 163.881 30.0857Z" fill="black"/>
<path d="M157.246 32.6307C157.246 31.54 157.7 30.9946 158.518 30.9946C159.336 31.0855 159.972 31.8127 159.972 32.9034C159.972 33.7214 159.609 34.2668 158.7 34.3577C157.882 34.5395 157.246 33.8123 157.246 32.6307Z" fill="black"/>
<path d="M149.429 31.4491C149.429 32.2672 148.883 32.9034 148.156 32.9034C147.52 32.9034 146.793 31.9036 146.975 30.9038C147.066 30.4493 147.52 29.9039 147.974 29.7222C148.611 29.5404 149.429 30.5402 149.429 31.4491Z" fill="black"/>
</svg>
