<svg width="16" height="16" viewBox="0 0 16 16" fill="none" xmlns="http://www.w3.org/2000/svg">
<path d="M9.90214 10.7436C9.70677 10.5483 9.7068 10.2316 9.90221 10.0363L10.0428 9.89584C10.238 9.70072 10.5545 9.70075 10.7497 9.89591L13.6462 12.7914C13.8416 12.9867 13.8415 13.3034 13.6461 13.4987L13.5055 13.6391C13.3103 13.8343 12.9939 13.8342 12.7986 13.6391L9.90214 10.7436Z" fill="#6a8098"/>
<path d="M10.8839 11.7471C10.6886 11.5519 10.6886 11.2353 10.8839 11.04L11.0244 10.8994C11.2197 10.7042 11.5362 10.7042 11.7315 10.8994L13.6315 12.7988C13.8269 12.9941 13.8269 13.3107 13.6315 13.506L13.4909 13.6466C13.2956 13.8418 12.9791 13.8418 12.7838 13.6466L10.8839 11.7471Z" fill="#6a8098"/>
<path fill-rule="evenodd" clip-rule="evenodd" d="M11.5947 6.79566C11.5947 9.44423 9.44687 11.5913 6.79736 11.5913C4.14785 11.5913 2 9.44423 2 6.79566C2 4.14709 4.14785 2 6.79736 2C9.44687 2 11.5947 4.14709 11.5947 6.79566ZM3.89037 4.13594C4.479 3.58036 5.27104 3.32745 6.05335 3.41351C6.20109 3.43895 6.34518 3.59151 6.34032 3.76099C6.3391 3.80336 6.29428 3.88689 6.25068 3.92804C6.18527 3.98977 6.0787 4.00792 5.99393 4.00548C5.35936 3.94487 4.75988 4.13969 4.30205 4.57181C3.84423 5.00393 3.61526 5.59103 3.6394 6.22781C3.65513 6.36614 3.5423 6.51909 3.39027 6.5362C3.36675 6.53885 3.34293 6.53989 3.31928 6.53896C3.18069 6.53355 3.0403 6.40926 3.04478 6.25315C3.00371 5.46747 3.30173 4.69152 3.89037 4.13594Z" fill="#6a8098"/>
</svg>
