<svg width="16" height="16" viewBox="0 0 16 16" fill="none" xmlns="http://www.w3.org/2000/svg">
<path fill-rule="evenodd" clip-rule="evenodd" d="M2.288 12.7965C2.12894 12.7965 2 12.9254 2 13.0845V13.7119C2 13.871 2.12894 13.9999 2.288 13.9999H13.712C13.8711 13.9999 14 13.871 14 13.7119V13.0845C14 12.9254 13.8711 12.7965 13.712 12.7965H2.288ZM4.4 7.98287H3.2V12.1948H4.4V7.98287ZM7.4 7.98287H6.2V12.1948H7.4V7.98287ZM9.8 7.98287H8.6V12.1948H9.8V7.98287ZM12.8 7.98287H11.6V12.1948H12.8V7.98287ZM2.15891 4.89466C2.0615 4.94351 2 5.04314 2 5.15211V7.09316C2 7.25222 2.12894 7.38116 2.288 7.38116H13.712C13.8711 7.38116 14 7.25222 14 7.09316V5.15211C14 5.04314 13.9385 4.94351 13.8411 4.89466L8.12909 2.03055C8.04785 1.98982 7.95215 1.98982 7.87091 2.03055L2.15891 4.89466Z" fill="#6a8098"/>
<path d="M8.04839 3.94403C8.25775 3.94403 8.42811 4.09866 8.42811 4.28894C8.42811 4.41049 8.53651 4.50885 8.67022 4.50885C8.80392 4.50885 8.91233 4.41049 8.91233 4.28894C8.91233 3.93309 8.64858 3.63522 8.2905 3.53942V3.34076C8.2905 3.21921 8.18209 3.12085 8.04839 3.12085C7.91468 3.12085 7.80628 3.21921 7.80628 3.34076V3.53942C7.4482 3.6352 7.18433 3.93306 7.18433 4.28894C7.18433 4.65103 7.45032 4.91151 7.97485 5.06336C8.39309 5.18427 8.42811 5.31012 8.42811 5.41858C8.42811 5.60886 8.25775 5.76349 8.04839 5.76349C7.8389 5.76349 7.66855 5.60886 7.66855 5.41858C7.66855 5.29702 7.56014 5.19867 7.42644 5.19867C7.29273 5.19867 7.18433 5.29702 7.18433 5.41858C7.18433 5.77443 7.44819 6.0723 7.80628 6.1681V6.36675C7.80628 6.48831 7.91468 6.58667 8.04839 6.58667C8.18209 6.58667 8.2905 6.48831 8.2905 6.36675V6.1681C8.64858 6.07232 8.91233 5.77445 8.91233 5.41858C8.91233 4.87286 8.33801 4.70686 8.12193 4.64415C7.66858 4.51315 7.66858 4.35596 7.66858 4.28894C7.66858 4.09866 7.83893 3.94403 8.04842 3.94403H8.04839Z" fill="white"/>
</svg>
