<svg width="17" height="16" viewBox="0 0 17 16" fill="none" xmlns="http://www.w3.org/2000/svg">
<path fill-rule="evenodd" clip-rule="evenodd" d="M3.15649 2.80908C3.15649 2.39487 3.49228 2.05908 3.90649 2.05908H13.9065C14.3207 2.05908 14.6565 2.39487 14.6565 2.80908C14.6565 3.2233 14.3207 3.55908 13.9065 3.55908H3.90649C3.49228 3.55908 3.15649 3.2233 3.15649 2.80908Z" fill="#6a8098"/>
<path fill-rule="evenodd" clip-rule="evenodd" d="M3.15649 8C3.15649 7.58579 3.49228 7.25 3.90649 7.25H13.9065C14.3207 7.25 14.6565 7.58579 14.6565 8C14.6565 8.41421 14.3207 8.75 13.9065 8.75H3.90649C3.49228 8.75 3.15649 8.41421 3.15649 8Z" fill="#6a8098"/>
<path fill-rule="evenodd" clip-rule="evenodd" d="M3.15649 13.1909C3.15649 12.7767 3.49228 12.4409 3.90649 12.4409H13.9065C14.3207 12.4409 14.6565 12.7767 14.6565 13.1909C14.6565 13.6051 14.3207 13.9409 13.9065 13.9409H3.90649C3.49228 13.9409 3.15649 13.6051 3.15649 13.1909Z" fill="#6a8098"/>
</svg>
