<svg width="17" height="17" viewBox="0 0 17 17" fill="none" xmlns="http://www.w3.org/2000/svg">
<path d="M4.3158 13.5771L4.93155 14.039C5.29645 14.3126 5.79818 14.3126 6.16307 14.039V14.039C6.52796 13.7653 7.02969 13.7653 7.39458 14.039V14.039C7.75948 14.3126 8.26121 14.3126 8.6261 14.039V14.039C8.99099 13.7653 9.49272 13.7653 9.85761 14.039V14.039C10.2225 14.3126 10.7242 14.3126 11.0891 14.039L11.7049 13.5771" stroke="#6a8098" stroke-width="0.75" stroke-linecap="round"/>
<path d="M4.3158 12.1978L4.93155 12.6596C5.29645 12.9332 5.79818 12.9332 6.16307 12.6596V12.6596C6.52796 12.3859 7.02969 12.3859 7.39458 12.6596V12.6596C7.75948 12.9332 8.26121 12.9332 8.6261 12.6596V12.6596C8.99099 12.3859 9.49272 12.3859 9.85761 12.6596V12.6596C10.2225 12.9332 10.7242 12.9332 11.0891 12.6596L11.7049 12.1978" stroke="#6a8098" stroke-width="0.75" stroke-linecap="round"/>
<path d="M3.44553 9.0962L4.50377 11.4748C4.92918 11.1686 5.4341 11.0089 5.94858 11.018C6.49423 11.0114 7.0279 11.1904 7.47053 11.5295C7.67653 11.671 7.76132 11.7308 8.00276 11.7308H8.00995C8.25523 11.7308 8.34002 11.671 8.54363 11.531C8.9858 11.1914 9.51994 11.0124 10.0666 11.0195C10.5806 11.0104 11.085 11.1701 11.51 11.4763L12.5745 9.09616C12.7053 8.80518 12.5889 8.45691 12.3148 8.3175L8.22605 6.24105C8.08952 6.1716 7.93047 6.1716 7.79394 6.24105L3.70515 8.3175C3.43113 8.45691 3.31474 8.80522 3.44553 9.0962Z" fill="#6a8098"/>
<path d="M7.86597 2.49961C7.64752 2.49961 7.46269 2.6593 7.43451 2.87236L7.25116 3.25746H6.73221C6.52464 3.25698 6.34524 3.40161 6.30471 3.60157L6.12136 4.49995H5.52137C5.30983 4.49995 5.12895 4.64944 5.09287 4.85426L4.77756 6.62233L7.53687 5.31771H7.53736C7.81413 5.18667 8.13686 5.18667 8.41412 5.31771L11.243 6.65588L10.9267 4.85426C10.8906 4.64896 10.7097 4.49898 10.4977 4.49898H9.89823L9.71487 3.6006H9.71438C9.67385 3.40015 9.49494 3.25601 9.28687 3.25649H8.76943L8.58607 2.87226C8.5579 2.6592 8.37306 2.49951 8.15461 2.49951L7.86597 2.49961Z" fill="#6a8098"/>
</svg>
