<svg width="16" height="10" viewBox="0 0 16 10" fill="none" xmlns="http://www.w3.org/2000/svg">
<path fill-rule="evenodd" clip-rule="evenodd" d="M10.9576 1.36207C10.7758 1.17163 10.7688 0.855139 10.9419 0.655173C11.115 0.455208 11.4027 0.447489 11.5845 0.637932L15.7478 5L11.5845 9.36207C11.4027 9.55251 11.115 9.54479 10.9419 9.34483C10.7688 9.14486 10.7758 8.82837 10.9576 8.63793L13.9525 5.5H7.67928C6.69114 5.5 5.90473 6.294 5.2652 7.04728C4.76748 7.63352 4.05859 8 3.27189 8C1.76583 8 0.544922 6.65685 0.544922 5C0.544922 3.34315 1.76583 2 3.27189 2C4.05859 2 4.76749 2.36648 5.2652 2.95272C5.90473 3.706 6.69115 4.5 7.67929 4.5H13.9525L10.9576 1.36207ZM4.18088 5C4.18088 5.55229 3.77391 6 3.27189 6C2.76987 6 2.3629 5.55229 2.3629 5C2.3629 4.44772 2.76987 4 3.27189 4C3.77391 4 4.18088 4.44772 4.18088 5Z" fill="black"/>
</svg>
