<svg width="24" height="24" viewBox="0 0 24 24" fill="none" xmlns="http://www.w3.org/2000/svg">
<path d="M12 24C18.6274 24 24 18.6274 24 12C24 5.37258 18.6274 0 12 0C5.37258 0 0 5.37258 0 12C0 18.6274 5.37258 24 12 24Z" fill="url(#paint0_linear_2958_4590)"/>
<path d="M11.9977 19.248C16.0393 19.248 19.3156 15.9717 19.3156 11.9301C19.3156 7.88852 16.0393 4.61218 11.9977 4.61218C7.95615 4.61218 4.67981 7.88852 4.67981 11.9301C4.67981 15.9717 7.95615 19.248 11.9977 19.248Z" fill="#FEEBAD"/>
<path d="M12.2609 16.6769C9.95807 16.6769 8.08594 14.5801 8.08594 12.0019C8.08594 9.42493 9.95925 7.32922 12.2609 7.32922C13.6847 7.32922 14.9967 8.12938 15.7686 9.47082C15.9628 9.80736 15.964 10.1886 15.7733 10.5181C15.5968 10.824 15.2826 11.0264 14.9343 11.0641V11.0723H14.792C14.4519 11.0723 14.113 10.8687 13.8388 10.5004C13.4458 9.97209 12.8692 9.66968 12.2585 9.66968C11.1183 9.66968 10.1911 10.7169 10.1911 12.0054C10.1911 13.2939 11.1183 14.3412 12.2585 14.3412C12.8692 14.3412 13.4446 14.0388 13.8388 13.5104C14.113 13.141 14.4507 12.9386 14.792 12.9386H14.8167C15.2097 12.9386 15.5768 13.1504 15.7733 13.4904C15.964 13.8199 15.9616 14.2023 15.7686 14.5377C14.9967 15.8768 13.6847 16.6769 12.2609 16.6769ZM12.2609 7.56339C10.0887 7.56339 8.32128 9.55437 8.32128 12.0007C8.32128 14.4494 10.0887 16.4404 12.2609 16.4404C13.6 16.4404 14.8355 15.6838 15.5651 14.4165C15.7157 14.1553 15.718 13.8587 15.5709 13.6046C15.4168 13.3363 15.1273 13.1704 14.8178 13.1704H14.7931C14.4366 13.1704 14.1612 13.4693 14.0295 13.6481C13.5917 14.2365 12.9469 14.5742 12.2609 14.5742C10.9912 14.5742 9.95807 13.421 9.95807 12.0031C9.95807 10.5852 10.9912 9.43199 12.2609 9.43199C12.9469 9.43199 13.5917 9.7697 14.0295 10.3581C14.1565 10.5299 14.4178 10.8146 14.7555 10.8346L14.8178 10.8334C15.1273 10.8334 15.4156 10.6675 15.5709 10.3992C15.718 10.1439 15.7168 9.84854 15.5651 9.58731C14.8355 8.32001 13.6 7.56339 12.2609 7.56339Z" fill="url(#paint1_linear_2958_4590)"/>
<path d="M14.8174 10.9484C15.5293 10.9484 16.0517 10.1918 15.6669 9.52582C14.9444 8.27145 13.6877 7.44305 12.2604 7.44305C10.0188 7.44305 8.20312 9.48345 8.20312 11.9981C8.20312 14.5127 10.02 16.5554 12.2604 16.5554C13.6877 16.5554 14.9444 15.727 15.6669 14.4727C16.0517 13.8055 15.5293 13.05 14.8174 13.05H14.7927C14.4526 13.05 14.1525 13.2818 13.9348 13.5748C13.5348 14.1126 12.9323 14.4527 12.2604 14.4527C11.0531 14.4527 10.0753 13.3524 10.0753 11.9992C10.0753 10.646 11.0531 9.54582 12.2604 9.54582C12.9323 9.54582 13.5348 9.88706 13.9348 10.4236C14.1525 10.7166 14.4526 10.9484 14.7927 10.9484H14.8174Z" fill="url(#paint2_linear_2958_4590)"/>
<defs>
<linearGradient id="paint0_linear_2958_4590" x1="5.87285" y1="22.3303" x2="18.1229" y2="1.6919" gradientUnits="userSpaceOnUse">
<stop stop-color="#EEAB2F"/>
<stop offset="0.5052" stop-color="#FFCE75"/>
<stop offset="1" stop-color="#F4B02C"/>
</linearGradient>
<linearGradient id="paint1_linear_2958_4590" x1="8.08522" y1="12.0028" x2="15.9159" y2="12.0028" gradientUnits="userSpaceOnUse">
<stop stop-color="#EEAB2F"/>
<stop offset="0.5052" stop-color="#FFCE75"/>
<stop offset="1" stop-color="#F4B02C"/>
</linearGradient>
<linearGradient id="paint2_linear_2958_4590" x1="8.20284" y1="12.0001" x2="15.7973" y2="12.0001" gradientUnits="userSpaceOnUse">
<stop stop-color="#EEAB2F"/>
<stop offset="0.3638" stop-color="#FFCE75"/>
<stop offset="0.5434" stop-color="#FBC460"/>
<stop offset="0.8829" stop-color="#F4B02C"/>
<stop offset="0.9636" stop-color="#F5B231"/>
<stop offset="1" stop-color="#F5B436"/>
</linearGradient>
</defs>
</svg>
