<svg xmlns="http://www.w3.org/2000/svg" width="17" height="7" viewBox="0 0 17 7" fill="none">
<path class="fill" fill-rule="evenodd" clip-rule="evenodd" d="M14.8274 1.97976C16.2656 1.35582 16.1584 0.761082 16.0912 0.598968C15.9963 0.3939 15.8195 0.239845 15.6051 0.17586C15.2963 0.0591917 14.866 0.0267456 14.2916 0.0786362C14.1562 0.0912978 14.0199 0.0880195 13.8853 0.068914C13.4997 0.0316095 13.2341 0.0316095 11.8679 0.592335L4.37891 3.6994L3.41896 3.98948L1.49918 2.6686C1.42832 2.61818 1.34462 2.58957 1.25802 2.58618C1.17154 2.58268 1.08572 2.60449 1.01118 2.64904L0.332902 3.07206C0.222534 3.14735 0.148658 3.26639 0.129798 3.39979C0.110825 3.53329 0.148656 3.66861 0.233804 3.77217L1.73119 5.73651C1.74871 5.75912 1.76791 5.78015 1.78878 5.79971C1.78375 5.84832 1.78922 5.89761 1.80473 5.94396C1.86176 6.12732 2.04891 6.23484 2.2336 6.19029L7.43764 4.95207L6.35461 6.4285C6.27616 6.53589 6.27772 6.68297 6.35851 6.78856C6.43932 6.89414 6.5796 6.93247 6.70179 6.88227L7.73851 6.4512C7.76853 6.43899 7.79621 6.42147 7.82009 6.39931L11.0326 3.56154L14.8274 1.97976ZM13.0642 0.574309C13.057 0.578641 13.0533 0.586985 13.0549 0.595214L13.0897 0.775857C13.0914 0.784357 13.0983 0.790838 13.1069 0.791916L13.3576 0.823382C13.3651 0.824325 13.3725 0.820944 13.3767 0.814647L13.5122 0.611776C13.5131 0.610346 13.5143 0.609045 13.5156 0.607905L13.8375 0.323122C13.8487 0.313224 13.8455 0.294997 13.8316 0.289529L13.6617 0.222687C13.6559 0.220407 13.6493 0.220958 13.644 0.224179L13.0642 0.574309Z" fill="#EF9B9B"/>
</svg>