<svg width="20" height="19" viewBox="0 0 20 19" fill="none" xmlns="http://www.w3.org/2000/svg">
<path class="fill" d="M18.9802 5.33802L9.98324 0.83958C9.79143 0.743577 9.56554 0.743577 9.37366 0.83958L0.376777 5.33802C0.145862 5.45351 0 5.68945 0 5.94767V18.3184C0 18.6948 0.305149 19 0.6816 19H2.93085C3.30724 19 3.61245 18.6949 3.61245 18.3184V7.75386H15.7446V18.3184C15.7446 18.6948 16.0498 19 16.4262 19H18.6755C19.0519 19 19.3571 18.6949 19.3571 18.3184V5.94767C19.357 5.68945 19.2111 5.45351 18.9802 5.33802Z" />
<path class="fill" d="M14.1761 8.84473H9.67767C9.41417 8.84473 9.20059 9.0583 9.20059 9.32181V13.3432H5.17923C4.91573 13.3432 4.70215 13.5567 4.70215 13.8203V18.3187C4.70215 18.5822 4.91573 18.7958 5.17923 18.7958H14.1761C14.4396 18.7958 14.6532 18.5822 14.6532 18.3187V9.32187C14.6533 9.0583 14.4396 8.84473 14.1761 8.84473ZM10.1548 14.9722L11.2521 16.0696L10.1548 17.1669V14.9722ZM9.20059 17.1669L8.10324 16.0695L9.20059 14.9722V17.1669ZM10.8296 14.2974H13.0242L11.9269 15.3947L10.8296 14.2974ZM10.8296 13.3432L11.9269 12.2458L13.0243 13.3432H10.8296ZM13.699 12.6684L12.6017 11.5711L13.699 10.4737V12.6684ZM11.9269 10.8963L10.8296 9.79895H13.0242L11.9269 10.8963ZM11.2521 11.5711L10.1548 12.6684V10.4738L11.2521 11.5711ZM7.42842 15.3947L6.33107 14.2974H8.5257L7.42842 15.3947ZM6.75366 16.0695L5.65631 17.1669V14.9722L6.75366 16.0695ZM7.42842 16.7443L8.52577 17.8417H6.33113L7.42842 16.7443ZM11.9269 16.7443L13.0242 17.8417H10.8296L11.9269 16.7443ZM12.6017 16.0695L13.699 14.9722V17.1668L12.6017 16.0695Z" />
</svg>
