<svg width="22" height="20" viewBox="0 0 22 20" fill="none" xmlns="http://www.w3.org/2000/svg">
<path class="fill" fill-rule="evenodd" clip-rule="evenodd" d="M14.3045 19.6966L14.5125 14.2776C13.1062 15.6885 12.0161 16.7383 9.88256 16.7932C9.20688 16.7683 7.44944 16.7167 6.77376 16.6418C5.94996 16.5487 5.37746 16.5836 4.85322 15.8349C4.04607 14.6703 5.11284 13.3126 6.16132 13.5306C7.34459 13.6354 10.1555 13.9033 10.9627 12.9133C11.7948 12.1147 12.4438 10.9999 13.5322 10.6456C19.6617 8.64902 21.9866 9.37443 21.9849 11.6272V19.6966H14.3045ZM15.4461 2.12532H12.8532C12.7667 2.12532 12.7218 2.20019 12.6985 2.2917L12.3972 3.37482C12.3739 3.45801 12.4671 3.5412 12.552 3.5412H14.6456C14.5174 3.94073 14.4523 4.3578 14.4526 4.77739C14.4526 6.94031 16.1418 8.68063 18.2271 8.68063C20.3124 8.68063 21.9999 6.93366 21.9999 4.77739C21.9999 2.62113 20.3107 0.86084 18.2271 0.86084C17.7003 0.862235 17.1799 0.975715 16.7004 1.19374C16.2209 1.41175 15.7934 1.72932 15.4461 2.12532Z"/>
<path class="fill" fill-rule="evenodd" clip-rule="evenodd" d="M10.1456 5.54448L7.43293 3.93727L8.56461 3.8208L12.0162 5.33651L10.1456 5.54448ZM3.61682 6.80397V12.351C3.11653 12.7407 2.7548 13.2808 2.58499 13.8917L0.742676 12.7919L0.79926 5.02871L3.61682 6.80397ZM4.79677 4.28333L7.59436 5.87059L3.95466 6.33478L1.40837 4.72756L4.80176 4.28333H4.79677ZM4.19598 12.0033V6.88549L7.98879 6.40133L8.1136 10.0251L9.445 9.11829L10.7764 9.87199L10.5018 6.08189L12.7751 5.82067V8.55261C11.8914 8.98852 11.2673 9.71726 10.6433 10.4576C10.3909 10.7665 10.1231 11.0624 9.84109 11.3444C9.80846 11.3757 9.77788 11.4091 9.74955 11.4443C9.18205 12.1414 7.16665 11.955 5.90183 11.8386C5.38591 11.7903 6.56752 11.8918 5.63721 11.8103C5.1499 11.7321 4.65035 11.7993 4.20097 12.0033H4.19598Z"/>
</svg>
