<svg width="28" height="19" viewBox="0 0 28 19" fill="none" xmlns="http://www.w3.org/2000/svg">
<path class="stroke" d="M0.5 11.633C0.5 11.4673 0.634314 11.333 0.8 11.333H19.0333C19.199 11.333 19.3333 11.4673 19.3333 11.633V16.1663H0.8C0.634314 16.1663 0.5 16.032 0.5 15.8663V11.633Z" fill="#fff" />
<path class="stroke" d="M27.2003 16.1667H19.167V5.8C19.167 5.63431 19.3013 5.5 19.467 5.5H23.0023C23.0819 5.5 23.1582 5.53161 23.2144 5.58787L27.4125 9.78591C27.4687 9.84217 27.5003 9.91847 27.5003 9.99804V15.8667C27.5003 16.0324 27.366 16.1667 27.2003 16.1667Z" fill="#fff" />
<mask id="path-3-inside-1_353_2906" fill="#fff">
<path fill-rule="evenodd" clip-rule="evenodd" d="M0.514286 0C0.230254 0 0 0.230254 0 0.514286V9.98571C0 10.2697 0.230254 10.5 0.514286 10.5H17.4857C17.7697 10.5 18 10.2697 18 9.98571V0.514286C18 0.230254 17.7697 0 17.4857 0H0.514286ZM3.51429 2.50714C3.51429 2.36513 3.39916 2.25 3.25714 2.25C3.11513 2.25 3 2.36513 3 2.50714L3 7.99286C3 8.13487 3.11513 8.25 3.25714 8.25C3.39916 8.25 3.51429 8.13487 3.51429 7.99286L3.51429 2.50714ZM6.25714 2.25005C6.39916 2.25005 6.51429 2.36518 6.51429 2.50719V7.99291C6.51429 8.13492 6.39916 8.25005 6.25714 8.25005C6.11513 8.25005 6 8.13492 6 7.99291V2.50719C6 2.36518 6.11513 2.25005 6.25714 2.25005ZM9.51429 2.50719C9.51429 2.36518 9.39916 2.25005 9.25714 2.25005C9.11513 2.25005 9 2.36518 9 2.50719V7.99291C9 8.13492 9.11513 8.25005 9.25714 8.25005C9.39916 8.25005 9.51429 8.13492 9.51429 7.99291V2.50719ZM12.2571 2.25005C12.3992 2.25005 12.5143 2.36518 12.5143 2.50719V7.99291C12.5143 8.13492 12.3992 8.25005 12.2571 8.25005C12.1151 8.25005 12 8.13492 12 7.99291V2.50719C12 2.36518 12.1151 2.25005 12.2571 2.25005ZM15.5143 2.50719C15.5143 2.36518 15.3992 2.25005 15.2571 2.25005C15.1151 2.25005 15 2.36518 15 2.50719V7.99291C15 8.13492 15.1151 8.25005 15.2571 8.25005C15.3992 8.25005 15.5143 8.13492 15.5143 7.99291V2.50719Z"/>
</mask>
<path class="fill" fill-rule="evenodd" clip-rule="evenodd" d="M0.514286 0C0.230254 0 0 0.230254 0 0.514286V9.98571C0 10.2697 0.230254 10.5 0.514286 10.5H17.4857C17.7697 10.5 18 10.2697 18 9.98571V0.514286C18 0.230254 17.7697 0 17.4857 0H0.514286ZM3.51429 2.50714C3.51429 2.36513 3.39916 2.25 3.25714 2.25C3.11513 2.25 3 2.36513 3 2.50714L3 7.99286C3 8.13487 3.11513 8.25 3.25714 8.25C3.39916 8.25 3.51429 8.13487 3.51429 7.99286L3.51429 2.50714ZM6.25714 2.25005C6.39916 2.25005 6.51429 2.36518 6.51429 2.50719V7.99291C6.51429 8.13492 6.39916 8.25005 6.25714 8.25005C6.11513 8.25005 6 8.13492 6 7.99291V2.50719C6 2.36518 6.11513 2.25005 6.25714 2.25005ZM9.51429 2.50719C9.51429 2.36518 9.39916 2.25005 9.25714 2.25005C9.11513 2.25005 9 2.36518 9 2.50719V7.99291C9 8.13492 9.11513 8.25005 9.25714 8.25005C9.39916 8.25005 9.51429 8.13492 9.51429 7.99291V2.50719ZM12.2571 2.25005C12.3992 2.25005 12.5143 2.36518 12.5143 2.50719V7.99291C12.5143 8.13492 12.3992 8.25005 12.2571 8.25005C12.1151 8.25005 12 8.13492 12 7.99291V2.50719C12 2.36518 12.1151 2.25005 12.2571 2.25005ZM15.5143 2.50719C15.5143 2.36518 15.3992 2.25005 15.2571 2.25005C15.1151 2.25005 15 2.36518 15 2.50719V7.99291C15 8.13492 15.1151 8.25005 15.2571 8.25005C15.3992 8.25005 15.5143 8.13492 15.5143 7.99291V2.50719Z" />
<path class="fill" d="M3.51429 2.50714H4.51429H3.51429ZM3 2.50714H4H3ZM3 7.99286H2H3ZM3.51429 7.99286H2.51429H3.51429ZM1 0.514286C1 0.782538 0.782539 1 0.514286 1V-1C-0.322032 -1 -1 -0.32203 -1 0.514286H1ZM1 9.98571V0.514286H-1V9.98571H1ZM0.514286 9.5C0.782538 9.5 1 9.71746 1 9.98571H-1C-1 10.822 -0.322031 11.5 0.514286 11.5V9.5ZM17.4857 9.5H0.514286V11.5H17.4857V9.5ZM17 9.98571C17 9.71746 17.2175 9.5 17.4857 9.5V11.5C18.322 11.5 19 10.822 19 9.98571H17ZM17 0.514286V9.98571H19V0.514286H17ZM17.4857 1C17.2175 1 17 0.782538 17 0.514286H19C19 -0.322031 18.322 -1 17.4857 -1V1ZM0.514286 1H17.4857V-1H0.514286V1ZM3.25714 3.25C2.84687 3.25 2.51429 2.91741 2.51429 2.50714H4.51429C4.51429 1.81284 3.95144 1.25 3.25714 1.25V3.25ZM4 2.50714C4 2.91741 3.66741 3.25 3.25714 3.25V1.25C2.56284 1.25 2 1.81284 2 2.50714H4ZM4 7.99286V2.50714H2L2 7.99286H4ZM3.25714 7.25C3.66742 7.25 4 7.58259 4 7.99286H2C2 8.68716 2.56284 9.25 3.25714 9.25V7.25ZM2.51429 7.99286C2.51429 7.58259 2.84687 7.25 3.25714 7.25V9.25C3.95145 9.25 4.51429 8.68716 4.51429 7.99286H2.51429ZM2.51429 2.50714L2.51429 7.99286H4.51429L4.51429 2.50714H2.51429ZM7.51429 2.50719C7.51429 1.81289 6.95144 1.25005 6.25714 1.25005V3.25005C5.84688 3.25005 5.51429 2.91746 5.51429 2.50719H7.51429ZM7.51429 7.99291V2.50719H5.51429V7.99291H7.51429ZM6.25714 9.25005C6.95144 9.25005 7.51429 8.68721 7.51429 7.99291H5.51429C5.51429 7.58263 5.84688 7.25005 6.25714 7.25005V9.25005ZM5 7.99291C5 8.68721 5.56284 9.25005 6.25714 9.25005V7.25005C6.66741 7.25005 7 7.58264 7 7.99291H5ZM5 2.50719V7.99291H7V2.50719H5ZM6.25714 1.25005C5.56284 1.25005 5 1.81289 5 2.50719H7C7 2.91746 6.66741 3.25005 6.25714 3.25005V1.25005ZM9.25714 3.25005C8.84688 3.25005 8.51429 2.91746 8.51429 2.50719H10.5143C10.5143 1.81289 9.95144 1.25005 9.25714 1.25005V3.25005ZM10 2.50719C10 2.91746 9.66741 3.25005 9.25714 3.25005V1.25005C8.56284 1.25005 8 1.81289 8 2.50719H10ZM10 7.99291V2.50719H8V7.99291H10ZM9.25714 7.25005C9.66741 7.25005 10 7.58264 10 7.99291H8C8 8.68721 8.56284 9.25005 9.25714 9.25005V7.25005ZM8.51429 7.99291C8.51429 7.58263 8.84688 7.25005 9.25714 7.25005V9.25005C9.95144 9.25005 10.5143 8.68721 10.5143 7.99291H8.51429ZM8.51429 2.50719V7.99291H10.5143V2.50719H8.51429ZM13.5143 2.50719C13.5143 1.81289 12.9514 1.25005 12.2571 1.25005V3.25005C11.8469 3.25005 11.5143 2.91746 11.5143 2.50719H13.5143ZM13.5143 7.99291V2.50719H11.5143V7.99291H13.5143ZM12.2571 9.25005C12.9514 9.25005 13.5143 8.68721 13.5143 7.99291H11.5143C11.5143 7.58263 11.8469 7.25005 12.2571 7.25005V9.25005ZM11 7.99291C11 8.68721 11.5628 9.25005 12.2571 9.25005V7.25005C12.6674 7.25005 13 7.58264 13 7.99291H11ZM11 2.50719V7.99291H13V2.50719H11ZM12.2571 1.25005C11.5628 1.25005 11 1.81289 11 2.50719H13C13 2.91746 12.6674 3.25005 12.2571 3.25005V1.25005ZM15.2571 3.25005C14.8469 3.25005 14.5143 2.91746 14.5143 2.50719H16.5143C16.5143 1.81289 15.9514 1.25005 15.2571 1.25005V3.25005ZM16 2.50719C16 2.91746 15.6674 3.25005 15.2571 3.25005V1.25005C14.5628 1.25005 14 1.81289 14 2.50719H16ZM16 7.99291V2.50719H14V7.99291H16ZM15.2571 7.25005C15.6674 7.25005 16 7.58264 16 7.99291H14C14 8.68721 14.5628 9.25005 15.2571 9.25005V7.25005ZM14.5143 7.99291C14.5143 7.58263 14.8469 7.25005 15.2571 7.25005V9.25005C15.9514 9.25005 16.5143 8.68721 16.5143 7.99291H14.5143ZM14.5143 2.50719V7.99291H16.5143V2.50719H14.5143Z" mask="url(#path-3-inside-1_353_2906)"/>
<path class="stroke" d="M5.33366 16.6663C5.33366 17.6789 4.51285 18.4997 3.50033 18.4997C2.4878 18.4997 1.66699 17.6789 1.66699 16.6663C1.66699 15.6538 2.4878 14.833 3.50033 14.833C4.51285 14.833 5.33366 15.6538 5.33366 16.6663Z" fill="#fff" />
<path class="stroke" d="M11.1667 16.6663C11.1667 17.6789 10.3459 18.4997 9.33333 18.4997C8.32081 18.4997 7.5 17.6789 7.5 16.6663C7.5 15.6538 8.32081 14.833 9.33333 14.833C10.3459 14.833 11.1667 15.6538 11.1667 16.6663Z" fill="#fff" />
<circle class="stroke" cx="23.3333" cy="16.6663" r="1.83333" fill="#fff" />
</svg>
