<svg width="14px" height="14px" viewBox="0 0 15 10" fill="none" xmlns="http://www.w3.org/2000/svg" style="margin-right: 4px;">
<path class="fill" fill-rule="evenodd" clip-rule="evenodd" d="M.5 1.775c0-.69.56-1.25 1.25-1.25h11.5c.69 0 1.25.56 1.25 1.25v6.449c0 .69-.56 1.25-1.25 1.25H1.75c-.69 0-1.25-.56-1.25-1.25V1.775Zm2.444.91c.345 0 .625.279.625.624v3.38a.625.625 0 0 1-1.25 0V3.31c0-.345.28-.625.625-.625Zm3.662.624a.625.625 0 0 0-1.25 0v3.38a.625.625 0 1 0 1.25 0V3.31Zm2.413-.625c.345 0 .625.28.625.625v3.38a.625.625 0 1 1-1.25 0V3.31c0-.345.28-.625.625-.625Zm3.663.625a.625.625 0 0 0-1.25 0v3.38a.625.625 0 1 0 1.25 0V3.31Z" fill="#034AFD">
</path>
</svg>