<svg width="17" height="21" viewBox="0 0 17 21" fill="none" xmlns="http://www.w3.org/2000/svg">
<path class="fill" d="M13.1484 0H3.84731C3.60931 0 2.36087 0.0682501 1.18787 1.41855C0.0329375 2.7468 0 4.0551 0 4.2V15.75C0 16.307 0.223883 16.8411 0.622397 17.2349C1.02091 17.6287 1.56141 17.85 2.125 17.85H3.1875L1.0625 21H3.56256L4.27125 19.95H12.7712L13.4905 21H15.9375L13.8125 17.85H14.875C15.4386 17.85 15.9791 17.6287 16.3776 17.2349C16.7761 16.8411 17 16.307 17 15.75V4.2C17.001 4.0026 16.966 2.6943 15.8004 1.40175C14.5722 0.0388501 13.2908 0 13.1484 0ZM6.37499 2.1H10.625V4.2H6.37499V2.1ZM3.71875 15.75C3.29592 15.7499 2.89046 15.5837 2.59158 15.2882C2.29269 14.9926 2.12486 14.5918 2.125 14.1739C2.12514 13.7561 2.29324 13.3554 2.59233 13.06C2.89141 12.7647 3.29698 12.5988 3.71981 12.5989C4.14264 12.5991 4.54809 12.7652 4.84698 13.0608C5.14586 13.3563 5.3137 13.7571 5.31356 14.175C5.31342 14.5929 5.14531 14.9935 4.84623 15.2889C4.54714 15.5843 4.14157 15.7501 3.71875 15.75ZM13.2812 15.75C12.8584 15.7499 12.4529 15.5837 12.1541 15.2882C11.8552 14.9926 11.6873 14.5918 11.6875 14.1739C11.6876 13.7561 11.8557 13.3554 12.1548 13.06C12.4539 12.7647 12.8595 12.5988 13.2823 12.5989C13.7051 12.5991 14.1106 12.7652 14.4095 13.0608C14.7084 13.3563 14.8762 13.7571 14.876 14.175C14.8759 14.5929 14.7078 14.9935 14.4087 15.2889C14.1096 15.5843 13.7041 15.7501 13.2812 15.75ZM14.875 10.5H2.125V6.3H14.875V10.5Z" />
</svg>
