<svg width="28" height="19" viewBox="0 0 28 19" fill="none" xmlns="http://www.w3.org/2000/svg">
<path class="stroke" d="M0.4 11.633C0.4 11.4121 0.579086 11.233 0.8 11.233H19.0333C19.2542 11.233 19.4333 11.4121 19.4333 11.633V16.2663H0.8C0.579086 16.2663 0.4 16.0873 0.4 15.8663V11.633Z" fill="#fff" stroke-width="0.8"/>
<path class="stroke" d="M27.2003 16.2667H19.067V5.8C19.067 5.57909 19.2461 5.4 19.467 5.4H23.0023C23.1084 5.4 23.2101 5.44214 23.2851 5.51716L27.4832 9.7152C27.5582 9.79021 27.6003 9.89195 27.6003 9.99804V15.8667C27.6003 16.0876 27.4212 16.2667 27.2003 16.2667Z" fill="#fff" stroke-width="0.8"/>
<mask id="path-3-inside-1_346_522" fill="#fff">
<path fill-rule="evenodd" clip-rule="evenodd" d="M0.514286 0C0.230254 0 0 0.230254 0 0.514286V9.98571C0 10.2697 0.230254 10.5 0.514286 10.5H17.4857C17.7697 10.5 18 10.2697 18 9.98571V0.514286C18 0.230254 17.7697 0 17.4857 0H0.514286ZM3.51429 2.50714C3.51429 2.36513 3.39916 2.25 3.25714 2.25C3.11513 2.25 3 2.36513 3 2.50714L3 7.99286C3 8.13487 3.11513 8.25 3.25714 8.25C3.39916 8.25 3.51429 8.13487 3.51429 7.99286L3.51429 2.50714ZM6.25714 2.25005C6.39916 2.25005 6.51429 2.36518 6.51429 2.50719V7.99291C6.51429 8.13492 6.39916 8.25005 6.25714 8.25005C6.11513 8.25005 6 8.13492 6 7.99291V2.50719C6 2.36518 6.11513 2.25005 6.25714 2.25005ZM9.51429 2.50719C9.51429 2.36518 9.39916 2.25005 9.25714 2.25005C9.11513 2.25005 9 2.36518 9 2.50719V7.99291C9 8.13492 9.11513 8.25005 9.25714 8.25005C9.39916 8.25005 9.51429 8.13492 9.51429 7.99291V2.50719ZM12.2571 2.25005C12.3992 2.25005 12.5143 2.36518 12.5143 2.50719V7.99291C12.5143 8.13492 12.3992 8.25005 12.2571 8.25005C12.1151 8.25005 12 8.13492 12 7.99291V2.50719C12 2.36518 12.1151 2.25005 12.2571 2.25005ZM15.5143 2.50719C15.5143 2.36518 15.3992 2.25005 15.2571 2.25005C15.1151 2.25005 15 2.36518 15 2.50719V7.99291C15 8.13492 15.1151 8.25005 15.2571 8.25005C15.3992 8.25005 15.5143 8.13492 15.5143 7.99291V2.50719Z"/>
</mask>
<path class="fill" fill-rule="evenodd" clip-rule="evenodd" d="M0.514286 0C0.230254 0 0 0.230254 0 0.514286V9.98571C0 10.2697 0.230254 10.5 0.514286 10.5H17.4857C17.7697 10.5 18 10.2697 18 9.98571V0.514286C18 0.230254 17.7697 0 17.4857 0H0.514286ZM3.51429 2.50714C3.51429 2.36513 3.39916 2.25 3.25714 2.25C3.11513 2.25 3 2.36513 3 2.50714L3 7.99286C3 8.13487 3.11513 8.25 3.25714 8.25C3.39916 8.25 3.51429 8.13487 3.51429 7.99286L3.51429 2.50714ZM6.25714 2.25005C6.39916 2.25005 6.51429 2.36518 6.51429 2.50719V7.99291C6.51429 8.13492 6.39916 8.25005 6.25714 8.25005C6.11513 8.25005 6 8.13492 6 7.99291V2.50719C6 2.36518 6.11513 2.25005 6.25714 2.25005ZM9.51429 2.50719C9.51429 2.36518 9.39916 2.25005 9.25714 2.25005C9.11513 2.25005 9 2.36518 9 2.50719V7.99291C9 8.13492 9.11513 8.25005 9.25714 8.25005C9.39916 8.25005 9.51429 8.13492 9.51429 7.99291V2.50719ZM12.2571 2.25005C12.3992 2.25005 12.5143 2.36518 12.5143 2.50719V7.99291C12.5143 8.13492 12.3992 8.25005 12.2571 8.25005C12.1151 8.25005 12 8.13492 12 7.99291V2.50719C12 2.36518 12.1151 2.25005 12.2571 2.25005ZM15.5143 2.50719C15.5143 2.36518 15.3992 2.25005 15.2571 2.25005C15.1151 2.25005 15 2.36518 15 2.50719V7.99291C15 8.13492 15.1151 8.25005 15.2571 8.25005C15.3992 8.25005 15.5143 8.13492 15.5143 7.99291V2.50719Z" />
<path class="fill" d="M3.51429 2.50714H4.02857H3.51429ZM3 2.50714H3.51429H3ZM3 7.99286H2.48571H3ZM3.51429 7.99286H3H3.51429ZM0.514286 0.514286V0.514286V-0.514286C-0.0537791 -0.514286 -0.514286 -0.0537776 -0.514286 0.514286H0.514286ZM0.514286 9.98571V0.514286H-0.514286V9.98571H0.514286ZM0.514286 9.98571H0.514286H-0.514286C-0.514286 10.5538 -0.0537787 11.0143 0.514286 11.0143V9.98571ZM17.4857 9.98571H0.514286V11.0143H17.4857V9.98571ZM17.4857 9.98571V11.0143C18.0538 11.0143 18.5143 10.5538 18.5143 9.98571H17.4857ZM17.4857 0.514286V9.98571H18.5143V0.514286H17.4857ZM17.4857 0.514286H18.5143C18.5143 -0.0537786 18.0538 -0.514286 17.4857 -0.514286V0.514286ZM0.514286 0.514286H17.4857V-0.514286H0.514286V0.514286ZM3.25714 2.76429C3.11513 2.76429 3 2.64916 3 2.50714H4.02857C4.02857 2.08109 3.68319 1.73571 3.25714 1.73571V2.76429ZM3.51429 2.50714C3.51429 2.64916 3.39916 2.76429 3.25714 2.76429V1.73571C2.83109 1.73571 2.48571 2.08109 2.48571 2.50714H3.51429ZM3.51429 7.99286L3.51429 2.50714H2.48571L2.48571 7.99286H3.51429ZM3.25714 7.73572C3.39916 7.73572 3.51429 7.85084 3.51429 7.99286H2.48571C2.48571 8.4189 2.83109 8.76429 3.25714 8.76429V7.73572ZM3 7.99286C3 7.85084 3.11513 7.73572 3.25714 7.73572V8.76429C3.68319 8.76429 4.02857 8.41891 4.02857 7.99286H3ZM3 2.50714L3 7.99286H4.02857V2.50714H3ZM7.02857 2.50719C7.02857 2.08114 6.68319 1.73576 6.25714 1.73576V2.76433C6.11513 2.76433 6 2.64921 6 2.50719H7.02857ZM7.02857 7.99291V2.50719H6V7.99291H7.02857ZM6.25714 8.76433C6.68319 8.76433 7.02857 8.41896 7.02857 7.99291H6C6 7.85089 6.11513 7.73576 6.25714 7.73576V8.76433ZM5.48571 7.99291C5.48571 8.41895 5.8311 8.76433 6.25714 8.76433V7.73576C6.39916 7.73576 6.51429 7.85089 6.51429 7.99291H5.48571ZM5.48571 2.50719V7.99291H6.51429V2.50719H5.48571ZM6.25714 1.73576C5.8311 1.73576 5.48571 2.08114 5.48571 2.50719H6.51429C6.51429 2.64921 6.39916 2.76433 6.25714 2.76433V1.73576ZM9.25714 2.76433C9.11513 2.76433 9 2.64921 9 2.50719H10.0286C10.0286 2.08114 9.68319 1.73576 9.25714 1.73576V2.76433ZM9.51429 2.50719C9.51429 2.64921 9.39916 2.76433 9.25714 2.76433V1.73576C8.83109 1.73576 8.48571 2.08114 8.48571 2.50719H9.51429ZM9.51429 7.99291V2.50719H8.48571V7.99291H9.51429ZM9.25714 7.73576C9.39916 7.73576 9.51429 7.85089 9.51429 7.99291H8.48571C8.48571 8.41895 8.83109 8.76433 9.25714 8.76433V7.73576ZM9 7.99291C9 7.85089 9.11513 7.73576 9.25714 7.73576V8.76433C9.68319 8.76433 10.0286 8.41896 10.0286 7.99291H9ZM9 2.50719V7.99291H10.0286V2.50719H9ZM13.0286 2.50719C13.0286 2.08114 12.6832 1.73576 12.2571 1.73576V2.76433C12.1151 2.76433 12 2.64921 12 2.50719H13.0286ZM13.0286 7.99291V2.50719H12V7.99291H13.0286ZM12.2571 8.76433C12.6832 8.76433 13.0286 8.41896 13.0286 7.99291H12C12 7.85089 12.1151 7.73576 12.2571 7.73576V8.76433ZM11.4857 7.99291C11.4857 8.41895 11.8311 8.76433 12.2571 8.76433V7.73576C12.3992 7.73576 12.5143 7.85089 12.5143 7.99291H11.4857ZM11.4857 2.50719V7.99291H12.5143V2.50719H11.4857ZM12.2571 1.73576C11.8311 1.73576 11.4857 2.08114 11.4857 2.50719H12.5143C12.5143 2.64921 12.3992 2.76433 12.2571 2.76433V1.73576ZM15.2571 2.76433C15.1151 2.76433 15 2.64921 15 2.50719H16.0286C16.0286 2.08114 15.6832 1.73576 15.2571 1.73576V2.76433ZM15.5143 2.50719C15.5143 2.64921 15.3992 2.76433 15.2571 2.76433V1.73576C14.8311 1.73576 14.4857 2.08114 14.4857 2.50719H15.5143ZM15.5143 7.99291V2.50719H14.4857V7.99291H15.5143ZM15.2571 7.73576C15.3992 7.73576 15.5143 7.85089 15.5143 7.99291H14.4857C14.4857 8.41895 14.8311 8.76433 15.2571 8.76433V7.73576ZM15 7.99291C15 7.85089 15.1151 7.73576 15.2571 7.73576V8.76433C15.6832 8.76433 16.0286 8.41896 16.0286 7.99291H15ZM15 2.50719V7.99291H16.0286V2.50719H15Z"  mask="url(#path-3-inside-1_346_522)"/>
<path class="stroke" d="M5.43366 16.6663C5.43366 17.7341 4.56808 18.5997 3.50033 18.5997C2.43257 18.5997 1.56699 17.7341 1.56699 16.6663C1.56699 15.5986 2.43257 14.733 3.50033 14.733C4.56808 14.733 5.43366 15.5986 5.43366 16.6663Z" fill="#fff" stroke-width="0.8"/>
<path class="stroke" d="M11.2667 16.6663C11.2667 17.7341 10.4011 18.5997 9.33333 18.5997C8.26558 18.5997 7.4 17.7341 7.4 16.6663C7.4 15.5986 8.26558 14.733 9.33333 14.733C10.4011 14.733 11.2667 15.5986 11.2667 16.6663Z" fill="#fff" stroke-width="0.8"/>
<circle class="stroke" cx="23.3333" cy="16.6663" r="1.93333" fill="#fff" stroke-width="0.8"/>
</svg>
