<svg xmlns="http://www.w3.org/2000/svg" width="16" height="15" viewBox="0 0 16 15" fill="none">
<path class="fill" fill-rule="evenodd" clip-rule="evenodd" d="M4.52174 0.2C4.52174 0.0895429 4.61129 0 4.72174 0H7.23487V2.36513L8.00008 1.68938L8.76529 2.36513V0H11.2783C11.3888 0 11.4783 0.0895431 11.4783 0.2V6.7566C11.4783 6.86706 11.3888 6.9566 11.2783 6.9566H4.72174C4.61129 6.9566 4.52174 6.86706 4.52174 6.7566V0.2ZM3.21775 8.04345H0.704639C0.594182 8.04345 0.504639 8.13299 0.504639 8.24345V14.8001C0.504639 14.9105 0.594182 15.0001 0.704639 15.0001H7.26124C7.3717 15.0001 7.46124 14.9105 7.46124 14.8001V8.24345C7.46124 8.13299 7.3717 8.04345 7.26124 8.04345H4.74817V10.4086L3.98296 9.73282L3.21775 10.4086V8.04345ZM11.252 8.04345H8.73885C8.62839 8.04345 8.53885 8.13299 8.53885 8.24345V14.8001C8.53885 14.9105 8.62839 15.0001 8.73885 15.0001H15.2955C15.4059 15.0001 15.4955 14.9105 15.4955 14.8001V8.24345C15.4955 8.13299 15.4059 8.04345 15.2955 8.04345H12.7824V10.4086L12.0172 9.73282L11.252 10.4086V8.04345Z" fill="#66ACF7"/>
</svg>