<svg width="50" height="20" viewBox="0 0 50 20" fill="none" xmlns="http://www.w3.org/2000/svg">
<path class="fill" fill-rule="evenodd" clip-rule="evenodd" d="M37.2895 11.4885H24.3768H10.8362V14.7426C10.837 15.1218 10.9881 15.4853 11.2563 15.7535C11.5244 16.0217 11.8879 16.1727 12.2672 16.1736H14.1795C14.2197 15.1938 14.6371 14.2674 15.3446 13.5884C16.0521 12.9093 16.9948 12.5301 17.9754 12.5301C18.956 12.5301 19.8987 12.9093 20.6062 13.5884C21.3136 14.2674 21.7311 15.1938 21.7713 16.1736H24.3768H26.9823C27.0224 15.1938 27.4399 14.2674 28.1474 13.5884C28.8549 12.9093 29.7975 12.5301 30.7782 12.5301C31.7588 12.5301 32.7015 12.9093 33.409 13.5884C34.1164 14.2674 34.5339 15.1938 34.5741 16.1736H40.5691C40.7826 11.3132 47.7529 10.6407 48.4637 16.1736H49.9999C49.423 10.0543 50.223 11.3929 44.4224 9.18417C44.359 8.4561 44.1937 7.74051 43.9315 7.05834C42.8288 4.0178 40.9994 4.28233 37.2895 4.25684V11.4885ZM30.7782 13.4677C30.2109 13.4677 29.6563 13.6359 29.1846 13.9511C28.7128 14.2663 28.3452 14.7143 28.1281 15.2384C27.911 15.7626 27.8542 16.3393 27.9649 16.8957C28.0755 17.4522 28.3487 17.9633 28.7499 18.3644C29.151 18.7656 29.6621 19.0388 30.2186 19.1495C30.775 19.2601 31.3517 19.2033 31.8759 18.9862C32.4 18.7691 32.848 18.4015 33.1632 17.9297C33.4784 17.458 33.6466 16.9035 33.6466 16.3361C33.6466 15.5754 33.3444 14.8458 32.8065 14.3078C32.2685 13.7699 31.5389 13.4677 30.7782 13.4677ZM30.7782 15.2366C30.5582 15.2334 30.3422 15.2958 30.1577 15.4157C29.9732 15.5356 29.8286 15.7077 29.7422 15.9101C29.6558 16.1125 29.6315 16.336 29.6725 16.5521C29.7135 16.7683 29.8179 16.9674 29.9723 17.1242C30.1268 17.2809 30.3244 17.3881 30.5399 17.4322C30.7555 17.4763 30.9793 17.4553 31.1829 17.3718C31.3865 17.2884 31.5607 17.1462 31.6833 16.9635C31.8059 16.7808 31.8713 16.5657 31.8714 16.3457C31.8718 16.2002 31.8435 16.056 31.7881 15.9215C31.7327 15.7869 31.6513 15.6646 31.5486 15.5616C31.4458 15.4586 31.3238 15.3768 31.1894 15.3211C31.055 15.2653 30.9109 15.2366 30.7654 15.2366H30.7782ZM17.9818 13.4677C17.4144 13.4677 16.8599 13.6359 16.3882 13.9511C15.9164 14.2663 15.5488 14.7143 15.3317 15.2384C15.1146 15.7626 15.0578 16.3393 15.1685 16.8957C15.2791 17.4522 15.5523 17.9633 15.9535 18.3644C16.3546 18.7656 16.8657 19.0388 17.4222 19.1495C17.9786 19.2601 18.5553 19.2033 19.0795 18.9862C19.6036 18.7691 20.0516 18.4015 20.3668 17.9297C20.682 17.458 20.8502 16.9035 20.8502 16.3361C20.8502 15.5754 20.548 14.8458 20.0101 14.3078C19.4721 13.7699 18.7425 13.4677 17.9818 13.4677ZM17.9818 15.2366C17.7623 15.2359 17.5475 15.3004 17.3647 15.4219C17.1819 15.5434 17.0392 15.7164 16.9548 15.919C16.8704 16.1216 16.8479 16.3448 16.8904 16.5601C16.9328 16.7755 17.0382 16.9734 17.1932 17.1288C17.3482 17.2843 17.5458 17.3902 17.761 17.4333C17.9763 17.4763 18.1994 17.4545 18.4023 17.3707C18.6051 17.2868 18.7786 17.1447 18.9006 16.9622C19.0226 16.7798 19.0877 16.5652 19.0877 16.3457C19.0877 16.0521 18.9713 15.7705 18.764 15.5625C18.5567 15.3546 18.2754 15.2374 17.9818 15.2366ZM44.518 13.1809C43.8925 13.1802 43.2809 13.3651 42.7606 13.7121C42.2402 14.0592 41.8345 14.5527 41.5947 15.1304C41.3549 15.708 41.2919 16.3438 41.4135 16.9574C41.5351 17.5709 41.836 18.1345 42.278 18.577C42.7201 19.0195 43.2834 19.3209 43.8968 19.4432C44.5102 19.5654 45.1461 19.503 45.724 19.2638C46.3019 19.0246 46.7958 18.6194 47.1434 18.0994C47.4909 17.5794 47.6764 16.968 47.6764 16.3425C47.6764 15.5045 47.3438 14.7008 46.7515 14.108C46.1593 13.5152 45.3559 13.1817 44.518 13.1809ZM44.518 15.125C44.277 15.1244 44.0413 15.1953 43.8407 15.3286C43.6401 15.462 43.4835 15.652 43.3909 15.8744C43.2983 16.0968 43.2737 16.3417 43.3203 16.5781C43.3669 16.8144 43.4826 17.0317 43.6528 17.2023C43.8229 17.3729 44.0398 17.4891 44.2761 17.5364C44.5124 17.5836 44.7573 17.5597 44.98 17.4676C45.2026 17.3756 45.393 17.2195 45.5269 17.0192C45.6608 16.819 45.7323 16.5834 45.7323 16.3425C45.7323 16.0202 45.6044 15.711 45.3768 15.4827C45.1492 15.2545 44.8403 15.1259 44.518 15.125ZM40.9101 5.91734L39.1253 5.88866V9.18417H42.4304C42.2818 7.96188 41.7495 6.81816 40.9101 5.91734Z" />
<path class="fill" fill-rule="evenodd" clip-rule="evenodd" d="M0 11.4888V14.7428C0.000841899 15.1221 0.151881 15.4856 0.420069 15.7538C0.688257 16.022 1.05176 16.173 1.43103 16.1739H3.34332C3.38348 15.1941 3.80097 14.2677 4.50844 13.5887C5.21592 12.9096 6.15857 12.5304 7.13921 12.5304C8.11986 12.5304 9.06251 12.9096 9.76999 13.5887C10.4775 14.2677 10.8949 15.1941 10.9351 16.1739H13.5406V11.4888H0ZM7.14559 13.468C6.57827 13.468 6.02368 13.6362 5.55197 13.9514C5.08026 14.2666 4.71261 14.7146 4.4955 15.2387C4.2784 15.7629 4.22159 16.3396 4.33227 16.896C4.44295 17.4524 4.71614 17.9636 5.1173 18.3647C5.51846 18.7659 6.02956 19.0391 6.58599 19.1497C7.14241 19.2604 7.71915 19.2036 8.24329 18.9865C8.76743 18.7694 9.21542 18.4018 9.53061 17.93C9.84579 17.4583 10.014 16.9037 10.014 16.3364C10.014 15.5757 9.71181 14.8461 9.17388 14.3081C8.63594 13.7702 7.90635 13.468 7.14559 13.468ZM7.14546 15.2368C6.92596 15.2362 6.71121 15.3007 6.5284 15.4222C6.34558 15.5437 6.20293 15.7167 6.11849 15.9193C6.03406 16.1219 6.01164 16.345 6.05407 16.5604C6.09651 16.7757 6.20189 16.9736 6.35688 17.1291C6.51186 17.2845 6.70949 17.3905 6.92472 17.4335C7.13996 17.4766 7.36313 17.4548 7.56598 17.3709C7.76883 17.2871 7.94224 17.1449 8.06426 16.9625C8.18627 16.78 8.2514 16.5654 8.2514 16.3459C8.25141 16.0523 8.13499 15.7707 7.92768 15.5628C7.72036 15.3549 7.43907 15.2377 7.14546 15.2368Z" />
<path class="fill" fill-rule="evenodd" clip-rule="evenodd" d="M0.832645 0.166992C0.548613 0.166992 0.318359 0.397247 0.318359 0.681279V10.0641C0.318359 10.3481 0.548614 10.5783 0.832646 10.5783H17.6521C17.9361 10.5783 18.1664 10.3481 18.1664 10.0641V0.681278C18.1664 0.397246 17.9361 0.166992 17.6521 0.166992H0.832645ZM3.80716 2.65498C3.80716 2.51297 3.69203 2.39784 3.55002 2.39784C3.408 2.39784 3.29287 2.51297 3.29287 2.65498L3.29287 8.09004C3.29287 8.23206 3.408 8.34718 3.55002 8.34718C3.69203 8.34718 3.80716 8.23206 3.80716 8.09004L3.80716 2.65498ZM6.52463 2.39869C6.66665 2.39869 6.78178 2.51381 6.78178 2.65583V8.09089C6.78178 8.2329 6.66665 8.34803 6.52463 8.34803C6.38262 8.34803 6.26749 8.2329 6.26749 8.09089V2.65583C6.26749 2.51381 6.38262 2.39869 6.52463 2.39869ZM9.75602 2.65583C9.75602 2.51381 9.64089 2.39869 9.49887 2.39869C9.35686 2.39869 9.24173 2.51381 9.24173 2.65583V8.09089C9.24173 8.2329 9.35686 8.34803 9.49887 8.34803C9.64089 8.34803 9.75602 8.2329 9.75602 8.09089V2.65583ZM12.4735 2.39859C12.6155 2.39859 12.7306 2.51372 12.7306 2.65574V8.09079C12.7306 8.23281 12.6155 8.34794 12.4735 8.34794C12.3315 8.34794 12.2163 8.23281 12.2163 8.09079V2.65574C12.2163 2.51372 12.3315 2.39859 12.4735 2.39859ZM15.7053 2.65583C15.7053 2.51381 15.5901 2.39869 15.4481 2.39869C15.3061 2.39869 15.191 2.51381 15.191 2.65583V8.09089C15.191 8.2329 15.3061 8.34803 15.4481 8.34803C15.5901 8.34803 15.7053 8.2329 15.7053 8.09089V2.65583Z" />
<path class="fill" fill-rule="evenodd" clip-rule="evenodd" d="M19.0001 0.166992C18.7161 0.166992 18.4858 0.397247 18.4858 0.681279V10.0641C18.4858 10.3481 18.7161 10.5783 19.0001 10.5783H35.8196C36.1036 10.5783 36.3339 10.3481 36.3339 10.0641V0.681278C36.3339 0.397246 36.1036 0.166992 35.8196 0.166992H19.0001ZM21.9749 2.65498C21.9749 2.51297 21.8598 2.39784 21.7178 2.39784C21.5758 2.39784 21.4607 2.51297 21.4607 2.65498L21.4607 8.09004C21.4607 8.23206 21.5758 8.34718 21.7178 8.34718C21.8598 8.34718 21.9749 8.23206 21.9749 8.09004L21.9749 2.65498ZM24.6924 2.39869C24.8344 2.39869 24.9496 2.51381 24.9496 2.65583V8.09089C24.9496 8.2329 24.8344 8.34803 24.6924 8.34803C24.5504 8.34803 24.4353 8.2329 24.4353 8.09089V2.65583C24.4353 2.51381 24.5504 2.39869 24.6924 2.39869ZM27.9238 2.65583C27.9238 2.51381 27.8087 2.39869 27.6667 2.39869C27.5246 2.39869 27.4095 2.51381 27.4095 2.65583V8.09089C27.4095 8.2329 27.5246 8.34803 27.6667 8.34803C27.8087 8.34803 27.9238 8.2329 27.9238 8.09089V2.65583ZM30.6413 2.39859C30.7833 2.39859 30.8984 2.51372 30.8984 2.65574V8.09079C30.8984 8.23281 30.7833 8.34794 30.6413 8.34794C30.4993 8.34794 30.3841 8.23281 30.3841 8.09079V2.65574C30.3841 2.51372 30.4993 2.39859 30.6413 2.39859ZM33.873 2.65583C33.873 2.51381 33.7579 2.39869 33.6159 2.39869C33.4739 2.39869 33.3587 2.51381 33.3587 2.65583V8.09089C33.3587 8.2329 33.4739 8.34803 33.6159 8.34803C33.7579 8.34803 33.873 8.2329 33.873 8.09089V2.65583Z" />
</svg>
