<svg width="54" height="54" viewBox="0 0 54 54" fill="none" xmlns="http://www.w3.org/2000/svg">
<circle cx="27" cy="27" r="27" fill="#356EFD"/>
<path d="M15 14V40.9286H31.6154V38.8571H17.0769V16.0714H27.4615V22.2857H33.6923V24.3571H35.7692V20.8357L35.4577 20.525L29.2269 14.3107L28.9154 14H15ZM29.5385 17.5214L32.2385 20.2143H29.5385V17.5214ZM19.1538 24.3571V26.4286H31.6154V24.3571H19.1538ZM36.8077 26.4286V28.5C35.0423 28.8107 33.6923 30.2607 33.6923 32.125C33.6923 34.1964 35.25 35.75 37.3269 35.75H38.3654C39.1962 35.75 39.9231 36.475 39.9231 37.3036C39.9231 38.1321 39.1962 38.8571 38.3654 38.8571H34.7308V40.9286H36.8077V43H38.8846V40.9286C40.65 40.6179 42 39.1679 42 37.3036C42 35.2321 40.4423 33.6786 38.3654 33.6786H37.3269C36.4962 33.6786 35.7692 32.9536 35.7692 32.125C35.7692 31.2964 36.4962 30.5714 37.3269 30.5714H40.9615V28.5H38.8846V26.4286H36.8077ZM19.1538 29.5357V31.6071H26.4231V29.5357H19.1538ZM28.5 29.5357V31.6071H31.6154V29.5357H28.5ZM19.1538 33.6786V35.75H26.4231V33.6786H19.1538ZM28.5 33.6786V35.75H31.6154V33.6786H28.5Z" fill="white"/>
</svg>
