<svg width="54" height="54" viewBox="0 0 54 54" fill="none" xmlns="http://www.w3.org/2000/svg">
<circle cx="27" cy="27" r="27" fill="#356EFD"/>
<path fill-rule="evenodd" clip-rule="evenodd" d="M32.0804 31.6127C32.2381 31.6088 32.3927 31.6568 32.5204 31.7494C32.6915 31.8592 32.8846 32.074 33.1241 32.2082C33.4614 32.401 34.0847 32.1374 34.4025 32.6109C34.5412 32.8198 34.6136 33.0656 34.6103 33.3163C34.6199 33.5928 34.7233 33.8578 34.9036 34.068C35.2947 34.5854 35.3753 34.9295 35.1749 35.2883C35.0356 35.5323 34.7471 35.669 34.686 35.8228C34.5443 36.1522 34.7007 36.3987 34.5076 36.7844C34.4458 36.9107 34.3585 37.0229 34.2512 37.114C34.144 37.2052 34.0191 37.2732 33.8843 37.314C33.6399 37.3896 33.4125 37.2798 33.2243 37.3603C32.8944 37.4995 32.6524 37.8216 32.3884 37.9046C32.2904 37.9356 32.1881 37.9513 32.0853 37.951C31.9825 37.9511 31.8802 37.9354 31.7822 37.9046C31.5182 37.8241 31.2762 37.4995 30.9462 37.3603C30.758 37.2822 30.5234 37.3896 30.2863 37.314C30.1514 37.274 30.0265 37.2062 29.9195 37.115C29.8126 37.0238 29.726 36.9111 29.6654 36.7844C29.4699 36.3987 29.6263 36.1522 29.4845 35.8228C29.4185 35.6666 29.1301 35.5299 28.9957 35.2883C28.7928 34.9295 28.8734 34.5854 29.267 34.068C29.4463 33.8572 29.5496 33.5925 29.5603 33.3163C29.5564 33.0656 29.6288 32.8196 29.7681 32.6109C30.0858 32.1374 30.7116 32.4035 31.0464 32.2082C31.2909 32.074 31.4791 31.8568 31.6502 31.7494C31.7783 31.6578 31.9326 31.6099 32.0902 31.6127H32.0804ZM16.8205 41.9975C15.8574 42.0121 15.0117 41.9706 14.3444 41.6582C13.5011 41.2629 13 40.516 13 39.1005V37.8094H16.6909V15.2777C16.6372 13.9818 16.9525 13.1764 17.5318 12.6736C18.1111 12.1708 18.8933 12.0293 19.8172 12.0098C19.8612 11.9878 38.1056 12.0098 40 12.0098V38.893C40 39.9815 39.7311 40.7528 39.1787 41.2677C38.6263 41.7827 37.8441 41.9999 36.7882 41.9999L16.8205 41.9975ZM21.3229 17.7476C21.1848 17.7476 21.0524 17.6929 20.9548 17.5954C20.8571 17.4979 20.8023 17.3657 20.8023 17.2278C20.8023 17.0899 20.8571 16.9577 20.9548 16.8602C21.0524 16.7627 21.1848 16.7079 21.3229 16.7079H30.8191C30.9572 16.7079 31.0896 16.7627 31.1873 16.8602C31.2849 16.9577 31.3398 17.0899 31.3398 17.2278C31.3398 17.3657 31.2849 17.4979 31.1873 17.5954C31.0896 17.6929 30.9572 17.7476 30.8191 17.7476H21.3229ZM21.3229 21.2889C21.1848 21.2889 21.0524 21.2342 20.9548 21.1367C20.8571 21.0392 20.8023 20.907 20.8023 20.7691C20.8023 20.6312 20.8571 20.499 20.9548 20.4015C21.0524 20.304 21.1848 20.2492 21.3229 20.2492H35.28C35.4181 20.2492 35.5505 20.304 35.6482 20.4015C35.7458 20.499 35.8007 20.6312 35.8007 20.7691C35.8007 20.907 35.7458 21.0392 35.6482 21.1367C35.5505 21.2342 35.4181 21.2889 35.28 21.2889H21.3229ZM21.3229 31.9056C21.1855 31.9056 21.0537 31.8511 20.9565 31.754C20.8593 31.657 20.8047 31.5254 20.8047 31.3882C20.8047 31.2509 20.8593 31.1193 20.9565 31.0223C21.0537 30.9253 21.1855 30.8708 21.3229 30.8708H26.1407C26.2781 30.8708 26.4099 30.9253 26.5071 31.0223C26.6043 31.1193 26.6589 31.2509 26.6589 31.3882C26.6589 31.5254 26.6043 31.657 26.5071 31.754C26.4099 31.8511 26.2781 31.9056 26.1407 31.9056H21.3229ZM21.3229 28.3691C21.1848 28.3691 21.0524 28.3144 20.9548 28.2169C20.8571 28.1194 20.8023 27.9872 20.8023 27.8493C20.8023 27.7114 20.8571 27.5792 20.9548 27.4817C21.0524 27.3842 21.1848 27.3294 21.3229 27.3294H35.28C35.4181 27.3294 35.5505 27.3842 35.6482 27.4817C35.7458 27.5792 35.8007 27.7114 35.8007 27.8493C35.8007 27.9872 35.7458 28.1194 35.6482 28.2169C35.5505 28.3144 35.4181 28.3691 35.28 28.3691H21.3229ZM21.3229 24.8205C21.1868 24.8205 21.0562 24.7665 20.96 24.6704C20.8637 24.5743 20.8096 24.4439 20.8096 24.308C20.8096 24.172 20.8637 24.0417 20.96 23.9456C21.0562 23.8494 21.1868 23.7954 21.3229 23.7954H35.3607C35.4968 23.7954 35.6274 23.8494 35.7236 23.9456C35.8199 24.0417 35.874 24.172 35.874 24.308C35.874 24.4439 35.8199 24.5743 35.7236 24.6704C35.6274 24.7665 35.4968 24.8205 35.3607 24.8205H21.3229ZM21.0663 35.6373C22.2738 34.0533 23.3028 34.7709 24.7328 35.7715L24.9454 35.9204C25.3389 36.1937 25.796 35.791 26.2287 35.4079C26.4289 35.2218 26.6429 35.0513 26.8691 34.8978L27.314 35.5982C27.126 35.7281 26.9478 35.8716 26.7811 36.0278C26.1065 36.6208 25.4001 37.2481 24.4737 36.6013L24.2561 36.45C23.2026 35.7178 22.4473 35.1882 21.7213 36.14L21.0663 35.6373ZM16.6909 38.8564H14.0413V39.1005C14.0413 40.0352 14.3199 40.5014 14.7746 40.7186C15.2292 40.9358 15.9014 40.9627 16.6836 40.9627V38.8564H16.6909ZM38.9612 38.9004V13.0592H19.8221C19.1304 13.0592 18.5633 13.1544 18.2113 13.457C17.8593 13.7597 17.6882 14.3039 17.7224 15.2533V40.9578H36.7882C37.5752 40.9578 38.135 40.8211 38.4699 40.5063C38.8047 40.1914 38.9587 39.6765 38.9587 38.893L38.9612 38.9004ZM32.0804 32.8818C32.4566 32.8813 32.8245 32.9923 33.1376 33.2006C33.4506 33.409 33.6947 33.7054 33.8391 34.0523C33.9834 34.3992 34.0214 34.7811 33.9483 35.1496C33.8752 35.518 33.6943 35.8566 33.4284 36.1224C33.1625 36.3882 32.8237 36.5693 32.4547 36.6427C32.0858 36.7162 31.7033 36.6787 31.3557 36.5351C31.008 36.3915 30.7109 36.1481 30.5018 35.8358C30.2927 35.5235 30.1812 35.1563 30.1812 34.7806C30.1812 34.2775 30.3812 33.7949 30.7373 33.4388C31.0934 33.0828 31.5765 32.8825 32.0804 32.8818Z" fill="white"/>
</svg>
