<svg width="111" height="49" viewBox="0 0 111 49" fill="none" xmlns="http://www.w3.org/2000/svg">
<g opacity="0.85" filter="url(#filter0_d_16511_98288)">
<path d="M97 35V14H15.6841C14.9251 14 14.4428 14.8123 14.8061 15.4786L19.4632 24.0213C19.6259 24.3197 19.6259 24.6803 19.4632 24.9787L14.8061 33.5213C14.4428 34.1877 14.9251 35 15.6841 35H97Z" fill="#FF6161"/>
</g>
<path d="M51.8135 27H50.8711L47.292 21.5215V27H46.3496V19.8906H47.292L50.8809 25.3936V19.8906H51.8135V27ZM55.5293 27.0977C54.8132 27.0977 54.2305 26.8633 53.7812 26.3945C53.332 25.9225 53.1074 25.2926 53.1074 24.5049V24.3389C53.1074 23.8148 53.2067 23.3477 53.4053 22.9375C53.6071 22.5241 53.887 22.2018 54.2451 21.9707C54.6064 21.7363 54.9971 21.6191 55.417 21.6191C56.1038 21.6191 56.6377 21.8454 57.0186 22.2979C57.3994 22.7503 57.5898 23.3981 57.5898 24.2412V24.6172H54.0107C54.0238 25.138 54.1751 25.5596 54.4648 25.8818C54.7578 26.2008 55.1289 26.3604 55.5781 26.3604C55.8971 26.3604 56.1673 26.2952 56.3887 26.165C56.61 26.0348 56.8037 25.8623 56.9697 25.6475L57.5215 26.0771C57.0788 26.7575 56.4147 27.0977 55.5293 27.0977ZM55.417 22.3613C55.0524 22.3613 54.7464 22.4948 54.499 22.7617C54.2516 23.0254 54.0986 23.3965 54.04 23.875H56.6865V23.8066C56.6605 23.3477 56.5368 22.9928 56.3154 22.7422C56.0941 22.4883 55.7946 22.3613 55.417 22.3613ZM63.3174 25.7549L64.333 21.7168H65.2363L63.6982 27H62.9658L61.6816 22.9961L60.4316 27H59.6992L58.166 21.7168H59.0645L60.1045 25.6719L61.335 21.7168H62.0625L63.3174 25.7549Z" fill="white"/>
<defs>
<filter id="filter0_d_16511_98288" x="0.682617" y="0" width="110.317" height="49" filterUnits="userSpaceOnUse" color-interpolation-filters="sRGB">
<feFlood flood-opacity="0" result="BackgroundImageFix"/>
<feColorMatrix in="SourceAlpha" type="matrix" values="0 0 0 0 0 0 0 0 0 0 0 0 0 0 0 0 0 0 127 0" result="hardAlpha"/>
<feOffset/>
<feGaussianBlur stdDeviation="7"/>
<feColorMatrix type="matrix" values="0 0 0 0 0 0 0 0 0 0 0 0 0 0 0 0 0 0 0.14 0"/>
<feBlend mode="normal" in2="BackgroundImageFix" result="effect1_dropShadow_16511_98288"/>
<feBlend mode="normal" in="SourceGraphic" in2="effect1_dropShadow_16511_98288" result="shape"/>
</filter>
</defs>
</svg>
